<svg xmlns="http://www.w3.org/2000/svg" width="25.497" height="25.497" viewBox="0 0 25.497 25.497"><g transform="translate(-329 -385)"><rect width="25" height="25" transform="translate(329 385)" opacity="0"></rect><g transform="translate(329.503 385.503)"><path d="M0,0H24.995V24.995H0Z" fill="none" fill-rule="evenodd"></path><path d="M18.5,22.561l-7.5-7.5V4.353a1.353,1.353,0,1,1,2.706,0v9.588l6.707,6.707,2.963-2.963a.677.677,0,0,1,1.154.479v7.162a.677.677,0,0,1-.677.677H16.692a.677.677,0,0,1-.478-1.156L18.5,22.561Z" transform="translate(-0.215 -2.325)" fill="#0c7ff2" fill-rule="evenodd"></path><path d="M8.733,18.551l2.707,2.707a.677.677,0,0,1-.478,1.156H3.706a.677.677,0,0,1-.677-.677V14.48A.677.677,0,0,1,4.183,14l2.63,2.63,4.1-3.468,1.748,2.066Z" transform="translate(-3.029 1.263)" fill="#0c7ff2" fill-rule="evenodd" opacity="0.3"></path></g></g></svg>