<svg xmlns="http://www.w3.org/2000/svg" width="25" height="25" viewBox="0 0 25 25"><g transform="translate(-285 -385)"><rect width="25" height="25" transform="translate(285 385)" opacity="0"></rect><path d="M14.5,8.943h-5a5,5,0,0,0-5,5v1.25a3.75,3.75,0,0,0,3.75,3.75v2.5A6.25,6.25,0,0,1,2,15.193v-1.25a7.5,7.5,0,0,1,7.5-7.5h5V4.853a.625.625,0,0,1,1-.5l3.57,2.666a.625.625,0,0,1,0,1L15.5,10.673a.625.625,0,0,1-1-.5Z" transform="translate(283 381.435)" fill="#0c7ff2" fill-rule="evenodd"></path><path d="M13.022,18.5H17.95a5,5,0,0,0,5-5V12.25A3.75,3.75,0,0,0,19.2,8.5V6a6.25,6.25,0,0,1,6.25,6.25V13.5a7.5,7.5,0,0,1-7.5,7.5H13.022v1.229a.625.625,0,0,1-1,.5L8.454,20.08a.625.625,0,0,1,0-1l3.57-2.667a.625.625,0,0,1,1,.5V18.5Z" transform="translate(284.55 386.484)" fill="#0c7ff2" fill-rule="evenodd" opacity="0.3"></path><path d="M7.875,9.812A1.937,1.937,0,1,0,5.937,7.875,1.937,1.937,0,0,0,7.875,9.812Zm0,1.937A3.875,3.875,0,1,1,11.75,7.875,3.875,3.875,0,0,1,7.875,11.75Z" transform="translate(289.625 389.531)" fill="#0c7ff2" fill-rule="evenodd"></path></g></svg>