<svg xmlns="http://www.w3.org/2000/svg" width="25" height="25" viewBox="0 0 25 25"><g transform="translate(-367 -384)"><g transform="translate(367.531 383.531)"><rect width="25" height="25" transform="translate(-0.531 0.469)" opacity="0"></rect><path d="M8.59,3H20.066a2.3,2.3,0,0,1,2.3,2.3V23.656a2.3,2.3,0,0,1-2.3,2.3H6.3a2.3,2.3,0,0,1-2.3-2.3V5.3A2.3,2.3,0,0,1,6.3,3Z" transform="translate(-1.244 -1.5)" fill="#0c7ff2" fill-rule="evenodd" opacity="0.3"></path><rect width="5.522" height="2.209" rx="1" transform="translate(7.519 9.62)" fill="#0c7ff2" opacity="0.8"></rect><rect width="9.94" height="2.209" rx="1" transform="translate(7.519 14.037)" fill="#0c7ff2" opacity="0.8"></rect><rect width="9.94" height="2.209" rx="1" transform="translate(7.519 18.455)" fill="#0c7ff2" opacity="0.8"></rect><path d="M2.209,0h0a0,0,0,0,1,0,0V22.089a0,0,0,0,1,0,0h0A2.209,2.209,0,0,1,0,19.88V2.209A2.209,2.209,0,0,1,2.209,0Z" transform="translate(3.101 1.888)" fill="#2d90f4"></path></g></g></svg>