<svg xmlns:inkscape="http://www.inkscape.org/namespaces/inkscape" xmlns:sodipodi="http://sodipodi.sourceforge.net/DTD/sodipodi-0.dtd" xmlns="http://www.w3.org/2000/svg" xmlns:svg="http://www.w3.org/2000/svg" viewBox="0 0 1024 1024" id="svg345" sodipodi:docname="CGaaS_On-Premis.svg" inkscape:version="1.1.1 (3bf5ae0d25, 2021-09-20)"><defs id="defs4"><style id="style2">.cls-1{isolation:isolate;}.cls-2{fill:#9caab8;}.cls-10,.cls-2,.cls-3,.cls-4,.cls-5,.cls-7,.cls-8{stroke:#24313e;}.cls-10,.cls-13,.cls-2,.cls-3,.cls-4,.cls-5,.cls-7,.cls-8,.cls-9{stroke-miterlimit:10;}.cls-10,.cls-13,.cls-2,.cls-3,.cls-4,.cls-5,.cls-6,.cls-7,.cls-8,.cls-9{stroke-width:2px;}.cls-3{fill:#455666;}.cls-4{fill:#6b7e8f;}.cls-5{fill:#ff4451;}.cls-6{fill:#f4e969;stroke-linecap:round;stroke-linejoin:round;}.cls-13,.cls-6,.cls-9{stroke:#031439;}.cls-7{fill:#28c397;}.cls-8{fill:#0c7ff2;}.cls-13,.cls-9{fill:#24313e;}.cls-10{fill:#f5f7f9;}.cls-11{fill:#ebf0f5;}.cls-11,.cls-12{opacity:0.21;mix-blend-mode:overlay;}.cls-13{opacity:0.09;mix-blend-mode:multiply;}</style></defs><g class="cls-1" id="g343" transform="translate(0,-160)"><g id="Layer_1" data-name="Layer 1"><rect class="cls-2" x="87.010002" y="882.19" width="62.5" height="62.5" rx="31.25" id="rect6"></rect><rect class="cls-3" x="220.39" y="847.34003" width="725.12" height="34.849998" rx="17.42" id="rect8"></rect><rect class="cls-3" x="283.31" y="226.57001" width="599.28998" height="154.3" rx="14.18" transform="rotate(180,582.955,303.72)" id="rect10"></rect><rect class="cls-4" x="124.08" y="226.57001" width="599.28998" height="154.3" rx="14.18" transform="rotate(180,423.725,303.72)" id="rect12"></rect><circle class="cls-5" cx="166.49001" cy="259.39999" r="6.1399999" id="circle14"></circle><circle class="cls-6" cx="185.39999" cy="259.39999" r="6.1399999" id="circle16"></circle><circle class="cls-7" cx="204.32001" cy="259.39999" r="6.1399999" id="circle18"></circle><rect class="cls-8" x="360.06" y="336.35001" width="313.39999" height="10.65" rx="5.3299999" transform="rotate(180,516.755,341.68)" id="rect20"></rect><rect class="cls-8" x="360.06" y="312.57001" width="313.39999" height="10.65" rx="5.3299999" transform="rotate(180,516.755,317.9)" id="rect22"></rect><rect class="cls-8" x="360.06" y="288.79001" width="313.39999" height="10.65" rx="5.3299999" transform="rotate(180,516.755,294.115)" id="rect24"></rect><rect class="cls-8" x="360.06" y="265.01001" width="313.39999" height="10.65" rx="5.3299999" transform="rotate(180,516.755,270.335)" id="rect26"></rect><ellipse class="cls-9" cx="760.70001" cy="329.70999" rx="7.2399998" ry="9.5900002" id="ellipse28"></ellipse><ellipse class="cls-10" cx="764.59998" cy="329.70999" rx="7.2399998" ry="9.5900002" id="ellipse30"></ellipse><ellipse class="cls-9" cx="808.40997" cy="329.70999" rx="7.2399998" ry="9.5900002" id="ellipse32"></ellipse><ellipse class="cls-10" cx="812.31" cy="329.70999" rx="7.2399998" ry="9.5900002" id="ellipse34"></ellipse><ellipse class="cls-9" cx="849.41998" cy="327.48999" rx="7.2399998" ry="9.5900002" id="ellipse36"></ellipse><ellipse class="cls-10" cx="853.32001" cy="327.48999" rx="7.2399998" ry="9.5900002" id="ellipse38"></ellipse><rect class="cls-3" x="283.31" y="380.87" width="599.28998" height="154.3" rx="14.18" transform="rotate(180,582.955,458.02)" id="rect40"></rect><rect class="cls-4" x="124.08" y="380.87" width="599.28998" height="154.3" rx="14.18" transform="rotate(180,423.725,458.02)" id="rect42"></rect><rect class="cls-9" x="594.13" y="490.64999" width="79.32" height="10.65" rx="5.3299999" transform="rotate(180,633.795,495.98)" id="rect44"></rect><rect class="cls-9" x="594.13" y="469.09" width="79.32" height="10.65" rx="5.3299999" transform="rotate(180,633.795,474.415)" id="rect46"></rect><rect class="cls-9" x="594.13" y="447.53" width="79.32" height="10.65" rx="5.3299999" transform="rotate(180,633.795,452.855)" id="rect48"></rect><rect class="cls-9" x="594.13" y="425.97" width="79.32" height="10.65" rx="5.3299999" transform="rotate(180,633.795,431.295)" id="rect50"></rect><rect class="cls-11" x="594.69" y="425.97" width="78.209999" height="2.9200001" rx="1.46" transform="rotate(180,633.795,427.425)" id="rect52"></rect><rect class="cls-11" x="594.69" y="447.53" width="78.209999" height="2.9200001" rx="1.46" transform="rotate(180,633.795,448.99)" id="rect54"></rect><rect class="cls-11" x="594.69" y="469.09" width="78.209999" height="2.9200001" rx="1.46" transform="rotate(180,633.795,470.55)" id="rect56"></rect><rect class="cls-11" x="594.69" y="490.64999" width="78.209999" height="2.9200001" rx="1.46" transform="rotate(180,633.795,492.115)" id="rect58"></rect><rect class="cls-12" x="594.69" y="433.70001" width="78.209999" height="2.9200001" rx="1.46" transform="rotate(180,633.795,435.16)" id="rect60"></rect><rect class="cls-12" x="594.69" y="455.26001" width="78.209999" height="2.9200001" rx="1.46" transform="rotate(180,633.795,456.72)" id="rect62"></rect><rect class="cls-12" x="594.69" y="476.82001" width="78.209999" height="2.9200001" rx="1.46" transform="rotate(180,633.795,478.285)" id="rect64"></rect><rect class="cls-12" x="594.69" y="498.38" width="78.209999" height="2.9200001" rx="1.46" transform="rotate(180,633.795,499.845)" id="rect66"></rect><rect class="cls-9" x="160.35001" y="490.64999" width="388.66" height="10.65" rx="5.3299999" transform="rotate(180,354.675,495.98)" id="rect68"></rect><rect class="cls-9" x="160.35001" y="469.09" width="388.66" height="10.65" rx="5.3299999" transform="rotate(180,354.675,474.415)" id="rect70"></rect><rect class="cls-9" x="160.35001" y="447.53" width="388.66" height="10.65" rx="5.3299999" transform="rotate(180,354.675,452.855)" id="rect72"></rect><rect class="cls-9" x="160.35001" y="425.97" width="388.66" height="10.65" rx="5.3299999" transform="rotate(180,354.675,431.295)" id="rect74"></rect><rect class="cls-11" x="163.08" y="425.97" width="383.20001" height="2.9200001" rx="1.46" transform="rotate(180,354.675,427.425)" id="rect76"></rect><rect class="cls-11" x="163.08" y="447.53" width="383.20001" height="2.9200001" rx="1.46" transform="rotate(180,354.675,448.99)" id="rect78"></rect><rect class="cls-11" x="163.08" y="469.09" width="383.20001" height="2.9200001" rx="1.46" transform="rotate(180,354.675,470.55)" id="rect80"></rect><rect class="cls-11" x="163.08" y="490.64999" width="383.20001" height="2.9200001" rx="1.46" transform="rotate(180,354.675,492.115)" id="rect82"></rect><rect class="cls-12" x="163.08" y="433.70001" width="383.20001" height="2.9200001" rx="1.46" transform="rotate(180,354.675,435.16)" id="rect84"></rect><rect class="cls-12" x="163.08" y="455.26001" width="383.20001" height="2.9200001" rx="1.46" transform="rotate(180,354.675,456.72)" id="rect86"></rect><rect class="cls-12" x="163.08" y="476.82001" width="383.20001" height="2.9200001" rx="1.46" transform="rotate(180,354.675,478.285)" id="rect88"></rect><rect class="cls-12" x="163.08" y="498.38" width="383.20001" height="2.9200001" rx="1.46" transform="rotate(180,354.675,499.845)" id="rect90"></rect><rect class="cls-9" x="745.03998" y="347.01001" width="113.96" height="11.78" transform="rotate(180,802.02,352.895)" id="rect92"></rect><rect class="cls-2" x="751.47998" y="347.01001" width="113.96" height="11.78" transform="rotate(180,808.46,352.895)" id="rect94"></rect><rect class="cls-11" x="123.86" y="226.57001" width="758.73999" height="9.6199999" rx="4.8099999" transform="rotate(180,503.23,231.385)" id="rect96"></rect><rect class="cls-11" x="126.25" y="381.26999" width="756.34003" height="9.6199999" rx="4.8099999" transform="rotate(180,504.425,386.085)" id="rect98"></rect><rect class="cls-13" x="137.64" y="373.85999" width="740.15002" height="7.73" rx="3.8599999" transform="rotate(180,507.715,377.73)" id="rect100"></rect><rect class="cls-13" x="137.64" y="527.44" width="743.40002" height="7.73" rx="3.8599999" transform="rotate(180,509.345,531.305)" id="rect102"></rect><rect class="cls-3" x="283.31" y="535.65997" width="599.28998" height="154.3" rx="14.18" transform="rotate(180,582.955,612.815)" id="rect104"></rect><rect class="cls-4" x="124.08" y="535.65997" width="599.28998" height="154.3" rx="14.18" transform="rotate(180,423.725,612.815)" id="rect106"></rect><rect class="cls-9" x="594.13" y="645.45001" width="79.32" height="10.65" rx="5.3299999" transform="rotate(180,633.795,650.77)" id="rect108"></rect><rect class="cls-9" x="594.13" y="623.88" width="79.32" height="10.65" rx="5.3299999" transform="rotate(180,633.795,629.21)" id="rect110"></rect><rect class="cls-9" x="594.13" y="602.32001" width="79.32" height="10.65" rx="5.3299999" transform="rotate(180,633.795,607.645)" id="rect112"></rect><rect class="cls-9" x="594.13" y="580.76001" width="79.32" height="10.65" rx="5.3299999" transform="rotate(180,633.795,586.085)" id="rect114"></rect><rect class="cls-11" x="594.69" y="580.76001" width="78.209999" height="2.9200001" rx="1.46" transform="rotate(180,633.795,582.22)" id="rect116"></rect><rect class="cls-11" x="594.69" y="602.32001" width="78.209999" height="2.9200001" rx="1.46" transform="rotate(180,633.795,603.78)" id="rect118"></rect><rect class="cls-11" x="594.69" y="623.88" width="78.209999" height="2.9200001" rx="1.46" transform="rotate(180,633.795,625.345)" id="rect120"></rect><rect class="cls-11" x="594.69" y="645.45001" width="78.209999" height="2.9200001" rx="1.46" transform="rotate(180,633.795,646.905)" id="rect122"></rect><rect class="cls-12" x="594.69" y="588.48999" width="78.209999" height="2.9200001" rx="1.46" transform="rotate(180,633.795,589.95)" id="rect124"></rect><rect class="cls-12" x="594.69" y="610.04999" width="78.209999" height="2.9200001" rx="1.46" transform="rotate(180,633.795,611.515)" id="rect126"></rect><rect class="cls-12" x="594.69" y="631.60999" width="78.209999" height="2.9200001" rx="1.46" transform="rotate(180,633.795,633.075)" id="rect128"></rect><rect class="cls-12" x="594.69" y="653.17999" width="78.209999" height="2.9200001" rx="1.46" transform="rotate(180,633.795,654.64)" id="rect130"></rect><rect class="cls-9" x="160.35001" y="645.45001" width="388.66" height="10.65" rx="5.3299999" transform="rotate(180,354.675,650.77)" id="rect132"></rect><rect class="cls-9" x="160.35001" y="623.88" width="388.66" height="10.65" rx="5.3299999" transform="rotate(180,354.675,629.21)" id="rect134"></rect><rect class="cls-9" x="160.35001" y="602.32001" width="388.66" height="10.65" rx="5.3299999" transform="rotate(180,354.675,607.645)" id="rect136"></rect><rect class="cls-9" x="160.35001" y="580.76001" width="388.66" height="10.65" rx="5.3299999" transform="rotate(180,354.675,586.085)" id="rect138"></rect><rect class="cls-11" x="163.08" y="580.76001" width="383.20001" height="2.9200001" rx="1.46" transform="rotate(180,354.675,582.22)" id="rect140"></rect><rect class="cls-11" x="163.08" y="602.32001" width="383.20001" height="2.9200001" rx="1.46" transform="rotate(180,354.675,603.78)" id="rect142"></rect><rect class="cls-11" x="163.08" y="623.88" width="383.20001" height="2.9200001" rx="1.46" transform="rotate(180,354.675,625.345)" id="rect144"></rect><rect class="cls-11" x="163.08" y="645.45001" width="383.20001" height="2.9200001" rx="1.46" transform="rotate(180,354.675,646.905)" id="rect146"></rect><rect class="cls-12" x="163.08" y="588.48999" width="383.20001" height="2.9200001" rx="1.46" transform="rotate(180,354.675,589.95)" id="rect148"></rect><rect class="cls-12" x="163.08" y="610.04999" width="383.20001" height="2.9200001" rx="1.46" transform="rotate(180,354.675,611.515)" id="rect150"></rect><rect class="cls-12" x="163.08" y="631.60999" width="383.20001" height="2.9200001" rx="1.46" transform="rotate(180,354.675,633.075)" id="rect152"></rect><rect class="cls-12" x="163.08" y="653.17999" width="383.20001" height="2.9200001" rx="1.46" transform="rotate(180,354.675,654.64)" id="rect154"></rect><rect class="cls-11" x="126.25" y="536.07001" width="756.34003" height="9.6199999" rx="4.8099999" transform="rotate(180,504.425,540.875)" id="rect156"></rect><rect class="cls-13" x="137.64" y="682.22998" width="743.40002" height="7.73" rx="3.8599999" transform="rotate(180,509.345,686.1)" id="rect158"></rect><rect class="cls-3" x="283.31" y="690.46002" width="599.28998" height="154.3" rx="14.18" transform="rotate(180,582.955,767.605)" id="rect160"></rect><rect class="cls-4" x="124.08" y="690.46002" width="599.28998" height="154.3" rx="14.18" transform="rotate(180,423.725,767.605)" id="rect162"></rect><rect class="cls-9" x="594.13" y="800.23999" width="79.32" height="10.65" rx="5.3299999" transform="rotate(180,633.795,805.565)" id="rect164"></rect><rect class="cls-9" x="594.13" y="778.66998" width="79.32" height="10.65" rx="5.3299999" transform="rotate(180,633.795,784)" id="rect166"></rect><rect class="cls-9" x="594.13" y="757.10999" width="79.32" height="10.65" rx="5.3299999" transform="rotate(180,633.795,762.44)" id="rect168"></rect><rect class="cls-9" x="594.13" y="735.54999" width="79.32" height="10.65" rx="5.3299999" transform="rotate(180,633.795,740.875)" id="rect170"></rect><rect class="cls-11" x="594.69" y="735.54999" width="78.209999" height="2.9200001" rx="1.46" transform="rotate(180,633.795,737.01)" id="rect172"></rect><rect class="cls-11" x="594.69" y="757.10999" width="78.209999" height="2.9200001" rx="1.46" transform="rotate(180,633.795,758.575)" id="rect174"></rect><rect class="cls-11" x="594.69" y="778.66998" width="78.209999" height="2.9200001" rx="1.46" transform="rotate(180,633.795,780.135)" id="rect176"></rect><rect class="cls-11" x="594.69" y="800.23999" width="78.209999" height="2.9200001" rx="1.46" transform="rotate(180,633.795,801.7)" id="rect178"></rect><rect class="cls-12" x="594.69" y="743.28003" width="78.209999" height="2.9200001" rx="1.46" transform="rotate(180,633.795,744.74)" id="rect180"></rect><rect class="cls-12" x="594.69" y="764.84003" width="78.209999" height="2.9200001" rx="1.46" transform="rotate(180,633.795,766.305)" id="rect182"></rect><rect class="cls-12" x="594.69" y="786.40997" width="78.209999" height="2.9200001" rx="1.46" transform="rotate(180,633.795,787.865)" id="rect184"></rect><rect class="cls-12" x="594.69" y="807.96997" width="78.209999" height="2.9200001" rx="1.46" transform="rotate(180,633.795,809.43)" id="rect186"></rect><rect class="cls-9" x="160.35001" y="800.23999" width="388.66" height="10.65" rx="5.3299999" transform="rotate(180,354.675,805.565)" id="rect188"></rect><rect class="cls-9" x="160.35001" y="778.66998" width="388.66" height="10.65" rx="5.3299999" transform="rotate(180,354.675,784)" id="rect190"></rect><rect class="cls-9" x="160.35001" y="757.10999" width="388.66" height="10.65" rx="5.3299999" transform="rotate(180,354.675,762.44)" id="rect192"></rect><rect class="cls-9" x="160.35001" y="735.54999" width="388.66" height="10.65" rx="5.3299999" transform="rotate(180,354.675,740.875)" id="rect194"></rect><rect class="cls-11" x="163.08" y="735.54999" width="383.20001" height="2.9200001" rx="1.46" transform="rotate(180,354.675,737.01)" id="rect196"></rect><rect class="cls-11" x="163.08" y="757.10999" width="383.20001" height="2.9200001" rx="1.46" transform="rotate(180,354.675,758.575)" id="rect198"></rect><rect class="cls-11" x="163.08" y="778.66998" width="383.20001" height="2.9200001" rx="1.46" transform="rotate(180,354.675,780.135)" id="rect200"></rect><rect class="cls-11" x="163.08" y="800.23999" width="383.20001" height="2.9200001" rx="1.46" transform="rotate(180,354.675,801.7)" id="rect202"></rect><rect class="cls-12" x="163.08" y="743.28003" width="383.20001" height="2.9200001" rx="1.46" transform="rotate(180,354.675,744.74)" id="rect204"></rect><rect class="cls-12" x="163.08" y="764.84003" width="383.20001" height="2.9200001" rx="1.46" transform="rotate(180,354.675,766.305)" id="rect206"></rect><rect class="cls-12" x="163.08" y="786.40997" width="383.20001" height="2.9200001" rx="1.46" transform="rotate(180,354.675,787.865)" id="rect208"></rect><rect class="cls-12" x="163.08" y="807.96997" width="383.20001" height="2.9200001" rx="1.46" transform="rotate(180,354.675,809.43)" id="rect210"></rect><rect class="cls-11" x="126.25" y="690.85999" width="756.34003" height="9.6199999" rx="4.8099999" transform="rotate(180,504.425,695.67)" id="rect212"></rect><rect class="cls-13" x="137.64" y="837.03003" width="743.40002" height="7.73" rx="3.8599999" transform="rotate(180,509.345,840.89)" id="rect214"></rect><rect class="cls-9" x="132.23" y="422.22" width="14.29" height="79.809998" rx="7.1399999" transform="rotate(180,139.37,462.13)" id="rect216"></rect><rect class="cls-2" x="128.58" y="422.22" width="14.29" height="79.809998" rx="7.1399999" transform="rotate(180,135.725,462.13)" id="rect218"></rect><ellipse class="cls-9" cx="135.73" cy="437.48999" rx="3.5" ry="6.4200001" id="ellipse220"></ellipse><ellipse class="cls-9" cx="135.73" cy="488.35001" rx="3.5" ry="6.4200001" id="ellipse222"></ellipse><ellipse class="cls-4" cx="134.75" cy="437.48999" rx="2.52" ry="6.4200001" id="ellipse224"></ellipse><ellipse class="cls-4" cx="134.75" cy="488.35001" rx="2.52" ry="6.4200001" id="ellipse226"></ellipse><path class="cls-4" d="m 89.53,462.48 a 28.92,28.92 0 0 0 28.91,29.4 h 13.4 a 3.57,3.57 0 0 0 3.56,-3.56 3.15,3.15 0 0 0 -0.12,-0.87 3.44,3.44 0 0 0 -0.93,-1.65 3.51,3.51 0 0 0 -2.51,-1.05 H 118.6 a 21.79,21.79 0 1 1 0,-43.57 h 13.24 a 3.57,3.57 0 0 0 0,-7.13 h -12.92 c -15.86,0 -29.13,12.57 -29.39,28.43 z" id="path228"></path><path class="cls-11" d="m 94.71,463.71 a 25.64,25.64 0 0 0 25.64,26.08 h 11.88 a 3.14,3.14 0 0 0 3.05,-2.34 3.44,3.44 0 0 0 -0.93,-1.65 3.51,3.51 0 0 0 -2.51,-1.05 H 118.6 a 21.79,21.79 0 1 1 0,-43.57 h 13.24 a 3.53,3.53 0 0 0 2.88,-1.48 l -0.25,-0.29 a 3.15,3.15 0 0 0 -2.24,-0.92 h -11.46 c -14.07,0 -25.84,11.15 -26.06,25.22 z" id="path230"></path><rect class="cls-9" x="132.23" y="573.07001" width="14.29" height="79.809998" rx="7.1399999" transform="rotate(180,139.37,612.975)" id="rect232"></rect><rect class="cls-2" x="128.58" y="573.07001" width="14.29" height="79.809998" rx="7.1399999" transform="rotate(180,135.725,612.975)" id="rect234"></rect><ellipse class="cls-9" cx="135.73" cy="588.33002" rx="3.5" ry="6.4200001" id="ellipse236"></ellipse><ellipse class="cls-9" cx="135.73" cy="639.19" rx="3.5" ry="6.4200001" id="ellipse238"></ellipse><ellipse class="cls-4" cx="134.75" cy="588.33002" rx="2.52" ry="6.4200001" id="ellipse240"></ellipse><ellipse class="cls-4" cx="134.75" cy="639.19" rx="2.52" ry="6.4200001" id="ellipse242"></ellipse><path class="cls-4" d="m 89.53,613.32 a 28.91,28.91 0 0 0 28.91,29.4 h 13.4 a 3.57,3.57 0 0 0 3.56,-3.56 3.15,3.15 0 0 0 -0.12,-0.87 3.44,3.44 0 0 0 -0.93,-1.65 3.51,3.51 0 0 0 -2.51,-1 H 118.6 a 21.78,21.78 0 1 1 0,-43.56 h 13.24 a 3.54,3.54 0 0 0 2.88,-1.49 3.48,3.48 0 0 0 0.68,-2.08 3.55,3.55 0 0 0 -1.05,-2.52 3.5,3.5 0 0 0 -2.51,-1 h -12.92 c -15.86,-0.09 -29.13,12.48 -29.39,28.33 z" id="path244"></path><path class="cls-11" d="m 94.71,614.55 a 25.64,25.64 0 0 0 25.64,26.08 h 11.88 a 3.14,3.14 0 0 0 3.05,-2.34 3.44,3.44 0 0 0 -0.93,-1.65 3.51,3.51 0 0 0 -2.51,-1 H 118.6 a 21.78,21.78 0 1 1 0,-43.56 h 13.24 a 3.54,3.54 0 0 0 2.88,-1.49 3.33,3.33 0 0 0 -0.25,-0.28 3.16,3.16 0 0 0 -2.24,-0.93 h -11.46 c -14.07,-0.05 -25.84,11.1 -26.06,25.17 z" id="path246"></path><rect class="cls-9" x="132.23" y="738.46002" width="14.29" height="79.809998" rx="7.1399999" transform="rotate(180,139.37,778.365)" id="rect248"></rect><rect class="cls-2" x="128.58" y="738.46002" width="14.29" height="79.809998" rx="7.1399999" transform="rotate(180,135.725,778.365)" id="rect250"></rect><ellipse class="cls-9" cx="135.73" cy="753.71997" rx="3.5" ry="6.4200001" id="ellipse252"></ellipse><ellipse class="cls-9" cx="135.73" cy="804.58002" rx="3.5" ry="6.4200001" id="ellipse254"></ellipse><ellipse class="cls-4" cx="134.75" cy="753.71997" rx="2.52" ry="6.4200001" id="ellipse256"></ellipse><ellipse class="cls-4" cx="134.75" cy="804.58002" rx="2.52" ry="6.4200001" id="ellipse258"></ellipse><path class="cls-4" d="m 89.53,778.71 a 28.91,28.91 0 0 0 28.91,29.4 h 13.4 a 3.57,3.57 0 0 0 3.56,-3.56 3.15,3.15 0 0 0 -0.12,-0.87 3.44,3.44 0 0 0 -0.93,-1.65 3.51,3.51 0 0 0 -2.51,-1 H 118.6 a 21.78,21.78 0 1 1 0,-43.56 h 13.24 a 3.54,3.54 0 0 0 2.88,-1.49 3.48,3.48 0 0 0 0.68,-2.08 3.55,3.55 0 0 0 -1.05,-2.52 3.5,3.5 0 0 0 -2.51,-1 h -12.92 c -15.86,-0.09 -29.13,12.48 -29.39,28.33 z" id="path260"></path><path class="cls-11" d="M 94.71,779.94 A 25.64,25.64 0 0 0 120.35,806 h 11.88 a 3.14,3.14 0 0 0 3.05,-2.34 3.44,3.44 0 0 0 -0.93,-1.65 3.51,3.51 0 0 0 -2.51,-1 H 118.6 a 21.78,21.78 0 1 1 0,-43.56 h 13.24 a 3.54,3.54 0 0 0 2.88,-1.49 3.33,3.33 0 0 0 -0.25,-0.28 3.16,3.16 0 0 0 -2.24,-0.93 h -11.46 c -14.07,-0.03 -25.84,11.12 -26.06,25.19 z" id="path262"></path><rect class="cls-9" x="693.09003" y="422.22" width="14.29" height="79.809998" rx="7.1399999" transform="rotate(180,700.23,462.13)" id="rect264"></rect><rect class="cls-2" x="689.45001" y="422.22" width="14.29" height="79.809998" rx="7.1399999" transform="rotate(180,696.59,462.13)" id="rect266"></rect><ellipse class="cls-9" cx="696.59003" cy="437.48999" rx="3.5" ry="6.4200001" id="ellipse268"></ellipse><ellipse class="cls-9" cx="696.59003" cy="488.35001" rx="3.5" ry="6.4200001" id="ellipse270"></ellipse><ellipse class="cls-4" cx="695.60999" cy="437.48999" rx="2.52" ry="6.4200001" id="ellipse272"></ellipse><ellipse class="cls-4" cx="695.60999" cy="488.35001" rx="2.52" ry="6.4200001" id="ellipse274"></ellipse><path class="cls-4" d="m 650.4,462.48 a 28.91,28.91 0 0 0 28.9,29.4 h 13.4 a 3.55,3.55 0 0 0 3.45,-4.43 3.46,3.46 0 0 0 -0.94,-1.65 3.51,3.51 0 0 0 -2.51,-1.05 h -13.24 a 21.79,21.79 0 0 1 0,-43.57 h 13.24 a 3.52,3.52 0 0 0 2.88,-1.48 3.44,3.44 0 0 0 0.68,-2.09 3.59,3.59 0 0 0 -3.56,-3.56 h -12.92 c -15.86,0 -29.13,12.57 -29.38,28.43 z" id="path276"></path><path class="cls-11" d="m 655.57,463.71 a 25.64,25.64 0 0 0 25.64,26.08 h 11.89 a 3.16,3.16 0 0 0 3,-2.34 3.46,3.46 0 0 0 -0.94,-1.65 3.51,3.51 0 0 0 -2.51,-1.05 h -13.19 a 21.79,21.79 0 0 1 0,-43.57 h 13.24 a 3.52,3.52 0 0 0 2.88,-1.48 3.23,3.23 0 0 0 -0.25,-0.29 3.14,3.14 0 0 0 -2.23,-0.92 h -11.46 c -14.07,0 -25.85,11.15 -26.07,25.22 z" id="path278"></path><rect class="cls-9" x="693.09003" y="573.07001" width="14.29" height="79.809998" rx="7.1399999" transform="rotate(180,700.23,612.975)" id="rect280"></rect><rect class="cls-2" x="689.45001" y="573.07001" width="14.29" height="79.809998" rx="7.1399999" transform="rotate(180,696.59,612.975)" id="rect282"></rect><ellipse class="cls-9" cx="696.59003" cy="588.33002" rx="3.5" ry="6.4200001" id="ellipse284"></ellipse><ellipse class="cls-9" cx="696.59003" cy="639.19" rx="3.5" ry="6.4200001" id="ellipse286"></ellipse><ellipse class="cls-4" cx="695.60999" cy="588.33002" rx="2.52" ry="6.4200001" id="ellipse288"></ellipse><ellipse class="cls-4" cx="695.60999" cy="639.19" rx="2.52" ry="6.4200001" id="ellipse290"></ellipse><path class="cls-4" d="m 650.4,613.32 a 28.9,28.9 0 0 0 28.9,29.4 h 13.4 a 3.55,3.55 0 0 0 3.45,-4.43 3.46,3.46 0 0 0 -0.94,-1.65 3.51,3.51 0 0 0 -2.51,-1 h -13.24 a 21.78,21.78 0 0 1 0,-43.56 h 13.24 a 3.53,3.53 0 0 0 2.88,-1.49 3.41,3.41 0 0 0 0.68,-2.08 3.55,3.55 0 0 0 -1,-2.52 3.5,3.5 0 0 0 -2.51,-1 h -12.97 c -15.86,-0.09 -29.13,12.48 -29.38,28.33 z" id="path292"></path><path class="cls-11" d="m 655.57,614.55 a 25.64,25.64 0 0 0 25.64,26.08 h 11.89 a 3.16,3.16 0 0 0 3,-2.34 3.46,3.46 0 0 0 -0.94,-1.65 3.51,3.51 0 0 0 -2.51,-1 h -13.19 a 21.78,21.78 0 0 1 0,-43.56 h 13.24 a 3.53,3.53 0 0 0 2.88,-1.49 2.18,2.18 0 0 0 -0.25,-0.28 3.15,3.15 0 0 0 -2.23,-0.93 h -11.46 c -14.07,-0.05 -25.85,11.1 -26.07,25.17 z" id="path294"></path><rect class="cls-9" x="693.09003" y="738.46002" width="14.29" height="79.809998" rx="7.1399999" transform="rotate(180,700.23,778.365)" id="rect296"></rect><rect class="cls-2" x="689.45001" y="738.46002" width="14.29" height="79.809998" rx="7.1399999" transform="rotate(180,696.59,778.365)" id="rect298"></rect><ellipse class="cls-9" cx="696.59003" cy="753.71997" rx="3.5" ry="6.4200001" id="ellipse300"></ellipse><ellipse class="cls-9" cx="696.59003" cy="804.58002" rx="3.5" ry="6.4200001" id="ellipse302"></ellipse><ellipse class="cls-4" cx="695.60999" cy="753.71997" rx="2.52" ry="6.4200001" id="ellipse304"></ellipse><ellipse class="cls-4" cx="695.60999" cy="804.58002" rx="2.52" ry="6.4200001" id="ellipse306"></ellipse><path class="cls-4" d="m 650.4,778.71 a 28.9,28.9 0 0 0 28.9,29.4 h 13.4 a 3.55,3.55 0 0 0 3.45,-4.43 3.46,3.46 0 0 0 -0.94,-1.65 3.51,3.51 0 0 0 -2.51,-1 h -13.24 a 21.78,21.78 0 0 1 0,-43.56 h 13.24 a 3.53,3.53 0 0 0 2.88,-1.49 3.41,3.41 0 0 0 0.68,-2.08 3.55,3.55 0 0 0 -1,-2.52 3.5,3.5 0 0 0 -2.51,-1 h -12.97 c -15.86,-0.09 -29.13,12.48 -29.38,28.33 z" id="path308"></path><path class="cls-11" d="M 655.57,779.94 A 25.64,25.64 0 0 0 681.21,806 h 11.89 a 3.16,3.16 0 0 0 3,-2.34 3.46,3.46 0 0 0 -0.94,-1.65 3.51,3.51 0 0 0 -2.51,-1 h -13.19 a 21.78,21.78 0 0 1 0,-43.56 h 13.24 a 3.53,3.53 0 0 0 2.88,-1.49 2.18,2.18 0 0 0 -0.25,-0.28 3.15,3.15 0 0 0 -2.23,-0.93 h -11.46 c -14.07,-0.03 -25.85,11.12 -26.07,25.19 z" id="path310"></path><rect class="cls-2" x="69.910004" y="847.34003" width="725.12" height="34.849998" rx="17.42" id="rect312"></rect><rect class="cls-2" x="97.839996" y="882.19" width="62.5" height="62.5" rx="31.25" id="rect314"></rect><rect class="cls-9" x="111.24" y="895.59003" width="35.700001" height="35.700001" rx="17.85" id="rect316"></rect><rect class="cls-9" x="289.01999" y="882.19" width="62.5" height="62.5" rx="31.25" id="rect318"></rect><rect class="cls-3" x="303.12" y="882.19" width="62.5" height="62.5" rx="31.25" id="rect320"></rect><rect class="cls-9" x="316.51999" y="895.59003" width="35.700001" height="35.700001" rx="17.85" id="rect322"></rect><rect class="cls-2" x="723.22998" y="882.19" width="62.5" height="62.5" rx="31.25" id="rect324"></rect><rect class="cls-2" x="733.15997" y="882.19" width="62.5" height="62.5" rx="31.25" id="rect326"></rect><rect class="cls-9" x="746.56" y="895.59003" width="35.700001" height="35.700001" rx="17.85" id="rect328"></rect><rect class="cls-9" x="881.04999" y="882.19" width="62.5" height="62.5" rx="31.25" id="rect330"></rect><rect class="cls-3" x="891.59003" y="882.19" width="62.5" height="62.5" rx="31.25" id="rect332"></rect><rect class="cls-9" x="904.98999" y="895.59003" width="35.700001" height="35.700001" rx="17.85" id="rect334"></rect><rect class="cls-11" x="79.029999" y="847.34003" width="861.65997" height="5.3899999" id="rect336"></rect><rect class="cls-13" x="79.029999" y="876.79999" width="861.65997" height="5.3899999" id="rect338"></rect><rect class="cls-13" x="101.79" y="944.69" width="873.17999" height="8.7200003" id="rect340"></rect></g></g></svg>