<svg xmlns="http://www.w3.org/2000/svg" viewBox="0 0 1024 1024"><defs><style>.cls-1{isolation:isolate;}.cls-2{opacity:0.1;}.cls-10,.cls-15,.cls-2{mix-blend-mode:overlay;}.cls-3{fill:#455666;}.cls-3,.cls-4,.cls-5,.cls-7,.cls-8{stroke:#24313e;}.cls-12,.cls-3,.cls-4,.cls-5,.cls-7,.cls-8,.cls-9{stroke-miterlimit:10;}.cls-11,.cls-12,.cls-14,.cls-3,.cls-4,.cls-5,.cls-7,.cls-8,.cls-9{stroke-width:2.15px;}.cls-4{fill:#3ab2d0;}.cls-5{fill:#f5f7f9;}.cls-12,.cls-6{fill:#24313e;}.cls-6{opacity:0.24;mix-blend-mode:multiply;}.cls-7{fill:#0c7ff2;}.cls-15,.cls-8{fill:#ebf0f5;}.cls-9{fill:#9caab8;}.cls-11,.cls-12,.cls-14,.cls-9{stroke:#031439;}.cls-10{opacity:0.38;}.cls-11,.cls-13{fill:#fff;}.cls-11,.cls-14{stroke-linecap:round;stroke-linejoin:round;}.cls-14{fill:none;}.cls-15{opacity:0.21;}</style></defs><g class="cls-1"><g id="Layer_1" data-name="Layer 1"><ellipse class="cls-2" cx="489.73" cy="783.63" rx="410.26" ry="11.82"></ellipse><path class="cls-3" d="M837.61,377.83l-.4,85.78-1.46,320.07L572,782.46l-400.24-1.83a47.59,47.59,0,0,1-47.37-47.82l1.63-355Z"></path><path class="cls-4" d="M837.91,313.86l-.3,67H126l.31-70.19a22.58,22.58,0,0,1,22.86-22.28l666.13,3A22.55,22.55,0,0,1,837.91,313.86Z"></path><path class="cls-5" d="M829.08,349.71,827.25,747.2a36.6,36.6,0,0,1-36.76,36.43L152,780.69a36.58,36.58,0,0,1-36.42-36.76l1.82-397.49a59.59,59.59,0,0,1,59.87-59.32l592.44,2.72"></path><path class="cls-6" d="M829.08,378.62c0,1.43-159.34,4.18-355.89,4.18s-355.89-2.75-355.89-4.18,159.33-1,355.89-1S829.08,377.18,829.08,378.62Z"></path><path class="cls-7" d="M144.94,289H801.71a27.44,27.44,0,0,1,27.44,27.44v62.93a0,0,0,0,1,0,0H117.5a0,0,0,0,1,0,0V316.41A27.44,27.44,0,0,1,144.94,289Z" transform="translate(1.54 -2.17) rotate(0.26)"></path><rect class="cls-7" x="145.75" y="399.51" width="81.32" height="29.62" rx="4.54" transform="matrix(1, 0, 0, 1, 1.91, -0.85)"></rect><rect class="cls-4" x="146.12" y="314.22" width="104.98" height="36.89" rx="17.17" transform="matrix(1, 0, 0, 1, 1.53, -0.91)"></rect><rect class="cls-8" x="621.16" y="316.4" width="104.98" height="36.89" rx="17.17" transform="translate(1.55 -3.09) rotate(0.26)"></rect><rect class="cls-8" x="751.5" y="316.85" width="37.17" height="36.89" rx="17.17" transform="translate(1.55 -3.53) rotate(0.26)"></rect><rect class="cls-9" x="145.48" y="458.8" width="169.12" height="28.47" rx="4.36" transform="translate(2.18 -1.05) rotate(0.26)"></rect><rect class="cls-8" x="145.29" y="504.2" width="169.12" height="20.86" rx="4.36" transform="translate(2.37 -1.05) rotate(0.26)"></rect><rect class="cls-8" x="145.13" y="539.81" width="110.2" height="18.12" rx="3.79" transform="translate(2.52 -0.91) rotate(0.26)"></rect><rect class="cls-8" x="144.99" y="569.6" width="177.86" height="18.12" rx="3.79" transform="translate(2.66 -1.07) rotate(0.26)"></rect><rect class="cls-8" x="144.85" y="601.49" width="110.2" height="18.12" rx="3.79" transform="translate(2.81 -0.91) rotate(0.26)"></rect><rect class="cls-8" x="144.71" y="631.28" width="177.86" height="18.12" rx="3.79" transform="translate(2.95 -1.07) rotate(0.26)"></rect><rect class="cls-7" x="247.08" y="399.98" width="81.32" height="29.62" rx="4.54" transform="translate(1.91 -1.32) rotate(0.26)"></rect><rect class="cls-8" x="373.43" y="400.68" width="135.06" height="29.62" rx="4.54" transform="translate(1.91 -2.02) rotate(0.26)"></rect><rect class="cls-7" x="687.5" y="399.31" width="112.47" height="29.62" rx="4.54" transform="translate(1.91 -3.41) rotate(0.26)"></rect><rect class="cls-9" x="369.85" y="450.63" width="428.03" height="332.97" rx="9.02" transform="translate(2.84 -2.68) rotate(0.26)"></rect><rect class="cls-8" x="393.69" y="480.42" width="135.06" height="29.62" rx="4.54" transform="translate(2.28 -2.11) rotate(0.26)"></rect><rect class="cls-8" x="393.25" y="533.1" width="382.06" height="118.8" rx="5.35" transform="translate(2.73 -2.68) rotate(0.26)"></rect><path class="cls-10" d="M838.84,429.07l-1.46,354.44-204.7-1.21c-58.86-31-79.14-109.07-79.14-152.73,0-119.88,97.19-217.06,217.06-217.06C800.11,412.51,813.19,418.4,838.84,429.07Z"></path><ellipse class="cls-2" cx="774.94" cy="806.53" rx="105.53" ry="11.82"></ellipse><circle class="cls-4" cx="778.25" cy="621.7" r="192.42"></circle><circle class="cls-7" cx="761.92" cy="621.7" r="192.42"></circle><path class="cls-11" d="M820.66,611.94l-68.89-39.77-68.89,39.77V687a7.76,7.76,0,0,0,3.88,6.72L747.89,729a7.79,7.79,0,0,0,7.76,0l61.13-35.3a7.76,7.76,0,0,0,3.88-6.72Z"></path><path class="cls-11" d="M782.7,678.1,828,650.85a12.71,12.71,0,0,0,4.61-17l-12-21.93L753.54,652.3l11.45,21A12.71,12.71,0,0,0,782.7,678.1Z"></path><line class="cls-11" x1="665.36" y1="622.05" x2="751.77" y2="572.17"></line><polygon class="cls-12" points="751.77 572.17 820.66 611.94 753.54 652.3 682.88 611.94 751.77 572.17"></polygon><path class="cls-13" d="M795.9,576.76l7.14-1.35a4.41,4.41,0,0,0,3.59-4.41l-.12-6.61a4.41,4.41,0,0,0-3.75-4.27L795.54,559a4.39,4.39,0,0,1-3.12-2.09l-10.14-16.87a4.42,4.42,0,0,1-.38-3.75l2.47-6.9a4.41,4.41,0,0,0-2-5.33l-5.78-3.24a4.41,4.41,0,0,0-5.58,1.08l-4.53,5.61a4.41,4.41,0,0,1-3.35,1.63l-19.72.34a4.36,4.36,0,0,1-3.45-1.57l-4.77-5.68a4.42,4.42,0,0,0-5.6-1l-5.71,3.34A4.42,4.42,0,0,0,722,530l2.52,6.65a4.4,4.4,0,0,1-.26,3.7l-10,18a4.39,4.39,0,0,1-3,2.19l-7.14,1.35a4.4,4.4,0,0,0-3.59,4.41l.12,6.6a4.42,4.42,0,0,0,3.75,4.28l7.21,1.09a4.42,4.42,0,0,1,3.13,2.08l10.14,16.88a4.38,4.38,0,0,1,.37,3.75l-2.46,6.9a4.4,4.4,0,0,0,2,5.33l5.78,3.23a4.4,4.4,0,0,0,5.58-1.07l4.53-5.61a4.45,4.45,0,0,1,3.35-1.64l19.72-.34a4.43,4.43,0,0,1,3.45,1.58l4.76,5.68a4.42,4.42,0,0,0,5.6,1l5.72-3.35a4.38,4.38,0,0,0,1.89-5.36l-2.52-6.65a4.4,4.4,0,0,1,.27-3.7l10-18A4.39,4.39,0,0,1,795.9,576.76Zm-60.49-7.43a18.15,18.15,0,1,1,18.1,17.49A18.15,18.15,0,0,1,735.41,569.33Z"></path><path class="cls-14" d="M795.9,576.76l7.14-1.35a4.41,4.41,0,0,0,3.59-4.41l-.12-6.61a4.41,4.41,0,0,0-3.75-4.27L795.54,559a4.39,4.39,0,0,1-3.12-2.09l-10.14-16.87a4.42,4.42,0,0,1-.38-3.75l2.47-6.9a4.41,4.41,0,0,0-2-5.33l-5.78-3.24a4.41,4.41,0,0,0-5.58,1.08l-4.53,5.61a4.41,4.41,0,0,1-3.35,1.63l-19.72.34a4.36,4.36,0,0,1-3.45-1.57l-4.77-5.68a4.42,4.42,0,0,0-5.6-1l-5.71,3.34A4.42,4.42,0,0,0,722,530l2.52,6.65a4.4,4.4,0,0,1-.26,3.7l-10,18a4.39,4.39,0,0,1-3,2.19l-7.14,1.35a4.4,4.4,0,0,0-3.59,4.41l.12,6.6a4.42,4.42,0,0,0,3.75,4.28l7.21,1.09a4.42,4.42,0,0,1,3.13,2.08l10.14,16.88a4.38,4.38,0,0,1,.37,3.75l-2.46,6.9a4.4,4.4,0,0,0,2,5.33l5.78,3.23a4.4,4.4,0,0,0,5.58-1.07l4.53-5.61a4.45,4.45,0,0,1,3.35-1.64l19.72-.34a4.43,4.43,0,0,1,3.45,1.58l4.76,5.68a4.42,4.42,0,0,0,5.6,1l5.72-3.35a4.38,4.38,0,0,0,1.89-5.36l-2.52-6.65a4.4,4.4,0,0,1,.27-3.7l10-18A4.39,4.39,0,0,1,795.9,576.76Zm-60.49-7.43a18.15,18.15,0,1,1,18.1,17.49A18.15,18.15,0,0,1,735.41,569.33Z"></path><ellipse class="cls-7" cx="753.55" cy="568.67" rx="18.15" ry="18.14" transform="translate(-178.62 717.94) rotate(-46.14)"></ellipse><path class="cls-15" d="M919.45,511.18A192,192,0,0,0,771.69,442c-106.27,0-192.42,86.15-192.42,192.43A191.52,191.52,0,0,0,614.16,745,191.6,191.6,0,0,1,569.5,621.7c0-106.26,86.15-192.41,192.41-192.41A192.21,192.21,0,0,1,919.45,511.18Z"></path><path class="cls-15" d="M802.42,291.32c0,6.42-147.47,6.91-329.39,6.91s-329.39-1.13-329.39-7.56,146.4.41,328.32.41S802.42,284.89,802.42,291.32Z"></path><rect class="cls-15" x="148.42" y="399.9" width="74.48" height="2.61" rx="1.21"></rect><rect class="cls-6" x="148.42" y="425.6" width="76.66" height="2.61" rx="1.21"></rect><rect class="cls-15" x="250.32" y="400.97" width="74.48" height="2.61" rx="1.21"></rect><rect class="cls-6" x="250.32" y="426.68" width="76.66" height="2.61" rx="1.21"></rect><rect class="cls-15" x="148.42" y="458.87" width="160.04" height="2.61" rx="1.21"></rect><rect class="cls-6" x="148.42" y="484.57" width="164.73" height="2.61" rx="1.21"></rect><ellipse class="cls-15" cx="198.42" cy="316.56" rx="37.85" ry="2.05"></ellipse><ellipse class="cls-6" cx="198.42" cy="349.07" rx="37.85" ry="2.05"></ellipse></g></g></svg>