<svg xmlns:inkscape="http://www.inkscape.org/namespaces/inkscape" xmlns:sodipodi="http://sodipodi.sourceforge.net/DTD/sodipodi-0.dtd" xmlns="http://www.w3.org/2000/svg" xmlns:svg="http://www.w3.org/2000/svg" viewBox="0 0 783.37 468.87" id="svg336" sodipodi:docname="codegen-cycle-9988f6ddce0903d3b2653e755fe7dd26.svg" inkscape:version="1.1.1 (3bf5ae0d25, 2021-09-20)"><defs id="defs4"><style id="style2">.cls-1{isolation:isolate;}.cls-2{fill:#e6e6e6;}.cls-3,.cls-35,.cls-36,.cls-37{fill:#9caab8;}.cls-12,.cls-29,.cls-3,.cls-30,.cls-32,.cls-37,.cls-38,.cls-4,.cls-6{stroke:#031439;}.cls-10,.cls-12,.cls-13,.cls-14,.cls-15,.cls-24,.cls-27,.cls-28,.cls-3,.cls-31,.cls-32,.cls-33,.cls-34,.cls-37,.cls-38,.cls-4,.cls-5,.cls-6,.cls-7,.cls-8,.cls-9{stroke-miterlimit:10;}.cls-10,.cls-12,.cls-13,.cls-14,.cls-15,.cls-24,.cls-3,.cls-4,.cls-5,.cls-6,.cls-7,.cls-8,.cls-9{stroke-width:1.22px;}.cls-4{fill:#cccfd4;}.cls-17,.cls-19,.cls-20,.cls-21,.cls-26,.cls-32,.cls-34,.cls-38,.cls-41,.cls-5,.cls-6{fill:#ebf0f5;}.cls-10,.cls-13,.cls-14,.cls-15,.cls-24,.cls-27,.cls-28,.cls-31,.cls-33,.cls-34,.cls-5,.cls-7,.cls-8,.cls-9{stroke:#24313e;}.cls-7{fill:#3ab2d0;}.cls-33,.cls-8{fill:#6b7e8f;}.cls-31,.cls-9{fill:#455666;}.cls-10{fill:#0c7ff2;}.cls-11,.cls-16,.cls-17,.cls-18,.cls-19,.cls-20,.cls-21{mix-blend-mode:overlay;}.cls-12,.cls-15{fill:#0062ff;}.cls-13,.cls-14,.cls-24{fill:none;}.cls-13{stroke-dasharray:3.98 3.98;}.cls-16,.cls-17,.cls-25,.cls-26{opacity:0.21;}.cls-18{opacity:0.38;}.cls-20{opacity:0.18;}.cls-21{opacity:0.49;}.cls-22{font-size:21.99px;fill:#fff;font-family:Rubik-Regular, Rubik;}.cls-23{letter-spacing:-0.01em;}.cls-24{stroke-dasharray:3.99;}.cls-25,.cls-39,.cls-40,.cls-42{mix-blend-mode:multiply;}.cls-26,.cls-41{mix-blend-mode:screen;}.cls-27,.cls-28{fill:#24313e;}.cls-27{stroke-width:1.04px;}.cls-28,.cls-29,.cls-30,.cls-31,.cls-32,.cls-33,.cls-34{stroke-width:0.93px;}.cls-29{fill:#b8af50;}.cls-29,.cls-30{stroke-linecap:round;stroke-linejoin:round;}.cls-30{fill:#f4e969;}.cls-36{fill-rule:evenodd;}.cls-37{stroke-width:1.12px;}.cls-38{stroke-width:1.06px;}.cls-39{opacity:0.2;}.cls-40{opacity:0.17;}.cls-41{opacity:0.28;}.cls-42{opacity:0.31;}</style><style id="style588">.a{fill:#f5f7f9;}.b{fill:#24313e;}.c{fill:#0c7ff2;}.d{fill:#28c397;}.e{fill:#1d2236;}</style></defs><g class="cls-1" id="g334"><g id="Layer_2" data-name="Layer 2"><g id="Layer_1-2" data-name="Layer 1"><rect id="rect201" class="cls-2" width="783.37" height="468.87" x="1.5423435" y="1.5423586"></rect></g></g></g><g id="g828" transform="matrix(1.7384118,0,0,1.7384118,148.97289,71.808434)"><g transform="translate(53.019,90.907)" id="g602"><g transform="translate(9.833,31.845)" id="g596"><path class="a" d="m 2039.3,734.145 a 91.034,91.034 0 0 1 -78.068,-44.306 l 12.191,-7.29 12.19,-7.29 a 62.057,62.057 0 0 0 53.687,30.478 v 28.409 z" transform="translate(-1960.585,-674.609)" id="path592"></path><path class="b" d="m 2037.682,732.525 h -0.474 a 91.5,91.5 0 0 1 -78.474,-44.537 l -0.122,-0.2 -0.121,-0.2 12.6,-7.533 12.6,-7.533 0.121,0.2 0.121,0.2 a 61.586,61.586 0 0 0 53.28,30.248 h 0.474 v 29.356 z m -77.891,-44.617 a 90.4,90.4 0 0 0 76.944,43.669 v -27.463 a 62.508,62.508 0 0 1 -53.375,-30.3 l -11.785,7.047 z" transform="translate(-1958.491,-672.515)" id="path594"></path></g><path class="a" d="M 1969.953,575.715 1951.681,557.858 1933.409,540 h -3.078 l -5.663,26.317 -5.668,26.318 a 2.025,2.025 0 0 0 2.621,2.346 l 23.777,-7.949 23.777,-7.949 a 2.024,2.024 0 0 0 0.773,-3.368 z" transform="translate(-1918.484,-539.527)" id="path598"></path><path class="b" d="m 1919.446,594.035 a 2.442,2.442 0 0 1 -0.877,-0.162 2.49,2.49 0 0 1 -1.554,-2.864 l 5.7,-26.5 5.7,-26.5 h 3.653 l 0.069,0.067 0.069,0.068 18.272,17.857 18.272,17.857 A 2.494,2.494 0 0 1 1967.8,578 l -23.777,7.949 -23.777,7.949 a 2.559,2.559 0 0 1 -0.4,0.1 2.49,2.49 0 0 1 -0.4,0.037 z m 9.74,-55.088 -5.623,26.13 -5.623,26.131 a 1.548,1.548 0 0 0 2.008,1.8 l 23.777,-7.949 23.777,-7.949 a 1.548,1.548 0 0 0 0.592,-2.58 l -18.2,-17.79 -18.2,-17.79 h -2.5 z" transform="translate(-1916.957,-538)" id="path600"></path></g><g transform="translate(140.668,90.907)" id="g618"><g id="g616"><g transform="translate(32.273)" id="g608"><path class="a" d="m 2440.838,618.068 -7.29,-12.191 -7.29,-12.191 A 62.056,62.056 0 0 0 2456.736,540 h 28.408 a 91.034,91.034 0 0 1 -44.306,78.068 z" transform="translate(-2425.609,-539.527)" id="path604"></path><path class="b" d="m 2438.581,617.191 -7.533,-12.6 -7.533,-12.6 0.2,-0.121 0.2,-0.122 a 61.584,61.584 0 0 0 30.248,-53.28 V 538 h 29.355 v 0.474 a 91.506,91.506 0 0 1 -44.537,78.474 l -0.2,0.122 z m -13.768,-24.869 7.047,11.785 7.047,11.785 a 90.4,90.4 0 0 0 43.669,-76.944 h -27.462 a 62.507,62.507 0 0 1 -30.3,53.375 z" transform="translate(-2423.515,-538)" id="path606"></path></g><g transform="translate(0,34.626)" id="g614"><path class="a" d="m 2328.585,686.842 -18.792,20.75 -18.793,20.751 27.691,5.974 27.69,5.974 -7.045,-26.416 -7.045,-26.416 a 1.606,1.606 0 0 0 -1.632,-1.19 l -0.482,0.024 -0.482,0.024 a 1.607,1.607 0 0 0 -1.11,0.526 z" transform="translate(-2290.098,-685.792)" id="path610"></path><path class="b" d="m 2344.131,739.388 -28.47,-6.142 -28.47,-6.142 19.068,-21.054 19.069,-21.05 a 2.065,2.065 0 0 1 1.437,-0.681 l 0.481,-0.024 0.481,-0.024 a 2.057,2.057 0 0 1 1.329,0.4 2.084,2.084 0 0 1 0.784,1.143 l 7.145,26.79 z m -55.136,-12.863 26.911,5.806 26.911,5.806 -6.945,-26.042 -6.946,-26.042 a 1.134,1.134 0 0 0 -1.151,-0.839 l -0.481,0.024 -0.481,0.024 a 1.139,1.139 0 0 0 -0.782,0.371 l -18.518,20.446 z" transform="translate(-2287.192,-684.264)" id="path612"></path></g></g></g><g transform="translate(141.096)" id="g632"><g id="g630"><path class="a" d="M 2344.687,214.887 A 62.055,62.055 0 0 0 2291,184.409 V 156 a 91.033,91.033 0 0 1 78.068,44.306 l -12.191,7.29 z" transform="translate(-2290.526,-155.527)" id="path620"></path><path class="b" d="m 2343,214.01 -0.121,-0.2 -0.121,-0.2 a 61.586,61.586 0 0 0 -53.28,-30.248 H 2289 V 154 h 0.474 a 91.508,91.508 0 0 1 78.474,44.537 l 0.122,0.2 0.121,0.2 -12.6,7.533 z m -53.05,-31.6 a 62.508,62.508 0 0 1 53.375,30.3 l 11.785,-7.047 11.785,-7.047 a 90.4,90.4 0 0 0 -76.944,-43.669 v 27.463 z" transform="translate(-2289,-154)" id="path622"></path><g transform="translate(35.779,36.31)" id="g628"><path class="a" d="m 2442.5,327.242 20.278,18.365 20.278,18.365 h 3.077 l 4.21,-26.29 4.211,-26.29 a 1.741,1.741 0 0 0 -2.252,-1.933 l -24.7,7.944 -24.7,7.944 a 1.12,1.12 0 0 0 -0.409,1.9 z" transform="translate(-2441.661,-308.901)" id="path624"></path><path class="b" d="m 2485.011,362.92 h -3.664 L 2461,344.494 2440.655,326.068 a 1.59,1.59 0 0 1 0.582,-2.7 l 24.7,-7.943 24.7,-7.943 a 2.211,2.211 0 0 1 2.865,2.458 l -4.242,26.489 z m -3.3,-0.947 h 2.491 l 4.178,-26.091 4.179,-26.09 a 1.266,1.266 0 0 0 -1.64,-1.407 l -24.7,7.943 -24.7,7.944 a 0.64,0.64 0 0 0 -0.434,0.479 0.653,0.653 0 0 0 0.016,0.335 0.646,0.646 0 0 0 0.183,0.281 l 20.21,18.3 z" transform="translate(-2440.133,-307.376)" id="path626"></path></g></g></g><g transform="translate(50.188,2.233)" id="g648"><g id="g646"><g transform="translate(0,10.43)" id="g638"><path class="a" d="M 1935.409,288.3 H 1907 a 91.033,91.033 0 0 1 44.306,-78.068 l 7.29,12.191 7.29,12.191 a 62.056,62.056 0 0 0 -30.478,53.687 z" transform="translate(-1906.526,-209.585)" id="path634"></path><path class="b" d="M 1934.356,286.682 H 1905 v -0.474 a 91.505,91.505 0 0 1 44.537,-78.474 l 0.2,-0.122 0.2,-0.121 7.533,12.6 7.533,12.6 -0.2,0.121 -0.2,0.121 a 61.585,61.585 0 0 0 -30.248,53.28 v 0.474 z m -28.407,-0.947 h 27.462 a 62.507,62.507 0 0 1 30.3,-53.375 l -7.047,-11.785 -7.047,-11.785 a 90.4,90.4 0 0 0 -43.669,76.944 z" transform="translate(-1905,-207.491)" id="path636"></path></g><g transform="translate(35.343)" id="g644"><path class="a" d="m 2075.136,219.453 1.038,-0.029 1.038,-0.029 a 0.961,0.961 0 0 0 0.713,-0.347 l 17.261,-20.784 17.261,-20.784 -26.139,-5.914 -26.14,-5.914 -0.04,-0.007 h -0.041 l -1.51,-0.055 -1.51,-0.054 8.564,26.627 8.564,26.627 a 0.96,0.96 0 0 0 0.942,0.667 z" transform="translate(-2056.409,-165.036)" id="path640"></path><path class="b" d="m 2072.991,218.323 a 1.443,1.443 0 0 1 -1.366,-1 l -8.668,-26.948 -8.667,-26.948 1.847,0.067 1.847,0.067 c 0.029,0 0.057,0 0.086,0.007 0.029,0.007 0.056,0.009 0.084,0.015 l 26.516,6 26.515,6 -17.508,21.081 -17.508,21.081 a 1.434,1.434 0 0 1 -1.064,0.517 l -1.038,0.029 -1.038,0.029 h -0.04 z m -17.386,-53.9 8.461,26.306 8.461,26.306 a 0.489,0.489 0 0 0 0.182,0.249 0.482,0.482 0 0 0 0.3,0.089 l 1.038,-0.029 1.037,-0.029 a 0.489,0.489 0 0 0 0.362,-0.176 l 17.015,-20.487 17.015,-20.487 -25.763,-5.829 -25.763,-5.829 -1.17,-0.042 z" transform="translate(-2054.29,-163.432)" id="path642"></path></g></g></g><g transform="translate(56.215,90.479)" id="g662"><g id="g660"><g transform="translate(9.714,32.273)" id="g654"><path class="a" d="m 2052.3,734.145 a 91.035,91.035 0 0 1 -78.068,-44.306 l 12.191,-7.29 12.19,-7.29 a 62.057,62.057 0 0 0 53.687,30.478 v 28.409 z" transform="translate(-1973.584,-674.609)" id="path650"></path><path class="b" d="m 2050.682,732.525 h -0.473 a 91.5,91.5 0 0 1 -78.474,-44.537 l -0.122,-0.2 -0.122,-0.2 12.6,-7.533 12.6,-7.533 0.122,0.2 0.121,0.2 a 61.586,61.586 0 0 0 53.281,30.248 h 0.473 v 29.356 z m -77.891,-44.617 a 90.4,90.4 0 0 0 76.944,43.669 v -27.463 a 62.508,62.508 0 0 1 -53.375,-30.3 l -11.785,7.047 z" transform="translate(-1971.491,-672.515)" id="path652"></path></g><path class="a" d="m 1983.106,575.678 -19.7,-17.839 -19.693,-17.839 -5.6,25.977 -5.6,25.976 a 2.025,2.025 0 0 0 2.6,2.354 l 23.632,-7.6 23.632,-7.6 a 2.024,2.024 0 0 0 0.739,-3.428 z" transform="translate(-1931.984,-539.099)" id="path656"></path><path class="b" d="m 1932.947,591.974 a 2.442,2.442 0 0 1 -0.885,-0.165 2.49,2.49 0 0 1 -1.547,-2.862 l 5.69,-26.377 5.69,-26.377 20,18.114 20,18.114 a 2.493,2.493 0 0 1 -0.912,4.23 l -23.632,7.6 -23.632,7.6 a 2.559,2.559 0 0 1 -0.387,0.092 2.464,2.464 0 0 1 -0.385,0.031 z m 9.529,-53.979 -5.518,25.576 -5.517,25.576 a 1.547,1.547 0 0 0 1.991,1.8 l 23.632,-7.6 23.632,-7.6 a 1.548,1.548 0 0 0 0.566,-2.626 l -19.393,-17.564 z" transform="translate(-1930.458,-536.192)" id="path658"></path></g></g><g transform="translate(143.756,90.907)" id="g678"><g id="g676"><g transform="translate(32.262)" id="g668"><path class="a" d="m 2453.838,618.068 -7.29,-12.191 -7.29,-12.191 A 62.056,62.056 0 0 0 2469.736,540 h 28.409 a 91.036,91.036 0 0 1 -44.306,78.068 z" transform="translate(-2438.609,-539.527)" id="path664"></path><path class="b" d="m 2451.581,617.191 -7.533,-12.6 -7.533,-12.6 0.2,-0.121 0.2,-0.122 a 61.584,61.584 0 0 0 30.248,-53.28 V 538 h 29.355 v 0.474 a 91.506,91.506 0 0 1 -44.537,78.474 l -0.2,0.122 z m -13.768,-24.869 7.047,11.785 7.047,11.785 a 90.4,90.4 0 0 0 43.669,-76.944 h -27.462 a 62.507,62.507 0 0 1 -30.3,53.375 z" transform="translate(-2436.515,-538)" id="path666"></path></g><g transform="translate(0,36.243)" id="g674"><path class="a" d="m 2340.165,693.623 -18.082,19.966 -18.083,19.965 28.29,6.629 28.29,6.629 -8.848,-26.3 -8.849,-26.3 a 1.606,1.606 0 0 0 -2.719,-0.586 z" transform="translate(-2303.11,-692.62)" id="path670"></path><path class="b" d="m 2358.43,745.938 -29.1,-6.817 -29.1,-6.817 18.352,-20.263 18.352,-20.264 a 2.075,2.075 0 0 1 3.521,0.759 l 8.983,26.7 z m -56.41,-14.19 27.485,6.44 27.485,6.44 -8.713,-25.9 -8.713,-25.9 a 1.14,1.14 0 0 0 -0.318,-0.5 1.13,1.13 0 0 0 -1.6,0.08 l -17.812,19.668 z" transform="translate(-2300.239,-691.091)" id="path672"></path></g></g></g><g transform="translate(144.173)" id="g690"><path class="a" d="M 2357.687,214.887 A 62.055,62.055 0 0 0 2304,184.409 V 156 a 91.033,91.033 0 0 1 78.068,44.306 l -12.191,7.29 z" transform="translate(-2303.526,-155.527)" id="path680"></path><path class="b" d="m 2356,214.01 -0.121,-0.2 -0.121,-0.2 a 61.586,61.586 0 0 0 -53.28,-30.248 H 2302 V 154 h 0.474 a 91.508,91.508 0 0 1 78.474,44.537 l 0.122,0.2 0.121,0.2 -12.6,7.533 z m -53.05,-31.6 a 62.509,62.509 0 0 1 53.375,30.3 l 11.784,-7.047 11.785,-7.047 a 90.4,90.4 0 0 0 -76.944,-43.669 z" transform="translate(-2302,-154)" id="path682"></path><g transform="translate(35.779,35.653)" id="g688"><path class="a" d="m 2455.5,324.418 20.278,18.365 20.278,18.365 5.656,-26.217 5.656,-26.217 a 1.741,1.741 0 0 0 -2.235,-2.025 l -24.612,7.916 -24.611,7.916 a 1.12,1.12 0 0 0 -0.409,1.9 z" transform="translate(-2454.661,-306.13)" id="path684"></path><path class="b" d="m 2494.82,360.521 -20.582,-18.64 -20.582,-18.64 a 1.59,1.59 0 0 1 0.582,-2.7 l 24.612,-7.916 24.611,-7.916 a 2.209,2.209 0 0 1 2.842,2.575 l -5.742,26.618 z m 9.325,-54.971 a 1.288,1.288 0 0 0 -0.2,0.015 1.328,1.328 0 0 0 -0.2,0.047 l -24.612,7.916 -24.611,7.916 a 0.645,0.645 0 0 0 -0.236,1.094 l 19.974,18.09 19.973,18.089 5.569,-25.816 5.569,-25.816 a 1.274,1.274 0 0 0 -0.785,-1.452 1.242,1.242 0 0 0 -0.441,-0.082 z" transform="translate(-2453.132,-304.603)" id="path686"></path></g></g><g transform="translate(53.266,2.407)" id="g706"><g id="g704"><g transform="translate(0,10.256)" id="g696"><path class="a" d="M 1948.409,288.3 H 1920 a 91.034,91.034 0 0 1 44.306,-78.068 l 7.29,12.191 7.29,12.191 a 62.056,62.056 0 0 0 -30.478,53.687 z" transform="translate(-1919.527,-209.585)" id="path692"></path><path class="b" d="M 1947.356,286.682 H 1918 v -0.474 a 91.505,91.505 0 0 1 44.537,-78.474 l 0.2,-0.122 0.2,-0.121 7.533,12.6 7.533,12.6 -0.2,0.121 -0.2,0.121 a 61.586,61.586 0 0 0 -30.248,53.28 v 0.474 z m -28.407,-0.947 h 27.462 a 62.507,62.507 0 0 1 30.3,-53.375 l -7.047,-11.785 -7.047,-11.785 a 90.4,90.4 0 0 0 -43.669,76.944 z" transform="translate(-1918,-207.491)" id="path694"></path></g><g transform="translate(35.738)" id="g702"><path class="a" d="m 2089.217,218.725 17.472,-19.292 17.473,-19.292 a 1.694,1.694 0 0 0 -0.9,-2.793 l -25.884,-5.584 -25.878,-5.584 a 0.44,0.44 0 0 0 -0.512,0.565 l 8.3,25.814 8.3,25.814 a 0.961,0.961 0 0 0 1.628,0.351 z" transform="translate(-2070.488,-165.696)" id="path698"></path><path class="b" d="m 2086.983,217.988 a 1.483,1.483 0 0 1 -0.155,-0.008 1.536,1.536 0 0 1 -0.155,-0.025 1.421,1.421 0 0 1 -1.063,-0.963 l -8.3,-25.814 -8.3,-25.814 a 0.912,0.912 0 0 1 1.063,-1.173 l 25.884,5.584 25.884,5.584 a 2.163,2.163 0 0 1 1.149,3.573 l -17.472,19.292 -17.473,19.292 v 0 a 1.443,1.443 0 0 1 -0.483,0.351 1.409,1.409 0 0 1 -0.579,0.121 z m -17.06,-52.861 8.294,25.787 8.295,25.787 a 0.47,0.47 0 0 0 0.179,0.248 0.514,0.514 0 0 0 0.182,0.08 0.5,0.5 0 0 0 0.2,0 0.472,0.472 0 0 0 0.265,-0.152 v 0 l 17.472,-19.292 17.472,-19.292 a 1.218,1.218 0 0 0 -0.647,-2.012 l -25.856,-5.578 z" transform="translate(-2068.959,-164.168)" id="path700"></path></g></g></g><g transform="translate(0,44.27)" id="g712"><path class="c" d="m 1776.181,372.076 h -76.9 A 4.282,4.282 0 0 1 1695,367.795 v -20.514 a 4.282,4.282 0 0 1 4.281,-4.281 h 76.9 a 4.282,4.282 0 0 1 4.281,4.281 v 20.513 a 4.282,4.282 0 0 1 -4.281,4.281 z" transform="translate(-1694.526,-342.527)" id="path708"></path><path class="b" d="m 1774.655,371.023 h -76.9 A 4.761,4.761 0 0 1 1693,366.268 v -20.513 a 4.76,4.76 0 0 1 4.755,-4.755 h 76.9 a 4.76,4.76 0 0 1 4.755,4.755 v 20.513 a 4.76,4.76 0 0 1 -4.755,4.755 z m -76.9,-29.076 a 3.812,3.812 0 0 0 -3.808,3.808 v 20.513 a 3.813,3.813 0 0 0 3.808,3.808 h 76.9 a 3.813,3.813 0 0 0 3.808,-3.808 v -20.513 a 3.812,3.812 0 0 0 -3.808,-3.808 z" transform="translate(-1693,-341)" id="path710"></path></g><g transform="translate(2.604,44.27)" id="g718"><path class="d" d="m 1787.181,372.076 h -76.9 A 4.282,4.282 0 0 1 1706,367.795 v -20.514 a 4.282,4.282 0 0 1 4.281,-4.281 h 76.9 a 4.282,4.282 0 0 1 4.281,4.281 v 20.513 a 4.282,4.282 0 0 1 -4.281,4.281 z" transform="translate(-1705.526,-342.527)" id="path714"></path><path class="b" d="m 1785.655,371.023 h -76.9 A 4.761,4.761 0 0 1 1704,366.268 v -20.513 a 4.76,4.76 0 0 1 4.755,-4.755 h 76.9 a 4.76,4.76 0 0 1 4.755,4.755 v 20.513 a 4.76,4.76 0 0 1 -4.755,4.755 z m -76.9,-29.076 a 3.812,3.812 0 0 0 -3.808,3.808 v 20.513 a 3.813,3.813 0 0 0 3.808,3.808 h 76.9 a 3.813,3.813 0 0 0 3.808,-3.808 v -20.513 a 3.812,3.812 0 0 0 -3.808,-3.808 z" transform="translate(-1704,-341)" id="path716"></path></g><g transform="translate(14.996,49.89)" id="g754"><path class="e" d="m 1756.581,372.769 a 0.261,0.261 0 0 1 -0.095,-0.017 0.224,0.224 0 0 1 -0.125,-0.125 0.258,0.258 0 0 1 -0.017,-0.095 v -6.155 a 0.258,0.258 0 0 1 0.017,-0.095 0.221,0.221 0 0 1 0.05,-0.076 0.215,0.215 0 0 1 0.076,-0.049 0.257,0.257 0 0 1 0.095,-0.017 h 2.651 a 4.232,4.232 0 0 1 0.735,0.06 3.018,3.018 0 0 1 0.633,0.181 2.142,2.142 0 0 1 0.518,0.3 1.894,1.894 0 0 1 0.391,0.423 1.793,1.793 0 0 1 0.245,0.547 2.615,2.615 0 0 1 0.082,0.675 2.541,2.541 0 0 1 -0.082,0.665 1.738,1.738 0 0 1 -0.245,0.537 1.824,1.824 0 0 1 -0.391,0.412 2.08,2.08 0 0 1 -0.518,0.289 3.147,3.147 0 0 1 -0.633,0.171 4.492,4.492 0 0 1 -0.735,0.057 h -1.127 v 2.074 a 0.244,0.244 0 0 1 -0.018,0.095 0.216,0.216 0 0 1 -0.053,0.076 0.243,0.243 0 0 1 -0.079,0.05 0.271,0.271 0 0 1 -0.1,0.017 h -1.278 z m 1.5,-3.617 h 1.108 a 1.2,1.2 0 0 0 0.366,-0.052 0.8,0.8 0 0 0 0.283,-0.156 0.639,0.639 0 0 0 0.181,-0.263 1.045,1.045 0 0 0 0.06,-0.372 1.018,1.018 0 0 0 -0.052,-0.331 0.852,0.852 0 0 0 -0.156,-0.275 0.633,0.633 0 0 0 -0.275,-0.185 1.2,1.2 0 0 0 -0.407,-0.062 h -1.108 v 1.7 z" transform="translate(-1756.344,-365.809)" id="path720"></path><path class="e" d="m 1783.181,378.264 a 0.263,0.263 0 0 1 -0.095,-0.017 0.221,0.221 0 0 1 -0.076,-0.05 0.217,0.217 0 0 1 -0.05,-0.076 0.26,0.26 0 0 1 -0.016,-0.095 v -4.451 a 0.239,0.239 0 0 1 0.016,-0.089 0.244,0.244 0 0 1 0.05,-0.077 0.217,0.217 0 0 1 0.076,-0.053 0.245,0.245 0 0 1 0.095,-0.018 h 1.089 a 0.244,0.244 0 0 1 0.095,0.018 0.219,0.219 0 0 1 0.076,0.053 0.251,0.251 0 0 1 0.05,0.077 0.236,0.236 0 0 1 0.017,0.089 v 0.379 a 1.774,1.774 0 0 1 0.611,-0.454 1.739,1.739 0 0 1 0.378,-0.121 2.124,2.124 0 0 1 0.423,-0.04 h 0.417 a 0.237,0.237 0 0 1 0.089,0.017 0.253,0.253 0 0 1 0.077,0.05 0.216,0.216 0 0 1 0.053,0.076 0.241,0.241 0 0 1 0.018,0.095 v 0.975 a 0.221,0.221 0 0 1 -0.018,0.089 0.247,0.247 0 0 1 -0.053,0.077 0.249,0.249 0 0 1 -0.077,0.053 0.224,0.224 0 0 1 -0.089,0.018 h -0.919 a 1.028,1.028 0 0 0 -0.344,0.053 0.666,0.666 0 0 0 -0.417,0.417 1.027,1.027 0 0 0 -0.053,0.344 v 2.424 a 0.246,0.246 0 0 1 -0.018,0.095 0.217,0.217 0 0 1 -0.053,0.076 0.243,0.243 0 0 1 -0.079,0.05 0.272,0.272 0 0 1 -0.1,0.017 h -1.174 z" transform="translate(-1776.647,-371.304)" id="path722"></path><path class="e" d="m 1802.654,378.053 a 3.912,3.912 0 0 1 -0.733,-0.064 2.532,2.532 0 0 1 -0.607,-0.192 2.025,2.025 0 0 1 -0.481,-0.311 1.8,1.8 0 0 1 -0.353,-0.423 2.171,2.171 0 0 1 -0.226,-0.524 2.826,2.826 0 0 1 -0.1,-0.617 q 0,-0.095 -0.01,-0.2 -0.01,-0.105 0,-0.228 c 0,-0.081 0,-0.156 0,-0.226 0,-0.07 0,-0.135 0.01,-0.2 a 2.713,2.713 0 0 1 0.1,-0.622 2.039,2.039 0 0 1 0.237,-0.523 1.9,1.9 0 0 1 0.363,-0.419 2.105,2.105 0 0 1 0.484,-0.31 2.565,2.565 0 0 1 0.6,-0.192 3.721,3.721 0 0 1 0.711,-0.064 3.786,3.786 0 0 1 0.719,0.064 2.559,2.559 0 0 1 0.6,0.192 2.111,2.111 0 0 1 0.484,0.31 1.9,1.9 0 0 1 0.363,0.419 2.039,2.039 0 0 1 0.237,0.523 2.726,2.726 0 0 1 0.1,0.622 q 0,0.09 0.01,0.2 c 0,0.07 0,0.146 0,0.226 0,0.08 0,0.156 0,0.228 0,0.072 0,0.139 -0.01,0.2 a 2.826,2.826 0 0 1 -0.1,0.617 2.152,2.152 0 0 1 -0.226,0.524 1.8,1.8 0 0 1 -0.353,0.423 2.023,2.023 0 0 1 -0.481,0.311 2.531,2.531 0 0 1 -0.61,0.192 3.981,3.981 0 0 1 -0.728,0.064 z m 0,-1.155 a 0.962,0.962 0 0 0 0.368,-0.064 0.594,0.594 0 0 0 0.252,-0.192 0.976,0.976 0 0 0 0.153,-0.32 2.034,2.034 0 0 0 0.07,-0.447 c 0,-0.047 0.01,-0.1 0.01,-0.166 0,-0.066 0,-0.134 0,-0.213 0,-0.079 0,-0.15 0,-0.213 0,-0.063 0,-0.118 -0.01,-0.166 a 2,2 0 0 0 -0.07,-0.442 1.008,1.008 0 0 0 -0.153,-0.321 0.6,0.6 0 0 0 -0.252,-0.2 0.944,0.944 0 0 0 -0.368,-0.065 0.923,0.923 0 0 0 -0.362,0.065 0.613,0.613 0 0 0 -0.253,0.2 0.951,0.951 0 0 0 -0.154,0.321 1.857,1.857 0 0 0 -0.064,0.442 c 0,0.047 -0.01,0.1 -0.01,0.166 -10e-4,0.066 0,0.134 0,0.213 0,0.079 0,0.15 0,0.213 0,0.063 0,0.118 0.01,0.166 a 1.891,1.891 0 0 0 0.064,0.447 0.922,0.922 0 0 0 0.154,0.32 0.612,0.612 0 0 0 0.253,0.192 0.94,0.94 0 0 0 0.362,0.066 z" transform="translate(-1789.775,-370.998)" id="path724"></path><path class="e" d="m 1825.541,379.757 a 0.264,0.264 0 0 1 -0.095,-0.017 0.217,0.217 0 0 1 -0.076,-0.05 0.221,0.221 0 0 1 -0.05,-0.076 0.267,0.267 0 0 1 -0.016,-0.095 v -6.25 a 0.265,0.265 0 0 1 0.016,-0.095 0.224,0.224 0 0 1 0.125,-0.125 0.259,0.259 0 0 1 0.095,-0.017 h 1.07 a 0.235,0.235 0 0 1 0.089,0.017 0.251,0.251 0 0 1 0.077,0.05 0.212,0.212 0 0 1 0.053,0.076 0.246,0.246 0 0 1 0.018,0.095 v 0.35 a 1.608,1.608 0 0 1 0.253,-0.269 1.9,1.9 0 0 1 0.325,-0.219 1.519,1.519 0 0 1 0.4,-0.146 2.283,2.283 0 0 1 0.488,-0.049 2.553,2.553 0 0 1 0.445,0.037 1.887,1.887 0 0 1 0.388,0.11 1.7,1.7 0 0 1 0.334,0.181 1.644,1.644 0 0 1 0.282,0.25 1.892,1.892 0 0 1 0.228,0.315 2.3,2.3 0 0 1 0.174,0.376 2.679,2.679 0 0 1 0.115,0.438 3.658,3.658 0 0 1 0.051,0.5 c 0,0.063 0.01,0.124 0.01,0.182 0,0.058 0,0.114 0,0.168 0,0.054 0,0.11 0,0.168 0,0.058 0,0.119 -0.01,0.182 a 3.662,3.662 0 0 1 -0.05,0.485 2.757,2.757 0 0 1 -0.111,0.433 2.235,2.235 0 0 1 -0.17,0.376 1.869,1.869 0 0 1 -0.227,0.315 1.72,1.72 0 0 1 -0.283,0.252 1.805,1.805 0 0 1 -0.337,0.188 1.848,1.848 0 0 1 -0.392,0.117 2.432,2.432 0 0 1 -0.446,0.039 2.165,2.165 0 0 1 -0.434,-0.042 1.6,1.6 0 0 1 -0.375,-0.124 1.563,1.563 0 0 1 -0.316,-0.2 1.522,1.522 0 0 1 -0.257,-0.269 v 2.1 a 0.256,0.256 0 0 1 -0.017,0.095 0.214,0.214 0 0 1 -0.05,0.076 0.217,0.217 0 0 1 -0.076,0.05 0.263,0.263 0 0 1 -0.094,0.017 h -1.155 z m 2.263,-2.973 a 1.129,1.129 0 0 0 0.287,-0.033 0.634,0.634 0 0 0 0.215,-0.1 0.714,0.714 0 0 0 0.155,-0.156 0.794,0.794 0 0 0 0.105,-0.2 1.715,1.715 0 0 0 0.065,-0.239 2.1,2.1 0 0 0 0.034,-0.263 q 0.01,-0.147 0.01,-0.293 -10e-4,-0.146 -0.01,-0.294 a 2.089,2.089 0 0 0 -0.034,-0.263 1.706,1.706 0 0 0 -0.065,-0.239 0.79,0.79 0 0 0 -0.105,-0.2 0.713,0.713 0 0 0 -0.155,-0.156 0.625,0.625 0 0 0 -0.215,-0.1 1.119,1.119 0 0 0 -0.287,-0.033 1.067,1.067 0 0 0 -0.282,0.034 0.676,0.676 0 0 0 -0.22,0.1 0.808,0.808 0 0 0 -0.164,0.157 0.793,0.793 0 0 0 -0.111,0.2 1.339,1.339 0 0 0 -0.066,0.227 1.537,1.537 0 0 0 -0.028,0.246 c 0,0.06 -0.01,0.119 -0.01,0.178 0,0.059 0,0.116 0,0.173 0,0.057 0,0.115 0,0.175 0,0.06 0,0.121 0.01,0.185 a 1.183,1.183 0 0 0 0.031,0.228 1.091,1.091 0 0 0 0.073,0.212 0.8,0.8 0 0 0 0.118,0.185 0.832,0.832 0 0 0 0.166,0.147 0.705,0.705 0 0 0 0.216,0.1 1.044,1.044 0 0 0 0.263,0.022 z" transform="translate(-1808.979,-370.998)" id="path726"></path><path class="e" d="m 1852.293,378.053 a 3.915,3.915 0 0 1 -0.733,-0.064 2.53,2.53 0 0 1 -0.607,-0.192 2.024,2.024 0 0 1 -0.481,-0.311 1.8,1.8 0 0 1 -0.353,-0.423 2.156,2.156 0 0 1 -0.226,-0.524 2.818,2.818 0 0 1 -0.1,-0.617 q 0,-0.095 -0.01,-0.2 c 0,-0.072 0,-0.148 0,-0.228 0,-0.08 0,-0.156 0,-0.226 0,-0.07 0,-0.135 0.01,-0.2 a 2.706,2.706 0 0 1 0.1,-0.622 2.04,2.04 0 0 1 0.237,-0.523 1.9,1.9 0 0 1 0.363,-0.419 2.11,2.11 0 0 1 0.484,-0.31 2.555,2.555 0 0 1 0.6,-0.192 3.72,3.72 0 0 1 0.711,-0.064 3.78,3.78 0 0 1 0.718,0.064 2.562,2.562 0 0 1 0.6,0.192 2.108,2.108 0 0 1 0.484,0.31 1.9,1.9 0 0 1 0.364,0.419 2.056,2.056 0 0 1 0.237,0.523 2.713,2.713 0 0 1 0.1,0.622 c 0,0.06 0.01,0.125 0.01,0.2 10e-4,0.075 0,0.146 0,0.226 0,0.08 0,0.156 0,0.228 0,0.072 0,0.139 -0.01,0.2 a 2.811,2.811 0 0 1 -0.1,0.617 2.16,2.16 0 0 1 -0.226,0.524 1.811,1.811 0 0 1 -0.353,0.423 2.02,2.02 0 0 1 -0.481,0.311 2.533,2.533 0 0 1 -0.61,0.192 3.977,3.977 0 0 1 -0.728,0.064 z m 0,-1.155 a 0.962,0.962 0 0 0 0.368,-0.064 0.6,0.6 0 0 0 0.252,-0.192 0.971,0.971 0 0 0 0.152,-0.32 2.019,2.019 0 0 0 0.07,-0.447 c 0,-0.047 0.01,-0.1 0.01,-0.166 10e-4,-0.066 0,-0.134 0,-0.213 0,-0.079 0,-0.15 0,-0.213 0,-0.063 0,-0.118 -0.01,-0.166 a 1.986,1.986 0 0 0 -0.07,-0.442 1,1 0 0 0 -0.152,-0.321 0.6,0.6 0 0 0 -0.252,-0.2 0.944,0.944 0 0 0 -0.368,-0.065 0.922,0.922 0 0 0 -0.362,0.065 0.613,0.613 0 0 0 -0.254,0.2 0.955,0.955 0 0 0 -0.154,0.321 1.863,1.863 0 0 0 -0.064,0.442 c 0,0.047 -0.01,0.1 -0.01,0.166 0,0.066 0,0.134 0,0.213 0,0.079 0,0.15 0,0.213 0,0.063 0,0.118 0.01,0.166 a 1.9,1.9 0 0 0 0.064,0.447 0.926,0.926 0 0 0 0.154,0.32 0.612,0.612 0 0 0 0.254,0.192 0.939,0.939 0 0 0 0.362,0.066 z" transform="translate(-1827.662,-370.998)" id="path728"></path><path class="e" d="m 1876.762,380.041 a 4.325,4.325 0 0 1 -0.667,-0.047 2.552,2.552 0 0 1 -0.541,-0.142 2.933,2.933 0 0 1 -0.428,-0.209 1.876,1.876 0 0 1 -0.329,-0.246 2.266,2.266 0 0 1 -0.24,-0.264 1.437,1.437 0 0 1 -0.162,-0.261 1.931,1.931 0 0 1 -0.095,-0.233 0.733,0.733 0 0 1 -0.038,-0.178 0.2,0.2 0 0 1 0.012,-0.095 0.19,0.19 0 0 1 0.054,-0.076 0.257,0.257 0 0 1 0.083,-0.05 0.275,0.275 0 0 1 0.1,-0.017 h 1.2 a 0.283,0.283 0 0 1 0.079,0.011 0.239,0.239 0 0 1 0.068,0.032 0.218,0.218 0 0 1 0.056,0.058 0.408,0.408 0 0 1 0.044,0.089 c 0.016,0.035 0.034,0.07 0.056,0.106 0.022,0.036 0.045,0.074 0.072,0.111 a 0.508,0.508 0 0 0 0.1,0.1 0.657,0.657 0 0 0 0.13,0.082 0.666,0.666 0 0 0 0.174,0.053 1.32,1.32 0 0 0 0.228,0.018 1.382,1.382 0 0 0 0.26,-0.023 0.882,0.882 0 0 0 0.213,-0.067 0.565,0.565 0 0 0 0.166,-0.119 0.632,0.632 0 0 0 0.118,-0.175 0.957,0.957 0 0 0 0.071,-0.238 1.8,1.8 0 0 0 0.024,-0.306 v -0.635 a 1.453,1.453 0 0 1 -0.249,0.214 1.821,1.821 0 0 1 -0.31,0.169 1.719,1.719 0 0 1 -0.376,0.11 2.559,2.559 0 0 1 -0.447,0.037 2.762,2.762 0 0 1 -0.455,-0.036 2.041,2.041 0 0 1 -0.4,-0.107 1.6,1.6 0 0 1 -0.339,-0.178 1.488,1.488 0 0 1 -0.277,-0.249 1.844,1.844 0 0 1 -0.219,-0.315 2.259,2.259 0 0 1 -0.165,-0.376 2.957,2.957 0 0 1 -0.11,-0.438 4.136,4.136 0 0 1 -0.056,-0.5 c 0,-0.082 0,-0.164 0,-0.246 0,-0.082 0,-0.164 0,-0.246 a 4.121,4.121 0 0 1 0.054,-0.485 3.172,3.172 0 0 1 0.107,-0.433 2.22,2.22 0 0 1 0.162,-0.379 1.9,1.9 0 0 1 0.221,-0.322 1.6,1.6 0 0 1 0.28,-0.259 1.717,1.717 0 0 1 0.34,-0.191 1.9,1.9 0 0 1 0.4,-0.117 2.521,2.521 0 0 1 0.455,-0.039 2.188,2.188 0 0 1 0.475,0.049 1.573,1.573 0 0 1 0.4,0.146 2.064,2.064 0 0 1 0.333,0.219 1.8,1.8 0 0 1 0.269,0.269 v -0.35 a 0.239,0.239 0 0 1 0.016,-0.089 0.244,0.244 0 0 1 0.05,-0.077 0.218,0.218 0 0 1 0.076,-0.053 0.245,0.245 0 0 1 0.095,-0.018 h 1.089 a 0.254,0.254 0 0 1 0.1,0.018 0.24,0.24 0 0 1 0.079,0.053 0.244,0.244 0 0 1 0.053,0.077 0.223,0.223 0 0 1 0.018,0.089 v 4.555 a 2.821,2.821 0 0 1 -0.073,0.663 1.978,1.978 0 0 1 -0.22,0.549 1.822,1.822 0 0 1 -0.357,0.433 1.994,1.994 0 0 1 -0.485,0.315 2.588,2.588 0 0 1 -0.608,0.192 3.889,3.889 0 0 1 -0.734,0.067 z m -0.066,-3.418 a 1.06,1.06 0 0 0 0.275,-0.033 0.692,0.692 0 0 0 0.218,-0.1 0.788,0.788 0 0 0 0.279,-0.341 1.192,1.192 0 0 0 0.07,-0.215 1.286,1.286 0 0 0 0.03,-0.23 c 0,-0.035 0.01,-0.076 0.01,-0.125 0,-0.049 0,-0.1 0,-0.168 0,-0.068 0,-0.118 0,-0.166 0,-0.048 0,-0.087 -0.01,-0.118 a 1.346,1.346 0 0 0 -0.03,-0.237 1.177,1.177 0 0 0 -0.07,-0.218 0.761,0.761 0 0 0 -0.279,-0.336 0.7,0.7 0 0 0 -0.218,-0.1 1.2,1.2 0 0 0 -0.555,0 0.655,0.655 0 0 0 -0.217,0.1 0.711,0.711 0 0 0 -0.159,0.156 0.775,0.775 0 0 0 -0.107,0.2 1.673,1.673 0 0 0 -0.065,0.239 2.045,2.045 0 0 0 -0.034,0.263 c 0,0.069 0,0.14 0,0.211 0,0.071 0,0.143 0,0.215 a 2.046,2.046 0 0 0 0.034,0.263 1.671,1.671 0 0 0 0.065,0.239 0.777,0.777 0 0 0 0.107,0.2 0.7,0.7 0 0 0 0.159,0.156 0.66,0.66 0 0 0 0.217,0.1 1.093,1.093 0 0 0 0.284,0.045 z" transform="translate(-1846.271,-370.998)" id="path730"></path><path class="e" d="m 1900.772,378.053 a 2.338,2.338 0 0 1 -0.484,-0.048 1.893,1.893 0 0 1 -0.43,-0.146 1.788,1.788 0 0 1 -0.361,-0.228 1.545,1.545 0 0 1 -0.278,-0.3 1.267,1.267 0 0 1 -0.177,-0.353 1.275,1.275 0 0 1 0.49,-1.461 2.682,2.682 0 0 1 0.639,-0.33 4.312,4.312 0 0 1 0.819,-0.2 l 0.592,-0.09 0.592,-0.09 v -0.133 a 1.146,1.146 0 0 0 -0.036,-0.3 0.606,0.606 0 0 0 -0.107,-0.22 0.423,0.423 0 0 0 -0.2,-0.135 0.984,0.984 0 0 0 -0.319,-0.045 1.014,1.014 0 0 0 -0.24,0.026 0.632,0.632 0 0 0 -0.191,0.078 0.72,0.72 0 0 0 -0.148,0.123 0.772,0.772 0 0 0 -0.112,0.161 0.28,0.28 0 0 1 -0.1,0.093 0.289,0.289 0 0 1 -0.135,0.031 h -1.06 a 0.26,0.26 0 0 1 -0.093,-0.015 0.179,0.179 0 0 1 -0.069,-0.046 0.183,0.183 0 0 1 -0.04,-0.067 0.187,0.187 0 0 1 -0.01,-0.079 0.592,0.592 0 0 1 0.032,-0.183 1.115,1.115 0 0 1 0.1,-0.21 1.331,1.331 0 0 1 0.162,-0.221 2.072,2.072 0 0 1 0.231,-0.219 1.794,1.794 0 0 1 0.3,-0.2 2.61,2.61 0 0 1 0.379,-0.161 2.522,2.522 0 0 1 0.459,-0.107 3.894,3.894 0 0 1 0.544,-0.036 4.266,4.266 0 0 1 0.57,0.036 2.733,2.733 0 0 1 0.481,0.107 2.159,2.159 0 0 1 0.394,0.17 1.575,1.575 0 0 1 0.312,0.227 1.622,1.622 0 0 1 0.4,0.6 1.922,1.922 0 0 1 0.1,0.363 2.3,2.3 0 0 1 0.033,0.4 v 2.879 a 0.239,0.239 0 0 1 -0.018,0.095 0.216,0.216 0 0 1 -0.053,0.076 0.248,0.248 0 0 1 -0.077,0.05 0.239,0.239 0 0 1 -0.089,0.017 h -1.1 a 0.26,0.26 0 0 1 -0.095,-0.017 0.221,0.221 0 0 1 -0.076,-0.05 0.218,0.218 0 0 1 -0.05,-0.076 0.265,0.265 0 0 1 -0.016,-0.095 v -0.331 a 1.219,1.219 0 0 1 -0.144,0.173 1.572,1.572 0 0 1 -0.413,0.295 1.911,1.911 0 0 1 -0.262,0.105 1.783,1.783 0 0 1 -0.3,0.067 2.506,2.506 0 0 1 -0.349,0.02 z m 0.445,-1.08 a 1.131,1.131 0 0 0 0.261,-0.029 0.988,0.988 0 0 0 0.235,-0.089 0.773,0.773 0 0 0 0.2,-0.151 0.921,0.921 0 0 0 0.151,-0.218 1.11,1.11 0 0 0 0.1,-0.283 1.742,1.742 0 0 0 0.032,-0.347 v -0.133 l -0.4,0.071 -0.4,0.071 a 2.294,2.294 0 0 0 -0.385,0.1 0.967,0.967 0 0 0 -0.264,0.136 0.563,0.563 0 0 0 -0.153,0.169 0.393,0.393 0 0 0 -0.051,0.2 0.452,0.452 0 0 0 0.024,0.149 0.4,0.4 0 0 0 0.071,0.125 0.583,0.583 0 0 0 0.109,0.1 0.694,0.694 0 0 0 0.137,0.075 0.8,0.8 0 0 0 0.161,0.046 1.024,1.024 0 0 0 0.172,0.008 z" transform="translate(-1865.214,-370.998)" id="path732"></path><path class="e" d="m 1924.886,372.463 a 3.11,3.11 0 0 1 -0.565,-0.049 2.181,2.181 0 0 1 -0.482,-0.146 1.458,1.458 0 0 1 -0.389,-0.249 1.432,1.432 0 0 1 -0.288,-0.357 1.665,1.665 0 0 1 -0.178,-0.472 2.749,2.749 0 0 1 -0.059,-0.593 v -1.817 h -0.739 a 0.272,0.272 0 0 1 -0.1,-0.017 0.243,0.243 0 0 1 -0.079,-0.05 0.215,0.215 0 0 1 -0.053,-0.076 0.246,0.246 0 0 1 -0.018,-0.095 v -0.767 a 0.246,0.246 0 0 1 0.018,-0.095 0.215,0.215 0 0 1 0.053,-0.076 0.243,0.243 0 0 1 0.079,-0.05 0.266,0.266 0 0 1 0.1,-0.017 h 0.739 v -1.562 a 0.241,0.241 0 0 1 0.018,-0.095 0.217,0.217 0 0 1 0.053,-0.076 0.251,0.251 0 0 1 0.077,-0.05 0.236,0.236 0 0 1 0.089,-0.017 h 1.1 a 0.259,0.259 0 0 1 0.095,0.017 0.224,0.224 0 0 1 0.125,0.125 0.26,0.26 0 0 1 0.016,0.095 v 1.563 h 1.184 a 0.259,0.259 0 0 1 0.095,0.017 0.224,0.224 0 0 1 0.125,0.126 0.26,0.26 0 0 1 0.017,0.095 v 0.767 a 0.26,0.26 0 0 1 -0.017,0.095 0.224,0.224 0 0 1 -0.125,0.126 0.264,0.264 0 0 1 -0.095,0.017 h -1.182 v 1.686 a 1.252,1.252 0 0 0 0.031,0.289 0.7,0.7 0 0 0 0.093,0.223 0.379,0.379 0 0 0 0.166,0.142 0.6,0.6 0 0 0 0.25,0.047 h 0.729 a 0.257,0.257 0 0 1 0.094,0.017 0.212,0.212 0 0 1 0.076,0.049 0.217,0.217 0 0 1 0.05,0.076 0.261,0.261 0 0 1 0.017,0.095 v 0.824 a 0.26,0.26 0 0 1 -0.017,0.095 0.222,0.222 0 0 1 -0.125,0.125 0.261,0.261 0 0 1 -0.094,0.017 h -0.881 z" transform="translate(-1882.738,-365.503)" id="path734"></path><path class="e" d="m 1942.619,366.066 a 0.258,0.258 0 0 1 -0.095,-0.017 0.218,0.218 0 0 1 -0.076,-0.05 0.216,0.216 0 0 1 -0.05,-0.076 0.26,0.26 0 0 1 -0.016,-0.095 v -0.843 a 0.269,0.269 0 0 1 0.016,-0.1 0.236,0.236 0 0 1 0.05,-0.079 0.216,0.216 0 0 1 0.076,-0.053 0.244,0.244 0 0 1 0.095,-0.018 h 1.127 a 0.254,0.254 0 0 1 0.1,0.018 0.246,0.246 0 0 1 0.132,0.133 0.252,0.252 0 0 1 0.018,0.1 v 0.843 a 0.244,0.244 0 0 1 -0.018,0.095 0.219,0.219 0 0 1 -0.053,0.076 0.242,0.242 0 0 1 -0.079,0.05 0.269,0.269 0 0 1 -0.1,0.017 h -1.127 z m 0.01,5.634 a 0.264,0.264 0 0 1 -0.095,-0.017 0.217,0.217 0 0 1 -0.076,-0.05 0.215,0.215 0 0 1 -0.05,-0.076 0.261,0.261 0 0 1 -0.016,-0.095 v -4.451 a 0.26,0.26 0 0 1 0.016,-0.095 0.214,0.214 0 0 1 0.05,-0.076 0.217,0.217 0 0 1 0.076,-0.05 0.259,0.259 0 0 1 0.095,-0.017 h 1.117 a 0.237,0.237 0 0 1 0.089,0.017 0.252,0.252 0 0 1 0.077,0.05 0.215,0.215 0 0 1 0.053,0.076 0.241,0.241 0 0 1 0.018,0.095 v 4.451 a 0.242,0.242 0 0 1 -0.018,0.095 0.215,0.215 0 0 1 -0.053,0.076 0.252,0.252 0 0 1 -0.077,0.05 0.241,0.241 0 0 1 -0.089,0.017 z" transform="translate(-1898.34,-364.74)" id="path736"></path><path class="e" d="m 1954.058,377.958 a 0.262,0.262 0 0 1 -0.095,-0.017 0.222,0.222 0 0 1 -0.125,-0.125 0.255,0.255 0 0 1 -0.017,-0.095 v -4.451 a 0.255,0.255 0 0 1 0.017,-0.095 0.222,0.222 0 0 1 0.125,-0.125 0.257,0.257 0 0 1 0.095,-0.017 h 1.089 a 0.257,0.257 0 0 1 0.095,0.017 0.223,0.223 0 0 1 0.076,0.05 0.218,0.218 0 0 1 0.05,0.076 0.26,0.26 0 0 1 0.017,0.095 v 0.36 a 1.789,1.789 0 0 1 0.284,-0.27 2.246,2.246 0 0 1 0.36,-0.223 1.8,1.8 0 0 1 0.433,-0.149 2.431,2.431 0 0 1 0.5,-0.05 2.092,2.092 0 0 1 0.517,0.062 1.747,1.747 0 0 1 0.453,0.184 1.614,1.614 0 0 1 0.376,0.3 1.855,1.855 0 0 1 0.286,0.42 2.127,2.127 0 0 1 0.181,0.531 3.153,3.153 0 0 1 0.06,0.638 v 2.642 a 0.246,0.246 0 0 1 -0.018,0.095 0.218,0.218 0 0 1 -0.053,0.076 0.247,0.247 0 0 1 -0.077,0.05 0.24,0.24 0 0 1 -0.089,0.017 h -1.193 a 0.237,0.237 0 0 1 -0.088,-0.017 0.244,0.244 0 0 1 -0.077,-0.05 0.218,0.218 0 0 1 -0.053,-0.076 0.246,0.246 0 0 1 -0.018,-0.095 v -2.585 a 1.326,1.326 0 0 0 -0.053,-0.394 0.785,0.785 0 0 0 -0.16,-0.292 0.663,0.663 0 0 0 -0.264,-0.181 1.02,1.02 0 0 0 -0.366,-0.06 0.956,0.956 0 0 0 -0.349,0.06 0.747,0.747 0 0 0 -0.271,0.181 0.772,0.772 0 0 0 -0.174,0.292 1.232,1.232 0 0 0 -0.058,0.394 v 2.585 a 0.241,0.241 0 0 1 -0.018,0.095 0.215,0.215 0 0 1 -0.053,0.076 0.25,0.25 0 0 1 -0.077,0.05 0.241,0.241 0 0 1 -0.089,0.017 h -1.184 z" transform="translate(-1907.071,-370.998)" id="path738"></path><path class="e" d="m 1981.32,380.041 a 4.329,4.329 0 0 1 -0.666,-0.047 2.555,2.555 0 0 1 -0.541,-0.142 2.947,2.947 0 0 1 -0.429,-0.209 1.9,1.9 0 0 1 -0.329,-0.246 2.288,2.288 0 0 1 -0.24,-0.264 1.47,1.47 0 0 1 -0.162,-0.261 1.931,1.931 0 0 1 -0.095,-0.233 0.744,0.744 0 0 1 -0.038,-0.178 0.206,0.206 0 0 1 0.012,-0.095 0.192,0.192 0 0 1 0.055,-0.076 0.253,0.253 0 0 1 0.083,-0.05 0.277,0.277 0 0 1 0.1,-0.017 h 1.2 a 0.284,0.284 0 0 1 0.079,0.011 0.24,0.24 0 0 1 0.067,0.032 0.22,0.22 0 0 1 0.055,0.058 0.413,0.413 0 0 1 0.044,0.089 1.17,1.17 0 0 0 0.055,0.106 c 0.021,0.036 0.045,0.074 0.072,0.111 a 0.511,0.511 0 0 0 0.1,0.1 0.642,0.642 0 0 0 0.3,0.135 1.327,1.327 0 0 0 0.229,0.018 1.384,1.384 0 0 0 0.26,-0.023 0.885,0.885 0 0 0 0.213,-0.067 0.568,0.568 0 0 0 0.166,-0.119 0.634,0.634 0 0 0 0.118,-0.175 0.947,0.947 0 0 0 0.071,-0.238 1.8,1.8 0 0 0 0.024,-0.306 v -0.635 a 1.445,1.445 0 0 1 -0.249,0.214 1.821,1.821 0 0 1 -0.31,0.169 1.727,1.727 0 0 1 -0.376,0.11 2.56,2.56 0 0 1 -0.448,0.037 2.764,2.764 0 0 1 -0.455,-0.036 2.039,2.039 0 0 1 -0.4,-0.107 1.6,1.6 0 0 1 -0.338,-0.178 1.469,1.469 0 0 1 -0.277,-0.249 1.852,1.852 0 0 1 -0.219,-0.315 2.279,2.279 0 0 1 -0.165,-0.376 3.019,3.019 0 0 1 -0.11,-0.438 4.161,4.161 0 0 1 -0.056,-0.5 c 0,-0.082 0,-0.164 0,-0.246 0,-0.082 0,-0.164 0,-0.246 a 4.148,4.148 0 0 1 0.054,-0.485 3.19,3.19 0 0 1 0.107,-0.433 2.191,2.191 0 0 1 0.162,-0.379 1.888,1.888 0 0 1 0.221,-0.322 1.611,1.611 0 0 1 0.281,-0.259 1.718,1.718 0 0 1 0.34,-0.191 1.9,1.9 0 0 1 0.4,-0.117 2.523,2.523 0 0 1 0.455,-0.039 2.184,2.184 0 0 1 0.474,0.049 1.573,1.573 0 0 1 0.4,0.146 2.081,2.081 0 0 1 0.333,0.219 1.809,1.809 0 0 1 0.269,0.269 v -0.35 a 0.234,0.234 0 0 1 0.017,-0.089 0.243,0.243 0 0 1 0.049,-0.077 0.219,0.219 0 0 1 0.076,-0.053 0.245,0.245 0 0 1 0.095,-0.018 h 1.089 a 0.252,0.252 0 0 1 0.1,0.018 0.239,0.239 0 0 1 0.08,0.053 0.25,0.25 0 0 1 0.053,0.077 0.225,0.225 0 0 1 0.018,0.089 v 4.555 a 2.814,2.814 0 0 1 -0.073,0.663 1.97,1.97 0 0 1 -0.22,0.549 1.822,1.822 0 0 1 -0.357,0.433 2,2 0 0 1 -0.485,0.315 2.592,2.592 0 0 1 -0.609,0.192 3.889,3.889 0 0 1 -0.729,0.067 z m -0.066,-3.418 a 1.057,1.057 0 0 0 0.274,-0.033 0.693,0.693 0 0 0 0.218,-0.1 0.79,0.79 0 0 0 0.279,-0.341 1.212,1.212 0 0 0 0.07,-0.215 1.3,1.3 0 0 0 0.03,-0.23 c 0,-0.035 0.01,-0.076 0.01,-0.125 0,-0.049 0,-0.1 0,-0.168 0,-0.068 0,-0.118 0,-0.166 0,-0.048 0,-0.087 -0.01,-0.118 a 1.358,1.358 0 0 0 -0.03,-0.237 1.2,1.2 0 0 0 -0.07,-0.218 0.763,0.763 0 0 0 -0.279,-0.336 0.7,0.7 0 0 0 -0.218,-0.1 1.2,1.2 0 0 0 -0.555,0 0.659,0.659 0 0 0 -0.217,0.1 0.725,0.725 0 0 0 -0.159,0.156 0.778,0.778 0 0 0 -0.106,0.2 1.69,1.69 0 0 0 -0.065,0.239 2.067,2.067 0 0 0 -0.034,0.263 c 0,0.069 0,0.14 0,0.211 0,0.071 0,0.143 0,0.215 a 2.068,2.068 0 0 0 0.034,0.263 1.687,1.687 0 0 0 0.065,0.239 0.78,0.78 0 0 0 0.106,0.2 0.717,0.717 0 0 0 0.159,0.156 0.664,0.664 0 0 0 0.217,0.1 1.093,1.093 0 0 0 0.282,0.045 z" transform="translate(-1926.076,-370.998)" id="path740"></path><path class="e" d="m 1806.6,420.558 a 4.472,4.472 0 0 1 -0.834,-0.073 3.06,3.06 0 0 1 -0.7,-0.22 2.379,2.379 0 0 1 -0.568,-0.362 2.2,2.2 0 0 1 -0.426,-0.5 2.419,2.419 0 0 1 -0.276,-0.637 3.453,3.453 0 0 1 -0.117,-0.774 q 0,-0.194 -0.01,-0.4 -0.01,-0.206 0,-0.431 0,-0.223 0,-0.436 0,-0.213 0.01,-0.417 a 3.325,3.325 0 0 1 0.118,-0.761 2.44,2.44 0 0 1 0.279,-0.636 2.239,2.239 0 0 1 0.431,-0.5 2.416,2.416 0 0 1 0.573,-0.367 3.072,3.072 0 0 1 0.7,-0.224 4.282,4.282 0 0 1 0.821,-0.075 4.482,4.482 0 0 1 0.6,0.039 3.719,3.719 0 0 1 0.554,0.117 3.17,3.17 0 0 1 0.5,0.192 2.672,2.672 0 0 1 0.431,0.263 2.231,2.231 0 0 1 0.354,0.329 2.09,2.09 0 0 1 0.266,0.391 1.934,1.934 0 0 1 0.169,0.449 2.283,2.283 0 0 1 0.063,0.5 0.175,0.175 0 0 1 -0.01,0.078 0.161,0.161 0 0 1 -0.044,0.064 0.211,0.211 0 0 1 -0.067,0.043 0.219,0.219 0 0 1 -0.079,0.014 h -1.278 a 0.421,0.421 0 0 1 -0.109,-0.013 0.224,0.224 0 0 1 -0.08,-0.039 0.258,0.258 0 0 1 -0.062,-0.075 0.654,0.654 0 0 1 -0.052,-0.12 1.522,1.522 0 0 0 -0.174,-0.423 0.8,0.8 0 0 0 -0.257,-0.264 1.17,1.17 0 0 0 -0.333,-0.138 1.644,1.644 0 0 0 -0.4,-0.046 1.4,1.4 0 0 0 -0.466,0.072 0.98,0.98 0 0 0 -0.357,0.217 0.943,0.943 0 0 0 -0.234,0.385 2.048,2.048 0 0 0 -0.1,0.576 q -0.014,0.388 -0.014,0.786 0,0.398 0.014,0.8 a 2.048,2.048 0 0 0 0.1,0.576 0.945,0.945 0 0 0 0.234,0.385 0.98,0.98 0 0 0 0.357,0.217 1.408,1.408 0 0 0 0.466,0.072 1.622,1.622 0 0 0 0.4,-0.047 1.192,1.192 0 0 0 0.336,-0.142 0.813,0.813 0 0 0 0.258,-0.265 1.444,1.444 0 0 0 0.168,-0.417 0.529,0.529 0 0 1 0.046,-0.12 0.23,0.23 0 0 1 0.063,-0.075 0.252,0.252 0 0 1 0.084,-0.039 0.424,0.424 0 0 1 0.11,-0.013 h 1.278 a 0.219,0.219 0 0 1 0.079,0.014 0.215,0.215 0 0 1 0.067,0.043 0.163,0.163 0 0 1 0.044,0.064 0.174,0.174 0 0 1 0.01,0.078 2.285,2.285 0 0 1 -0.063,0.5 1.932,1.932 0 0 1 -0.169,0.448 2.083,2.083 0 0 1 -0.266,0.391 2.227,2.227 0 0 1 -0.354,0.329 2.656,2.656 0 0 1 -0.431,0.263 3.146,3.146 0 0 1 -0.5,0.192 3.726,3.726 0 0 1 -0.554,0.117 4.487,4.487 0 0 1 -0.599,0.045 z" transform="translate(-1792.461,-402.14)" id="path742"></path><path class="e" d="m 1832.461,420.463 a 0.263,0.263 0 0 1 -0.095,-0.017 0.223,0.223 0 0 1 -0.125,-0.125 0.26,0.26 0 0 1 -0.016,-0.095 v -6.25 a 0.26,0.26 0 0 1 0.016,-0.095 0.223,0.223 0 0 1 0.125,-0.125 0.258,0.258 0 0 1 0.095,-0.017 h 1.212 a 0.257,0.257 0 0 1 0.094,0.017 0.225,0.225 0 0 1 0.126,0.125 0.263,0.263 0 0 1 0.016,0.095 v 2.112 a 1.814,1.814 0 0 1 0.285,-0.264 1.983,1.983 0 0 1 0.344,-0.2 1.771,1.771 0 0 1 0.4,-0.131 2.32,2.32 0 0 1 0.463,-0.044 2.117,2.117 0 0 1 0.52,0.062 1.822,1.822 0 0 1 0.461,0.184 1.635,1.635 0 0 1 0.384,0.3 1.842,1.842 0 0 1 0.292,0.42 2.087,2.087 0 0 1 0.185,0.531 3.1,3.1 0 0 1 0.062,0.638 v 2.642 a 0.258,0.258 0 0 1 -0.016,0.095 0.22,0.22 0 0 1 -0.05,0.076 0.218,0.218 0 0 1 -0.076,0.05 0.262,0.262 0 0 1 -0.095,0.017 h -1.222 a 0.24,0.24 0 0 1 -0.089,-0.017 0.246,0.246 0 0 1 -0.077,-0.05 0.217,0.217 0 0 1 -0.053,-0.076 0.243,0.243 0 0 1 -0.018,-0.095 v -2.585 a 1.329,1.329 0 0 0 -0.053,-0.394 0.792,0.792 0 0 0 -0.159,-0.292 0.666,0.666 0 0 0 -0.264,-0.181 1.017,1.017 0 0 0 -0.366,-0.06 0.967,0.967 0 0 0 -0.35,0.06 0.766,0.766 0 0 0 -0.452,0.473 1.2,1.2 0 0 0 -0.059,0.394 v 2.585 a 0.263,0.263 0 0 1 -0.016,0.095 0.225,0.225 0 0 1 -0.126,0.125 0.262,0.262 0 0 1 -0.094,0.017 h -1.212 z" transform="translate(-1814.26,-402.14)" id="path744"></path><path class="e" d="m 1858.693,426.053 a 2.337,2.337 0 0 1 -0.484,-0.049 1.889,1.889 0 0 1 -0.429,-0.146 1.781,1.781 0 0 1 -0.361,-0.228 1.544,1.544 0 0 1 -0.278,-0.3 1.263,1.263 0 0 1 -0.177,-0.353 1.274,1.274 0 0 1 0.49,-1.461 2.677,2.677 0 0 1 0.639,-0.33 4.3,4.3 0 0 1 0.819,-0.2 l 0.592,-0.09 0.592,-0.09 v -0.133 a 1.141,1.141 0 0 0 -0.036,-0.3 0.6,0.6 0 0 0 -0.107,-0.22 0.422,0.422 0 0 0 -0.2,-0.135 0.984,0.984 0 0 0 -0.32,-0.045 1.015,1.015 0 0 0 -0.24,0.026 0.633,0.633 0 0 0 -0.19,0.078 0.72,0.72 0 0 0 -0.148,0.123 0.771,0.771 0 0 0 -0.112,0.161 0.281,0.281 0 0 1 -0.1,0.093 0.29,0.29 0 0 1 -0.135,0.031 h -1.06 a 0.258,0.258 0 0 1 -0.092,-0.015 0.175,0.175 0 0 1 -0.069,-0.046 0.181,0.181 0 0 1 -0.04,-0.067 0.185,0.185 0 0 1 -0.01,-0.079 0.593,0.593 0 0 1 0.032,-0.183 1.121,1.121 0 0 1 0.1,-0.21 1.32,1.32 0 0 1 0.162,-0.221 2.061,2.061 0 0 1 0.231,-0.219 1.779,1.779 0 0 1 0.3,-0.2 2.6,2.6 0 0 1 0.379,-0.161 2.523,2.523 0 0 1 0.459,-0.107 3.9,3.9 0 0 1 0.545,-0.036 4.27,4.27 0 0 1 0.571,0.036 2.735,2.735 0 0 1 0.48,0.107 2.154,2.154 0 0 1 0.394,0.17 1.571,1.571 0 0 1 0.311,0.227 1.619,1.619 0 0 1 0.4,0.6 1.931,1.931 0 0 1 0.1,0.363 2.312,2.312 0 0 1 0.033,0.4 v 2.879 a 0.239,0.239 0 0 1 -0.018,0.095 0.216,0.216 0 0 1 -0.053,0.076 0.251,0.251 0 0 1 -0.077,0.05 0.237,0.237 0 0 1 -0.089,0.017 h -1.1 a 0.261,0.261 0 0 1 -0.095,-0.017 0.223,0.223 0 0 1 -0.125,-0.125 0.263,0.263 0 0 1 -0.017,-0.095 v -0.331 a 1.217,1.217 0 0 1 -0.144,0.173 1.567,1.567 0 0 1 -0.413,0.295 1.9,1.9 0 0 1 -0.262,0.105 1.771,1.771 0 0 1 -0.3,0.067 2.5,2.5 0 0 1 -0.351,0.02 z m 0.445,-1.08 a 1.13,1.13 0 0 0 0.261,-0.029 0.987,0.987 0 0 0 0.235,-0.089 0.768,0.768 0 0 0 0.2,-0.151 0.914,0.914 0 0 0 0.152,-0.218 1.1,1.1 0 0 0 0.1,-0.283 1.743,1.743 0 0 0 0.032,-0.347 v -0.133 l -0.4,0.071 -0.4,0.071 a 2.3,2.3 0 0 0 -0.385,0.1 0.964,0.964 0 0 0 -0.264,0.136 0.565,0.565 0 0 0 -0.153,0.169 0.4,0.4 0 0 0 -0.051,0.2 0.451,0.451 0 0 0 0.024,0.149 0.4,0.4 0 0 0 0.071,0.125 0.577,0.577 0 0 0 0.109,0.1 0.683,0.683 0 0 0 0.137,0.075 0.8,0.8 0 0 0 0.161,0.046 1.02,1.02 0 0 0 0.171,0.008 z" transform="translate(-1833.097,-407.635)" id="path746"></path><path class="e" d="m 1882.06,425.958 a 0.262,0.262 0 0 1 -0.095,-0.017 0.218,0.218 0 0 1 -0.076,-0.05 0.212,0.212 0 0 1 -0.05,-0.076 0.26,0.26 0 0 1 -0.016,-0.095 v -4.451 a 0.26,0.26 0 0 1 0.016,-0.095 0.213,0.213 0 0 1 0.05,-0.076 0.218,0.218 0 0 1 0.076,-0.05 0.259,0.259 0 0 1 0.095,-0.017 h 1.089 a 0.26,0.26 0 0 1 0.095,0.017 0.221,0.221 0 0 1 0.076,0.05 0.218,0.218 0 0 1 0.05,0.076 0.26,0.26 0 0 1 0.017,0.095 v 0.36 a 1.777,1.777 0 0 1 0.284,-0.27 2.237,2.237 0 0 1 0.36,-0.223 1.8,1.8 0 0 1 0.433,-0.149 2.429,2.429 0 0 1 0.5,-0.05 2.092,2.092 0 0 1 0.517,0.062 1.75,1.75 0 0 1 0.453,0.184 1.611,1.611 0 0 1 0.376,0.3 1.851,1.851 0 0 1 0.286,0.42 2.138,2.138 0 0 1 0.181,0.531 3.154,3.154 0 0 1 0.06,0.638 v 2.642 a 0.243,0.243 0 0 1 -0.017,0.095 0.216,0.216 0 0 1 -0.053,0.076 0.248,0.248 0 0 1 -0.077,0.05 0.239,0.239 0 0 1 -0.089,0.017 h -1.193 a 0.237,0.237 0 0 1 -0.089,-0.017 0.253,0.253 0 0 1 -0.077,-0.05 0.217,0.217 0 0 1 -0.053,-0.076 0.241,0.241 0 0 1 -0.018,-0.095 v -2.585 a 1.338,1.338 0 0 0 -0.053,-0.394 0.787,0.787 0 0 0 -0.16,-0.292 0.663,0.663 0 0 0 -0.264,-0.181 1.021,1.021 0 0 0 -0.366,-0.06 0.954,0.954 0 0 0 -0.349,0.06 0.748,0.748 0 0 0 -0.271,0.181 0.769,0.769 0 0 0 -0.174,0.292 1.231,1.231 0 0 0 -0.058,0.394 v 2.585 a 0.243,0.243 0 0 1 -0.018,0.095 0.213,0.213 0 0 1 -0.053,0.076 0.25,0.25 0 0 1 -0.077,0.05 0.24,0.24 0 0 1 -0.089,0.017 h -1.184 z" transform="translate(-1852.117,-407.635)" id="path748"></path><path class="e" d="m 1909.321,428.041 a 4.326,4.326 0 0 1 -0.666,-0.047 2.549,2.549 0 0 1 -0.541,-0.142 2.952,2.952 0 0 1 -0.429,-0.209 1.886,1.886 0 0 1 -0.329,-0.246 2.278,2.278 0 0 1 -0.24,-0.264 1.472,1.472 0 0 1 -0.162,-0.261 1.969,1.969 0 0 1 -0.094,-0.233 0.751,0.751 0 0 1 -0.038,-0.179 0.208,0.208 0 0 1 0.012,-0.095 0.192,0.192 0 0 1 0.055,-0.076 0.257,0.257 0 0 1 0.083,-0.05 0.277,0.277 0 0 1 0.1,-0.017 h 1.2 a 0.284,0.284 0 0 1 0.079,0.011 0.239,0.239 0 0 1 0.068,0.032 0.22,0.22 0 0 1 0.055,0.058 0.407,0.407 0 0 1 0.044,0.089 1.143,1.143 0 0 0 0.055,0.106 c 0.021,0.036 0.045,0.074 0.072,0.111 a 0.509,0.509 0 0 0 0.1,0.1 0.653,0.653 0 0 0 0.13,0.082 0.66,0.66 0 0 0 0.174,0.053 1.326,1.326 0 0 0 0.229,0.018 1.387,1.387 0 0 0 0.26,-0.023 0.887,0.887 0 0 0 0.213,-0.067 0.565,0.565 0 0 0 0.166,-0.119 0.633,0.633 0 0 0 0.118,-0.175 0.942,0.942 0 0 0 0.071,-0.238 1.772,1.772 0 0 0 0.024,-0.306 v -0.635 a 1.444,1.444 0 0 1 -0.249,0.215 1.816,1.816 0 0 1 -0.31,0.169 1.726,1.726 0 0 1 -0.376,0.11 2.567,2.567 0 0 1 -0.448,0.037 2.774,2.774 0 0 1 -0.455,-0.035 2.038,2.038 0 0 1 -0.4,-0.107 1.606,1.606 0 0 1 -0.338,-0.178 1.472,1.472 0 0 1 -0.277,-0.249 1.847,1.847 0 0 1 -0.219,-0.315 2.287,2.287 0 0 1 -0.165,-0.376 3.036,3.036 0 0 1 -0.11,-0.438 4.188,4.188 0 0 1 -0.056,-0.5 c 0,-0.082 0,-0.164 0,-0.246 0,-0.082 0,-0.164 0,-0.246 a 4.171,4.171 0 0 1 0.055,-0.485 3.19,3.19 0 0 1 0.107,-0.433 2.22,2.22 0 0 1 0.162,-0.379 1.885,1.885 0 0 1 0.221,-0.322 1.6,1.6 0 0 1 0.281,-0.259 1.712,1.712 0 0 1 0.339,-0.191 1.9,1.9 0 0 1 0.4,-0.117 2.525,2.525 0 0 1 0.455,-0.039 2.188,2.188 0 0 1 0.474,0.049 1.573,1.573 0 0 1 0.4,0.146 2.074,2.074 0 0 1 0.333,0.219 1.8,1.8 0 0 1 0.269,0.269 v -0.35 a 0.236,0.236 0 0 1 0.016,-0.089 0.247,0.247 0 0 1 0.05,-0.077 0.216,0.216 0 0 1 0.076,-0.053 0.246,0.246 0 0 1 0.095,-0.018 h 1.089 a 0.252,0.252 0 0 1 0.1,0.018 0.238,0.238 0 0 1 0.08,0.053 0.246,0.246 0 0 1 0.053,0.077 0.226,0.226 0 0 1 0.018,0.089 v 4.555 a 2.814,2.814 0 0 1 -0.074,0.663 1.978,1.978 0 0 1 -0.22,0.549 1.818,1.818 0 0 1 -0.357,0.433 2,2 0 0 1 -0.485,0.315 2.594,2.594 0 0 1 -0.608,0.192 3.894,3.894 0 0 1 -0.735,0.066 z m -0.066,-3.418 a 1.057,1.057 0 0 0 0.274,-0.033 0.69,0.69 0 0 0 0.218,-0.1 0.792,0.792 0 0 0 0.279,-0.341 1.232,1.232 0 0 0 0.07,-0.215 1.32,1.32 0 0 0 0.03,-0.23 c 0,-0.035 0.01,-0.076 0.01,-0.125 0,-0.049 0,-0.1 0,-0.168 0,-0.068 0,-0.118 0,-0.166 0,-0.048 0,-0.087 -0.01,-0.118 a 1.383,1.383 0 0 0 -0.03,-0.237 1.214,1.214 0 0 0 -0.07,-0.218 0.764,0.764 0 0 0 -0.279,-0.336 0.7,0.7 0 0 0 -0.218,-0.1 1.2,1.2 0 0 0 -0.555,0 0.659,0.659 0 0 0 -0.217,0.1 0.72,0.72 0 0 0 -0.159,0.156 0.778,0.778 0 0 0 -0.106,0.2 1.709,1.709 0 0 0 -0.065,0.239 2.089,2.089 0 0 0 -0.034,0.263 c 0,0.069 0,0.14 0,0.211 0,0.071 0,0.143 0,0.215 a 2.089,2.089 0 0 0 0.034,0.263 1.706,1.706 0 0 0 0.065,0.239 0.779,0.779 0 0 0 0.106,0.2 0.713,0.713 0 0 0 0.159,0.156 0.662,0.662 0 0 0 0.217,0.1 1.094,1.094 0 0 0 0.281,0.045 z" transform="translate(-1871.122,-407.635)" id="path750"></path><path class="e" d="m 1934.493,426.053 a 3.107,3.107 0 0 1 -1,-0.151 2.173,2.173 0 0 1 -0.776,-0.455 1.948,1.948 0 0 1 -0.5,-0.753 3.123,3.123 0 0 1 -0.187,-1.046 v -0.332 a 3.223,3.223 0 0 1 0.1,-0.695 2.386,2.386 0 0 1 0.238,-0.588 2.037,2.037 0 0 1 0.852,-0.814 2.432,2.432 0 0 1 0.591,-0.209 3.177,3.177 0 0 1 0.683,-0.07 3.249,3.249 0 0 1 0.761,0.083 2.114,2.114 0 0 1 1.436,1.148 2.665,2.665 0 0 1 0.206,0.608 3.328,3.328 0 0 1 0.069,0.689 v 0.227 a 0.243,0.243 0 0 1 -0.018,0.095 0.217,0.217 0 0 1 -0.053,0.076 0.249,0.249 0 0 1 -0.077,0.05 0.24,0.24 0 0 1 -0.089,0.017 h -3.03 V 424 a 1.713,1.713 0 0 0 0.028,0.263 1.417,1.417 0 0 0 0.066,0.239 0.832,0.832 0 0 0 0.109,0.2 0.744,0.744 0 0 0 0.156,0.156 0.648,0.648 0 0 0 0.2,0.1 0.814,0.814 0 0 0 0.237,0.033 0.922,0.922 0 0 0 0.174,-0.015 0.581,0.581 0 0 0 0.143,-0.046 0.966,0.966 0 0 0 0.117,-0.066 0.735,0.735 0 0 0 0.1,-0.076 c 0.028,-0.027 0.054,-0.052 0.076,-0.075 0.022,-0.023 0.041,-0.044 0.057,-0.063 a 0.875,0.875 0 0 1 0.077,-0.077 0.271,0.271 0 0 1 0.06,-0.041 0.239,0.239 0 0 1 0.067,-0.018 0.7,0.7 0 0 1 0.1,-0.006 h 1.174 a 0.271,0.271 0 0 1 0.086,0.013 0.209,0.209 0 0 1 0.07,0.039 0.146,0.146 0 0 1 0.044,0.063 0.2,0.2 0 0 1 0.01,0.084 0.552,0.552 0 0 1 -0.045,0.177 1.273,1.273 0 0 1 -0.116,0.211 1.567,1.567 0 0 1 -0.186,0.226 2.473,2.473 0 0 1 -0.254,0.224 2.031,2.031 0 0 1 -0.326,0.2 2.857,2.857 0 0 1 -0.4,0.162 2.739,2.739 0 0 1 -0.471,0.107 3.907,3.907 0 0 1 -0.557,0.039 z m -0.8,-3.059 h 1.6 v -0.019 a 1.683,1.683 0 0 0 -0.023,-0.284 1.211,1.211 0 0 0 -0.068,-0.246 0.8,0.8 0 0 0 -0.114,-0.2 0.687,0.687 0 0 0 -0.161,-0.149 0.711,0.711 0 0 0 -0.2,-0.092 0.877,0.877 0 0 0 -0.238,-0.031 0.853,0.853 0 0 0 -0.235,0.031 0.648,0.648 0 0 0 -0.2,0.092 0.705,0.705 0 0 0 -0.155,0.149 0.874,0.874 0 0 0 -0.115,0.2 1.182,1.182 0 0 0 -0.071,0.246 1.607,1.607 0 0 0 -0.024,0.284 v 0.019 z" transform="translate(-1890.432,-407.635)" id="path752"></path></g><g transform="translate(171.98,11.127)" id="g760"><path class="c" d="m 2477.159,220.257 h -51.417 a 4.281,4.281 0 0 1 -4.281,-4.281 v -8.694 a 4.281,4.281 0 0 1 4.281,-4.281 h 51.417 a 4.282,4.282 0 0 1 4.281,4.281 v 8.694 a 4.282,4.282 0 0 1 -4.281,4.281 z" transform="translate(-2420.986,-202.527)" id="path756"></path><path class="b" d="m 2475.632,219.2 h -51.417 a 4.76,4.76 0 0 1 -4.755,-4.755 v -8.695 a 4.76,4.76 0 0 1 4.755,-4.755 h 51.417 a 4.76,4.76 0 0 1 4.755,4.755 v 8.695 a 4.761,4.761 0 0 1 -4.755,4.755 z m -51.417,-17.257 a 3.812,3.812 0 0 0 -3.808,3.808 v 8.695 a 3.813,3.813 0 0 0 3.808,3.808 h 51.417 a 3.812,3.812 0 0 0 3.808,-3.808 v -8.695 a 3.812,3.812 0 0 0 -3.808,-3.808 z" transform="translate(-2419.46,-201)" id="path758"></path></g><g transform="translate(173.808,11.127)" id="g766"><path class="d" d="m 2484.878,220.257 h -51.417 a 4.281,4.281 0 0 1 -4.281,-4.281 v -8.694 a 4.281,4.281 0 0 1 4.281,-4.281 h 51.417 a 4.281,4.281 0 0 1 4.282,4.281 v 8.694 a 4.281,4.281 0 0 1 -4.282,4.281 z" transform="translate(-2428.707,-202.527)" id="path762"></path><path class="d" d="m 2483.352,219.2 h -51.417 a 4.761,4.761 0 0 1 -4.755,-4.755 v -8.695 a 4.76,4.76 0 0 1 4.755,-4.755 h 51.417 a 4.76,4.76 0 0 1 4.755,4.755 v 8.695 a 4.76,4.76 0 0 1 -4.755,4.755 z m -51.417,-17.257 a 3.812,3.812 0 0 0 -3.808,3.808 v 8.695 a 3.812,3.812 0 0 0 3.808,3.808 h 51.417 a 3.813,3.813 0 0 0 3.808,-3.808 v -8.695 a 3.812,3.812 0 0 0 -3.808,-3.808 z" transform="translate(-2427.18,-201)" id="path764"></path></g><g transform="translate(191.256,16.747)" id="g778"><path class="e" d="m 2501.12,232.769 a 0.263,0.263 0 0 1 -0.095,-0.017 0.217,0.217 0 0 1 -0.076,-0.05 0.222,0.222 0 0 1 -0.05,-0.076 0.266,0.266 0 0 1 -0.016,-0.095 v -6.155 a 0.266,0.266 0 0 1 0.016,-0.095 0.226,0.226 0 0 1 0.05,-0.076 0.213,0.213 0 0 1 0.076,-0.049 0.257,0.257 0 0 1 0.095,-0.017 h 2.888 a 4.434,4.434 0 0 1 0.741,0.057 2.557,2.557 0 0 1 0.594,0.17 1.851,1.851 0 0 1 0.453,0.276 1.465,1.465 0 0 1 0.318,0.373 1.718,1.718 0 0 1 0.188,0.46 2.2,2.2 0 0 1 0.063,0.539 1.529,1.529 0 0 1 -0.032,0.321 1.206,1.206 0 0 1 -0.1,0.281 1.587,1.587 0 0 1 -0.142,0.238 1.329,1.329 0 0 1 -0.17,0.193 1.888,1.888 0 0 1 -0.179,0.147 1.1,1.1 0 0 1 -0.167,0.1 1.481,1.481 0 0 1 0.34,0.225 1.958,1.958 0 0 1 0.3,0.334 1.447,1.447 0 0 1 0.209,0.421 1.658,1.658 0 0 1 0.07,0.488 2.313,2.313 0 0 1 -0.07,0.581 1.779,1.779 0 0 1 -0.209,0.494 1.691,1.691 0 0 1 -0.343,0.4 2,2 0 0 1 -0.471,0.294 2.579,2.579 0 0 1 -0.6,0.181 3.967,3.967 0 0 1 -0.716,0.06 h -2.973 z m 1.458,-4 h 1.24 a 1.048,1.048 0 0 0 0.34,-0.05 0.6,0.6 0 0 0 0.243,-0.149 0.654,0.654 0 0 0 0.146,-0.227 0.792,0.792 0 0 0 0.049,-0.284 0.75,0.75 0 0 0 -0.049,-0.276 0.64,0.64 0 0 0 -0.146,-0.221 0.605,0.605 0 0 0 -0.243,-0.146 1.07,1.07 0 0 0 -0.34,-0.049 h -1.24 v 1.4 z m 0,2.765 h 1.326 a 1,1 0 0 0 0.357,-0.059 0.647,0.647 0 0 0 0.258,-0.178 0.851,0.851 0 0 0 0.156,-0.253 0.79,0.79 0 0 0 0.052,-0.286 0.847,0.847 0 0 0 -0.053,-0.305 0.768,0.768 0 0 0 -0.16,-0.253 0.672,0.672 0 0 0 -0.259,-0.17 1,1 0 0 0 -0.352,-0.057 h -1.326 v 1.562 z" transform="translate(-2500.883,-225.809)" id="path768"></path><path class="e" d="m 2530.259,238.359 a 2.051,2.051 0 0 1 -0.51,-0.062 1.748,1.748 0 0 1 -0.451,-0.185 1.583,1.583 0 0 1 -0.376,-0.3 1.821,1.821 0 0 1 -0.283,-0.42 2.173,2.173 0 0 1 -0.178,-0.531 3.25,3.25 0 0 1 -0.059,-0.638 v -2.642 a 0.265,0.265 0 0 1 0.017,-0.095 0.224,0.224 0 0 1 0.125,-0.125 0.259,0.259 0 0 1 0.095,-0.017 h 1.184 a 0.257,0.257 0 0 1 0.095,0.017 0.222,0.222 0 0 1 0.076,0.05 0.217,0.217 0 0 1 0.05,0.076 0.26,0.26 0 0 1 0.017,0.095 v 2.585 a 1.014,1.014 0 0 0 0.208,0.7 0.8,0.8 0 0 0 0.625,0.232 0.955,0.955 0 0 0 0.349,-0.06 0.748,0.748 0 0 0 0.271,-0.181 0.774,0.774 0 0 0 0.174,-0.292 1.234,1.234 0 0 0 0.058,-0.394 v -2.585 a 0.26,0.26 0 0 1 0.017,-0.095 0.224,0.224 0 0 1 0.125,-0.125 0.257,0.257 0 0 1 0.095,-0.017 h 1.184 a 0.257,0.257 0 0 1 0.095,0.017 0.221,0.221 0 0 1 0.076,0.05 0.214,0.214 0 0 1 0.05,0.076 0.25,0.25 0 0 1 0.017,0.095 v 4.451 a 0.25,0.25 0 0 1 -0.017,0.095 0.214,0.214 0 0 1 -0.05,0.076 0.222,0.222 0 0 1 -0.076,0.05 0.263,0.263 0 0 1 -0.095,0.017 h -1.1 a 0.241,0.241 0 0 1 -0.089,-0.017 0.247,0.247 0 0 1 -0.077,-0.05 0.21,0.21 0 0 1 -0.053,-0.076 0.241,0.241 0 0 1 -0.018,-0.095 v -0.36 a 1.552,1.552 0 0 1 -0.283,0.3 1.607,1.607 0 0 1 -0.356,0.217 1.947,1.947 0 0 1 -0.43,0.131 2.735,2.735 0 0 1 -0.502,0.032 z" transform="translate(-2521.888,-231.304)" id="path770"></path><path class="e" d="m 2554.44,226.066 a 0.261,0.261 0 0 1 -0.095,-0.017 0.222,0.222 0 0 1 -0.076,-0.05 0.214,0.214 0 0 1 -0.049,-0.076 0.255,0.255 0 0 1 -0.017,-0.095 v -0.843 a 0.264,0.264 0 0 1 0.017,-0.1 0.234,0.234 0 0 1 0.049,-0.079 0.219,0.219 0 0 1 0.076,-0.053 0.247,0.247 0 0 1 0.095,-0.018 h 1.127 a 0.255,0.255 0 0 1 0.1,0.018 0.24,0.24 0 0 1 0.079,0.053 0.242,0.242 0 0 1 0.053,0.079 0.255,0.255 0 0 1 0.018,0.1 v 0.843 a 0.246,0.246 0 0 1 -0.018,0.095 0.221,0.221 0 0 1 -0.053,0.076 0.244,0.244 0 0 1 -0.079,0.05 0.27,0.27 0 0 1 -0.1,0.017 z m 0.01,5.634 a 0.26,0.26 0 0 1 -0.094,-0.017 0.221,0.221 0 0 1 -0.126,-0.125 0.26,0.26 0 0 1 -0.017,-0.095 v -4.451 a 0.26,0.26 0 0 1 0.017,-0.095 0.221,0.221 0 0 1 0.126,-0.125 0.255,0.255 0 0 1 0.094,-0.017 h 1.118 a 0.237,0.237 0 0 1 0.089,0.017 0.25,0.25 0 0 1 0.077,0.05 0.218,0.218 0 0 1 0.053,0.076 0.246,0.246 0 0 1 0.018,0.095 v 4.451 a 0.246,0.246 0 0 1 -0.018,0.095 0.218,0.218 0 0 1 -0.053,0.076 0.25,0.25 0 0 1 -0.077,0.05 0.242,0.242 0 0 1 -0.089,0.017 h -1.118 z" transform="translate(-2541.58,-224.74)" id="path772"></path><path class="e" d="m 2565.88,232.463 a 0.262,0.262 0 0 1 -0.095,-0.017 0.217,0.217 0 0 1 -0.076,-0.05 0.226,0.226 0 0 1 -0.05,-0.076 0.266,0.266 0 0 1 -0.016,-0.095 v -6.25 a 0.266,0.266 0 0 1 0.016,-0.095 0.226,0.226 0 0 1 0.05,-0.076 0.217,0.217 0 0 1 0.076,-0.05 0.257,0.257 0 0 1 0.095,-0.017 h 1.12 a 0.258,0.258 0 0 1 0.095,0.017 0.219,0.219 0 0 1 0.076,0.05 0.222,0.222 0 0 1 0.05,0.076 0.265,0.265 0 0 1 0.017,0.095 v 6.25 a 0.266,0.266 0 0 1 -0.017,0.095 0.224,0.224 0 0 1 -0.125,0.125 0.263,0.263 0 0 1 -0.095,0.017 h -1.117 z" transform="translate(-2550.312,-225.503)" id="path774"></path><path class="e" d="m 2578.338,232.558 a 2.45,2.45 0 0 1 -0.432,-0.037 1.952,1.952 0 0 1 -0.387,-0.11 1.692,1.692 0 0 1 -0.339,-0.182 1.673,1.673 0 0 1 -0.286,-0.253 1.872,1.872 0 0 1 -0.231,-0.32 2.228,2.228 0 0 1 -0.171,-0.381 2.8,2.8 0 0 1 -0.111,-0.441 3.74,3.74 0 0 1 -0.05,-0.5 q 0,-0.095 -0.01,-0.179 c 0,-0.056 0,-0.108 0,-0.157 0,-0.049 0,-0.1 0,-0.155 0,-0.055 0,-0.112 0.01,-0.172 a 3.538,3.538 0 0 1 0.05,-0.485 2.767,2.767 0 0 1 0.111,-0.433 2.27,2.27 0 0 1 0.171,-0.379 1.946,1.946 0 0 1 0.227,-0.322 1.65,1.65 0 0 1 0.284,-0.259 1.746,1.746 0 0 1 0.341,-0.191 1.92,1.92 0 0 1 0.391,-0.117 2.448,2.448 0 0 1 0.874,0 1.625,1.625 0 0 1 0.374,0.117 1.993,1.993 0 0 1 0.315,0.179 1.75,1.75 0 0 1 0.263,0.224 v -2.026 a 0.255,0.255 0 0 1 0.017,-0.095 0.211,0.211 0 0 1 0.05,-0.076 0.221,0.221 0 0 1 0.075,-0.05 0.259,0.259 0 0 1 0.1,-0.017 h 1.155 a 0.236,0.236 0 0 1 0.089,0.017 0.247,0.247 0 0 1 0.077,0.05 0.215,0.215 0 0 1 0.053,0.076 0.241,0.241 0 0 1 0.018,0.095 v 6.25 a 0.241,0.241 0 0 1 -0.018,0.095 0.215,0.215 0 0 1 -0.053,0.076 0.248,0.248 0 0 1 -0.077,0.05 0.241,0.241 0 0 1 -0.089,0.017 h -1.07 a 0.263,0.263 0 0 1 -0.095,-0.017 0.223,0.223 0 0 1 -0.076,-0.05 0.214,0.214 0 0 1 -0.05,-0.076 0.26,0.26 0 0 1 -0.017,-0.095 v -0.3 a 1.628,1.628 0 0 1 -0.26,0.251 1.993,1.993 0 0 1 -0.327,0.2 1.62,1.62 0 0 1 -0.4,0.135 2.473,2.473 0 0 1 -0.496,0.043 z m 0.511,-1.269 a 1.111,1.111 0 0 0 0.288,-0.034 0.651,0.651 0 0 0 0.219,-0.1 0.838,0.838 0 0 0 0.161,-0.157 0.846,0.846 0 0 0 0.114,-0.2 1.31,1.31 0 0 0 0.07,-0.227 1.485,1.485 0 0 0 0.03,-0.246 q 0,-0.095 0.01,-0.185 c 0,-0.06 0,-0.118 0,-0.175 0,-0.057 0,-0.115 0,-0.173 0,-0.058 0,-0.118 -0.01,-0.178 a 1.2,1.2 0 0 0 -0.031,-0.228 1.075,1.075 0 0 0 -0.073,-0.212 0.8,0.8 0 0 0 -0.118,-0.185 0.816,0.816 0 0 0 -0.166,-0.147 0.707,0.707 0 0 0 -0.218,-0.1 1.2,1.2 0 0 0 -0.555,0 0.662,0.662 0 0 0 -0.217,0.1 0.7,0.7 0 0 0 -0.157,0.156 0.729,0.729 0 0 0 -0.1,0.2 1.774,1.774 0 0 0 -0.062,0.239 2.237,2.237 0 0 0 -0.033,0.263 q -0.014,0.147 -0.014,0.294 0,0.147 0.014,0.293 a 2.248,2.248 0 0 0 0.033,0.263 1.784,1.784 0 0 0 0.062,0.239 0.732,0.732 0 0 0 0.1,0.2 0.7,0.7 0 0 0 0.157,0.156 0.672,0.672 0 0 0 0.217,0.1 1.093,1.093 0 0 0 0.28,0.044 z" transform="translate(-2558.462,-225.503)" id="path776"></path></g><g transform="translate(197.785,115.291)" id="g784"><path class="c" d="m 2586.159,660.257 h -51.417 a 4.281,4.281 0 0 1 -4.281,-4.281 v -8.694 a 4.281,4.281 0 0 1 4.281,-4.281 h 51.417 a 4.282,4.282 0 0 1 4.281,4.281 v 8.694 a 4.282,4.282 0 0 1 -4.281,4.281 z" transform="translate(-2529.986,-642.527)" id="path780"></path><path class="b" d="m 2584.632,659.2 h -51.417 a 4.76,4.76 0 0 1 -4.755,-4.755 v -8.694 a 4.76,4.76 0 0 1 4.755,-4.755 h 51.417 a 4.76,4.76 0 0 1 4.755,4.755 v 8.694 a 4.76,4.76 0 0 1 -4.755,4.755 z m -51.417,-17.257 a 3.812,3.812 0 0 0 -3.808,3.808 v 8.694 a 3.812,3.812 0 0 0 3.808,3.808 h 51.417 a 3.812,3.812 0 0 0 3.808,-3.808 v -8.694 a 3.812,3.812 0 0 0 -3.808,-3.808 z" transform="translate(-2528.46,-641)" id="path782"></path></g><g transform="translate(199.612,115.291)" id="g790"><path class="d" d="m 2593.878,660.257 h -51.417 a 4.282,4.282 0 0 1 -4.281,-4.281 v -8.694 a 4.282,4.282 0 0 1 4.281,-4.281 h 51.417 a 4.281,4.281 0 0 1 4.281,4.281 v 8.694 a 4.281,4.281 0 0 1 -4.281,4.281 z" transform="translate(-2537.706,-642.527)" id="path786"></path><path class="d" d="m 2592.352,659.2 h -51.417 a 4.761,4.761 0 0 1 -4.755,-4.755 v -8.694 a 4.76,4.76 0 0 1 4.755,-4.755 h 51.417 a 4.76,4.76 0 0 1 4.755,4.755 v 8.694 a 4.76,4.76 0 0 1 -4.755,4.755 z m -51.417,-17.257 a 3.813,3.813 0 0 0 -3.808,3.808 v 8.694 a 3.813,3.813 0 0 0 3.808,3.808 h 51.417 a 3.813,3.813 0 0 0 3.808,-3.808 v -8.694 a 3.813,3.813 0 0 0 -3.808,-3.808 z" transform="translate(-2536.18,-641)" id="path788"></path></g><g transform="translate(218.458,121.148)" id="g800"><path class="e" d="m 2617.942,672.769 a 0.261,0.261 0 0 1 -0.094,-0.017 0.227,0.227 0 0 1 -0.126,-0.125 0.266,0.266 0 0 1 -0.016,-0.095 v -4.905 h -1.686 a 0.244,0.244 0 0 1 -0.094,-0.018 0.216,0.216 0 0 1 -0.076,-0.054 0.234,0.234 0 0 1 -0.066,-0.165 v -1.013 a 0.265,0.265 0 0 1 0.017,-0.095 0.215,0.215 0 0 1 0.05,-0.076 0.223,0.223 0 0 1 0.076,-0.05 0.258,0.258 0 0 1 0.094,-0.017 h 5.095 a 0.257,0.257 0 0 1 0.094,0.017 0.221,0.221 0 0 1 0.076,0.05 0.216,0.216 0 0 1 0.05,0.076 0.265,0.265 0 0 1 0.016,0.095 v 1.013 a 0.231,0.231 0 0 1 -0.066,0.165 0.214,0.214 0 0 1 -0.076,0.054 0.243,0.243 0 0 1 -0.094,0.018 h -1.686 v 4.905 a 0.261,0.261 0 0 1 -0.017,0.095 0.208,0.208 0 0 1 -0.05,0.076 0.219,0.219 0 0 1 -0.076,0.05 0.264,0.264 0 0 1 -0.095,0.017 h -1.25 z" transform="translate(-2615.783,-666.045)" id="path792"></path><path class="e" d="m 2640.615,678.053 a 3.105,3.105 0 0 1 -1,-0.151 2.174,2.174 0 0 1 -0.776,-0.455 1.945,1.945 0 0 1 -0.5,-0.753 3.125,3.125 0 0 1 -0.187,-1.046 v -0.332 a 3.259,3.259 0 0 1 0.1,-0.695 2.39,2.39 0 0 1 0.238,-0.588 2.1,2.1 0 0 1 0.367,-0.471 2.06,2.06 0 0 1 0.485,-0.343 2.438,2.438 0 0 1 0.591,-0.209 3.173,3.173 0 0 1 0.683,-0.07 3.249,3.249 0 0 1 0.761,0.083 2.114,2.114 0 0 1 1.436,1.148 2.65,2.65 0 0 1 0.206,0.608 3.31,3.31 0 0 1 0.069,0.689 v 0.228 a 0.246,0.246 0 0 1 -0.018,0.095 0.211,0.211 0 0 1 -0.053,0.076 0.252,0.252 0 0 1 -0.077,0.05 0.237,0.237 0 0 1 -0.089,0.016 h -3.03 V 676 a 1.734,1.734 0 0 0 0.029,0.263 1.38,1.38 0 0 0 0.066,0.239 0.83,0.83 0 0 0 0.109,0.2 0.726,0.726 0 0 0 0.156,0.156 0.659,0.659 0 0 0 0.2,0.1 0.817,0.817 0 0 0 0.237,0.033 0.924,0.924 0 0 0 0.174,-0.015 0.584,0.584 0 0 0 0.143,-0.046 1,1 0 0 0 0.117,-0.066 0.689,0.689 0 0 0 0.1,-0.076 l 0.076,-0.074 c 0.022,-0.023 0.041,-0.044 0.057,-0.063 a 0.784,0.784 0 0 1 0.077,-0.077 0.205,0.205 0 0 1 0.128,-0.059 0.724,0.724 0 0 1 0.1,-0.006 h 1.174 a 0.269,0.269 0 0 1 0.086,0.013 0.208,0.208 0 0 1 0.07,0.039 0.146,0.146 0 0 1 0.044,0.063 0.193,0.193 0 0 1 0.01,0.084 0.562,0.562 0 0 1 -0.045,0.178 1.238,1.238 0 0 1 -0.116,0.211 1.543,1.543 0 0 1 -0.186,0.226 2.456,2.456 0 0 1 -0.255,0.223 1.986,1.986 0 0 1 -0.325,0.2 2.837,2.837 0 0 1 -0.4,0.162 2.7,2.7 0 0 1 -0.471,0.107 3.909,3.909 0 0 1 -0.559,0.038 z m -0.805,-3.059 h 1.6 v -0.019 a 1.681,1.681 0 0 0 -0.022,-0.284 1.243,1.243 0 0 0 -0.067,-0.246 0.81,0.81 0 0 0 -0.114,-0.2 0.689,0.689 0 0 0 -0.161,-0.149 0.708,0.708 0 0 0 -0.2,-0.092 0.882,0.882 0 0 0 -0.238,-0.031 0.853,0.853 0 0 0 -0.235,0.031 0.645,0.645 0 0 0 -0.2,0.092 0.7,0.7 0 0 0 -0.155,0.149 0.9,0.9 0 0 0 -0.115,0.2 1.182,1.182 0 0 0 -0.071,0.246 1.581,1.581 0 0 0 -0.024,0.284 v 0.019 z" transform="translate(-2632.85,-671.235)" id="path794"></path><path class="e" d="m 2663.911,678.053 a 4.379,4.379 0 0 1 -0.57,-0.034 2.764,2.764 0 0 1 -0.477,-0.1 3.033,3.033 0 0 1 -0.391,-0.152 1.94,1.94 0 0 1 -0.31,-0.184 1.911,1.911 0 0 1 -0.235,-0.2 1.254,1.254 0 0 1 -0.269,-0.407 0.561,0.561 0 0 1 -0.04,-0.167 0.205,0.205 0 0 1 0.066,-0.175 0.281,0.281 0 0 1 0.078,-0.053 0.2,0.2 0 0 1 0.083,-0.018 h 1.08 0.026 a 0.1,0.1 0 0 1 0.021,0.007 l 0.023,0.014 0.033,0.024 q 0.062,0.033 0.123,0.075 c 0.041,0.027 0.082,0.058 0.123,0.091 a 1.246,1.246 0 0 0 0.132,0.094 1.552,1.552 0 0 0 0.152,0.081 0.754,0.754 0 0 0 0.177,0.057 1.106,1.106 0 0 0 0.21,0.019 1.081,1.081 0 0 0 0.244,-0.026 0.727,0.727 0 0 0 0.2,-0.078 0.34,0.34 0 0 0 0.18,-0.312 0.435,0.435 0 0 0 -0.021,-0.138 0.346,0.346 0 0 0 -0.064,-0.113 0.489,0.489 0 0 0 -0.129,-0.1 1.488,1.488 0 0 0 -0.217,-0.1 3.111,3.111 0 0 0 -0.326,-0.094 q -0.2,-0.048 -0.456,-0.095 a 4.523,4.523 0 0 1 -0.461,-0.131 3.285,3.285 0 0 1 -0.4,-0.167 1.63,1.63 0 0 1 -0.327,-0.213 1.309,1.309 0 0 1 -0.241,-0.27 1.125,1.125 0 0 1 -0.149,-0.33 1.483,1.483 0 0 1 -0.05,-0.394 1.155,1.155 0 0 1 0.062,-0.372 1.4,1.4 0 0 1 0.185,-0.357 1.533,1.533 0 0 1 0.3,-0.318 2.1,2.1 0 0 1 0.417,-0.255 2.223,2.223 0 0 1 0.528,-0.167 3.39,3.39 0 0 1 0.636,-0.056 3.851,3.851 0 0 1 0.513,0.032 2.6,2.6 0 0 1 0.439,0.1 2.934,2.934 0 0 1 0.372,0.146 2.121,2.121 0 0 1 0.31,0.181 2.145,2.145 0 0 1 0.245,0.2 1.35,1.35 0 0 1 0.176,0.206 1.043,1.043 0 0 1 0.109,0.2 0.582,0.582 0 0 1 0.043,0.18 0.206,0.206 0 0 1 -0.01,0.089 0.218,0.218 0 0 1 -0.047,0.077 0.233,0.233 0 0 1 -0.071,0.053 0.188,0.188 0 0 1 -0.08,0.018 h -0.985 a 0.212,0.212 0 0 1 -0.038,0 0.206,0.206 0 0 1 -0.038,-0.011 l -0.035,-0.015 -0.031,-0.018 a 1,1 0 0 1 -0.114,-0.066 1.376,1.376 0 0 1 -0.114,-0.085 1.2,1.2 0 0 0 -0.123,-0.09 c -0.044,-0.028 -0.092,-0.055 -0.142,-0.081 a 0.68,0.68 0 0 0 -0.17,-0.057 1.054,1.054 0 0 0 -0.208,-0.019 0.836,0.836 0 0 0 -0.227,0.028 0.481,0.481 0 0 0 -0.171,0.085 0.379,0.379 0 0 0 -0.106,0.13 0.371,0.371 0 0 0 -0.036,0.163 0.346,0.346 0 0 0 0.02,0.118 0.371,0.371 0 0 0 0.061,0.109 0.408,0.408 0 0 0 0.123,0.1 1.208,1.208 0 0 0 0.208,0.09 c 0.083,0.028 0.191,0.058 0.321,0.09 0.13,0.032 0.283,0.065 0.46,0.1 a 3.915,3.915 0 0 1 0.587,0.136 2.2,2.2 0 0 1 0.454,0.2 1.737,1.737 0 0 1 0.331,0.251 1.158,1.158 0 0 1 0.218,0.289 1.432,1.432 0 0 1 0.121,0.316 1.385,1.385 0 0 1 0.04,0.333 1.341,1.341 0 0 1 -0.067,0.428 1.28,1.28 0 0 1 -0.2,0.376 1.452,1.452 0 0 1 -0.335,0.311 2.113,2.113 0 0 1 -0.465,0.233 3.011,3.011 0 0 1 -0.587,0.145 4.7,4.7 0 0 1 -0.697,0.043 z" transform="translate(-2650.767,-671.235)" id="path796"></path><path class="e" d="m 2685.927,672.463 a 3.084,3.084 0 0 1 -0.565,-0.048 2.153,2.153 0 0 1 -0.482,-0.146 1.462,1.462 0 0 1 -0.39,-0.249 1.435,1.435 0 0 1 -0.288,-0.357 1.673,1.673 0 0 1 -0.178,-0.472 2.749,2.749 0 0 1 -0.059,-0.593 v -1.818 h -0.739 a 0.265,0.265 0 0 1 -0.1,-0.017 0.239,0.239 0 0 1 -0.079,-0.05 0.218,0.218 0 0 1 -0.053,-0.076 0.246,0.246 0 0 1 -0.018,-0.095 v -0.767 a 0.246,0.246 0 0 1 0.018,-0.095 0.222,0.222 0 0 1 0.053,-0.076 0.238,0.238 0 0 1 0.079,-0.049 0.265,0.265 0 0 1 0.1,-0.017 h 0.739 v -1.562 a 0.242,0.242 0 0 1 0.018,-0.095 0.218,0.218 0 0 1 0.053,-0.076 0.25,0.25 0 0 1 0.077,-0.05 0.238,0.238 0 0 1 0.089,-0.017 h 1.1 a 0.265,0.265 0 0 1 0.095,0.017 0.221,0.221 0 0 1 0.076,0.05 0.226,0.226 0 0 1 0.05,0.076 0.261,0.261 0 0 1 0.016,0.095 v 1.563 h 1.184 a 0.255,0.255 0 0 1 0.094,0.017 0.217,0.217 0 0 1 0.076,0.049 0.225,0.225 0 0 1 0.05,0.076 0.26,0.26 0 0 1 0.016,0.095 v 0.767 a 0.26,0.26 0 0 1 -0.016,0.095 0.222,0.222 0 0 1 -0.05,0.076 0.218,0.218 0 0 1 -0.076,0.05 0.255,0.255 0 0 1 -0.094,0.017 h -1.184 v 1.685 a 1.225,1.225 0 0 0 0.031,0.289 0.7,0.7 0 0 0 0.092,0.222 0.379,0.379 0 0 0 0.166,0.142 0.6,0.6 0 0 0 0.251,0.047 h 0.729 a 0.265,0.265 0 0 1 0.094,0.016 0.222,0.222 0 0 1 0.076,0.05 0.217,0.217 0 0 1 0.05,0.076 0.261,0.261 0 0 1 0.017,0.095 v 0.824 a 0.26,0.26 0 0 1 -0.017,0.095 0.211,0.211 0 0 1 -0.05,0.076 0.216,0.216 0 0 1 -0.076,0.05 0.264,0.264 0 0 1 -0.094,0.016 h -0.881 z" transform="translate(-2667.074,-665.74)" id="path798"></path></g><g transform="translate(63.555,159.088)" id="g806"><path class="c" d="m 2019.159,845.257 h -51.417 a 4.281,4.281 0 0 1 -4.281,-4.281 v -8.694 a 4.282,4.282 0 0 1 4.281,-4.281 h 51.417 a 4.282,4.282 0 0 1 4.281,4.281 v 8.694 a 4.281,4.281 0 0 1 -4.281,4.281 z" transform="translate(-1962.986,-827.527)" id="path802"></path><path class="b" d="m 2017.632,844.2 h -51.417 a 4.76,4.76 0 0 1 -4.755,-4.755 v -8.694 a 4.76,4.76 0 0 1 4.755,-4.755 h 51.417 a 4.76,4.76 0 0 1 4.755,4.755 v 8.694 a 4.761,4.761 0 0 1 -4.755,4.755 z m -51.417,-17.257 a 3.813,3.813 0 0 0 -3.808,3.808 v 8.694 a 3.812,3.812 0 0 0 3.808,3.808 h 51.417 a 3.812,3.812 0 0 0 3.808,-3.808 v -8.694 a 3.812,3.812 0 0 0 -3.808,-3.808 z" transform="translate(-1961.46,-826)" id="path804"></path></g><g transform="translate(65.382,159.088)" id="g812"><path class="d" d="m 2026.879,845.257 h -51.417 a 4.281,4.281 0 0 1 -4.281,-4.281 v -8.694 a 4.282,4.282 0 0 1 4.281,-4.281 h 51.417 a 4.282,4.282 0 0 1 4.281,4.281 v 8.694 a 4.281,4.281 0 0 1 -4.281,4.281 z" transform="translate(-1970.707,-827.527)" id="path808"></path><path class="d" d="m 2025.352,844.2 h -51.417 a 4.76,4.76 0 0 1 -4.755,-4.755 v -8.694 a 4.76,4.76 0 0 1 4.755,-4.755 h 51.417 a 4.76,4.76 0 0 1 4.755,4.755 v 8.694 a 4.761,4.761 0 0 1 -4.755,4.755 z m -51.417,-17.257 a 3.812,3.812 0 0 0 -3.808,3.808 v 8.694 a 3.812,3.812 0 0 0 3.808,3.808 h 51.417 a 3.812,3.812 0 0 0 3.808,-3.808 v -8.694 a 3.813,3.813 0 0 0 -3.808,-3.808 z" transform="translate(-1969.18,-826)" id="path810"></path></g><g transform="translate(78.858,164.945)" id="g826"><path class="e" d="m 2026.341,857.769 a 0.263,0.263 0 0 1 -0.095,-0.017 0.226,0.226 0 0 1 -0.125,-0.125 0.26,0.26 0 0 1 -0.016,-0.095 v -6.155 a 0.26,0.26 0 0 1 0.016,-0.095 0.224,0.224 0 0 1 0.125,-0.125 0.259,0.259 0 0 1 0.095,-0.017 h 2.462 a 4.639,4.639 0 0 1 0.859,0.075 3.127,3.127 0 0 1 0.722,0.223 2.392,2.392 0 0 1 0.577,0.367 2.149,2.149 0 0 1 0.426,0.5 2.415,2.415 0 0 1 0.27,0.64 3.436,3.436 0 0 1 0.109,0.775 c 0,0.139 0.01,0.269 0.01,0.391 10e-4,0.122 0,0.234 0,0.339 0,0.105 0,0.216 0,0.336 0,0.12 0,0.248 -0.01,0.384 a 3.908,3.908 0 0 1 -0.112,0.8 2.556,2.556 0 0 1 -0.262,0.653 2.009,2.009 0 0 1 -0.412,0.5 2.157,2.157 0 0 1 -0.564,0.354 3.134,3.134 0 0 1 -0.711,0.209 4.872,4.872 0 0 1 -0.856,0.07 h -2.509 z m 1.458,-1.364 h 1 a 2.016,2.016 0 0 0 0.373,-0.032 1.244,1.244 0 0 0 0.3,-0.1 0.854,0.854 0 0 0 0.237,-0.164 0.889,0.889 0 0 0 0.171,-0.238 1.283,1.283 0 0 0 0.1,-0.317 2.247,2.247 0 0 0 0.042,-0.4 q 0.01,-0.137 0.016,-0.26 0.01,-0.123 0.01,-0.232 0,-0.109 0,-0.218 0,-0.109 0,-0.218 0,-0.109 -0.01,-0.23 -0.01,-0.121 -0.016,-0.253 a 1.826,1.826 0 0 0 -0.094,-0.558 0.963,0.963 0 0 0 -0.243,-0.385 1.012,1.012 0 0 0 -0.394,-0.224 1.817,1.817 0 0 0 -0.548,-0.075 h -0.956 v 3.9 z" transform="translate(-2026.104,-851.045)" id="path814"></path><path class="e" d="m 2055.935,863.053 a 3.105,3.105 0 0 1 -1,-0.151 2.17,2.17 0 0 1 -0.776,-0.455 1.95,1.95 0 0 1 -0.5,-0.753 3.113,3.113 0 0 1 -0.187,-1.046 v -0.332 a 3.214,3.214 0 0 1 0.1,-0.695 2.382,2.382 0 0 1 0.238,-0.588 2.034,2.034 0 0 1 0.852,-0.815 2.443,2.443 0 0 1 0.591,-0.209 3.18,3.18 0 0 1 0.683,-0.07 3.246,3.246 0 0 1 0.761,0.083 2.114,2.114 0 0 1 1.436,1.148 2.664,2.664 0 0 1 0.206,0.608 3.327,3.327 0 0 1 0.069,0.689 v 0.228 a 0.237,0.237 0 0 1 -0.018,0.095 0.214,0.214 0 0 1 -0.053,0.076 0.245,0.245 0 0 1 -0.077,0.05 0.234,0.234 0 0 1 -0.089,0.016 h -3.03 V 861 a 1.7,1.7 0 0 0 0.028,0.263 1.426,1.426 0 0 0 0.066,0.239 0.844,0.844 0 0 0 0.109,0.2 0.74,0.74 0 0 0 0.156,0.156 0.649,0.649 0 0 0 0.2,0.1 0.81,0.81 0 0 0 0.237,0.033 0.922,0.922 0 0 0 0.174,-0.015 0.576,0.576 0 0 0 0.143,-0.046 0.988,0.988 0 0 0 0.117,-0.066 0.744,0.744 0 0 0 0.1,-0.076 q 0.042,-0.04 0.076,-0.074 c 0.022,-0.023 0.041,-0.044 0.057,-0.063 a 0.876,0.876 0 0 1 0.077,-0.077 0.267,0.267 0 0 1 0.06,-0.042 0.259,0.259 0 0 1 0.068,-0.018 0.735,0.735 0 0 1 0.1,-0.006 h 1.174 a 0.27,0.27 0 0 1 0.086,0.013 0.207,0.207 0 0 1 0.07,0.039 0.144,0.144 0 0 1 0.044,0.063 0.183,0.183 0 0 1 0.01,0.084 0.537,0.537 0 0 1 -0.045,0.178 1.262,1.262 0 0 1 -0.115,0.211 1.61,1.61 0 0 1 -0.186,0.226 2.471,2.471 0 0 1 -0.255,0.223 1.993,1.993 0 0 1 -0.325,0.2 2.872,2.872 0 0 1 -0.4,0.162 2.7,2.7 0 0 1 -0.471,0.107 3.9,3.9 0 0 1 -0.559,0.039 z m -0.8,-3.059 h 1.6 v -0.019 a 1.734,1.734 0 0 0 -0.022,-0.284 1.259,1.259 0 0 0 -0.068,-0.246 0.8,0.8 0 0 0 -0.114,-0.2 0.686,0.686 0 0 0 -0.161,-0.149 0.715,0.715 0 0 0 -0.2,-0.092 0.875,0.875 0 0 0 -0.238,-0.031 0.85,0.85 0 0 0 -0.236,0.031 0.648,0.648 0 0 0 -0.2,0.092 0.7,0.7 0 0 0 -0.155,0.149 0.9,0.9 0 0 0 -0.115,0.2 1.166,1.166 0 0 0 -0.071,0.246 1.605,1.605 0 0 0 -0.024,0.284 v 0.019 z" transform="translate(-2046.986,-856.235)" id="path816"></path><path class="e" d="m 2078.3,864.757 a 0.258,0.258 0 0 1 -0.095,-0.017 0.225,0.225 0 0 1 -0.125,-0.125 0.26,0.26 0 0 1 -0.017,-0.095 v -6.25 a 0.261,0.261 0 0 1 0.017,-0.095 0.222,0.222 0 0 1 0.125,-0.125 0.258,0.258 0 0 1 0.095,-0.017 h 1.07 a 0.236,0.236 0 0 1 0.089,0.017 0.244,0.244 0 0 1 0.077,0.049 0.216,0.216 0 0 1 0.053,0.076 0.246,0.246 0 0 1 0.018,0.095 v 0.35 a 1.6,1.6 0 0 1 0.253,-0.269 1.909,1.909 0 0 1 0.324,-0.219 1.519,1.519 0 0 1 0.4,-0.146 2.28,2.28 0 0 1 0.488,-0.049 2.551,2.551 0 0 1 0.445,0.037 1.888,1.888 0 0 1 0.388,0.11 1.7,1.7 0 0 1 0.334,0.181 1.642,1.642 0 0 1 0.282,0.25 1.892,1.892 0 0 1 0.229,0.315 2.319,2.319 0 0 1 0.174,0.376 2.68,2.68 0 0 1 0.115,0.438 3.7,3.7 0 0 1 0.051,0.5 c 0,0.063 0,0.124 0.01,0.182 0,0.058 0,0.115 0,0.168 0,0.053 0,0.11 0,0.168 0,0.058 0,0.119 -0.01,0.182 a 3.622,3.622 0 0 1 -0.05,0.485 2.762,2.762 0 0 1 -0.111,0.433 2.214,2.214 0 0 1 -0.171,0.376 1.856,1.856 0 0 1 -0.227,0.315 1.713,1.713 0 0 1 -0.283,0.252 1.832,1.832 0 0 1 -0.337,0.188 1.858,1.858 0 0 1 -0.392,0.117 2.459,2.459 0 0 1 -0.446,0.039 2.157,2.157 0 0 1 -0.434,-0.041 1.612,1.612 0 0 1 -0.375,-0.124 1.571,1.571 0 0 1 -0.316,-0.2 1.526,1.526 0 0 1 -0.257,-0.269 v 2.1 a 0.26,0.26 0 0 1 -0.017,0.095 0.225,0.225 0 0 1 -0.125,0.125 0.258,0.258 0 0 1 -0.095,0.017 h -1.154 z m 2.263,-2.973 a 1.135,1.135 0 0 0 0.287,-0.033 0.63,0.63 0 0 0 0.215,-0.1 0.713,0.713 0 0 0 0.155,-0.156 0.8,0.8 0 0 0 0.105,-0.2 1.724,1.724 0 0 0 0.065,-0.239 2.087,2.087 0 0 0 0.034,-0.263 q 0.01,-0.147 0.01,-0.293 0,-0.146 -0.01,-0.294 a 2.089,2.089 0 0 0 -0.034,-0.263 1.709,1.709 0 0 0 -0.065,-0.239 0.8,0.8 0 0 0 -0.105,-0.2 0.722,0.722 0 0 0 -0.155,-0.156 0.627,0.627 0 0 0 -0.215,-0.1 1.123,1.123 0 0 0 -0.287,-0.033 1.064,1.064 0 0 0 -0.282,0.034 0.681,0.681 0 0 0 -0.22,0.1 0.793,0.793 0 0 0 -0.163,0.157 0.8,0.8 0 0 0 -0.111,0.2 1.345,1.345 0 0 0 -0.066,0.227 1.564,1.564 0 0 0 -0.028,0.246 q 0,0.09 -0.01,0.178 c 0,0.058 0,0.116 0,0.173 0,0.057 0,0.115 0,0.175 0,0.06 0,0.121 0.01,0.185 a 1.221,1.221 0 0 0 0.031,0.228 1.092,1.092 0 0 0 0.074,0.212 0.8,0.8 0 0 0 0.118,0.185 0.833,0.833 0 0 0 0.166,0.147 0.7,0.7 0 0 0 0.215,0.1 1.042,1.042 0 0 0 0.266,0.022 z" transform="translate(-2065.762,-856.235)" id="path818"></path><path class="e" d="m 2103.541,857.463 a 0.264,0.264 0 0 1 -0.095,-0.017 0.225,0.225 0 0 1 -0.125,-0.125 0.266,0.266 0 0 1 -0.016,-0.095 v -6.25 a 0.265,0.265 0 0 1 0.016,-0.095 0.223,0.223 0 0 1 0.125,-0.125 0.266,0.266 0 0 1 0.095,-0.017 h 1.117 a 0.265,0.265 0 0 1 0.095,0.017 0.221,0.221 0 0 1 0.125,0.125 0.26,0.26 0 0 1 0.016,0.095 v 6.25 a 0.261,0.261 0 0 1 -0.016,0.095 0.223,0.223 0 0 1 -0.125,0.125 0.263,0.263 0 0 1 -0.095,0.017 z" transform="translate(-2085.028,-850.74)" id="path820"></path><path class="e" d="m 2116.492,863.053 a 3.907,3.907 0 0 1 -0.733,-0.064 2.54,2.54 0 0 1 -0.607,-0.192 2.022,2.022 0 0 1 -0.481,-0.311 1.809,1.809 0 0 1 -0.353,-0.423 2.145,2.145 0 0 1 -0.226,-0.524 2.814,2.814 0 0 1 -0.1,-0.617 c 0,-0.063 -0.01,-0.13 -0.01,-0.2 0,-0.07 0,-0.148 0,-0.228 0,-0.08 0,-0.156 0,-0.226 0,-0.07 0,-0.135 0.01,-0.2 a 2.7,2.7 0 0 1 0.1,-0.622 2.04,2.04 0 0 1 0.237,-0.523 1.905,1.905 0 0 1 0.364,-0.419 2.112,2.112 0 0 1 0.484,-0.31 2.562,2.562 0 0 1 0.6,-0.192 3.726,3.726 0 0 1 0.711,-0.064 3.793,3.793 0 0 1 0.719,0.064 2.56,2.56 0 0 1 0.6,0.192 2.118,2.118 0 0 1 0.484,0.31 1.9,1.9 0 0 1 0.363,0.419 2.049,2.049 0 0 1 0.237,0.523 2.715,2.715 0 0 1 0.1,0.622 q 0,0.09 0.01,0.2 c 0,0.07 0,0.146 0,0.226 0,0.08 0,0.156 0,0.228 0,0.072 0,0.139 -0.01,0.2 a 2.829,2.829 0 0 1 -0.1,0.617 2.164,2.164 0 0 1 -0.226,0.524 1.809,1.809 0 0 1 -0.353,0.423 2.012,2.012 0 0 1 -0.481,0.311 2.541,2.541 0 0 1 -0.61,0.192 3.978,3.978 0 0 1 -0.729,0.064 z m 0,-1.155 a 0.964,0.964 0 0 0 0.368,-0.064 0.591,0.591 0 0 0 0.252,-0.192 0.971,0.971 0 0 0 0.153,-0.32 2.032,2.032 0 0 0 0.07,-0.447 c 0,-0.047 0.01,-0.1 0.01,-0.166 0,-0.066 0,-0.134 0,-0.213 0,-0.079 0,-0.15 0,-0.213 0,-0.063 0,-0.119 -0.01,-0.166 a 2,2 0 0 0 -0.07,-0.441 1,1 0 0 0 -0.153,-0.321 0.591,0.591 0 0 0 -0.252,-0.2 0.95,0.95 0 0 0 -0.368,-0.065 0.928,0.928 0 0 0 -0.362,0.065 0.615,0.615 0 0 0 -0.254,0.2 0.963,0.963 0 0 0 -0.154,0.321 1.857,1.857 0 0 0 -0.064,0.441 c 0,0.047 -0.01,0.1 -0.01,0.166 0,0.066 0,0.134 0,0.213 0,0.079 0,0.15 0,0.213 0,0.063 0,0.118 0.01,0.166 a 1.89,1.89 0 0 0 0.064,0.447 0.934,0.934 0 0 0 0.154,0.32 0.615,0.615 0 0 0 0.254,0.192 0.941,0.941 0 0 0 0.362,0.066 z" transform="translate(-2093.178,-856.235)" id="path822"></path><path class="e" d="m 2137.981,865.063 a 0.212,0.212 0 0 1 -0.079,-0.014 0.194,0.194 0 0 1 -0.106,-0.107 0.208,0.208 0 0 1 -0.014,-0.078 c 0,-0.006 0,-0.014 0,-0.022 0,-0.008 0,-0.018 0,-0.03 a 0.187,0.187 0 0 1 0.01,-0.034 0.249,0.249 0 0 1 0.015,-0.037 l 0.369,-0.89 0.369,-0.89 -0.909,-2.15 -0.909,-2.15 a 0.417,0.417 0 0 1 -0.021,-0.061 0.221,0.221 0 0 1 -0.01,-0.052 0.325,0.325 0 0 1 0.029,-0.079 0.3,0.3 0 0 1 0.047,-0.067 0.192,0.192 0 0 1 0.064,-0.046 0.2,0.2 0 0 1 0.078,-0.015 H 2138 a 0.335,0.335 0 0 1 0.106,0.015 0.171,0.171 0 0 1 0.073,0.046 0.423,0.423 0 0 1 0.05,0.065 0.41,0.41 0 0 1 0.035,0.072 l 0.544,1.378 0.544,1.378 0.554,-1.378 0.554,-1.378 a 0.491,0.491 0 0 1 0.044,-0.072 0.543,0.543 0 0 1 0.056,-0.065 0.192,0.192 0 0 1 0.077,-0.046 0.343,0.343 0 0 1 0.107,-0.015 h 1.061 a 0.2,0.2 0 0 1 0.079,0.015 0.209,0.209 0 0 1 0.068,0.046 0.219,0.219 0 0 1 0.046,0.065 0.171,0.171 0 0 1 0.016,0.072 0.251,0.251 0 0 1 -0.01,0.054 0.524,0.524 0 0 1 -0.021,0.068 l -1.34,3.1 -1.34,3.1 a 0.336,0.336 0 0 1 -0.038,0.072 0.4,0.4 0 0 1 -0.057,0.065 0.217,0.217 0 0 1 -0.081,0.046 0.352,0.352 0 0 1 -0.109,0.015 h -1.041 z" transform="translate(-2110.519,-856.541)" id="path824"></path></g></g></svg>