<svg xmlns="http://www.w3.org/2000/svg" viewBox="0 0 783.37 468.87"><defs><style>.cls-1{isolation:isolate;}.cls-2{fill:#e6e6e6;}.cls-3{opacity:0.1;}.cls-3,.cls-7{mix-blend-mode:multiply;}.cls-4{fill:#455666;}.cls-4,.cls-5,.cls-6,.cls-8,.cls-9{stroke:#24313e;}.cls-10,.cls-13,.cls-4,.cls-5,.cls-6,.cls-8,.cls-9{stroke-miterlimit:10;}.cls-10,.cls-12,.cls-13,.cls-15,.cls-4,.cls-5,.cls-6,.cls-8,.cls-9{stroke-width:1.28px;}.cls-5{fill:#3ab2d0;}.cls-6{fill:#f5f7f9;}.cls-13,.cls-7{fill:#24313e;}.cls-7{opacity:0.24;}.cls-8{fill:#0c7ff2;}.cls-16,.cls-9{fill:#ebf0f5;}.cls-10{fill:#9caab8;}.cls-10,.cls-12,.cls-13,.cls-15{stroke:#031439;}.cls-11{opacity:0.38;}.cls-11,.cls-16{mix-blend-mode:overlay;}.cls-12,.cls-14{fill:#fff;}.cls-12,.cls-15{stroke-linecap:round;stroke-linejoin:round;}.cls-15{fill:none;}.cls-16{opacity:0.21;}</style></defs><g class="cls-1"><g id="Layer_2" data-name="Layer 2"><g id="Layer_1-2" data-name="Layer 1"><rect id="rect201" class="cls-2" width="783.37" height="468.87"></rect><ellipse class="cls-3" cx="402.17" cy="378.35" rx="234.77" ry="6.76"></ellipse><path class="cls-4" d="M601.24,146.14,601,195.23l-.83,183.15-151-.69-229-1.05a27.24,27.24,0,0,1-27.11-27.36L194,146.14Z"></path><path class="cls-5" d="M601.41,109.54l-.17,38.32H194l.17-40.16A12.91,12.91,0,0,1,207.27,95l381.19,1.72A12.91,12.91,0,0,1,601.41,109.54Z"></path><path class="cls-6" d="M596.36,130.05l-1.05,227.46a20.93,20.93,0,0,1-21,20.84l-365.35-1.67a21,21,0,0,1-20.84-21l1-227.46a34.12,34.12,0,0,1,34.26-33.95l339,1.56"></path><path class="cls-7" d="M596.36,146.6c0,.82-91.18,2.39-203.66,2.39s-203.65-1.57-203.65-2.39S280.23,146,392.7,146,596.36,145.77,596.36,146.6Z"></path><path class="cls-8" d="M216.6,95.3H569a27.44,27.44,0,0,1,27.44,27.44V147a0,0,0,0,1,0,0H189.17a0,0,0,0,1,0,0V122.73A27.44,27.44,0,0,1,216.6,95.3Z" transform="translate(0.56 -1.8) rotate(0.26)"></path><rect class="cls-8" x="205.33" y="158.55" width="46.53" height="16.95" rx="4.54" transform="translate(0.77 -1.05) rotate(0.26)"></rect><rect class="cls-5" x="205.55" y="109.74" width="60.07" height="21.11" rx="10.56" transform="translate(0.56 -1.08) rotate(0.26)"></rect><rect class="cls-9" x="477.38" y="110.99" width="60.07" height="21.11" rx="10.56" transform="translate(0.56 -2.33) rotate(0.26)"></rect><rect class="cls-9" x="551.96" y="111.25" width="21.27" height="21.11" rx="10.56" transform="translate(0.57 -2.58) rotate(0.26)"></rect><rect class="cls-10" x="205.18" y="192.48" width="96.77" height="16.29" rx="4.36" transform="translate(0.92 -1.16) rotate(0.26)"></rect><rect class="cls-9" x="205.07" y="218.46" width="96.77" height="11.94" rx="4.36" transform="translate(1.03 -1.16) rotate(0.26)"></rect><rect class="cls-9" x="204.98" y="238.83" width="63.06" height="10.37" rx="3.79" transform="translate(1.12 -1.08) rotate(0.26)"></rect><rect class="cls-9" x="204.9" y="255.88" width="101.78" height="10.37" rx="3.79" transform="translate(1.2 -1.17) rotate(0.26)"></rect><rect class="cls-9" x="204.82" y="274.13" width="63.06" height="10.37" rx="3.79" transform="translate(1.29 -1.08) rotate(0.26)"></rect><rect class="cls-9" x="204.74" y="291.18" width="101.78" height="10.37" rx="3.79" transform="translate(1.36 -1.17) rotate(0.26)"></rect><rect class="cls-8" x="263.32" y="158.82" width="46.53" height="16.95" rx="4.54" transform="translate(0.77 -1.32) rotate(0.26)"></rect><rect class="cls-9" x="335.62" y="159.22" width="77.29" height="16.95" rx="4.54" transform="translate(0.77 -1.72) rotate(0.26)"></rect><rect class="cls-8" x="515.34" y="158.43" width="64.36" height="16.95" rx="4.54" transform="matrix(1, 0, 0, 1, 0.77, -2.51)"></rect><rect class="cls-10" x="333.57" y="187.8" width="244.93" height="190.54" rx="9.02" transform="translate(1.31 -2.09) rotate(0.26)"></rect><rect class="cls-9" x="347.21" y="204.85" width="77.29" height="16.95" rx="4.54" transform="matrix(1, 0, 0, 1, 0.98, -1.77)"></rect><rect class="cls-9" x="346.96" y="234.99" width="218.63" height="67.98" rx="13.65" transform="translate(1.24 -2.1) rotate(0.26)"></rect><path class="cls-11" d="M601.94,175.46l-.83,202.83L484,377.6c-33.68-17.73-45.28-62.42-45.28-87.4A124.21,124.21,0,0,1,562.9,166C579.78,166,587.27,169.36,601.94,175.46Z"></path><ellipse class="cls-3" cx="566.49" cy="390.34" rx="60.39" ry="6.76"></ellipse><circle class="cls-5" cx="567.27" cy="285.7" r="110.11"></circle><circle class="cls-8" cx="557.93" cy="285.7" r="110.11"></circle><path class="cls-12" d="M591.54,280.11l-39.42-22.76L512.7,280.11v41a7.76,7.76,0,0,0,3.88,6.72l31.66,18.28a7.74,7.74,0,0,0,7.76,0l31.66-18.28a7.76,7.76,0,0,0,3.88-6.72Z"></path><path class="cls-12" d="M569.82,318l25.93-15.6a7.27,7.27,0,0,0,2.64-9.71l-6.85-12.55-38.41,23.1,6.55,12A7.28,7.28,0,0,0,569.82,318Z"></path><line class="cls-12" x1="502.68" y1="285.9" x2="552.12" y2="257.35"></line><polygon class="cls-13" points="552.12 257.35 591.54 280.11 553.13 303.21 512.7 280.11 552.12 257.35"></polygon><path class="cls-14" d="M577.37,260l4.09-.77a2.53,2.53,0,0,0,2-2.53l-.07-3.78a2.51,2.51,0,0,0-2.15-2.44l-4.12-.63a2.52,2.52,0,0,1-1.79-1.19l-5.8-9.66a2.52,2.52,0,0,1-.22-2.14l1.42-4a2.52,2.52,0,0,0-1.15-3l-3.3-1.85a2.54,2.54,0,0,0-3.2.61l-2.59,3.21a2.52,2.52,0,0,1-1.92.94l-11.28.19a2.47,2.47,0,0,1-2-.9l-2.73-3.25a2.53,2.53,0,0,0-3.21-.55l-3.27,1.91a2.52,2.52,0,0,0-1.08,3.07l1.44,3.81a2.48,2.48,0,0,1-.15,2.11l-5.73,10.33a2.55,2.55,0,0,1-1.74,1.26l-4.09.77a2.51,2.51,0,0,0-2,2.52l.07,3.78a2.52,2.52,0,0,0,2.14,2.45l4.13.62a2.54,2.54,0,0,1,1.79,1.19l5.8,9.66a2.54,2.54,0,0,1,.22,2.15l-1.42,3.94a2.52,2.52,0,0,0,1.15,3.05l3.3,1.86a2.51,2.51,0,0,0,3.19-.62l2.6-3.21a2.51,2.51,0,0,1,1.92-.93l11.28-.2a2.53,2.53,0,0,1,2,.9l2.73,3.25a2.52,2.52,0,0,0,3.2.56l3.27-1.92a2.51,2.51,0,0,0,1.09-3.07l-1.44-3.8a2.5,2.5,0,0,1,.15-2.12l5.73-10.33A2.49,2.49,0,0,1,577.37,260Zm-34.61-4.25a10.38,10.38,0,1,1,10.36,10A10.38,10.38,0,0,1,542.76,255.73Z"></path><path class="cls-15" d="M577.37,260l4.09-.77a2.53,2.53,0,0,0,2-2.53l-.07-3.78a2.51,2.51,0,0,0-2.15-2.44l-4.12-.63a2.52,2.52,0,0,1-1.79-1.19l-5.8-9.66a2.52,2.52,0,0,1-.22-2.14l1.42-4a2.52,2.52,0,0,0-1.15-3l-3.3-1.85a2.54,2.54,0,0,0-3.2.61l-2.59,3.21a2.52,2.52,0,0,1-1.92.94l-11.28.19a2.47,2.47,0,0,1-2-.9l-2.73-3.25a2.53,2.53,0,0,0-3.21-.55l-3.27,1.91a2.52,2.52,0,0,0-1.08,3.07l1.44,3.81a2.48,2.48,0,0,1-.15,2.11l-5.73,10.33a2.55,2.55,0,0,1-1.74,1.26l-4.09.77a2.51,2.51,0,0,0-2,2.52l.07,3.78a2.52,2.52,0,0,0,2.14,2.45l4.13.62a2.54,2.54,0,0,1,1.79,1.19l5.8,9.66a2.54,2.54,0,0,1,.22,2.15l-1.42,3.94a2.52,2.52,0,0,0,1.15,3.05l3.3,1.86a2.51,2.51,0,0,0,3.19-.62l2.6-3.21a2.51,2.51,0,0,1,1.92-.93l11.28-.2a2.53,2.53,0,0,1,2,.9l2.73,3.25a2.52,2.52,0,0,0,3.2.56l3.27-1.92a2.51,2.51,0,0,0,1.09-3.07l-1.44-3.8a2.5,2.5,0,0,1,.15-2.12l5.73-10.33A2.49,2.49,0,0,1,577.37,260Zm-34.61-4.25a10.38,10.38,0,1,1,10.36,10A10.38,10.38,0,0,1,542.76,255.73Z"></path><ellipse class="cls-8" cx="553.14" cy="255.35" rx="10.38" ry="10.38" transform="translate(-14.25 477.25) rotate(-46.14)"></ellipse><path class="cls-16" d="M648.07,222.45a110.11,110.11,0,0,0-174.7,133.77,110.11,110.11,0,1,1,174.7-133.77Z"></path><path class="cls-16" d="M581.11,96.64c0,3.68-84.39,4-188.49,4S204.13,100,204.13,96.27s83.77.23,187.87.23S581.11,93,581.11,96.64Z"></path><rect class="cls-16" x="206.86" y="158.77" width="42.62" height="1.49" rx="0.75"></rect><rect class="cls-7" x="206.86" y="173.48" width="43.87" height="1.49" rx="0.75"></rect><rect class="cls-16" x="265.17" y="159.39" width="42.62" height="1.49" rx="0.75"></rect><rect class="cls-7" x="265.17" y="174.1" width="43.87" height="1.49" rx="0.75"></rect><rect class="cls-16" x="206.86" y="192.52" width="91.58" height="1.49" rx="0.75"></rect><rect class="cls-7" x="206.86" y="207.23" width="94.26" height="1.49" rx="0.75"></rect><ellipse class="cls-16" cx="235.47" cy="111.08" rx="21.66" ry="1.18"></ellipse><ellipse class="cls-7" cx="235.47" cy="129.68" rx="21.66" ry="1.18"></ellipse></g></g></g></svg>