<svg xmlns="http://www.w3.org/2000/svg" viewBox="0 0 1080 1080"><defs><style>.cls-1{isolation:isolate;}.cls-2{fill:#455666;}.cls-10,.cls-13,.cls-14,.cls-16,.cls-2,.cls-3,.cls-4,.cls-6,.cls-7{stroke:#24313e;}.cls-10,.cls-13,.cls-14,.cls-16,.cls-2,.cls-3,.cls-4,.cls-6,.cls-7,.cls-8{stroke-miterlimit:10;stroke-width:2.02px;}.cls-3{fill:#3ab2d0;}.cls-16,.cls-4{fill:#f5f7f9;}.cls-5{fill:#24313e;opacity:0.24;}.cls-12,.cls-5,.cls-9{mix-blend-mode:multiply;}.cls-6{fill:#0c7ff2;}.cls-11,.cls-7{fill:#ebf0f5;}.cls-10,.cls-8{fill:#9caab8;}.cls-8{stroke:#031439;}.cls-12,.cls-9{opacity:0.1;}.cls-10,.cls-11,.cls-12,.cls-13,.cls-14,.cls-15,.cls-16{fill-rule:evenodd;}.cls-11{opacity:0.21;}.cls-11,.cls-15{mix-blend-mode:overlay;}.cls-13{fill:#6b7e8f;}.cls-14{fill:#d9dee5;}.cls-15{opacity:0.38;}.cls-17{fill:none;}</style></defs><g class="cls-1"><g id="Layer_2" data-name="Layer 2"><g id="Layer_1-2" data-name="Layer 1"><path class="cls-2" d="M958.05,327.71,957.61,421l-1.42,311.49a36.4,36.4,0,0,1-36.56,36.23L669.3,767.51l-435-2a51.72,51.72,0,0,1-51.49-52l1.77-385.84Z"></path><path class="cls-3" d="M958.37,258.19,958.05,331H184.56l.34-76.29a24.54,24.54,0,0,1,24.84-24.22l724,3.28A24.51,24.51,0,0,1,958.37,258.19Z"></path><path class="cls-4" d="M948.77,297.15l-.14,30.56v3.43l-1.83,398.05a39.77,39.77,0,0,1-36.36,39.44h0c-.59,0-1.17.09-1.77.12l-1.81,0-59.08-.27L454.29,766.7l-4.06,0-103.35-.48-108.48-.49-25.51-.12a39.73,39.73,0,0,1-39.58-40l1.83-397.07v-1l.12-26.73,0-7.25a64.79,64.79,0,0,1,51.18-63.05c1.81-.39,3.66-.7,5.52-.93h0a64.17,64.17,0,0,1,8.36-.5l643.92,3,.55.54.9.91Z"></path><path class="cls-5" d="M948.77,328.57c0,1.56-173.18,4.55-386.82,4.55s-386.81-3-386.81-4.55,173.18-1.09,386.81-1.09S948.77,327,948.77,328.57Z"></path><path class="cls-6" d="M948.93,262.74l-.16,34.41-.14,30.56v3.43L913.14,331l-36.58-.16-422.79-1.94-246.38-1.14-3.87,0-18.94-.08-9.44-.05.12-26.73,0-7.25.16-34.42a29.81,29.81,0,0,1,30-29.68l26.58.12h0l652.83,3,34.41.16a29.83,29.83,0,0,1,29.68,30Z"></path><rect class="cls-6" x="206.06" y="351.28" width="88.38" height="32.19" rx="4.54" transform="translate(1.69 -1.15) rotate(0.26)"></rect><rect class="cls-3" x="206.47" y="258.58" width="114.1" height="40.1" rx="17.17" transform="translate(1.28 -1.21) rotate(0.26)"></rect><rect class="cls-7" x="722.79" y="260.95" width="114.1" height="40.1" rx="17.17" transform="translate(1.3 -3.58) rotate(0.26)"></rect><rect class="cls-7" x="864.45" y="261.43" width="40.4" height="40.1" rx="17.17" transform="matrix(1, 0, 0, 1, 1.3, -4.06)"></rect><rect class="cls-8" x="205.77" y="415.72" width="183.81" height="30.94" rx="4.36" transform="translate(1.98 -1.36) rotate(0.26)"></rect><rect class="cls-7" x="205.56" y="465.07" width="183.81" height="22.67" rx="4.36" transform="translate(2.19 -1.36) rotate(0.26)"></rect><rect class="cls-7" x="205.39" y="503.77" width="119.78" height="19.7" rx="3.79" transform="translate(2.36 -1.21) rotate(0.26)"></rect><rect class="cls-7" x="205.24" y="536.15" width="193.32" height="19.7" rx="3.79" transform="translate(2.51 -1.38) rotate(0.26)"></rect><rect class="cls-7" x="205.08" y="570.81" width="119.78" height="19.7" rx="3.79" transform="translate(2.67 -1.21) rotate(0.26)"></rect><rect class="cls-7" x="204.93" y="603.19" width="193.32" height="19.7" rx="3.79" transform="translate(2.82 -1.38) rotate(0.26)"></rect><rect class="cls-6" x="316.2" y="351.79" width="88.38" height="32.19" rx="4.54" transform="matrix(1, 0, 0, 1, 1.69, -1.65)"></rect><rect class="cls-7" x="453.53" y="352.55" width="146.8" height="32.19" rx="4.54" transform="translate(1.7 -2.42) rotate(0.26)"></rect><rect class="cls-6" x="794.89" y="351.06" width="122.25" height="32.19" rx="4.54" transform="translate(1.7 -3.93) rotate(0.26)"></rect><path class="cls-8" d="M915.64,417.73,914.06,760a9.8,9.8,0,0,1-5.17,8.6l-.24.13a9.85,9.85,0,0,1-4.43,1l-56.55-.26-389-1.78a9.84,9.84,0,0,1-4.33-1l-.34-.17a9.83,9.83,0,0,1-5.1-8.65l.21-46.58,1.36-295.71a9.81,9.81,0,0,1,9.86-9.76l445.6,2A9.81,9.81,0,0,1,915.64,417.73Z"></path><rect class="cls-7" x="475.55" y="439.22" width="146.8" height="32.19" rx="4.54" transform="matrix(1, 0, 0, 1, 2.1, -2.52)"></rect><rect class="cls-7" x="475.07" y="496.48" width="415.26" height="129.13" rx="5.35" transform="translate(2.59 -3.13) rotate(0.26)"></rect><path class="cls-9" d="M514.83,524.08A230.9,230.9,0,0,1,333.75,749.49l-.72.15a232.72,232.72,0,0,1-100-.45l-.73-.17a229.66,229.66,0,0,1-55.59-20.61,36.34,36.34,0,0,1-3.67-16.16l1.69-365.94v-.91l.11-24.64c2.87-1.55,5.77-3.05,8.72-4.47a230,230,0,0,1,100.49-23,233.57,233.57,0,0,1,24.08,1.24A229.68,229.68,0,0,1,430,345.27l.31.25,1.28,1.06c.77.64,1.54,1.29,2.3,1.95s1.38,1.17,2.06,1.77a234.82,234.82,0,0,1,18.34,17.91A231.25,231.25,0,0,1,477.36,398a230.13,230.13,0,0,1,32.86,79.93q2.25,11.1,3.42,22.55A233.62,233.62,0,0,1,514.83,524.08Z"></path><circle class="cls-4" cx="286.85" cy="523.57" r="215.25"></circle><path class="cls-10" d="M488.77,525.64A202,202,0,0,1,354.92,715.77c-1.37.5-2.74,1-4.12,1.43-10.24,2-13.88-4.31-13.88-9.71,0-6.62.24-28.4.24-55.39a68.5,68.5,0,0,0-1.51-14.78c-2.31-10.71-7.06-18.19-12.19-22.61,45-5,92.19-22.08,92.19-99.65,0-22-7.82-40.06-20.76-54.17,2.08-5.12,9-25.65-2-53.44,0,0-16.93-5.43-55.48,20.69a191.29,191.29,0,0,0-101.1,0c-38.58-26.12-55.53-20.69-55.53-20.69-11,27.79-4.06,48.32-2,53.44C165.88,475,158,493,158,515.06c0,77.39,47.14,94.71,92,99.8-5.76,5-11,13.95-12.81,27-11.51,5.17-40.76,14.07-58.77-16.78,0,0-10.67-19.39-30.93-20.81,0,0-19.72-.25-1.39,12.28,0,0,13.24,6.2,22.43,29.53,0,0,11.84,39.27,68,27.07,0,1.44,0,2.86,0,4.24.1,14.73.25,25.72.25,30.1,0,5.36-3.69,11.59-13.78,9.73A200.48,200.48,0,0,1,183.25,699q-8.06-4.82-15.61-10.36A201.9,201.9,0,0,1,286.83,323.7C398.35,323.7,488.77,414.1,488.77,525.64Z"></path><path class="cls-11" d="M396.79,356.23A201.94,201.94,0,0,0,179.21,695.58q4.48,3.28,9.16,6.32c-1.73-1-3.43-1.94-5.12-2.95q-8.06-4.82-15.61-10.36A201.93,201.93,0,0,1,396.79,356.23Z"></path><path class="cls-11" d="M335,621.7c5.14,4.43,9.88,11.9,12.2,22.61a69.16,69.16,0,0,1,1.5,14.78c0,27-.24,48.78-.24,55.39a11.88,11.88,0,0,0,.39,3c-8.78.88-12-4.94-12-10,0-6.62.24-28.4.24-55.39a68.5,68.5,0,0,0-1.51-14.78c-2.31-10.71-7.06-18.19-12.19-22.61,45-5,92.19-22.08,92.19-99.65,0-22-7.82-40.06-20.76-54.17,1.91-4.69,4-29.44-3.48-53.73,3.6-2.84,13.27,4.82,13,7.28,11,27.79,4.08,48.32,2,53.44,13,14.11,20.77,32.13,20.77,54.18C427.23,599.62,380,616.7,335,621.7Z"></path><path class="cls-12" d="M949.17,580.79A6.72,6.72,0,0,1,958,587.7l-3.52,44.36L918.74,764.51l.89,4.16-365.54,4.71a10,10,0,0,1-3.39-.62,6.81,6.81,0,0,0-2.27-.42H545.7l-.19-.18L510,739.07a6.72,6.72,0,0,1,2.43-11.3L544.54,717l254.39-85.6Z"></path><path class="cls-13" d="M690.56,839.76l-1.4,90.13a2.62,2.62,0,0,0,4.74,1.59L917.47,625.69a2.63,2.63,0,0,0-4-3.44L691.36,837.91A2.64,2.64,0,0,0,690.56,839.76Z"></path><path class="cls-14" d="M937.66,610.12l-153,201.71-60,79.09L693.9,931.49a2.62,2.62,0,0,1-4.74-1.6l22.2-69.34a1.62,1.62,0,0,1,0-.22,2.64,2.64,0,0,1,.78-1.61l26-29.63L933.71,606.68A2.63,2.63,0,0,1,937.66,610.12Z"></path><path class="cls-15" d="M784.66,811.83l-60,79.09-13.3-30.59-.72-1.66s13.18-14.08,27.54-29.58c17.14-18.49,36-39,36.17-40.07S780.14,799.39,784.66,811.83Z"></path><path class="cls-16" d="M944,589.14,693.91,839.2a1.59,1.59,0,0,1-1.9.26L540.23,755.38a1.59,1.59,0,0,1,.16-2.86l401.85-166A1.59,1.59,0,0,1,944,589.14Z"></path><path class="cls-14" d="M944.05,587.36,710.93,855.18a1.12,1.12,0,0,0,.37,1.76l170.24,78.72a1.12,1.12,0,0,0,1.56-.79L946,588.32A1.12,1.12,0,0,0,944.05,587.36Z"></path><path class="cls-11" d="M944,589.13l-6.22,6.22c.09-.59.12-.89.12-.89L563.1,756.37l134.48,75.51,1.65,2-5.32,5.32a1.6,1.6,0,0,1-1.9.26L540.23,755.38a1.59,1.59,0,0,1,.17-2.86l401.84-166A1.59,1.59,0,0,1,944,589.13Z"></path><path class="cls-11" d="M946,588.33l-.12.59c-32.05,39.74-219,262.3-219,262.3L885,924.69l-1.85,10.17a1.12,1.12,0,0,1-1.57.8L711.3,856.93a1.11,1.11,0,0,1-.37-1.75L944.06,587.36A1.11,1.11,0,0,1,946,588.33Z"></path><rect class="cls-17" width="1080" height="1080"></rect></g></g></g></svg>