<svg xmlns="http://www.w3.org/2000/svg" xmlns:xlink="http://www.w3.org/1999/xlink" width="603.659" height="553.054" viewBox="0 0 603.659 553.054"><defs><clipPath id="a"><path d="M553.237,353.488A184.913,184.913,0,0,1,406,496.074c-37.2,6.847-72.873,2.712-104.4-9.732q-5-1.971-9.853-4.221a114.99,114.99,0,0,0-72.766-7.611,182.522,182.522,0,0,1-55.276,3.381A179.325,179.325,0,0,1,48.768,421.739h0a180.455,180.455,0,0,1,66.466-291.623A66.556,66.556,0,0,0,153.08,92.709,147.054,147.054,0,0,1,289.746,0q5.537,0,11.013.431h0A146.971,146.971,0,0,1,407.21,58.557a48.377,48.377,0,0,0,17.722,14.471,50.783,50.783,0,0,0,24.005,4.942q2-.078,4.027-.069,3.613,0,7.162.31l.832.073A92.27,92.27,0,0,1,541.539,194.5c-.108.41-.224.806-.336,1.207a68.213,68.213,0,0,0-1.669,30.012,73.625,73.625,0,0,0,4.441,15.855,186.567,186.567,0,0,1,13.6,64.34A196.58,196.58,0,0,1,553.237,353.488Z" transform="translate(-0.006)" fill="none"></path></clipPath></defs><g transform="translate(-952.341 -154.574)"><ellipse cx="203" cy="18" rx="203" ry="18" transform="translate(1056 627)" fill="#eee8dd" opacity="0.45"></ellipse><ellipse cx="31.5" cy="7.5" rx="31.5" ry="7.5" transform="translate(1117.34 633.074)" fill="#ff603d" opacity="0.24"></ellipse><ellipse cx="32" cy="7.5" rx="32" ry="7.5" transform="translate(1335.34 633.074)" fill="#ff603d" opacity="0.24"></ellipse><g transform="translate(80.99 -103.449)"><path d="M934.567,806.654q-1.285.234-2.61.357a28.828,28.828,0,1,1,22.388-43.077c.856-.155,1.732-.277,2.616-.357a28.825,28.825,0,1,1-22.394,43.077Z" transform="translate(-9.547 -160.821)" fill="#ebf0f5" stroke="#24313e" stroke-miterlimit="10" stroke-width="0.845"></path><path d="M1030.969,904.713s-119.328,2.112-138.414-5.954c-18.548-7.838-25.424-30.644-16.146-42.942a31.185,31.185,0,0,1,10.307-8.995,25.083,25.083,0,1,1,30.611,13.926c2.287,11.814-10.233,17.8,11.639,20.19,24.737,2.7,41.913-.383,54.628,5.8S1030.969,904.713,1030.969,904.713Z" transform="translate(-0.31 -181.206)" fill="#d9dee5" stroke="#24313e" stroke-miterlimit="10" stroke-width="0.847"></path><path d="M1545.307,934.265s30.169-14.684,55.676-23.4c37.617-12.862,49.124-13.6,63.1-12.84,23.709,1.293,19.218,33.95,1.707,35.45s-16.776-14.8-33.231-9.141-10.927,13.422-23.091,16.236C1593.539,944.251,1592.236,925.95,1545.307,934.265Z" transform="translate(-220.545 -209.365)" fill="#d9dee5" stroke="#24313e" stroke-miterlimit="10" stroke-width="0.847"></path><path d="M1640.631,806.011c-.227.949-.5,1.9-.814,2.841a32.336,32.336,0,1,1-34.1-42.458c.227-.949.5-1.9.816-2.846a32.333,32.333,0,1,1,34.1,42.463Z" transform="translate(-230.858 -158.216)" fill="#ebf0f5" stroke="#24313e" stroke-miterlimit="10" stroke-width="0.845"></path><path d="M1493.648,873.692a16.257,16.257,0,0,1-.088,1.729.679.679,0,0,1-.02.168,80.886,80.886,0,0,0-9.082,13.63c-3.169,6.048-5.846,13.348-5.463,20.317.875,15.891-16.187,23.2-16.7,23.412.478-.444,13.159-12.177,3.929-27.5-.767-1.271-1.467-2.543-2.113-3.8-.222.35-.451.686-.679,1.023-7.6,10.932-15.527,10.953-15.527,10.953,8.3-7.474,6.835-10.811,7.387-23.425s-6.707-15.265,2.341-28.983c5.631-8.544,9.022-7.454,11.161-3.727a17.71,17.71,0,0,1,24.859,16.2Z" transform="translate(-188.669 -195.256)" fill="#ff4451" stroke="#24313e" stroke-miterlimit="10" stroke-width="1.008"></path><path d="M1495.431,915.675s7.563-2.405,11.513-15.116.172-31.606-3.435-37.79-10.067-15.8-14.567,0,3.22,16.146,6.489,28.342S1501.095,906.056,1495.431,915.675Z" transform="translate(-201.65 -195.08)" fill="#ff603d" stroke="#24313e" stroke-miterlimit="10" stroke-width="1.008"></path><path d="M1173.245,921.624c-.363-.148-12.17-5.207-11.565-16.207a.58.58,0,0,1,.007-.108A34.706,34.706,0,0,0,1159,919.572c.875,15.891-16.187,23.2-16.7,23.412.478-.444,13.159-12.177,3.929-27.5-9.405-15.615-9.183-30.759-7.643-35.226a17.707,17.707,0,0,1,26.211-11.874,12.26,12.26,0,0,1,11.026,9.816c1.063,3.095,1.218,13.576-5.295,24.388C1164.136,913.194,1172.916,921.314,1173.245,921.624Z" transform="translate(-87.183 -198.96)" fill="#ff4451" stroke="#24313e" stroke-miterlimit="10" stroke-width="1.008"></path><path d="M1127.613,876.942a11.02,11.02,0,0,0-.268,1.168.476.476,0,0,0-.019.116,55.974,55.974,0,0,1,3.473,10.793c.967,4.627,1.37,9.994-.2,14.563-3.585,10.417,6.4,18.507,6.7,18.748-.234-.386-6.462-10.6,2.579-19.053,9.215-8.621,11.929-18.748,11.747-22.014a12.257,12.257,0,0,0-24.01-4.32Z" transform="translate(-83.765 -199.617)" fill="#ff603d" stroke="#24313e" stroke-miterlimit="10" stroke-width="1.008"></path><path d="M1188.044,893.953s-.034.04-.108.121a.679.679,0,0,0,.02-.168A.485.485,0,0,1,1188.044,893.953Z" transform="translate(-103.599 -208.086)" fill="#0c7ff2" stroke="#24313e" stroke-miterlimit="10" stroke-width="0.426"></path><path d="M1388.363,481.3v6.329h6.091Z" transform="translate(-169.187 -73.066)" fill="#2e2141"></path><path d="M1437.058,357.719h12.016a2.528,2.528,0,0,1,2.528,2.528h0a2.528,2.528,0,0,1-2.528,2.529h-12.016a2.529,2.529,0,0,1-2.529-2.529h0A2.529,2.529,0,0,1,1437.058,357.719Z" transform="translate(-184.294 -32.624)" fill="#787184"></path><path d="M1436.261,370.651h15.869a2.528,2.528,0,0,1,2.528,2.529h0a2.528,2.528,0,0,1-2.528,2.528h-15.869a2.529,2.529,0,0,1-2.528-2.528h0A2.529,2.529,0,0,1,1436.261,370.651Z" transform="translate(-184.033 -36.856)" fill="#787184"></path><path d="M1504.742,345.71h20.509a3.192,3.192,0,0,1,3.193,3.188h0a3.188,3.188,0,0,1-3.193,3.183h-20.509a3.183,3.183,0,0,1-3.188-3.178v0h0A3.188,3.188,0,0,1,1504.742,345.71Z" transform="translate(-206.227 -28.694)" fill="#fff"></path><path d="M1511.529,360.081h20.5a3.188,3.188,0,0,1,3.192,3.184h0a3.188,3.188,0,0,1-3.188,3.188h-20.508a3.188,3.188,0,0,1-3.193-3.184v0h0a3.188,3.188,0,0,1,3.192-3.184Z" transform="translate(-208.447 -33.397)" fill="#fff"></path><path d="M1286.023,554.9l-54.641,76.478a22.533,22.533,0,0,1-27.945,12.5c-10.383-3.643-17.154-14.707-3.226-45.068,0,0,26.594-73.194,41.121-75.9S1298.826,525.51,1286.023,554.9Z" transform="translate(-105.04 -86.475)" fill="#031439"></path><path d="M1311.747,553.9l54.6,77.43a22.558,22.558,0,0,0,27.956,12.5c10.376-3.643,17.667-14.768,3.739-45.2,0,0-27.117-73.079-41.633-75.809S1298.9,524.517,1311.747,553.9Z" transform="translate(-143.341 -86.425)" fill="#031439"></path><path d="M1175.553,662.317l-26.789,94.993a20.273,20.273,0,0,0,12.5,24.669c9.677,3.41,22.173-.522,32.672-31.1l23.962-88.784a31.479,31.479,0,0,0-5-27.084c-7.12-9.521-18.976-13.629-35.025,20.95a41.791,41.791,0,0,0-2.274,6.3Z" transform="translate(-90.518 -121.173)" fill="#031439"></path><path d="M1438.1,662.317l26.784,94.993a20.272,20.272,0,0,1-12.5,24.669c-9.677,3.41-22.173-.522-32.672-31.1l-23.953-88.784a31.469,31.469,0,0,1,5-27.084c7.12-9.521,18.976-13.629,35.02,20.95a40.826,40.826,0,0,1,2.275,6.305Z" transform="translate(-171.235 -121.173)" fill="#031439"></path><path d="M1204.744,654.84h0a4.972,4.972,0,0,1,3.8,5.916h0l-12.329,56.62a5,5,0,0,1-5.934,3.8h0a5,5,0,0,1-3.8-5.933l12.334-56.629A4.986,4.986,0,0,1,1204.744,654.84Z" transform="translate(-103.086 -129.816)" fill="#22416d"></path><path d="M1239.273,666.966h0a4.991,4.991,0,0,1,3.8,5.933l-12.334,56.616a4.976,4.976,0,0,1-5.916,3.795h0a4.991,4.991,0,0,1-3.8-5.933l12.335-56.619A4.989,4.989,0,0,1,1239.273,666.966Z" transform="translate(-114.389 -133.785)" fill="#22416d"></path><path d="M1445.027,720.812h0a4.976,4.976,0,0,1-6.23-3.263h0l-17.221-55.324a4.981,4.981,0,0,1,3.212-6.269l.051-.016h0a4.986,4.986,0,0,1,6.238,3.288l.01.033h0l17.23,55.306A5,5,0,0,1,1445.027,720.812Z" transform="translate(-179.976 -130.14)" fill="#22416d"></path><path d="M1409.473,733.073a5.006,5.006,0,0,1-6.053-3.605h0l-14.3-56.163a4.989,4.989,0,0,1,9.542-2.913,4.385,4.385,0,0,1,.119.474l14.355,56.122a4.981,4.981,0,0,1-3.591,6.06l-.006,0h0Z" transform="translate(-169.362 -133.787)" fill="#22416d"></path><path d="M1197.807,643.8h0a9.2,9.2,0,0,1,5.538,11.779h0v.034l-11.817,32.638a9.2,9.2,0,0,1-11.768,5.509h0a9.2,9.2,0,0,1-5.522-11.768h0l11.823-32.619a9.188,9.188,0,0,1,11.727-5.575Z" transform="translate(-98.937 -126.067)" fill="#0c7ff2" stroke="#24313e" stroke-miterlimit="10" stroke-width="0.426"></path><path d="M1241.863,659.8h0a9.2,9.2,0,0,1,5.54,11.767l0,.008h0l-11.861,32.65a9.189,9.189,0,0,1-11.746,5.48h0a9.2,9.2,0,0,1-5.531-11.779h0l11.8-32.648a9.189,9.189,0,0,1,11.783-5.48l.015.006Z" transform="translate(-113.343 -131.293)" fill="#0c7ff2" stroke="#24313e" stroke-miterlimit="10" stroke-width="0.426"></path><path d="M1236.255,696h0a2.713,2.713,0,0,1,1.623,3.477l-5.888,16.179a2.724,2.724,0,0,1-3.478,1.623h0a2.709,2.709,0,0,1-1.624-3.469v0l5.888-16.169A2.728,2.728,0,0,1,1236.255,696Z" transform="translate(-116.292 -143.273)" fill="#031439"></path><rect width="3.006" height="38.309" rx="1.503" transform="matrix(0.942, 0.336, -0.336, 0.942, 1089.103, 520.635)" fill="#fff" opacity="0.37"></rect><rect width="3.006" height="39.973" rx="1.503" transform="translate(1118.583 531.16) rotate(19.648)" fill="#fff" opacity="0.37"></rect><path d="M1231.547,611.071h0c12.352,4.147,8.827,38.426,8.827,38.426-4.468,11.485-14.908,19.569-27.249,15.423l-1.317.114c-12.35-4.144-17.825-13.557-15.13-26.869l2.757-6.045c4.424-11.512,19.7-25.177,32.062-21.063Z" transform="translate(-106.24 -115.281)" fill="#24313e" stroke="#24313e" stroke-miterlimit="10" stroke-width="0.457" opacity="0.33" style="mix-blend-mode:multiply;isolation:isolate"></path><path d="M1232.087,606.6h0a22.135,22.135,0,0,1,13.315,28.331l0,.009V635l-4.189,11.551a22.135,22.135,0,0,1-28.326,13.283h0a22.131,22.131,0,0,1-13.318-28.323v0h0l4.17-11.528a22.146,22.146,0,0,1,28.3-13.393Z" transform="translate(-106.974 -113.64)" fill="#0c7ff2" stroke="#24313e" stroke-miterlimit="10" stroke-width="0.426"></path><path d="M1142.156,805.639c-2.744-1.731-6.709-7.14,7.57-22.55a25.185,25.185,0,0,0,4.232-6.189c1.931-4.1,6.838-11.032,17.832-11.051a26.455,26.455,0,0,1,24.055,16.055c3.825,8.665,5.757,21.612-2.178,38.362-.239.5-.466,1.017-.687,1.529-1.036,2.42-6.021,11.983-19.954,10.6l-26.062-23.2a34.365,34.365,0,0,0-4.8-3.558Z" transform="translate(-87.743 -166.18)" fill="#22416d"></path><path d="M1141.855,802.014h0c.9.653,2.579-4,3.991-5.906l12.342-13.741,4.008-8.245c1.411-1.9,4.658-3.935,3.762-4.588h0c-.9-.653-4.641,1.884-6.052,3.786l-4.14,7.53L1143.269,795C1141.858,796.9,1140.958,801.361,1141.855,802.014Z" transform="translate(-88.402 -167.352)" fill="#fff" opacity="0.37" style="mix-blend-mode:overlay;isolation:isolate"></path><path d="M1178.333,822.929c6.883,11.2,9.341,22.315,2.583,25.748s-17.818-2.866-24.7-14.07-3.061-24.9,3.939-27.9C1170.745,802.172,1171.449,811.726,1178.333,822.929Z" transform="translate(-92.032 -179.174)" fill="#24313e" stroke="#24313e" stroke-miterlimit="10" stroke-width="0.441" opacity="0.33" style="mix-blend-mode:multiply;isolation:isolate"></path><path d="M1224.355,629.561a14.431,14.431,0,1,1-14.431,14.431h0A14.438,14.438,0,0,1,1224.355,629.561Z" transform="translate(-110.794 -121.582)" fill="#22416d"></path><path d="M1220.584,642.779,1235,646.945a2.88,2.88,0,1,1-1.391,5.589c-.067-.017-.133-.036-.2-.057l-14.426-4.146a2.885,2.885,0,0,1,1.6-5.532Z" transform="translate(-113.133 -125.891)" fill="#031439"></path><circle cx="3.031" cy="3.031" r="3.031" transform="translate(1118.718 495.512)" fill="#031439"></circle><circle cx="6.362" cy="6.362" r="6.362" transform="translate(1077.716 552.573)" fill="#031439"></circle><path d="M1264.624,463.358l6.817,23.217,67.958,5.351,6.23-28.568S1309.985,422.583,1264.624,463.358Z" transform="translate(-128.694 -61.263)" fill="#031439"></path><path d="M1254.429,294.956h0a12.965,12.965,0,0,1,14.536,11.158l6.111,46.577a12.961,12.961,0,0,1-11.162,14.537h0a12.961,12.961,0,0,1-14.537-11.163h0l-6.11-46.577A12.96,12.96,0,0,1,1254.429,294.956Z" transform="translate(-121.669 -12.049)" fill="#031439"></path><rect width="3.503" height="27.47" rx="1.751" transform="translate(1140.041 289.156) rotate(-11.023)" fill="#fff" opacity="0.37"></rect><path d="M1374.3,353.316l6.092-46.6a12.983,12.983,0,0,1,14.536-11.2h0a12.984,12.984,0,0,1,11.189,14.559l-6.093,46.6a12.98,12.98,0,0,1-14.549,11.191h0a12.974,12.974,0,0,1-11.174-14.553Z" transform="translate(-164.55 -12.234)" fill="#031439"></path><rect width="3.503" height="27.469" rx="1.751" transform="translate(1217.472 318.945) rotate(-171.289)" fill="#fff" opacity="0.37"></rect><path d="M1223.477,297s-27.108,5.6-25.063-17.377c0,0-22.438-2.159-20.134,26.514l-.156,10.963h48.146V301.532H1223.5Z" transform="translate(-100.385 -7.055)" fill="#031439"></path><g transform="translate(1078.234 273.143)" opacity="0.37"><path d="M1179.2,305.652c-.392-.749-.154-.6-.193-.942-.022-.186-2.507-19.569,13.946-23.814.7-.182,4.137-.675,4.68-.2a2.151,2.151,0,0,1,.708,1.891,14,14,0,0,0,3.467,11.031c4.041,4.265,11.606,6,22.485,5.174a.673.673,0,1,1,.1,1.341c-11.3.865-19.232-1.016-23.565-5.59a15.33,15.33,0,0,1-3.825-12.132.793.793,0,0,0-.266-.708,15.374,15.374,0,0,0-3.453.49c-15.826,5.253-13.14,22.778-13.06,23.487.042.369-.583-.081-.951-.038A.77.77,0,0,1,1179.2,305.652Z" transform="translate(-1178.865 -280.497)" fill="#fff"></path></g><path d="M1418.207,297s27.107,5.579,25.086-17.377c0,0,22.425-2.159,20.119,26.514l.172,10.963h-48.171V301.532h2.795Z" transform="translate(-178.038 -7.055)" fill="#031439"></path><g transform="translate(1238.549 273.143)" opacity="0.37"><path d="M1463.371,306.775c.392-.749.154-.6.193-.942.022-.186,2.785-20.692-13.668-24.937-.7-.182-4.137-.675-4.68-.2a2.151,2.151,0,0,0-.708,1.891c.326,2.48-.675,7.375-4.14,11.031-4.041,4.265-11.606,6-22.485,5.174a.673.673,0,1,0-.1,1.341c11.3.865,19.231-1.016,23.565-5.59,3.848-4.061,4.853-9.414,4.5-12.132a.793.793,0,0,1,.266-.708,15.375,15.375,0,0,1,3.453.49c15.826,5.253,12.862,23.9,12.781,24.61-.042.369.583-.081.951-.038A.767.767,0,0,0,1463.371,306.775Z" transform="translate(-1417.158 -280.497)" fill="#fff"></path></g><path d="M1368.758,345.559a135.355,135.355,0,0,1-1.245,17.909c-4.265,31.922-19.073,65.675-37.439,83.94a12.983,12.983,0,0,1-4.931,2.738h-.007a5.6,5.6,0,0,1-1.419.2h-1.285a1.6,1.6,0,0,1-.437-.061.025.025,0,0,1-.02-.007,1.424,1.424,0,0,1-.955-1.769l5.382-20.055a.052.052,0,0,0,.007-.02,1.428,1.428,0,0,0-.357-1.379c-4.608-4.8-37.163-35.912-77.8,0a1.437,1.437,0,0,0-.431,1.494l5.833,19.92a1.2,1.2,0,0,1,.013.215,1.233,1.233,0,0,1-.013.222v.027a1.42,1.42,0,0,1-1.426,1.393h-.027a8.237,8.237,0,0,1-1.48-.135,11.893,11.893,0,0,1-6.64-4.185c-10.589-12.648-19.261-29.763-25.276-47.712s-9.4-36.746-9.4-52.744v-.007a9.811,9.811,0,0,1,6.5-9.23,9.97,9.97,0,0,1,3.31-.565h139.726l.013.007a9.808,9.808,0,0,1,9.8,9.8Z" transform="translate(-110.625 -25.435)" fill="#0c7ff2" stroke="#24313e" stroke-miterlimit="10" stroke-width="0.426"></path><path d="M1253.669,442.858a1.233,1.233,0,0,1-.013.222v.027a1.42,1.42,0,0,1-1.426,1.393h-.027a8.237,8.237,0,0,1-1.48-.135,11.893,11.893,0,0,1-6.64-4.185c-10.589-12.648-19.261-29.763-25.276-47.712s-9.4-36.746-9.4-52.744v-.007c0-4.252,4.335-20.419,8.122-21.778l30.723,103.29a1.437,1.437,0,0,0-.431,1.494l5.833,19.92A1.2,1.2,0,0,1,1253.669,442.858Z" transform="translate(-110.625 -19.607)" fill="#24313e" stroke="#24313e" stroke-miterlimit="10" stroke-width="0.434" opacity="0.33" style="mix-blend-mode:multiply;isolation:isolate"></path><path d="M1375.025,450.468a1.132,1.132,0,0,0,.015.222v.027c.015.78-.149.531.706.531h.03a10.031,10.031,0,0,0,1.635-.135c2.883-.464,5.248-1.066,7.247-3.125,11.7-12.648,21.274-29.763,27.917-47.712,6.658-17.956,10.381-36.746,10.381-52.744v-.007a9.924,9.924,0,0,0-7.178-9.23l-35.529,89.595a.987.987,0,0,1,.381,1.257l-5.589,21.105A1.1,1.1,0,0,0,1375.025,450.468Z" transform="translate(-164.822 -26.268)" fill="#24313e" stroke="#24313e" stroke-miterlimit="10" stroke-width="0.457" opacity="0.33" style="mix-blend-mode:multiply;isolation:isolate"></path><rect width="143.331" height="2.081" rx="1.041" transform="translate(1106.905 310.904)" fill="#fff" opacity="0.37"></rect><path d="M1246.149,368.1h42.027a2.7,2.7,0,0,1,2.7,2.694h0a2.718,2.718,0,0,1-2.7,2.7h-42.027a2.709,2.709,0,0,1-2.7-2.7h0A2.7,2.7,0,0,1,1246.149,368.1Z" transform="translate(-121.767 -36.021)" fill="#24313e" stroke="#24313e" stroke-miterlimit="10" stroke-width="0.426"></path><path d="M1246.149,381.037h42.027a2.713,2.713,0,0,1,2.7,2.7h0a2.7,2.7,0,0,1-2.7,2.69h-42.027a2.69,2.69,0,0,1-2.7-2.685v0h0A2.7,2.7,0,0,1,1246.149,381.037Z" transform="translate(-121.767 -40.255)" fill="#24313e" stroke="#24313e" stroke-miterlimit="10" stroke-width="0.426"></path><path d="M1291.218,396.678a2.711,2.711,0,0,1-2.7,2.7h-42.027a2.809,2.809,0,0,1-.679-.087l-1.319-4.42a2.709,2.709,0,0,1,1.991-.895h42.034A2.708,2.708,0,0,1,1291.218,396.678Z" transform="translate(-122.105 -44.49)" fill="#24313e" stroke="#24313e" stroke-miterlimit="10" stroke-width="0.426"></path><path d="M1292.35,409.625a2.72,2.72,0,0,1-.8,1.9,2.684,2.684,0,0,1-1.9.787h-40.1l-1.6-5.4h41.7A2.718,2.718,0,0,1,1292.35,409.625Z" transform="translate(-123.237 -48.725)" fill="#24313e" stroke="#24313e" stroke-miterlimit="10" stroke-width="0.426"></path><path d="M1293.61,422.568a2.7,2.7,0,0,1-2.7,2.7h-37.5l-1.608-5.4h39.108A2.7,2.7,0,0,1,1293.61,422.568Z" transform="translate(-124.497 -52.962)" fill="#24313e" stroke="#24313e" stroke-miterlimit="10" stroke-width="0.426"></path><path d="M1345.395,381.039h42.037a2.714,2.714,0,0,1,2.7,2.7h0a2.709,2.709,0,0,1-2.7,2.69h-42.037a2.69,2.69,0,0,1-2.69-2.69h0A2.7,2.7,0,0,1,1345.395,381.039Z" transform="translate(-154.245 -40.255)" fill="#24313e" stroke="#24313e" stroke-miterlimit="10" stroke-width="0.426"></path><path d="M1390.138,396.678a2.714,2.714,0,0,1-1.843,2.563,2.6,2.6,0,0,1-.861.141h-42.041a2.689,2.689,0,0,1-2.684-2.691v-.02a2.7,2.7,0,0,1,2.671-2.691h42.054a2.72,2.72,0,0,1,2.361,1.4c.007.013.013.02.02.034.02.047.067.141.128.283A2.507,2.507,0,0,1,1390.138,396.678Z" transform="translate(-154.246 -44.49)" fill="#24313e" stroke="#24313e" stroke-miterlimit="10" stroke-width="0.426"></path><path d="M1390.138,409.625a2.719,2.719,0,0,1-.8,1.9,2.684,2.684,0,0,1-1.9.787h-42.041a2.689,2.689,0,0,1-2.684-2.691v-.013a2.7,2.7,0,0,1,2.684-2.691h42.041A2.718,2.718,0,0,1,1390.138,409.625Z" transform="translate(-154.246 -48.725)" fill="#24313e" stroke="#24313e" stroke-miterlimit="10" stroke-width="0.426"></path><path d="M1390.138,422.568a2.7,2.7,0,0,1-2.7,2.7h-42.041a2.688,2.688,0,0,1-2.684-2.684v-.02a2.691,2.691,0,0,1,2.671-2.691h42.054A2.708,2.708,0,0,1,1390.138,422.568Z" transform="translate(-154.246 -52.962)" fill="#24313e" stroke="#24313e" stroke-miterlimit="10" stroke-width="0.426"></path><path d="M1345.833,368.091h42.028a2.7,2.7,0,0,1,2.7,2.68h0a2.7,2.7,0,0,1-2.7,2.7h-42.028a2.7,2.7,0,0,1-2.7-2.7h0a2.689,2.689,0,0,1,2.684-2.694h.005Z" transform="translate(-154.385 -36.013)" fill="#24313e" stroke="#24313e" stroke-miterlimit="10" stroke-width="0.426"></path><path d="M1129.047,391.4l7.785-12.059a17.832,17.832,0,0,1,24.646-5.347l.023.015h0a17.837,17.837,0,0,1,5.326,24.657l-.007.011-7.78,12.055a17.833,17.833,0,0,1-24.649,5.331l-.02-.013h0A17.832,17.832,0,0,1,1129.047,391.4Z" transform="translate(-83.396 -37.021)" fill="#031439"></path><path d="M1159.268,411.713l2.941-6.076a13.961,13.961,0,0,1,18.635-6.452h0a13.961,13.961,0,0,1,6.451,18.644l-2.956,6.068a13.924,13.924,0,0,1-18.6,6.458l0,0h0a13.932,13.932,0,0,1-6.456-18.611Z" transform="translate(-93.763 -45.736)" fill="#0c7ff2" stroke="#24313e" stroke-miterlimit="10" stroke-width="0.426"></path><rect width="4.936" height="18.822" rx="2.468" transform="matrix(0.921, 0.388, -0.388, 0.921, 1071.958, 355.365)" fill="#fff" opacity="0.37"></rect><path d="M1484.493,815.2c2.735-1.715,6.685-7.116-7.536-22.474a24.573,24.573,0,0,1-4.244-6.168c-1.906-4.087-6.815-10.994-17.76-11.014a26.364,26.364,0,0,0-23.977,16c-3.812,8.635-5.737,21.535,2.164,38.232.238.511.465,1.013.686,1.524,1.032,2.412,6.011,11.951,19.894,10.575l25.973-23.142a34.487,34.487,0,0,1,4.8-3.532Z" transform="translate(-182.048 -169.352)" fill="#22416d"></path><path d="M1458.277,822.213c-8.118,12.968-11.777,25.854-5.352,29.875s18.214-3.23,26.332-16.2,5.741-28.887-.973-32.406C1468.125,798.16,1466.395,809.246,1458.277,822.213Z" transform="translate(-189.24 -178.049)" fill="#24313e" stroke="#24313e" stroke-miterlimit="10" stroke-width="0.457" opacity="0.33" style="mix-blend-mode:multiply;isolation:isolate"></path><path d="M1489.817,815.464,1502.45,841.5a13.378,13.378,0,0,1-12.031,19.224h-25.276a13.388,13.388,0,0,1-12.044-19.2l12.633-26.03a13.373,13.373,0,0,1,24.086,0Z" transform="translate(-189.936 -179.953)" fill="#0c7ff2" stroke="#24313e" stroke-miterlimit="10" stroke-width="0.426"></path><path d="M1496.9,812.359h0c-.966.489-.894,2.607.161,4.729l14.195,28.563c1.055,2.122,2.693,3.446,3.659,2.957h0c.966-.49.894-2.607-.161-4.73l-14.195-28.563C1499.5,813.193,1497.864,811.87,1496.9,812.359Z" transform="translate(-204.481 -181.367)" fill="#fff" opacity="0.37"></path><path d="M1491.811,845.845l8.064,16.647a8.539,8.539,0,0,1-7.591,12.277h-16.242a8.539,8.539,0,0,1-7.633-12.277l8.064-16.647a8.539,8.539,0,0,1,15.371,0Z" transform="translate(-195.099 -190.781)" fill="#031439"></path><path d="M1189.721,342.622h0a18.369,18.369,0,0,1,18.369,18.368h0v7.267a18.369,18.369,0,0,1-18.354,18.384h-.015a18.369,18.369,0,0,1-18.368-18.369h0V360.99a18.363,18.363,0,0,1,18.358-18.368Z" transform="translate(-98.172 -27.684)" fill="#031439"></path><path d="M5.654,0H46.568a5.654,5.654,0,0,1,5.654,5.654v7.883a5.654,5.654,0,0,1-5.654,5.654H9.946A9.946,9.946,0,0,1,0,9.244V5.654A5.654,5.654,0,0,1,5.654,0Z" transform="translate(1074.711 305.176)" fill="#24313e" stroke="#24313e" stroke-miterlimit="10" stroke-width="0.789" opacity="0.33" style="mix-blend-mode:multiply;isolation:isolate"></path><path d="M1218.387,342.463h-49.142a4.036,4.036,0,0,1-4.033-4.037h0V320.4a4.037,4.037,0,0,1,4.033-4.023l49.142,6.66a4.042,4.042,0,0,1,4.033,4.033v11.36A4.047,4.047,0,0,1,1218.387,342.463Z" transform="translate(-96.163 -19.095)" fill="#0c7ff2" stroke="#24313e" stroke-miterlimit="10" stroke-width="0.426"></path><g transform="translate(1071.552 298.332)" opacity="0.37"><path d="M1169.808,319.946l49.9,6.512a1.96,1.96,0,0,1,1.668,1.931v9.97a1.952,1.952,0,0,1-.155.767l1.971.478a3.8,3.8,0,0,0,.2-1.245v-9.97a3.987,3.987,0,0,0-3.411-3.929l-49.912-6.512a1.008,1.008,0,1,0-.262,2Z" transform="translate(-1168.932 -317.939)" fill="#fff"></path></g><path d="M1.382,0H48.837A1.382,1.382,0,0,1,50.22,1.382V12.976a1.382,1.382,0,0,1-1.382,1.382H5.675A5.675,5.675,0,0,1,0,8.684v-7.3A1.382,1.382,0,0,1,1.382,0Z" transform="translate(1235.09 310.042)" fill="#24313e" stroke="#24313e" stroke-miterlimit="10" stroke-width="0.67" opacity="0.33" style="mix-blend-mode:multiply;isolation:isolate"></path><path d="M1117.57,393.467h0c-8.586-.4-14.393-7.747-13.971-16.339l.948-39.759a11.921,11.921,0,0,1,12.425-11.337l6.238.3a13.136,13.136,0,0,1,12.5,13.71l-4.549,38.625C1130.786,387.161,1126.153,393.908,1117.57,393.467Z" transform="translate(-75.994 -22.251)" fill="#0c7ff2" stroke="#24313e" stroke-miterlimit="10" stroke-width="0.426"></path><path d="M1124.067,458.238h5.256a9.237,9.237,0,0,1,9.246,9.226h0v39.18a9.232,9.232,0,0,1-9.218,9.242h-5.284a9.237,9.237,0,0,1-9.232-9.236V467.5a9.237,9.237,0,0,1,9.232-9.236Z" transform="translate(-79.677 -65.518)" fill="#031439"></path><path d="M1124.116,428.869l17.254,3.771a13.852,13.852,0,0,1,10.581,16.481h0a13.856,13.856,0,0,1-16.485,10.56l-17.244-3.757a13.862,13.862,0,0,1-10.589-16.486h0A13.862,13.862,0,0,1,1124.116,428.869Z" transform="translate(-77.216 -55.803)" fill="#22416d"></path><circle cx="24.63" cy="24.63" r="24.63" transform="translate(1025.916 431.681)" fill="#031439"></circle><circle cx="24.64" cy="24.64" r="24.64" transform="translate(1025.779 433.561)" fill="#22416d"></circle><ellipse cx="7.064" cy="9.284" rx="7.064" ry="9.284" transform="translate(1057.205 440.944) rotate(-29.478)" fill="#24313e" stroke="#24313e" stroke-miterlimit="10" stroke-width="0.434" opacity="0.33" style="mix-blend-mode:multiply;isolation:isolate"></ellipse><circle cx="8.715" cy="8.715" r="8.715" transform="translate(1063.218 434.002)" fill="#0c7ff2"></circle><path d="M1114.709,558.658l2.386-.781a10.742,10.742,0,0,0,6.866-13.552l-11.109-27.788a10.742,10.742,0,0,0-13.552-6.866l-2.386.782c-5.638,1.846-6.593,8.248-4.747,13.886l8.989,27.453A10.742,10.742,0,0,0,1114.709,558.658Z" transform="translate(-71.98 -82.174)" fill="#24313e" stroke="#24313e" stroke-miterlimit="10" stroke-width="0.434" opacity="0.33" style="mix-blend-mode:multiply;isolation:isolate"></path><path d="M1055,448.045l19.451-5.92s10.521-3.729,15.28,19.654l18.075,57.73a11.428,11.428,0,0,1-7.12,14.189h0a11.428,11.428,0,0,1-13.829-5.3l-34.934-64.286S1046.2,454.563,1055,448.045Z" transform="translate(-58.492 -60.174)" fill="#0c7ff2" stroke="#24313e" stroke-miterlimit="10" stroke-width="0.426"></path><rect width="77.903" height="2.804" rx="1.173" transform="translate(995.514 398.697) rotate(61.38)" fill="#fff" opacity="0.37"></rect><path d="M1480.838,374.07h0a17.828,17.828,0,0,1,24.651,5.29l.018.028,7.78,12.053a17.838,17.838,0,0,1-5.307,24.662l-.011.007h0a17.828,17.828,0,0,1-24.651-5.29l-.018-.028-7.779-12.055a17.837,17.837,0,0,1,5.307-24.661Z" transform="translate(-196.774 -37.039)" fill="#031439"></path><path d="M1464.1,423.924l-2.941-6.087a13.944,13.944,0,0,1,6.442-18.627h0a13.944,13.944,0,0,1,18.62,6.452l2.955,6.076a13.952,13.952,0,0,1-6.466,18.639h0a13.937,13.937,0,0,1-18.628-6.442l0,0Z" transform="translate(-192.549 -45.744)" fill="#0c7ff2" stroke="#24313e" stroke-miterlimit="10" stroke-width="0.426"></path><rect width="4.936" height="18.821" rx="2.468" transform="translate(1284.214 357.232) rotate(-25.476)" fill="#fff" opacity="0.37"></rect><path d="M1455.933,386.641h0a18.37,18.37,0,0,1-18.379-18.359h0v-7.291a18.363,18.363,0,0,1,18.358-18.369h.006a18.363,18.363,0,0,1,18.373,18.354V361h0v7.283a18.368,18.368,0,0,1-18.373,18.364Z" transform="translate(-185.284 -27.684)" fill="#031439"></path><path d="M1.382,0H48.837A1.382,1.382,0,0,1,50.22,1.382V12.976a1.382,1.382,0,0,1-1.382,1.382H5.675A5.675,5.675,0,0,1,0,8.684v-7.3A1.382,1.382,0,0,1,1.382,0Z" transform="translate(1235.09 310.042)" fill="#24313e" stroke="#24313e" stroke-miterlimit="10" stroke-width="0.67" opacity="0.33" style="mix-blend-mode:multiply;isolation:isolate"></path><path d="M1417.265,342.463h49.13a4.054,4.054,0,0,0,4.038-4.037V320.4a4.055,4.055,0,0,0-4.038-4.023l-49.133,6.66a4.041,4.041,0,0,0-4.033,4.033v11.36A4.037,4.037,0,0,0,1417.265,342.463Z" transform="translate(-177.324 -19.095)" fill="#0c7ff2"></path><g transform="translate(1236.624 297.846)" opacity="0.37"><path d="M1467.883,319.224l-49.9,6.512a1.96,1.96,0,0,0-1.668,1.931v9.97a1.952,1.952,0,0,0,.155.767l-1.971.478a3.8,3.8,0,0,1-.2-1.245v-9.97a3.987,3.987,0,0,1,3.411-3.929l49.912-6.512a1.008,1.008,0,1,1,.262,2Z" transform="translate(-1414.298 -317.217)" fill="#fff"></path></g><path d="M1530.248,393.467h0c8.586-.4,14.394-7.747,13.971-16.339l-.949-39.759a11.93,11.93,0,0,0-12.443-11.337l-6.248.3a13.152,13.152,0,0,0-12.5,13.71l4.549,38.625C1517.059,387.158,1521.651,393.907,1530.248,393.467Z" transform="translate(-209.669 -22.251)" fill="#0c7ff2" stroke="#24313e" stroke-miterlimit="10" stroke-width="0.426"></path><g transform="translate(1311.635 304.623)" opacity="0.37"><path d="M1534.847,392.965a.691.691,0,0,0,.122-.011c13.7-2.531,12.53-15.448,12.438-16.286l-1.037-39.015a10.817,10.817,0,0,0-.928-4.266c-1.559-3.377-6.738-6.1-9.985-6.1l-9.023.428a.673.673,0,0,0,.064,1.344l8.991-.427c2.749,0,7.433,2.5,8.733,5.317a9.491,9.491,0,0,1,.8,3.737l1.043,39.114c.066.507,1.477,12.46-11.344,14.828a.673.673,0,0,0,.122,1.334Z" transform="translate(-1525.794 -327.29)" fill="#fff"></path></g><path d="M1525.216,458.238h0a11.865,11.865,0,0,1,11.865,11.865v33.915a11.865,11.865,0,0,1-11.865,11.865h0a11.865,11.865,0,0,1-11.865-11.865V470.1A11.865,11.865,0,0,1,1525.216,458.238Z" transform="translate(-210.088 -65.518)" fill="#031439"></path><path d="M1523.355,455.948l-17.244,3.738a13.845,13.845,0,0,1-16.481-10.571v0h0a13.853,13.853,0,0,1,10.581-16.466l17.244-3.758a13.845,13.845,0,0,1,16.483,10.566l0,.008h0a13.839,13.839,0,0,1-10.57,16.471Z" transform="translate(-202.221 -55.808)" fill="#22416d"></path><circle cx="24.63" cy="24.63" r="24.63" transform="translate(1286.982 431.649)" fill="#031439"></circle><path d="M1516.81,520.833a24.64,24.64,0,1,1-28.549,19.982h0a24.623,24.623,0,0,1,28.511-19.976Z" transform="translate(-201.753 -85.881)" fill="#22416d"></path><ellipse cx="9.284" cy="7.065" rx="9.284" ry="7.065" transform="translate(1284.06 450.07) rotate(-56.33)" fill="#24313e" stroke="#24313e" stroke-miterlimit="10" stroke-width="0.434" opacity="0.33" style="mix-blend-mode:multiply;isolation:isolate"></ellipse><circle cx="8.715" cy="8.715" r="8.715" transform="translate(1281.507 434.002)" fill="#0c7ff2"></circle><path d="M1579.122,450.294l-19.45-5.907s-10.517-3.729-15.267,19.654l-18.074,57.727a11.357,11.357,0,0,0,7.12,14.179h0a11.385,11.385,0,0,0,13.815-5.327l34.93-64.278S1587.913,456.826,1579.122,450.294Z" transform="translate(-214.159 -60.914)" fill="#0c7ff2" stroke="#24313e" stroke-miterlimit="10" stroke-width="0.426"></path><rect width="77.902" height="2.804" rx="1.173" transform="translate(1367.491 401.953) rotate(117.957)" fill="#fff" opacity="0.37"></rect><circle cx="6.362" cy="6.362" r="6.362" transform="translate(995.651 390.495)" fill="#031439"></circle><circle cx="6.362" cy="6.362" r="6.362" transform="translate(1352.264 391.392)" fill="#031439"></circle><circle cx="3.975" cy="3.975" r="3.975" transform="translate(1004.208 406.207)" fill="#031439"></circle><circle cx="3.975" cy="3.975" r="3.975" transform="translate(1345.925 406.657)" fill="#031439"></circle><path d="M1078.382,499.77h0a2.984,2.984,0,0,1,1.662-3.879h0l13.44-5.361a2.988,2.988,0,0,1,3.885,1.664h0a2.989,2.989,0,0,1-1.664,3.885h0l-13.44,5.361a2.979,2.979,0,0,1-3.875-1.642Z" transform="translate(-67.678 -76.015)" fill="#10244c"></path><path d="M1553.706,494.236h0a2.993,2.993,0,0,1,3.88-1.674h0l13.44,5.371a2.988,2.988,0,0,1,1.671,3.88h0a2.989,2.989,0,0,1-3.881,1.674h0l-13.44-5.375a2.979,2.979,0,0,1-1.681-3.862Z" transform="translate(-223.222 -76.681)" fill="#10244c"></path><path d="M1525.111,379.809h0a2.984,2.984,0,0,1-3.349-2.567v0h0l-3.577-27.377a2.988,2.988,0,0,1,2.508-3.4h.068a2.994,2.994,0,0,1,3.354,2.571h0l3.577,27.377a2.984,2.984,0,0,1-2.5,3.4h-.006Z" transform="translate(-211.659 -28.931)" fill="#031439"></path><path d="M1137.521,343.786h0a3,3,0,0,1,2.571,3.349l-3.586,27.406a2.985,2.985,0,0,1-3.321,2.586h-.071a2.984,2.984,0,0,1-2.586-3.321.29.29,0,0,1,0-.067l3.577-27.377a2.993,2.993,0,0,1,3.4-2.525h.008Z" transform="translate(-84.805 -28.065)" fill="#031439"></path><path d="M1322.422,476.4h-6.167a6.664,6.664,0,0,1-6.641-5.825l-1.035-8.089a6.684,6.684,0,0,1,5.773-7.476q.425-.021.85,0h8.241a6.684,6.684,0,0,1,6.693,6.675v.009a8.4,8.4,0,0,1,0,.844l-1.035,8.109A6.683,6.683,0,0,1,1322.422,476.4Z" transform="translate(-143.06 -64.458)" fill="#22416d" stroke="#1a1a1a" stroke-miterlimit="10" stroke-width="0.5"></path><path d="M1350.671,460.66h0a3,3,0,0,1,2.043,3.7l-4,13.9a3,3,0,0,1-3.706,2.059h0a3,3,0,0,1-2.043-3.7l3.975-13.913a2.989,2.989,0,0,1,3.693-2.055h0Z" transform="translate(-154.294 -66.269)" fill="#22416d" stroke="#1a1a1a" stroke-miterlimit="10" stroke-width="0.5"></path><path d="M1298.778,482.718a2.985,2.985,0,0,1-3.708-2.017v0h0l-4.054-13.895a3,3,0,0,1,5.749-1.681l4.037,13.895a3,3,0,0,1-2.035,3.7Z" transform="translate(-137.302 -67.108)" fill="#22416d" stroke="#1a1a1a" stroke-miterlimit="10" stroke-width="0.5"></path><path d="M1123.249,437.9h0a3,3,0,0,1,3.568-2.275l18.027,3.933a3,3,0,0,1,2.275,3.553h0a2.994,2.994,0,0,1-3.568,2.275l-18.028-3.919A3,3,0,0,1,1123.249,437.9Z" transform="translate(-82.408 -58.095)" fill="#031439"></path><path d="M1118.949,454.3h0a2.984,2.984,0,0,1,3.553-2.275l18.027,3.928a2.989,2.989,0,0,1,2.268,3.56h0a2.984,2.984,0,0,1-3.554,2.275l-18.027-3.943A2.984,2.984,0,0,1,1118.949,454.3Z" transform="translate(-81.001 -63.461)" fill="#031439"></path><path d="M1504.523,441.531h0a2.983,2.983,0,0,1,2.275-3.553l18-3.933a2.983,2.983,0,0,1,3.553,2.275h0a2.988,2.988,0,0,1-2.262,3.568h0l-18.027,3.919A2.983,2.983,0,0,1,1504.523,441.531Z" transform="translate(-207.176 -57.578)" fill="#031439"></path><path d="M1512.1,456.869h0a2.984,2.984,0,0,1,2.275-3.553l18.075-3.876a3,3,0,0,1,3.568,2.275h0a3.018,3.018,0,0,1-2.275,3.56l-18.084,3.871a2.983,2.983,0,0,1-3.557-2.269Z" transform="translate(-209.656 -62.616)" fill="#031439"></path><path d="M3.162,0h8.527a0,0,0,0,1,0,0V6.324a0,0,0,0,1,0,0H3.162A3.162,3.162,0,0,1,0,3.162v0A3.162,3.162,0,0,1,3.162,0Z" transform="translate(1047.203 407.975)" fill="#24313e" stroke="#24313e" stroke-miterlimit="10" stroke-width="0.457" opacity="0.33" style="mix-blend-mode:multiply;isolation:isolate"></path><path d="M1134.237,483.11h0a2.984,2.984,0,0,1,2.984-2.984h9.066a2.98,2.98,0,0,1,3,2.961v.014h0a3,3,0,0,1-3,2.988h-9.09a2.989,2.989,0,0,1-2.984-2.988Z" transform="translate(-86.019 -72.681)" fill="#0c7ff2"></path><path d="M3.162,0h8.527a0,0,0,0,1,0,0V6.324a0,0,0,0,1,0,0H3.162A3.162,3.162,0,0,1,0,3.162v0A3.162,3.162,0,0,1,3.162,0Z" transform="translate(1047.203 415.253)" fill="#24313e" stroke="#24313e" stroke-miterlimit="10" stroke-width="0.457" opacity="0.33" style="mix-blend-mode:multiply;isolation:isolate"></path><path d="M1134.237,494.321h0a2.985,2.985,0,0,1,2.984-2.984h9.066a2.988,2.988,0,0,1,2.988,2.984h0a3,3,0,0,1-2.988,3H1137.2a2.989,2.989,0,0,1-2.984-2.988Z" transform="translate(-86.019 -76.349)" fill="#0c7ff2"></path><path d="M3.162,0h8.527a0,0,0,0,1,0,0V6.324a0,0,0,0,1,0,0H3.162A3.162,3.162,0,0,1,0,3.162v0A3.162,3.162,0,0,1,3.162,0Z" transform="translate(1047.203 422.671)" fill="#24313e" stroke="#24313e" stroke-miterlimit="10" stroke-width="0.457" opacity="0.33" style="mix-blend-mode:multiply;isolation:isolate"></path><path d="M1134.237,505.533h0a2.984,2.984,0,0,1,2.984-2.984h9.066a2.989,2.989,0,0,1,2.988,2.984h0a3,3,0,0,1-2.988,3h-9.09a2.988,2.988,0,0,1-2.984-2.988Z" transform="translate(-86.019 -80.018)" fill="#0c7ff2"></path><path d="M1505.975,481.489h0a2.989,2.989,0,0,1,2.988-2.984h9.085a2.988,2.988,0,0,1,2.988,2.984h0a2.989,2.989,0,0,1-2.974,3h-9.1a3,3,0,0,1-2.988-3Z" transform="translate(-207.674 -72.15)" fill="#0c7ff2"></path><path d="M1505.975,492.715h0a3,3,0,0,1,2.988-3h9.085a2.988,2.988,0,0,1,2.988,2.988h0a2.988,2.988,0,0,1-2.988,2.988h-9.085a2.989,2.989,0,0,1-2.988-2.988Z" transform="translate(-207.674 -75.819)" fill="#0c7ff2"></path><path d="M1505.975,503.93h0a2.988,2.988,0,0,1,2.988-2.988h9.085a2.988,2.988,0,0,1,2.988,2.988h0a2.988,2.988,0,0,1-2.988,2.988h-9.085A2.989,2.989,0,0,1,1505.975,503.93Z" transform="translate(-207.674 -79.492)" fill="#0c7ff2"></path><path d="M1212.74,358.932h0a2.373,2.373,0,0,1,2.374,2.373v21.8a2.374,2.374,0,0,1-2.374,2.275h0a2.374,2.374,0,0,1-2.275-2.275V361.294A2.373,2.373,0,0,1,1212.74,358.932Z" transform="translate(-110.971 -33.021)" fill="#22416d"></path><path d="M1446.781,385.359h0a2.374,2.374,0,0,1-2.374-2.349V361.289a2.374,2.374,0,0,1,2.374-2.373h0a2.374,2.374,0,0,1,2.374,2.373h0v21.8a2.344,2.344,0,0,1-2.374,2.275Z" transform="translate(-187.526 -33.016)" fill="#22416d"></path><circle cx="3.975" cy="3.975" r="3.975" transform="translate(1316.888 357.302)" fill="#031439"></circle><circle cx="3.975" cy="3.975" r="3.975" transform="translate(1038.185 356.927)" fill="#031439"></circle><circle cx="3.975" cy="3.975" r="3.975" transform="translate(1076.662 326.034)" fill="#22416d"></circle><circle cx="3.975" cy="3.975" r="3.975" transform="translate(1276.446 326.034)" fill="#22416d"></circle><circle cx="3.975" cy="3.975" r="3.975" transform="translate(1084.376 281.022)" fill="#22416d"></circle><circle cx="3.975" cy="3.975" r="3.975" transform="translate(1271.511 279.866)" fill="#22416d"></circle><path d="M1405.549,709.69h0a9.208,9.208,0,0,1-11.779-5.531h0l-11.8-32.648a9.2,9.2,0,0,1,5.521-11.776h.005a9.212,9.212,0,0,1,11.806,5.509v0a.342.342,0,0,0,0,.052l11.788,32.662A9.212,9.212,0,0,1,1405.549,709.69Z" transform="translate(-166.913 -131.273)" fill="#0c7ff2" stroke="#24313e" stroke-miterlimit="10" stroke-width="0.426"></path><rect width="3.006" height="39.976" rx="1.503" transform="translate(1226.667 531.728) rotate(-20.528)" fill="#fff" opacity="0.37"></rect><path d="M1449.242,693.983h0a9.2,9.2,0,0,1-11.746-5.522l-11.79-32.658a9.2,9.2,0,0,1,5.517-11.778l0,0h0a9.2,9.2,0,0,1,11.78,5.537h0l11.8,32.648a9.2,9.2,0,0,1-5.546,11.775Z" transform="translate(-181.226 -126.135)" fill="#0c7ff2" stroke="#24313e" stroke-miterlimit="10" stroke-width="0.426"></path><rect width="3.006" height="39.976" rx="1.503" transform="translate(1255.945 521.231) rotate(-20.528)" fill="#fff" opacity="0.37"></rect><path d="M1271.58,505.918a74.955,74.955,0,0,1,56.325-.64c13.816,5.2,22.883,21.876,22.667,36.638-.219,8.634-3.8,17.381-15.148,22.358h-67.261s-22.431-5.532-18.336-28.512c2.243-11.968,10.45-25.322,21.756-29.844Z" transform="translate(-123.688 -79.217)" fill="#22416d" stroke="#1a1a1a" stroke-miterlimit="10" stroke-width="0.5"></path><path d="M1407.375,608.445h0c13.018.548,19.165,34.456,19.165,34.456-1.1,12.275-8.719,23.483-21.725,22.932l-1.393-.064c-13.015-.546-20.892-8.066-22.005-21.6l.966-6.573c1.049-12.289,11.918-29.661,24.941-29.148Z" transform="translate(-166.914 -114.668)" fill="#24313e" stroke="#24313e" stroke-miterlimit="10" stroke-width="0.457" opacity="0.33" style="mix-blend-mode:multiply;isolation:isolate"></path><path d="M1408.5,659.633h0a22.045,22.045,0,0,1-28.208-13.236l-4.236-11.722a22.03,22.03,0,0,1,13.226-28.207h0a22.022,22.022,0,0,1,28.2,13.208l0,.013h0l4.236,11.736a22.028,22.028,0,0,1-13.227,28.2h0Z" transform="translate(-164.726 -113.592)" fill="#0c7ff2" stroke="#24313e" stroke-miterlimit="10" stroke-width="0.426"></path><circle cx="14.426" cy="14.426" r="14.426" transform="translate(1221.179 508.008)" fill="#22416d"></circle><path d="M1409.643,715.951h0a2.7,2.7,0,0,1-3.46-1.614v0h0l-6.715-18.936a2.7,2.7,0,0,1,1.623-3.461h0a2.694,2.694,0,0,1,3.41,1.623l6.721,18.931A2.708,2.708,0,0,1,1409.643,715.951Z" transform="translate(-172.767 -141.945)" fill="#031439"></path><path d="M1399.445,646.855l14.412-4.141a2.88,2.88,0,0,1,3.566,1.966v0h0a2.878,2.878,0,0,1-1.977,3.56h0l-14.412,4.147a2.885,2.885,0,0,1-3.572-1.969h0A2.885,2.885,0,0,1,1399.445,646.855Z" transform="translate(-172.128 -125.848)" fill="#031439"></path><circle cx="3.031" cy="3.031" r="3.031" transform="translate(1224.371 495.512)" fill="#031439"></circle><circle cx="6.362" cy="6.362" r="6.362" transform="translate(1258.722 552.573)" fill="#031439"></circle><path d="M1179.971,801.609h0a3.243,3.243,0,0,1,4.429,1.187l15.28,26.466a3.243,3.243,0,0,1-1.187,4.429h0a3.243,3.243,0,0,1-4.429-1.187l-15.28-26.466A3.243,3.243,0,0,1,1179.971,801.609Z" transform="translate(-100.462 -177.74)" fill="#0c7ff2" opacity="0.67" style="isolation:isolate"></path><path d="M1190.62,782.515a3.25,3.25,0,0,1,4.431,1.138h0l15.28,26.467a3.244,3.244,0,1,1-5.494,3.453c-.042-.066-.081-.134-.118-.2h0L1189.44,786.9a3.235,3.235,0,0,1,1.138-4.426Z" transform="translate(-103.944 -171.489)" fill="#0c7ff2" opacity="0.67" style="isolation:isolate"></path><circle cx="6.362" cy="6.362" r="6.362" transform="translate(1281.488 631.266)" fill="#031439"></circle><circle cx="21.143" cy="21.143" r="21.143" transform="translate(1153.707 439.573)" fill="#031439"></circle><circle cx="13.506" cy="13.506" r="13.506" transform="translate(1161.662 447.526)" fill="#22416d"></circle><path d="M1310.893,555.4H1325.9a2.889,2.889,0,0,1,0,5.773h-15.005a2.889,2.889,0,1,1-.262-5.773C1310.719,555.394,1310.805,555.394,1310.893,555.4Z" transform="translate(-142.847 -97.312)" fill="#031439"></path><path d="M1242.875,520.558a11.187,11.187,0,0,1,7.668,13.837l0,.007h0l-9.949,33.647a11.191,11.191,0,1,1-21.629-5.755c.038-.142.081-.285.125-.422l9.949-33.609a11.192,11.192,0,0,1,13.838-7.681h0Z" transform="translate(-113.628 -85.778)" fill="#24313e" stroke="#24313e" stroke-miterlimit="10" stroke-width="0.457" opacity="0.33" style="mix-blend-mode:multiply;isolation:isolate"></path><path d="M1227.968,523.725l21.518,6.167-10.646,36.866-21.518-6.167Z" transform="translate(-113.215 -86.948)" fill="#0c7ff2" stroke="#24313e" stroke-miterlimit="10" stroke-width="0.426"></path><path d="M1227.9,532.318c.96,4.071,1.629,6.891,4.048,8.455l.031.018c7.268,4.318,14.733,3.342,19.608-3.564l1.023-5.515" transform="translate(-116.675 -89.562)" fill="#24313e" stroke="#24313e" stroke-miterlimit="10" stroke-width="0.457" opacity="0.33" style="mix-blend-mode:multiply;isolation:isolate"></path><path d="M1233.553,553.375a11.187,11.187,0,0,1,7.668,13.837l0,.007h0l-2.737,9.526a11.191,11.191,0,1,1-21.629-5.754c.039-.143.081-.285.125-.422l2.737-9.487a11.192,11.192,0,0,1,13.838-7.681h0Z" transform="translate(-112.938 -96.517)" fill="#031439"></path><path d="M1240.327,520.36h0a16.2,16.2,0,0,1-21.528-4.6l-15.22-21.627c-2.329-3.3-.375-8.406,4.27-11.182l8.634-5.133c4.658-2.768,10.076-2.059,11.859,1.582l15.935,32.38C1245.506,514.52,1243.822,518.268,1240.327,520.36Z" transform="translate(-108.396 -71.372)" fill="#0c7ff2" stroke="#24313e" stroke-miterlimit="10" stroke-width="0.426"></path><g transform="translate(1095.995 405.724)" opacity="0.37"><path d="M1243.247,514.617a.651.651,0,0,1-.581-.945c.02-.048.336-.869-.555-2.429-.363-.634-2.056-4.082-4.4-8.854-3.164-6.44-7.5-15.259-10.35-20.78a5.2,5.2,0,0,0-3.239-2.489,5.8,5.8,0,0,0-4.483.462l-9.582,5.94a7.1,7.1,0,0,0-2.166,10.243.651.651,0,0,1-1.059.758,8.4,8.4,0,0,1,2.55-12.114l9.582-5.941a7.04,7.04,0,0,1,5.518-.6,6.5,6.5,0,0,1,4.036,3.142c2.858,5.534,7.194,14.359,10.361,20.8,2.246,4.571,4.021,8.182,4.362,8.781,1.285,2.25.654,3.541.577,3.681A.651.651,0,0,1,1243.247,514.617Z" transform="translate(-1205.265 -477.567)" fill="#fff"></path></g><path d="M1394.164,518.334a11.187,11.187,0,0,1,13.866,7.616l0,.007h0l9.528,33.769a11.191,11.191,0,0,1-21.365,6.668c-.043-.141-.083-.285-.12-.424l-9.507-33.736a11.19,11.19,0,0,1,7.61-13.877h0Z" transform="translate(-168.452 -85.037)" fill="#24313e" stroke="#24313e" stroke-miterlimit="10" stroke-width="0.457" opacity="0.33" style="mix-blend-mode:multiply;isolation:isolate"></path><path d="M1388.923,529.858l21.52-6.187,3.167,11.017,7.433,25.853-21.52,6.187Z" transform="translate(-169.37 -86.93)" fill="#0c7ff2" stroke="#24313e" stroke-miterlimit="10" stroke-width="0.426"></path><path d="M1389.271,533.037c.959,4.071,1.63,6.892,4.048,8.455l.031.019c7.268,4.317,15.595,3.185,20.47-3.72l-1.526-5.14" transform="translate(-169.484 -89.869)" fill="#24313e" stroke="#24313e" stroke-miterlimit="10" stroke-width="0.457" opacity="0.33" style="mix-blend-mode:multiply;isolation:isolate"></path><path d="M1417.152,584.389h0a11.174,11.174,0,0,1-13.843-7.623v-.005h0l-2.727-9.544a11.191,11.191,0,0,1,7.662-13.845h0a11.181,11.181,0,0,1,13.844,7.638h0l2.737,9.521a11.191,11.191,0,0,1-7.638,13.862h0Z" transform="translate(-173.041 -96.505)" fill="#031439"></path><path d="M1393.184,520.366l.031.019a16.2,16.2,0,0,0,21.508-4.584L1430,494.16c2.33-3.292.365-8.405-4.27-11.175l-8.633-5.142c-4.668-2.775-10.076-2.059-11.884,1.575l-15.916,32.4C1387.989,514.531,1389.7,518.275,1393.184,520.366Z" transform="translate(-169.349 -71.38)" fill="#0c7ff2" stroke="#24313e" stroke-miterlimit="10" stroke-width="0.426"></path><g transform="translate(1221.185 405.913)" opacity="0.37"><path d="M1392.143,514.9a.651.651,0,0,0,.58-.945c-.02-.048-.336-.869.556-2.429.362-.634,2.056-4.082,4.4-8.853,3.164-6.44,7.5-15.26,10.349-20.781a5.2,5.2,0,0,1,3.239-2.489,5.8,5.8,0,0,1,4.483.462l9.582,5.94a7.1,7.1,0,0,1,2.166,10.243.651.651,0,1,0,1.059.758,8.4,8.4,0,0,0-2.55-12.114l-9.582-5.94a7.035,7.035,0,0,0-5.517-.6,6.5,6.5,0,0,0-4.036,3.142c-2.859,5.533-7.2,14.36-10.362,20.8-2.246,4.572-4.02,8.183-4.362,8.782-1.285,2.25-.653,3.541-.577,3.681A.651.651,0,0,0,1392.143,514.9Z" transform="translate(-1391.348 -477.848)" fill="#fff"></path></g><circle cx="6.362" cy="6.362" r="6.362" transform="translate(1244.353 412.602)" fill="#031439"></circle><circle cx="6.362" cy="6.362" r="6.362" transform="translate(1098.633 412.602)" fill="#031439"></circle><circle cx="3.975" cy="3.975" r="3.975" transform="translate(1123.999 437.774)" fill="#031439"></circle><circle cx="3.975" cy="3.975" r="3.975" transform="translate(1223.427 437.774)" fill="#031439"></circle><path d="M1439.828,829.55l15.28-26.466a3.243,3.243,0,0,1,4.429-1.187h0a3.243,3.243,0,0,1,1.187,4.43l-15.281,26.466a3.243,3.243,0,0,1-4.429,1.187h0A3.243,3.243,0,0,1,1439.828,829.55Z" transform="translate(-185.886 -177.834)" fill="#0c7ff2" opacity="0.67" style="isolation:isolate"></path><path d="M1432.376,811.095l15.28-26.466a3.243,3.243,0,0,1,4.429-1.187h0a3.243,3.243,0,0,1,1.187,4.429l-15.28,26.466a3.242,3.242,0,0,1-4.429,1.187h0A3.243,3.243,0,0,1,1432.376,811.095Z" transform="translate(-183.447 -171.795)" fill="#0c7ff2" opacity="0.67" style="isolation:isolate"></path><g transform="translate(1151.216 258.024)"><path d="M1337.506,297.59c0,9.739-9.005,17.661-20.108,17.661s-20.14-7.876-20.14-17.661" transform="translate(-1290.59 -270.971)" fill="#22416d"></path><path d="M1300.619,309.214l16.845,16.633a1.7,1.7,0,0,0,2.383,0l16.444-16.633a1.682,1.682,0,0,0,0-2.379l0,0a1.71,1.71,0,0,0-1.193-.48h-33.291a1.7,1.7,0,0,0-1.678,1.7A1.658,1.658,0,0,0,1300.619,309.214Z" transform="translate(-1291.529 -273.838)" fill="#24313e" stroke="#24313e" stroke-miterlimit="10" stroke-width="0.426"></path><path d="M1332.046,338.009l-8.166-8.166,20.872-20.82a1.585,1.585,0,0,1,2.2,0h0l5.926,5.926a1.59,1.59,0,0,1,0,2.209h0Z" transform="translate(-1299.302 -274.567)" fill="#031439"></path><path d="M1317.013,329.677l-8.024,8.3-21.2-20.5a1.6,1.6,0,0,1,0-2.209h0l5.83-6.029a1.572,1.572,0,0,1,2.21,0h0Z" transform="translate(-1287.346 -274.632)" fill="#031439"></path><path d="M1296.039,285.3h0c0-8.485,6.954-20.228,15.453-20.228h10.856c8.5,0,15.453,11.743,15.453,20.228h0" transform="translate(-1290.191 -260.33)" fill="#0c7ff2" stroke="#24313e" stroke-miterlimit="10" stroke-width="0.426"></path><circle cx="7.796" cy="7.796" r="7.796" transform="translate(10.634 22.238)" fill="#0c7ff2" stroke="#24313e" stroke-miterlimit="10" stroke-width="0.426"></circle><circle cx="3.982" cy="3.982" r="3.982" transform="translate(14.448 26.052)" fill="#3ab2d0" stroke="#24313e" stroke-miterlimit="10" stroke-width="0.426"></circle><circle cx="7.796" cy="7.796" r="7.796" transform="translate(27.72 22.238)" fill="#0c7ff2" stroke="#24313e" stroke-miterlimit="10" stroke-width="0.426"></circle><circle cx="3.982" cy="3.982" r="3.982" transform="translate(31.533 26.052)" fill="#3ab2d0" stroke="#24313e" stroke-miterlimit="10" stroke-width="0.426"></circle><rect width="39.922" height="2.787" rx="0.671" transform="translate(6.828 26.052)" fill="#24313e" stroke="#24313e" stroke-miterlimit="10" stroke-width="0.434" opacity="0.33" style="mix-blend-mode:multiply;isolation:isolate"></rect><path d="M1296.608,289.513h38.964a3.116,3.116,0,0,1,3.125,3.1v.028h0a3.124,3.124,0,0,1-3.125,3.12h-38.964a3.121,3.121,0,0,1-3.125-3.116v0h0a3.121,3.121,0,0,1,3.115-3.126h.01Z" transform="translate(-1289.354 -268.328)" fill="#0c7ff2" stroke="#24313e" stroke-miterlimit="10" stroke-width="0.426"></path><path d="M1305.423,274.865l.456-.714a3.7,3.7,0,0,1,5.114-1.129h0a3.7,3.7,0,0,1,1.128,5.115l-.456.714a3.7,3.7,0,0,1-5.114,1.128h0A3.7,3.7,0,0,1,1305.423,274.865Z" transform="translate(-1293.071 -262.741)" fill="#6b7e8f" stroke="#24313e" stroke-miterlimit="10" stroke-width="0.426"></path><path d="M1339.67,273.006h0a3.688,3.688,0,0,1,5.1,1.1l.019.03.462.706a3.688,3.688,0,0,1-1.091,5.1l-.034.022h0a3.711,3.711,0,0,1-5.116-1.134l-.461-.705a3.687,3.687,0,0,1,1.091-5.1Z" transform="translate(-1303.907 -262.734)" fill="#6b7e8f" stroke="#24313e" stroke-miterlimit="10" stroke-width="0.426"></path><path d="M1299.258,258.278h0a2.959,2.959,0,0,1,3.9,1.508l4.263,9.634a2.959,2.959,0,0,1-1.509,3.9h0a2.959,2.959,0,0,1-3.9-1.508l-4.263-9.634A2.959,2.959,0,0,1,1299.258,258.278Z" transform="translate(-1290.668 -258.024)" fill="#031439"></path><circle cx="3.641" cy="3.641" r="3.641" transform="translate(10.54 7.843)" fill="#6b7e8f" stroke="#24313e" stroke-miterlimit="10" stroke-width="0.426"></circle><path d="M1340.854,269.441l4.267-9.637a2.954,2.954,0,0,1,3.9-1.508h0a2.954,2.954,0,0,1,1.508,3.9v0l-4.263,9.641a2.959,2.959,0,0,1-3.9,1.512l-.005,0h0a2.963,2.963,0,0,1-1.507-3.9Z" transform="translate(-1304.772 -258.03)" fill="#031439"></path><circle cx="3.641" cy="3.641" r="3.641" transform="translate(35.021 8.816)" fill="#6b7e8f" stroke="#24313e" stroke-miterlimit="10" stroke-width="0.426"></circle><path d="M1347.067,316.964a2.1,2.1,0,0,1,0,2.959l-20.076,20.062a2.1,2.1,0,1,1-3.12-2.807l.1-.1h.056l20.066-20.066a2.113,2.113,0,0,1,2.978-.056Z" transform="translate(-1299.123 -277.118)" fill="#0c7ff2" stroke="#24313e" stroke-miterlimit="10" stroke-width="0.426"></path><path d="M1319.453,341h0a2.107,2.107,0,0,1-2.968,0l-20.052-20.062a2.087,2.087,0,0,1,0-2.952l0,0h0a2.1,2.1,0,0,1,2.959,0l20.062,20.066a2.092,2.092,0,0,1,.013,2.959l-.013.013S1319.467,341.009,1319.453,341Z" transform="translate(-1290.119 -277.446)" fill="#0c7ff2" stroke="#24313e" stroke-miterlimit="10" stroke-width="0.426"></path><circle cx="10.167" cy="10.167" r="10.167" transform="translate(17.029 47.912)" fill="#0c7ff2" stroke="#24313e" stroke-miterlimit="10" stroke-width="0.426"></circle><circle cx="5.198" cy="5.198" r="5.198" transform="translate(21.998 52.881)" fill="#24313e" stroke="#24313e" stroke-miterlimit="10" stroke-width="0.426"></circle><ellipse cx="7.207" cy="0.407" rx="7.207" ry="0.407" transform="translate(19.632 5.5)" fill="#fff" opacity="0.37"></ellipse><ellipse cx="18.913" cy="0.475" rx="18.913" ry="0.475" transform="translate(8.599 21.831)" fill="#fff" opacity="0.37"></ellipse><ellipse cx="1.469" cy="0.701" rx="1.469" ry="0.701" transform="matrix(0.342, -0.94, 0.94, 0.342, 14.843, 30.414)" fill="#fff" opacity="0.37"></ellipse><ellipse cx="1.469" cy="0.701" rx="1.469" ry="0.701" transform="matrix(0.342, -0.94, 0.94, 0.342, 32.056, 30.414)" fill="#fff" opacity="0.37"></ellipse><ellipse cx="3.627" cy="0.351" rx="3.627" ry="0.351" transform="matrix(0.413, -0.911, 0.911, 0.413, 38.127, 7.899)" fill="#fff" opacity="0.37"></ellipse><ellipse cx="0.35" cy="3.629" rx="0.35" ry="3.629" transform="matrix(0.858, -0.514, 0.514, 0.858, 9.754, 0.994)" fill="#fff" opacity="0.37"></ellipse><rect width="0.688" height="20.088" rx="0.344" transform="matrix(0.704, 0.71, -0.71, 0.704, 46.442, 34.6)" fill="#fff" opacity="0.37"></rect><rect width="0.688" height="15.442" rx="0.344" transform="matrix(0.704, 0.71, -0.71, 0.704, 45.964, 39.787)" fill="#fff" opacity="0.37"></rect><rect width="0.688" height="20.088" rx="0.344" transform="matrix(-0.704, 0.71, -0.71, -0.704, 21.824, 49.146)" fill="#fff" opacity="0.37"></rect><rect width="0.688" height="15.442" rx="0.344" transform="translate(19.001 51.062) rotate(134.745)" fill="#fff" opacity="0.37"></rect><ellipse cx="2.118" cy="0.606" rx="2.118" ry="0.606" transform="translate(25.079 53.868)" fill="#fff" opacity="0.37"></ellipse><path d="M1332.5,339.235c0,.138,0,.272-.011.406a9.206,9.206,0,0,0-18.395,0c-.008-.134-.011-.268-.011-.406a9.209,9.209,0,0,1,18.417,0Z" transform="translate(-1296.096 -281.586)" fill="#fff" opacity="0.37"></path></g><path d="M1346.153,367.643c0,.473,8.893.122,21.2.122s22.292.351,22.292-.122-10.058-.89-22.369-.89S1346.153,367.17,1346.153,367.643Z" transform="translate(-155.374 -35.581)" fill="#fff" opacity="0.37"></path><path d="M1246.375,367.621c0,.237,8.893.061,21.2.061s22.292.176,22.292-.061-10.058-.445-22.369-.445S1246.375,367.385,1246.375,367.621Z" transform="translate(-122.723 -35.719)" fill="#fff" opacity="0.37"></path><path d="M1246.375,380.639c0,.236,8.893.061,21.2.061s22.292.175,22.292-.061-10.058-.445-22.369-.445S1246.375,380.4,1246.375,380.639Z" transform="translate(-122.723 -39.979)" fill="#fff" opacity="0.37"></path><path d="M1246.375,393.455c0,.313,8.893.081,21.2.081s22.292.231,22.292-.081-10.058-.589-22.369-.589S1246.375,393.142,1246.375,393.455Z" transform="translate(-122.723 -44.126)" fill="#fff" opacity="0.37"></path><path d="M1248.04,406.523c0,.236,8.664.061,20.658.061s21.718.175,21.718-.061-9.8-.445-21.793-.445S1248.04,406.287,1248.04,406.523Z" transform="translate(-123.267 -48.449)" fill="#fff" opacity="0.37"></path><path d="M1251.8,419.525c0,.237,6.818,0,18.413,0s20.994.175,20.994-.061-9.323-.27-20.917-.27S1251.8,419.289,1251.8,419.525Z" transform="translate(-124.496 -52.742)" fill="#fff" opacity="0.37"></path><path d="M1346.55,380.5c0,.318,8.591.082,20.483.082s21.533.235,21.533-.082-9.715-.6-21.607-.6S1346.55,380.185,1346.55,380.5Z" transform="translate(-155.504 -39.884)" fill="#fff" opacity="0.37"></path><path d="M1346.55,393.584c0,.237,8.633.061,20.583.061s21.637.176,21.637-.061-9.762-.445-21.712-.445S1346.55,393.348,1346.55,393.584Z" transform="translate(-155.504 -44.215)" fill="#fff" opacity="0.37"></path><path d="M1346.153,406.523c0,.236,8.562.061,20.416.061s21.462.175,21.462-.061-9.683-.445-21.536-.445S1346.153,406.287,1346.153,406.523Z" transform="translate(-155.374 -48.449)" fill="#fff" opacity="0.37"></path><path d="M1346.153,419.47c0,.236,7.843.061,18.7.061s19.657.175,19.657-.061-8.868-.445-19.725-.445S1346.153,419.234,1346.153,419.47Z" transform="translate(-155.374 -52.686)" fill="#fff" opacity="0.37"></path><path d="M1340.222,453.945c-10.817-9.386-38.447-31.993-75.628-1.348a.631.631,0,0,1-.979-.224l-9.234-24.482,8.278,28a.631.631,0,0,0,1.01.26c40.308-34.944,72.517-4.164,77.1.612.357.363.52-1.179.385-.688l11.771-29.542Z" transform="translate(-125.343 -55.144)" fill="#fff" opacity="0.37"></path><rect width="19.331" height="34.975" rx="9.665" transform="matrix(0.739, -0.674, 0.674, 0.739, 1131.692, 435.083)" fill="#24313e" stroke="#24313e" stroke-miterlimit="10" stroke-width="0.434" opacity="0.33" style="mix-blend-mode:multiply;isolation:isolate"></rect><path d="M1267.657,519.483l12.25,11.044a8.407,8.407,0,0,0,11.358,0h0a8.406,8.406,0,0,0,1.138-11.144l-13.634-18.553a8.109,8.109,0,0,0-11.313-1.874h0l-.057.042a8.259,8.259,0,0,0-2.135,2.275l-.27.474s-.137.223-.356.621A14.028,14.028,0,0,0,1267.657,519.483Z" transform="translate(-128.151 -78.346)" fill="#0c7ff2" stroke="#24313e" stroke-miterlimit="10" stroke-width="0.426"></path><rect width="19.331" height="34.975" rx="9.665" transform="translate(1206.642 422.277) rotate(41.882)" fill="#24313e" stroke="#24313e" stroke-miterlimit="10" stroke-width="0.434" opacity="0.33" style="mix-blend-mode:multiply;isolation:isolate"></rect><path d="M1366.53,519.857l-12.2,11.041a8.415,8.415,0,0,1-11.385,0h0a8.421,8.421,0,0,1-1.134-11.134l13.554-18.5a8.064,8.064,0,0,1,11.257-1.828l.016.011h0a8.063,8.063,0,0,1,2.149,2.275c.089.147.18.3.27.474.137.261.137.214.351.612a14.052,14.052,0,0,1-2.88,17.05Z" transform="translate(-153.431 -78.501)" fill="#0c7ff2" stroke="#24313e" stroke-miterlimit="10" stroke-width="0.426"></path><path d="M1408.99,422.568a2.7,2.7,0,0,1-2.7,2.7h-5.967l2.1-5.4h3.868A2.708,2.708,0,0,1,1408.99,422.568Z" transform="translate(-173.099 -52.962)" fill="#031439"></path><path d="M1410.639,409.625a2.719,2.719,0,0,1-.8,1.9,2.684,2.684,0,0,1-1.9.787h-2.577l2.092-5.4h.484A2.718,2.718,0,0,1,1410.639,409.625Z" transform="translate(-174.748 -48.725)" fill="#031439"></path><path d="M1411.518,399.269a2.709,2.709,0,0,1-1.05.653l1.5-3.862c.007.013.013.02.02.034.02.047.067.141.128.283a2.507,2.507,0,0,1,.2.982A2.69,2.69,0,0,1,1411.518,399.269Z" transform="translate(-176.42 -45.171)" fill="#031439"></path><path d="M1250.677,425.266h-4.528a2.69,2.69,0,0,1-2.691-2.691v-.013a2.7,2.7,0,0,1,2.684-2.691h2.927Z" transform="translate(-121.768 -52.962)" fill="#031439"></path><path d="M1248.08,412.316h-1.931a2.685,2.685,0,0,1-2.691-2.684v-.007a2.7,2.7,0,0,1,2.691-2.7h.33Z" transform="translate(-121.768 -48.725)" fill="#031439"></path><path d="M1245.47,399.73a2.7,2.7,0,0,1-2.012-2.61v-.013a2.668,2.668,0,0,1,.693-1.8Z" transform="translate(-121.768 -44.925)" fill="#031439"></path><g transform="translate(1187.597 420.211)" opacity="0.37"><path d="M1342.1,525.479a.672.672,0,0,1-.671-.636c-.106-1.871.727-2.93,2.384-5.039.558-.71,1.189-1.514,1.94-2.536,2.034-2.763,3.8-5.313,5.354-7.563,4.575-6.613,7.336-10.6,10.364-10.6a8.19,8.19,0,0,1,6.487,2.68c3.363,3.854,2.509,10.416,2.471,10.693a.673.673,0,0,1-1.333-.182c.008-.062.806-6.242-2.154-9.63a6.907,6.907,0,0,0-5.471-2.215c-2.323,0-5.082,3.987-9.257,10.023-1.562,2.258-3.332,4.817-5.376,7.6-.764,1.038-1.431,1.887-1.967,2.569-1.584,2.015-2.176,2.77-2.1,4.133a.673.673,0,0,1-.634.709Z" transform="translate(-1341.423 -499.101)" fill="#fff"></path></g><g transform="translate(1135.766 420.211)" opacity="0.37"><path d="M1293.386,525.479a.679.679,0,0,0,.684-.636c.108-1.87-.741-2.93-2.431-5.039-.568-.71-1.212-1.514-1.978-2.535-2.073-2.764-3.871-5.313-5.457-7.564-4.664-6.613-7.478-10.6-10.565-10.6a8.427,8.427,0,0,0-6.613,2.68c-3.428,3.854-2.557,10.416-2.519,10.693a.688.688,0,0,0,.772.575.677.677,0,0,0,.588-.757c-.009-.062-.822-6.242,2.2-9.63a7.109,7.109,0,0,1,5.577-2.215c2.368,0,5.18,3.987,9.437,10.024,1.592,2.258,3.4,4.816,5.48,7.6.779,1.039,1.459,1.887,2,2.569,1.614,2.016,2.218,2.77,2.141,4.133a.677.677,0,0,0,.646.709Z" transform="translate(-1264.38 -499.101)" fill="#fff"></path></g><g transform="translate(1028.15 304.504)" opacity="0.37"><path d="M1117.041,392.787a.691.691,0,0,1-.123-.011c-13.7-2.531-12.53-15.448-12.438-16.286l1.037-39.015a10.819,10.819,0,0,1,.928-4.266c1.559-3.377,6.738-6.1,9.985-6.1l9.023.428a.673.673,0,0,1-.064,1.344l-8.991-.427c-2.749,0-7.433,2.5-8.732,5.317a9.491,9.491,0,0,0-.8,3.737l-1.043,39.114c-.066.507-1.477,12.46,11.343,14.828a.673.673,0,0,1-.122,1.334Z" transform="translate(-1104.418 -327.112)" fill="#fff"></path></g><g transform="translate(1104.389 457.809)" opacity="0.37" style="mix-blend-mode:overlay;isolation:isolate"><path d="M1225.837,584.038a.991.991,0,0,1-.26-.034,10.559,10.559,0,0,1-7.48-12.9c.038-.14.079-.275.12-.405l2.325-8.06a10.548,10.548,0,0,1,12.887-7.279,1,1,0,0,1,.885.991v1.338l-1.286-.346a8.529,8.529,0,0,0-10.546,5.854l-2.333,8.087c-.04.129-.073.238-.1.344a8.538,8.538,0,0,0,6.05,10.429,1.009,1.009,0,0,1-.259,1.984Z" transform="translate(-1217.741 -554.987)" fill="#fff"></path></g><g transform="translate(1235.613 457.864)" opacity="0.37" style="mix-blend-mode:screen;isolation:isolate"><path d="M1413.372,555.325a.989.989,0,0,1,.25-.08,10.557,10.557,0,0,1,12.281,8.462c.026.143.047.283.065.418l1.348,8.28a10.547,10.547,0,0,1-8.534,12.093,1,1,0,0,1-1.224-.517l-.573-1.21,1.311-.238a8.528,8.528,0,0,0,7.028-9.8l-1.352-8.308c-.019-.135-.036-.246-.054-.355a8.538,8.538,0,0,0-9.931-6.837,1.009,1.009,0,0,1-.615-1.9Z" transform="translate(-1412.795 -555.069)" fill="#fff" style="mix-blend-mode:overlay;isolation:isolate"></path></g><rect width="11.531" height="1.578" rx="0.789" transform="translate(1300.103 406.941)" fill="#fff" opacity="0.37"></rect><rect width="11.531" height="1.578" rx="0.789" transform="translate(1300.103 414.608)" fill="#fff" opacity="0.37"></rect><rect width="11.531" height="1.578" rx="0.789" transform="translate(1300.103 422.057)" fill="#fff" opacity="0.37"></rect><rect width="11.531" height="1.578" rx="0.789" transform="translate(1049.964 407.555)" fill="#fff" opacity="0.37"></rect><rect width="11.531" height="1.578" rx="0.789" transform="translate(1049.964 415.222)" fill="#fff" opacity="0.37"></rect><rect width="11.531" height="1.578" rx="0.789" transform="translate(1049.964 422.671)" fill="#fff" opacity="0.37"></rect><g transform="translate(996.848 391.692)" opacity="0.37" style="mix-blend-mode:overlay;isolation:isolate"><path d="M1063.055,467.039a5.164,5.164,0,0,1,0-10.329.673.673,0,0,1,0,1.346,3.819,3.819,0,0,0,0,7.638.673.673,0,0,1,0,1.346Z" transform="translate(-1057.891 -456.71)" fill="#fff"></path></g><g transform="translate(1004.637 407.094)" opacity="0.37"><path d="M1073.837,486.127a3.395,3.395,0,0,1-1.946-6.5.442.442,0,0,1,.254.848,2.51,2.51,0,0,0,1.439,4.81.442.442,0,0,1,.254.848Z" transform="translate(-1069.469 -479.603)" fill="#fff" style="mix-blend-mode:overlay;isolation:isolate"></path></g><g transform="translate(1038.597 357.393)" opacity="0.37"><path d="M1123.455,412.746a3.509,3.509,0,0,1,0-7.018.457.457,0,1,1,0,.914,2.595,2.595,0,0,0,0,5.19.457.457,0,1,1,0,.914Z" transform="translate(-1119.947 -405.728)" fill="#fff" style="mix-blend-mode:overlay;isolation:isolate"></path></g><g transform="translate(1099.38 413.481)" opacity="0.37" style="mix-blend-mode:overlay;isolation:isolate"><path d="M1215.778,500.062a5.482,5.482,0,0,1,0-10.965.714.714,0,0,1,0,1.428,4.054,4.054,0,0,0,0,8.108.714.714,0,0,1,0,1.428Z" transform="translate(-1210.296 -489.097)" fill="#fff"></path></g><g transform="translate(1124.419 438.147)" opacity="0.37" style="mix-blend-mode:overlay;isolation:isolate"><path d="M1251.118,532.966a3.6,3.6,0,1,1,0-7.2.469.469,0,0,1,0,.938,2.664,2.664,0,1,0,0,5.328.469.469,0,0,1,0,.938Z" transform="translate(-1247.515 -525.761)" fill="#fff"></path></g><g transform="translate(1249.62 413.021)" opacity="0.37" style="mix-blend-mode:overlay;isolation:isolate"><path d="M1434.478,488.414a5.712,5.712,0,0,1,0,11.424c-.411,0-1.153-.784-.744-.744A5.043,5.043,0,0,0,1439.6,494c0-2.329-1.977-5.026-5.863-4.841C1433.323,489.178,1434.067,488.414,1434.478,488.414Z" transform="translate(-1433.614 -488.414)" fill="#fff"></path></g><g transform="translate(1226.973 438.113)" opacity="0.37" style="mix-blend-mode:overlay;isolation:isolate"><path d="M1400.428,525.711a3.658,3.658,0,0,1,0,7.316.476.476,0,0,1-.476-.476c0-.264,3.181-.12,3.181-3.181,0-3.214-3.181-2.918-3.181-3.182A.476.476,0,0,1,1400.428,525.711Z" transform="translate(-1399.952 -525.711)" fill="#fff"></path></g><path d="M1074.238,479.147" transform="translate(-66.393 -72.36)" fill="#fff"></path><g transform="translate(1357.816 392.041)" opacity="0.37" style="mix-blend-mode:overlay;isolation:isolate"><path d="M1595.183,457.229a5.712,5.712,0,0,1,0,11.424.744.744,0,0,1,0-1.488,4.224,4.224,0,0,0,0-8.448.744.744,0,0,1,0-1.488Z" transform="translate(-1594.439 -457.229)" fill="#fff"></path></g><g transform="translate(1349.426 407.176)" opacity="0.37" style="mix-blend-mode:overlay;isolation:isolate"><path d="M1582.477,479.725a3.527,3.527,0,1,1,0,7.014.459.459,0,1,1,0-.914,2.608,2.608,0,1,0,0-5.186.459.459,0,1,1,0-.914Z" transform="translate(-1581.968 -479.725)" fill="#fff"></path></g><g transform="translate(1319.877 357.597)" opacity="0.37"><path d="M1538.553,406.031a3.551,3.551,0,1,1,0,7.069.463.463,0,1,1,0-.921,2.626,2.626,0,1,0,0-5.228.462.462,0,1,1,0-.92Z" transform="translate(-1538.045 -406.031)" fill="#fff"></path></g><g transform="translate(1264.362 553.222)" opacity="0.37"><path d="M1456.272,696.811a5.712,5.712,0,0,1,0,11.424.744.744,0,1,1,0-1.488,4.224,4.224,0,0,0,0-8.448.744.744,0,1,1,0-1.488Z" transform="translate(-1455.528 -696.811)" fill="#fff"></path></g><g transform="translate(1078.353 553.222)" opacity="0.37"><path d="M1184.753,708.235a5.712,5.712,0,0,1,0-11.424.744.744,0,0,1,0,1.488,4.224,4.224,0,0,0,0,8.448.744.744,0,0,1,0,1.488Z" transform="translate(-1179.041 -696.811)" fill="#fff"></path></g><ellipse cx="1.639" cy="12.142" rx="1.639" ry="12.142" transform="translate(1246.107 500.643) rotate(-22.302)" fill="#fff" opacity="0.37"></ellipse><ellipse cx="12.142" cy="1.639" rx="12.142" ry="1.639" transform="translate(1091.439 522.952) rotate(-70.744)" fill="#fff" opacity="0.37"></ellipse><ellipse cx="8.701" cy="0.65" rx="8.701" ry="0.65" transform="translate(1226.525 521.724) rotate(-15.496)" fill="#fff" opacity="0.37" style="mix-blend-mode:overlay;isolation:isolate"></ellipse><ellipse cx="0.46" cy="8.698" rx="0.46" ry="8.698" transform="translate(1106.226 518.035) rotate(-73.902)" fill="#fff" opacity="0.37" style="mix-blend-mode:overlay;isolation:isolate"></ellipse><ellipse cx="8.697" cy="0.46" rx="8.697" ry="0.46" transform="translate(1110.908 570.448) rotate(-69.118)" fill="#fff" opacity="0.37" style="mix-blend-mode:overlay;isolation:isolate"></ellipse><ellipse cx="0.459" cy="8.684" rx="0.459" ry="8.684" transform="matrix(0.939, -0.344, 0.344, 0.939, 1230.412, 552.748)" fill="#fff" opacity="0.37" style="mix-blend-mode:overlay;isolation:isolate"></ellipse><ellipse cx="2.318" cy="4.404" rx="2.318" ry="4.404" transform="translate(1064.317 438.147)" fill="#fff" opacity="0.37"></ellipse><ellipse cx="4.404" cy="2.318" rx="4.404" ry="2.318" transform="translate(1291.42 447.149) rotate(-75.74)" fill="#fff" opacity="0.37"></ellipse><rect width="21.158" height="1.73" rx="0.865" transform="matrix(0.979, 0.204, -0.204, 0.979, 1042.745, 377.947)" fill="#fff" opacity="0.37" style="mix-blend-mode:overlay;isolation:isolate"></rect><rect width="20.692" height="1.73" rx="0.865" transform="translate(1040.361 388.644) rotate(12.327)" fill="#fff" opacity="0.37" style="mix-blend-mode:overlay;isolation:isolate"></rect><path d="M1120.067,455.987a13.194,13.194,0,0,1-10.078-15.691h0a13.193,13.193,0,0,1,15.689-10.059" transform="translate(-77.992 -56.256)" fill="none" stroke="#fff" stroke-linecap="round" stroke-miterlimit="10" stroke-width="2.592" opacity="0.37"></path><path d="M1532.213,429.728c7.808-.448,14.295,5.106,14.494,12.411h0c.18,7.3-5.988,13.575-13.789,14.029" transform="translate(-216.26 -56.18)" fill="none" stroke="#fff" stroke-linecap="round" stroke-miterlimit="10" stroke-width="2.691" opacity="0.37"></path><rect width="20.432" height="1.895" rx="0.948" transform="translate(1298.957 381.272) rotate(-11.669)" fill="#fff" opacity="0.37" style="mix-blend-mode:overlay;isolation:isolate"></rect><rect width="20.432" height="1.895" rx="0.948" transform="translate(1304.517 391.321) rotate(-11.669)" fill="#fff" opacity="0.37" style="mix-blend-mode:overlay;isolation:isolate"></rect><path d="M1475.481,779.274h0c-.858.7,3.229,3.5,4.716,5.349l10.206,15.4,6.977,5.954c1.487,1.844,2.64,5.5,3.5,4.8h0c.858-.7-.659-4.966-2.146-6.81l-6.251-5.9-10.565-15.656C1480.428,780.563,1476.338,778.571,1475.481,779.274Z" transform="translate(-197.657 -170.526)" fill="#fff" opacity="0.37" style="mix-blend-mode:overlay;isolation:isolate"></path><path d="M1138.508,817.858,1125.883,843.9a13.373,13.373,0,0,0,12.044,19.222h25.266a13.383,13.383,0,0,0,12.043-19.224L1162.6,817.858a13.392,13.392,0,0,0-24.094,0Z" transform="translate(-82.851 -180.731)" fill="#0c7ff2" stroke="#24313e" stroke-miterlimit="10" stroke-width="0.426"></path><path d="M1127.5,852.672h0c.977.467,2.611-.881,3.649-3.009l13.973-28.643c1.038-2.129,1.088-4.232.11-4.7h0c-.977-.467-2.611.881-3.649,3.009l-13.972,28.643C1126.57,850.1,1126.521,852.206,1127.5,852.672Z" transform="translate(-83.592 -182.667)" fill="#fff" opacity="0.37"></path><path d="M1145.684,848.226l-8.064,16.632a8.539,8.539,0,0,0,7.681,12.292h16.124a8.563,8.563,0,0,0,7.681-12.292l-8.032-16.632a8.539,8.539,0,0,0-15.394,0Z" transform="translate(-86.849 -191.553)" fill="#031439"></path><path d="M1160.066,815.41a6.362,6.362,0,1,1-6.362,6.362h0A6.362,6.362,0,0,1,1160.066,815.41Z" transform="translate(-92.397 -182.399)" fill="#031439"></path><path d="M1665.054,843.987c0,10.778-5.739,18.249-16.8,26.571-10.993,7.786-26.338-9.7-46.263,8.473-29.651,27.041-58.859,17.177-58.859,17.177s43.744-20.767,53.122-56.46a10.468,10.468,0,0,1,.962-2.112,32.455,32.455,0,1,1,50.766-16.772A24.2,24.2,0,0,1,1665.054,843.987Z" transform="translate(-219.832 -170.571)" fill="#ebf0f5" stroke="#24313e" stroke-miterlimit="10" stroke-width="0.845"></path><path d="M1630.916,847.1a27.214,27.214,0,0,0-35.712,41.075" transform="translate(-233.811 -190.583)" fill="#ebf0f5" stroke="#24313e" stroke-miterlimit="10" stroke-width="0.845"></path><path d="M1641.74,871.112a18.681,18.681,0,0,0,24.515-28.2" transform="translate(-252.102 -191.4)" fill="#ebf0f5" stroke="#24313e" stroke-miterlimit="10" stroke-width="0.845"></path><path d="M924.172,840.77c0,7.892-.623,9.44,3.008,17.067a39.772,39.772,0,0,0,20.5,19.647c6.469,2.7,14.938,4.386,30.082,5.256,19.925,1.145,70.168,10.306,70.168,10.306s-43.744-20.767-53.123-56.461a10.474,10.474,0,0,0-.962-2.112A32.455,32.455,0,1,0,943.082,817.7C933.192,820.742,924.172,829.891,924.172,840.77Z" transform="translate(-17.272 -169.536)" fill="#ebf0f5" stroke="#24313e" stroke-miterlimit="10" stroke-width="0.845"></path><path d="M989.608,847.928A27.214,27.214,0,0,1,1025.32,889" transform="translate(-38.698 -190.855)" fill="#ebf0f5" stroke="#24313e" stroke-miterlimit="10" stroke-width="0.845"></path><path d="M976.265,847.294a11.642,11.642,0,0,1,3.836,22.965" transform="translate(-34.332 -192.78)" fill="#ebf0f5" stroke="#24313e" stroke-miterlimit="10" stroke-width="0.845"></path><path d="M891.631,863.771a14.964,14.964,0,1,1,13.292,26.814" transform="translate(-6.636 -197.713)" fill="#d9dee5" stroke="#24313e" stroke-miterlimit="10" stroke-width="0.847"></path><ellipse cx="11.219" cy="6.397" rx="11.219" ry="6.397" transform="translate(1393.279 672.612) rotate(-37.986)" fill="#fff" opacity="0.37"></ellipse><ellipse cx="15.639" cy="6.398" rx="15.639" ry="6.398" transform="translate(1374.705 616.53) rotate(-12.527)" fill="#fff" opacity="0.37"></ellipse><ellipse cx="6.398" cy="15.639" rx="6.398" ry="15.639" transform="translate(1391.827 597.728) rotate(-85.559)" fill="#fff" opacity="0.37"></ellipse><ellipse cx="15.638" cy="6.398" rx="15.638" ry="6.398" transform="translate(896.18 598.335) rotate(-17.72)" fill="#fff" opacity="0.37"></ellipse><ellipse cx="11.203" cy="8.409" rx="11.203" ry="8.409" transform="translate(1434.46 712.969) rotate(-48.819)" fill="#fff" opacity="0.37"></ellipse><ellipse cx="12.933" cy="6.266" rx="12.933" ry="6.266" transform="matrix(0.658, -0.753, 0.753, 0.658, 871.351, 683.09)" fill="#fff" opacity="0.37"></ellipse><path d="M898.432,824.748c-4.7,5.377-5.657,13.5-4.082,14.873s5.081-4.514,9.783-9.891,10.8-9.524,9.226-10.9S903.134,819.371,898.432,824.748Z" transform="translate(-7.296 -183.377)" fill="#fff" opacity="0.37"></path><ellipse cx="8.409" cy="15.293" rx="8.409" ry="15.293" transform="translate(966.216 661.016) rotate(-36.131)" fill="#fff" opacity="0.37"></ellipse><ellipse cx="8.409" cy="15.293" rx="8.409" ry="15.293" transform="translate(957.636 618.211) rotate(-36.131)" fill="#fff" opacity="0.37"></ellipse></g><ellipse cx="22.5" cy="6" rx="22.5" ry="6" transform="translate(1125.34 569.074)" fill="#ff3100" opacity="0.42"></ellipse><ellipse cx="22.5" cy="6" rx="22.5" ry="6" transform="translate(1345.34 569.074)" fill="#ff3100" opacity="0.42"></ellipse><path d="M18.686,6.346c12.426,0,27.653-7.3,27.653-3.984S34.926,12,22.5,12-7.672,10.247-.657,8.894,6.259,6.346,18.686,6.346Z" transform="translate(1402.354 615.128) rotate(-30)" fill="rgba(255,177,61,0.31)" opacity="0.42"></path><path d="M20.43,3.95c12.426,0,25.909-4.9,25.909-1.587S34.926,12,22.5,12-8.34,5.319-1.325,3.967,8,3.95,20.43,3.95Z" transform="translate(1073.937 588.156) rotate(39)" fill="rgba(255,177,61,0.31)" opacity="0.42"></path></g></svg>