<svg xmlns="http://www.w3.org/2000/svg" width="250" height="150" viewBox="0 0 250 150"><g transform="translate(-1080.136 -1488.6)"><rect width="250" height="150" transform="translate(1080.135 1488.6)" fill="none" opacity="0.24"></rect><g transform="translate(-0.258 -1.731)"><g transform="translate(1150.407 1505.645)"><g transform="translate(0 0)"><path d="M1157.82,1550.682l-2.627-1.051-2.627-1.051a2.562,2.562,0,0,1-1.388-3.429,59.969,59.969,0,0,1,99.274-15.409l-4.005,3.607-4.005,3.607a49.162,49.162,0,0,0-81.337,12.407,2.563,2.563,0,0,1-3.283,1.319Z" transform="translate(-1150.819 -1509.754)" fill="#24313e"></path><path d="M1158.4,1550.627a2.671,2.671,0,0,1-1-.193l-2.627-1.051-2.627-1.051a2.683,2.683,0,0,1-1.459-3.6,60.1,60.1,0,0,1,99.489-15.443l.043.048.044.048-4.1,3.694-4.1,3.694-.043-.048-.043-.048a48.947,48.947,0,0,0-81.122,12.374,2.7,2.7,0,0,1-2.451,1.578Zm47.086-40.982a59.91,59.91,0,0,0-54.561,35.191,2.4,2.4,0,0,0-.038,1.9,2.421,2.421,0,0,0,1.357,1.354l2.627,1.051,2.627,1.051a2.433,2.433,0,0,0,3.116-1.252,49.537,49.537,0,0,1,7.581-11.814,48.973,48.973,0,0,1,23.325-14.974,49.478,49.478,0,0,1,50.559,14.252l3.908-3.52,3.908-3.52a59.647,59.647,0,0,0-19.643-14.371,59.4,59.4,0,0,0-12.071-4A60.044,60.044,0,0,0,1205.482,1509.645Z" transform="translate(-1150.445 -1509.385)" fill="#031439"></path></g><g transform="translate(84.234 14.892)"><path d="M1475.5,1580.932l8.961,4.35,8.961,4.35a1.386,1.386,0,0,0,1.988-1.346l-.712-9.936-.712-9.936a1.386,1.386,0,0,0-2.16-1.049l-8.249,5.586-8.249,5.586a1.386,1.386,0,0,0,.172,2.395Z" transform="translate(-1474.585 -1566.995)" fill="#24313e"></path><path d="M1493.656,1589.532a1.5,1.5,0,0,1-.337-.038,1.555,1.555,0,0,1-.328-.116l-8.962-4.35-8.961-4.35a1.513,1.513,0,0,1-.188-2.62l8.249-5.586,8.249-5.586a1.513,1.513,0,0,1,2.363,1.147l.712,9.936.712,9.936a1.5,1.5,0,0,1-.662,1.364,1.543,1.543,0,0,1-.409.2A1.489,1.489,0,0,1,1493.656,1589.532Zm-18.474-9.088,8.961,4.35,8.961,4.35a1.253,1.253,0,0,0,1.8-1.22l-.713-9.936-.712-9.936a1.253,1.253,0,0,0-1.957-.95l-8.249,5.586-8.249,5.586a1.253,1.253,0,0,0,.156,2.17Z" transform="translate(-1474.215 -1566.623)" fill="#031439"></path></g></g><g transform="translate(1154.704 1585.844)"><g transform="translate(4.962 0)"><path d="M1232.333,1857.944a59.953,59.953,0,0,1-45.6-21l4.094-3.505,4.095-3.505a49.222,49.222,0,0,0,81.624-10.344,2.564,2.564,0,0,1,3.316-1.235l2.6,1.118,2.6,1.118a2.563,2.563,0,0,1,1.3,3.464,59.964,59.964,0,0,1-54.034,33.889Z" transform="translate(-1186.553 -1818.016)" fill="#24313e"></path><path d="M1231.81,1857.7a60.085,60.085,0,0,1-45.694-21.044l-.042-.049-.042-.049,4.194-3.59,4.194-3.59.042.049.042.05a49.012,49.012,0,0,0,81.408-10.317,2.693,2.693,0,0,1,3.485-1.3l2.6,1.118,2.6,1.118a2.683,2.683,0,0,1,1.366,3.641,60.091,60.091,0,0,1-54.151,33.962Zm-45.412-21.114a59.973,59.973,0,0,0,99.329-12.962,2.429,2.429,0,0,0-1.235-3.288l-2.6-1.118-2.6-1.118a2.435,2.435,0,0,0-3.148,1.173,49.353,49.353,0,0,1-81.754,10.47l-4,3.421Z" transform="translate(-1186.031 -1817.645)" fill="#031439"></path></g><g transform="translate(0 1.02)"><path d="M1187.178,1831.376l-8.848-4.576-8.848-4.576a1.386,1.386,0,0,0-2.021,1.3l.46,9.95.46,9.951a1.386,1.386,0,0,0,2.132,1.1l8.388-5.375,8.388-5.375a1.386,1.386,0,0,0-.111-2.4Z" transform="translate(-1167.329 -1821.938)" fill="#24313e"></path><path d="M1169.4,1844.505a1.5,1.5,0,0,1-.355-.043,1.548,1.548,0,0,1-.344-.129,1.5,1.5,0,0,1-.818-1.276l-.46-9.951-.46-9.951a1.512,1.512,0,0,1,2.211-1.417l8.848,4.575,8.848,4.576a1.513,1.513,0,0,1,.121,2.623l-8.388,5.375-8.388,5.375a1.537,1.537,0,0,1-.4.181A1.49,1.49,0,0,1,1169.4,1844.505Zm-.923-22.678a1.241,1.241,0,0,0-.348.05,1.277,1.277,0,0,0-.328.15,1.244,1.244,0,0,0-.577,1.116l.46,9.951.46,9.951a1.254,1.254,0,0,0,1.932,1l8.388-5.375,8.388-5.375a1.253,1.253,0,0,0-.1-2.173l-8.848-4.576-8.848-4.576a1.279,1.279,0,0,0-.284-.107A1.259,1.259,0,0,0,1168.474,1821.828Z" transform="translate(-1166.959 -1821.567)" fill="#031439"></path></g></g><g transform="translate(1175.991 1533)"><path d="M1249.359,1649.258a2.87,2.87,0,0,0,2.444,2.785l2.353.354,2.353.355a2.87,2.87,0,0,1,2.03,1.362l3.308,5.5,3.308,5.5a2.869,2.869,0,0,1,.243,2.449l-.31.864-.311.865h.3v8.284s1.634.114,3.378.092,3.6-.182,4.038-.728l1.478-1.828,1.478-1.828a2.879,2.879,0,0,1,2.185-1.066l7.511-.073,7.511-.073v5.757l2.523-.049,2.523-.049a2.852,2.852,0,0,0,1.786-.373l1.864-1.09,1.864-1.09a2.876,2.876,0,0,0,1.238-3.5l-.823-2.167-.823-2.167a2.862,2.862,0,0,1-.178-1.226,2.9,2.9,0,0,1,.354-1.187l3.267-5.882,3.267-5.882a2.85,2.85,0,0,1,1.978-1.429l2.327-.44,2.327-.44a2.868,2.868,0,0,0,2.34-2.874l-.041-2.154-.042-2.154a2.869,2.869,0,0,0-2.444-2.785l-2.351-.355-2.351-.355a2.844,2.844,0,0,1-1.171-.452,2.875,2.875,0,0,1-.864-.91l-3.306-5.5-3.306-5.5a2.872,2.872,0,0,1-.243-2.449l.8-2.247.8-2.247a2.871,2.871,0,0,0-1.3-3.474l-1.882-1.053-1.882-1.054a12.859,12.859,0,0,0-3.4-.262c-1.473,0-2.855.045-2.855.045v5.711l-7.685.075-7.685.075a2.869,2.869,0,0,1-1.241-.258,2.9,2.9,0,0,1-1.011-.767l-1.553-1.851-1.553-1.851a2.863,2.863,0,0,0-2.806-.958h-4.4v8.284h-.541l.388,1.025.388,1.025a2.894,2.894,0,0,1,.18,1.228,2.845,2.845,0,0,1-.351,1.185l-3.267,5.884-3.267,5.884a2.882,2.882,0,0,1-1.978,1.429l-2.327.437-2.327.437a2.872,2.872,0,0,0-2.34,2.874l.039,2.154Zm34.544-14.616a11.829,11.829,0,1,1-8.526,3.609A11.781,11.781,0,0,1,1283.9,1634.641Z" transform="translate(-1249.151 -1614.904)" fill="#24313e"></path><path d="M1292.156,1677.583v-5.759l-7.445.072-7.445.072a2.741,2.741,0,0,0-2.085,1.018l-1.478,1.828-1.478,1.827c-.448.557-2.161.74-3.846.778s-3.343-.069-3.681-.093l-.06,0-.061,0v-8.276h-.352l.342-.951.342-.952a2.736,2.736,0,0,0-.232-2.338l-3.309-5.5-3.308-5.5a2.733,2.733,0,0,0-1.938-1.3l-2.353-.354-2.353-.355a2.992,2.992,0,0,1-2.555-2.911h0l-.039-2.154-.039-2.154a2.992,2.992,0,0,1,2.446-3l2.327-.438,2.327-.437a2.744,2.744,0,0,0,1.888-1.364l3.267-5.884,3.267-5.884a2.718,2.718,0,0,0,.337-1.13,2.758,2.758,0,0,0-.173-1.173l-.422-1.113-.422-1.113h.6v-8.284h4.514a2.985,2.985,0,0,1,2.92,1l1.553,1.851,1.553,1.851a2.74,2.74,0,0,0,2.1.979h.05l7.621-.074,7.621-.074v-5.708l.063,0,.063,0c.285-.01,1.681-.055,3.1-.046a11.522,11.522,0,0,1,3.227.28l1.882,1.054,1.882,1.054a2.991,2.991,0,0,1,1.363,3.631l-.8,2.247-.8,2.247a2.737,2.737,0,0,0,.232,2.338l3.306,5.5,3.306,5.5a2.738,2.738,0,0,0,.826.871,2.7,2.7,0,0,0,1.116.429l2.351.355,2.351.355a2.991,2.991,0,0,1,2.555,2.911l.041,2.154.041,2.154a2.992,2.992,0,0,1-2.446,3l-2.327.44-2.327.44a2.716,2.716,0,0,0-1.888,1.364l-3.267,5.882-3.267,5.882a2.745,2.745,0,0,0-.168,2.3l.823,2.167.823,2.167a3,3,0,0,1-1.294,3.659l-1.864,1.09-1.864,1.09a2.989,2.989,0,0,1-1.867.39l-2.58.051Zm.26-6.021v5.756l2.456-.048,2.456-.048a2.811,2.811,0,0,0,.9-.038,2.7,2.7,0,0,0,.825-.317l1.864-1.09,1.864-1.09a2.737,2.737,0,0,0,1.181-3.342l-.823-2.167-.823-2.167a2.989,2.989,0,0,1-.186-1.279,3.028,3.028,0,0,1,.37-1.243l3.267-5.882,3.267-5.882a2.975,2.975,0,0,1,2.068-1.494l2.327-.44,2.327-.44a2.733,2.733,0,0,0,2.234-2.743l-.041-2.154-.041-2.154a2.731,2.731,0,0,0-2.333-2.66l-2.351-.355-2.351-.354a2.968,2.968,0,0,1-1.223-.47,3,3,0,0,1-.9-.954l-3.306-5.5-3.306-5.5a2.994,2.994,0,0,1-.255-2.56l.805-2.247.805-2.247a2.732,2.732,0,0,0-1.246-3.316l-1.882-1.054-1.882-1.054a9.72,9.72,0,0,0-2.636-.239c-1.244-.018-2.621.008-3.427.034v5.714l-7.749.076-7.749.076a3.014,3.014,0,0,1-2.353-1.071l-1.553-1.851-1.553-1.851a2.727,2.727,0,0,0-2.679-.914h-.014l-.014,0h-4.268v8.284H1264l.355.937.355.937a3.024,3.024,0,0,1,.189,1.284,2.978,2.978,0,0,1-.369,1.238l-3.267,5.884-3.267,5.884a3,3,0,0,1-2.067,1.494l-2.327.437-2.327.438a2.733,2.733,0,0,0-2.234,2.744l.039,2.154.039,2.154h0a2.733,2.733,0,0,0,2.333,2.659l2.353.355,2.353.355a2.992,2.992,0,0,1,2.122,1.423l3.308,5.5,3.309,5.5a3,3,0,0,1,.254,2.56l-.279.778-.279.778h.243v8.292c.943.062,2.571.121,4.047.061s2.8-.24,3.138-.657l1.479-1.828,1.478-1.828a3,3,0,0,1,2.283-1.115l7.577-.073Zm-8.915-13.51h-.009a11.958,11.958,0,1,1,.022-23.916h.019a11.958,11.958,0,1,1-.032,23.916Zm.013-23.655a11.7,11.7,0,0,0-.022,23.4h.009a11.7,11.7,0,0,0,.032-23.4h-.019Z" transform="translate(-1248.781 -1614.528)" fill="#031439"></path></g><g transform="translate(1170.48 1532.768)"><g transform="translate(0)"><path d="M1228.663,1648.955a2.87,2.87,0,0,0,2.443,2.785l2.353.355,2.353.355a2.87,2.87,0,0,1,2.03,1.362l3.308,5.5,3.308,5.5a2.872,2.872,0,0,1,.244,2.449l-.805,2.247-.805,2.247a2.874,2.874,0,0,0,1.3,3.474l1.882,1.056,1.882,1.056a2.873,2.873,0,0,0,3.64-.7l1.478-1.828,1.478-1.828a2.879,2.879,0,0,1,2.185-1.066l6.425-.111,6.425-.111a2.9,2.9,0,0,1,1.24.261,2.837,2.837,0,0,1,1.007.77l1.553,1.848,1.553,1.848a2.871,2.871,0,0,0,3.65.637l1.864-1.09,1.864-1.09a2.875,2.875,0,0,0,1.237-3.5l-.823-2.167-.823-2.167a2.862,2.862,0,0,1-.178-1.226,2.893,2.893,0,0,1,.354-1.187l3.267-5.881,3.267-5.882a2.848,2.848,0,0,1,1.977-1.429l2.327-.44,2.327-.44a2.868,2.868,0,0,0,2.34-2.873l-.042-2.154-.042-2.154a2.869,2.869,0,0,0-2.444-2.785l-2.35-.355-2.351-.355a2.854,2.854,0,0,1-2.035-1.362l-3.306-5.5-3.306-5.5a2.871,2.871,0,0,1-.243-2.449l.805-2.247.8-2.247a2.871,2.871,0,0,0-1.3-3.474l-1.882-1.054-1.882-1.054a2.864,2.864,0,0,0-3.634.7l-1.478,1.828-1.478,1.828a2.848,2.848,0,0,1-.974.776,2.885,2.885,0,0,1-1.211.291l-6.425.111-6.425.111a2.881,2.881,0,0,1-2.252-1.025l-1.553-1.851-1.553-1.851a2.869,2.869,0,0,0-3.65-.632l-1.861,1.09-1.862,1.09a2.867,2.867,0,0,0-1.237,3.495l.821,2.167.821,2.167a2.891,2.891,0,0,1,.18,1.228,2.851,2.851,0,0,1-.351,1.185l-3.267,5.884-3.267,5.884a2.882,2.882,0,0,1-1.978,1.429l-2.327.438-2.327.437a2.872,2.872,0,0,0-2.34,2.874l.039,2.154Zm34.543-14.616a11.829,11.829,0,1,1-8.526,3.609A11.778,11.778,0,0,1,1263.206,1634.339Z" transform="translate(-1228.328 -1614.37)" fill="#ebf0f5"></path><path d="M1248.832,1677.229a3.114,3.114,0,0,1-.779-.1,3.147,3.147,0,0,1-.751-.3l-1.882-1.056-1.882-1.057a3.12,3.12,0,0,1-1.416-3.784l.805-2.247.8-2.247a2.61,2.61,0,0,0-.222-2.23l-3.308-5.5-3.308-5.5a2.606,2.606,0,0,0-1.849-1.24l-2.353-.354-2.353-.355a3.118,3.118,0,0,1-2.662-3.034l-.039-2.154-.039-2.154a3.119,3.119,0,0,1,2.549-3.13l2.327-.438,2.327-.437a2.615,2.615,0,0,0,1.8-1.3l3.267-5.884,3.267-5.884a2.59,2.59,0,0,0,.321-1.078,2.638,2.638,0,0,0-.166-1.119l-.821-2.167-.821-2.167a3.112,3.112,0,0,1,1.348-3.807l1.861-1.089,1.861-1.09a3.121,3.121,0,0,1,3.976.688l1.553,1.851,1.553,1.851a2.6,2.6,0,0,0,2.051.934l6.425-.111,6.425-.111a2.625,2.625,0,0,0,1.1-.265,2.589,2.589,0,0,0,.885-.706l1.479-1.828,1.478-1.828a3.114,3.114,0,0,1,3.959-.761l1.882,1.053,1.882,1.053a3.119,3.119,0,0,1,1.421,3.784l-.805,2.247-.8,2.247a2.609,2.609,0,0,0,.222,2.23l3.306,5.5,3.306,5.5a2.61,2.61,0,0,0,.787.831,2.582,2.582,0,0,0,1.064.409l2.351.354,2.351.355a3.117,3.117,0,0,1,2.662,3.034l.041,2.154.041,2.154a3.118,3.118,0,0,1-2.549,3.13l-2.327.44-2.327.44a2.588,2.588,0,0,0-1.8,1.3l-3.267,5.882-3.267,5.882a2.621,2.621,0,0,0-.161,2.2l.823,2.167.823,2.167a3.122,3.122,0,0,1-1.347,3.812l-1.864,1.09-1.864,1.09a3.121,3.121,0,0,1-3.976-.693l-1.553-1.848-1.553-1.848a2.585,2.585,0,0,0-.9-.694,2.643,2.643,0,0,0-1.116-.245h-.033l-6.425.111-6.424.111a2.617,2.617,0,0,0-1.99.972l-1.478,1.827-1.478,1.828a3.118,3.118,0,0,1-2.433,1.168Zm-20.642-29.012a2.605,2.605,0,0,0,2.225,2.536l2.353.355,2.353.355a3.121,3.121,0,0,1,2.212,1.483l3.308,5.5,3.308,5.5a3.12,3.12,0,0,1,.265,2.667l-.805,2.247-.805,2.247a2.609,2.609,0,0,0,1.184,3.164l1.882,1.056,1.882,1.057a2.609,2.609,0,0,0,3.314-.642l1.479-1.828,1.478-1.828a3.131,3.131,0,0,1,2.38-1.162l6.425-.111,6.425-.111a3.275,3.275,0,0,1,1.357.29,3.058,3.058,0,0,1,1.092.833l1.552,1.848,1.553,1.848a2.61,2.61,0,0,0,3.325.58l1.864-1.09,1.864-1.09a2.611,2.611,0,0,0,1.127-3.188l-.823-2.167-.823-2.167a3.13,3.13,0,0,1,.191-2.628l3.267-5.882,3.267-5.882a3.1,3.1,0,0,1,2.155-1.556l2.327-.44,2.327-.44a2.607,2.607,0,0,0,2.132-2.617l-.041-2.154-.041-2.154a2.6,2.6,0,0,0-2.225-2.537l-2.351-.355-2.351-.355a3.089,3.089,0,0,1-1.273-.49,3.127,3.127,0,0,1-.943-.994l-3.306-5.5-3.306-5.5a3.122,3.122,0,0,1-.265-2.667l.8-2.247.8-2.247a2.607,2.607,0,0,0-1.188-3.164l-1.882-1.054-1.882-1.054a2.6,2.6,0,0,0-3.31.637l-1.478,1.827-1.478,1.828a3.107,3.107,0,0,1-1.058.845,3.141,3.141,0,0,1-1.322.317l-6.425.111-6.425.112a3.1,3.1,0,0,1-1.349-.278,3.162,3.162,0,0,1-1.1-.838l-1.553-1.851-1.553-1.851a2.61,2.61,0,0,0-3.324-.575l-1.861,1.09-1.861,1.09a2.6,2.6,0,0,0-1.127,3.183l.821,2.167.821,2.167a3.144,3.144,0,0,1,.2,1.338,3.1,3.1,0,0,1-.384,1.29l-3.267,5.884-3.267,5.884a3.127,3.127,0,0,1-2.154,1.556l-2.328.438-2.328.438a2.607,2.607,0,0,0-2.131,2.617l.039,2.154Zm34.255,9.3h-.01a12.084,12.084,0,1,1,.022-24.169h.019a12.084,12.084,0,1,1-.032,24.169Zm.013-23.656a11.572,11.572,0,0,0-.022,23.143h.009a11.572,11.572,0,0,0,.032-23.143h-.019Z" transform="translate(-1227.599 -1613.637)" fill="#24313e"></path><path d="M1248.832,1677.229a3.114,3.114,0,0,1-.779-.1,3.147,3.147,0,0,1-.751-.3l-1.882-1.056-1.882-1.057a3.12,3.12,0,0,1-1.416-3.784l.805-2.247.8-2.247a2.61,2.61,0,0,0-.222-2.23l-3.308-5.5-3.308-5.5a2.606,2.606,0,0,0-1.849-1.24l-2.353-.354-2.353-.355a3.118,3.118,0,0,1-2.662-3.034l-.039-2.154-.039-2.154a3.119,3.119,0,0,1,2.549-3.13l2.327-.438,2.327-.437a2.615,2.615,0,0,0,1.8-1.3l3.267-5.884,3.267-5.884a2.59,2.59,0,0,0,.321-1.078,2.638,2.638,0,0,0-.166-1.119l-.821-2.167-.821-2.167a3.112,3.112,0,0,1,1.348-3.807l1.861-1.089,1.861-1.09a3.121,3.121,0,0,1,3.976.688l1.553,1.851,1.553,1.851a2.6,2.6,0,0,0,2.051.934l6.425-.111,6.425-.111a2.625,2.625,0,0,0,1.1-.265,2.589,2.589,0,0,0,.885-.706l1.479-1.828,1.478-1.828a3.114,3.114,0,0,1,3.959-.761l1.882,1.053,1.882,1.053a3.119,3.119,0,0,1,1.421,3.784l-.805,2.247-.8,2.247a2.609,2.609,0,0,0,.222,2.23l3.306,5.5,3.306,5.5a2.61,2.61,0,0,0,.787.831,2.582,2.582,0,0,0,1.064.409l2.351.354,2.351.355a3.117,3.117,0,0,1,2.662,3.034l.041,2.154.041,2.154a3.118,3.118,0,0,1-2.549,3.13l-2.327.44-2.327.44a2.588,2.588,0,0,0-1.8,1.3l-3.267,5.882-3.267,5.882a2.621,2.621,0,0,0-.161,2.2l.823,2.167.823,2.167a3.122,3.122,0,0,1-1.347,3.812l-1.864,1.09-1.864,1.09a3.121,3.121,0,0,1-3.976-.693l-1.553-1.848-1.553-1.848a2.585,2.585,0,0,0-.9-.694,2.643,2.643,0,0,0-1.116-.245h-.033l-6.425.111-6.424.111a2.617,2.617,0,0,0-1.99.972l-1.478,1.827-1.478,1.828a3.118,3.118,0,0,1-2.433,1.168Zm-20.642-29.012a2.605,2.605,0,0,0,2.225,2.536l2.353.355,2.353.355a3.121,3.121,0,0,1,2.212,1.483l3.308,5.5,3.308,5.5a3.12,3.12,0,0,1,.265,2.667l-.805,2.247-.805,2.247a2.609,2.609,0,0,0,1.184,3.164l1.882,1.056,1.882,1.057a2.609,2.609,0,0,0,3.314-.642l1.479-1.828,1.478-1.828a3.131,3.131,0,0,1,2.38-1.162l6.425-.111,6.425-.111a3.275,3.275,0,0,1,1.357.29,3.058,3.058,0,0,1,1.092.833l1.552,1.848,1.553,1.848a2.61,2.61,0,0,0,3.325.58l1.864-1.09,1.864-1.09a2.611,2.611,0,0,0,1.127-3.188l-.823-2.167-.823-2.167a3.13,3.13,0,0,1,.191-2.628l3.267-5.882,3.267-5.882a3.1,3.1,0,0,1,2.155-1.556l2.327-.44,2.327-.44a2.607,2.607,0,0,0,2.132-2.617l-.041-2.154-.041-2.154a2.6,2.6,0,0,0-2.225-2.537l-2.351-.355-2.351-.355a3.089,3.089,0,0,1-1.273-.49,3.127,3.127,0,0,1-.943-.994l-3.306-5.5-3.306-5.5a3.122,3.122,0,0,1-.265-2.667l.8-2.247.8-2.247a2.607,2.607,0,0,0-1.188-3.164l-1.882-1.054-1.882-1.054a2.6,2.6,0,0,0-3.31.637l-1.478,1.827-1.478,1.828a3.107,3.107,0,0,1-1.058.845,3.141,3.141,0,0,1-1.322.317l-6.425.111-6.425.112a3.1,3.1,0,0,1-1.349-.278,3.162,3.162,0,0,1-1.1-.838l-1.553-1.851-1.553-1.851a2.61,2.61,0,0,0-3.324-.575l-1.861,1.09-1.861,1.09a2.6,2.6,0,0,0-1.127,3.183l.821,2.167.821,2.167a3.144,3.144,0,0,1,.2,1.338,3.1,3.1,0,0,1-.384,1.29l-3.267,5.884-3.267,5.884a3.127,3.127,0,0,1-2.154,1.556l-2.328.438-2.328.438a2.607,2.607,0,0,0-2.131,2.617l.039,2.154Zm34.255,9.3h-.01a12.084,12.084,0,1,1,.022-24.169h.019a12.084,12.084,0,1,1-.032,24.169Zm.013-23.656a11.572,11.572,0,0,0-.022,23.143h.009a11.572,11.572,0,0,0,.032-23.143h-.019Z" transform="translate(-1227.599 -1613.637)" fill="#24313e"></path></g></g><g transform="translate(1150.394 1504.33)"><g transform="translate(0 0)"><path d="M1250.45,1524.739l-4.005,3.607-4.005,3.607q-.746-.829-1.525-1.619t-1.591-1.539a49.152,49.152,0,0,0-78.222,15.566,2.56,2.56,0,0,1-3.281,1.319l-2.628-1.051-2.628-1.051a2.563,2.563,0,0,1-1.427-1.42,2.538,2.538,0,0,1,.038-2.009,59.971,59.971,0,0,1,97.266-17.535v0h0l0,0h0q.513.515,1.015,1.046T1250.45,1524.739Z" transform="translate(-1150.804 -1504.737)" fill="#0062ff"></path><path d="M1158.36,1545.6a2.705,2.705,0,0,1-.5-.047,2.756,2.756,0,0,1-.5-.146l-2.628-1.051-2.628-1.051a2.718,2.718,0,0,1-1.707-2.57,2.672,2.672,0,0,1,.24-1.051,60.118,60.118,0,0,1,97.5-17.577l.021.022.021.022q.5.5.991,1.023t.981,1.064l.048.053.048.053-4.112,3.7-4.112,3.7-.048-.053-.048-.053q-.737-.819-1.517-1.61t-1.59-1.538a48.914,48.914,0,0,0-77.995,15.52,2.7,2.7,0,0,1-2.46,1.587Zm47.084-40.983A59.9,59.9,0,0,0,1150.9,1539.8a2.382,2.382,0,0,0-.039,1.889,2.406,2.406,0,0,0,1.351,1.348l2.628,1.051,2.628,1.051a2.415,2.415,0,0,0,3.1-1.245,49.565,49.565,0,0,1,7.584-11.817,48.987,48.987,0,0,1,23.332-14.978,49.825,49.825,0,0,1,13.969-1.988,49.249,49.249,0,0,1,33.565,13.171q.788.728,1.549,1.5t1.481,1.565l3.9-3.511,3.9-3.512q-.469-.519-.948-1.024t-.958-.985l-.021-.022-.021-.023a59.608,59.608,0,0,0-42.446-17.651Z" transform="translate(-1150.394 -1504.33)" fill="#24313e"></path></g><g transform="translate(84.235 14.893)"><path d="M1475.5,1575.932l8.961,4.35,8.961,4.35a1.386,1.386,0,0,0,1.988-1.346l-.712-9.936-.712-9.936a1.386,1.386,0,0,0-2.16-1.049l-8.249,5.586-8.249,5.586a1.386,1.386,0,0,0,.172,2.395Z" transform="translate(-1474.572 -1561.981)" fill="#0062ff"></path><path d="M1493.62,1584.508a1.511,1.511,0,0,1-.34-.039,1.563,1.563,0,0,1-.331-.117l-8.961-4.35-8.961-4.35a1.526,1.526,0,0,1-.19-2.642l8.249-5.586,8.249-5.586a1.526,1.526,0,0,1,2.383,1.157l.712,9.936.712,9.936a1.514,1.514,0,0,1-.668,1.375,1.558,1.558,0,0,1-.413.2A1.5,1.5,0,0,1,1493.62,1584.508Zm-18.468-9.113,8.961,4.35,8.961,4.35a1.24,1.24,0,0,0,1.782-1.207l-.712-9.936-.712-9.936a1.241,1.241,0,0,0-1.937-.94l-8.249,5.586-8.25,5.586a1.24,1.24,0,0,0,.154,2.147Z" transform="translate(-1474.165 -1561.573)" fill="#24313e"></path></g></g><g transform="translate(1154.69 1584.531)"><g transform="translate(4.957 0)"><path d="M1232.333,1852.944a59.953,59.953,0,0,1-45.6-21l4.094-3.505,4.095-3.505a49.222,49.222,0,0,0,81.624-10.344,2.564,2.564,0,0,1,3.316-1.235l2.6,1.118,2.6,1.118a2.562,2.562,0,0,1,1.3,3.464,59.964,59.964,0,0,1-54.034,33.889Z" transform="translate(-1186.535 -1813.003)" fill="#0062ff"></path><path d="M1231.758,1852.68a60.1,60.1,0,0,1-45.7-21.048l-.046-.055-.047-.054,4.2-3.6,4.2-3.6.047.054.047.054a49,49,0,0,0,81.386-10.315,2.707,2.707,0,0,1,3.5-1.3l2.6,1.118,2.6,1.118a2.7,2.7,0,0,1,1.373,3.658,60.1,60.1,0,0,1-54.163,33.969Zm-45.394-21.126a59.96,59.96,0,0,0,99.3-12.969,2.417,2.417,0,0,0-1.228-3.271l-2.6-1.118-2.6-1.118a2.422,2.422,0,0,0-3.132,1.167,49.367,49.367,0,0,1-81.768,10.483l-3.986,3.412Z" transform="translate(-1185.961 -1812.596)" fill="#24313e"></path></g><g transform="translate(5.16 0.144)" opacity="0.25" style="mix-blend-mode:overlay;isolation:isolate"><path d="M1286.369,1819.057l-.015.03c-.005.01-.01.02-.017.03a2.579,2.579,0,0,0-.519-.692,2.548,2.548,0,0,0-.751-.492l-2.6-1.117-2.6-1.117a2.564,2.564,0,0,0-3.317,1.236,49.227,49.227,0,0,1-81.625,10.344l-3.5,3-3.5,3q-.3-.33-.6-.663t-.583-.671l4.094-3.5,4.094-3.5a49.224,49.224,0,0,0,81.625-10.344,2.564,2.564,0,0,1,3.317-1.236l2.6,1.117,2.6,1.117a2.561,2.561,0,0,1,1.3,3.465Z" transform="translate(-1186.74 -1813.148)" fill="#ebf0f5"></path></g><g transform="translate(0 1.02)"><path d="M1187.178,1826.376l-8.848-4.576-8.848-4.575a1.386,1.386,0,0,0-2.021,1.3l.46,9.95.46,9.951a1.386,1.386,0,0,0,2.132,1.1l8.388-5.375,8.388-5.375a1.386,1.386,0,0,0-.111-2.4Z" transform="translate(-1167.316 -1816.925)" fill="#0062ff"></path><path d="M1169.36,1839.481a1.512,1.512,0,0,1-.358-.043,1.561,1.561,0,0,1-.346-.13,1.515,1.515,0,0,1-.825-1.287l-.46-9.951-.46-9.951a1.526,1.526,0,0,1,2.23-1.429l8.849,4.576,8.848,4.575a1.526,1.526,0,0,1,.123,2.646l-8.388,5.375-8.388,5.375a1.542,1.542,0,0,1-.4.182A1.493,1.493,0,0,1,1169.36,1839.481Zm-.923-22.678a1.222,1.222,0,0,0-.345.05,1.266,1.266,0,0,0-.325.149,1.23,1.23,0,0,0-.571,1.1l.46,9.951.46,9.951a1.24,1.24,0,0,0,1.912.989l8.388-5.375,8.388-5.375a1.241,1.241,0,0,0-.1-2.151l-8.848-4.576-8.849-4.576a1.265,1.265,0,0,0-.281-.106A1.225,1.225,0,0,0,1168.436,1816.8Z" transform="translate(-1166.908 -1816.517)" fill="#24313e"></path></g></g><g transform="translate(1234.772 1522.211)" style="mix-blend-mode:color-burn;isolation:isolate"><path d="M1487.977,1573.057l-6.631,2.021-6.631,2.022,1.659,1.345,1.659,1.345,4.972-3.367Z" transform="translate(-1474.715 -1573.057)" fill="#455666"></path></g><g transform="translate(1161.999 1599.726)" style="mix-blend-mode:color-burn;isolation:isolate"><path d="M1204.106,1871l-4.553,2.992-4.553,2.992,1.3,1.3,1.3,1.3,3.252-4.293Z" transform="translate(-1195 -1871)" fill="#455666"></path></g><g transform="translate(1150.538 1504.473)" opacity="0.25" style="mix-blend-mode:overlay;isolation:isolate"><path d="M1248.441,1522.613v0h0a62.9,62.9,0,0,0-17.7-10.628,66.088,66.088,0,0,0-45.182-1.873,59.258,59.258,0,0,0-13.46,7.523c-7.236,5.3-15.486,13.662-19.54,25.939a2.563,2.563,0,0,1-1.427-1.42,2.538,2.538,0,0,1,.038-2.009,59.971,59.971,0,0,1,97.266-17.535Z" transform="translate(-1150.948 -1504.88)" fill="#ebf0f5"></path></g><g transform="translate(1251.885 1519.271)" opacity="0.25" style="mix-blend-mode:overlay;isolation:isolate"><path d="M1542.232,1584.261l-.173-.085-.173-.085a1.36,1.36,0,0,0,.512-1.176l-.711-9.936-.712-9.936a1.368,1.368,0,0,0-.481-.952l.072-.048.071-.048a1.386,1.386,0,0,1,2.16,1.048l.711,9.936.712,9.936a1.385,1.385,0,0,1-1.988,1.345Z" transform="translate(-1540.494 -1561.756)" fill="#ebf0f5"></path></g><g transform="translate(1154.943 1585.697)" opacity="0.25" style="mix-blend-mode:overlay;isolation:isolate"><g transform="translate(0 0)"><path d="M1187.7,1828.809l-.163.1-.163.1a1.359,1.359,0,0,0-.734-1.052l-8.842-4.587-8.842-4.587a1.366,1.366,0,0,0-1.063-.087l0-.086,0-.086a1.386,1.386,0,0,1,2.023-1.293l8.842,4.587,8.842,4.587a1.385,1.385,0,0,1,.108,2.4Z" transform="translate(-1167.879 -1817.08)" fill="#ebf0f5"></path></g></g></g></g></svg>