<svg xmlns="http://www.w3.org/2000/svg" width="250" height="150" viewBox="0 0 250 150"><g transform="translate(-1670.41 -203.871)"><rect width="250" height="150" transform="translate(1670.41 203.871)" fill="none" opacity="0.24"></rect><g transform="translate(7.265 -4.73)"><g transform="translate(1722.145 216.602)"><g transform="translate(0.154 0.151)"><path d="M1839.261,256.779a17.785,17.785,0,0,0,.02-4.914,19.064,19.064,0,0,0-1.25-4.656,21.037,21.037,0,0,0-2.33-4.228,22.59,22.59,0,0,0-7.142-6.486,21.084,21.084,0,0,0-4.432-1.915,19.113,19.113,0,0,0-4.753-.8,17.794,17.794,0,0,0-4.884.484,9.7,9.7,0,0,1-3.055.241,10.077,10.077,0,0,1-1.495-.233,10.463,10.463,0,0,1-1.444-.449,10.857,10.857,0,0,1-1.371-.653,11.156,11.156,0,0,1-1.277-.842,11.38,11.38,0,0,1-2.184-2.2,31.458,31.458,0,0,0-8.228-7.625,32.968,32.968,0,0,0-9.9-4.2,37.657,37.657,0,0,0-10.718-1.007,41.213,41.213,0,0,0-10.677,1.943,40.477,40.477,0,0,0-9.78,4.656,36.1,36.1,0,0,0-8.026,7.13,31.678,31.678,0,0,0-7.36,20.728,10.648,10.648,0,0,1-.7,3.854,10.862,10.862,0,0,1-.533,1.182,11.074,11.074,0,0,1-1.47,2.143,11.3,11.3,0,0,1-.921.938,11.426,11.426,0,0,1-1.035.834,26.538,26.538,0,0,0-6.655,6.847,28.137,28.137,0,0,0-3.776,8.385,32.017,32.017,0,0,0-1.057,9.153,34.419,34.419,0,0,0,1.5,9.15,33.115,33.115,0,0,0,3.9,8.377,29.322,29.322,0,0,0,6.141,6.833,26.629,26.629,0,0,0,8.221,4.518,28.6,28.6,0,0,0,10.142,1.432h75.218v-.043a25.648,25.648,0,0,0,9.278-1.039,22.866,22.866,0,0,0,7.432-3.919,25,25,0,0,0,5.476-6.072,28.74,28.74,0,0,0,3.409-7.5,30.574,30.574,0,0,0,1.231-8.2,28.722,28.722,0,0,0-1.058-8.171,24.994,24.994,0,0,0-3.457-7.418,22.925,22.925,0,0,0-5.967-5.937,13.031,13.031,0,0,1-1.224-.947,12.6,12.6,0,0,1-1.091-1.076,12.018,12.018,0,0,1-.94-1.19,11.3,11.3,0,0,1-.77-1.289,10.546,10.546,0,0,1-.581-1.371,9.868,9.868,0,0,1-.374-1.439,9.361,9.361,0,0,1-.055-3.017Z" transform="translate(-1722.815 -217.258)" fill="#0062ff"></path></g><g transform="translate(0 0)"><path d="M1751.184,315.077a28.573,28.573,0,0,1-9.33-1.525,26.769,26.769,0,0,1-8.1-4.479,29.431,29.431,0,0,1-6.093-6.729,33.152,33.152,0,0,1-4-8.558,34.581,34.581,0,0,1-1.5-9.276,32.216,32.216,0,0,1,1.058-9.116,28.188,28.188,0,0,1,3.948-8.653,26.75,26.75,0,0,1,6.544-6.668,11.313,11.313,0,0,0,1.018-.82,11.069,11.069,0,0,0,1.7-1.943,10.812,10.812,0,0,0,.66-1.1,10.509,10.509,0,0,0,1.213-4.961,32.48,32.48,0,0,1,1.849-11.1,32.032,32.032,0,0,1,5.548-9.73,36.2,36.2,0,0,1,7.922-7.082,40.507,40.507,0,0,1,9.958-4.755,41.384,41.384,0,0,1,10.839-1.946,37.891,37.891,0,0,1,10.644,1.007,33.025,33.025,0,0,1,10.212,4.392,31.7,31.7,0,0,1,8.008,7.49,11.215,11.215,0,0,0,2.153,2.164,10.963,10.963,0,0,0,1.26.831,10.69,10.69,0,0,0,1.35.642,10.286,10.286,0,0,0,1.431.445,9.938,9.938,0,0,0,1.462.227,9.614,9.614,0,0,0,1.515,0,9.5,9.5,0,0,0,1.49-.237,17.983,17.983,0,0,1,4.825-.488,19.262,19.262,0,0,1,4.9.808,21.274,21.274,0,0,1,4.43,1.91,22.711,22.711,0,0,1,7.253,6.587,21.225,21.225,0,0,1,2.324,4.226,19.224,19.224,0,0,1,1.269,4.8,17.964,17.964,0,0,1-.03,4.855h0a9.237,9.237,0,0,0,.055,2.966,9.717,9.717,0,0,0,.364,1.4,10.362,10.362,0,0,0,.577,1.363,11.086,11.086,0,0,0,.755,1.264,11.768,11.768,0,0,0,.931,1.181,12.409,12.409,0,0,0,1.077,1.063,12.851,12.851,0,0,0,1.209.935,23.118,23.118,0,0,1,5.873,5.783,25.055,25.055,0,0,1,3.615,7.66,28.941,28.941,0,0,1,1.06,8.157,30.74,30.74,0,0,1-1.234,8.3,28.791,28.791,0,0,1-3.511,7.683,25.114,25.114,0,0,1-5.428,5.969,23.017,23.017,0,0,1-7.688,4,25.891,25.891,0,0,1-8.961,1v.023l-.08.005-.08.005h-75.065c-.062,0-.11,0-.148-.005v.006q-.261.009-.521.013T1751.184,315.077Zm24.984-98.155a40.962,40.962,0,0,0-12.5,1.97,40.188,40.188,0,0,0-9.877,4.715,35.875,35.875,0,0,0-7.854,7.02,31.708,31.708,0,0,0-5.493,9.633,32.162,32.162,0,0,0-1.831,10.991,10.806,10.806,0,0,1-.707,3.909,10.982,10.982,0,0,1-.542,1.2,11.248,11.248,0,0,1-1.491,2.174,11.371,11.371,0,0,1-.937.954,11.628,11.628,0,0,1-1.047.843,26.43,26.43,0,0,0-6.467,6.59,27.883,27.883,0,0,0-3.9,8.553,31.906,31.906,0,0,0-1.047,9.027,34.259,34.259,0,0,0,1.49,9.187,32.827,32.827,0,0,0,3.961,8.472,29.126,29.126,0,0,0,6.029,6.659,26.452,26.452,0,0,0,8.467,4.58,28.574,28.574,0,0,0,9.79,1.335h75.063V314.7h.171a25.656,25.656,0,0,0,8.94-.956,22.709,22.709,0,0,0,7.661-3.968,24.8,24.8,0,0,0,5.361-5.9,28.469,28.469,0,0,0,3.469-7.594,30.409,30.409,0,0,0,1.221-8.213,28.6,28.6,0,0,0-1.048-8.068,24.739,24.739,0,0,0-3.567-7.56,22.791,22.791,0,0,0-5.793-5.706,13.181,13.181,0,0,1-1.24-.959,12.758,12.758,0,0,1-1.1-1.089,12.142,12.142,0,0,1-.957-1.214,11.389,11.389,0,0,1-.776-1.3,10.7,10.7,0,0,1-.595-1.407,10.038,10.038,0,0,1-.376-1.448,9.635,9.635,0,0,1-.152-1.535,9.515,9.515,0,0,1,.1-1.534,17.67,17.67,0,0,0,.029-4.77,18.891,18.891,0,0,0-1.248-4.717,20.875,20.875,0,0,0-2.29-4.163,22.392,22.392,0,0,0-7.147-6.491,20.947,20.947,0,0,0-4.364-1.882,18.942,18.942,0,0,0-4.812-.794,17.668,17.668,0,0,0-4.741.478,9.817,9.817,0,0,1-1.54.246,9.946,9.946,0,0,1-1.565,0,10.233,10.233,0,0,1-1.509-.234,10.568,10.568,0,0,1-1.476-.459,11,11,0,0,1-1.39-.661,11.323,11.323,0,0,1-1.3-.855,11.537,11.537,0,0,1-2.214-2.227,31.381,31.381,0,0,0-7.928-7.415,32.7,32.7,0,0,0-10.111-4.348,35.638,35.638,0,0,0-4.335-.778A38.483,38.483,0,0,0,1776.169,216.922Z" transform="translate(-1722.145 -216.601)" fill="#24313e"></path></g></g><g transform="translate(1768.357 238.987)" opacity="0.33" style="mix-blend-mode:multiply;isolation:isolate"><g transform="translate(0 0)"><path d="M1969.687,337.24v28.673h-6.214v-27.8a17.01,17.01,0,1,0-34.02,0v27.8h-6.214V337.24a23.224,23.224,0,1,1,46.448,0Z" transform="translate(-1923.239 -314.017)" fill="#455666"></path></g></g><g transform="translate(1760.442 290.438)" opacity="0.33" style="mix-blend-mode:multiply;isolation:isolate"><path d="M1947.615,596.729h-53.36a5.458,5.458,0,0,1-5.458-5.458v-47.9a5.458,5.458,0,0,1,5.458-5.458h53.36a5.458,5.458,0,0,1,5.458,5.458v47.9a5.458,5.458,0,0,1-5.458,5.458Z" transform="translate(-1888.798 -537.91)" fill="#455666"></path></g><g transform="translate(1765.373 238.761)"><g transform="translate(0.226 0.227)"><path d="M1957.687,337.24v28.673h-6.214v-27.8a17.01,17.01,0,1,0-34.02,0v27.8h-6.214V337.24a23.224,23.224,0,1,1,46.448,0Z" transform="translate(-1911.239 -314.017)" fill="#24313e"></path></g><g transform="translate(0 0)"><path d="M1957.154,365.379h-6.666V337.356a16.784,16.784,0,0,0-33.567,0v28.024h-6.667v-28.9a23.45,23.45,0,1,1,46.9,0v28.9Zm-6.214-.453h5.761V336.48a23,23,0,0,0-45.995,0v28.446h5.76V337.356a17.237,17.237,0,1,1,34.473,0v27.571Z" transform="translate(-1910.254 -313.031)" fill="#24313e"></path></g></g><g transform="translate(1762.344 238.758)"><g transform="translate(0.23 0.23)"><path d="M1944.523,337.24v28.673h-6.214v-27.8a17.01,17.01,0,1,0-34.02,0v27.8h-6.214V337.24a23.224,23.224,0,1,1,46.448,0Z" transform="translate(-1898.075 -314.017)" fill="#d9dee5"></path></g><g transform="translate(0 0)"><path d="M1943.982,365.372h-6.673V337.345a16.78,16.78,0,0,0-33.561,0v28.027h-6.673v-28.9a23.454,23.454,0,1,1,46.907,0v28.9Zm-6.214-.46h5.754V336.469a22.994,22.994,0,0,0-45.988,0v28.443h5.754V337.345a17.24,17.24,0,1,1,34.48,0v27.568Z" transform="translate(-1897.075 -313.017)" fill="#24313e"></path></g></g><g transform="translate(1757.458 290.211)"><g transform="translate(0.226 0.227)"><path d="M1935.615,596.729h-53.36a5.458,5.458,0,0,1-5.457-5.458v-47.9a5.457,5.457,0,0,1,5.457-5.458h53.36a5.458,5.458,0,0,1,5.458,5.458v47.9a5.458,5.458,0,0,1-5.458,5.458Z" transform="translate(-1876.798 -537.91)" fill="#24313e"></path></g><g transform="translate(0 0)"><path d="M1934.857,596.2H1881.5a5.69,5.69,0,0,1-5.684-5.684v-47.9a5.69,5.69,0,0,1,5.684-5.684h53.36a5.69,5.69,0,0,1,5.684,5.684v47.9a5.69,5.69,0,0,1-5.684,5.684Zm-53.36-58.819a5.237,5.237,0,0,0-5.231,5.231v47.9a5.237,5.237,0,0,0,5.231,5.231h53.36a5.237,5.237,0,0,0,5.231-5.231v-47.9a5.237,5.237,0,0,0-5.231-5.231H1881.5Z" transform="translate(-1875.813 -536.924)" fill="#24313e"></path></g></g><g transform="translate(1752.015 290.337)"><g transform="translate(0.226 0.226)"><path d="M1911.926,597.275h-53.36a5.458,5.458,0,0,1-5.458-5.457v-47.9a5.458,5.458,0,0,1,5.458-5.458h53.36a5.457,5.457,0,0,1,5.457,5.458v47.9a5.457,5.457,0,0,1-5.457,5.457Z" transform="translate(-1853.109 -538.456)" fill="#ebf0f5"></path></g><g transform="translate(0 0)"><path d="M1911.168,596.742h-53.36a5.69,5.69,0,0,1-5.684-5.684v-47.9a5.69,5.69,0,0,1,5.684-5.684h53.36a5.69,5.69,0,0,1,5.684,5.684v47.9a5.69,5.69,0,0,1-5.684,5.684Zm-53.36-58.819a5.237,5.237,0,0,0-5.231,5.231v47.9a5.237,5.237,0,0,0,5.231,5.231h53.36a5.237,5.237,0,0,0,5.231-5.231v-47.9a5.237,5.237,0,0,0-5.231-5.231h-53.36Z" transform="translate(-1852.124 -537.471)" fill="#24313e"></path></g></g><rect width="19" height="28" transform="translate(1774.41 305.132)"></rect><g transform="translate(1763.656 295.383)"><g transform="translate(0)"><path d="M1942.5,563.874a1.364,1.364,0,0,0-.286-.67,1.381,1.381,0,0,0-.571-.422l-.019-.007-.055-.021a1.377,1.377,0,0,0-.526-.069,42.9,42.9,0,0,1-12.168-.66,13.181,13.181,0,0,1-5.366-2.32l-.061-.048-.059-.048a.758.758,0,0,0-.977,0l-.06.049-.062.049a13.5,13.5,0,0,1-5.68,2.391,45.828,45.828,0,0,1-13.108.5,58.2,58.2,0,0,0-.045,18.089c1.55,9.811,6.248,21.154,18.834,27.285l.3.146.305.144.307-.144c.1-.048.2-.1.3-.146,11.112-5.413,16.075-14.888,18.152-23.784A58.36,58.36,0,0,0,1942.5,563.874Zm-18.294,16.858v13.027H1921.3V580.732a3.85,3.85,0,1,1,2.914,0Z" transform="translate(-1902.784 -559.429)" fill="#9caab8" stroke="#24313e" stroke-miterlimit="10" stroke-width="0.5"></path></g></g><g transform="translate(1764.379 295.383)" opacity="0.5" style="mix-blend-mode:overlay;isolation:isolate"><path d="M1944.07,562.782a24.049,24.049,0,0,1-13.6.065,17.974,17.974,0,0,1-5.14-2.351c-5.669,3.324-10.518,3.849-13.951,3.543a14.608,14.608,0,0,1-5.447-1.443,45.827,45.827,0,0,0,13.108-.5,13.5,13.5,0,0,0,5.68-2.391l.062-.049.06-.049a.758.758,0,0,1,.977,0l.059.048.061.048a13.18,13.18,0,0,0,5.366,2.32,42.9,42.9,0,0,0,12.168.66,1.378,1.378,0,0,1,.526.069l.055.021Z" transform="translate(-1905.93 -559.429)" fill="#fff"></path></g><g transform="translate(1762.573 238.988)" opacity="0.5" style="mix-blend-mode:overlay;isolation:isolate"><g transform="translate(0 0)"><path d="M1944.52,337.241v2.068a23.225,23.225,0,0,0-46.449,0v-2.068a23.225,23.225,0,1,1,46.449,0Z" transform="translate(-1898.07 -314.02)" fill="#fff"></path></g></g><g transform="translate(1754.128 347.68)" opacity="0.33" style="mix-blend-mode:multiply;isolation:isolate"><g transform="translate(0)"><path d="M1924.859,788.379l-30.859.115-30.859.115a.158.158,0,0,1-.1-.034l-.83-.645-.83-.645a.159.159,0,0,1,.1-.284h64.454a.35.35,0,0,1,.181.651l-.588.353-.588.353a.149.149,0,0,1-.039.017A.163.163,0,0,1,1924.859,788.379Z" transform="translate(-1861.322 -787)" fill="#455666"></path></g></g><g transform="translate(1762.573 289.539)" opacity="0.33" style="mix-blend-mode:multiply;isolation:isolate"><path d="M1906.786,534.918h-8.5c-.137-.344-.136-.339-.1-.25s.1.261.1.25l-.1-.318-.1-.317a.865.865,0,0,1-.007-.177c0-.059.01-.107.021-.107h9.167c.025,0,.042.117.048.257a1.733,1.733,0,0,1-.022.394l-.02.134-.02.134c.064-.219-.05-.219-.18-.164A1.751,1.751,0,0,0,1906.786,534.918Z" transform="translate(-1898.07 -533.999)" fill="#455666"></path></g><g transform="translate(1802.788 289.539)" opacity="0.33" style="mix-blend-mode:multiply;isolation:isolate"><path d="M2081.786,534.918h-8.5c-.137-.344-.136-.339-.1-.25s.1.261.1.25l-.1-.318-.1-.317a.875.875,0,0,1-.007-.177c0-.059.01-.107.021-.107h9.167c.025,0,.043.117.048.257a1.736,1.736,0,0,1-.022.394l-.02.134-.02.134c.063-.219-.05-.219-.18-.164A1.749,1.749,0,0,0,2081.786,534.918Z" transform="translate(-2073.07 -533.999)" fill="#455666"></path></g><g transform="translate(1752.527 290.918)" opacity="0.39" style="mix-blend-mode:overlay;isolation:isolate"><path d="M1854.367,591.986h0a.5.5,0,0,1-.008-.05.449.449,0,0,1,0-.051V544.5a4.355,4.355,0,0,1,1.292-3.1,4.4,4.4,0,0,1,3.114-1.285l27.462-.057,27.461-.057a.486.486,0,0,1,.2.045l.494.228.494.228a.484.484,0,0,1-.192.924l-27.961.609-27.961.609a1.865,1.865,0,0,0-1.318.544,1.842,1.842,0,0,0-.546,1.31l-.787,23.7-.787,23.7a.484.484,0,0,1-.958.085Z" transform="translate(-1854.356 -540.001)" fill="#ebf0f5"></path></g><g transform="translate(1722.3 216.753)" opacity="0.3" style="mix-blend-mode:overlay;isolation:isolate"><path d="M1778.039,217.286c-.154,0-.308.011-.464.018a41.189,41.189,0,0,0-10.677,1.942,40.554,40.554,0,0,0-9.78,4.656,36.173,36.173,0,0,0-8.027,7.131,31.689,31.689,0,0,0-7.36,20.728,10.082,10.082,0,0,1-.074,1.324,10.876,10.876,0,0,1-.623,2.53,11.17,11.17,0,0,1-.533,1.183,11.373,11.373,0,0,1-.671,1.112,11.364,11.364,0,0,1-1.719,1.967,11.347,11.347,0,0,1-1.036.834,26.548,26.548,0,0,0-6.655,6.848,28.118,28.118,0,0,0-3.776,8.385,32,32,0,0,0-1.057,9.153,34.487,34.487,0,0,0,1.5,9.151,33.178,33.178,0,0,0,3.9,8.376,29.286,29.286,0,0,0,6.143,6.832,26.613,26.613,0,0,0,8.22,4.518,28.041,28.041,0,0,0,8.054,1.432h-.669a28.581,28.581,0,0,1-10.143-1.432,26.613,26.613,0,0,1-8.22-4.518,29.281,29.281,0,0,1-6.143-6.832,33.188,33.188,0,0,1-3.9-8.376,34.486,34.486,0,0,1-1.5-9.151,32,32,0,0,1,1.057-9.153,28.118,28.118,0,0,1,3.776-8.385,26.555,26.555,0,0,1,6.655-6.848,11.35,11.35,0,0,0,1.037-.834,11.364,11.364,0,0,0,1.719-1.967,11.421,11.421,0,0,0,.671-1.112,11.17,11.17,0,0,0,.533-1.183,10.876,10.876,0,0,0,.623-2.53,10.082,10.082,0,0,0,.074-1.324,31.689,31.689,0,0,1,7.36-20.728,36.178,36.178,0,0,1,8.027-7.131,40.56,40.56,0,0,1,9.781-4.656,41.187,41.187,0,0,1,10.677-1.942Q1776.427,217.228,1778.039,217.286Z" transform="translate(-1722.818 -217.261)" fill="#fff"></path></g></g></g></svg>