<svg xmlns="http://www.w3.org/2000/svg" viewBox="0 0 1024 1024"><defs><style>.cls-1{isolation:isolate;}.cls-19,.cls-2,.cls-20,.cls-4{opacity:0.32;}.cls-12,.cls-13,.cls-3,.cls-4,.cls-5,.cls-7{fill:#ebf0f5;}.cls-10,.cls-11,.cls-13,.cls-14,.cls-15,.cls-16,.cls-17,.cls-18,.cls-19,.cls-21,.cls-22,.cls-23,.cls-5,.cls-6,.cls-9{stroke:#031439;stroke-miterlimit:10;stroke-width:2px;}.cls-6,.cls-8{fill:#9caab8;}.cls-7{opacity:0.3;}.cls-12,.cls-13,.cls-19,.cls-20,.cls-7{mix-blend-mode:overlay;}.cls-18,.cls-23,.cls-8{mix-blend-mode:multiply;}.cls-9{fill:#28c397;}.cls-10,.cls-18,.cls-23{fill:#24313e;}.cls-11{fill:#0c7ff2;}.cls-12,.cls-13{opacity:0.22;}.cls-14{fill:#f5f7f9;}.cls-15{fill:#3ab2d0;}.cls-16{fill:#1b8567;}.cls-17{fill:#ff603d;}.cls-18{opacity:0.5;}.cls-19,.cls-20{fill:#fff;}.cls-21{fill:#0062ff;}.cls-22{fill:none;}.cls-23{opacity:0.18;}</style></defs><g class="cls-1"><g id="Layer_1" data-name="Layer 1"><g class="cls-2"><path class="cls-3" d="M156.55,450.12a5.58,5.58,0,0,1-5.3-7.34,406.16,406.16,0,0,1,505.9-260.17,5.59,5.59,0,0,1-3.32,10.67,395,395,0,0,0-492,253A5.6,5.6,0,0,1,156.55,450.12Z"></path></g><path class="cls-4" d="M826.25,539.69c0,163.52-132.57,296.08-296.09,296.08S234.07,703.21,234.07,539.69a295.82,295.82,0,0,1,14.86-92.87c39-118,150.14-203.22,281.23-203.22a296.08,296.08,0,0,1,88.05,13.31C738.73,294.4,826.25,406.82,826.25,539.69Z"></path><path class="cls-5" d="M1007.34,642.7v54.47h0c0,5.07-81.08,9.18-181.09,9.18s-181.1-4.11-181.1-9.18V642.7Z"></path><ellipse class="cls-6" cx="826.25" cy="642.7" rx="181.09" ry="9.17"></ellipse><path class="cls-7" d="M990.39,652.85c0-3.26-65.72,2.69-146.78,2.69s-146.79-5.95-146.79-2.69,65.72,11.07,146.79,11.07S990.39,656.11,990.39,652.85Z"></path><path class="cls-5" d="M412.19,554.7V814c0,4.82-89.16,8.73-199.16,8.73S13.87,818.84,13.87,814V554.7Z"></path><rect class="cls-8" x="13.87" y="614.73" width="398.47" height="23.69"></rect><polygon class="cls-9" points="412.19 556.17 13.87 556.17 53.3 479.4 372.76 479.4 412.19 556.17"></polygon><rect class="cls-10" x="34.98" y="566.65" width="354.33" height="171.32"></rect><path class="cls-11" d="M11.55,554.82H78.21a0,0,0,0,1,0,0v61.4A14.2,14.2,0,0,1,64,630.42H25.76a14.2,14.2,0,0,1-14.2-14.2v-61.4a0,0,0,0,1,0,0Z"></path><path class="cls-5" d="M78.5,554.82h66.66a0,0,0,0,1,0,0v61.4a14.2,14.2,0,0,1-14.2,14.2H92.7a14.2,14.2,0,0,1-14.2-14.2v-61.4A0,0,0,0,1,78.5,554.82Z"></path><path class="cls-11" d="M145.45,554.82h66.66a0,0,0,0,1,0,0v61.4a14.2,14.2,0,0,1-14.2,14.2H159.65a14.2,14.2,0,0,1-14.2-14.2v-61.4A0,0,0,0,1,145.45,554.82Z"></path><path class="cls-5" d="M212.4,554.82h66.66a0,0,0,0,1,0,0v61.4a14.2,14.2,0,0,1-14.2,14.2H226.6a14.2,14.2,0,0,1-14.2-14.2v-61.4a0,0,0,0,1,0,0Z"></path><path class="cls-11" d="M279.35,554.82H346a0,0,0,0,1,0,0v61.4a14.2,14.2,0,0,1-14.2,14.2H293.55a14.2,14.2,0,0,1-14.2-14.2v-61.4A0,0,0,0,1,279.35,554.82Z"></path><path class="cls-5" d="M346.3,554.82H413a0,0,0,0,1,0,0v61.4a14.2,14.2,0,0,1-14.2,14.2H360.5a14.2,14.2,0,0,1-14.2-14.2v-61.4a0,0,0,0,1,0,0Z"></path><rect class="cls-12" x="13.87" y="556.17" width="397.91" height="8.17"></rect><rect class="cls-13" x="33.19" y="736.91" width="359.27" height="8.17"></rect><rect class="cls-5" x="35.52" y="718.53" width="64.37" height="19.5"></rect><rect class="cls-5" x="107.03" y="718.53" width="64.37" height="19.5"></rect><rect class="cls-5" x="178.55" y="718.53" width="64.37" height="19.5"></rect><rect class="cls-5" x="250.07" y="718.53" width="64.37" height="19.5"></rect><rect class="cls-5" x="321.59" y="718.53" width="64.37" height="19.5"></rect><polygon class="cls-12" points="412.19 556.16 405.15 556.16 372.76 493.11 53.3 493.11 20.91 556.16 13.87 556.16 53.3 479.4 372.76 479.4 412.19 556.16"></polygon><path class="cls-14" d="M362.82,808.41H64.63c-12.63,0-22-11.51-20.87-25.55h0c1.09-13.85,12-25,24.32-25h291.3c12.34,0,23.22,11.1,24.31,25h0C384.8,796.9,375.46,808.41,362.82,808.41Z"></path><circle class="cls-15" cx="580.38" cy="189.68" r="71.74"></circle><circle class="cls-5" cx="580.38" cy="189.68" r="44.36"></circle><polyline class="cls-16" points="567.99 254.95 518.89 362.14 518.89 362.14 510.1 332.16 479.12 342.49 526.54 239.08"></polyline><polyline class="cls-9" points="571.55 254.95 518.89 362.14 513.66 332.16 479.12 342.49 530.1 239.08"></polyline><polyline class="cls-16" points="580.51 263.25 634.35 365.7 638.84 337.74 672.94 346.05 674.12 346.05 621.96 247.38"></polyline><polyline class="cls-9" points="581.7 258.51 634.35 365.7 639.59 335.72 674.12 346.05 623.15 242.63"></polyline><path class="cls-17" d="M575.64,138.64A51.32,51.32,0,1,0,627,190,51.32,51.32,0,0,0,575.64,138.64Zm23.53,55.75,4.6,4.75a6.36,6.36,0,0,1-6.12,10.59l-6.41-1.6a6.36,6.36,0,0,0-7.67,4.42l-1.82,6.36a6.36,6.36,0,0,1-12.23,0l-1.81-6.36a6.37,6.37,0,0,0-7.67-4.42l-6.41,1.6a6.36,6.36,0,0,1-6.12-10.59l4.6-4.75a6.36,6.36,0,0,0,0-8.85l-4.6-4.75a6.36,6.36,0,0,1,6.12-10.6L560,171.8a6.38,6.38,0,0,0,7.67-4.43l1.81-6.36a6.36,6.36,0,0,1,12.23,0l1.82,6.36a6.38,6.38,0,0,0,7.67,4.43l6.41-1.61a6.36,6.36,0,0,1,6.12,10.6l-4.6,4.75A6.36,6.36,0,0,0,599.17,194.39Z"></path><path class="cls-17" d="M575.64,138.64A51.32,51.32,0,1,0,627,190,51.32,51.32,0,0,0,575.64,138.64Zm23.53,55.75,4.6,4.75a6.36,6.36,0,0,1-6.12,10.59l-6.41-1.6a6.36,6.36,0,0,0-7.67,4.42l-1.82,6.36a6.36,6.36,0,0,1-12.23,0l-1.81-6.36a6.37,6.37,0,0,0-7.67-4.42l-6.41,1.6a6.36,6.36,0,0,1-6.12-10.59l4.6-4.75a6.36,6.36,0,0,0,0-8.85l-4.6-4.75a6.36,6.36,0,0,1,6.12-10.6L560,171.8a6.38,6.38,0,0,0,7.67-4.43l1.81-6.36a6.36,6.36,0,0,1,12.23,0l1.82,6.36a6.38,6.38,0,0,0,7.67,4.43l6.41-1.61a6.36,6.36,0,0,1,6.12,10.6l-4.6,4.75A6.36,6.36,0,0,0,599.17,194.39Z"></path><path class="cls-10" d="M658.47,179.75a11.24,11.24,0,0,1-9.55-11.22,11.09,11.09,0,0,1,4.21-8.72c8.78-7.08,2.83-20.15-6.86-20.15a12,12,0,0,0-4.3.83,11.24,11.24,0,0,1-14.59-14.59c3.24-8.42-3.57-15.44-10.73-15.44a10.86,10.86,0,0,0-8.59,4.28,11.29,11.29,0,0,1-19.94-5.34,11.29,11.29,0,0,0-22.31,0A11.24,11.24,0,0,1,554.58,119a11.05,11.05,0,0,1-8.71-4.21c-7.09-8.78-20.15-2.83-20.15,6.86a12,12,0,0,0,.83,4.3A11.25,11.25,0,0,1,512,140.49c-8.42-3.24-15.43,3.57-15.43,10.73a10.83,10.83,0,0,0,4.28,8.59,11.12,11.12,0,0,1,4.21,8.72,11.25,11.25,0,0,1-9.56,11.22,11.29,11.29,0,0,0,0,22.31A11.25,11.25,0,0,1,505,213.29,11.09,11.09,0,0,1,500.8,222c-8.79,7.09-2.84,20.15,6.86,20.15a11.94,11.94,0,0,0,4.29-.83,11.32,11.32,0,0,1,15.38,10.48,11.55,11.55,0,0,1-.78,4.12c-3.25,8.42,3.57,15.43,10.72,15.43a10.88,10.88,0,0,0,8.6-4.28,11.05,11.05,0,0,1,8.71-4.21,11.25,11.25,0,0,1,11.23,9.55,11.29,11.29,0,0,0,22.31,0,11.25,11.25,0,0,1,11.22-9.55,11.09,11.09,0,0,1,8.72,4.21c7.08,8.79,20.15,2.84,20.15-6.86a11.94,11.94,0,0,0-.83-4.29,11.31,11.31,0,0,1,10.47-15.38,11.55,11.55,0,0,1,4.12.78c8.42,3.25,15.44-3.57,15.44-10.72a10.88,10.88,0,0,0-4.28-8.6,11.05,11.05,0,0,1-4.21-8.71,11.24,11.24,0,0,1,9.55-11.23,11.29,11.29,0,0,0,0-22.31ZM577,253.52a62.62,62.62,0,1,1,62.62-62.61A62.61,62.61,0,0,1,577,253.52Z"></path><path class="cls-10" d="M575.64,138.64A51.32,51.32,0,1,0,627,190,51.32,51.32,0,0,0,575.64,138.64Zm23.53,55.75,4.6,4.75a6.36,6.36,0,0,1-6.12,10.59l-6.41-1.6a6.36,6.36,0,0,0-7.67,4.42l-1.82,6.36a6.36,6.36,0,0,1-12.23,0l-1.81-6.36a6.37,6.37,0,0,0-7.67-4.42l-6.41,1.6a6.36,6.36,0,0,1-6.12-10.59l4.6-4.75a6.36,6.36,0,0,0,0-8.85l-4.6-4.75a6.36,6.36,0,0,1,6.12-10.6L560,171.8a6.38,6.38,0,0,0,7.67-4.43l1.81-6.36a6.36,6.36,0,0,1,12.23,0l1.82,6.36a6.38,6.38,0,0,0,7.67,4.43l6.41-1.61a6.36,6.36,0,0,1,6.12,10.6l-4.6,4.75A6.36,6.36,0,0,0,599.17,194.39Z"></path><path class="cls-17" d="M580.38,138.64A51.32,51.32,0,1,0,631.7,190,51.32,51.32,0,0,0,580.38,138.64Zm23.53,55.75,4.6,4.75a6.36,6.36,0,0,1-6.12,10.59l-6.41-1.6a6.35,6.35,0,0,0-7.66,4.42l-1.82,6.36a6.36,6.36,0,0,1-12.23,0l-1.82-6.36a6.36,6.36,0,0,0-7.67-4.42l-6.41,1.6a6.36,6.36,0,0,1-6.12-10.59l4.6-4.75a6.36,6.36,0,0,0,0-8.85l-4.6-4.75a6.36,6.36,0,0,1,6.12-10.6l6.41,1.61a6.38,6.38,0,0,0,7.67-4.43l1.82-6.36a6.36,6.36,0,0,1,12.23,0l1.82,6.36A6.36,6.36,0,0,0,596,171.8l6.41-1.61a6.36,6.36,0,0,1,6.12,10.6l-4.6,4.75A6.38,6.38,0,0,0,603.91,194.39Z"></path><path class="cls-17" d="M580.38,138.64A51.32,51.32,0,1,0,631.7,190,51.32,51.32,0,0,0,580.38,138.64Zm23.53,55.75,4.6,4.75a6.36,6.36,0,0,1-6.12,10.59l-6.41-1.6a6.35,6.35,0,0,0-7.66,4.42l-1.82,6.36a6.36,6.36,0,0,1-12.23,0l-1.82-6.36a6.36,6.36,0,0,0-7.67-4.42l-6.41,1.6a6.36,6.36,0,0,1-6.12-10.59l4.6-4.75a6.36,6.36,0,0,0,0-8.85l-4.6-4.75a6.36,6.36,0,0,1,6.12-10.6l6.41,1.61a6.38,6.38,0,0,0,7.67-4.43l1.82-6.36a6.36,6.36,0,0,1,12.23,0l1.82,6.36A6.36,6.36,0,0,0,596,171.8l6.41-1.61a6.36,6.36,0,0,1,6.12,10.6l-4.6,4.75A6.38,6.38,0,0,0,603.91,194.39Z"></path><path class="cls-11" d="M661.89,178.81a11.24,11.24,0,0,1-9.55-11.23,11.05,11.05,0,0,1,4.21-8.71c8.78-7.09,2.83-20.15-6.86-20.15a12,12,0,0,0-4.3.83A11.25,11.25,0,0,1,630.8,125c3.24-8.42-3.57-15.43-10.73-15.43a10.83,10.83,0,0,0-8.59,4.28,11.29,11.29,0,0,1-19.94-5.35,11.29,11.29,0,0,0-22.31,0A11.25,11.25,0,0,1,558,118a11.09,11.09,0,0,1-8.71-4.21c-7.09-8.79-20.15-2.84-20.15,6.86A11.94,11.94,0,0,0,530,125a11.32,11.32,0,0,1-10.48,15.38,11.55,11.55,0,0,1-4.12-.78c-8.42-3.25-15.43,3.57-15.43,10.72a10.85,10.85,0,0,0,4.28,8.6,11.09,11.09,0,0,1,4.21,8.71,11.25,11.25,0,0,1-9.56,11.23,11.29,11.29,0,0,0,0,22.31,11.25,11.25,0,0,1,9.56,11.22,11.12,11.12,0,0,1-4.21,8.72c-8.79,7.08-2.84,20.15,6.86,20.15a11.94,11.94,0,0,0,4.29-.83,11.31,11.31,0,0,1,15.38,10.47A11.55,11.55,0,0,1,530,255c-3.25,8.42,3.57,15.44,10.72,15.44a10.88,10.88,0,0,0,8.6-4.28,11.05,11.05,0,0,1,8.71-4.21,11.24,11.24,0,0,1,11.23,9.55,11.29,11.29,0,0,0,22.31,0,11.24,11.24,0,0,1,11.22-9.55,11.09,11.09,0,0,1,8.72,4.21c7.08,8.78,20.15,2.83,20.15-6.86a12,12,0,0,0-.83-4.3,11.24,11.24,0,0,1,14.59-14.59c8.42,3.24,15.44-3.57,15.44-10.73a10.86,10.86,0,0,0-4.28-8.59,11.09,11.09,0,0,1-4.21-8.72,11.24,11.24,0,0,1,9.55-11.22,11.29,11.29,0,0,0,0-22.31Zm-81.51,73.77A62.62,62.62,0,1,1,643,190,62.62,62.62,0,0,1,580.38,252.58Z"></path><path class="cls-11" d="M580.38,138.64A51.32,51.32,0,1,0,631.7,190,51.32,51.32,0,0,0,580.38,138.64Zm23.53,55.75,4.6,4.75a6.36,6.36,0,0,1-6.12,10.59l-6.41-1.6a6.35,6.35,0,0,0-7.66,4.42l-1.82,6.36a6.36,6.36,0,0,1-12.23,0l-1.82-6.36a6.36,6.36,0,0,0-7.67-4.42l-6.41,1.6a6.36,6.36,0,0,1-6.12-10.59l4.6-4.75a6.36,6.36,0,0,0,0-8.85l-4.6-4.75a6.36,6.36,0,0,1,6.12-10.6l6.41,1.61a6.38,6.38,0,0,0,7.67-4.43l1.82-6.36a6.36,6.36,0,0,1,12.23,0l1.82,6.36A6.36,6.36,0,0,0,596,171.8l6.41-1.61a6.36,6.36,0,0,1,6.12,10.6l-4.6,4.75A6.38,6.38,0,0,0,603.91,194.39Z"></path><polygon class="cls-13" points="525.6 249.83 485.38 337.31 513.66 332.16 482.75 340.9 479.44 341.83 479.58 341.55 525.65 248.09 525.6 249.83"></polygon><polygon class="cls-13" points="631.7 261.61 674.12 346.05 666.69 343.82 631.7 261.61"></polygon><path class="cls-13" d="M508.92,223a11.07,11.07,0,0,0,4.2-8.71,11.23,11.23,0,0,0-9.3-11.18,11.42,11.42,0,0,1,4.61,9.2,11,11,0,0,1-4.22,8.71c-8.27,6.69-3.47,18.67,5.23,20C504,237.1,502.3,228.37,508.92,223Z"></path><path class="cls-12" d="M529.13,120.66A12,12,0,0,0,530,125a11.32,11.32,0,0,1-10.48,15.38,11.55,11.55,0,0,1-4.12-.78c-8.42-3.25-15.43,3.57-15.43,10.72a10.87,10.87,0,0,0,4.27,8.6,11,11,0,0,1,4.22,8.71,11.25,11.25,0,0,1-9.56,11.23,11.29,11.29,0,0,0-.38,22.24,11.19,11.19,0,0,1-4.46-9.11,11,11,0,0,1,9.54-11.16,11.23,11.23,0,0,0,9.55-11.22,11.07,11.07,0,0,0-4.2-8.71,10.85,10.85,0,0,1-4.28-8.6c0-7.15,7-14,15.43-10.73a11.25,11.25,0,0,0,14.6-14.59,12,12,0,0,1-.84-4.3c0-7,6.78-12,13.21-11C539.76,106.22,529.13,111.92,529.13,120.66Z"></path><path class="cls-13" d="M573.93,273.45a11.2,11.2,0,0,0-9.21-9.38,11.07,11.07,0,0,1,4.51,7.4,10.84,10.84,0,0,0,9,9.36A11,11,0,0,1,573.93,273.45Z"></path><path class="cls-13" d="M580.38,98.91a11,11,0,0,0-11.15,9.54,11.36,11.36,0,0,1-13.06,9.41A11,11,0,0,0,562.7,120a11.26,11.26,0,0,0,11.23-9.56,11,11,0,0,1,11.15-9.54,11.61,11.61,0,0,1,2.12.19A11.55,11.55,0,0,0,580.38,98.91Z"></path><path class="cls-13" d="M616.17,268.11a11,11,0,0,0-6.88-4.07,11.32,11.32,0,0,1,2.19,2.09,11,11,0,0,0,6.94,4.15A12.72,12.72,0,0,1,616.17,268.11Z"></path><path class="cls-13" d="M620.07,109.51a10.89,10.89,0,0,0-8.59,4.28,11.12,11.12,0,0,1-10.75,4,11.27,11.27,0,0,0,15.44-2.06,10.88,10.88,0,0,1,8.6-4.28,11.44,11.44,0,0,1,2,.19A11.83,11.83,0,0,0,620.07,109.51Z"></path><path class="cls-12" d="M607,133.29a62.63,62.63,0,0,1-48.55,115.35A62.63,62.63,0,1,0,607,133.29Z"></path><path class="cls-13" d="M649.69,138.71a12,12,0,0,0-4.3.84,11.14,11.14,0,0,1-5.92.63,11,11,0,0,0,10.62,1.34,12,12,0,0,1,4.29-.83,9.81,9.81,0,0,1,1.64.13A10.58,10.58,0,0,0,649.69,138.71Z"></path><path class="cls-13" d="M498.87,201.12l-.38-.07a11.39,11.39,0,0,0,5.08,2l.25,0A11.14,11.14,0,0,0,498.87,201.12Z"></path><path class="cls-13" d="M554,115.77a11,11,0,0,0-6.94-4.15,12.39,12.39,0,0,1,2.25,2.17,11,11,0,0,0,6.88,4.07A11.32,11.32,0,0,1,554,115.77Z"></path><path class="cls-13" d="M596.23,110.43a10.84,10.84,0,0,0-9-9.35,11,11,0,0,1,4.34,7.37,11.18,11.18,0,0,0,9.19,9.38A11.09,11.09,0,0,1,596.23,110.43Z"></path><path class="cls-13" d="M634.71,131.05a11.55,11.55,0,0,1,.78-4.12c2.94-7.61-2.36-14.09-8.69-15.25a10.92,10.92,0,0,1,4,13.27,11.23,11.23,0,0,0,8.67,15.23A11.32,11.32,0,0,1,634.71,131.05Z"></path><rect class="cls-10" x="859.6" y="441.59" width="85.48" height="201.86" rx="14.93" transform="translate(1805.74 1083.28) rotate(179.89)"></rect><path class="cls-11" d="M884.66,450.58,885,634.52a8.92,8.92,0,0,0,4.12,7.52,8.74,8.74,0,0,0,4,1.38,7.09,7.09,0,0,0,.81,0h0l42.4-.08,15.18,0c.25,0,.5,0,.74,0A7.87,7.87,0,0,0,954,643a8.37,8.37,0,0,0,2.1-.9,9,9,0,0,0,4.39-7.54v-.18l-.36-183.95v-.05a8.94,8.94,0,0,0-8.78-8.88h-.19l-15.22,0-42.35.08h-.09a9,9,0,0,0-8.85,9Z"></path><path class="cls-7" d="M862.38,442.82v.34a1.07,1.07,0,0,0,.2.63,1.16,1.16,0,0,0,1,.52l23.71-.05,55-.11,12.8,0a1,1,0,0,1,1,1v.14l.37,195.17a3.27,3.27,0,0,1-.3,1.41,1.52,1.52,0,0,0-.09.28,1,1,0,0,0,1,1.24h.07a3.35,3.35,0,0,0,3.33-3.35v-5.43l-.36-184.13v-.05a8.94,8.94,0,0,0-8.78-8.88l-15.27,0-42.49.07h-.09l-25.26,0h-4.71A1.16,1.16,0,0,0,862.38,442.82Z"></path><path class="cls-18" d="M866.84,643.47l86.25-.15c.64,0,1-.22.92-.49l-.22-.42a1.76,1.76,0,0,0-1.41-.47l-86.24.15c-.64,0-1.06.21-.92.48l.21.42A1.83,1.83,0,0,0,866.84,643.47Z"></path><path class="cls-10" d="M787.44,643.51l67.57-.13a9,9,0,0,0,8.94-9l-.36-112a9,9,0,0,0-9-8.94l-67.57.13a9,9,0,0,0-8.94,9l.36,112A9,9,0,0,0,787.44,643.51Z"></path><path class="cls-11" d="M803.35,522.55l.35,112a8.93,8.93,0,0,0,4.13,7.52,8.7,8.7,0,0,0,4,1.38,7.32,7.32,0,0,0,.81,0h0l42.39-.08,15.18,0,.75,0a8.1,8.1,0,0,0,1.7-.32,8.7,8.7,0,0,0,2.1-.9,8.94,8.94,0,0,0,4.38-7.54,1.09,1.09,0,0,0,0-.18l-.36-112v0a9,9,0,0,0-8.79-8.89h-.18l-15.23,0-42.35.08h-.08a8.95,8.95,0,0,0-8.85,9Z"></path><path class="cls-7" d="M781.07,514.8v.33a1.15,1.15,0,0,0,.19.64,1.18,1.18,0,0,0,1,.52l23.7,2.63,53.74-.1c.89,0,13.65,0,13.65,2.63,0,11.35,1.87,119,1.87,119a3.27,3.27,0,0,1-.31,1.41,1,1,0,0,0-.08.28,1,1,0,0,0,1,1.24h.06A3.35,3.35,0,0,0,879.2,640l0-5.43-.35-112.16v0a9,9,0,0,0-8.79-8.89l-15.26,0-42.5.08h-.08l-25.27,0h-4.71A1.15,1.15,0,0,0,781.07,514.8Z"></path><path class="cls-18" d="M785.53,643.47l86.24-.15c.65,0,1.06-.22.92-.49l-.21-.42a1.79,1.79,0,0,0-1.41-.47l-86.24.15c-.65,0-1.06.21-.93.48l.22.42A1.8,1.8,0,0,0,785.53,643.47Z"></path><path class="cls-10" d="M700.38,643.51l67.57-.13a9,9,0,0,0,8.94-9l-.36-58a9,9,0,0,0-9-8.94l-67.57.13a9,9,0,0,0-8.93,9l.35,58A9,9,0,0,0,700.38,643.51Z"></path><path class="cls-11" d="M716.29,576.54l.36,58a8.92,8.92,0,0,0,4.12,7.52,8.74,8.74,0,0,0,4,1.38,7.09,7.09,0,0,0,.81,0h0l42.4-.08,15.18,0c.25,0,.5,0,.74,0a7.87,7.87,0,0,0,1.7-.32,8.37,8.37,0,0,0,2.1-.9,9,9,0,0,0,4.39-7.54v-.18l-.36-58v0a8.94,8.94,0,0,0-8.78-8.88h-.19l-15.22,0-42.36.08h-.08a9,9,0,0,0-8.85,9Z"></path><path class="cls-7" d="M694,568.78v.34a1.07,1.07,0,0,0,.2.63,1.14,1.14,0,0,0,1,.52l23.71,0,55-.11h0a15.1,15.1,0,0,1,13.91,15l.3,55.33a3.27,3.27,0,0,1-.3,1.41,1.52,1.52,0,0,0-.09.28,1,1,0,0,0,1,1.24h.07a3.35,3.35,0,0,0,3.33-3.35v-5.43l-.36-58.17v0a8.94,8.94,0,0,0-8.78-8.88l-15.27,0-42.5.07h-.08l-25.26.05h-4.71A1.16,1.16,0,0,0,694,568.78Z"></path><path class="cls-18" d="M698.47,643.47l86.25-.15c.64,0,1-.22.92-.49l-.22-.42a1.76,1.76,0,0,0-1.41-.47l-86.24.15c-.64,0-1.06.21-.92.48l.21.42A1.83,1.83,0,0,0,698.47,643.47Z"></path><path class="cls-10" d="M940.34,376.48l11.39,48.85c0,3.07-15.11,3.18-17.28,1L920.21,412.1l-80.9,91c-2.33,2.33-16.56,2.33-18.89,0l-19-19a6,6,0,0,0-8.44,0l-59.16,69.67c-2.33,2.33-16.62,2.33-18.95,0l-8.53-8.53a6,6,0,0,1,0-8.44L793,450.17c2.33-2.33,16.86-2.33,19.19,0l8.28,19a6,6,0,0,0,8.44,0L903.09,395,887,378.92a3.45,3.45,0,0,1,2.44-5.89h47.42A3.44,3.44,0,0,1,940.34,376.48Z"></path><path class="cls-5" d="M726.53,553.78,718,545.25a6,6,0,0,1,0-8.44l86.63-86.64a6,6,0,0,1,8.45,0l19,19a6,6,0,0,0,8.44,0l77-77a6,6,0,0,1,8.44,0l8.52,8.53a6,6,0,0,1,0,8.44l-93.93,93.93a6,6,0,0,1-8.44,0l-19-19a6,6,0,0,0-8.45,0L735,553.78A6,6,0,0,1,726.53,553.78Z"></path><path class="cls-5" d="M952,423.9V376.48a3.44,3.44,0,0,0-3.45-3.45H901.17a3.45,3.45,0,0,0-2.44,5.89l47.41,47.42A3.45,3.45,0,0,0,952,423.9Z"></path><path class="cls-10" d="M801.71,906.82a646.21,646.21,0,0,1-456.89,1.44l15.44-150.75A43.89,43.89,0,0,1,383,716.43l117.59-64.38,23.75,72.78,42,128.7L594.1,938.6l19.25-110.71v0l30.46-175.16,84.59,36.64a93.34,93.34,0,0,1,55.51,74.14Z"></path><path class="cls-19" d="M643.82,652.71c1.38,2,30,53.38,30,53.38l-28.18,20.46,30.89,41.7L595,933.56l88.25-168.63L652.8,728.48l30.43-20.16Z"></path><path class="cls-19" d="M594.1,938.61l-5-5.41-22.75-69.75-42-128.7-23.74-82.7-6.94,13.72L383,726.34a43.92,43.92,0,0,0-22.76,41.1L345.79,908.63l-1-.37,15.45-150.75A43.92,43.92,0,0,1,383,716.42l117.59-64.37,23.74,72.77v0l42,128.69Z"></path><path class="cls-20" d="M587,930.92h0L461.71,795.37l31.92-34.68-35.46-24.77,42.43-83.86-35.51,82.27,32.84,23.33v5.83l-32.84,31.83Z"></path><path class="cls-19" d="M801.7,906.82l-1.17.45L783.92,773.41a93.34,93.34,0,0,0-55.52-74.13L654,667l-8.77-12.36L613.35,837.8h0l-16.64,95.72-2.61,5.08,19.25-110.72v0l17.29-99.39,13.18-75.77,84.58,36.65a93.32,93.32,0,0,1,55.52,74.13Z"></path><path class="cls-5" d="M624,630.78s-44.95,45-48.1,45-58-41.36-58-41.36l1.9-22.9L522,585.84l93.61-5.26,2.3-.13.1.8,3.7,30.37Z"></path><path class="cls-5" d="M643.81,652.71,613.35,827.87v0L594.1,938.6l-27.75-85.07L500.61,652.05l17.33-17.67s11.32,8.55,24,17.86c15.18,11.19,32.28,23.5,34,23.5s14.14-11.74,26-23.22c11.34-11,22.1-21.74,22.1-21.74Z"></path><path class="cls-21" d="M613.35,827.87v0L594.1,938.6l-27.75-85.07-5.59-22,10.61-100.11-22.58-28.51,27.13-27.13,24,25.62-19.28,29.48Z"></path><polyline class="cls-22" points="522.61 726.5 575.92 675.74 630.64 728.48"></polyline><polyline class="cls-22" points="643.81 652.71 683.23 708.32 652.8 728.48 683.23 764.93 594.1 938.61 461.71 795.37 493.63 760.69 458.17 735.92 500.62 652.05"></polyline><path class="cls-23" d="M623.14,608.15c-12.57,4.31-30.64,7-50.72,7-20.3,0-38.54-2.77-51.13-7.17l2.14-25.63L617,577.11c.81.21,1.62.43,2.4.67Z"></path><polygon class="cls-5" points="613.5 414.21 620.88 424.37 632.31 496.4 628.99 562.9 509.49 572.02 497.93 517.79 501.32 508.97 503.29 433.79 562.04 414.21 613.5 414.21"></polygon><path class="cls-5" d="M655.49,513.15a24.06,24.06,0,0,1-14,21.83l-9.38-45.82A24,24,0,0,1,655.49,513.15Z"></path><path class="cls-5" d="M482.68,515.87a24.06,24.06,0,0,1,18.83-17.81l-2,46.73A24,24,0,0,1,482.68,515.87Z"></path><path class="cls-10" d="M503.29,433.79s76.85,10.13,112.32-9.29S590.27,373,534.53,406.76,503.29,433.79,503.29,433.79Z"></path><path class="cls-10" d="M617.93,423.12s-1.57,47.66,14.38,73.28C632.31,496.4,657.21,437.82,617.93,423.12Z"></path><path class="cls-10" d="M503.29,433.79s-14.06,9-11.16,38.44S501.32,509,501.32,509,518.31,447.55,503.29,433.79Z"></path><path class="cls-10" d="M501.32,509s1.34,40.49,16.88,35.07,20.95-27.09,52-25.29,34.69,19.88,50.22,16.62,11.87-39,11.87-39S671.09,602,587.75,608,479,559.53,501.32,509Z"></path><path class="cls-20" d="M523.61,415.6c.51,1.61,27.29-10,40.66-14.23S601,394.63,600.48,393s-24.71-1.75-38.07,2.53S523.1,414,523.61,415.6Z"></path><path class="cls-20" d="M525.7,540.8c0,3.3,28.75-17.44,41.78-17.44s41.77,12.7,41.77,9.4-28.09-15.33-41.12-15.33S525.7,537.5,525.7,540.8Z"></path><path class="cls-20" d="M575.26,676.06s-18.68,26.85-17.85,27.67S576,731.6,576,731.6L564.13,847.71l-4-15.89L570.71,731.7l-22.58-28.51Z"></path></g></g></svg>