<svg xmlns="http://www.w3.org/2000/svg" viewBox="0 0 783.37 468.87"><defs><style>.cls-1{isolation:isolate;}.cls-2{fill:#e6e6e6;}.cls-3{opacity:0.09;mix-blend-mode:multiply;}.cls-4{fill:#455666;}.cls-4,.cls-5,.cls-6,.cls-7,.cls-9{stroke:#24313e;stroke-miterlimit:10;stroke-width:1.13px;}.cls-5{fill:#24313e;}.cls-6{fill:#0c7ff2;}.cls-7{fill:#3ab2d0;}.cls-8{opacity:0.38;}.cls-10,.cls-8{mix-blend-mode:overlay;}.cls-9{fill:#6b7e8f;}.cls-10{fill:#ebf0f5;opacity:0.21;}</style></defs><g class="cls-1"><g id="Layer_2" data-name="Layer 2"><g id="Layer_1-2" data-name="Layer 1"><rect id="rect201" class="cls-2" width="783.37" height="468.87"></rect><ellipse class="cls-3" cx="397.49" cy="412.4" rx="117.97" ry="12.74"></ellipse><path id="Path_9328" data-name="Path 9328" class="cls-4" d="M499.54,206c0,49.89-46.13,90.47-103,90.47S293.37,256.16,293.37,206"></path><path id="Path_9329" data-name="Path 9329" class="cls-5" d="M305.77,250.89l86.29,85.2a8.71,8.71,0,0,0,12.21,0l84.23-85.2a8.62,8.62,0,0,0,0-12.19h0a8.71,8.71,0,0,0-6.11-2.46H311.85a8.69,8.69,0,0,0-8.59,8.71A8.5,8.5,0,0,0,305.77,250.89Z"></path><path id="Path_9330" data-name="Path 9330" class="cls-4" d="M427,394.67l-41.83-41.83L492,246.18a8.12,8.12,0,0,1,11.28,0h0l30.36,30.36a8.15,8.15,0,0,1,0,11.32h0Z"></path><path id="Path_9345" data-name="Path 9345" class="cls-4" d="M411.18,351.65l-41.1,42.49-108.6-105a8.2,8.2,0,0,1,0-11.32h0l29.87-30.88a8.05,8.05,0,0,1,11.32,0h0Z"></path><path id="Path_9331" data-name="Path 9331" class="cls-6" d="M289.17,197.58h0C289.17,154.12,324.79,94,368.33,94h55.61c43.53,0,79.16,60.15,79.16,103.61h0"></path><circle id="Ellipse_703" data-name="Ellipse 703" class="cls-6" cx="353.62" cy="223.53" r="39.93"></circle><circle id="Ellipse_704" data-name="Ellipse 704" class="cls-7" cx="353.62" cy="223.53" r="20.4"></circle><circle id="Ellipse_703-2" data-name="Ellipse 703" class="cls-6" cx="441.14" cy="223.53" r="39.93"></circle><ellipse class="cls-8" cx="396.13" cy="210.22" rx="95.56" ry="6.26"></ellipse><circle id="Ellipse_704-2" data-name="Ellipse 704" class="cls-7" cx="441.14" cy="223.53" r="20.4"></circle><path id="Rectangle_1314" data-name="Rectangle 1314" class="cls-6" d="M296.37,178.2H496a16,16,0,0,1,16,15.89v.14h0a16,16,0,0,1-16,16H296.37a16,16,0,0,1-16-16v0h0a16,16,0,0,1,16-16h.05Z"></path><path id="Rectangle_1315" data-name="Rectangle 1315" class="cls-9" d="M322.48,131.79l2.34-3.66a19,19,0,0,1,26.2-5.78h0a19,19,0,0,1,5.77,26.2l-2.33,3.65a19,19,0,0,1-26.2,5.78h0A19,19,0,0,1,322.48,131.79Z"></path><path id="Rectangle_1316" data-name="Rectangle 1316" class="cls-9" d="M442.41,122.3h0A18.89,18.89,0,0,1,468.52,128l.1.16,2.36,3.61a18.89,18.89,0,0,1-5.59,26.12l-.17.11h0A19,19,0,0,1,439,152.14l-2.36-3.61a18.88,18.88,0,0,1,5.59-26.12Z"></path><path id="Rectangle_1317" data-name="Rectangle 1317" class="cls-4" d="M303.22,71h0a15.15,15.15,0,0,1,20,7.73l21.84,49.35a15.15,15.15,0,0,1-7.73,20h0a15.15,15.15,0,0,1-20-7.73L295.49,91A15.15,15.15,0,0,1,303.22,71Z"></path><circle id="Ellipse_705" data-name="Ellipse 705" class="cls-9" cx="331.85" cy="128.5" r="18.65"></circle><path id="Rectangle_1318" data-name="Rectangle 1318" class="cls-4" d="M444,128.13l21.87-49.37A15.12,15.12,0,0,1,485.86,71h0a15.14,15.14,0,0,1,7.72,20h0L471.76,140.4a15.16,15.16,0,0,1-20,7.75h0a15.17,15.17,0,0,1-7.72-20Z"></path><circle id="Ellipse_706" data-name="Ellipse 706" class="cls-9" cx="457.26" cy="133.49" r="18.65"></circle><path id="Path_9340" data-name="Path 9340" class="cls-6" d="M504.81,273.79a10.77,10.77,0,0,1,0,15.16L402,391.72a10.75,10.75,0,1,1-16-14.38l.49-.49h.29L489.56,274.06a10.81,10.81,0,0,1,15.25-.29Z"></path><path id="Rectangle_1325" data-name="Rectangle 1325" class="cls-6" d="M409.47,395.24h0a10.8,10.8,0,0,1-15.2,0L291.55,292.47a10.69,10.69,0,0,1,0-15.12h0a10.77,10.77,0,0,1,15.16,0L409.47,380.13a10.71,10.71,0,0,1,.07,15.16l-.07.06S409.55,395.29,409.47,395.24Z"></path><circle id="Ellipse_700" data-name="Ellipse 700" class="cls-6" cx="398.53" cy="367.19" r="52.08"></circle><circle id="Ellipse_700-2" data-name="Ellipse 700" class="cls-6" cx="398.53" cy="367.19" r="26.63"></circle><ellipse class="cls-10" cx="366.24" cy="223.53" rx="3.8" ry="11.78"></ellipse><ellipse class="cls-10" cx="453.81" cy="224.45" rx="3.8" ry="11.78"></ellipse><path class="cls-8" d="M496.53,325c-21.73,20.69-40.18,41.77-41.43,41.45s15.16-22.3,36.89-43,38.61-35,39.85-34.65S518.26,304.34,496.53,325Z"></path><path class="cls-10" d="M461.4,283.82c-21.29,20.69-39.68,37.08-41.08,36.61s14.74-17.62,36-38.31,35.73-36.48,37.13-36S482.69,263.13,461.4,283.82Z"></path><path class="cls-10" d="M468.37,303c-16,15.49-30,27.57-31.23,27s10.64-13.62,26.61-29.11,26.59-27.54,27.86-26.95S484.34,287.51,468.37,303Z"></path><path class="cls-8" d="M481.7,312.34c-17.5,17-32.84,34.38-34.15,33.83s11.91-18.86,29.41-35.84S506.3,283.41,507.61,284,499.21,295.37,481.7,312.34Z"></path><path class="cls-10" d="M341.67,285.31c17.64,18.53,35.79,34.08,35.44,35.21S357.68,308,340,289.48s-39.82-42.92-39.47-44.06S324,266.78,341.67,285.31Z"></path><path class="cls-8" d="M302.22,322.86c19.76,20.33,35.41,37.89,35,39.22s-16.83-14.07-36.59-34.4-34.83-34.13-34.38-35.46S282.46,302.52,302.22,322.86Z"></path><path class="cls-8" d="M320.54,313.89c14.79,15.26,29.83,33.63,29.27,34.84S333.3,333.55,318.5,318.3s-26.29-25.39-25.73-26.61S305.75,298.64,320.54,313.89Z"></path><path class="cls-10" d="M329.46,301.16c16.21,16.71,31.87,28.88,31.34,30.13s-17.05-8.89-33.26-25.61-25.71-28-25.18-29.27S313.25,284.44,329.46,301.16Z"></path><path class="cls-10" d="M376.09,367.19c0,11.23,9.36,20.33,13.43,20.33s-7.8-9.1-7.8-20.33,11.87-20.33,7.8-20.33S376.09,356,376.09,367.19Z"></path><path class="cls-10" d="M349.53,366.09c0,21.81,17.14,42,21.21,42,5.35.07-18.09-18.87-17.42-41.37.55-18.48,22.35-38.66,18.28-38.66S349.53,347.59,349.53,366.09Z"></path><ellipse class="cls-10" cx="394.54" cy="183.67" rx="100.35" ry="2.5"></ellipse><ellipse class="cls-10" cx="454.05" cy="125.01" rx="6.49" ry="5.65"></ellipse><ellipse class="cls-10" cx="335.2" cy="121.82" rx="6.49" ry="5.65"></ellipse><ellipse class="cls-10" cx="397.49" cy="98.93" rx="41.12" ry="2.67"></ellipse></g></g></g></svg>