<svg xmlns="http://www.w3.org/2000/svg" width="346.277" height="122" viewBox="0 0 346.277 122"><g transform="translate(-1493.056 -880)"><g transform="translate(1444.833 287.929)"><circle cx="23.5" cy="23.5" r="23.5" transform="translate(324 592.071)" fill="#455666"></circle><g transform="translate(331.862 599.625)"><rect width="30" height="30" transform="translate(0.138 0.447)" fill="#ff1e1e" opacity="0"></rect><path d="M17.422,20.389h6.816a3.438,3.438,0,0,0,3.391-3.471V10.5a3.775,3.775,0,0,0-3.4-3.506,21.616,21.616,0,0,0-3.55-.276,19.4,19.4,0,0,0-3.227.276c-2.887.5-3.377,1.56-3.377,3.506V13H20.85v.924h-9.4a4.25,4.25,0,0,0-4.263,3.421,12.349,12.349,0,0,0,0,6.823c.485,2,1.643,3.388,3.626,3.388h2.325V24.536a4.294,4.294,0,0,1,4.284-4.147Zm-.429-9.037a1.285,1.285,0,1,1,1.28-1.281A1.281,1.281,0,0,1,16.993,11.353Zm17.48,5.988c-.491-1.951-1.427-3.421-3.412-3.421h-2.5v3a4.309,4.309,0,0,1-4.325,4.163H17.422a3.507,3.507,0,0,0-3.348,3.541v6.423c0,1.828,1.577,2.9,3.38,3.427a11.444,11.444,0,0,0,6.789,0c1.717-.491,3.386-1.481,3.386-3.427v-2.57H20.85v-.924h10.21c1.982,0,2.723-1.334,3.412-3.388a11.351,11.351,0,0,0,0-6.823ZM24.667,30.189a1.285,1.285,0,1,1-1.28,1.281,1.281,1.281,0,0,1,1.28-1.281Z" transform="translate(-5.644 -5.751)" fill="#fff"></path></g></g><g transform="translate(851.056 350.429)"><circle cx="23.5" cy="23.5" r="23.5" transform="translate(642 592.071)" fill="#455666"></circle><g transform="translate(652.12 601.85)"><rect width="25.169" height="25.169" transform="translate(-0.233 0.447)" fill="#ff1e1e" opacity="0"></rect><path d="M13.459,28.849,30,31.077,24.4,21.891,13.459,28.849Zm18.1-17.2q-.732,1.087-1.465,2.172-2.515,3.73-5.025,7.461c-.094.139-.215.248-.083.461q2.427,3.954,4.832,7.919a10.611,10.611,0,0,0,.838,1.233q.489-9.612.976-19.226l-.072-.02ZM9.479,19.87a.4.4,0,0,0,.353.07c1.552-.753,3.114-1.488,4.631-2.3a7.281,7.281,0,0,0,1.3-1.128Q17.883,14.594,20,12.672a1.008,1.008,0,0,0,.239-.254c.507-.976,1-1.957,1.518-2.966-.613-.228-1.2-.45-1.785-.652a.433.433,0,0,0-.292.075c-1.364.751-2.755,1.463-4.076,2.283A13.487,13.487,0,0,0,13.817,12.7c-.943.85-1.886,1.7-2.815,2.565a4.744,4.744,0,0,0-.664.767c-.635.913-1.252,1.838-1.9,2.791.36.368.688.719,1.038,1.047Zm5.671-1.248c-.771,3.216-1.539,6.415-2.331,9.718l10.957-6.965-8.626-2.753Zm15.464-6.937L21.3,13.22c1.058,2.537,2.095,5.025,3.161,7.583l6.153-9.117ZM15.281,17.963l8.452,2.708-3.126-7.512-5.326,4.8ZM9.6,21.746c-1,2.365-1.972,4.651-2.958,6.976l5.635-.163ZM12.34,26.94l.07-.015c.676-2.775,1.363-5.531,2.053-8.415L9.942,20.828c.771,1.976,1.593,4.061,2.4,6.112ZM29.477,11.235q-1.348-.353-2.7-.7c-1.293-.336-2.589-.668-3.882-1.006-.162-.043-.278-.07-.373.121-.458.924-.928,1.841-1.393,2.761a.676.676,0,0,0-.021.137l8.368-1.25v-.058Zm-5.22-2.1,7.334,2c-.42-1.182-.81-2.278-1.211-3.407L24.268,9.066Zm-11.3,20.248a21.641,21.641,0,0,0-2.761.008c-.757.014-1.515.042-2.271.064a.3.3,0,0,0-.234.1l18.768,1.712.013-.082-6.016-.81c-2.5-.336-4.994-.707-7.5-.992Zm-6.2-2.789q1.21-2.769,2.418-5.536A.346.346,0,0,0,9.1,20.6c-.339-.319-.654-.661-1.023-1.04L6.6,26.746l.054.025A1.188,1.188,0,0,0,6.761,26.593ZM22.651,8.646c1.359-.345,2.738-.616,4.11-.918.088-.019.174-.048.263-.073l-.014-.066-5.891.781a2.226,2.226,0,0,0,1.532.276Z" transform="translate(-6.634 -6.664)" fill="#fff"></path></g></g><g transform="translate(851.056 287.929)"><circle cx="23.5" cy="23.5" r="23.5" transform="translate(642 592.071)" fill="#455666"></circle><path d="M-15.3,0a.37.37,0,0,1-.272-.112.37.37,0,0,1-.112-.272V-10.976a.364.364,0,0,1,.112-.28.385.385,0,0,1,.272-.1h1.424a.378.378,0,0,1,.28.1.378.378,0,0,1,.1.28v3.648A3.2,3.2,0,0,1-10.9-8.48a3.024,3.024,0,0,1,2.352.968,3.765,3.765,0,0,1,.88,2.632v4.5a.385.385,0,0,1-.1.272A.364.364,0,0,1-8.056,0H-9.5a.37.37,0,0,1-.272-.112A.37.37,0,0,1-9.88-.384v-4.4a2.149,2.149,0,0,0-.456-1.464,1.662,1.662,0,0,0-1.32-.52A1.755,1.755,0,0,0-13-6.24a2.042,2.042,0,0,0-.5,1.456v4.4a.385.385,0,0,1-.1.272A.364.364,0,0,1-13.88,0ZM-1.976,0A2.89,2.89,0,0,1-4.16-.76a3.107,3.107,0,0,1-.728-2.232V-6.624H-6.152a.358.358,0,0,1-.272-.12.4.4,0,0,1-.112-.28v-.912a.37.37,0,0,1,.112-.272.37.37,0,0,1,.272-.112h1.264v-2.656a.364.364,0,0,1,.112-.28.385.385,0,0,1,.272-.1h1.3a.378.378,0,0,1,.28.1.378.378,0,0,1,.1.28V-8.32h2a.378.378,0,0,1,.28.1.378.378,0,0,1,.1.28v.912a.39.39,0,0,1-.112.288.37.37,0,0,1-.272.112h-2v3.472a1.851,1.851,0,0,0,.24,1.04.9.9,0,0,0,.8.352h1.1a.37.37,0,0,1,.272.112A.37.37,0,0,1-.3-1.376v.992a.385.385,0,0,1-.1.272A.364.364,0,0,1-.68,0ZM4.888,0A2.89,2.89,0,0,1,2.7-.76a3.107,3.107,0,0,1-.728-2.232V-6.624H.712a.358.358,0,0,1-.272-.12.4.4,0,0,1-.112-.28v-.912A.37.37,0,0,1,.44-8.208.37.37,0,0,1,.712-8.32H1.976v-2.656a.364.364,0,0,1,.112-.28.385.385,0,0,1,.272-.1h1.3a.378.378,0,0,1,.28.1.378.378,0,0,1,.1.28V-8.32h2a.378.378,0,0,1,.28.1.378.378,0,0,1,.1.28v.912a.39.39,0,0,1-.112.288.37.37,0,0,1-.272.112h-2v3.472a1.851,1.851,0,0,0,.24,1.04.9.9,0,0,0,.8.352h1.1a.37.37,0,0,1,.272.112.37.37,0,0,1,.112.272v.992a.385.385,0,0,1-.1.272A.364.364,0,0,1,6.184,0Zm3.5,3.04a.385.385,0,0,1-.272-.1.364.364,0,0,1-.112-.28V-7.936a.364.364,0,0,1,.112-.28.385.385,0,0,1,.272-.1H9.656a.378.378,0,0,1,.28.1.378.378,0,0,1,.1.28v.64A3.019,3.019,0,0,1,12.6-8.48a3.075,3.075,0,0,1,2.48,1.016,4.358,4.358,0,0,1,.928,2.744q.016.192.016.56,0,.384-.016.576A4.355,4.355,0,0,1,15.08-.872,3.053,3.053,0,0,1,12.6.16,2.885,2.885,0,0,1,10.136-.976V2.656a.358.358,0,0,1-.384.384Zm3.616-4.592q1.728,0,1.84-2.128.016-.16.016-.48t-.016-.48q-.112-2.128-1.84-2.128a1.615,1.615,0,0,0-1.376.592,2.591,2.591,0,0,0-.5,1.456l-.016.608.016.624a2.216,2.216,0,0,0,.5,1.368A1.677,1.677,0,0,0,12.008-1.552Z" transform="translate(665.944 621.071)" fill="#fff"></path></g><g transform="translate(1391.833 350.429)"><circle cx="23.5" cy="23.5" r="23.5" transform="translate(377 592.071)" fill="#455666"></circle><g transform="translate(638.177 142.516)"><path d="M-223.645,466.753V465.9a12.182,12.182,0,0,0-.143-1.855,5.868,5.868,0,0,0-.571-1.76,6.864,6.864,0,0,0-1.094-1.522,5.916,5.916,0,0,0-1.522-1.094,5.869,5.869,0,0,0-1.76-.571,12.183,12.183,0,0,0-1.855-.143h-14.745a6.46,6.46,0,0,0-1.379.143,6.138,6.138,0,0,0-1.332.381c-.143.048-.285.143-.428.19a4.779,4.779,0,0,0-1.142.761,2.2,2.2,0,0,0-.333.333,5.916,5.916,0,0,0-1.094,1.522,5.869,5.869,0,0,0-.571,1.76,12.184,12.184,0,0,0-.143,1.855v14.317a12.183,12.183,0,0,0,.143,1.855,5.869,5.869,0,0,0,.571,1.76,6.866,6.866,0,0,0,1.094,1.522,5.917,5.917,0,0,0,1.522,1.094,5.869,5.869,0,0,0,1.76.571,12.179,12.179,0,0,0,1.855.143h14.269a12.183,12.183,0,0,0,1.855-.143,5.867,5.867,0,0,0,1.76-.571,6.865,6.865,0,0,0,1.522-1.094,5.917,5.917,0,0,0,1.094-1.522,5.868,5.868,0,0,0,.571-1.76,12.183,12.183,0,0,0,.143-1.855V467.8A8.061,8.061,0,0,1-223.645,466.753Z" transform="translate(0)" fill="#fff"></path><path d="M-225.092,482.85c.048-.1.048-.238.1-.333,1.189-4.661-1.712-10.179-6.516-13.08a11.252,11.252,0,0,1,2.236,9.418,5.47,5.47,0,0,1-.285.809c-.1-.048-.238-.143-.428-.238a63.3,63.3,0,0,1-10.036-8.229,63.416,63.416,0,0,0,6.088,7.658,63.635,63.635,0,0,1-8.657-6.564,12.83,12.83,0,0,0,1.189,1.617,52.011,52.011,0,0,0,8.895,9.275c-2.521,1.522-6.088,1.665-9.656,0a16.167,16.167,0,0,1-2.473-1.474,14.816,14.816,0,0,0,6.659,5.708,10.834,10.834,0,0,0,9.18.048h.048a1,1,0,0,0,.285-.19c1.189-.618,3.567-1.237,4.852,1.237C-223.332,489.033-222.667,485.8-225.092,482.85Z" transform="translate(-4.403 -6.489)" fill="#455666"></path></g></g><g transform="translate(1412.944 287.929)"><circle cx="23.5" cy="23.5" r="23.5" transform="translate(218 592.071)" fill="#455666"></circle><g transform="translate(225.739 599.625)"><rect width="30" height="30" transform="translate(0.261 0.447)" fill="#ff1e1e" opacity="0"></rect><path d="M48.094,61.5s-1.08.628.77.841a16.187,16.187,0,0,0,5.854-.248,10.274,10.274,0,0,0,1.557.759C50.739,65.221,43.747,62.712,48.094,61.5Zm-.677-3.1s-1.211.9.639,1.089a22.841,22.841,0,0,0,7.555-.363,3.334,3.334,0,0,0,1.163.709C50.083,61.795,42.63,59.991,47.417,58.4Z" transform="translate(-36.698 -38.669)" fill="#fff" stroke="#fff" stroke-width="0.3"></path><path d="M65.312,26.622a2.071,2.071,0,0,1-.358,2.983s3.463-1.788,1.873-4.027c-1.486-2.087-2.624-3.124,3.541-6.7C70.368,18.879,60.69,21.3,65.312,26.622Z" transform="translate(-48.891 -12.141)" fill="#fff" stroke="#fff" stroke-width="0.3"></path><path d="M51.217,56.682s.8.659-.88,1.169c-3.194.968-13.3,1.26-16.1.038-1.008-.439.883-1.048,1.478-1.176a3.853,3.853,0,0,1,.975-.11c-1.122-.79-7.251,1.551-3.113,2.223C44.859,60.656,54.144,58,51.217,56.682ZM39.391,48.09s-5.138,1.221-1.819,1.665a38.62,38.62,0,0,0,6.8-.074c2.127-.179,4.261-.56,4.261-.56a9.079,9.079,0,0,0-1.292.692c-5.219,1.373-15.3.733-12.4-.67A9.71,9.71,0,0,1,39.391,48.09Zm9.218,5.152c5.3-2.756,2.852-5.4,1.14-5.048a4.03,4.03,0,0,0-.607.163.965.965,0,0,1,.453-.349c3.387-1.19,5.991,3.512-1.092,5.374A.468.468,0,0,0,48.61,53.242Z" transform="translate(-27.476 -31.565)" fill="#fff" stroke="#fff" stroke-width="0.3"></path><path d="M59.13,1.313s2.938,2.939-2.787,7.457c-4.59,3.625-1.047,5.692,0,8.054-2.68-2.418-4.645-4.546-3.327-6.527,1.936-2.907,7.3-4.317,6.115-8.985Z" transform="translate(-41.195 -0.35)" fill="#fff" stroke="#fff" stroke-width="0.3"></path><path d="M47.588,81.751c5.091.325,12.911-.181,13.1-2.59,0,0-.356.913-4.208,1.638a41.84,41.84,0,0,1-12.885.2S44.242,81.536,47.588,81.751Z" transform="translate(-35.151 -52.604)" fill="#fff" stroke="#fff" stroke-width="0.3"></path></g></g><g transform="translate(1428.889 287.929)"><circle cx="23.5" cy="23.5" r="23.5" transform="translate(271 592.071)" fill="#455666"></circle><g transform="translate(279.393 600.125)"><rect width="30" height="30" transform="translate(0.199 0.447)" fill="#ff1e1e" opacity="0"></rect><path d="M18.013,33.039c-8.343,0-15.107,3.428-15.107,7.656S9.67,48.35,18.013,48.35s15.107-3.428,15.107-7.656S26.356,33.039,18.013,33.039Zm-3.931,9.147a2.953,2.953,0,0,1-1.2.62,5.918,5.918,0,0,1-1.684.114H9.65l-.429,2.473H7.416l1.611-8.407H12.5a2.893,2.893,0,0,1,2.285.849,2.608,2.608,0,0,1,.432,2.309,3.636,3.636,0,0,1-1.134,2.043Zm5.27.734.712-3.566a1.057,1.057,0,0,0-.089-.879,1.243,1.243,0,0,0-.9-.253H17.644l-.923,4.7H14.93l1.611-8.16h1.791L17.9,36.986h1.6a3.091,3.091,0,0,1,2.078.552,1.572,1.572,0,0,1,.343,1.614l-.749,3.769Zm9.955-2.764a3.6,3.6,0,0,1-1.133,2.03,2.955,2.955,0,0,1-1.2.62,5.919,5.919,0,0,1-1.684.114H23.741l-.428,2.473H21.507l1.611-8.407H26.59a2.892,2.892,0,0,1,2.285.849A2.638,2.638,0,0,1,29.306,40.156Zm-3.4-1.934H24.669l-.674,3.462h1.1a2.681,2.681,0,0,0,1.626-.346A2.093,2.093,0,0,0,27.44,40a1.611,1.611,0,0,0-.163-1.35A1.833,1.833,0,0,0,25.905,38.222Zm-14.091,0H10.578L9.9,41.684H11a2.682,2.682,0,0,0,1.626-.346A2.093,2.093,0,0,0,13.349,40a1.611,1.611,0,0,0-.163-1.35A1.832,1.832,0,0,0,11.815,38.222Z" transform="translate(-2.906 -25.162)" fill="#fff"></path></g></g><g transform="translate(1147.833 350.429)"><circle cx="23.5" cy="23.5" r="23.5" transform="translate(483 592.071)" fill="#455666"></circle><g transform="translate(491.548 600.125)"><rect width="30" height="30" transform="translate(-0.048 0.447)" fill="#ff1e1e" opacity="0"></rect><path d="M1.479,172.18c.042.864.906.461,1.291.193.369-.26.478-.042.511-.545a7.945,7.945,0,0,0,.042-1,2.434,2.434,0,0,0-1.627.419c-.243.168-.679.721-.218.931M18.694,182.8c.662.411,1.878,1.652.88,2.256-.956.872-1.493-.964-2.331-1.216A2.266,2.266,0,0,1,18.694,182.8ZM6.837,184.2c-.78.117-1.216.822-1.87,1.182-.612.361-.847-.117-.9-.218-.092-.042-.084.042-.235-.109-.57-.9.587-1.551,1.191-2C5.864,182.889,6.393,183.618,6.837,184.2Zm15.538-12.125c-.042.864-.906.461-1.291.193-.369-.26-.478-.042-.511-.545a7.914,7.914,0,0,1-.042-1,2.434,2.434,0,0,1,1.627.419c.235.168.679.721.218.931" transform="translate(3.176 -155.373)" fill="#fff"></path><path d="M26.624,6.476c2.994-1.057.654-5.157-1.954-3.346C22.959,1.662,20.6,1.394,18.129,1.394c-2.423.193-4.729.637-6.339,2.046-2.6-1.677-5,2.348-1.946,3.363-.855,3.321.117,6.708-.017,10.088-.126,3.036-.922,7.1.763,9.828,1.434,2.331,4.52,3.161,7.061,3.254,3.245.117,7.178-.679,8.754-3.824,1.509-2.994,1.09-6.725.9-9.954-.193-3.262.168-6.574-.679-9.719Z" transform="translate(-3.362 -0.309)" fill="#fff"></path><path d="M21.807,15.4a1.4,1.4,0,0,0-.394-.486,2.542,2.542,0,0,0-1.392-.444c-.017-.52-.034-1.09-.034-1.811v-.654a38.126,38.126,0,0,0-.151-4.1A16.6,16.6,0,0,0,19.4,5.424a2.02,2.02,0,0,0,1.3-1.241,2.016,2.016,0,0,0-.2-1.6,2.11,2.11,0,0,0-3.145-.663A6.4,6.4,0,0,0,15.476.837,13.325,13.325,0,0,0,10.805.2V.284L10.8.2A13.648,13.648,0,0,0,5.841,1.324a6.161,6.161,0,0,0-1.384.906A2.217,2.217,0,0,0,2.6,1.936,2.288,2.288,0,0,0,1.279,3.009a1.907,1.907,0,0,0-.159,1.6,2.057,2.057,0,0,0,1.3,1.14,12.137,12.137,0,0,0-.335,2.734,30.694,30.694,0,0,0,.176,3.48c.109,1.3.151,1.9.168,2.616a2.51,2.51,0,0,0-1.568.436,1.25,1.25,0,0,0-.394.486.4.4,0,0,0,.151.57c.034.4.26.587.6.553a1.833,1.833,0,0,0,.813-.344.944.944,0,0,1,.176-.1c.025-.008.042-.017.067-.025,0,0,.05-.017.067-.025a.169.169,0,0,0,.067-.034c-.017.394-.05.805-.126,1.744C2.2,18.9,2.16,19.478,2.143,20.124A9.644,9.644,0,0,0,3.208,25.65a5.453,5.453,0,0,0,.981,1.174c-.076.05-.394.285-.495.361a2.668,2.668,0,0,0-.738.746.918.918,0,0,0,.025,1l.008.008L3,28.945c.092.092.143.117.21.117h.025c.008.017.017.025.025.042a1.217,1.217,0,0,0,.075.109.636.636,0,0,0,.9.067,3.689,3.689,0,0,0,.679-.5l.017-.017a2.2,2.2,0,0,1,1.14-.654l.134-.025c.05.025.1.042.159.067a11.972,11.972,0,0,0,3.975.788,13.455,13.455,0,0,0,5.031-.7,8.978,8.978,0,0,0,1.115-.495,2.1,2.1,0,0,1,.755.671.089.089,0,0,1,.025.034c.017.017.017.025.025.034.017.025.042.042.059.067a1.923,1.923,0,0,0,.671.579.726.726,0,0,0,.822-.193c.486-.3.52-.771.2-1.308a3.59,3.59,0,0,0-.989-1.023,5.8,5.8,0,0,0,1.107-1.518,12.683,12.683,0,0,0,1.1-5.9c-.008-.855-.042-1.6-.134-3.027v-.042a.5.5,0,0,1,.126.075,1.934,1.934,0,0,0,.813.344c.344.034.57-.151.6-.553a.417.417,0,0,0,.143-.579ZM19.14,1.726a2.011,2.011,0,0,1,1.208.956,1.833,1.833,0,0,1,.193,1.467A1.834,1.834,0,0,1,19.35,5.273a13.641,13.641,0,0,0-.444-1.325.616.616,0,0,0,.168-.838.66.66,0,0,0-.872-.3,6.266,6.266,0,0,0-.713-.771,2.041,2.041,0,0,1,1.652-.31ZM1.263,4.56A1.71,1.71,0,0,1,1.414,3.1a2.11,2.11,0,0,1,1.224-.989,2.085,2.085,0,0,1,1.685.252,5.517,5.517,0,0,0-.872,1c-.436-.226-.88-.268-1.132.193-.26.495.042.805.47,1.04-.059.143-.117.294-.168.444-.059.184-.117.377-.168.57A1.929,1.929,0,0,1,1.263,4.56ZM2.277,15.99c-.008,0-.059.017-.059.025a.3.3,0,0,0-.075.034.836.836,0,0,0-.2.117,1.628,1.628,0,0,1-.738.31C.952,16.5.81,16.392.785,16.09a.514.514,0,0,0,.319-.2l-.134-.1c-.05.067-.1.092-.252.143-.008,0-.008,0-.017.008-.134-.076-.159-.193-.084-.361a1.2,1.2,0,0,1,.344-.419,2.288,2.288,0,0,1,1.476-.4c0,.21.008.419,0,.62a.184.184,0,0,1-.008.067c-.008.117-.008.168-.017.226-.025.243-.042.277-.134.319ZM4.81,28.643l-.017.017a3.727,3.727,0,0,1-.654.486c-.319.193-.537.151-.688-.034a.511.511,0,0,1-.059-.084C3.384,29.021,3.376,29,3.367,29v-.008a1.114,1.114,0,0,1,.226-.495c.008-.008.008-.008.008-.017a1.8,1.8,0,0,0,.176-.3l-.151-.067a2.279,2.279,0,0,1-.159.277c-.008.008-.008.008-.008.017a1.39,1.39,0,0,0-.252.5H3.174a.3.3,0,0,1-.075-.059c-.327-.52-.067-.964.671-1.518.092-.067.4-.285.486-.352a.119.119,0,0,0,.05-.017,7.043,7.043,0,0,0,1.568,1c0,.008.008.017.017.025a2.574,2.574,0,0,0-1.082.662Zm14.079-.914c.26.436.252.788-.076,1.031-.025-.05-.042-.109-.075-.193,0-.008,0-.008-.008-.017a1.523,1.523,0,0,0-.335-.6l-.117.117a1.324,1.324,0,0,1,.3.537c0,.008,0,.008.008.017.042.109.067.176.092.235a.534.534,0,0,1-.612.126,1.961,1.961,0,0,1-.612-.537.468.468,0,0,1-.05-.067.117.117,0,0,1-.025-.034.089.089,0,0,1-.025-.034,2.787,2.787,0,0,0-.7-.663,6.716,6.716,0,0,0,1.266-.922,3.92,3.92,0,0,1,.964,1.006Zm.117-2.717A6.343,6.343,0,0,1,15.3,28.107a13.34,13.34,0,0,1-4.973.679C7.25,28.677,4.583,27.6,3.334,25.574a9.465,9.465,0,0,1-1.04-5.434c.025-.646.059-1.224.143-2.281.092-1.191.117-1.535.143-2.071.017-.386.017-.78.008-1.2-.017-.738-.059-1.325-.168-2.641a30.546,30.546,0,0,1-.176-3.463,11.24,11.24,0,0,1,.545-3.413,5.917,5.917,0,0,1,3.128-3.6A13.415,13.415,0,0,1,10.805.368,13.183,13.183,0,0,1,15.417,1a5.894,5.894,0,0,1,3.329,2.969,14.059,14.059,0,0,1,.922,3.949A37.768,37.768,0,0,1,19.82,12v.654c.008,1.015.025,1.727.067,2.44.017.277.025.394.067,1.057.092,1.426.126,2.163.134,3.019a12.5,12.5,0,0,1-1.082,5.845Zm2.566-9.182c-.008,0-.017-.008-.025-.008a.479.479,0,0,1-.252-.143l-.134.1a.568.568,0,0,0,.319.2c-.034.3-.176.411-.419.386a1.727,1.727,0,0,1-.738-.31,1.252,1.252,0,0,0-.2-.117c-.008,0-.017-.008-.025-.008-.034-.461-.034-.579-.05-.822l-.025-.453a2.247,2.247,0,0,1,1.283.411,1.2,1.2,0,0,1,.344.419c.084.143.067.268-.076.344Z" transform="translate(3.971 0.785)"></path><path d="M112.507,100.785a7.227,7.227,0,0,1,.017,1.35c-.117.218-.335.243-.528.327a.79.79,0,0,1-.6-.47,8.259,8.259,0,0,1,.042-1.509,1.923,1.923,0,0,1,.6.092A2.026,2.026,0,0,1,112.507,100.785Zm-2.373.034c-.235.889.31,2.34,1.208,1.149a7.973,7.973,0,0,1,.034-1.484A5.954,5.954,0,0,0,110.134,100.819Z" transform="translate(-96.469 -91.053)" fill="#f5f7f9"></path><path d="M111.584,98.587c-.017-.252-.025-.352-.025-.478v-.059l-.059-.017-1.057-.327v-.059l-.109.025h-.008v.008l-1.191.3-.042.008-.017.042a1.932,1.932,0,0,0,.092,1.526c.268.47.7.478,1.149-.059a.858.858,0,0,0,.629.453h.025l.025-.008c.034-.017.067-.025.126-.05.008,0,.008,0,.017-.008a.623.623,0,0,0,.428-.31l.008-.008v-.017a2.962,2.962,0,0,0,.033-.486C111.609,98.939,111.6,98.822,111.584,98.587Zm-1.342-.31c-.008.151-.017.21-.025.293a4.71,4.71,0,0,0,.008.78c-.394.5-.7.5-.914.126a1.767,1.767,0,0,1-.092-1.342l1.057-.268C110.268,97.975,110.259,98.084,110.243,98.277Zm1.174,1.241c-.059.1-.134.151-.335.218-.008,0-.008,0-.017.008-.05.017-.084.034-.109.042a.7.7,0,0,1-.511-.4,4.609,4.609,0,0,1-.008-.771c.008-.084.008-.143.025-.294.017-.193.025-.31.025-.419l.914.277c0,.109.008.21.025.428s.025.344.025.478A2.368,2.368,0,0,1,111.417,99.518Z" transform="translate(-95.445 -88.461)"></path><path d="M1.6,4.442c.771,3,5.576,2.23,5.392-.78C6.771.056.859.752,1.6,4.442" transform="translate(7.02 1.637)" fill="#f5f7f9"></path><path d="M6.251,2.735A2.455,2.455,0,0,0,5.178.756,3.059,3.059,0,0,0,3.107.311a3.005,3.005,0,0,0-1.887.964A2.562,2.562,0,0,0,.7,3.523l.075-.017L.7,3.523C1.488,6.609,6.436,5.862,6.251,2.735Zm-5.4.772a2.4,2.4,0,0,1,.486-2.113A2.838,2.838,0,0,1,3.124.479,2.841,2.841,0,0,1,5.086.9,2.311,2.311,0,0,1,6.092,2.76C6.268,5.686,1.6,6.391.851,3.506Z" transform="translate(7.842 2.557)"></path><ellipse cx="0.813" cy="0.88" rx="0.813" ry="0.88" transform="translate(9.129 4.704)"></ellipse><ellipse cx="0.193" cy="0.226" rx="0.193" ry="0.226" transform="translate(10.119 5.559)" fill="#fff"></ellipse><path d="M1.129,4.573c.6,3.446,6.23,2.532,5.417-.939C5.817.514.928,1.378,1.129,4.573" transform="translate(14.227 0.945)" fill="#f5f7f9"></path><path d="M5.712,2.776C4.966-.436-.065.445.136,3.74v.008A2.722,2.722,0,0,0,3.465,5.937a2.994,2.994,0,0,0,1.811-1,2.42,2.42,0,0,0,.436-2.163ZM5.151,4.838a2.817,2.817,0,0,1-1.711.939A2.573,2.573,0,0,1,.3,3.723C.111.621,4.857-.21,5.561,2.809A2.26,2.26,0,0,1,5.151,4.838Z" transform="translate(15.136 1.786)"></path><ellipse cx="0.797" cy="0.88" rx="0.797" ry="0.88" transform="translate(15.943 4.487)"></ellipse><ellipse cx="0.184" cy="0.226" rx="0.184" ry="0.226" transform="translate(16.925 5.342)" fill="#fff"></ellipse><path d="M102.314,82a1.043,1.043,0,0,0-.855,1.459c.453.822,1.467-.075,2.1.008.73.017,1.325.771,1.9.134.646-.7-.277-1.392-1.006-1.694Z" transform="translate(-88.475 -74.044)" fill="#f5f7f9"></path><path d="M104.727,81.739a2.675,2.675,0,0,0-1.048-.721l-.017-.008h-.017l-2.147.084a1.13,1.13,0,0,0-.922,1.585.7.7,0,0,0,.6.394,1.854,1.854,0,0,0,.7-.143c.025-.008.059-.017.1-.034a1.661,1.661,0,0,1,.755-.159h.008a1.83,1.83,0,0,1,.688.184,2.117,2.117,0,0,0,.637.2.763.763,0,0,0,.646-.277A.775.775,0,0,0,104.727,81.739Zm-.143.989a.6.6,0,0,1-.511.226,1.834,1.834,0,0,1-.587-.185,1.956,1.956,0,0,0-.738-.2,1.817,1.817,0,0,0-.83.168c-.042.017-.075.025-.1.033-.612.21-.906.193-1.107-.176a.966.966,0,0,1,.788-1.342l2.121-.084a2.533,2.533,0,0,1,.973.671A.6.6,0,0,1,104.584,82.728Z" transform="translate(-87.659 -73.222)" fill="#231f20"></path><path d="M114.169,71.838c-.26-.956-2.44-.813-2.39.327C111.888,73.012,114.42,72.786,114.169,71.838Z" transform="translate(-98.023 -64.244)"></path></g></g><g transform="translate(1450 287.929)"><circle cx="23.5" cy="23.5" r="23.5" transform="translate(112 592.071)" fill="#455666"></circle><g transform="translate(120.615 600.625)"><rect width="30" height="30" transform="translate(0.385 0.447)" fill="#ff1e1e" opacity="0"></rect><path d="M113.093,75.94a2.467,2.467,0,0,0-.312-1.262,2.382,2.382,0,0,0-.912-.888q-5.049-2.91-10.106-5.821a2.487,2.487,0,0,0-2.688.023c-1.34.787-8.057,4.636-10.052,5.8A2.332,2.332,0,0,0,87.8,75.948V87.667a2.555,2.555,0,0,0,.3,1.239,2.443,2.443,0,0,0,.927.919c2,1.161,8.712,5,10.052,5.8a2.472,2.472,0,0,0,2.688.023q5.049-2.922,10.106-5.821a2.339,2.339,0,0,0,.927-.919,2.555,2.555,0,0,0,.3-1.239V75.94" transform="translate(-85.122 -66.616)" fill="#fff"></path><path d="M103.8,249.5l-12.4,7.138a2.443,2.443,0,0,0,.927.919c2,1.161,8.712,5,10.052,5.8a2.472,2.472,0,0,0,2.688.023q5.049-2.922,10.106-5.821a2.339,2.339,0,0,0,.927-.919L103.8,249.5" transform="translate(-88.441 -234.355)" fill="#ececec"></path><path d="M203.4,251.612a4.18,4.18,0,0,0,7.278-.023L207.07,249.5l-3.67,2.112" transform="translate(-191.714 -234.355)" fill="#fff"></path><path d="M263.115,159.862a2.467,2.467,0,0,0-.312-1.262l-12.3,7.083,12.319,7.138a2.555,2.555,0,0,0,.3-1.239V159.862" transform="translate(-235.144 -150.538)" fill="#ececec"></path><path d="M154.154,152.649a4.188,4.188,0,1,1-.031-4.145l3.654-2.1a8.392,8.392,0,1,0,.031,8.361l-3.654-2.112" transform="translate(-135.191 -135.416)" fill="#455666"></path><rect width="0.834" height="4.029" transform="translate(22.75 13.197)" fill="#455666"></rect><rect width="0.834" height="4.029" transform="translate(24.598 13.197)" fill="#455666"></rect><rect width="4.029" height="0.834" transform="translate(22.08 13.875)" fill="#455666"></rect><rect width="4.029" height="0.834" transform="translate(22.08 15.714)" fill="#455666"></rect></g></g><g transform="translate(973 350.429)"><circle cx="23.5" cy="23.5" r="23.5" transform="translate(589 592.071)" fill="#455666"></circle><g transform="translate(600.112 602.23)"><rect width="24.854" height="24.854" transform="translate(-0.171 0.381)" fill="#ff1e1e" opacity="0"></rect><path d="M22.67,47H35.976v9.835H22.67Z" transform="translate(-15.701 -36.731)" fill="#455666"></path><path d="M1.5,13.871V26.333H26.423V1.41H1.5Zm20.084-1a3.1,3.1,0,0,1,1.559.9,4.1,4.1,0,0,1,.6.8c0,.032-1.077.76-1.733,1.166-.024.016-.12-.088-.225-.245a1.414,1.414,0,0,0-1.17-.7c-.756-.052-1.242.345-1.238,1a.913.913,0,0,0,.108.467c.165.345.475.55,1.444.969,1.784.768,2.548,1.274,3.023,1.994a3.618,3.618,0,0,1,.289,3.039,3.343,3.343,0,0,1-2.757,1.974,7.64,7.64,0,0,1-1.9-.02,4.586,4.586,0,0,1-2.536-1.322,4.381,4.381,0,0,1-.648-.961,1.862,1.862,0,0,1,.229-.146l.923-.51.716-.415.15.221a3.346,3.346,0,0,0,.945.905,2.31,2.31,0,0,0,2.424-.124,1.083,1.083,0,0,0,.138-1.38c-.2-.277-.6-.51-1.713-1a6.172,6.172,0,0,1-2.347-1.444,3.286,3.286,0,0,1-.684-1.246,4.984,4.984,0,0,1-.044-1.6,3.031,3.031,0,0,1,2.556-2.367,6.312,6.312,0,0,1,1.892.052Zm-5.85,1.045V14.94H12.5v9.217H10.2V14.938H6.959v-1a9.808,9.808,0,0,1,.024-1.031c.016-.018,1.994-.018,4.386-.018h4.353Z" transform="translate(-1.475 -1.344)" fill="#fff"></path></g></g><g transform="translate(1269.833 350.429)"><circle cx="23.5" cy="23.5" r="23.5" transform="translate(430 592.071)" fill="#455666"></circle><g transform="translate(438.986 599.625)"><rect width="30" height="30" transform="translate(0.014 0.447)" fill="#ff1e1e" opacity="0"></rect><path d="M15.432,13.792a1.767,1.767,0,0,0-1.766,1.767v7.4a1.766,1.766,0,1,0,3.533,0v-7.4a1.768,1.768,0,0,0-1.768-1.766M29.676,7.15,30.909,4.9a.245.245,0,1,0-.429-.236L29.235,6.937a8.607,8.607,0,0,0-6.914,0L21.074,4.665a.244.244,0,1,0-.429.234l1.233,2.25a7.213,7.213,0,0,0-4.059,6.362l15.911,0A7.217,7.217,0,0,0,29.676,7.15m-7.521,3.479a.667.667,0,1,1,.669-.667.667.667,0,0,1-.669.667m7.245,0a.666.666,0,1,1,.471-.2.667.667,0,0,1-.471.2m-11.515,3.5,0,11.463a1.882,1.882,0,0,0,1.885,1.884h1.283v3.914a1.766,1.766,0,1,0,3.532,0V27.473h2.385v3.914a1.766,1.766,0,1,0,3.533,0V27.472h1.288a1.885,1.885,0,0,0,1.886-1.885l0-11.463-15.792,0Zm20.005,1.43a1.766,1.766,0,1,0-3.532,0v7.4a1.766,1.766,0,1,0,3.532,0Z" transform="translate(-10.672 -3.737)" fill="#fff"></path></g></g><g transform="translate(1262.796 355.531)"><rect width="94" height="19" rx="6" transform="translate(344.537 627.469)" fill="#dc3545"></rect><path d="M9.992,11.12a3.6,3.6,0,0,1-2.562-.852,3.322,3.322,0,0,1-.966-2.4q-.012-.324-.012-1.056t.012-1.08a3.3,3.3,0,0,1,.978-2.394,3.589,3.589,0,0,1,2.55-.858,4.4,4.4,0,0,1,1.86.366,2.933,2.933,0,0,1,1.224,1,2.6,2.6,0,0,1,.456,1.422v.024a.2.2,0,0,1-.078.162.263.263,0,0,1-.174.066H12.14a.331.331,0,0,1-.216-.06.461.461,0,0,1-.12-.228,1.751,1.751,0,0,0-.636-1.062A2.059,2.059,0,0,0,9.98,3.86q-1.728,0-1.8,1.932-.012.324-.012,1t.012,1.02Q8.252,9.74,9.98,9.74a2.058,2.058,0,0,0,1.194-.312,1.711,1.711,0,0,0,.63-1.056.381.381,0,0,1,.114-.228.358.358,0,0,1,.222-.06h1.14a.265.265,0,0,1,.186.072.2.2,0,0,1,.066.18,2.6,2.6,0,0,1-.456,1.422,2.933,2.933,0,0,1-1.224,1A4.4,4.4,0,0,1,9.992,11.12Zm8.2,0a3.648,3.648,0,0,1-2.544-.828,3.3,3.3,0,0,1-.96-2.46q-.012-.348-.012-1.02t.012-1.032a3.284,3.284,0,0,1,.984-2.448,3.6,3.6,0,0,1,2.52-.852,3.623,3.623,0,0,1,2.526.852A3.273,3.273,0,0,1,21.7,5.78q.024.7.024,1.032T21.7,7.832a3.332,3.332,0,0,1-.972,2.46A3.648,3.648,0,0,1,18.188,11.12Zm0-1.38a1.723,1.723,0,0,0,1.284-.486,2.149,2.149,0,0,0,.516-1.482q.024-.72.024-.972,0-.276-.024-.972a2.149,2.149,0,0,0-.516-1.482,1.923,1.923,0,0,0-2.556,0A2.149,2.149,0,0,0,16.4,5.828q-.012.348-.012.972t.012.972a2.166,2.166,0,0,0,.51,1.482A1.7,1.7,0,0,0,18.188,9.74ZM23.6,11a.3.3,0,0,1-.216-.078.273.273,0,0,1-.084-.21V2.9a.288.288,0,0,1,.3-.3h.948a.37.37,0,0,1,.36.228l2.316,4.32,2.34-4.32a.385.385,0,0,1,.36-.228h.936a.288.288,0,0,1,.3.3v7.812a.273.273,0,0,1-.084.21A.3.3,0,0,1,30.86,11H29.852a.287.287,0,0,1-.288-.288v-5.2l-1.68,3.2a.464.464,0,0,1-.408.264h-.492a.464.464,0,0,1-.408-.264l-1.68-3.2v5.2a.289.289,0,0,1-.078.2.273.273,0,0,1-.21.084Zm9.72,0a.287.287,0,0,1-.288-.288V2.888a.273.273,0,0,1,.084-.21.289.289,0,0,1,.2-.078h1.128a.269.269,0,0,1,.288.288v7.824a.289.289,0,0,1-.078.2.273.273,0,0,1-.21.084Zm3.588,0a.287.287,0,0,1-.288-.288V2.9a.3.3,0,0,1,.078-.216.273.273,0,0,1,.21-.084h.924a.358.358,0,0,1,.216.054.623.623,0,0,1,.132.138l3.456,5.376V2.9a.3.3,0,0,1,.078-.216.273.273,0,0,1,.21-.084h1.008a.288.288,0,0,1,.3.3v7.8a.292.292,0,0,1-.084.216.278.278,0,0,1-.2.084h-.936a.424.424,0,0,1-.348-.192L38.216,5.552v5.16a.273.273,0,0,1-.084.21.3.3,0,0,1-.216.078Zm11.46.12a3.623,3.623,0,0,1-2.562-.852,3.268,3.268,0,0,1-.978-2.376q-.012-.348-.012-1.116t.012-1.116a3.181,3.181,0,0,1,.99-2.334,3.648,3.648,0,0,1,2.55-.846,4.428,4.428,0,0,1,1.9.372,3.051,3.051,0,0,1,1.2.93,2.02,2.02,0,0,1,.432,1.1V4.9a.211.211,0,0,1-.072.162.256.256,0,0,1-.18.066H50.408a.315.315,0,0,1-.18-.042.354.354,0,0,1-.108-.15,1.709,1.709,0,0,0-.588-.762,1.89,1.89,0,0,0-1.164-.318,1.817,1.817,0,0,0-1.314.456,1.978,1.978,0,0,0-.51,1.4q-.012.348-.012,1.056t.012,1.056q.072,1.908,1.848,1.908a1.974,1.974,0,0,0,1.368-.462A1.75,1.75,0,0,0,50.276,7.9V7.532H48.812a.273.273,0,0,1-.21-.084.3.3,0,0,1-.078-.216V6.6A.3.3,0,0,1,48.6,6.38a.273.273,0,0,1,.21-.084H51.68a.273.273,0,0,1,.21.084.3.3,0,0,1,.078.216v1.26A3.334,3.334,0,0,1,51.53,9.59a2.881,2.881,0,0,1-1.254,1.134A4.324,4.324,0,0,1,48.368,11.12Zm10.8,0a4.709,4.709,0,0,1-1.836-.324,2.745,2.745,0,0,1-1.164-.852,2,2,0,0,1-.42-1.14A.246.246,0,0,1,56,8.552h1.068a.387.387,0,0,1,.222.054.554.554,0,0,1,.15.174,1.224,1.224,0,0,0,.552.684,2.168,2.168,0,0,0,1.176.276,2.369,2.369,0,0,0,1.284-.282.889.889,0,0,0,.432-.786.737.737,0,0,0-.222-.552A1.813,1.813,0,0,0,60,7.748q-.438-.156-1.3-.384a5,5,0,0,1-2.07-.894,1.975,1.975,0,0,1-.654-1.59,2.1,2.1,0,0,1,.378-1.236,2.526,2.526,0,0,1,1.092-.852,4.121,4.121,0,0,1,1.662-.312,3.879,3.879,0,0,1,1.7.348,2.848,2.848,0,0,1,1.1.87,1.924,1.924,0,0,1,.4,1.038.246.246,0,0,1-.252.252H60.944A.348.348,0,0,1,60.6,4.76a.972.972,0,0,0-.48-.642,1.85,1.85,0,0,0-1.008-.258,1.909,1.909,0,0,0-1.056.252.822.822,0,0,0-.384.732.8.8,0,0,0,.192.552,1.615,1.615,0,0,0,.606.384,10.289,10.289,0,0,0,1.194.372,8.3,8.3,0,0,1,1.686.54,2.214,2.214,0,0,1,.93.756,2.079,2.079,0,0,1,.3,1.164A2.173,2.173,0,0,1,62.15,9.95a2.646,2.646,0,0,1-1.2.87A4.908,4.908,0,0,1,59.168,11.12Zm8.016,0a3.648,3.648,0,0,1-2.544-.828,3.3,3.3,0,0,1-.96-2.46q-.012-.348-.012-1.02T63.68,5.78a3.284,3.284,0,0,1,.984-2.448,4.162,4.162,0,0,1,5.046,0A3.273,3.273,0,0,1,70.7,5.78q.024.7.024,1.032T70.7,7.832a3.332,3.332,0,0,1-.972,2.46A3.648,3.648,0,0,1,67.184,11.12Zm0-1.38a1.723,1.723,0,0,0,1.284-.486,2.149,2.149,0,0,0,.516-1.482q.024-.72.024-.972,0-.276-.024-.972a2.149,2.149,0,0,0-.516-1.482,1.923,1.923,0,0,0-2.556,0A2.149,2.149,0,0,0,65.4,5.828q-.012.348-.012.972t.012.972a2.166,2.166,0,0,0,.51,1.482A1.7,1.7,0,0,0,67.184,9.74Zm8.34,1.38a3.648,3.648,0,0,1-2.544-.828,3.3,3.3,0,0,1-.96-2.46q-.012-.348-.012-1.02T72.02,5.78A3.284,3.284,0,0,1,73,3.332a4.162,4.162,0,0,1,5.046,0,3.273,3.273,0,0,1,.99,2.448q.024.7.024,1.032t-.024,1.02a3.332,3.332,0,0,1-.972,2.46A3.648,3.648,0,0,1,75.524,11.12Zm0-1.38a1.723,1.723,0,0,0,1.284-.486,2.149,2.149,0,0,0,.516-1.482q.024-.72.024-.972,0-.276-.024-.972a2.149,2.149,0,0,0-.516-1.482,1.923,1.923,0,0,0-2.556,0,2.149,2.149,0,0,0-.516,1.482q-.012.348-.012.972t.012.972a2.166,2.166,0,0,0,.51,1.482A1.7,1.7,0,0,0,75.524,9.74Zm5.4,1.26a.287.287,0,0,1-.288-.288V2.9a.3.3,0,0,1,.078-.216.273.273,0,0,1,.21-.084h.924a.358.358,0,0,1,.216.054.623.623,0,0,1,.132.138l3.456,5.376V2.9a.3.3,0,0,1,.078-.216.273.273,0,0,1,.21-.084h1.008a.288.288,0,0,1,.3.3v7.8a.292.292,0,0,1-.084.216.278.278,0,0,1-.2.084h-.936a.424.424,0,0,1-.348-.192L82.232,5.552v5.16a.273.273,0,0,1-.084.21.3.3,0,0,1-.216.078Z" transform="translate(344.537 629.969)" fill="#fff"></path></g><g transform="translate(1400.796 355.531)"><rect width="94" height="19" rx="6" transform="translate(344.537 627.469)" fill="#dc3545"></rect><path d="M9.992,11.12a3.6,3.6,0,0,1-2.562-.852,3.322,3.322,0,0,1-.966-2.4q-.012-.324-.012-1.056t.012-1.08a3.3,3.3,0,0,1,.978-2.394,3.589,3.589,0,0,1,2.55-.858,4.4,4.4,0,0,1,1.86.366,2.933,2.933,0,0,1,1.224,1,2.6,2.6,0,0,1,.456,1.422v.024a.2.2,0,0,1-.078.162.263.263,0,0,1-.174.066H12.14a.331.331,0,0,1-.216-.06.461.461,0,0,1-.12-.228,1.751,1.751,0,0,0-.636-1.062A2.059,2.059,0,0,0,9.98,3.86q-1.728,0-1.8,1.932-.012.324-.012,1t.012,1.02Q8.252,9.74,9.98,9.74a2.058,2.058,0,0,0,1.194-.312,1.711,1.711,0,0,0,.63-1.056.381.381,0,0,1,.114-.228.358.358,0,0,1,.222-.06h1.14a.265.265,0,0,1,.186.072.2.2,0,0,1,.066.18,2.6,2.6,0,0,1-.456,1.422,2.933,2.933,0,0,1-1.224,1A4.4,4.4,0,0,1,9.992,11.12Zm8.2,0a3.648,3.648,0,0,1-2.544-.828,3.3,3.3,0,0,1-.96-2.46q-.012-.348-.012-1.02t.012-1.032a3.284,3.284,0,0,1,.984-2.448,3.6,3.6,0,0,1,2.52-.852,3.623,3.623,0,0,1,2.526.852A3.273,3.273,0,0,1,21.7,5.78q.024.7.024,1.032T21.7,7.832a3.332,3.332,0,0,1-.972,2.46A3.648,3.648,0,0,1,18.188,11.12Zm0-1.38a1.723,1.723,0,0,0,1.284-.486,2.149,2.149,0,0,0,.516-1.482q.024-.72.024-.972,0-.276-.024-.972a2.149,2.149,0,0,0-.516-1.482,1.923,1.923,0,0,0-2.556,0A2.149,2.149,0,0,0,16.4,5.828q-.012.348-.012.972t.012.972a2.166,2.166,0,0,0,.51,1.482A1.7,1.7,0,0,0,18.188,9.74ZM23.6,11a.3.3,0,0,1-.216-.078.273.273,0,0,1-.084-.21V2.9a.288.288,0,0,1,.3-.3h.948a.37.37,0,0,1,.36.228l2.316,4.32,2.34-4.32a.385.385,0,0,1,.36-.228h.936a.288.288,0,0,1,.3.3v7.812a.273.273,0,0,1-.084.21A.3.3,0,0,1,30.86,11H29.852a.287.287,0,0,1-.288-.288v-5.2l-1.68,3.2a.464.464,0,0,1-.408.264h-.492a.464.464,0,0,1-.408-.264l-1.68-3.2v5.2a.289.289,0,0,1-.078.2.273.273,0,0,1-.21.084Zm9.72,0a.287.287,0,0,1-.288-.288V2.888a.273.273,0,0,1,.084-.21.289.289,0,0,1,.2-.078h1.128a.269.269,0,0,1,.288.288v7.824a.289.289,0,0,1-.078.2.273.273,0,0,1-.21.084Zm3.588,0a.287.287,0,0,1-.288-.288V2.9a.3.3,0,0,1,.078-.216.273.273,0,0,1,.21-.084h.924a.358.358,0,0,1,.216.054.623.623,0,0,1,.132.138l3.456,5.376V2.9a.3.3,0,0,1,.078-.216.273.273,0,0,1,.21-.084h1.008a.288.288,0,0,1,.3.3v7.8a.292.292,0,0,1-.084.216.278.278,0,0,1-.2.084h-.936a.424.424,0,0,1-.348-.192L38.216,5.552v5.16a.273.273,0,0,1-.084.21.3.3,0,0,1-.216.078Zm11.46.12a3.623,3.623,0,0,1-2.562-.852,3.268,3.268,0,0,1-.978-2.376q-.012-.348-.012-1.116t.012-1.116a3.181,3.181,0,0,1,.99-2.334,3.648,3.648,0,0,1,2.55-.846,4.428,4.428,0,0,1,1.9.372,3.051,3.051,0,0,1,1.2.93,2.02,2.02,0,0,1,.432,1.1V4.9a.211.211,0,0,1-.072.162.256.256,0,0,1-.18.066H50.408a.315.315,0,0,1-.18-.042.354.354,0,0,1-.108-.15,1.709,1.709,0,0,0-.588-.762,1.89,1.89,0,0,0-1.164-.318,1.817,1.817,0,0,0-1.314.456,1.978,1.978,0,0,0-.51,1.4q-.012.348-.012,1.056t.012,1.056q.072,1.908,1.848,1.908a1.974,1.974,0,0,0,1.368-.462A1.75,1.75,0,0,0,50.276,7.9V7.532H48.812a.273.273,0,0,1-.21-.084.3.3,0,0,1-.078-.216V6.6A.3.3,0,0,1,48.6,6.38a.273.273,0,0,1,.21-.084H51.68a.273.273,0,0,1,.21.084.3.3,0,0,1,.078.216v1.26A3.334,3.334,0,0,1,51.53,9.59a2.881,2.881,0,0,1-1.254,1.134A4.324,4.324,0,0,1,48.368,11.12Zm10.8,0a4.709,4.709,0,0,1-1.836-.324,2.745,2.745,0,0,1-1.164-.852,2,2,0,0,1-.42-1.14A.246.246,0,0,1,56,8.552h1.068a.387.387,0,0,1,.222.054.554.554,0,0,1,.15.174,1.224,1.224,0,0,0,.552.684,2.168,2.168,0,0,0,1.176.276,2.369,2.369,0,0,0,1.284-.282.889.889,0,0,0,.432-.786.737.737,0,0,0-.222-.552A1.813,1.813,0,0,0,60,7.748q-.438-.156-1.3-.384a5,5,0,0,1-2.07-.894,1.975,1.975,0,0,1-.654-1.59,2.1,2.1,0,0,1,.378-1.236,2.526,2.526,0,0,1,1.092-.852,4.121,4.121,0,0,1,1.662-.312,3.879,3.879,0,0,1,1.7.348,2.848,2.848,0,0,1,1.1.87,1.924,1.924,0,0,1,.4,1.038.246.246,0,0,1-.252.252H60.944A.348.348,0,0,1,60.6,4.76a.972.972,0,0,0-.48-.642,1.85,1.85,0,0,0-1.008-.258,1.909,1.909,0,0,0-1.056.252.822.822,0,0,0-.384.732.8.8,0,0,0,.192.552,1.615,1.615,0,0,0,.606.384,10.289,10.289,0,0,0,1.194.372,8.3,8.3,0,0,1,1.686.54,2.214,2.214,0,0,1,.93.756,2.079,2.079,0,0,1,.3,1.164A2.173,2.173,0,0,1,62.15,9.95a2.646,2.646,0,0,1-1.2.87A4.908,4.908,0,0,1,59.168,11.12Zm8.016,0a3.648,3.648,0,0,1-2.544-.828,3.3,3.3,0,0,1-.96-2.46q-.012-.348-.012-1.02T63.68,5.78a3.284,3.284,0,0,1,.984-2.448,4.162,4.162,0,0,1,5.046,0A3.273,3.273,0,0,1,70.7,5.78q.024.7.024,1.032T70.7,7.832a3.332,3.332,0,0,1-.972,2.46A3.648,3.648,0,0,1,67.184,11.12Zm0-1.38a1.723,1.723,0,0,0,1.284-.486,2.149,2.149,0,0,0,.516-1.482q.024-.72.024-.972,0-.276-.024-.972a2.149,2.149,0,0,0-.516-1.482,1.923,1.923,0,0,0-2.556,0A2.149,2.149,0,0,0,65.4,5.828q-.012.348-.012.972t.012.972a2.166,2.166,0,0,0,.51,1.482A1.7,1.7,0,0,0,67.184,9.74Zm8.34,1.38a3.648,3.648,0,0,1-2.544-.828,3.3,3.3,0,0,1-.96-2.46q-.012-.348-.012-1.02T72.02,5.78A3.284,3.284,0,0,1,73,3.332a4.162,4.162,0,0,1,5.046,0,3.273,3.273,0,0,1,.99,2.448q.024.7.024,1.032t-.024,1.02a3.332,3.332,0,0,1-.972,2.46A3.648,3.648,0,0,1,75.524,11.12Zm0-1.38a1.723,1.723,0,0,0,1.284-.486,2.149,2.149,0,0,0,.516-1.482q.024-.72.024-.972,0-.276-.024-.972a2.149,2.149,0,0,0-.516-1.482,1.923,1.923,0,0,0-2.556,0,2.149,2.149,0,0,0-.516,1.482q-.012.348-.012.972t.012.972a2.166,2.166,0,0,0,.51,1.482A1.7,1.7,0,0,0,75.524,9.74Zm5.4,1.26a.287.287,0,0,1-.288-.288V2.9a.3.3,0,0,1,.078-.216.273.273,0,0,1,.21-.084h.924a.358.358,0,0,1,.216.054.623.623,0,0,1,.132.138l3.456,5.376V2.9a.3.3,0,0,1,.078-.216.273.273,0,0,1,.21-.084h1.008a.288.288,0,0,1,.3.3v7.8a.292.292,0,0,1-.084.216.278.278,0,0,1-.2.084h-.936a.424.424,0,0,1-.348-.192L82.232,5.552v5.16a.273.273,0,0,1-.084.21.3.3,0,0,1-.216.078Z" transform="translate(344.537 629.969)" fill="#fff"></path></g></g></svg>