<svg xmlns="http://www.w3.org/2000/svg" xmlns:xlink="http://www.w3.org/1999/xlink" width="506.353" height="453.432" viewBox="0 0 506.353 453.432"><defs><linearGradient id="a" y1="0.5" x2="1.002" y2="0.5" gradientUnits="objectBoundingBox"><stop offset="0" stop-color="#085bad"></stop><stop offset="0.03" stop-color="#0960b7"></stop><stop offset="0.12" stop-color="#0a6ccd"></stop><stop offset="0.22" stop-color="#0b74de"></stop><stop offset="0.34" stop-color="#0b7ae9"></stop><stop offset="0.52" stop-color="#0c7ef0"></stop><stop offset="1" stop-color="#0c7ff2"></stop></linearGradient><linearGradient id="b" x1="0" y1="0.5" x2="1" y2="0.5" xlink:href="#a"></linearGradient><linearGradient id="c" x1="-0.002" y1="0.5" x2="1" y2="0.5" xlink:href="#a"></linearGradient></defs><g transform="translate(-8.197 -30.067)"><path d="M8.846,315.465a163.576,163.576,0,0,0,147.973,148.6,165.634,165.634,0,0,0,50.193-3.112,104.389,104.389,0,0,1,66.067,6.906c30.726,14.213,66.434,19.528,103.733,12.649A167.8,167.8,0,0,0,510.5,351.042c7.789-36.277,3.986-71.146-8.392-101.627a63.812,63.812,0,0,1-2.535-41.635,83.789,83.789,0,0,0-80.123-106.968c-1.224,0-2.439,0-3.654.061a45.062,45.062,0,0,1-37.885-17.631,133.576,133.576,0,0,0-230.771,31A60.411,60.411,0,0,1,112.8,148.2,163.821,163.821,0,0,0,8.846,315.465Z" transform="translate(0)" fill="#def2fa"></path><ellipse cx="152.851" cy="154.11" rx="152.851" ry="154.11" transform="translate(120.954 116.958)" fill="none" opacity="0.3" stroke-linecap="round" stroke-linejoin="round" stroke-width="3" stroke-dasharray="8.19" stroke="#01c7d4"></ellipse><ellipse cx="123.218" cy="121.601" rx="123.218" ry="121.601" transform="translate(149.18 152.588)" fill="none" opacity="0.3" stroke-linecap="round" stroke-linejoin="round" stroke-width="3" stroke="#01c7d4"></ellipse><ellipse cx="86.906" cy="85.761" rx="86.906" ry="85.761" transform="translate(185.063 188.428)" fill="none" stroke="#01c7d4" stroke-miterlimit="10" stroke-width="3" opacity="0.3"></ellipse><path d="M191.765,292.874h9.17a2.107,2.107,0,0,0,2.177-1.967V221.536a2.107,2.107,0,0,0-2.177-1.967H115.917a2.08,2.08,0,0,0-2.177,1.967h0V291a2.1,2.1,0,0,0,2.177,1.967h9.17" transform="translate(-13.284 -23.852)" fill="#fff"></path><path d="M191.728,306.978H128.345a1.661,1.661,0,0,1-1.635-1.661V247.625a1.635,1.635,0,0,1,1.635-1.635h63.383a1.635,1.635,0,0,1,1.635,1.635v57.693a1.661,1.661,0,0,1-1.635,1.661Z" transform="translate(-14.917 -27.178)" fill="#0c7ff2"></path><path d="M141.69,261.16l14.458,11.451-12.955,12.955" transform="translate(-16.802 -29.087)" fill="none" stroke="#fff" stroke-miterlimit="10" stroke-width="3.88"></path><line x2="21.687" transform="translate(141.26 256.636)" fill="none" stroke="#fff" stroke-miterlimit="10" stroke-width="3.88"></line><circle cx="1.836" cy="1.836" r="1.836" transform="translate(103.873 200.622)" fill="url(#a)"></circle><circle cx="1.836" cy="1.836" r="1.836" transform="translate(109.966 200.622)" fill="url(#b)"></circle><circle cx="1.836" cy="1.836" r="1.836" transform="translate(116.085 200.622)" fill="url(#c)"></circle><path d="M346.29,184.18h9.694a2.369,2.369,0,0,0,1.608-.507,1.9,1.9,0,0,0,.769-1.381v-65.56a1.862,1.862,0,0,0-.743-1.364,2.316,2.316,0,0,0-1.608-.49H265.975a2.334,2.334,0,0,0-1.591.5,1.879,1.879,0,0,0-.734,1.364V182.38a2.133,2.133,0,0,0,2.325,1.879h80.307Z" transform="translate(-32.153 -10.674)" fill="#fff"></path><line x2="93.759" transform="translate(231.864 115.446)" fill="#fff" stroke="#0c7ff2" stroke-miterlimit="10" stroke-width="2.16"></line><line y1="57.361" transform="translate(253 116.128)" fill="#fff" stroke="#0c7ff2" stroke-miterlimit="10" stroke-width="2.16"></line><line y1="57.361" transform="translate(291.34 116.128)" fill="#fff" stroke="#0c7ff2" stroke-miterlimit="10" stroke-width="2.16"></line><rect width="93.943" height="10.743" transform="translate(232.24 104.703)" fill="#0c7ff2"></rect><circle cx="1.617" cy="1.617" r="1.617" transform="translate(235.457 108.366)" fill="#fff"></circle><circle cx="1.617" cy="1.617" r="1.617" transform="translate(240.771 108.366)" fill="#fff"></circle><circle cx="1.617" cy="1.617" r="1.617" transform="translate(246.121 108.366)" fill="#fff"></circle><path d="M354.86,393.612l45.018,22.369,44.948-22.369L399.493,370.36Z" transform="translate(-43.634 -42.832)" fill="#0c7ff2"></path><path d="M356.04,441.3l.009-42.413,43.978,21.845,43.9-21.836v42.483l-44.039,21.766Z" transform="translate(-43.782 -46.423)" fill="#fff"></path><path d="M356.949,400.348,398.908,421.2l.935.463.927-.463,41.958-20.857V440.5l-42.99,21.241-42.832-21.32v-40.07M444.826,397l-44.948,22.369L354.86,397v44.747l44.878,22.36,45.1-22.282V397Z" transform="translate(-43.634 -46.185)" fill="#0c7ff2"></path><line y1="9.58" x2="20.472" transform="translate(378.377 386.917)" fill="none" stroke="#fff" stroke-linecap="round" stroke-miterlimit="10" stroke-width="0.8"></line><line y1="9.615" x2="20.472" transform="translate(378.377 389.915)" fill="none" stroke="#fff" stroke-linecap="round" stroke-miterlimit="10" stroke-width="0.8"></line><line x1="0.149" y2="44.738" transform="translate(356.096 373.149)" fill="#fff" stroke="#0c7ff2" stroke-miterlimit="10" stroke-width="2.39"></line><rect width="84.625" height="77.999" rx="1.86" transform="translate(130.91 330.535)" fill="#fff"></rect><path d="M422.9,299.616H410.661A1.617,1.617,0,0,1,409,297.973h0V223.016a1.617,1.617,0,0,1,1.617-1.626h82.02a1.617,1.617,0,0,1,1.617,1.626h0v9.178" transform="translate(-50.448 -24.081)" fill="#0c7ff2"></path><rect width="85.263" height="78.051" rx="2.04" transform="translate(372.486 208.253)" fill="#fff"></rect><line x2="29.476" transform="translate(380.711 222.309)" fill="none" stroke="#fff" stroke-linecap="round" stroke-miterlimit="10" stroke-width="0.86"></line><line x2="29.476" transform="translate(380.711 239.818)" fill="none" stroke="#fff" stroke-linecap="round" stroke-miterlimit="10" stroke-width="0.86"></line><line x2="29.476" transform="translate(380.711 257.3)" fill="none" stroke="#fff" stroke-linecap="round" stroke-miterlimit="10" stroke-width="0.86"></line><line x2="29.441" transform="translate(418.981 222.309)" fill="none" stroke="#fff" stroke-linecap="round" stroke-miterlimit="10" stroke-width="0.86"></line><line x2="29.441" transform="translate(418.981 239.818)" fill="none" stroke="#fff" stroke-linecap="round" stroke-miterlimit="10" stroke-width="0.86"></line><rect width="32.483" height="5" transform="translate(378.456 227.125)" fill="#0c7ff2"></rect><rect width="32.483" height="5" transform="translate(378.456 244.87)" fill="#0c7ff2"></rect><rect width="32.483" height="5" transform="translate(416.218 244.87)" fill="#0c7ff2"></rect><rect width="32.483" height="5" transform="translate(378.456 262.615)" fill="#0c7ff2"></rect><rect width="32.483" height="5" transform="translate(416.218 262.615)" fill="#0c7ff2"></rect><rect width="32.483" height="5" transform="translate(416.218 227.125)" fill="#0c7ff2"></rect><rect width="66.836" height="4.843" transform="translate(139.118 345.326)" fill="#0c7ff2"></rect><rect width="32.526" height="4.843" transform="translate(139.118 357.021)" fill="#0c7ff2"></rect><rect width="32.526" height="4.843" transform="translate(173.481 357.021)" fill="#0c7ff2"></rect><rect width="32.526" height="4.843" transform="translate(139.118 380.422)" fill="#0c7ff2"></rect><rect width="32.526" height="4.843" transform="translate(173.481 380.422)" fill="#0c7ff2"></rect><rect width="66.836" height="4.843" transform="translate(139.118 368.717)" fill="#0c7ff2"></rect><rect width="66.836" height="4.843" transform="translate(139.118 392.852)" fill="#0c7ff2"></rect></g></svg>