<svg xmlns="http://www.w3.org/2000/svg" width="1623.21" height="1340" viewBox="0 0 1623.21 1340"><rect width="1623.21" height="1340" fill="none"></rect><path d="M1241.37,254.83a38.23,38.23,0,0,1,38.17,38.28l-1,690.4a38.22,38.22,0,0,1-38.28,38.16L782.57,1021a38.23,38.23,0,0,1-38.17-38.28l.82-473.31" fill="#455666" stroke="#000" stroke-miterlimit="10" stroke-width="2" opacity="0.33"></path><path d="M1232.37,242.54a38.23,38.23,0,0,1,38.17,38.29l-1,690.39a38.23,38.23,0,0,1-38.28,38.17l-457.66-.68a38.23,38.23,0,0,1-38.16-38.29l.81-453.81" fill="#d9d9d9" stroke="#000" stroke-miterlimit="10" stroke-width="2"></path><path d="M896.47,386a36.15,36.15,0,0,1-36.21,36.1l-125,92.74-.88,453.61a38.23,38.23,0,0,0,38.17,38.28l463.54.69A22.46,22.46,0,0,0,1258.57,985l1.07-721.93a22.46,22.46,0,0,0-22.42-22.49l-224.35-.51" fill="#ebf0f5" stroke="#24313e" stroke-miterlimit="10" stroke-width="2"></path><path d="M744.39,529.06h278.4a9.89,9.89,0,0,0,9.89-9.89V250.81a9.89,9.89,0,0,0-9.89-9.89h-7.17a9.89,9.89,0,0,0-7,2.86L737.44,512.14a9.9,9.9,0,0,0-2.93,6.61h0a9.89,9.89,0,0,0,9.88,10.31Z" fill="#455666" opacity="0.33"></path><path d="M735.39,516.61l206.9.31a70.59,70.59,0,0,0,70.7-70.49l.31-206.89a1,1,0,0,0-1.74-.73L734.67,514.87a1,1,0,0,0,.72,1.74Z" fill="#fdfdfd" stroke="#000" stroke-miterlimit="10" stroke-width="2"></path><path d="M1353.92,350.26a38.21,38.21,0,0,1,38.16,38.28l-1,690.39a38.23,38.23,0,0,1-38.28,38.17l-457.66-.68A38.23,38.23,0,0,1,857,1078.14l.81-473.31" fill="#455666" opacity="0.33"></path><path d="M1344.92,338a38.23,38.23,0,0,1,38.17,38.28l-1,690.4a38.21,38.21,0,0,1-38.28,38.16l-457.66-.68A38.23,38.23,0,0,1,848,1065.85L848.77,612" fill="#d9d9d9" stroke="#000" stroke-miterlimit="10" stroke-width="2"></path><path d="M1007.7,481.46a36.15,36.15,0,0,1-36.21,36.1l-125,92.74-.88,453.61a38.23,38.23,0,0,0,38.17,38.28l463.54.69a22.46,22.46,0,0,0,22.49-22.42l1.07-721.94A22.44,22.44,0,0,0,1348.45,336l-224.34-.51" fill="#ebf0f5" stroke="#24313e" stroke-miterlimit="10" stroke-width="2"></path><path d="M855.82,626.1h199.5c38.22,0,69.2-33.24,69.2-74.24v-204c0-5.46,2.67-.46-2.42-.46h-6.68a8.89,8.89,0,0,0-6.48,2.86L849.34,609.19a10.23,10.23,0,0,0-2.73,6.61h0C846.39,621.42,850.58,626.1,855.82,626.1Z" fill="#455666" opacity="0.33"></path><path d="M1327.21,1070.67l55.88-78.62,20.08-293.88-78.56,214.9Z" fill="#455666" opacity="0.33"></path><path d="M847.94,612l206.9.31a70.59,70.59,0,0,0,70.7-70.49l.31-206.9a1,1,0,0,0-1.74-.72L847.22,610.3a1,1,0,0,0,.72,1.7Z" fill="#fdfdfd" stroke="#000" stroke-miterlimit="10" stroke-width="2"></path><rect width="419.05" height="138.93" rx="24.01" transform="matrix(1, 0.003, -0.003, 1, 881.224, 947.888)" fill="#d9d9d9" stroke="#000" stroke-miterlimit="10" stroke-width="2"></rect><rect width="419.44" height="138.92" rx="24.01" transform="matrix(1, 0.003, -0.003, 1, 868.523, 948.093)" fill="#fdfdfd" stroke="#000" stroke-miterlimit="10" stroke-width="2"></rect><path d="M1.5,0A1,1,0,0,1,.774-.325,1,1,0,0,1,.45-1.049,1.516,1.516,0,0,1,.5-1.5L12.24-33.573a1.816,1.816,0,0,1,.649-1,2.016,2.016,0,0,1,1.3-.4h7.394a2.016,2.016,0,0,1,1.3.4,1.816,1.816,0,0,1,.649,1L35.222-1.5l.1.45A1,1,0,0,1,35-.325,1.057,1.057,0,0,1,34.223,0H28.078a1.553,1.553,0,0,1-1.6-1.049l-1.948-5.1H11.191l-1.9,5.1A1.59,1.59,0,0,1,7.644,0ZM22.532-13.339,17.886-26.529,13.239-13.339ZM40.518,0a1.2,1.2,0,0,1-.874-.375,1.2,1.2,0,0,1-.375-.874V-33.723a1.175,1.175,0,0,1,.375-.9,1.241,1.241,0,0,1,.874-.35H54.506q6.395,0,10.067,2.948t3.672,8.593q0,5.6-3.647,8.418T54.506-12.19H48.561V-1.249a1.175,1.175,0,0,1-.375.9,1.3,1.3,0,0,1-.924.35ZM54.257-19.085A4.967,4.967,0,0,0,57.7-20.209a4.241,4.241,0,0,0,1.249-3.322A4.529,4.529,0,0,0,57.779-26.8a4.665,4.665,0,0,0-3.522-1.224H48.411v8.943ZM74.291,0a1.2,1.2,0,0,1-.874-.375,1.2,1.2,0,0,1-.375-.874V-33.723a1.175,1.175,0,0,1,.375-.9,1.241,1.241,0,0,1,.874-.35h6.695a1.3,1.3,0,0,1,.924.35,1.175,1.175,0,0,1,.375.9V-1.249a1.175,1.175,0,0,1-.375.9,1.3,1.3,0,0,1-.924.35Z" transform="translate(890.81 1008.84) rotate(1.146)" fill="#24313e"></path><path d="M15.588.5A18.073,18.073,0,0,1,8.418-.8,11.105,11.105,0,0,1,3.8-4.222,8.019,8.019,0,0,1,2.1-8.793a1,1,0,0,1,.325-.724A1.057,1.057,0,0,1,3.2-9.842H5.745a1.3,1.3,0,0,1,1.3,1,5.917,5.917,0,0,0,2.573,3.6,10.238,10.238,0,0,0,5.97,1.5q4.147,0,6.245-1.474a4.752,4.752,0,0,0,2.1-4.122,3.766,3.766,0,0,0-1.024-2.748,8.707,8.707,0,0,0-3.023-1.849q-2-.8-6-2a30.774,30.774,0,0,1-6.2-2.348,8.978,8.978,0,0,1-3.447-3.1A8.657,8.657,0,0,1,3.1-26.029a8.367,8.367,0,0,1,1.474-4.846,9.8,9.8,0,0,1,4.222-3.372,16,16,0,0,1,6.545-1.224A15.051,15.051,0,0,1,22.032-34.1a10.782,10.782,0,0,1,4.247,3.472,8.044,8.044,0,0,1,1.549,4.2,1,1,0,0,1-.275.7,1,1,0,0,1-.774.3H24.131a1.2,1.2,0,0,1-1.3-.949,4.961,4.961,0,0,0-2.348-3.472,9.043,9.043,0,0,0-5.146-1.374,9.542,9.542,0,0,0-5.346,1.3,4.323,4.323,0,0,0-1.948,3.847,4.2,4.2,0,0,0,.924,2.8,7.552,7.552,0,0,0,2.823,1.923,48.385,48.385,0,0,0,5.546,1.874,37.13,37.13,0,0,1,6.695,2.373,9.083,9.083,0,0,1,3.647,3.048,8.251,8.251,0,0,1,1.2,4.621,8.559,8.559,0,0,1-3.6,7.294Q21.683.5,15.588.5ZM36.571,0a1.117,1.117,0,0,1-.824-.325,1.117,1.117,0,0,1-.325-.824V-33.773a1.181,1.181,0,0,1,.325-.874,1.117,1.117,0,0,1,.824-.325h12.69q5.645,0,8.893,2.748T61.4-24.281q0,5.2-3.222,7.919t-8.918,2.723H40.418v12.49a1.076,1.076,0,0,1-.35.824A1.2,1.2,0,0,1,39.219,0Zm12.44-17.836a8.128,8.128,0,0,0,5.521-1.649,6.049,6.049,0,0,0,1.873-4.8A6.171,6.171,0,0,0,54.556-29.1q-1.849-1.674-5.546-1.674H40.368v12.94Z" transform="translate(889.921 1053.3) rotate(1.146)" fill="#24313e"></path><path d="M5.5,0a1.117,1.117,0,0,1-.824-.325,1.117,1.117,0,0,1-.325-.824V-33.773a1.181,1.181,0,0,1,.325-.874,1.117,1.117,0,0,1,.824-.325H26.129a1.117,1.117,0,0,1,.824.325,1.181,1.181,0,0,1,.325.874v1.9a1.168,1.168,0,0,1-.3.824,1.1,1.1,0,0,1-.849.325H9.143v10.941H25.03a1.117,1.117,0,0,1,.824.325,1.181,1.181,0,0,1,.325.874v1.849a1.117,1.117,0,0,1-.325.824,1.117,1.117,0,0,1-.824.325H9.143V-4.247H26.529a1.149,1.149,0,0,1,.849.3,1.149,1.149,0,0,1,.3.849v1.948a1.117,1.117,0,0,1-.325.824A1.117,1.117,0,0,1,26.529,0Z" transform="translate(953.071 1054.563) rotate(1.146)" fill="#24313e"></path><path d="M16.936.5Q10.242.5,6.77-3.1T3.048-13.04Q3-14.388,3-17.436q0-3.1.05-4.5.25-6.295,3.747-9.917t10.142-3.622A16.511,16.511,0,0,1,24.48-33.9a11.543,11.543,0,0,1,4.7,4.122,11.189,11.189,0,0,1,1.749,5.446v.1a.851.851,0,0,1-.325.674,1.094,1.094,0,0,1-.724.275H27.128q-1,0-1.249-1.149A8.332,8.332,0,0,0,22.832-29.7a10.176,10.176,0,0,0-5.9-1.524q-8.593,0-8.893,9.542-.05,1.349-.05,4.147t.05,4.247q.3,9.542,8.893,9.542a10.3,10.3,0,0,0,5.92-1.524q2.223-1.524,3.023-5.271a1.623,1.623,0,0,1,.45-.9,1.209,1.209,0,0,1,.8-.25h2.748a1.16,1.16,0,0,1,.774.275.779.779,0,0,1,.275.724,11.26,11.26,0,0,1-1.749,5.5,11.543,11.543,0,0,1-4.7,4.122A16.511,16.511,0,0,1,16.936.5ZM38.769,0a1.117,1.117,0,0,1-.824-.325,1.117,1.117,0,0,1-.325-.824V-33.823a1.117,1.117,0,0,1,.325-.824,1.117,1.117,0,0,1,.824-.325h2.648a1.117,1.117,0,0,1,.824.325,1.117,1.117,0,0,1,.325.824V-1.149a1.117,1.117,0,0,1-.325.824A1.117,1.117,0,0,1,41.417,0ZM52.408,0a1.117,1.117,0,0,1-.824-.325,1.117,1.117,0,0,1-.325-.824V-33.773a1.181,1.181,0,0,1,.325-.874,1.117,1.117,0,0,1,.824-.325H72.792a1.181,1.181,0,0,1,.874.325,1.181,1.181,0,0,1,.325.874v2a1.117,1.117,0,0,1-.325.824,1.181,1.181,0,0,1-.874.325H56.105v11.641H71.793a1.181,1.181,0,0,1,.874.325,1.181,1.181,0,0,1,.325.874v2a1.076,1.076,0,0,1-.35.824,1.2,1.2,0,0,1-.849.325H56.105V-1.149a1.076,1.076,0,0,1-.35.824A1.2,1.2,0,0,1,54.906,0ZM81.585,0a1.117,1.117,0,0,1-.824-.325,1.117,1.117,0,0,1-.325-.824V-33.823a1.117,1.117,0,0,1,.325-.824,1.117,1.117,0,0,1,.824-.325h2.648a1.117,1.117,0,0,1,.824.325,1.117,1.117,0,0,1,.325.824V-1.149a1.117,1.117,0,0,1-.325.824A1.117,1.117,0,0,1,84.233,0Z" transform="translate(983.001 1055.162) rotate(1.146)" fill="#24313e"></path><path d="M16.936.5Q10.242.5,6.77-3.1T3.048-13.04Q3-14.388,3-17.436q0-3.1.05-4.5.25-6.295,3.747-9.917t10.142-3.622A16.511,16.511,0,0,1,24.48-33.9a11.543,11.543,0,0,1,4.7,4.122,11.189,11.189,0,0,1,1.749,5.446v.1a.851.851,0,0,1-.325.674,1.094,1.094,0,0,1-.724.275H27.128q-1,0-1.249-1.149A8.332,8.332,0,0,0,22.832-29.7a10.176,10.176,0,0,0-5.9-1.524q-8.593,0-8.893,9.542-.05,1.349-.05,4.147t.05,4.247q.3,9.542,8.893,9.542a10.3,10.3,0,0,0,5.92-1.524q2.223-1.524,3.023-5.271a1.623,1.623,0,0,1,.45-.9,1.209,1.209,0,0,1,.8-.25h2.748a1.16,1.16,0,0,1,.774.275.779.779,0,0,1,.275.724,11.26,11.26,0,0,1-1.749,5.5,11.543,11.543,0,0,1-4.7,4.122A16.511,16.511,0,0,1,16.936.5Z" transform="translate(1072.741 1056.956) rotate(1.146)" fill="#24313e"></path><path d="M2,0a.959.959,0,0,1-.7-.3A.959.959,0,0,1,1-1a2.011,2.011,0,0,1,.05-.55l12.39-32.324a1.555,1.555,0,0,1,1.6-1.1h3.4a1.555,1.555,0,0,1,1.6,1.1L32.374-1.549l.1.55a.959.959,0,0,1-.3.7.959.959,0,0,1-.7.3H28.927a1.212,1.212,0,0,1-.849-.275,1.39,1.39,0,0,1-.4-.575L24.93-7.944H8.543L5.8-.849a1.321,1.321,0,0,1-.425.575A1.232,1.232,0,0,1,4.546,0ZM23.481-12.24,16.737-29.976,9.992-12.24Z" transform="translate(1105.661 1057.615) rotate(1.146)" fill="#24313e"></path><path d="M13.139,0a1.117,1.117,0,0,1-.824-.325,1.117,1.117,0,0,1-.325-.824V-30.526H2.4a1.117,1.117,0,0,1-.824-.325,1.117,1.117,0,0,1-.325-.824v-2.1a1.2,1.2,0,0,1,.325-.849,1.076,1.076,0,0,1,.824-.35H26.479a1.181,1.181,0,0,1,.874.325,1.181,1.181,0,0,1,.325.874v2.1a1.076,1.076,0,0,1-.35.824,1.2,1.2,0,0,1-.849.325H16.936V-1.149a1.076,1.076,0,0,1-.35.824A1.2,1.2,0,0,1,15.737,0ZM34.422,0A1.117,1.117,0,0,1,33.6-.325a1.117,1.117,0,0,1-.325-.824V-33.823a1.117,1.117,0,0,1,.325-.824,1.117,1.117,0,0,1,.824-.325H37.07a1.117,1.117,0,0,1,.824.325,1.117,1.117,0,0,1,.325.824V-1.149a1.117,1.117,0,0,1-.325.824A1.117,1.117,0,0,1,37.07,0ZM59.5.5Q52.958.5,49.385-2.923T45.613-13.239q-.05-1.5-.05-4.247t.05-4.2q.2-6.745,3.9-10.267T59.5-35.472q6.245,0,9.942,3.522t3.9,10.267q.1,2.9.1,4.2,0,1.249-.1,4.247-.2,6.894-3.772,10.317T59.5.5Zm0-4.247a8.408,8.408,0,0,0,6.295-2.4q2.348-2.4,2.548-7.344.1-3,.1-4,0-1.1-.1-4-.2-4.946-2.573-7.344a8.428,8.428,0,0,0-6.27-2.4,8.492,8.492,0,0,0-6.32,2.4q-2.373,2.4-2.573,7.344-.05,1.449-.05,4,0,2.5.05,4,.2,4.946,2.573,7.344A8.492,8.492,0,0,0,59.5-3.747ZM81.884,0a1.117,1.117,0,0,1-.824-.325,1.117,1.117,0,0,1-.325-.824V-33.773a1.181,1.181,0,0,1,.325-.874,1.117,1.117,0,0,1,.824-.325h2.3a1.274,1.274,0,0,1,1.249.7l16.587,25.48v-24.98a1.181,1.181,0,0,1,.325-.874,1.117,1.117,0,0,1,.824-.325h2.4a1.181,1.181,0,0,1,.874.325,1.181,1.181,0,0,1,.325.874V-1.2a1.2,1.2,0,0,1-.325.849,1.076,1.076,0,0,1-.824.35h-2.4a1.369,1.369,0,0,1-1.2-.7L85.482-25.929v24.78a1.076,1.076,0,0,1-.35.824A1.2,1.2,0,0,1,84.283,0Z" transform="translate(1135.441 1058.21) rotate(1.146)" fill="#24313e"></path><path d="M1553.26,362,1411.74,932.11a4.35,4.35,0,0,1-5.35,3.16l-78.2-20.79a4.36,4.36,0,0,1-3.11-5.27l141.51-570.13a4.36,4.36,0,0,1,5.35-3.16l78.2,20.79a4.37,4.37,0,0,1,3.12,5.29Z" fill="#0c7ff2" stroke="#24313e" stroke-miterlimit="10" stroke-width="2"></path><path d="M1354.65,1025.68l-27.44,44.99-.88-53.36Z" fill="#24313e" stroke="#031439" stroke-miterlimit="10" stroke-width="2"></path><path d="M1409.63,935.57l-54.98,90.11-28.32-8.37-1.72-104.24Z" fill="#fdfdfd" stroke="#000" stroke-miterlimit="10" stroke-width="2"></path><path d="M1486.54,239.78h102.58v89.54H1486.54a23.16,23.16,0,0,1-23.16-23.16V262.93a23.16,23.16,0,0,1,23.16-23.16Z" transform="matrix(-0.241, 0.971, -0.971, -0.241, 2170.09, -1128.22)" fill="#24313e" stroke="#031439" stroke-miterlimit="10" stroke-width="2"></path><path d="M1350.61,908.3l-20.55-5.01,141.12-564.2,20.55,5.02Z" fill="#ebf0f5" opacity="0.21"></path><path d="M1485.66,334h0a10.59,10.59,0,0,1-7.77-12.77L1497,242.61a10.58,10.58,0,0,1,12.79-7.78h0a10.56,10.56,0,0,1,7.76,12.76l-19.06,78.65a10.59,10.59,0,0,1-12.83,7.76Z" fill="#ebf0f5" opacity="0.21"></path><path d="M1562.38,228.74,1388.32,929.93l-61.11,140.74,82.42-135.1,169.65-678.78S1586.87,234.81,1562.38,228.74Z" opacity="0.21"></path></svg>