<svg xmlns="http://www.w3.org/2000/svg" width="443.985" height="266" viewBox="0 0 443.985 266"><g transform="translate(-0.216 -0.004)"><rect width="443.985" height="266" transform="translate(0.216 0.004)" fill="none"></rect><path d="M794.718,184.231a73.89,73.89,0,0,0-52.607-34.956,1.847,1.847,0,0,1-1.573-2.057l2.063-17.531a1.847,1.847,0,0,1,2.109-1.623,95.008,95.008,0,0,1,68.53,45.507,1.863,1.863,0,0,1-.674,2.577l-15.337,8.732a1.847,1.847,0,0,1-2.509-.652Z" transform="translate(-512.458 -88.62)" fill="#24313e"></path><path d="M869.736,271.744l32.327,27.693a1.847,1.847,0,0,0,3.036-1.069l7.835-41.831a1.847,1.847,0,0,0-2.463-2.1l-40.147,14.135a1.847,1.847,0,0,0-.587,3.168Z" transform="translate(-601.429 -176.021)" fill="#24313e"></path><path d="M424.811,237.38,407.262,235.5a1.847,1.847,0,0,1-1.647-2.078,95.005,95.005,0,0,1,48.853-71.339,1.847,1.847,0,0,1,2.533.779l8.14,15.665a1.866,1.866,0,0,1-.763,2.49,73.392,73.392,0,0,0-37.526,54.75,1.863,1.863,0,0,1-2.045,1.616Z" transform="translate(-280.65 -112.019)" fill="#24313e"></path><path d="M559.639,170.872l28.941-31.2a1.847,1.847,0,0,0-.954-3.082l-41.48-9.47a1.847,1.847,0,0,0-2.192,2.361L556.5,170.151a1.847,1.847,0,0,0,3.141.72Z" transform="translate(-376.346 -87.947)" fill="#24313e"></path><path d="M513.9,608.284a94.893,94.893,0,0,1-71.012-47.317,1.847,1.847,0,0,1,.733-2.546l15.508-8.432a1.863,1.863,0,0,1,2.5.717,73.53,73.53,0,0,0,54.494,36.329,1.847,1.847,0,0,1,1.623,2.029l-1.78,17.565a1.847,1.847,0,0,1-2.069,1.657Z" transform="translate(-306.292 -380.503)" fill="#24313e"></path><path d="M451.736,488.55l-31.757-28.324a1.847,1.847,0,0,0-3.057,1.007l-8.664,41.66a1.847,1.847,0,0,0,2.4,2.155l40.422-13.337a1.847,1.847,0,0,0,.656-3.162Z" transform="translate(-282.458 -318.197)" fill="#24313e"></path><path d="M837.3,531l-8.494-15.474a1.866,1.866,0,0,1,.7-2.506,73.481,73.481,0,0,0,36.141-55.03,1.866,1.866,0,0,1,2.021-1.647l17.577,1.613a1.848,1.848,0,0,1,1.678,2.05,94.99,94.99,0,0,1-47.077,71.716,1.847,1.847,0,0,1-2.549-.72Z" transform="translate(-573.406 -315.839)" fill="#24313e"></path><path d="M767.45,593.759l-28.205,31.869a1.847,1.847,0,0,0,1.022,3.054l41.7,8.5a1.847,1.847,0,0,0,2.134-2.412l-13.5-40.365a1.847,1.847,0,0,0-3.155-.643Z" transform="translate(-511.243 -410.509)" fill="#24313e"></path><path d="M789.042,184.229a73.891,73.891,0,0,0-52.613-34.956,1.847,1.847,0,0,1-1.576-2.057l2.063-17.531a1.847,1.847,0,0,1,2.112-1.623,94.991,94.991,0,0,1,68.537,45.507,1.847,1.847,0,0,1-.671,2.577l-15.359,8.732a1.847,1.847,0,0,1-2.492-.649Z" transform="translate(-508.521 -88.62)" fill="#ebf0f5" stroke="#24313e" stroke-miterlimit="10" stroke-width="2"></path><path d="M864.088,271.761l32.31,27.693a1.847,1.847,0,0,0,3.039-1.069l7.833-41.831a1.847,1.847,0,0,0-2.445-2.1l-40.145,14.136a1.847,1.847,0,0,0-.591,3.168Z" transform="translate(-597.52 -176.038)" fill="#ebf0f5" stroke="#24313e" stroke-miterlimit="10" stroke-width="2"></path><path d="M419.161,237.38,401.612,235.5a1.847,1.847,0,0,1-1.647-2.078,95,95,0,0,1,48.853-71.339,1.847,1.847,0,0,1,2.534.779l8.125,15.665a1.847,1.847,0,0,1-.763,2.49,73.389,73.389,0,0,0-37.505,54.75,1.866,1.866,0,0,1-2.047,1.616Z" transform="translate(-276.739 -112.019)" fill="#ebf0f5" stroke="#24313e" stroke-miterlimit="10" stroke-width="2"></path><path d="M553.987,170.872l28.944-31.2a1.847,1.847,0,0,0-.949-3.079L540.5,127.12a1.847,1.847,0,0,0-2.192,2.358l12.543,40.671a1.847,1.847,0,0,0,3.141.72Z" transform="translate(-372.437 -87.947)" fill="#ebf0f5" stroke="#24313e" stroke-miterlimit="10" stroke-width="2"></path><path d="M508.252,608.286a94.887,94.887,0,0,1-71.012-47.317,1.847,1.847,0,0,1,.729-2.546l15.508-8.432a1.868,1.868,0,0,1,2.506.717,73.524,73.524,0,0,0,54.494,36.329,1.847,1.847,0,0,1,1.623,2.029l-1.779,17.564a1.847,1.847,0,0,1-2.069,1.657Z" transform="translate(-302.38 -380.505)" fill="#ebf0f5" stroke="#24313e" stroke-miterlimit="10" stroke-width="2"></path><path d="M446.086,488.55l-31.757-28.324a1.847,1.847,0,0,0-3.057,1.007l-8.664,41.66a1.847,1.847,0,0,0,2.4,2.155L445.43,491.7a1.847,1.847,0,0,0,.656-3.153Z" transform="translate(-278.547 -318.197)" fill="#ebf0f5" stroke="#24313e" stroke-miterlimit="10" stroke-width="2"></path><path d="M831.64,531l-8.5-15.474a1.847,1.847,0,0,1,.7-2.506A73.481,73.481,0,0,0,860,457.991a1.863,1.863,0,0,1,2.016-1.647l17.574,1.613a1.848,1.848,0,0,1,1.681,2.05,94.991,94.991,0,0,1-47.081,71.716,1.847,1.847,0,0,1-2.549-.72Z" transform="translate(-569.481 -315.839)" fill="#ebf0f5" stroke="#24313e" stroke-miterlimit="10" stroke-width="2"></path><path d="M761.8,593.759l-28.2,31.869a1.847,1.847,0,0,0,1.019,3.054l41.7,8.5a1.847,1.847,0,0,0,2.136-2.412l-13.5-40.365a1.847,1.847,0,0,0-3.156-.643Z" transform="translate(-507.331 -410.509)" fill="#ebf0f5" stroke="#24313e" stroke-miterlimit="10" stroke-width="2"></path><rect width="115.312" height="43.826" rx="15.03" transform="translate(41.5 27.652)" fill="#24313e"></rect><rect width="115.312" height="43.826" rx="15.03" transform="translate(36.245 27.652)" fill="#0062ff" stroke="#24313e" stroke-miterlimit="10" stroke-width="2"></rect><g transform="translate(42.221 35.602)"><path d="M5.891-14.7H1.743v9.584H3.96V-7.759H5.891c2.56,0,4.162-1.328,4.162-3.464S8.452-14.7,5.891-14.7ZM5.768-9.566H3.961v-3.325H5.768c1.355,0,2.04.616,2.04,1.67C7.808-10.182,7.126-9.566,5.768-9.566Z" transform="translate(-1.743 15.091)" fill="#fff"></path><path d="M10.232-5.116,8.08-8.2a3.116,3.116,0,0,0,1.973-3.026c0-2.151-1.6-3.478-4.162-3.478H1.743v9.584H3.96V-7.789H6L7.849-5.116ZM7.808-11.222c0,1.041-.682,1.673-2.04,1.673H3.961V-12.89H5.768C7.126-12.893,7.808-12.277,7.808-11.222Z" transform="translate(8.023 15.091)" fill="#fff"></path><path d="M5.774-4.8a4.723,4.723,0,0,0,4.994-4.72,4.723,4.723,0,0,0-4.994-4.72A4.723,4.723,0,0,0,.78-9.52,4.723,4.723,0,0,0,5.774-4.8Zm0-1.8a2.785,2.785,0,0,1-2.066-.837,2.785,2.785,0,0,1-.79-2.084,2.785,2.785,0,0,1,.79-2.084,2.785,2.785,0,0,1,2.066-.837A2.785,2.785,0,0,1,7.84-11.6,2.785,2.785,0,0,1,8.63-9.52a2.785,2.785,0,0,1-.79,2.084A2.785,2.785,0,0,1,5.774-6.6Z" transform="translate(18.303 14.279)" fill="#fff"></path><path d="M5.891-14.7H1.743v9.584H3.96V-7.759H5.891c2.56,0,4.162-1.328,4.162-3.464S8.452-14.7,5.891-14.7ZM5.768-9.566H3.961v-3.325H5.768c1.355,0,2.04.616,2.04,1.67C7.808-10.182,7.126-9.566,5.768-9.566Z" transform="translate(29.45 15.091)" fill="#fff"></path><path d="M5.774-4.8a4.723,4.723,0,0,0,4.994-4.72,4.723,4.723,0,0,0-4.994-4.72A4.723,4.723,0,0,0,.78-9.52,4.723,4.723,0,0,0,5.774-4.8Zm0-1.8a2.785,2.785,0,0,1-2.066-.837,2.785,2.785,0,0,1-.79-2.084,2.785,2.785,0,0,1,.79-2.084,2.785,2.785,0,0,1,2.066-.837A2.785,2.785,0,0,1,7.84-11.6,2.785,2.785,0,0,1,8.63-9.52a2.785,2.785,0,0,1-.79,2.084A2.785,2.785,0,0,1,5.774-6.6Z" transform="translate(39.677 14.279)" fill="#fff"></path><path d="M7.9-7.343a3.521,3.521,0,0,1-1.725.411A2.958,2.958,0,0,1,3.942-7.78,2.958,2.958,0,0,1,3.063-10a2.951,2.951,0,0,1,.886-2.23A2.951,2.951,0,0,1,6.2-13.06a3.243,3.243,0,0,1,2.477,1.082L10.1-13.293a5.109,5.109,0,0,0-4.013-1.662A4.943,4.943,0,0,0,.815-10a4.931,4.931,0,0,0,5.23,4.955A6.613,6.613,0,0,0,9.92-6.264v-3.886H7.9Z" transform="translate(51.178 15.182)" fill="#fff"></path><path d="M8.231-5.116h2.33L6.273-14.7H4.083L-.189-5.116H2.086L2.933-7.17h4.45ZM3.645-8.854l1.52-3.669,1.52,3.669Z" transform="translate(61.956 15.091)" fill="#fff"></path><path d="M3-4.873H5.113v-7.406H8.034V-14H.08v1.721H3Z" transform="translate(71.266 14.196)" fill="#fff"></path><path d="M1.577-4.629H3.584V-13.3H1.577Z" transform="translate(79.075 13.3)" fill="#fff"></path><path d="M8.342-14.7v5.819L3.578-14.7H1.743v9.584H3.932v-5.819l4.78,5.819h1.821V-14.7Z" transform="translate(83.46 15.091)" fill="#fff"></path><path d="M7.9-7.343a3.521,3.521,0,0,1-1.725.411A2.958,2.958,0,0,1,3.942-7.78,2.958,2.958,0,0,1,3.063-10a2.951,2.951,0,0,1,.886-2.23A2.951,2.951,0,0,1,6.2-13.06a3.243,3.243,0,0,1,2.477,1.082L10.1-13.293a5.109,5.109,0,0,0-4.013-1.662A4.943,4.943,0,0,0,.815-10a4.931,4.931,0,0,0,5.23,4.955A6.613,6.613,0,0,0,9.92-6.264v-3.886H7.9Z" transform="translate(94.777 15.182)" fill="#fff"></path><path d="M6.008-5.038A4.924,4.924,0,0,0,9.965-6.749L8.541-8.064A3.054,3.054,0,0,1,6.129-6.927a2.94,2.94,0,0,1-2.206-.858,2.94,2.94,0,0,1-.858-2.206A2.94,2.94,0,0,1,3.923-12.2a2.94,2.94,0,0,1,2.206-.858,3.083,3.083,0,0,1,2.412,1.123l1.424-1.314a4.948,4.948,0,0,0-3.943-1.7,4.924,4.924,0,0,0-5.2,4.955A4.916,4.916,0,0,0,6.008-5.038Z" transform="translate(22.94 32.335)" fill="#fff"></path><path d="M8.315-14.7v3.781H3.962V-14.7H1.745v9.584H3.962V-9.046H8.315v3.929h2.217V-14.7ZM19.967-5.116h2.327L18.009-14.7H15.818L11.547-5.116h2.273l.848-2.054h4.45ZM15.38-8.854l1.52-3.669,1.52,3.669Z" transform="translate(32.48 32.249)" fill="#fff"></path><path d="M7.945-14.086v5.542L3.407-14.086H1.66v9.127H3.746V-10.5L8.3-4.959h1.734v-9.127ZM18.363-6.993A3.353,3.353,0,0,1,16.72-6.6,2.817,2.817,0,0,1,14.6-7.41a2.817,2.817,0,0,1-.836-2.113,2.81,2.81,0,0,1,.843-2.125,2.81,2.81,0,0,1,2.143-.8,3.089,3.089,0,0,1,2.36,1.03l1.356-1.252a4.866,4.866,0,0,0-3.82-1.578,4.708,4.708,0,0,0-5.02,4.72A4.7,4.7,0,0,0,16.6-4.8a6.3,6.3,0,0,0,3.69-1.16v-3.7h-1.93Z" transform="translate(53.972 31.44)" fill="#fff"></path><path d="M3.947-6.9V-9.113H8.4v-1.726H3.947V-12.92H8.986V-14.7H1.743v9.584H9.164V-6.9Z" transform="translate(75.432 32.249)" fill="#fff"></path></g><rect width="67.04" height="33.438" rx="15.03" transform="translate(294.87 25.06)" fill="#24313e"></rect><rect width="67.04" height="33.438" rx="15.03" transform="translate(291.817 25.06)" fill="#0062ff" stroke="#24313e" stroke-miterlimit="10" stroke-width="2"></rect><path d="M8.362-9.619a2.194,2.194,0,0,0,1.213-2.008C9.575-13.048,8.4-14,6.119-14H1.66v9.127H6.38c2.4,0,3.651-.913,3.651-2.49A2.254,2.254,0,0,0,8.362-9.619Zm-2.5-2.79c1.03,0,1.591.352,1.591,1.069s-.561,1.082-1.591,1.082h-2.1v-2.151Zm.365,5.946H3.759V-8.719H6.224c1.1,0,1.682.365,1.682,1.134S7.319-6.463,6.224-6.463ZM15.69-4.716c2.595,0,4.133-1.486,4.133-4.173V-14H17.737v5.033c0,1.734-.743,2.451-2.034,2.451s-2.034-.717-2.034-2.451V-14H11.557v5.111C11.557-6.2,13.1-4.716,15.69-4.716Zm6.22-.156h2.112V-14H21.91Zm4.277,0h6.689V-6.594H28.3V-14H26.187Zm7.747,0H38.08c2.986,0,5.033-1.8,5.033-4.564S41.066-14,38.08-14H33.933Zm2.111-1.734v-5.659h1.93a2.724,2.724,0,0,1,3,2.83,2.724,2.724,0,0,1-3,2.83Z" transform="translate(302.304 49.773)" fill="#fff"></path><rect width="74.284" height="30.773" rx="10.17" transform="translate(292.386 207.627)" fill="#24313e"></rect><rect width="74.284" height="30.773" rx="10.17" transform="translate(288.999 207.627)" fill="#0062ff" stroke="#24313e" stroke-miterlimit="10" stroke-width="2"></rect><path d="M3-4.957H5.113v-7.406H8.034v-1.721H.08v1.721H3Zm8.267-1.7V-8.764h4.238v-1.643H11.268v-1.982h4.8v-1.7h-6.9v9.127h7.067v-1.7ZM21.047-4.8c2.608,0,3.873-1.3,3.873-2.83,0-3.351-5.307-2.191-5.307-3.873,0-.574.482-1.043,1.734-1.043a5.155,5.155,0,0,1,2.53.717l.652-1.6a6.123,6.123,0,0,0-3.169-.808c-2.595,0-3.847,1.291-3.847,2.843,0,3.39,5.307,2.217,5.307,3.925,0,.561-.509.978-1.76.978a5.369,5.369,0,0,1-3.012-.952l-.717,1.591A6.506,6.506,0,0,0,21.046-4.8Zm7.211-.156H30.37v-7.406h2.921v-1.721H25.337v1.721h2.921Z" transform="translate(309.399 231.841)" fill="#fff"></path><rect width="82.369" height="30.055" rx="10.17" transform="translate(77.284 207.12)" fill="#24313e"></rect><rect width="82.369" height="30.055" rx="10.17" transform="translate(73.532 207.12)" fill="#0062ff" stroke="#24313e" stroke-miterlimit="10" stroke-width="2"></rect><path d="M1.66-4.956H5.806c2.986,0,5.033-1.8,5.033-4.564s-2.047-4.564-5.033-4.564H1.66ZM3.772-6.69v-5.659H5.7a2.724,2.724,0,0,1,3,2.83,2.724,2.724,0,0,1-3,2.83Zm10.757.039V-8.764h4.238v-1.643H14.53v-1.982h4.8v-1.7h-6.9v9.127H19.5v-1.7Zm10.73-7.432H21.31v9.127h2.112V-7.473h1.839c2.438,0,3.964-1.265,3.964-3.3S27.7-14.084,25.26-14.084Zm-.117,4.89H23.421v-3.169h1.721c1.291,0,1.943.587,1.943,1.591S26.433-9.194,25.142-9.194Zm5.452,4.238h6.689V-6.677H32.706v-7.406H30.594ZM42.475-4.8a4.723,4.723,0,0,0,4.994-4.72,4.723,4.723,0,0,0-4.994-4.72,4.723,4.723,0,0,0-4.994,4.72A4.723,4.723,0,0,0,42.475-4.8Zm0-1.8a2.785,2.785,0,0,1-2.066-.837,2.785,2.785,0,0,1-.79-2.084,2.785,2.785,0,0,1,.79-2.084,2.785,2.785,0,0,1,2.066-.837,2.785,2.785,0,0,1,2.065.837,2.785,2.785,0,0,1,.79,2.084,2.785,2.785,0,0,1-.79,2.084,2.785,2.785,0,0,1-2.065.837Zm13.6-7.485H54l-2.438,4.055-2.438-4.055H46.885l3.534,5.868v3.26h2.112V-8.19Z" transform="translate(85.309 232.11)" fill="#fff"></path></g></svg>