<svg xmlns="http://www.w3.org/2000/svg" xmlns:xlink="http://www.w3.org/1999/xlink" id="Layer_1" x="0px" y="0px" width="681px" height="408px" viewBox="0 0 681 408" style="enable-background:new 0 0 681 408;" xml:space="preserve"><style type="text/css">	.st0{fill:none;}	.st1{fill:#24313E;}	.st2{fill:#EBF0F5;stroke:#24313E;stroke-width:2;stroke-miterlimit:10;}	.st3{fill:#0062FF;stroke:#24313E;stroke-width:2;stroke-miterlimit:10;}	.st4{fill:#FFFFFF;}	.st5{enable-background:new    ;}</style><g transform="translate(-0.216 -0.004)">	<rect x="0.2" y="0" class="st0" width="681" height="408"></rect>	<path class="st1" d="M432.8,146.6c-17.5-29-47.1-48.7-80.7-53.6c-1.5-0.2-2.6-1.6-2.4-3.2l3.2-26.9c0.2-1.6,1.6-2.7,3.1-2.5h0.1  c43.8,6.1,82.5,31.8,105.1,69.8c0.8,1.4,0.4,3.1-1,3.9c0,0,0,0-0.1,0l-23.5,13.4C435.3,148.4,433.6,148,432.8,146.6L432.8,146.6z"></path>	<path class="st1" d="M411.4,146.8l49.6,42.5c1.2,1,3,0.9,4-0.3c0.3-0.4,0.6-0.9,0.7-1.4l12-64.2c0.3-1.5-0.7-3-2.2-3.3  c-0.5-0.1-1.1-0.1-1.6,0.1L412.3,142c-1.5,0.5-2.3,2.1-1.8,3.6C410.7,146.1,411,146.5,411.4,146.8L411.4,146.8z"></path>	<path class="st1" d="M221,192.3l-26.9-2.9c-1.6-0.2-2.7-1.5-2.5-3.1v-0.1c6-46.4,33.8-87.1,74.9-109.4c1.4-0.8,3.1-0.3,3.8,1.1  c0,0,0,0,0,0.1l12.5,24c0.7,1.4,0.2,3.1-1.2,3.8c-31.5,17.2-52.8,48.4-57.6,84C223.9,191.3,222.5,192.4,221,192.3L221,192.3z"></path>	<path class="st1" d="M281,127.2l44.4-47.9c1.1-1.1,1-2.9-0.1-4c-0.4-0.4-0.9-0.6-1.4-0.7l-63.6-14.5c-1.5-0.4-3.1,0.6-3.4,2.1  c-0.1,0.5-0.1,1,0.1,1.5l19.2,62.4c0.4,1.5,2,2.4,3.5,1.9C280.2,127.9,280.7,127.6,281,127.2z"></path>	<path class="st1" d="M318.3,349.4c-45.7-5.6-86.2-32.5-108.9-72.6c-0.8-1.4-0.3-3.1,1.1-3.9c0,0,0,0,0.1,0l23.8-12.9  c1.4-0.7,3.1-0.2,3.8,1.1c17.6,30.6,48.5,51.3,83.6,55.7c1.5,0.2,2.7,1.6,2.5,3.1l-2.7,26.9C321.4,348.4,320,349.5,318.3,349.4  C318.4,349.4,318.4,349.4,318.3,349.4L318.3,349.4z"></path>	<path class="st1" d="M259.5,261.3l-48.7-43.4c-1.2-1.1-2.9-1-4,0.2c-0.3,0.4-0.6,0.9-0.7,1.4l-13.3,63.9c-0.3,1.5,0.6,3,2.1,3.4  c0.5,0.1,1,0.1,1.5-0.1l62-20.5c1.5-0.5,2.3-2.1,1.9-3.5C260.2,262.1,259.9,261.6,259.5,261.3L259.5,261.3z"></path>	<path class="st1" d="M404.7,330l-13-23.7c-0.7-1.4-0.3-3.1,1.1-3.8c30.8-17.8,51.3-49.1,55.4-84.4c0.2-1.5,1.6-2.7,3.1-2.5l27,2.5  c1.6,0.1,2.7,1.5,2.6,3.1v0.1c-5.2,46.1-32,86.9-72.2,110C407.2,331.9,405.5,331.4,404.7,330C404.7,330.1,404.7,330,404.7,330  L404.7,330z"></path>	<path class="st1" d="M392.9,281.1L349.6,330c-1.1,1.2-1,3,0.2,4c0.4,0.3,0.9,0.6,1.4,0.7l64,13c1.5,0.3,3-0.6,3.4-2.2  c0.1-0.5,0.1-1-0.1-1.5l-20.7-61.9c-0.5-1.5-2.1-2.3-3.6-1.8C393.6,280.4,393.2,280.7,392.9,281.1L392.9,281.1z"></path>	<path class="st2" d="M430.2,146.6c-17.5-29-47.1-48.7-80.7-53.6c-1.5-0.2-2.6-1.6-2.4-3.2l3.2-26.9c0.2-1.6,1.6-2.7,3.1-2.5h0.1  c43.8,6.1,82.5,31.8,105.1,69.8c0.8,1.3,0.4,3.1-0.9,3.9c0,0-0.1,0-0.1,0.1L434,147.6C432.6,148.4,431,148,430.2,146.6z"></path>	<path class="st2" d="M408.8,146.8l49.6,42.5c1.2,1,3,0.9,4-0.3c0.3-0.4,0.6-0.9,0.7-1.4l12-64.2c0.3-1.5-0.7-3-2.2-3.3  c-0.5-0.1-1-0.1-1.5,0.1L409.7,142c-1.5,0.5-2.3,2.1-1.8,3.6C408.1,146,408.4,146.5,408.8,146.8L408.8,146.8z"></path>	<path class="st2" d="M218.3,192.3l-26.9-2.9c-1.6-0.2-2.7-1.5-2.5-3.1v-0.1c6-46.4,33.8-87.1,74.9-109.4c1.4-0.8,3.1-0.3,3.8,1.1  c0,0,0,0,0,0.1l12.5,24c0.7,1.4,0.2,3.1-1.2,3.8c-31.5,17.2-52.8,48.4-57.5,84C221.3,191.3,219.9,192.4,218.3,192.3L218.3,192.3z"></path>	<path class="st2" d="M278.4,127.2l44.4-47.9c1.1-1.1,1-2.9-0.1-4c-0.4-0.4-0.8-0.6-1.4-0.7l-63.6-14.5c-1.5-0.4-3.1,0.6-3.4,2.1  c-0.1,0.5-0.1,1,0.1,1.5l19.2,62.4c0.4,1.5,2,2.4,3.5,1.9C277.6,127.9,278,127.6,278.4,127.2L278.4,127.2z"></path>	<path class="st2" d="M315.7,349.4c-45.8-5.6-86.2-32.5-108.9-72.6c-0.8-1.4-0.3-3.1,1-3.9c0,0,0,0,0.1,0l23.8-12.9  c1.4-0.7,3.1-0.2,3.8,1.1c17.6,30.6,48.5,51.3,83.6,55.7c1.5,0.2,2.7,1.6,2.5,3.1l-2.7,26.9C318.7,348.4,317.3,349.5,315.7,349.4  L315.7,349.4L315.7,349.4z"></path>	<path class="st2" d="M256.9,261.3l-48.7-43.4c-1.2-1.1-2.9-1-4,0.2c-0.3,0.4-0.6,0.9-0.7,1.4l-13.3,63.9c-0.3,1.5,0.6,3,2.1,3.4  c0.5,0.1,1,0.1,1.5-0.1l62-20.5c1.5-0.5,2.3-2.1,1.8-3.6C257.5,262.1,257.3,261.6,256.9,261.3L256.9,261.3z"></path>	<path class="st2" d="M402,330l-13-23.7c-0.8-1.4-0.3-3.1,1.1-3.8c30.8-17.8,51.3-49.1,55.4-84.4c0.2-1.5,1.5-2.7,3.1-2.5l27,2.5  c1.6,0.1,2.7,1.5,2.6,3.1v0.1c-5.2,46.1-32,86.9-72.2,110C404.6,331.9,402.8,331.4,402,330C402,330.1,402,330,402,330L402,330z"></path>	<path class="st2" d="M390.2,281.1L346.9,330c-1.1,1.2-1,3,0.2,4c0.4,0.3,0.9,0.6,1.4,0.7l64,13c1.5,0.3,3-0.6,3.4-2.2  c0.1-0.5,0.1-1-0.1-1.5L395,282.1c-0.5-1.5-2.1-2.3-3.6-1.8C391,280.4,390.5,280.7,390.2,281.1L390.2,281.1z"></path>	<path class="st1" d="M78.6,42.4h146.8c8.3,0,15,6.7,15,15v37.2c0,8.3-6.7,15-15,15H78.6c-8.3,0-15-6.7-15-15V57.4  C63.5,49.1,70.3,42.4,78.6,42.4z"></path>	<path class="st3" d="M70.5,42.4h146.8c8.3,0,15,6.7,15,15v37.2c0,8.3-6.7,15-15,15H70.5c-8.3,0-15-6.7-15-15V57.4  C55.5,49.1,62.2,42.4,70.5,42.4z"></path>	<g transform="translate(62.901 49.906)">		<path class="st4" d="M8.1,5.3H1.7V20h3.4v-4.1h3c3.9,0,6.4-2,6.4-5.3S12,5.3,8.1,5.3z M7.9,13.2H5.1V8.1h2.8C10,8.1,11,9,11,10.6   S10,13.2,7.9,13.2z"></path>		<path class="st4" d="M29.7,20l-3.3-4.7c1.9-0.7,3.1-2.6,3-4.6c0-3.3-2.5-5.3-6.4-5.3h-6.4V20H20v-4.1h3.1l2.8,4.1H29.7z M26,10.6   c0,1.6-1,2.6-3.1,2.6h-2.8V8.1h2.8C25,8.1,26,9,26,10.6z"></path>		<path class="st4" d="M38.7,19.2c4.4,0,7.7-3.1,7.7-7.2s-3.3-7.2-7.7-7.2c-4.4,0-7.7,3-7.7,7.2S34.3,19.2,38.7,19.2z M38.7,16.5   c-2.4,0.1-4.3-1.8-4.4-4.2c0-0.1,0-0.2,0-0.3c-0.1-2.4,1.7-4.4,4.1-4.5c0.1,0,0.2,0,0.3,0c2.4-0.1,4.3,1.8,4.4,4.2   c0,0.1,0,0.2,0,0.3c0.1,2.4-1.7,4.4-4.1,4.5C38.9,16.5,38.8,16.5,38.7,16.5z"></path>		<path class="st4" d="M56,5.3h-6.4V20H53v-4.1h3c3.9,0,6.4-2,6.4-5.3C62.3,7.3,59.9,5.3,56,5.3z M55.8,13.2H53V8.1h2.8   c2.1,0,3.1,0.9,3.1,2.6C58.9,12.2,57.8,13.2,55.8,13.2z"></path>		<path class="st4" d="M92.4,16.7c-0.8,0.4-1.7,0.6-2.6,0.6c-2.5,0.1-4.6-1.8-4.8-4.3c0-0.1,0-0.3,0-0.4c-0.1-2.5,1.8-4.6,4.3-4.7   c0.2,0,0.3,0,0.5,0c1.4,0,2.8,0.6,3.8,1.7l2.2-2c-1.6-1.7-3.8-2.7-6.2-2.5c-4.7,0-8.1,3.2-8.1,7.6s3.4,7.6,8,7.6   c2.1,0,4.2-0.6,5.9-1.9v-6h-3.1L92.4,16.7L92.4,16.7z"></path>		<path class="st4" d="M109.4,20h3.6l-6.6-14.7H103L96.5,20h3.5l1.3-3.1h6.8L109.4,20z M102.4,14.3l2.3-5.6l2.3,5.6   C107,14.3,102.4,14.3,102.4,14.3z"></path>		<path class="st4" d="M115.7,19h3.2V7.6h4.5V5h-12.2v2.6h4.5V19z"></path>		<path class="st4" d="M125.5,18h3.1V4.7h-3.1C125.5,4.7,125.5,18,125.5,18z"></path>		<path class="st4" d="M142.6,5.3v8.9l-7.3-8.9h-2.8V20h3.4v-8.9l7.3,8.9h2.8V5.3H142.6z"></path>		<path class="st4" d="M159.2,16.7c-0.8,0.4-1.7,0.6-2.6,0.6c-2.5,0.1-4.6-1.8-4.8-4.3c0-0.1,0-0.3,0-0.4c-0.1-2.5,1.8-4.6,4.3-4.7   c0.2,0,0.3,0,0.5,0c1.4,0,2.8,0.6,3.8,1.7l2.2-2c-1.6-1.7-3.8-2.7-6.2-2.5c-4.7,0-8.1,3.2-8.1,7.6s3.4,7.6,8,7.6   c2.1,0,4.2-0.6,5.9-1.9v-6h-3.1v4.3H159.2z"></path>		<path class="st4" d="M46.1,46.6c2.3,0.1,4.6-0.9,6.1-2.6L50,42c-0.9,1.1-2.3,1.8-3.7,1.7c-2.5,0.1-4.6-1.8-4.7-4.3   c0-0.1,0-0.3,0-0.4c-0.1-2.5,1.8-4.6,4.3-4.7c0.1,0,0.3,0,0.4,0c1.4,0,2.8,0.6,3.7,1.7l2.2-2c-1.5-1.7-3.7-2.7-6-2.6   c-4.6,0-8,3.2-8,7.6S41.6,46.6,46.1,46.6z"></path>		<path class="st4" d="M64.3,31.6v5.8h-6.7v-5.8h-3.4v14.7h3.4v-6h6.7v6h3.4V31.6H64.3z M82.2,46.3h3.6l-6.6-14.7h-3.4l-6.6,14.7   h3.5l1.3-3.2h6.8L82.2,46.3z M75.2,40.6l2.3-5.6l2.3,5.6H75.2z"></path>		<path class="st4" d="M97.7,32.3v8.5l-7-8.5H88v14h3.2v-8.5l7,8.5h2.7v-14H97.7z M113.7,43.2c-0.8,0.4-1.6,0.6-2.5,0.6   c-2.4,0.1-4.4-1.7-4.5-4.1c0-0.1,0-0.3,0-0.4c-0.1-2.4,1.7-4.4,4.1-4.5c0.2,0,0.3,0,0.5,0c1.4,0,2.7,0.6,3.6,1.6l2.1-1.9   c-1.5-1.6-3.6-2.5-5.9-2.4c-4.5,0-7.7,3-7.7,7.2s3.2,7.2,7.6,7.2c2,0,4-0.6,5.7-1.8V39h-3C113.7,39,113.7,43.2,113.7,43.2z"></path>		<path class="st4" d="M124.5,44.6v-3.4h6.8v-2.6h-6.8v-3.2h7.7v-2.7h-11.1v14.7h11.4v-2.7L124.5,44.6L124.5,44.6z"></path>	</g>	<path class="st1" d="M467.2,38.4H540c8.3,0,15,6.7,15,15v21.2c0,8.3-6.7,15-15,15h-72.8c-8.3,0-15-6.7-15-15V53.5  C452.2,45.2,458.9,38.4,467.2,38.4z"></path>	<path class="st3" d="M462.5,38.4h72.8c8.3,0,15,6.7,15,15v21.2c0,8.3-6.7,15-15,15h-72.8c-8.3,0-15-6.7-15-15V53.5  C447.5,45.2,454.2,38.4,462.5,38.4z"></path>	<path class="st4" d="M476.4,61.6c1.2-0.6,1.9-1.8,1.9-3.1c0-2.2-1.8-3.6-5.3-3.6h-6.8v14h7.2c3.7,0,5.6-1.4,5.6-3.8  C479,63.4,477.9,62,476.4,61.6z M472.6,57.3c1.6,0,2.4,0.5,2.4,1.6s-0.9,1.7-2.4,1.7h-3.2v-3.3H472.6z M473.1,66.4h-3.8V63h3.8  c1.7,0,2.6,0.6,2.6,1.7C475.7,65.9,474.8,66.4,473.1,66.4z M487.6,69.1c4,0,6.3-2.3,6.3-6.4v-7.8h-3.2v7.7c0,2.7-1.1,3.8-3.1,3.8  s-3.1-1.1-3.1-3.8v-7.7h-3.2v7.8C481.3,66.8,483.7,69.1,487.6,69.1z M497.2,68.9h3.2v-14h-3.2V68.9z M503.7,68.9H514v-2.6h-7V54.9  h-3.2L503.7,68.9L503.7,68.9z M515.6,68.9h6.4c4.6,0,7.7-2.8,7.7-7s-3.1-7-7.7-7h-6.4V68.9z M518.9,66.2v-8.7h3  c2.8,0,4.6,1.7,4.6,4.3s-1.8,4.3-4.6,4.3L518.9,66.2L518.9,66.2z"></path>	<path class="st1" d="M458.5,318.5h93.6c5.6,0,10.2,4.6,10.2,10.2v26.9c0,5.6-4.6,10.2-10.2,10.2h-93.6c-5.6,0-10.2-4.6-10.2-10.2  v-26.9C448.4,323,452.9,318.5,458.5,318.5z"></path>	<path class="st3" d="M453.3,318.5h93.6c5.6,0,10.2,4.6,10.2,10.2v26.9c0,5.6-4.6,10.2-10.2,10.2h-93.6c-5.6,0-10.2-4.6-10.2-10.2  v-26.9C443.2,323,447.7,318.5,453.3,318.5z"></path>	<path class="st4" d="M479.1,348h3.2v-11.4h4.5V334h-12.2v2.6h4.5V348z M491.7,345.4v-3.2h6.5v-2.5h-6.5v-3h7.4V334h-10.6v14h10.8  v-2.6H491.7z M506.7,348.2c4,0,5.9-2,5.9-4.3c0-5.1-8.1-3.4-8.1-5.9c0-0.9,0.7-1.6,2.7-1.6c1.4,0,2.7,0.4,3.9,1.1l1-2.5  c-1.5-0.8-3.2-1.3-4.9-1.2c-4,0-5.9,2-5.9,4.4c0,5.2,8.1,3.4,8.1,6c0,0.9-0.8,1.5-2.7,1.5c-1.7,0-3.3-0.5-4.6-1.5l-1.1,2.4  C502.7,347.7,504.7,348.3,506.7,348.2L506.7,348.2z M517.8,348h3.2v-11.4h4.5V334h-12.2v2.6h4.5V348z"></path>	<path class="st1" d="M128.6,317.7h106c5.6,0,10.2,4.6,10.2,10.2v25.8c0,5.6-4.6,10.2-10.2,10.2h-106c-5.6,0-10.2-4.6-10.2-10.2  v-25.8C118.4,322.2,123,317.7,128.6,317.7z"></path>	<path class="st3" d="M122.8,317.7h106c5.6,0,10.2,4.6,10.2,10.2v25.8c0,5.6-4.6,10.2-10.2,10.2h-106c-5.6,0-10.2-4.6-10.2-10.2  v-25.8C112.7,322.2,117.2,317.7,122.8,317.7z"></path>	<path class="st4" d="M133.3,348.4h6.4c4.6,0,7.7-2.8,7.7-7s-3.1-7-7.7-7h-6.4V348.4z M136.5,345.8v-8.7h3c2.8,0,4.6,1.7,4.6,4.3  s-1.8,4.3-4.6,4.3h-3V345.8z M153,345.8v-3.2h6.5v-2.5H153v-3h7.4v-2.6h-10.6v14h10.8v-2.6L153,345.8L153,345.8z M169.5,334.4h-6.1  v14h3.2v-3.9h2.8c3.7,0,6.1-1.9,6.1-5.1C175.6,336.4,173.2,334.4,169.5,334.4z M169.3,341.9h-2.6V337h2.6c2,0,3,0.9,3,2.4  C172.3,341,171.3,341.9,169.3,341.9z M177.7,348.4H188v-2.6h-7v-11.4h-3.2v14H177.7z M195.9,348.7c4.4,0,7.7-3.1,7.7-7.2  s-3.3-7.2-7.7-7.2s-7.7,3.1-7.7,7.2S191.5,348.7,195.9,348.7z M195.9,345.9c-2.4,0.1-4.3-1.8-4.4-4.2c0-0.1,0-0.2,0-0.3  c-0.1-2.4,1.7-4.4,4.1-4.5c0.1,0,0.2,0,0.3,0c2.4-0.1,4.3,1.8,4.4,4.2c0,0.1,0,0.2,0,0.3c0.1,2.4-1.7,4.4-4.1,4.5  C196.1,345.9,196,345.9,195.9,345.9z M216.7,334.4h-3.2l-3.7,6.2l-3.7-6.2h-3.4l5.4,9v5h3.2v-5L216.7,334.4z"></path></g><g class="st5">	<path class="st4" d="M138.2,66.8h-6.8l-1.3,3.1h-3.5l6.6-14.7h3.4l6.6,14.7h-3.6L138.2,66.8z M137.1,64.2l-2.3-5.6l-2.3,5.6H137.1z  "></path></g></svg>