<svg xmlns="http://www.w3.org/2000/svg" width="445" height="266" viewBox="0 0 445 266"><rect width="445" height="266" fill="none"></rect><ellipse cx="113.097" cy="3.259" rx="113.097" ry="3.259" transform="translate(99.401 193.508)" opacity="0.1"></ellipse><path d="M559.478,275.62l-.111,23.648-.4,88.232-72.719-.336-110.337-.505a13.119,13.119,0,0,1-13.058-13.181l.45-97.858Z" transform="translate(-251.077 -190.718)" fill="#455666" stroke="#24313e" stroke-miterlimit="10" stroke-width="2"></path><path d="M560.572,202.586l-.083,18.464H364.31L364.4,201.7a6.219,6.219,0,0,1,6.287-6.142l183.635.829a6.219,6.219,0,0,1,6.253,6.2Z" transform="translate(-252.088 -135.319)" fill="#3ab2d0" stroke="#24313e" stroke-miterlimit="10" stroke-width="2"></path><path d="M551.72,211.7l-.505,109.576a10.085,10.085,0,0,1-10.131,10.039l-176-.807A10.088,10.088,0,0,1,355.04,320.37l.505-109.576a16.428,16.428,0,0,1,16.5-16.354l163.317.752" transform="translate(-245.673 -134.544)" fill="#f5f7f9" stroke="#24313e" stroke-miterlimit="10" stroke-width="2"></path><path d="M552.765,275.657c0,.394-43.923,1.152-98.108,1.152s-98.108-.758-98.108-1.152,43.923-.28,98.108-.28S552.765,275.247,552.765,275.657Z" transform="translate(-246.718 -190.536)" fill="#24313e" opacity="0.24"></path><path d="M8.453,0H187.732a8.453,8.453,0,0,1,8.453,8.453V24.917H0V8.45A8.453,8.453,0,0,1,8.453,0Z" transform="translate(109.948 59.953) rotate(0.26)" fill="#0c7ff2" stroke="#24313e" stroke-miterlimit="10" stroke-width="2"></path><rect width="22.416" height="8.163" rx="4.082" transform="translate(118.112 90.29)" fill="#0c7ff2"></rect><rect width="28.937" height="10.171" rx="5.086" transform="translate(117.808 67.296) rotate(0.26)" fill="#3ab2d0" stroke="#24313e" stroke-miterlimit="10" stroke-width="2"></rect><rect width="28.937" height="10.171" rx="5.086" transform="translate(248.761 67.89) rotate(0.26)" fill="#ebf0f5" stroke="#24313e" stroke-miterlimit="10" stroke-width="2"></rect><rect width="10.248" height="10.171" rx="5.086" transform="translate(284.687 68.053) rotate(0.26)" fill="#ebf0f5" stroke="#24313e" stroke-miterlimit="10" stroke-width="2"></rect><rect width="46.619" height="7.849" rx="3.924" transform="translate(117.624 107.109) rotate(0.26)" fill="#9caab8"></rect><rect width="46.619" height="5.751" rx="2.876" transform="translate(117.567 119.624) rotate(0.26)" fill="#ebf0f5"></rect><rect width="30.379" height="4.996" rx="2.498" transform="translate(117.522 129.478) rotate(0.26)" fill="#ebf0f5"></rect><rect width="49.031" height="4.996" rx="2.498" transform="translate(117.488 137.65) rotate(0.26)" fill="#ebf0f5"></rect><rect width="30.379" height="4.996" rx="2.498" transform="translate(117.445 146.484) rotate(0.26)" fill="#ebf0f5"></rect><rect width="49.031" height="4.996" rx="2.498" transform="translate(117.408 154.653) rotate(0.26)" fill="#ebf0f5"></rect><rect width="22.416" height="8.163" rx="4.082" transform="translate(145.633 90.947) rotate(0.26)" fill="#0c7ff2"></rect><rect width="37.233" height="8.163" rx="4.082" transform="translate(180.465 91.105) rotate(0.26)" fill="#ebf0f5"></rect><rect width="31.004" height="8.163" rx="4.082" transform="translate(267.044 90.737) rotate(0.26)" fill="#0c7ff2"></rect><rect width="117.995" height="91.79" rx="9.02" transform="translate(180.148 103.88)" fill="#9caab8" stroke="#031439" stroke-miterlimit="10" stroke-width="2"></rect><rect width="37.233" height="8.163" rx="4.082" transform="translate(186.052 113.087) rotate(0.26)" fill="#ebf0f5"></rect><rect width="105.322" height="32.751" rx="13.65" transform="translate(185.986 127.45) rotate(0.26)" fill="#ebf0f5"></rect><path d="M825.633,311.222l-.391,97.713-56.43-.336C752.576,400.058,747,378.538,747,366.5a59.843,59.843,0,0,1,59.837-59.837C814.954,306.66,818.564,308.283,825.633,311.222Z" transform="translate(-516.894 -212.196)" opacity="0.38"></path><ellipse cx="29.091" cy="3.259" rx="29.091" ry="3.259" transform="translate(262.031 199.823)" opacity="0.1"></ellipse><circle cx="53.045" cy="53.045" r="53.045" transform="translate(238.99 99.087)" fill="#0c7ff2" stroke="#24313e" stroke-miterlimit="10" stroke-width="2"></circle><circle cx="53.045" cy="53.045" r="53.045" transform="translate(234.489 99.087)" fill="#3ab2d0" stroke="#24313e" stroke-miterlimit="10" stroke-width="2"></circle><path d="M900.674,460.5,881.684,449.54,862.69,460.5v20.549a2.393,2.393,0,0,0,1.2,2.073l16.6,9.583a2.406,2.406,0,0,0,2.393,0l16.6-9.583a2.4,2.4,0,0,0,1.2-2.073Z" transform="translate(-596.947 -311.064)" fill="#fff" stroke="#031439" stroke-linecap="round" stroke-linejoin="round" stroke-width="2"></path><path d="M933.961,503.366l12.5-7.495a3.506,3.506,0,0,0,1.269-4.682l-3.3-6.059-18.5,11.126,3.157,5.776a3.5,3.5,0,0,0,4.873,1.334Z" transform="translate(-640.706 -335.69)" fill="#fff" stroke="#031439" stroke-linecap="round" stroke-linejoin="round" stroke-width="2"></path><line y1="13.751" x2="23.821" transform="translate(260.916 138.476)" fill="#fff" stroke="#031439" stroke-linecap="round" stroke-linejoin="round" stroke-width="2"></line><path d="M881.684,449.54,900.674,460.5l-18.5,11.126L862.69,460.5Z" transform="translate(-596.947 -311.064)" fill="#24313e" stroke="#031439" stroke-miterlimit="10" stroke-width="2"></path><path d="M904.726,418.665l1.968-.37a1.214,1.214,0,0,0,.989-1.217l-.034-1.82a1.214,1.214,0,0,0-1.035-1.18l-1.987-.308a1.2,1.2,0,0,1-.859-.576l-2.8-4.651a1.233,1.233,0,0,1-.1-1.035l.681-1.9a1.214,1.214,0,0,0-.548-1.469l-1.593-.89a1.214,1.214,0,0,0-1.54.308l-1.248,1.54a1.232,1.232,0,0,1-.924.45l-5.434.1a1.232,1.232,0,0,1-.952-.434l-1.315-1.565a1.211,1.211,0,0,0-1.54-.268l-1.574.924a1.214,1.214,0,0,0-.524,1.479l.7,1.833a1.233,1.233,0,0,1-.074,1.023l-2.772,4.975a1.232,1.232,0,0,1-.838.616l-1.968.37a1.232,1.232,0,0,0-.989,1.217l.034,1.82a1.214,1.214,0,0,0,1.032,1.18l1.99.308a1.2,1.2,0,0,1,.859.576l2.8,4.651a1.232,1.232,0,0,1,.1,1.035l-.681,1.9a1.214,1.214,0,0,0,.548,1.469l1.593.89a1.214,1.214,0,0,0,1.54-.308l1.248-1.54a1.232,1.232,0,0,1,.924-.45l5.434-.092a1.214,1.214,0,0,1,.952.431l1.315,1.568a1.214,1.214,0,0,0,1.54.265l1.574-.924a1.214,1.214,0,0,0,.524-1.479l-.7-1.833a1.232,1.232,0,0,1,.074-1.02l2.772-4.978A1.232,1.232,0,0,1,904.726,418.665Zm-16.674-2.045a5,5,0,1,1,4.99,4.821,5,5,0,0,1-4.99-4.821Z" transform="translate(-607.824 -278.926)" fill="#fff"></path><path d="M904.726,418.665l1.968-.37a1.214,1.214,0,0,0,.989-1.217l-.034-1.82a1.214,1.214,0,0,0-1.035-1.18l-1.987-.308a1.2,1.2,0,0,1-.859-.576l-2.8-4.651a1.233,1.233,0,0,1-.1-1.035l.681-1.9a1.214,1.214,0,0,0-.548-1.469l-1.593-.89a1.214,1.214,0,0,0-1.54.308l-1.248,1.54a1.232,1.232,0,0,1-.924.45l-5.434.1a1.232,1.232,0,0,1-.952-.434l-1.315-1.565a1.211,1.211,0,0,0-1.54-.268l-1.574.924a1.214,1.214,0,0,0-.524,1.479l.7,1.833a1.233,1.233,0,0,1-.074,1.023l-2.772,4.975a1.232,1.232,0,0,1-.838.616l-1.968.37a1.232,1.232,0,0,0-.989,1.217l.034,1.82a1.214,1.214,0,0,0,1.032,1.18l1.99.308a1.2,1.2,0,0,1,.859.576l2.8,4.651a1.232,1.232,0,0,1,.1,1.035l-.681,1.9a1.214,1.214,0,0,0,.548,1.469l1.593.89a1.214,1.214,0,0,0,1.54-.308l1.248-1.54a1.232,1.232,0,0,1,.924-.45l5.434-.092a1.214,1.214,0,0,1,.952.431l1.315,1.568a1.214,1.214,0,0,0,1.54.265l1.574-.924a1.214,1.214,0,0,0,.524-1.479l-.7-1.833a1.232,1.232,0,0,1,.074-1.02l2.772-4.978A1.232,1.232,0,0,1,904.726,418.665Zm-16.674-2.045a5,5,0,1,1,4.99,4.821,5,5,0,0,1-4.99-4.821Z" transform="translate(-607.824 -278.926)" fill="none" stroke="#031439" stroke-linecap="round" stroke-linejoin="round" stroke-width="2"></path><ellipse cx="5.003" cy="4.999" rx="5.003" ry="4.999" transform="translate(278.145 137.628) rotate(-46.15)" fill="#3ab2d0" stroke="#24313e" stroke-miterlimit="10" stroke-width="2"></ellipse><path d="M857.57,344.093a53.048,53.048,0,0,0-84.163,64.433,53.048,53.048,0,1,1,84.163-64.433Z" transform="translate(-526.609 -222.418)" fill="#ebf0f5" opacity="0.21"></path><path d="M561.735,196.087c0,1.771-40.661,1.907-90.8,1.907s-90.8-.308-90.8-2.085,40.353.111,90.505.111S561.735,194.315,561.735,196.087Z" transform="translate(-263.035 -135.033)" fill="#ebf0f5" opacity="0.21"></path><rect width="20.531" height="0.718" rx="0.359" transform="translate(118.411 90.986)" fill="#ebf0f5" opacity="0.21"></rect><rect width="21.135" height="0.718" rx="0.359" transform="translate(118.411 98.074)" fill="#24313e" opacity="0.24"></rect><rect width="20.531" height="0.718" rx="0.359" transform="translate(146.501 91.285)" fill="#ebf0f5" opacity="0.21"></rect><rect width="21.135" height="0.718" rx="0.359" transform="translate(146.501 98.37)" fill="#24313e" opacity="0.24"></rect><rect width="44.118" height="0.718" rx="0.359" transform="translate(118.411 107.244)" fill="#ebf0f5" opacity="0.21"></rect><rect width="45.411" height="0.718" rx="0.359" transform="translate(118.411 114.329)" fill="#24313e" opacity="0.24"></rect><ellipse cx="10.433" cy="0.567" rx="10.433" ry="0.567" transform="translate(121.762 67.445)" fill="#ebf0f5" opacity="0.21"></ellipse><ellipse cx="10.433" cy="0.567" rx="10.433" ry="0.567" transform="translate(121.762 76.406)" fill="#24313e" opacity="0.24"></ellipse></svg>