<svg xmlns="http://www.w3.org/2000/svg" width="225" height="225" viewBox="0 0 225 225"><g transform="translate(-867 -2311)"><g transform="translate(867 2311)" fill="#fff" stroke="#707070" stroke-width="1" opacity="0"><rect width="225" height="225" stroke="none"></rect><rect x="0.5" y="0.5" width="224" height="224" fill="none"></rect></g><g transform="translate(-1 -54.627)"><path d="M-51.013,0a.313.313,0,0,1-.231-.091.313.313,0,0,1-.091-.231v-7.84L-53.659-6.37a.317.317,0,0,1-.21.084.311.311,0,0,1-.238-.14l-.364-.462a.336.336,0,0,1-.07-.2.308.308,0,0,1,.14-.266L-51.349-9.7a.663.663,0,0,1,.364-.1h.714a.313.313,0,0,1,.231.091.313.313,0,0,1,.091.231V-.322a.313.313,0,0,1-.091.231A.313.313,0,0,1-50.271,0Zm7,.14A3.186,3.186,0,0,1-46.655-.91a4.531,4.531,0,0,1-.9-2.758q-.014-.378-.014-1.218,0-.868.014-1.26a4.4,4.4,0,0,1,.9-2.737A3.2,3.2,0,0,1-44.009-9.94a3.217,3.217,0,0,1,2.66,1.057,4.4,4.4,0,0,1,.9,2.737q.028.784.028,1.26t-.028,1.218a4.531,4.531,0,0,1-.9,2.758A3.2,3.2,0,0,1-44.009.14Zm0-1.2a1.882,1.882,0,0,0,1.589-.7,3.3,3.3,0,0,0,.567-1.974q.028-.812.028-1.176,0-.392-.028-1.148a3.372,3.372,0,0,0-.56-1.974,1.863,1.863,0,0,0-1.6-.714,1.867,1.867,0,0,0-1.589.714,3.339,3.339,0,0,0-.567,1.974l-.014,1.148.014,1.176a3.3,3.3,0,0,0,.573,1.97,1.882,1.882,0,0,0,1.591.7ZM-38.42,0a.292.292,0,0,1-.2-.084.274.274,0,0,1-.091-.21.41.41,0,0,1,.1-.252l2.436-3.178-2.282-3.01a.373.373,0,0,1-.1-.252.285.285,0,0,1,.084-.21.285.285,0,0,1,.21-.084h.714a.44.44,0,0,1,.364.224l1.862,2.422,1.862-2.408a1,1,0,0,1,.161-.175.311.311,0,0,1,.2-.063h.686a.285.285,0,0,1,.21.084.285.285,0,0,1,.084.21.373.373,0,0,1-.1.252L-34.528-3.7l2.436,3.15a.41.41,0,0,1,.1.252.285.285,0,0,1-.084.21.285.285,0,0,1-.21.084h-.742a.445.445,0,0,1-.364-.21l-1.96-2.562L-37.342-.21a.97.97,0,0,1-.161.154A.337.337,0,0,1-37.7,0Zm15.169.14a3.182,3.182,0,0,1-2.387-.868,3.363,3.363,0,0,1-.9-2.31l-.014-.6.014-.6a3.355,3.355,0,0,1,.91-2.3,3.173,3.173,0,0,1,2.38-.875,3.173,3.173,0,0,1,2.38.875,3.355,3.355,0,0,1,.91,2.3q.014.154.014.6t-.014.6a3.363,3.363,0,0,1-.9,2.31A3.182,3.182,0,0,1-23.251.14Zm0-1.078a1.792,1.792,0,0,0,1.393-.56,2.46,2.46,0,0,0,.553-1.61q.014-.14.014-.532t-.014-.532a2.46,2.46,0,0,0-.553-1.61,1.792,1.792,0,0,0-1.393-.56,1.814,1.814,0,0,0-1.4.56,2.386,2.386,0,0,0-.546,1.61l-.014.532.014.532a2.386,2.386,0,0,0,.546,1.61,1.814,1.814,0,0,0,1.4.56ZM-17.437,0a.313.313,0,0,1-.231-.091.313.313,0,0,1-.091-.231V-6.958a.313.313,0,0,1,.091-.231.313.313,0,0,1,.231-.091h.658a.313.313,0,0,1,.231.091.313.313,0,0,1,.091.231v.616a2.844,2.844,0,0,1,.959-.8,3.036,3.036,0,0,1,1.379-.28,2.627,2.627,0,0,1,2.093.861,3.364,3.364,0,0,1,.749,2.289v3.95a.313.313,0,0,1-.091.231A.313.313,0,0,1-11.6,0h-.7a.313.313,0,0,1-.231-.091.313.313,0,0,1-.091-.231V-4.2A2.248,2.248,0,0,0-13.1-5.74a1.762,1.762,0,0,0-1.4-.546,1.826,1.826,0,0,0-1.4.553A2.154,2.154,0,0,0-16.415-4.2V-.322a.313.313,0,0,1-.091.231A.313.313,0,0,1-16.737,0Zm12.2.14a2.687,2.687,0,0,1-2.3-1.05v.588a.313.313,0,0,1-.091.231A.313.313,0,0,1-7.858,0H-8.5a.313.313,0,0,1-.231-.091.313.313,0,0,1-.091-.231v-9.3a.313.313,0,0,1,.091-.231A.313.313,0,0,1-8.5-9.94h.686a.29.29,0,0,1,.224.091.327.327,0,0,1,.084.231V-6.4A2.758,2.758,0,0,1-5.24-7.42a2.608,2.608,0,0,1,2.2.959,4.076,4.076,0,0,1,.8,2.4q.014.154.014.42t-.014.42a4.065,4.065,0,0,1-.8,2.408A2.616,2.616,0,0,1-5.24.14Zm-.3-1.134A1.682,1.682,0,0,0-4.085-1.61a2.878,2.878,0,0,0,.5-1.624q.014-.14.014-.406,0-2.646-1.96-2.646a1.757,1.757,0,0,0-1.442.616A2.339,2.339,0,0,0-7.5-4.228l-.014.546.014.532A2.66,2.66,0,0,0-6.98-1.631a1.7,1.7,0,0,0,1.446.637ZM2.912.14A3.182,3.182,0,0,1,.525-.728a3.363,3.363,0,0,1-.9-2.31l-.014-.6.014-.6a3.355,3.355,0,0,1,.91-2.3,3.173,3.173,0,0,1,2.38-.875,3.173,3.173,0,0,1,2.38.875,3.355,3.355,0,0,1,.91,2.3q.014.154.014.6t-.014.6a3.363,3.363,0,0,1-.9,2.31A3.182,3.182,0,0,1,2.912.14Zm0-1.078A1.792,1.792,0,0,0,4.3-1.5a2.46,2.46,0,0,0,.553-1.61q.014-.14.014-.532t-.014-.532A2.46,2.46,0,0,0,4.3-5.782a1.792,1.792,0,0,0-1.393-.56,1.814,1.814,0,0,0-1.4.56,2.386,2.386,0,0,0-.546,1.61L.952-3.64l.014.532A2.386,2.386,0,0,0,1.512-1.5a1.814,1.814,0,0,0,1.4.562ZM10.433.14A2.925,2.925,0,0,1,9.159-.14,2.357,2.357,0,0,1,8.228-.9a1.808,1.808,0,0,1-.343-1.071A1.845,1.845,0,0,1,8.648-3.49a4.268,4.268,0,0,1,2.065-.777l2.087-.3V-4.97q0-1.43-1.639-1.43a1.8,1.8,0,0,0-1.008.259,1.777,1.777,0,0,0-.588.609.416.416,0,0,1-.1.182.254.254,0,0,1-.175.056h-.6a.3.3,0,0,1-.217-.091.3.3,0,0,1-.1-.215,1.487,1.487,0,0,1,.315-.763,2.444,2.444,0,0,1,.931-.742,3.453,3.453,0,0,1,1.554-.315,2.968,2.968,0,0,1,2.254.735,2.575,2.575,0,0,1,.686,1.827V-.322a.313.313,0,0,1-.091.231A.313.313,0,0,1,13.793,0h-.644a.313.313,0,0,1-.231-.091.313.313,0,0,1-.091-.231v-.6a2.419,2.419,0,0,1-.9.756A3.215,3.215,0,0,1,10.433.14Zm.294-1.05a1.993,1.993,0,0,0,1.491-.59A2.355,2.355,0,0,0,12.8-3.22v-.392l-1.624.238a3.748,3.748,0,0,0-1.5.469.971.971,0,0,0-.5.833.968.968,0,0,0,.462.861,1.955,1.955,0,0,0,1.089.3ZM16.891,0a.313.313,0,0,1-.231-.091.313.313,0,0,1-.091-.231V-6.944a.337.337,0,0,1,.091-.238.3.3,0,0,1,.231-.1h.644a.324.324,0,0,1,.238.1.324.324,0,0,1,.1.238v.616a2.1,2.1,0,0,1,1.96-.952h.546a.313.313,0,0,1,.231.091.313.313,0,0,1,.091.231v.574a.29.29,0,0,1-.091.224.327.327,0,0,1-.231.084h-.84a1.594,1.594,0,0,0-1.19.441,1.632,1.632,0,0,0-.434,1.2V-.322a.3.3,0,0,1-.1.231A.337.337,0,0,1,17.577,0Zm7.941.14a2.616,2.616,0,0,1-2.2-.952A4,4,0,0,1,21.85-3.22l-.014-.42.014-.42a4.006,4.006,0,0,1,.784-2.4,2.608,2.608,0,0,1,2.2-.959A2.758,2.758,0,0,1,27.1-6.4V-9.62a.313.313,0,0,1,.091-.231.313.313,0,0,1,.231-.091h.672a.313.313,0,0,1,.231.091.313.313,0,0,1,.091.231v9.3a.313.313,0,0,1-.091.231A.313.313,0,0,1,28.094,0h-.63a.313.313,0,0,1-.231-.091.313.313,0,0,1-.091-.231V-.91A2.748,2.748,0,0,1,24.832.14Zm.294-1.134a1.7,1.7,0,0,0,1.449-.637A2.66,2.66,0,0,0,27.1-3.15q.014-.154.014-.532T27.1-4.228a2.339,2.339,0,0,0-.532-1.442,1.757,1.757,0,0,0-1.442-.616,1.682,1.682,0,0,0-1.449.616,2.878,2.878,0,0,0-.5,1.624l-.014.406q0,2.646,1.963,2.646ZM31.15-8.638a.313.313,0,0,1-.231-.091.313.313,0,0,1-.091-.231v-.756a.337.337,0,0,1,.091-.238.3.3,0,0,1,.231-.1h.882a.324.324,0,0,1,.238.1.324.324,0,0,1,.1.238v.756a.3.3,0,0,1-.1.231.337.337,0,0,1-.238.091ZM31.262,0a.313.313,0,0,1-.231-.091.313.313,0,0,1-.091-.231V-6.958a.313.313,0,0,1,.091-.231.313.313,0,0,1,.231-.091h.672a.313.313,0,0,1,.231.091.313.313,0,0,1,.091.231V-.322a.313.313,0,0,1-.091.231A.313.313,0,0,1,31.934,0Zm3.826,0a.313.313,0,0,1-.231-.091.313.313,0,0,1-.091-.231V-6.958a.313.313,0,0,1,.091-.231.313.313,0,0,1,.231-.091h.658a.313.313,0,0,1,.231.091.313.313,0,0,1,.091.231v.616a2.844,2.844,0,0,1,.959-.8,3.036,3.036,0,0,1,1.379-.28,2.627,2.627,0,0,1,2.093.861,3.364,3.364,0,0,1,.749,2.289v3.95a.313.313,0,0,1-.091.231A.313.313,0,0,1,40.925,0h-.7a.313.313,0,0,1-.231-.091A.313.313,0,0,1,39.9-.322V-4.2a2.248,2.248,0,0,0-.483-1.54,1.762,1.762,0,0,0-1.393-.546,1.826,1.826,0,0,0-1.4.553A2.155,2.155,0,0,0,36.11-4.2V-.322a.313.313,0,0,1-.091.231A.313.313,0,0,1,35.787,0ZM46.669,3.08a3.83,3.83,0,0,1-1.848-.38,2.55,2.55,0,0,1-.994-.875,2.046,2.046,0,0,1-.322-.882A.273.273,0,0,1,43.6.7a.332.332,0,0,1,.231-.1H44.5a.34.34,0,0,1,.21.063.467.467,0,0,1,.14.231,1.881,1.881,0,0,0,.553.777A1.815,1.815,0,0,0,46.6,2a2.232,2.232,0,0,0,1.526-.441A2.036,2.036,0,0,0,48.615,0V-.952a2.615,2.615,0,0,1-.924.735,3.006,3.006,0,0,1-1.33.273,2.637,2.637,0,0,1-2.219-.945,3.99,3.99,0,0,1-.777-2.4l-.014-.392.014-.378a4.006,4.006,0,0,1,.784-2.4,2.624,2.624,0,0,1,2.212-.959,2.729,2.729,0,0,1,2.3,1.078v-.6a.337.337,0,0,1,.091-.238.3.3,0,0,1,.231-.1h.644a.324.324,0,0,1,.238.1.324.324,0,0,1,.1.238V-.15Q49.959,3.08,46.669,3.08Zm-.028-4.144a1.715,1.715,0,0,0,1.442-.63,2.579,2.579,0,0,0,.532-1.5q.014-.126.014-.49t-.014-.476a2.606,2.606,0,0,0-.525-1.5,1.711,1.711,0,0,0-1.449-.63,1.662,1.662,0,0,0-1.441.62,2.913,2.913,0,0,0-.49,1.624l-.014.364.014.378a2.925,2.925,0,0,0,.49,1.617A1.654,1.654,0,0,0,46.641-1.064ZM-41.655,20q-2.212,0-2.212-2.464v-3.7h-1.092a.313.313,0,0,1-.231-.091.313.313,0,0,1-.091-.231v-.476a.313.313,0,0,1,.091-.231.313.313,0,0,1,.231-.091h1.092V10.382a.313.313,0,0,1,.091-.231.313.313,0,0,1,.231-.091h.658a.313.313,0,0,1,.231.091.313.313,0,0,1,.091.231V12.72h1.736a.313.313,0,0,1,.231.091.313.313,0,0,1,.091.231v.476a.313.313,0,0,1-.091.231.313.313,0,0,1-.231.091h-1.736v3.6a1.916,1.916,0,0,0,.238,1.057.872.872,0,0,0,.784.357h.854a.313.313,0,0,1,.231.091.313.313,0,0,1,.091.231v.5a.313.313,0,0,1-.091.231.313.313,0,0,1-.231.091Zm3.279-8.638a.313.313,0,0,1-.231-.091.313.313,0,0,1-.091-.231v-.756a.337.337,0,0,1,.091-.238.3.3,0,0,1,.231-.1h.882a.324.324,0,0,1,.238.1.324.324,0,0,1,.1.238v.756a.3.3,0,0,1-.1.231.337.337,0,0,1-.238.091ZM-38.264,20a.313.313,0,0,1-.231-.091.313.313,0,0,1-.091-.231V13.042a.313.313,0,0,1,.091-.231.313.313,0,0,1,.231-.091h.672a.313.313,0,0,1,.231.091.313.313,0,0,1,.091.231v6.636a.313.313,0,0,1-.091.231.313.313,0,0,1-.231.091Zm3.826,0a.313.313,0,0,1-.231-.091.313.313,0,0,1-.091-.231V13.042a.313.313,0,0,1,.091-.231.313.313,0,0,1,.231-.091h.63a.313.313,0,0,1,.231.091.313.313,0,0,1,.091.231v.49a2.41,2.41,0,0,1,2.03-.952,2.26,2.26,0,0,1,2.2,1.288,2.485,2.485,0,0,1,.952-.938,2.756,2.756,0,0,1,1.386-.35,2.444,2.444,0,0,1,1.876.784,3.216,3.216,0,0,1,.728,2.268v4.046a.313.313,0,0,1-.091.231.313.313,0,0,1-.231.091H-25.3a.313.313,0,0,1-.231-.091.313.313,0,0,1-.091-.231v-3.92a2.225,2.225,0,0,0-.455-1.568,1.58,1.58,0,0,0-1.2-.476A1.537,1.537,0,0,0-28.4,14.2a2.162,2.162,0,0,0-.476,1.561v3.92a.313.313,0,0,1-.091.231A.313.313,0,0,1-29.2,20h-.658a.313.313,0,0,1-.231-.091.313.313,0,0,1-.091-.231v-3.92a2.18,2.18,0,0,0-.469-1.568,1.591,1.591,0,0,0-1.183-.476,1.537,1.537,0,0,0-1.134.483,2.139,2.139,0,0,0-.476,1.547v3.934a.313.313,0,0,1-.091.231.313.313,0,0,1-.231.091Zm15.473.14a3.058,3.058,0,0,1-2.3-.889,3.645,3.645,0,0,1-.945-2.429l-.014-.476.014-.462a3.692,3.692,0,0,1,.959-2.408,3.01,3.01,0,0,1,2.275-.9,3.013,3.013,0,0,1,2.408.987,3.937,3.937,0,0,1,.854,2.667v.238a.313.313,0,0,1-.091.231.313.313,0,0,1-.231.091H-20.88v.126a2.594,2.594,0,0,0,.553,1.547,1.646,1.646,0,0,0,1.351.637,1.96,1.96,0,0,0,1.057-.259,2.076,2.076,0,0,0,.609-.539.815.815,0,0,1,.189-.2.525.525,0,0,1,.231-.035h.686a.317.317,0,0,1,.21.07.241.241,0,0,1,.084.2,1.232,1.232,0,0,1-.385.742,3.169,3.169,0,0,1-1.078.749,3.8,3.8,0,0,1-1.592.312Zm1.918-4.312v-.042a2.326,2.326,0,0,0-.525-1.575,1.764,1.764,0,0,0-1.407-.609,1.722,1.722,0,0,0-1.393.609,2.367,2.367,0,0,0-.511,1.575v.042ZM-9.41,20a.313.313,0,0,1-.231-.091.313.313,0,0,1-.091-.231V13.056a.337.337,0,0,1,.091-.238.3.3,0,0,1,.231-.1h.644a.324.324,0,0,1,.238.1.324.324,0,0,1,.1.238v.616a2.1,2.1,0,0,1,1.96-.952h.546a.313.313,0,0,1,.231.091.313.313,0,0,1,.091.231v.574a.29.29,0,0,1-.091.224.327.327,0,0,1-.231.084h-.84a1.594,1.594,0,0,0-1.19.441,1.632,1.632,0,0,0-.434,1.2v4.116a.3.3,0,0,1-.1.231A.337.337,0,0,1-8.724,20Zm8.208.14a3.058,3.058,0,0,1-2.3-.889,3.645,3.645,0,0,1-.945-2.429l-.014-.476.014-.462a3.692,3.692,0,0,1,.959-2.408,3.01,3.01,0,0,1,2.275-.9,3.013,3.013,0,0,1,2.408.987,3.937,3.937,0,0,1,.854,2.667v.238a.311.311,0,0,1-.322.322H-3.12v.126a2.594,2.594,0,0,0,.553,1.547,1.646,1.646,0,0,0,1.351.637,1.96,1.96,0,0,0,1.057-.259A2.076,2.076,0,0,0,.45,18.3a.815.815,0,0,1,.189-.2.525.525,0,0,1,.231-.035h.686a.317.317,0,0,1,.21.07.241.241,0,0,1,.084.2,1.232,1.232,0,0,1-.385.742,3.169,3.169,0,0,1-1.078.749A3.8,3.8,0,0,1-1.2,20.14ZM.716,15.828v-.042a2.326,2.326,0,0,0-.525-1.575A1.764,1.764,0,0,0-1.216,13.6a1.722,1.722,0,0,0-1.393.609,2.367,2.367,0,0,0-.511,1.575v.042ZM6.823,20.14a2.616,2.616,0,0,1-2.2-.952,4,4,0,0,1-.784-2.408l-.014-.42.014-.42a4.006,4.006,0,0,1,.784-2.4,2.608,2.608,0,0,1,2.2-.959A2.758,2.758,0,0,1,9.091,13.6V10.38a.311.311,0,0,1,.322-.322h.672a.311.311,0,0,1,.322.322v9.3a.311.311,0,0,1-.322.322h-.63a.311.311,0,0,1-.322-.322v-.59a2.748,2.748,0,0,1-2.31,1.05Zm.294-1.134a1.7,1.7,0,0,0,1.449-.637,2.66,2.66,0,0,0,.525-1.519q.014-.154.014-.532t-.014-.546a2.339,2.339,0,0,0-.532-1.442,1.757,1.757,0,0,0-1.442-.616,1.682,1.682,0,0,0-1.449.616,2.878,2.878,0,0,0-.5,1.624l-.014.406q0,2.646,1.963,2.646Zm8.53,1.134a2.547,2.547,0,0,1-2.058-.861,3.427,3.427,0,0,1-.728-2.289V13.042a.311.311,0,0,1,.322-.322h.7a.311.311,0,0,1,.322.322V16.92q0,2.086,1.82,2.086a1.826,1.826,0,0,0,1.4-.553,2.155,2.155,0,0,0,.518-1.533V13.042a.311.311,0,0,1,.322-.322h.7a.29.29,0,0,1,.224.091.327.327,0,0,1,.084.231v6.636a.327.327,0,0,1-.084.231.29.29,0,0,1-.224.091h-.658a.311.311,0,0,1-.322-.322v-.616a2.575,2.575,0,0,1-.952.805,3.149,3.149,0,0,1-1.386.273Zm9.09,0a3.169,3.169,0,0,1-2.345-.847,3.394,3.394,0,0,1-.9-2.373l-.014-.56.014-.56a3.394,3.394,0,0,1,.9-2.373,3.169,3.169,0,0,1,2.345-.847,3.667,3.667,0,0,1,1.708.364,2.662,2.662,0,0,1,1.043.9,2.167,2.167,0,0,1,.371,1.064.245.245,0,0,1-.084.224.353.353,0,0,1-.238.084h-.672a.332.332,0,0,1-.21-.056.577.577,0,0,1-.14-.224,1.832,1.832,0,0,0-.672-.959,1.94,1.94,0,0,0-1.092-.287,1.81,1.81,0,0,0-1.379.539,2.459,2.459,0,0,0-.553,1.645l-.014.5.014.476a2.475,2.475,0,0,0,.546,1.652,1.818,1.818,0,0,0,1.386.532,1.94,1.94,0,0,0,1.092-.287,1.832,1.832,0,0,0,.672-.959.659.659,0,0,1,.14-.231.305.305,0,0,1,.21-.063h.672a.337.337,0,0,1,.238.091.263.263,0,0,1,.084.231,2.191,2.191,0,0,1-.371,1.057,2.647,2.647,0,0,1-1.036.9,3.657,3.657,0,0,1-1.716.367Zm8.137,0a3.058,3.058,0,0,1-2.3-.889,3.645,3.645,0,0,1-.945-2.429l-.014-.476.014-.462a3.692,3.692,0,0,1,.959-2.408,3.385,3.385,0,0,1,4.683.091,3.937,3.937,0,0,1,.854,2.667v.238a.311.311,0,0,1-.322.322H30.956v.126a2.594,2.594,0,0,0,.553,1.547,1.646,1.646,0,0,0,1.351.637,1.96,1.96,0,0,0,1.057-.259,2.076,2.076,0,0,0,.609-.539.815.815,0,0,1,.189-.2.525.525,0,0,1,.231-.035h.686a.317.317,0,0,1,.21.07.241.241,0,0,1,.084.2,1.232,1.232,0,0,1-.385.742,3.169,3.169,0,0,1-1.078.749,3.8,3.8,0,0,1-1.589.308Zm1.918-4.312v-.042a2.326,2.326,0,0,0-.525-1.575A1.764,1.764,0,0,0,32.86,13.6a1.722,1.722,0,0,0-1.393.609,2.367,2.367,0,0,0-.511,1.575v.042ZM40.9,20.14a2.616,2.616,0,0,1-2.2-.952,4,4,0,0,1-.784-2.408l-.014-.42.014-.42a4.006,4.006,0,0,1,.784-2.4,2.608,2.608,0,0,1,2.2-.959A2.758,2.758,0,0,1,43.167,13.6V10.38a.311.311,0,0,1,.322-.322h.672a.311.311,0,0,1,.322.322v9.3a.311.311,0,0,1-.322.322h-.63a.311.311,0,0,1-.322-.322v-.59A2.748,2.748,0,0,1,40.9,20.14Zm.294-1.134a1.7,1.7,0,0,0,1.449-.637,2.66,2.66,0,0,0,.525-1.519q.014-.154.014-.532t-.014-.546a2.339,2.339,0,0,0-.532-1.442,1.757,1.757,0,0,0-1.442-.616,1.682,1.682,0,0,0-1.449.616,2.878,2.878,0,0,0-.5,1.624l-.014.406q0,2.646,1.962,2.646Z" transform="translate(982.541 2540.598)" fill="#455666"></path><g transform="translate(855.777 2394.63)"><g transform="translate(57.4)"><path d="M221.87,117.877l-.342,2.391-.342,2.39H79.777l.342-2.39.342-2.391a8.48,8.48,0,0,1,2.857-5.127,8.328,8.328,0,0,1,5.431-2.122h126.9a6.242,6.242,0,0,1,4.824,2.122,6.373,6.373,0,0,1,1.4,5.127Z" transform="translate(-79.452 -110.346)" fill="#0c7ff2"></path><path d="M221.548,123.042H79.57l.364-2.551.366-2.552a8.755,8.755,0,0,1,2.955-5.294,8.615,8.615,0,0,1,5.611-2.2H215.772a6.949,6.949,0,0,1,2.8.565,6.211,6.211,0,0,1,2.216,1.634,6.281,6.281,0,0,1,1.315,2.464,7.126,7.126,0,0,1,.163,2.912l-.14-.019-.138-.02.138.02.14.019-.358,2.512Zm-141.327-.565H221.059l.326-2.269.326-2.269a6.571,6.571,0,0,0-.147-2.674,5.728,5.728,0,0,0-1.2-2.253,5.664,5.664,0,0,0-2.023-1.484,6.408,6.408,0,0,0-2.566-.516H88.866a8.052,8.052,0,0,0-5.246,2.056,8.2,8.2,0,0,0-2.762,4.952l-.319,2.23Z" transform="translate(-79.57 -110.448)" fill="#24313e"></path></g><g transform="translate(47.224 12.025)"><path d="M224.894,118.293l-5.072,35.473-5.072,35.471a8.487,8.487,0,0,1-2.856,5.125,8.33,8.33,0,0,1-5.431,2.123H79.558a6.241,6.241,0,0,1-4.824-2.123,6.374,6.374,0,0,1-1.387-5.125l5.07-35.471,5.072-35.473h141.4Z" transform="translate(-72.985 -118.007)" fill="#ebf0f5"></path><path d="M206.564,196.873H79.658a6.955,6.955,0,0,1-2.8-.566,6.22,6.22,0,0,1-2.216-1.632,6.3,6.3,0,0,1-1.315-2.465,7.153,7.153,0,0,1-.163-2.912l5.09-35.6,5.089-35.594H225.321l-.024.163-.024.165L220.2,153.91l-5.072,35.471a8.771,8.771,0,0,1-2.955,5.294A8.619,8.619,0,0,1,206.564,196.873ZM83.835,118.681l-5.061,35.351L73.72,189.38a6.57,6.57,0,0,0,.149,2.674,5.707,5.707,0,0,0,1.2,2.253,5.644,5.644,0,0,0,2.024,1.484,6.4,6.4,0,0,0,2.564.516h126.9a8.052,8.052,0,0,0,5.246-2.056,8.2,8.2,0,0,0,2.763-4.952l5.048-35.31,5.048-35.311H83.835Z" transform="translate(-73.085 -118.111)" fill="#24313e"></path></g><g transform="translate(59.815)"><path d="M223.407,117.877l-.342,2.391-.341,2.39H81.318l.342-2.39.34-2.391a8.48,8.48,0,0,1,2.857-5.127,8.328,8.328,0,0,1,5.431-2.122h126.9a6.245,6.245,0,0,1,4.824,2.122,6.378,6.378,0,0,1,1.395,5.127Z" transform="translate(-80.99 -110.346)" fill="#0c7ff2"></path><path d="M223.087,123.042H81.109l.366-2.551.364-2.552a8.771,8.771,0,0,1,2.955-5.294,8.6,8.6,0,0,1,5.613-2.2h126.9a6.956,6.956,0,0,1,2.8.565,6.225,6.225,0,0,1,2.216,1.634,6.3,6.3,0,0,1,1.315,2.464,7.159,7.159,0,0,1,.163,2.914l-.14-.02-.14-.019.14.019.14.02-.359,2.512ZM81.76,122.477H222.6l.328-2.269.326-2.269a6.626,6.626,0,0,0-.147-2.674,5.684,5.684,0,0,0-3.223-3.738,6.408,6.408,0,0,0-2.566-.516H90.411a8.052,8.052,0,0,0-5.246,2.056,8.205,8.205,0,0,0-2.763,4.952l-.319,2.23Z" transform="translate(-81.109 -110.448)" fill="#24313e"></path></g><g transform="translate(49.64 12.026)"><path d="M226.435,118.293l-5.072,35.473-5.072,35.471a8.489,8.489,0,0,1-2.857,5.125A8.327,8.327,0,0,1,208,196.485H81.1a6.236,6.236,0,0,1-4.824-2.123,6.375,6.375,0,0,1-1.389-5.125l5.072-35.471,5.072-35.473h141.4Z" transform="translate(-74.525 -118.009)" fill="#ebf0f5"></path><path d="M208.1,196.872H81.2a6.976,6.976,0,0,1-2.8-.567,6.207,6.207,0,0,1-2.216-1.632,6.281,6.281,0,0,1-1.315-2.464,7.131,7.131,0,0,1-.163-2.914L79.792,153.7l5.089-35.592H226.859l-.022.163-.024.163L221.741,153.9l-5.07,35.471a8.781,8.781,0,0,1-2.956,5.3,8.618,8.618,0,0,1-5.615,2.2ZM85.368,118.68l-5.056,35.351L75.259,189.38a6.569,6.569,0,0,0,.148,2.674,5.687,5.687,0,0,0,3.222,3.738,6.408,6.408,0,0,0,2.566.516H208.1a8.052,8.052,0,0,0,5.246-2.056,8.2,8.2,0,0,0,2.763-4.952l5.048-35.31,5.048-35.311H85.368Z" transform="translate(-74.625 -118.112)" fill="#24313e"></path></g><g transform="translate(88.858 15.474)"><path d="M188.488,191h-85.98a2.68,2.68,0,0,1-2.076-.915,2.737,2.737,0,0,1-.6-2.208l4.593-32.135,4.6-32.134a3.658,3.658,0,0,1,1.23-2.208,3.584,3.584,0,0,1,2.338-.915H203.1a2.683,2.683,0,0,1,2.076.915,2.748,2.748,0,0,1,.6,2.208L201.5,153.482l-4.27,29.871a8.953,8.953,0,0,1-3.014,5.409A8.79,8.79,0,0,1,188.488,191Z" transform="translate(-99.516 -120.207)" fill="#d9dee5"></path><path d="M188.59,191.388H102.61a3.167,3.167,0,0,1-1.273-.259,2.852,2.852,0,0,1-1.607-1.864,3.219,3.219,0,0,1-.077-1.323l4.595-32.135,4.6-32.134a3.933,3.933,0,0,1,1.328-2.377,3.868,3.868,0,0,1,2.52-.987H203.2a3.166,3.166,0,0,1,1.273.257,2.858,2.858,0,0,1,1.608,1.864,3.215,3.215,0,0,1,.074,1.323l-4.27,29.873-4.27,29.871a9.228,9.228,0,0,1-3.112,5.577,9.08,9.08,0,0,1-5.913,2.314Zm-75.9-70.516a3.306,3.306,0,0,0-2.155.844,3.37,3.37,0,0,0-1.135,2.035l-4.6,32.136-4.6,32.134a2.69,2.69,0,0,0,.058,1.084,2.3,2.3,0,0,0,.485.91,2.247,2.247,0,0,0,.816.6,2.589,2.589,0,0,0,1.037.207h85.98a8.5,8.5,0,0,0,5.542-2.172,8.67,8.67,0,0,0,2.92-5.235l4.27-29.871,4.271-29.871a2.688,2.688,0,0,0-.06-1.084,2.278,2.278,0,0,0-1.3-1.508,2.565,2.565,0,0,0-1.037-.209h-90.5Z" transform="translate(-99.617 -120.309)" fill="#24313e"></path></g><g transform="translate(63.496 20.735)"><path d="M108.5,128.166H85.513a1.862,1.862,0,0,1-1.439-.634A1.9,1.9,0,0,1,83.659,126h0a2.536,2.536,0,0,1,.852-1.528,2.486,2.486,0,0,1,1.619-.632h22.984a1.857,1.857,0,0,1,1.437.632,1.9,1.9,0,0,1,.414,1.528h0a2.526,2.526,0,0,1-.85,1.528,2.486,2.486,0,0,1-1.615.638Z" transform="translate(-83.354 -123.559)" fill="#455666"></path><path d="M108.6,128.552H85.614a2.276,2.276,0,0,1-.918-.187,2.062,2.062,0,0,1-1.16-1.345,2.3,2.3,0,0,1-.055-.952,2.8,2.8,0,0,1,.948-1.7,2.77,2.77,0,0,1,1.8-.706h22.984a2.273,2.273,0,0,1,.918.188,2.067,2.067,0,0,1,1.161,1.345,2.323,2.323,0,0,1,.053.953,2.814,2.814,0,0,1-.948,1.7,2.769,2.769,0,0,1-1.8.7Zm-22.364-4.325a2.2,2.2,0,0,0-1.434.562,2.256,2.256,0,0,0-.756,1.357,1.8,1.8,0,0,0,.038.714,1.513,1.513,0,0,0,.319.6,1.467,1.467,0,0,0,.535.391,1.674,1.674,0,0,0,.683.137H108.6a2.193,2.193,0,0,0,1.434-.563,2.247,2.247,0,0,0,.756-1.356,1.768,1.768,0,0,0-.038-.714,1.5,1.5,0,0,0-.854-.99,1.722,1.722,0,0,0-.683-.135Z" transform="translate(-83.455 -123.662)" fill="#24313e"></path></g><g transform="translate(59.868 46.108)"><path d="M106.184,144.335H83.2a1.866,1.866,0,0,1-1.439-.632,1.9,1.9,0,0,1-.414-1.528h0a2.54,2.54,0,0,1,.852-1.53,2.486,2.486,0,0,1,1.619-.632H106.8a1.862,1.862,0,0,1,1.437.632,1.9,1.9,0,0,1,.414,1.53h0a2.526,2.526,0,0,1-.85,1.528,2.493,2.493,0,0,1-1.617.632Z" transform="translate(-81.042 -139.728)" fill="#6b7e8f"></path><path d="M106.286,144.721H83.3a2.309,2.309,0,0,1-.918-.187,2.045,2.045,0,0,1-.727-.537,2.082,2.082,0,0,1-.435-.81,2.322,2.322,0,0,1-.053-.952,2.813,2.813,0,0,1,.948-1.7,2.773,2.773,0,0,1,1.8-.7H106.9a2.275,2.275,0,0,1,.916.187,2.068,2.068,0,0,1,1.16,1.345,2.325,2.325,0,0,1,.056.952,2.807,2.807,0,0,1-.949,1.7,2.77,2.77,0,0,1-1.8.7Zm-22.364-4.326a2.209,2.209,0,0,0-1.436.563,2.237,2.237,0,0,0-.755,1.356,1.767,1.767,0,0,0,.038.714,1.529,1.529,0,0,0,.317.6,1.467,1.467,0,0,0,.535.391,1.733,1.733,0,0,0,.683.137h22.984a2.209,2.209,0,0,0,1.436-.563,2.237,2.237,0,0,0,.755-1.356,1.8,1.8,0,0,0-.036-.714,1.532,1.532,0,0,0-.319-.6,1.485,1.485,0,0,0-.535-.391,1.727,1.727,0,0,0-.683-.137Z" transform="translate(-81.143 -139.831)" fill="#24313e"></path></g><g transform="translate(58.885 54.002)"><path d="M106.623,147.486H81.758a1.051,1.051,0,0,1-.816-.358,1.073,1.073,0,0,1-.235-.865h0a1.432,1.432,0,0,1,.482-.865,1.4,1.4,0,0,1,.916-.358h24.872a1.051,1.051,0,0,1,.816.358,1.077,1.077,0,0,1,.235.865h0a1.444,1.444,0,0,1-.482.865,1.411,1.411,0,0,1-.923.358Z" transform="translate(-80.417 -144.76)" fill="#f5f7f9"></path><path d="M106.723,147.872H81.861a1.43,1.43,0,0,1-.571-.116,1.31,1.31,0,0,1-.723-.838,1.475,1.475,0,0,1-.035-.592,1.715,1.715,0,0,1,.579-1.036,1.689,1.689,0,0,1,1.1-.428h24.862a1.406,1.406,0,0,1,.573.116,1.288,1.288,0,0,1,.722.838,1.441,1.441,0,0,1,.036.59,1.715,1.715,0,0,1-.579,1.036,1.683,1.683,0,0,1-1.1.43Zm-24.512-2.448a1.118,1.118,0,0,0-.736.287,1.145,1.145,0,0,0-.384.692.856.856,0,0,0,.017.351.765.765,0,0,0,.154.293.731.731,0,0,0,.262.19.84.84,0,0,0,.334.066H106.72a1.118,1.118,0,0,0,.736-.287,1.147,1.147,0,0,0,.386-.694.878.878,0,0,0-.019-.35.724.724,0,0,0-.154-.293.744.744,0,0,0-.26-.19.877.877,0,0,0-.336-.066Z" transform="translate(-80.516 -144.862)" fill="#24313e"></path></g><g transform="translate(58.078 59.634)"><path d="M106.108,151.075H81.244a1.047,1.047,0,0,1-.816-.356,1.077,1.077,0,0,1-.234-.865h0a1.424,1.424,0,0,1,.482-.865,1.4,1.4,0,0,1,.915-.358h24.862a1.057,1.057,0,0,1,.818.358,1.081,1.081,0,0,1,.234.865h0a1.436,1.436,0,0,1-.482.865A1.4,1.4,0,0,1,106.108,151.075Z" transform="translate(-79.901 -148.348)" fill="#f5f7f9"></path><path d="M106.209,151.461H81.347a1.4,1.4,0,0,1-.571-.116,1.289,1.289,0,0,1-.723-.838,1.475,1.475,0,0,1-.035-.592,1.723,1.723,0,0,1,.579-1.036,1.689,1.689,0,0,1,1.1-.428h24.862a1.406,1.406,0,0,1,.573.116,1.3,1.3,0,0,1,.723.838,1.475,1.475,0,0,1,.035.592,1.722,1.722,0,0,1-.579,1.036,1.69,1.69,0,0,1-1.1.428ZM81.7,149.013a1.119,1.119,0,0,0-.736.289,1.141,1.141,0,0,0-.384.692.849.849,0,0,0,.017.35.743.743,0,0,0,.154.293.731.731,0,0,0,.262.19.87.87,0,0,0,.334.066h24.862a1.118,1.118,0,0,0,.736-.287,1.147,1.147,0,0,0,.386-.692.884.884,0,0,0-.019-.351.717.717,0,0,0-.154-.292.694.694,0,0,0-.26-.19.823.823,0,0,0-.336-.067Z" transform="translate(-80.002 -148.451)" fill="#24313e"></path></g><g transform="translate(62.634 27.781)"><path d="M109.011,130.776H84.147a1.048,1.048,0,0,1-.816-.358,1.074,1.074,0,0,1-.234-.863h0a1.427,1.427,0,0,1,.482-.865,1.409,1.409,0,0,1,.915-.359h24.864a1.055,1.055,0,0,1,.816.359,1.076,1.076,0,0,1,.234.865h0a1.42,1.42,0,0,1-.482.863,1.4,1.4,0,0,1-.915.358Z" transform="translate(-82.805 -128.05)" fill="#f5f7f9"></path><path d="M109.111,131.16H84.251a1.4,1.4,0,0,1-.571-.116,1.269,1.269,0,0,1-.453-.334,1.313,1.313,0,0,1-.27-.5,1.447,1.447,0,0,1-.035-.592,1.715,1.715,0,0,1,.579-1.036,1.688,1.688,0,0,1,1.1-.428h24.864a1.394,1.394,0,0,1,.571.116,1.29,1.29,0,0,1,.723.838,1.414,1.414,0,0,1,.035.59,1.712,1.712,0,0,1-.577,1.036A1.684,1.684,0,0,1,109.111,131.16ZM84.6,128.712a1.114,1.114,0,0,0-.734.287,1.151,1.151,0,0,0-.386.694.878.878,0,0,0,.017.35.725.725,0,0,0,.416.483.846.846,0,0,0,.334.066h24.864a1.113,1.113,0,0,0,.734-.287,1.147,1.147,0,0,0,.386-.694.914.914,0,0,0-.017-.352.751.751,0,0,0-.155-.292.726.726,0,0,0-.26-.19.843.843,0,0,0-.334-.067H84.6Z" transform="translate(-82.906 -128.152)" fill="#24313e"></path></g><g transform="translate(61.828 33.413)"><path d="M108.5,134.366H83.634a1.054,1.054,0,0,1-.816-.358,1.085,1.085,0,0,1-.234-.865h0a1.427,1.427,0,0,1,.482-.865,1.4,1.4,0,0,1,.915-.358h24.864a1.053,1.053,0,0,1,.816.358,1.076,1.076,0,0,1,.234.865h0a1.428,1.428,0,0,1-.482.865A1.4,1.4,0,0,1,108.5,134.366Z" transform="translate(-82.29 -131.639)" fill="#f5f7f9"></path><path d="M108.6,134.751H83.735a1.4,1.4,0,0,1-.571-.116,1.3,1.3,0,0,1-.722-.836,1.421,1.421,0,0,1-.035-.592,1.7,1.7,0,0,1,.577-1.036,1.683,1.683,0,0,1,1.1-.43h24.864a1.432,1.432,0,0,1,.571.118,1.292,1.292,0,0,1,.453.334,1.307,1.307,0,0,1,.27.5,1.411,1.411,0,0,1,.033.59,1.747,1.747,0,0,1-1.676,1.464Zm-24.514-2.445a1.117,1.117,0,0,0-.734.287,1.151,1.151,0,0,0-.386.694.884.884,0,0,0,.017.351.722.722,0,0,0,.416.482.847.847,0,0,0,.334.066H108.6a1.114,1.114,0,0,0,.734-.287,1.143,1.143,0,0,0,.386-.692.885.885,0,0,0-.019-.352.713.713,0,0,0-.414-.482.82.82,0,0,0-.334-.066H84.085Z" transform="translate(-82.392 -131.741)" fill="#24313e"></path></g><g transform="translate(57.239 65.512)"><path d="M105.574,154.817H80.71a1.048,1.048,0,0,1-.816-.358,1.076,1.076,0,0,1-.234-.865h0a1.428,1.428,0,0,1,.482-.865,1.4,1.4,0,0,1,.915-.356h24.864a1.052,1.052,0,0,1,.816.356,1.079,1.079,0,0,1,.234.865h0a1.427,1.427,0,0,1-.482.865A1.4,1.4,0,0,1,105.574,154.817Z" transform="translate(-79.366 -152.096)" fill="#f5f7f9"></path><path d="M105.675,155.207H80.811a1.4,1.4,0,0,1-.571-.116,1.294,1.294,0,0,1-.723-.838,1.44,1.44,0,0,1-.033-.59,1.7,1.7,0,0,1,.577-1.036,1.683,1.683,0,0,1,1.1-.43h24.862a1.4,1.4,0,0,1,.571.116,1.294,1.294,0,0,1,.723.838,1.447,1.447,0,0,1,.035.592,1.717,1.717,0,0,1-.577,1.036A1.689,1.689,0,0,1,105.675,155.207Zm-24.514-2.448a1.117,1.117,0,0,0-.734.287,1.147,1.147,0,0,0-.386.694.878.878,0,0,0,.019.35.719.719,0,0,0,.414.483.854.854,0,0,0,.336.066h24.862a1.117,1.117,0,0,0,.734-.287,1.152,1.152,0,0,0,.386-.692.884.884,0,0,0-.017-.351.743.743,0,0,0-.154-.293.731.731,0,0,0-.262-.19.847.847,0,0,0-.334-.066Z" transform="translate(-79.468 -152.197)" fill="#24313e"></path></g><g transform="translate(54.969 79.484)"><path d="M103.44,167.674H79.585a1.379,1.379,0,0,1-1.061-.468,1.415,1.415,0,0,1-.306-1.13l.229-1.6.228-1.6a1.884,1.884,0,0,1,.631-1.13,1.844,1.844,0,0,1,1.2-.469h23.855a1.377,1.377,0,0,1,1.061.469,1.407,1.407,0,0,1,.306,1.13l-.229,1.6-.228,1.6a1.876,1.876,0,0,1-.631,1.13,1.834,1.834,0,0,1-1.2.468Z" transform="translate(-77.918 -161)" fill="#0c7ff2"></path><path d="M103.544,168.059H79.688a1.746,1.746,0,0,1-.708-.144,1.61,1.61,0,0,1-.9-1.04,1.813,1.813,0,0,1-.042-.734l.228-1.6.229-1.6a2.152,2.152,0,0,1,.727-1.3A2.117,2.117,0,0,1,80.6,161.1h23.855a1.768,1.768,0,0,1,.708.144,1.609,1.609,0,0,1,.9,1.04,1.786,1.786,0,0,1,.042.734l-.229,1.6-.228,1.6a2.147,2.147,0,0,1-.728,1.3A2.124,2.124,0,0,1,103.544,168.059Zm-22.944-6.4a1.561,1.561,0,0,0-1.014.4,1.589,1.589,0,0,0-.534.959l-.229,1.6-.228,1.6a1.229,1.229,0,0,0,.025.5,1.047,1.047,0,0,0,.22.414,1.027,1.027,0,0,0,.372.271,1.22,1.22,0,0,0,.472.094H103.54a1.557,1.557,0,0,0,1.014-.4,1.585,1.585,0,0,0,.534-.957l.228-1.6.229-1.6a1.229,1.229,0,0,0-.027-.5,1.029,1.029,0,0,0-.59-.686,1.168,1.168,0,0,0-.474-.094Z" transform="translate(-78.021 -161.101)" fill="#24313e"></path></g><g transform="translate(170.366 37.077)"><path d="M160.907,134.256a11.345,11.345,0,0,0-6.481,1.891,5.226,5.226,0,0,0,0,9.134,12.047,12.047,0,0,0,12.96,0,5.224,5.224,0,0,0,0-9.134,11.332,11.332,0,0,0-6.479-1.891Zm0,11.453a8.762,8.762,0,0,1-5.012-1.462,4.043,4.043,0,0,1,0-7.064,9.321,9.321,0,0,1,10.022,0,4.043,4.043,0,0,1,0,7.064,8.772,8.772,0,0,1-5.01,1.462Z" transform="translate(-151.457 -133.974)" fill="#f4e969"></path><path d="M161.008,147.555a11.582,11.582,0,0,1-6.677-1.976,5.482,5.482,0,0,1,0-9.528,12.269,12.269,0,0,1,13.354,0,5.48,5.48,0,0,1,0,9.528A11.582,11.582,0,0,1,161.008,147.555Zm0-12.916a11.092,11.092,0,0,0-6.277,1.811,4.959,4.959,0,0,0,0,8.733,11.782,11.782,0,0,0,12.553,0,4.959,4.959,0,0,0,0-8.733,11.08,11.08,0,0,0-6.276-1.811Zm0,11.453a9.01,9.01,0,0,1-5.208-1.55,4.3,4.3,0,0,1,0-7.46,9.54,9.54,0,0,1,10.418,0,4.3,4.3,0,0,1,0,7.46,9.018,9.018,0,0,1-5.21,1.551Zm0-9.989a8.521,8.521,0,0,0-4.81,1.382,3.775,3.775,0,0,0,0,6.66,9.065,9.065,0,0,0,9.621,0,3.775,3.775,0,0,0,0-6.66,8.536,8.536,0,0,0-4.811-1.384Z" transform="translate(-151.56 -134.076)" fill="#031439"></path></g><g transform="translate(170.366 37.993)"><path d="M160.908,134.841a11.346,11.346,0,0,0-6.481,1.891,5.222,5.222,0,0,0,0,9.133,12.047,12.047,0,0,0,12.96,0,5.223,5.223,0,0,0,0-9.133,11.332,11.332,0,0,0-6.479-1.891Zm0,11.454a8.786,8.786,0,0,1-5.012-1.462,4.043,4.043,0,0,1,0-7.064,9.315,9.315,0,0,1,10.022,0,4.043,4.043,0,0,1,0,7.064,8.771,8.771,0,0,1-5.01,1.461Z" transform="translate(-151.459 -134.558)" fill="#f4e969"></path><path d="M161.008,148.141a11.594,11.594,0,0,1-6.677-1.976,5.482,5.482,0,0,1,0-9.528,12.263,12.263,0,0,1,13.354,0,5.482,5.482,0,0,1,0,9.528A11.594,11.594,0,0,1,161.008,148.141Zm0-12.918a11.093,11.093,0,0,0-6.277,1.812,4.959,4.959,0,0,0,0,8.733,11.781,11.781,0,0,0,12.553,0,4.958,4.958,0,0,0,0-8.733A11.093,11.093,0,0,0,161.008,135.223Zm0,11.453a9.009,9.009,0,0,1-5.208-1.55,4.3,4.3,0,0,1,0-7.46,9.546,9.546,0,0,1,10.418,0,4.3,4.3,0,0,1,0,7.46,9.018,9.018,0,0,1-5.21,1.551Zm0-9.988a8.531,8.531,0,0,0-4.81,1.381,3.776,3.776,0,0,0,0,6.661,9.064,9.064,0,0,0,9.621,0,3.777,3.777,0,0,0,0-6.661,8.546,8.546,0,0,0-4.811-1.382Z" transform="translate(-151.56 -134.66)" fill="#031439"></path></g><g transform="translate(159.368 59.891)"><path d="M184.969,168.928a20.1,20.1,0,1,1-5.888-14.217,20.1,20.1,0,0,1,5.888,14.217Z" transform="translate(-144.434 -148.496)" fill="#f4e969"></path><path d="M164.983,189.434a20.409,20.409,0,1,1,14.41-5.979,20.409,20.409,0,0,1-14.41,5.979Zm0-40.21a19.847,19.847,0,1,0,14.01,5.814A19.847,19.847,0,0,0,164.983,149.224Z" transform="translate(-144.552 -148.615)" fill="#031439"></path></g><g transform="translate(159.367 63.149)"><path d="M184.968,171a20.1,20.1,0,1,1-5.888-14.215A20.1,20.1,0,0,1,184.968,171Z" transform="translate(-144.431 -150.572)" fill="#f4e969"></path><path d="M164.983,191.51a20.407,20.407,0,1,1,14.41-5.977,20.407,20.407,0,0,1-14.41,5.977Zm0-40.209a19.844,19.844,0,1,0,14.01,5.812A19.844,19.844,0,0,0,164.983,151.3Z" transform="translate(-144.551 -150.691)" fill="#031439"></path></g><g transform="translate(174.069 58.288)"><path d="M165.613,147.774v2.167c0,.421-.643.8-1.685,1.076a18.8,18.8,0,0,1-8.141,0c-1.042-.275-1.687-.653-1.687-1.076v-2.167Z" transform="translate(-153.818 -147.49)" fill="#f4e969"></path><path d="M159.96,151.849a16.915,16.915,0,0,1-4.146-.458c-1.135-.3-1.894-.755-1.894-1.346v-2.167a.285.285,0,0,1,.282-.284h11.515a.285.285,0,0,1,.282.284v2.167c0,.592-.759,1.044-1.9,1.346A16.9,16.9,0,0,1,159.96,151.849Zm-5.473-3.691v1.886c0,.217.469.527,1.387.783a18.451,18.451,0,0,0,8.169,0c.92-.256,1.387-.566,1.387-.783v-1.886H154.486Z" transform="translate(-153.92 -147.593)" fill="#031439"></path></g><g transform="translate(174.07 57.392)"><path d="M165.613,148.1c0,.245-.643.471-1.685.632a31.558,31.558,0,0,1-8.141,0c-1.042-.163-1.687-.386-1.687-.632s.645-.472,1.687-.634a31.838,31.838,0,0,1,8.141,0C164.967,147.626,165.613,147.851,165.613,148.1Z" transform="translate(-153.819 -146.919)" fill="#f4e969"></path><path d="M159.959,149.38c-.775,0-1.53-.024-2.227-.069s-1.337-.113-1.886-.2a4.855,4.855,0,0,1-1.6-.443c-.268-.157-.326-.319-.326-.471a.527.527,0,0,1,.326-.471,4.817,4.817,0,0,1,1.6-.441c.551-.082,1.191-.154,1.888-.2s1.451-.069,2.227-.069,1.528.024,2.227.069,1.337.111,1.888.2a4.817,4.817,0,0,1,1.6.441.5.5,0,0,1,0,.942,4.855,4.855,0,0,1-1.6.443c-.551.082-1.191.152-1.886.2S160.734,149.38,159.959,149.38Zm-5.411-1.178a5.922,5.922,0,0,0,1.77.408,32.464,32.464,0,0,0,7.281,0,.935.935,0,1,0,0-.816,32.461,32.461,0,0,0-7.281,0,5.921,5.921,0,0,0-1.77.408Zm10.9.064" transform="translate(-153.921 -147.022)" fill="#031439"></path></g><g transform="translate(171.85 55.021)"><path d="M168.022,145.691v2.887c0,.562-.858,1.069-2.247,1.434a25.025,25.025,0,0,1-10.843,0c-1.387-.367-2.245-.874-2.245-1.434v-2.887Z" transform="translate(-152.404 -145.409)" fill="#f4e969"></path><path d="M160.455,150.991A22.868,22.868,0,0,1,155,150.4c-1.494-.388-2.493-.965-2.493-1.723V145.79a.279.279,0,0,1,.281-.282h15.336a.279.279,0,0,1,.281.279v2.892c0,.758-1,1.335-2.493,1.723a22.943,22.943,0,0,1-5.457.589Zm-7.386-4.915v2.6c0,.364.7.8,1.979,1.142a24.712,24.712,0,0,0,10.816,0c1.274-.345,1.977-.781,1.977-1.142v-2.6Z" transform="translate(-152.506 -145.511)" fill="#031439"></path></g><g transform="translate(171.85 53.833)"><path d="M168.022,146.124c0,.326-.858.628-2.247.844a42.219,42.219,0,0,1-10.843,0c-1.387-.217-2.245-.515-2.245-.844s.858-.628,2.245-.844a42.219,42.219,0,0,1,10.843,0C167.163,145.5,168.022,145.794,168.022,146.124Z" transform="translate(-152.404 -144.654)" fill="#f4e969"></path><path d="M160.455,147.7c-1.031,0-2.032-.031-2.956-.091s-1.778-.148-2.508-.262a6.539,6.539,0,0,1-2.07-.562c-.345-.2-.416-.389-.416-.56s.071-.367.416-.56a6.539,6.539,0,0,1,2.07-.562c.734-.115,1.582-.2,2.508-.262s1.925-.091,2.956-.091,2.032.031,2.958.091,1.778.148,2.508.262a6.53,6.53,0,0,1,2.068.562c.347.193.416.389.416.56s-.069.367-.416.562a6.531,6.531,0,0,1-2.068.562c-.734.115-1.582.2-2.508.262S161.486,147.7,160.455,147.7Zm-7.367-1.477a5.278,5.278,0,0,0,2.209.6,42.982,42.982,0,0,0,10.317,0,1.188,1.188,0,1,0,0-1.2,42.82,42.82,0,0,0-10.317,0,5.273,5.273,0,0,0-2.209.6Zm14.76.033" transform="translate(-152.506 -144.754)" fill="#031439"></path></g><g transform="translate(177.263 49.859)"><path d="M160.643,142.4v5.014c0,.082-.251.155-.659.209a14.822,14.822,0,0,1-3.187,0c-.408-.053-.661-.127-.661-.209V142.4Z" transform="translate(-155.854 -142.12)" fill="#f4e969"></path><path d="M158.492,148.1a7.052,7.052,0,0,1-2.219-.218c-.317-.121-.317-.265-.317-.359V142.5a.283.283,0,0,1,.282-.282h4.508a.283.283,0,0,1,.282.282v5.014c0,.094,0,.238-.319.359A7.048,7.048,0,0,1,158.492,148.1Zm-1.971-.725a4.417,4.417,0,0,0,.686.105c.331.031.763.055,1.285.055s.956-.024,1.287-.055a4.391,4.391,0,0,0,.686-.1v-4.582H156.52v4.582Z" transform="translate(-155.956 -142.222)" fill="#031439"></path></g><g transform="translate(177.26 48.816)"><path d="M160.643,142.781c0,.289-.251.549-.659.739a4.3,4.3,0,0,1-3.187,0c-.408-.19-.661-.45-.661-.739s.253-.549.661-.738a4.3,4.3,0,0,1,3.187,0C160.392,142.231,160.643,142.493,160.643,142.781Z" transform="translate(-155.85 -141.454)" fill="#f4e969"></path><path d="M158.493,144.211a3.98,3.98,0,0,1-1.809-.38.979.979,0,0,1,0-1.894,4.5,4.5,0,0,1,3.62,0,.979.979,0,0,1,0,1.894A3.982,3.982,0,0,1,158.493,144.211Zm0-2.09a3.6,3.6,0,0,0-1.436.265c-.342.152-.535.342-.535.5s.193.347.535.5a4.029,4.029,0,0,0,2.873,0c.342-.151.535-.34.535-.5s-.193-.345-.535-.5a3.631,3.631,0,0,0-1.437-.265Z" transform="translate(-155.954 -141.557)" fill="#031439"></path></g><g transform="translate(175.01 46.85)"><path d="M163.717,140.482v2.887c0,.56-.505,1.067-1.32,1.434a8.846,8.846,0,0,1-6.376,0c-.816-.367-1.32-.874-1.32-1.434v-2.887Z" transform="translate(-154.416 -140.203)" fill="#f4e969"></path><path d="M159.309,145.782a8.042,8.042,0,0,1-3.4-.67c-.861-.414-1.389-.993-1.389-1.641v-2.884a.283.283,0,0,1,.282-.282h9.015a.283.283,0,0,1,.282.282v2.887c0,.648-.526,1.224-1.387,1.641a8.048,8.048,0,0,1-3.4.667Zm-4.224-4.916v2.6c0,.413.435.85,1.18,1.183a8.527,8.527,0,0,0,6.092,0c.745-.333,1.178-.769,1.178-1.183v-2.6Z" transform="translate(-154.52 -140.304)" fill="#031439"></path></g><g transform="translate(175.01 45.654)"><path d="M163.717,140.916c0,.325-.505.628-1.32.843a14.711,14.711,0,0,1-6.376,0c-.816-.215-1.32-.513-1.32-.843s.505-.628,1.32-.844a14.71,14.71,0,0,1,6.376,0C163.209,140.288,163.717,140.585,163.717,140.916Z" transform="translate(-154.416 -139.439)" fill="#f4e969"></path><path d="M159.311,142.494a13.479,13.479,0,0,1-3.259-.358c-.91-.245-1.532-.612-1.532-1.119s.621-.876,1.532-1.117a15.024,15.024,0,0,1,6.518,0c.909.245,1.53.61,1.53,1.117s-.621.876-1.53,1.119A13.48,13.48,0,0,1,159.311,142.494Zm0-2.387a12.292,12.292,0,0,0-3.157.355c-.709.193-1.069.421-1.069.557s.359.362,1.069.557a14.292,14.292,0,0,0,6.314,0c.708-.193,1.067-.422,1.067-.557s-.359-.364-1.067-.557a12.292,12.292,0,0,0-3.157-.355Z" transform="translate(-154.52 -139.542)" fill="#031439"></path></g><g transform="translate(162.18 65.961)"><path d="M181.145,169.987a17.3,17.3,0,1,1-5.065-12.232,17.3,17.3,0,0,1,5.065,12.232Z" transform="translate(-146.227 -152.366)" fill="#f5f7f9"></path><path d="M163.964,187.683a17.6,17.6,0,1,1,12.425-5.155A17.6,17.6,0,0,1,163.964,187.683Zm0-34.6a17.032,17.032,0,1,0,12.026,4.988,17.032,17.032,0,0,0-12.026-4.988Z" transform="translate(-146.344 -152.483)" fill="#24313e"></path></g><g transform="translate(178.335 70.276)"><path d="M157.321,155.413h0a.5.5,0,0,0-.5.5V167.75a.5.5,0,0,0,.5.5h0a.5.5,0,0,0,.5-.5V155.915a.5.5,0,0,0-.5-.5Z" transform="translate(-156.537 -155.131)" fill="#ff603d"></path><path d="M157.425,168.637a.788.788,0,0,1-.786-.785V156.018a.785.785,0,0,1,1.569,0v11.835A.787.787,0,0,1,157.425,168.637Zm0-12.838a.22.22,0,0,0-.221.22h0v11.833a.22.22,0,1,0,.439,0V156.019a.218.218,0,0,0-.217-.22Z" transform="translate(-156.639 -155.233)" fill="#24313e"></path></g><g transform="translate(179.664 82.914)"><path d="M170.505,163.969h0a.5.5,0,0,0-.5-.5H158.168a.5.5,0,0,0-.5.5h0a.5.5,0,0,0,.5.5H170a.505.505,0,0,0,.505-.5Z" transform="translate(-157.384 -163.185)" fill="#ff603d"></path><path d="M170.1,164.858H158.271a.785.785,0,1,1,0-1.571h11.835a.785.785,0,0,1,0,1.571Zm-11.835-1.006a.221.221,0,0,0,0,.441H170.1a.22.22,0,1,0,0-.441Z" transform="translate(-157.486 -163.287)" fill="#24313e"></path></g><g transform="translate(176.531 81.111)"><path d="M160.271,164.622A2.3,2.3,0,1,1,159.6,163,2.3,2.3,0,0,1,160.271,164.622Z" transform="translate(-155.384 -162.033)" fill="#ff603d"></path><path d="M158.078,167.308a2.585,2.585,0,1,1,1.825-.758,2.585,2.585,0,0,1-1.825.758Zm0-4.6a2.02,2.02,0,1,0,1.425.592,2.02,2.02,0,0,0-1.425-.592Z" transform="translate(-155.489 -162.138)" fill="#24313e"></path></g></g></g></g></svg>