<svg xmlns="http://www.w3.org/2000/svg" width="1079.776" height="891.382" viewBox="0 0 1079.776 891.382"><g transform="translate(0 0)"><rect width="1079.776" height="891.382" transform="translate(1079.776 891.382) rotate(180)" fill="none"></rect><path d="M534.882,420.84V549.791a18.626,18.626,0,0,1-18.626,18.626H359.1v-16.49H518.4V420.84Z" transform="translate(-120.223 -140.893)" fill="#2edeac" stroke="#000" stroke-miterlimit="10" stroke-width="1"></path><path d="M534.882,868.887V739.936a18.626,18.626,0,0,0-18.626-18.626H359.1v16.477H518.4v131.1Z" transform="translate(-120.223 -241.487)" fill="#2edeac" stroke="#000" stroke-miterlimit="10" stroke-width="1"></path><path d="M648.209,50.49A12.087,12.087,0,0,1,660.283,62.6l-.319,218.4a12.094,12.094,0,0,1-12.107,12.074l-144.75-.213A12.094,12.094,0,0,1,491,280.713l.253-149.672" transform="translate(-164.382 -16.904)" fill="#455666" opacity="0.33"></path><path d="M643.943,44.65a12.087,12.087,0,0,1,12.074,12.107l-.326,218.362a12.087,12.087,0,0,1-12.107,12.074l-144.75-.213a12.094,12.094,0,0,1-12.074-12.107l.259-143.512" transform="translate(-162.962 -14.948)" fill="#d9d9d9" stroke="#000" stroke-miterlimit="10" stroke-width="2"></path><path d="M536.908,89.639a11.435,11.435,0,0,1-11.448,11.4l-39.54,29.329-.279,143.473a12.087,12.087,0,0,0,12.074,12.127l146.612.22a7.1,7.1,0,0,0,7.111-7.091l.339-228.34a7.1,7.1,0,0,0-7.091-7.111l-70.958-.16" transform="translate(-162.587 -14.557)" fill="#ebf0f5" stroke="#24313e" stroke-miterlimit="10" stroke-width="2"></path><path d="M574.855,44.56V119.6a14.116,14.116,0,0,1-14.116,14.116H491.4a3.166,3.166,0,0,1-3.14-3.605h0Z" transform="translate(-163.456 -14.918)" fill="#455666" opacity="0.33"></path><path d="M486.575,130.732l65.443.1a22.331,22.331,0,0,0,22.358-22.3l.1-65.437a.326.326,0,0,0-.552-.233l-87.575,87.289a.326.326,0,0,0,.226.579Z" transform="translate(-162.784 -14.32)" fill="#fdfdfd" stroke="#000" stroke-miterlimit="10" stroke-width="2"></path><path d="M288.579,447.47A17.961,17.961,0,0,1,306.5,465.431l-.486,324.177a17.961,17.961,0,0,1-17.961,17.921l-214.863-.319A17.961,17.961,0,0,1,55.27,789.248L55.649,567" transform="translate(-18.504 -149.808)" fill="#455666" opacity="0.33"></path><path d="M282.229,438.8a17.961,17.961,0,0,1,17.921,17.961l-.486,324.17A17.961,17.961,0,0,1,281.7,798.892l-214.863-.326A17.961,17.961,0,0,1,48.92,780.605L49.3,567.518" transform="translate(-16.378 -146.906)" fill="#d9d9d9" stroke="#000" stroke-miterlimit="10" stroke-width="2"></path><path d="M123.307,505.593a16.97,16.97,0,0,1-17,16.95l-58.7,43.531L47.2,779.081a17.961,17.961,0,0,0,17.921,17.961l217.657.326a10.544,10.544,0,0,0,10.557-10.53l.525-338.965a10.55,10.55,0,0,0-10.53-10.564l-105.343-.239" transform="translate(-15.802 -146.327)" fill="#ebf0f5" stroke="#24313e" stroke-miterlimit="10" stroke-width="2"></path><path d="M179.136,436.67v113.4a21.34,21.34,0,0,1-21.34,21.34H53.059a4.789,4.789,0,0,1-4.743-5.468h0Z" transform="translate(-16.159 -146.193)" fill="#455666" opacity="0.33"></path><path d="M48.6,566.547l97.121.146A33.141,33.141,0,0,0,178.916,533.6l.146-97.121a.479.479,0,0,0-.818-.339L48.262,565.715a.479.479,0,0,0,.339.831Z" transform="translate(-16.106 -145.968)" fill="#fdfdfd" stroke="#000" stroke-miterlimit="10" stroke-width="2"></path><rect width="196.763" height="108.795" rx="24.01" transform="matrix(1, 0.003, -0.003, 1, 48.245, 534.617)" fill="#d9d9d9" stroke="#000" stroke-miterlimit="10" stroke-width="2"></rect><rect width="196.949" height="108.795" rx="24.01" transform="matrix(1, 0.003, -0.003, 1, 42.285, 534.794)" fill="#fdfdfd" stroke="#000" stroke-miterlimit="10" stroke-width="2"></rect><g transform="translate(55.777 539.466)"><path d="M1.32,0A.883.883,0,0,1,.682-.286.883.883,0,0,1,.4-.924a1.335,1.335,0,0,1,.044-.4L10.78-29.568a1.6,1.6,0,0,1,.572-.88A1.775,1.775,0,0,1,12.5-30.8h6.512a1.775,1.775,0,0,1,1.144.352,1.6,1.6,0,0,1,.572.88L31.02-1.32l.088.4a.883.883,0,0,1-.286.638A.931.931,0,0,1,30.14,0H24.728A1.368,1.368,0,0,1,23.32-.924L21.6-5.412H9.856L8.184-.924A1.4,1.4,0,0,1,6.732,0ZM19.844-11.748,15.752-23.364,11.66-11.748ZM35.684,0a1.055,1.055,0,0,1-.77-.33,1.055,1.055,0,0,1-.33-.77V-29.7a1.035,1.035,0,0,1,.33-.792,1.093,1.093,0,0,1,.77-.308H48q5.632,0,8.866,2.6T60.1-20.636q0,4.928-3.212,7.414T48-10.736H42.768V-1.1a1.035,1.035,0,0,1-.33.792A1.148,1.148,0,0,1,41.624,0Zm12.1-16.808a4.374,4.374,0,0,0,3.036-.99,3.735,3.735,0,0,0,1.1-2.926,3.989,3.989,0,0,0-1.034-2.882,4.109,4.109,0,0,0-3.1-1.078H42.636v7.876ZM65.428,0a1.055,1.055,0,0,1-.77-.33,1.055,1.055,0,0,1-.33-.77V-29.7a1.035,1.035,0,0,1,.33-.792,1.093,1.093,0,0,1,.77-.308h5.9a1.148,1.148,0,0,1,.814.308,1.035,1.035,0,0,1,.33.792V-1.1a1.035,1.035,0,0,1-.33.792A1.148,1.148,0,0,1,71.324,0Z" transform="translate(0.569 41) rotate(0.573)" fill="#24313e"></path><path d="M13.728.44A15.917,15.917,0,0,1,7.414-.7a9.781,9.781,0,0,1-4.07-3.014,7.063,7.063,0,0,1-1.5-4.026.883.883,0,0,1,.286-.638.931.931,0,0,1,.682-.286H5.06a1.148,1.148,0,0,1,1.144.88A5.211,5.211,0,0,0,8.47-4.62,9.017,9.017,0,0,0,13.728-3.3a9.576,9.576,0,0,0,5.5-1.3,4.185,4.185,0,0,0,1.848-3.63,3.317,3.317,0,0,0-.9-2.42,7.669,7.669,0,0,0-2.662-1.628q-1.76-.7-5.28-1.76A27.1,27.1,0,0,1,6.776-16.1,7.907,7.907,0,0,1,3.74-18.832a7.624,7.624,0,0,1-1.012-4.092,7.369,7.369,0,0,1,1.3-4.268,8.628,8.628,0,0,1,3.718-2.97,14.087,14.087,0,0,1,5.764-1.078,13.255,13.255,0,0,1,5.9,1.21,9.5,9.5,0,0,1,3.74,3.058,7.084,7.084,0,0,1,1.364,3.7.883.883,0,0,1-.242.616.879.879,0,0,1-.682.264H21.252a1.056,1.056,0,0,1-1.144-.836A4.369,4.369,0,0,0,18.04-26.29a7.964,7.964,0,0,0-4.532-1.21A8.4,8.4,0,0,0,8.8-26.356a3.807,3.807,0,0,0-1.716,3.388A3.7,3.7,0,0,0,7.9-20.5a6.651,6.651,0,0,0,2.486,1.694,42.612,42.612,0,0,0,4.884,1.65,32.7,32.7,0,0,1,5.9,2.09,8,8,0,0,1,3.212,2.684,7.267,7.267,0,0,1,1.056,4.07,7.538,7.538,0,0,1-3.168,6.424Q19.1.44,13.728.44ZM32.208,0a.984.984,0,0,1-.726-.286.984.984,0,0,1-.286-.726V-29.744a1.04,1.04,0,0,1,.286-.77.984.984,0,0,1,.726-.286H43.384q4.972,0,7.832,2.42a8.653,8.653,0,0,1,2.86,7q0,4.576-2.838,6.974t-7.854,2.4H35.6v11a.948.948,0,0,1-.308.726A1.059,1.059,0,0,1,34.54,0ZM43.164-15.708a7.159,7.159,0,0,0,4.862-1.452,5.327,5.327,0,0,0,1.65-4.224,5.435,5.435,0,0,0-1.628-4.246A7.072,7.072,0,0,0,43.164-27.1H35.552v11.4Z" transform="translate(0.111 86.747) rotate(0.573)" fill="#24313e"></path><path d="M4.73,0a.961.961,0,0,1-.71-.28.961.961,0,0,1-.28-.71V-29.068a1.017,1.017,0,0,1,.28-.752.961.961,0,0,1,.71-.28H22.489a.961.961,0,0,1,.709.28,1.017,1.017,0,0,1,.28.752v1.634a1,1,0,0,1-.258.709.945.945,0,0,1-.731.28H7.869v9.417H21.543a.961.961,0,0,1,.71.28,1.017,1.017,0,0,1,.279.753v1.591a.961.961,0,0,1-.279.71.961.961,0,0,1-.71.28H7.869v9.761H22.833a.989.989,0,0,1,.731.258.989.989,0,0,1,.258.731V-.989a.961.961,0,0,1-.279.71.961.961,0,0,1-.71.28Z" transform="translate(57.948 86.325) rotate(0.573)" fill="#24313e"></path><path d="M14.916.44q-5.9,0-8.954-3.168T2.684-11.484q-.044-1.188-.044-3.872,0-2.728.044-3.96a12.818,12.818,0,0,1,3.3-8.734q3.08-3.19,8.932-3.19a14.541,14.541,0,0,1,6.644,1.386,10.166,10.166,0,0,1,4.136,3.63,9.854,9.854,0,0,1,1.54,4.8v.088a.75.75,0,0,1-.286.594.963.963,0,0,1-.638.242h-2.42q-.88,0-1.1-1.012a7.338,7.338,0,0,0-2.684-4.642A8.962,8.962,0,0,0,14.916-27.5q-7.568,0-7.832,8.4-.044,1.188-.044,3.652t.044,3.74q.264,8.4,7.832,8.4A9.069,9.069,0,0,0,20.13-4.642a7.137,7.137,0,0,0,2.662-4.642,1.429,1.429,0,0,1,.4-.792,1.064,1.064,0,0,1,.7-.22h2.42a1.022,1.022,0,0,1,.682.242.686.686,0,0,1,.242.638,9.917,9.917,0,0,1-1.54,4.84A10.166,10.166,0,0,1,21.56-.946,14.541,14.541,0,0,1,14.916.44Z" transform="translate(85.338 87.599) rotate(0.573)" fill="#24313e"></path></g><rect width="36.68" height="10.138" transform="translate(360.105 132.284)" fill="#0062ff"></rect><rect width="102.336" height="10.138" transform="translate(360.105 149.785)" fill="#9caab8"></rect><rect width="102.336" height="10.138" transform="translate(360.105 167.294)" fill="#9caab8"></rect><rect width="102.336" height="10.138" transform="translate(360.105 184.802)" fill="#9caab8"></rect><rect width="102.336" height="10.138" transform="translate(360.105 202.31)" fill="#9caab8"></rect><rect width="102.336" height="10.138" transform="translate(360.105 219.812)" fill="#9caab8"></rect><rect width="102.336" height="10.138" transform="translate(360.105 237.32)" fill="#9caab8"></rect><path d="M648.209,932.39A12.087,12.087,0,0,1,660.283,944.5l-.319,218.362a12.094,12.094,0,0,1-12.107,12.073l-144.75-.213A12.093,12.093,0,0,1,491,1162.606l.253-149.672" transform="translate(-164.382 -312.155)" fill="#455666" opacity="0.33"></path><path d="M643.943,926.55a12.087,12.087,0,0,1,12.074,12.107l-.326,218.355a12.087,12.087,0,0,1-12.107,12.073l-144.75-.213a12.093,12.093,0,0,1-12.074-12.113l.259-143.533" transform="translate(-162.962 -310.199)" fill="#d9d9d9" stroke="#000" stroke-miterlimit="10" stroke-width="2"></path><path d="M536.908,971.529a11.435,11.435,0,0,1-11.448,11.422l-39.54,29.309-.279,143.472a12.087,12.087,0,0,0,12.074,12.107l146.612.219a7.1,7.1,0,0,0,7.111-7.091l.339-228.34a7.091,7.091,0,0,0-7.091-7.111l-70.958-.166" transform="translate(-162.587 -309.798)" fill="#ebf0f5" stroke="#24313e" stroke-miterlimit="10" stroke-width="2"></path><path d="M574.856,926.46v75.029a14.116,14.116,0,0,1-14.116,14.122H491.4a3.173,3.173,0,0,1-3.14-3.606h0Z" transform="translate(-163.456 -310.169)" fill="#455666" opacity="0.33"></path><path d="M486.58,1012.592l65.443.1a22.331,22.331,0,0,0,22.358-22.3l.1-65.437a.326.326,0,0,0-.552-.233l-87.575,87.3a.326.326,0,0,0,.226.572Z" transform="translate(-162.788 -309.557)" fill="#fdfdfd" stroke="#000" stroke-miterlimit="10" stroke-width="2"></path><rect width="36.68" height="10.138" transform="translate(360.105 718.926)" fill="#0062ff"></rect><rect width="102.336" height="10.138" transform="translate(360.105 736.434)" fill="#9caab8"></rect><rect width="102.336" height="10.138" transform="translate(360.105 753.943)" fill="#9caab8"></rect><rect width="102.336" height="10.138" transform="translate(360.105 771.451)" fill="#9caab8"></rect><rect width="102.336" height="10.138" transform="translate(360.105 788.953)" fill="#9caab8"></rect><rect width="102.336" height="10.138" transform="translate(360.105 806.461)" fill="#9caab8"></rect><rect width="102.336" height="10.138" transform="translate(360.105 823.969)" fill="#9caab8"></rect></g></svg>