<svg xmlns="http://www.w3.org/2000/svg" xmlns:xlink="http://www.w3.org/1999/xlink" width="105.171" height="105.074" viewBox="0 0 105.171 105.074"><defs><clipPath id="clip-path"><rect id="Rectangle_2547" data-name="Rectangle 2547" width="105.171" height="105.074" transform="translate(0 0)" fill="none"></rect></clipPath></defs><g id="Group_1843" data-name="Group 1843" transform="translate(136 244)"><g id="Group_1842" data-name="Group 1842" transform="translate(-136 -244)" clip-path="url(#clip-path)"><path id="Path_35067" data-name="Path 35067" d="M22.235,37.393V48.984c0,1.247,0,1.249-1.29,1.251-1.177,0-2.355.011-3.532,0-.968-.011-1-.034-1-.993-.007-2.76,0-5.519,0-8.279,0-1.1-.011-1.106-1.109-1.111q-4.195-.01-8.388,0c-1.045,0-1.057.016-1.061,1.043-.007,2.76,0,5.521,0,8.279,0,1.034-.016,1.05-1.045,1.059q-1.877.017-3.754,0c-.984-.009-1.036-.048-1.036-.971C.007,41.316.016,33.368,0,25.419c0-.663.215-.928.891-.912q2.04.051,4.084,0c.667-.016.9.224.889.9-.029,2.758-.016,5.519-.011,8.279,0,1.082.009,1.091,1.109,1.093q4.195.01,8.39,0c1.043,0,1.054-.016,1.057-1.036.007-2.724,0-5.446,0-8.168,0-1.036.011-1.048,1.039-1.057q1.877-.014,3.751,0c1.018.009,1.029.018,1.029,1.063q.007,5.905,0,11.811" transform="translate(0 30.942)" fill="#fff"></path><path id="Path_35068" data-name="Path 35068" d="M30.935,49.408A44.3,44.3,0,0,0,35.8,50.662a7.949,7.949,0,0,0,3.251-.312c2.269-.658,3.826-2.717,3.421-6.118a5.279,5.279,0,0,0-.507.391,7.077,7.077,0,0,1-11.594-1.688,11.967,11.967,0,0,1,.783-12.107A7.4,7.4,0,0,1,40.141,28.1a16.327,16.327,0,0,1,2.321,1.523,1.906,1.906,0,0,0,.14-.441c.093-1.152.088-1.156,1.186-1.163,1.14-.007,2.281-.011,3.421,0,1.027.011,1.052.032,1.054,1.061,0,4.819.018,9.639-.009,14.458a19.98,19.98,0,0,1-.244,3.512A8.845,8.845,0,0,1,40.945,54.5a17.011,17.011,0,0,1-8.836-.111c-1.177-.33-1.172-.348-1.174-1.6,0-1.163,0-2.324,0-3.383M42.676,37.125a18.013,18.013,0,0,0-.215-2.2,3.544,3.544,0,0,0-4.808-2.679,3.783,3.783,0,0,0-2.229,2.579,8.6,8.6,0,0,0-.258,4.251,3.644,3.644,0,0,0,7.227.337,20.214,20.214,0,0,0,.283-2.285" transform="translate(36.733 34.761)" fill="#fff"></path><path id="Path_35069" data-name="Path 35069" d="M32.806,34.3c.029-.529.066-.876.066-1.222,0-2.686,0-5.371,0-8.059,0-1.091.043-1.125,1.109-1.136q1.711-.014,3.423,0c1.125.007,1.136.018,1.138,1.206,0,2.245,0,4.489,0,6.734q0,9,0,18c0,1.211-.007,1.213-1.222,1.217-1.1,0-2.208.007-3.312,0s-1.109-.014-1.138-1.091c-.007-.29-.032-.577-.057-.993a2.815,2.815,0,0,0-.579.407c-2.3,2.923-8.817,3.2-11.336-1.43a10.126,10.126,0,0,1-1.125-3.315c-.482-3.358-.247-6.627,1.923-9.462a7.675,7.675,0,0,1,8.211-2.672A8.917,8.917,0,0,1,32.089,33.7a6.906,6.906,0,0,1,.717.6m.215,7.2a15.446,15.446,0,0,0-.14-1.749,3.632,3.632,0,0,0-3.236-3.125A3.533,3.533,0,0,0,25.9,39.081a7.85,7.85,0,0,0-.17,5.392,3.388,3.388,0,0,0,3.1,2.566,3.429,3.429,0,0,0,3.491-2.014,6.95,6.95,0,0,0,.7-3.527" transform="translate(24.707 30.143)" fill="#fff"></path><path id="Path_35070" data-name="Path 35070" d="M27.235,41.345v3.611c0,.7-.593.8-1.045.964a15.857,15.857,0,0,1-7.716.722A8.107,8.107,0,0,1,13.464,44.1a7.472,7.472,0,0,1-1.772-3.267,12.234,12.234,0,0,1,.5-8.107,8.92,8.92,0,0,1,9.2-5.127c4.276.367,7,3.12,7.381,7.512.084.953.02,1.914.084,2.867.052.758-.29.928-.98.923-3.2-.027-6.4-.014-9.6-.011-1.387,0-1.554.265-.953,1.532a3.647,3.647,0,0,0,2.575,2.064,9.925,9.925,0,0,0,6.455-.724c.226-.1.45-.208.889-.412m-7.016-6.1c.846,0,1.692,0,2.536,0,.428,0,.681-.143.717-.624a2.981,2.981,0,0,0-2.31-3.084,3.608,3.608,0,0,0-4.125,3.068c-.059.529.219.64.645.64h2.536" transform="translate(14.183 34.792)" fill="#fff"></path><path id="Path_35071" data-name="Path 35071" d="M50.35,38.886c-1.692,0-3.385-.011-5.075.007-.828.011-.889.124-.679.916.471,1.765,1.892,2.788,4.093,2.9a10.263,10.263,0,0,0,5.046-.921c.835-.4.907-.342.925.593.014.808-.016,1.618.009,2.428a.909.909,0,0,1-.679.993,14.248,14.248,0,0,1-10.655.05,7.1,7.1,0,0,1-4.055-4.695,12.487,12.487,0,0,1,.032-7.5A8.9,8.9,0,0,1,48.966,27.6a7.534,7.534,0,0,1,7.243,7.261c.093,1.059.034,2.131.07,3.2.023.618-.238.844-.853.835-1.69-.027-3.383-.009-5.075-.009m-2.638-3.634v0c.846,0,1.695.036,2.539-.023.256-.016.67-.256.71-.455A3.127,3.127,0,0,0,48.8,31.564a3.662,3.662,0,0,0-4.3,3.12c-.068.486.181.57.568.568.882,0,1.767,0,2.65,0" transform="translate(48.89 34.792)" fill="#fff"></path><path id="Path_35072" data-name="Path 35072" d="M29.323,14.438c.618-.656,1.007-1.143,1.468-1.545a7.212,7.212,0,0,1,11.578,2.8,12.762,12.762,0,0,1-.425,10.295,7.558,7.558,0,0,1-9.58,3.892,8.293,8.293,0,0,1-1.928-1.233,6.581,6.581,0,0,1-.867-.968c-.088.036-.176.072-.265.111-.018.342-.05.683-.05,1.027,0,2.758,0,5.519,0,8.277,0,1.249-.009,1.263-1.2,1.258-1.914-.007-1.733.2-1.733-1.692q-.007-11.919,0-23.841c0-1.278,0-1.283,1.26-1.283,1.855,0,1.668-.113,1.677,1.659,0,.319.034.638.068,1.242m10.84,5.8a22.346,22.346,0,0,0-.423-2.708A4.745,4.745,0,0,0,35.964,13.8a5.4,5.4,0,0,0-6.451,4.263,14.182,14.182,0,0,0-.091,5.48,5.143,5.143,0,0,0,9.711,1.317,11.4,11.4,0,0,0,1.029-4.616" transform="translate(33.227 13.942)" fill="#fff"></path><path id="Path_35073" data-name="Path 35073" d="M.743,20.873q0-5.851,0-11.7c0-1.115.009-1.127,1.077-1.131,2.136-.009,4.27-.023,6.4,0a9.336,9.336,0,0,1,5.344,1.477c2.346,1.613,3.045,3.984,2.921,6.65-.231,4.933-3.935,7.519-8.037,7.822-1.172.086-2.353.041-3.53.057-1.041.016-1.05.018-1.052,1.036-.007,2.5,0,5,0,7.507,0,1.134-.007,1.145-1.174,1.14C.4,33.727.756,33.924.747,31.8c-.018-3.643,0-7.286,0-10.931m3.125-4.887c0,1.468.011,2.937-.007,4.405-.007.525.115.855.722.835A39.213,39.213,0,0,0,8.651,21.1c2.6-.355,4.767-1.968,4.593-5.663-.122-2.636-1.724-4.263-4.715-4.518-1.276-.109-2.568-.038-3.851-.081-.629-.023-.833.244-.819.851.029,1.432.009,2.864.009,4.3" transform="translate(0.925 10.136)" fill="#fff"></path><path id="Path_35074" data-name="Path 35074" d="M53.076,25.788a16.927,16.927,0,0,1-.034,2.392,1.477,1.477,0,0,1-.722.858,10.834,10.834,0,0,1-6.514,1.233c-3.975-.391-6.351-2.586-7.15-6.514a11.591,11.591,0,0,1,1.278-8.842,8.083,8.083,0,0,1,9.222-3.523,6.607,6.607,0,0,1,4.837,5.358,33.07,33.07,0,0,1,.376,3.831c.072.72-.206.953-.939.946-3.5-.034-6.994-.016-10.49-.014-1.586,0-1.616.036-1.29,1.62a5.4,5.4,0,0,0,5.607,4.623A8.59,8.59,0,0,0,52.074,26.4c.247-.154.5-.3,1-.609m-6.661-6.853c1.362,0,2.724.007,4.084,0,.351,0,.722.072.749-.527a4.541,4.541,0,0,0-3.577-4.666c-3.127-.563-5.408,1.765-6.032,4.541-.143.634.253.656.692.656q2.043,0,4.084,0" transform="translate(48.387 13.966)" fill="#fff"></path><path id="Path_35075" data-name="Path 35075" d="M23.4,25.949a17.569,17.569,0,0,1-.032,2.256,1.271,1.271,0,0,1-.652.794,11.144,11.144,0,0,1-9.177.665A6.87,6.87,0,0,1,9.348,25.1,12.821,12.821,0,0,1,9.3,16.86a8.291,8.291,0,0,1,10.41-5.405,6.517,6.517,0,0,1,4.559,5.086,33.216,33.216,0,0,1,.43,4.043c.077.749-.265.934-.964.93-3.534-.027-7.066-.014-10.6-.011-1.425,0-1.446.041-1.195,1.405.9,4.862,4.989,5.4,8.143,4.5A27.017,27.017,0,0,0,23.4,25.949m-6.691-7.023q2.04,0,4.077,0c.437,0,.819-.041.794-.634a4.581,4.581,0,0,0-3.457-4.546c-3.335-.618-5.55,1.774-6.163,4.6-.124.586.3.572.672.575,1.355.007,2.715,0,4.077,0" transform="translate(10.913 13.973)" fill="#fff"></path><path id="Path_35076" data-name="Path 35076" d="M34.8,21.062a11.18,11.18,0,0,1-1.1,4.586c-1.79,3.469-4.978,4.946-8.917,4.623-4.675-.385-7.634-3.464-8.019-8.157a11.922,11.922,0,0,1,1.052-6.453c1.573-3.143,5.034-4.835,8.994-4.566,5.184.353,7.514,4,7.863,7.876.061.7.088,1.394.131,2.091m-15.1-.337a9.4,9.4,0,0,0,.826,3.779,5.665,5.665,0,0,0,5.767,3.236,5.114,5.114,0,0,0,4.865-3.659,10.5,10.5,0,0,0-.07-6.924,5.029,5.029,0,0,0-2.432-2.883,5.883,5.883,0,0,0-8.4,3.437,25.081,25.081,0,0,0-.552,3.014" transform="translate(21.083 13.974)" fill="#fff"></path><path id="Path_35077" data-name="Path 35077" d="M38.387,20.95q0,6.184,0,12.367c0,1.217-.007,1.226-1.222,1.224-2.041,0-1.758.147-1.76-1.778q-.01-12.038,0-24.072c0-1.292,0-1.3,1.267-1.3,1.846,0,1.717-.138,1.717,1.742V20.95" transform="translate(44.688 9.328)" fill="#fff"></path><path id="Path_35078" data-name="Path 35078" d="M47.554,2.561A2.561,2.561,0,1,1,44.992,0a2.562,2.562,0,0,1,2.561,2.561" transform="translate(53.574 0)" fill="#40a0c8"></path><path id="Path_35079" data-name="Path 35079" d="M43.326,2.561A2.561,2.561,0,1,1,40.764,0a2.562,2.562,0,0,1,2.561,2.561" transform="translate(48.236 0)" fill="#47a4ca"></path><path id="Path_35080" data-name="Path 35080" d="M39.1,2.561A2.561,2.561,0,1,1,36.537,0,2.562,2.562,0,0,1,39.1,2.561" transform="translate(42.899 0)" fill="#4ea7cc"></path><path id="Path_35081" data-name="Path 35081" d="M34.871,2.561A2.561,2.561,0,1,1,32.309,0a2.562,2.562,0,0,1,2.561,2.561" transform="translate(37.56 0)" fill="#55abce"></path><path id="Path_35082" data-name="Path 35082" d="M30.644,2.561A2.561,2.561,0,1,1,28.082,0a2.562,2.562,0,0,1,2.561,2.561" transform="translate(32.223 0)" fill="#5caed0"></path><path id="Path_35083" data-name="Path 35083" d="M26.416,2.561A2.561,2.561,0,1,1,23.854,0a2.562,2.562,0,0,1,2.561,2.561" transform="translate(26.885 0)" fill="#64b2d2"></path><path id="Path_35084" data-name="Path 35084" d="M22.189,2.561A2.561,2.561,0,1,1,19.627,0a2.562,2.562,0,0,1,2.561,2.561" transform="translate(21.548 0)" fill="#6bb5d4"></path><path id="Path_35085" data-name="Path 35085" d="M17.961,2.561A2.561,2.561,0,1,1,15.4,0a2.562,2.562,0,0,1,2.561,2.561" transform="translate(16.21 0)" fill="#72b8d6"></path><path id="Path_35086" data-name="Path 35086" d="M13.734,2.561A2.561,2.561,0,1,1,11.172,0a2.562,2.562,0,0,1,2.561,2.561" transform="translate(10.872 0)" fill="#79bcd8"></path><path id="Path_35087" data-name="Path 35087" d="M9.506,2.561A2.561,2.561,0,1,1,6.944,0,2.562,2.562,0,0,1,9.506,2.561" transform="translate(5.534 0)" fill="#80bfda"></path><path id="Path_35088" data-name="Path 35088" d="M5.279,2.561A2.561,2.561,0,1,1,2.717,0,2.562,2.562,0,0,1,5.279,2.561" transform="translate(0.197 0)" fill="#87c3dc"></path><path id="Path_35089" data-name="Path 35089" d="M.156,46.736a2.561,2.561,0,1,0,2.561-2.561A2.562,2.562,0,0,0,.156,46.736" transform="translate(0.197 55.776)" fill="#40a0c8"></path><path id="Path_35090" data-name="Path 35090" d="M4.383,46.736a2.561,2.561,0,1,0,2.561-2.561,2.562,2.562,0,0,0-2.561,2.561" transform="translate(5.534 55.776)" fill="#47a4ca"></path><path id="Path_35091" data-name="Path 35091" d="M8.611,46.736a2.561,2.561,0,1,0,2.561-2.561,2.562,2.562,0,0,0-2.561,2.561" transform="translate(10.872 55.776)" fill="#4ea7cc"></path><path id="Path_35092" data-name="Path 35092" d="M12.838,46.736A2.561,2.561,0,1,0,15.4,44.175a2.562,2.562,0,0,0-2.561,2.561" transform="translate(16.21 55.776)" fill="#55abce"></path><path id="Path_35093" data-name="Path 35093" d="M17.066,46.736a2.561,2.561,0,1,0,2.561-2.561,2.562,2.562,0,0,0-2.561,2.561" transform="translate(21.548 55.776)" fill="#5caed0"></path><path id="Path_35094" data-name="Path 35094" d="M21.293,46.736a2.561,2.561,0,1,0,2.561-2.561,2.562,2.562,0,0,0-2.561,2.561" transform="translate(26.885 55.776)" fill="#64b2d2"></path><path id="Path_35095" data-name="Path 35095" d="M25.521,46.736a2.561,2.561,0,1,0,2.561-2.561,2.562,2.562,0,0,0-2.561,2.561" transform="translate(32.223 55.776)" fill="#6bb5d4"></path><path id="Path_35096" data-name="Path 35096" d="M29.748,46.736a2.561,2.561,0,1,0,2.561-2.561,2.562,2.562,0,0,0-2.561,2.561" transform="translate(37.56 55.776)" fill="#72b8d6"></path><path id="Path_35097" data-name="Path 35097" d="M33.976,46.736a2.561,2.561,0,1,0,2.561-2.561,2.562,2.562,0,0,0-2.561,2.561" transform="translate(42.899 55.776)" fill="#79bcd8"></path><path id="Path_35098" data-name="Path 35098" d="M38.2,46.736a2.561,2.561,0,1,0,2.561-2.561A2.562,2.562,0,0,0,38.2,46.736" transform="translate(48.236 55.776)" fill="#80bfda"></path><path id="Path_35099" data-name="Path 35099" d="M42.431,46.736a2.561,2.561,0,1,0,2.561-2.561,2.562,2.562,0,0,0-2.561,2.561" transform="translate(53.574 55.776)" fill="#87c3dc"></path></g></g></svg>