<svg xmlns="http://www.w3.org/2000/svg" width="847.061" height="451.496" viewBox="0 0 847.061 451.496"><rect width="847.061" height="451.496" fill="none"></rect><rect width="433.832" height="94.474" rx="21.49" transform="translate(340.367 94.294)" fill="#455666" opacity="0.33"></rect><rect width="433.832" height="97.506" rx="21.49" transform="translate(340.384 86.13)" fill="#24313e" stroke="#031439" stroke-miterlimit="10" stroke-width="2"></rect><rect width="433.832" height="97.506" rx="21.49" transform="translate(332.925 86.13)" fill="#2edeac" stroke="#000" stroke-miterlimit="10" stroke-width="1"></rect><rect width="424.753" height="5.59" rx="2.795" transform="translate(338.473 86.147)" fill="#fff" opacity="0.5"></rect><rect width="424.753" height="5.59" rx="2.795" transform="translate(338.473 178.991)" opacity="0.21"></rect><path d="M549.138,309.023a2.52,2.52,0,0,1-1.125-2.251,2.68,2.68,0,0,1,.5-1.5,3.507,3.507,0,0,1,.752-.874l9.008-8.261-12.246-1.378-1-.248a2.218,2.218,0,0,1-1.5-1.378,2.612,2.612,0,0,1-.374-1.377,2.347,2.347,0,0,1,.122-.752l2.255-6.631a2.209,2.209,0,0,1,1.377-1.5,2.6,2.6,0,0,1,1.373-.378,2.029,2.029,0,0,1,.626.126l1,.5,10.759,6.131-2.52-12.137-.126-1a2.742,2.742,0,0,1,.815-1.877,2.57,2.57,0,0,1,1.94-.874h6.883a2.574,2.574,0,0,1,1.94.874,2.734,2.734,0,0,1,.811,1.877l-.122,1-2.52,12.137,10.885-6.131,1-.5a1.4,1.4,0,0,1,.626-.126,3.406,3.406,0,0,1,1.814.5,1.886,1.886,0,0,1,.941,1.377L585.284,291l.126.752a2.94,2.94,0,0,1-.563,1.68,2.579,2.579,0,0,1-1.44,1.067l-.874.248-12.389,1.377,9.134,8.261a3.507,3.507,0,0,1,.752.874,2.709,2.709,0,0,1,.5,1.5,2.52,2.52,0,0,1-1.125,2.251l-5.506,4.128a3.577,3.577,0,0,1-1.629.378,2.432,2.432,0,0,1-2.251-1,.361.361,0,0,0-.126-.248,2.832,2.832,0,0,1-.374-.626l-5.258-11.389-5.216,11.4a2.964,2.964,0,0,1-.378.626.357.357,0,0,0-.122.248,2.444,2.444,0,0,1-2.255,1,3.557,3.557,0,0,1-1.625-.378Z" transform="translate(-185.048 -158.559)" fill="#24313e" stroke="#031439" stroke-miterlimit="10" stroke-width="2"></path><path d="M682.005,309.023a2.52,2.52,0,0,1-1.125-2.251,2.709,2.709,0,0,1,.5-1.5,3.508,3.508,0,0,1,.752-.874l9.008-8.261-12.263-1.377-1-.248a2.222,2.222,0,0,1-1.5-1.377,2.612,2.612,0,0,1-.378-1.378,2.351,2.351,0,0,1,.126-.752l2.251-6.631a2.222,2.222,0,0,1,1.378-1.5,2.612,2.612,0,0,1,1.377-.378,2.074,2.074,0,0,1,.626.126l1,.5,10.764,6.131L691,277.114l-.126-1a2.721,2.721,0,0,1,.815-1.877,2.562,2.562,0,0,1,1.936-.874h6.9a2.57,2.57,0,0,1,1.94.874,2.742,2.742,0,0,1,.815,1.877l-.126,1-2.52,12.137,10.885-6.131,1-.5a1.374,1.374,0,0,1,.626-.126,3.419,3.419,0,0,1,1.814.5,1.881,1.881,0,0,1,.936,1.377L718.156,291l.126.752a2.911,2.911,0,0,1-.567,1.68,2.583,2.583,0,0,1-1.436,1.067l-.878.248-12.389,1.377,9.134,8.261a3.4,3.4,0,0,1,.752.873,2.708,2.708,0,0,1,.5,1.5,2.52,2.52,0,0,1-1.125,2.251l-5.506,4.128a3.557,3.557,0,0,1-1.625.378,2.439,2.439,0,0,1-2.255-1,.374.374,0,0,0-.122-.248,2.965,2.965,0,0,1-.378-.626l-5.254-11.389-5.258,11.389a3.22,3.22,0,0,1-.336.622.361.361,0,0,0-.126.248,2.436,2.436,0,0,1-2.251,1,3.59,3.59,0,0,1-1.629-.378Z" transform="translate(-262.106 -158.559)" fill="#24313e" stroke="#031439" stroke-miterlimit="10" stroke-width="2"></path><path d="M814.934,309.023a2.52,2.52,0,0,1-1.125-2.251,2.679,2.679,0,0,1,.5-1.5,3.507,3.507,0,0,1,.752-.874l9.029-8.261-12.263-1.377-1-.248a2.217,2.217,0,0,1-1.5-1.377,2.612,2.612,0,0,1-.374-1.377,2.345,2.345,0,0,1,.122-.752l2.255-6.631a2.209,2.209,0,0,1,1.378-1.5,2.6,2.6,0,0,1,1.373-.378,2.028,2.028,0,0,1,.626.126l.987.5,10.759,6.131-2.52-12.137-.122-1a2.734,2.734,0,0,1,.81-1.877,2.57,2.57,0,0,1,1.94-.874h6.9a2.574,2.574,0,0,1,1.94.874,2.742,2.742,0,0,1,.815,1.877l-.126,1-2.52,12.137,10.885-6.131,1-.5a1.4,1.4,0,0,1,.626-.126,3.406,3.406,0,0,1,1.814.5,1.877,1.877,0,0,1,.941,1.377L851.08,291l.126.752a2.94,2.94,0,0,1-.563,1.68,2.579,2.579,0,0,1-1.44,1.067l-.874.248-12.389,1.377,9.147,8.269a3.508,3.508,0,0,1,.752.874,2.71,2.71,0,0,1,.5,1.5,2.52,2.52,0,0,1-1.125,2.251l-5.506,4.128a3.57,3.57,0,0,1-1.625.378,2.435,2.435,0,0,1-2.255-1,.362.362,0,0,0-.126-.248,2.832,2.832,0,0,1-.374-.626l-5.258-11.389-5.254,11.389a3.217,3.217,0,0,1-.374.626.361.361,0,0,0-.126.248,2.444,2.444,0,0,1-2.255,1,3.557,3.557,0,0,1-1.625-.378Z" transform="translate(-339.222 -158.559)" fill="#24313e" stroke="#031439" stroke-miterlimit="10" stroke-width="2"></path><path d="M947.8,309.023a2.52,2.52,0,0,1-1.125-2.251,2.685,2.685,0,0,1,.5-1.5,3.431,3.431,0,0,1,.747-.874l9.012-8.261-12.263-1.377-1-.248a2.221,2.221,0,0,1-1.5-1.377,2.613,2.613,0,0,1-.378-1.378,2.351,2.351,0,0,1,.126-.752l2.251-6.631a2.222,2.222,0,0,1,1.378-1.5,2.612,2.612,0,0,1,1.378-.378,2.074,2.074,0,0,1,.626.126l1,.5,10.764,6.131-2.52-12.137-.126-1a2.721,2.721,0,0,1,.815-1.877,2.566,2.566,0,0,1,1.936-.874H966.3a2.57,2.57,0,0,1,1.94.874,2.742,2.742,0,0,1,.815,1.877l-.126,1-2.52,12.137,10.89-6.131,1-.5a1.382,1.382,0,0,1,.626-.126,3.406,3.406,0,0,1,1.814.5,1.881,1.881,0,0,1,.937,1.377L983.929,291l.126.752a2.911,2.911,0,0,1-.567,1.68,2.57,2.57,0,0,1-1.436,1.067l-.878.248-12.389,1.377,9.138,8.261a3.432,3.432,0,0,1,.748.874,2.679,2.679,0,0,1,.5,1.5,2.52,2.52,0,0,1-1.125,2.251l-5.506,4.128a3.557,3.557,0,0,1-1.625.378,2.432,2.432,0,0,1-2.251-1,.383.383,0,0,0-.126-.248,2.96,2.96,0,0,1-.378-.626l-5.254-11.389-5.258,11.389a3.006,3.006,0,0,1-.374.626.361.361,0,0,0-.126.248,2.436,2.436,0,0,1-2.251,1,3.591,3.591,0,0,1-1.629-.378Z" transform="translate(-416.275 -158.559)" fill="#24313e" stroke="#031439" stroke-miterlimit="10" stroke-width="2"></path><path d="M1080.705,309.023a2.52,2.52,0,0,1-1.125-2.251,2.68,2.68,0,0,1,.5-1.5,3.51,3.51,0,0,1,.752-.874l9.008-8.261-12.263-1.377-1-.248a2.226,2.226,0,0,1-1.5-1.377,2.649,2.649,0,0,1-.374-1.377,2.354,2.354,0,0,1,.126-.752l2.251-6.631a2.209,2.209,0,0,1,1.378-1.5,2.6,2.6,0,0,1,1.373-.378,2.029,2.029,0,0,1,.626.126l1,.5,10.759,6.131-2.52-12.137-.126-1a2.735,2.735,0,0,1,.811-1.877,2.571,2.571,0,0,1,1.94-.874h6.883a2.574,2.574,0,0,1,1.94.874,2.743,2.743,0,0,1,.815,1.877l-.126,1-2.52,12.137,10.885-6.131,1-.5a1.374,1.374,0,0,1,.626-.126,3.428,3.428,0,0,1,1.814.5,1.882,1.882,0,0,1,.937,1.377L1116.83,291l.126.752a2.906,2.906,0,0,1-.563,1.68,2.583,2.583,0,0,1-1.436,1.067l-.878.248-12.389,1.377,9.134,8.261a3.5,3.5,0,0,1,.752.874,2.709,2.709,0,0,1,.5,1.5,2.52,2.52,0,0,1-1.125,2.251l-5.468,4.137a3.57,3.57,0,0,1-1.625.378,2.435,2.435,0,0,1-2.255-1,.361.361,0,0,0-.126-.248,3.008,3.008,0,0,1-.374-.626l-5.279-11.389-5.254,11.389a3.225,3.225,0,0,1-.374.626.361.361,0,0,0-.126.248,2.441,2.441,0,0,1-2.251,1,3.566,3.566,0,0,1-1.63-.378Z" transform="translate(-493.368 -158.559)" fill="#24313e" stroke="#031439" stroke-miterlimit="10" stroke-width="2"></path><path d="M1213.59,309.023a2.52,2.52,0,0,1-1.13-2.251,2.683,2.683,0,0,1,.5-1.5,3.429,3.429,0,0,1,.748-.874l9.012-8.261-12.263-1.377-1-.248a2.222,2.222,0,0,1-1.5-1.377,2.612,2.612,0,0,1-.378-1.377,2.347,2.347,0,0,1,.126-.752l2.251-6.631a2.221,2.221,0,0,1,1.377-1.5,2.612,2.612,0,0,1,1.377-.378,2.073,2.073,0,0,1,.626.126l1,.5,10.764,6.131-2.52-12.137-.126-1a2.721,2.721,0,0,1,.815-1.877,2.57,2.57,0,0,1,1.94-.874h6.9a2.57,2.57,0,0,1,1.94.874,2.742,2.742,0,0,1,.815,1.877l-.126,1-2.52,12.137,10.89-6.131,1-.5a1.382,1.382,0,0,1,.626-.126,3.406,3.406,0,0,1,1.814.5,1.885,1.885,0,0,1,.941,1.377l2.251,6.631.126.752a2.939,2.939,0,0,1-.563,1.68,2.591,2.591,0,0,1-1.441,1.067l-.878.248-12.389,1.377,9.138,8.261a3.433,3.433,0,0,1,.748.874,2.683,2.683,0,0,1,.5,1.5,2.52,2.52,0,0,1-1.13,2.251l-5.506,4.128a3.557,3.557,0,0,1-1.625.378,2.431,2.431,0,0,1-2.251-1,.383.383,0,0,0-.126-.248,2.969,2.969,0,0,1-.378-.626l-5.254-11.389-5.254,11.389a2.97,2.97,0,0,1-.378.626.36.36,0,0,0-.126.248,2.436,2.436,0,0,1-2.251,1,3.556,3.556,0,0,1-1.625-.378Z" transform="translate(-570.444 -158.559)" fill="#24313e" stroke="#031439" stroke-miterlimit="10" stroke-width="2"></path><path d="M1346.485,309.023a2.52,2.52,0,0,1-1.126-2.251,2.71,2.71,0,0,1,.5-1.5,3.505,3.505,0,0,1,.752-.874l9.008-8.261-12.263-1.377-1-.248a2.234,2.234,0,0,1-1.5-1.377,2.651,2.651,0,0,1-.374-1.378,2.354,2.354,0,0,1,.126-.752l2.251-6.631a2.221,2.221,0,0,1,1.378-1.5,2.6,2.6,0,0,1,1.377-.378,2.076,2.076,0,0,1,.626.126l1,.5L1358,289.251l-2.52-12.137-.126-1a2.721,2.721,0,0,1,.815-1.877,2.562,2.562,0,0,1,1.936-.874h6.883a2.57,2.57,0,0,1,1.94.874,2.742,2.742,0,0,1,.815,1.877l-.126,1-2.52,12.137,10.885-6.131,1-.5a1.373,1.373,0,0,1,.626-.126,3.428,3.428,0,0,1,1.814.5,1.882,1.882,0,0,1,.937,1.377l2.255,6.631.122.752a2.907,2.907,0,0,1-.563,1.68,2.583,2.583,0,0,1-1.436,1.067l-.878.248-12.389,1.377,9.134,8.261a3.4,3.4,0,0,1,.752.874,2.71,2.71,0,0,1,.5,1.5,2.519,2.519,0,0,1-1.125,2.251l-5.506,4.128a3.57,3.57,0,0,1-1.625.378,2.435,2.435,0,0,1-2.255-1,.362.362,0,0,0-.126-.248,3.007,3.007,0,0,1-.374-.626l-5.254-11.389-5.258,11.389a3.214,3.214,0,0,1-.374.626.362.362,0,0,0-.126.248,2.441,2.441,0,0,1-2.251,1,3.565,3.565,0,0,1-1.629-.378Z" transform="translate(-647.531 -158.559)" fill="#24313e" stroke="#031439" stroke-miterlimit="10" stroke-width="2"></path><path d="M540.964,309.023a2.52,2.52,0,0,1-1.125-2.251,2.68,2.68,0,0,1,.5-1.5,3.4,3.4,0,0,1,.752-.874l9-8.261-12.263-1.378-1-.248a2.217,2.217,0,0,1-1.5-1.378,2.611,2.611,0,0,1-.374-1.377,2.347,2.347,0,0,1,.122-.752l2.255-6.631a2.209,2.209,0,0,1,1.378-1.5,2.6,2.6,0,0,1,1.373-.378,2.029,2.029,0,0,1,.626.126l1,.5,10.759,6.131-2.52-12.137-.126-1a2.742,2.742,0,0,1,.815-1.877,2.57,2.57,0,0,1,1.94-.874h6.883a2.575,2.575,0,0,1,1.94.874,2.734,2.734,0,0,1,.81,1.877l-.122,1-2.52,12.137,10.885-6.131,1-.5a1.394,1.394,0,0,1,.626-.126,3.406,3.406,0,0,1,1.814.5,1.886,1.886,0,0,1,.941,1.377L577.084,291l.126.752a2.94,2.94,0,0,1-.563,1.68,2.578,2.578,0,0,1-1.44,1.067l-.874.248-12.389,1.377,9.134,8.261a3.505,3.505,0,0,1,.752.874,2.709,2.709,0,0,1,.5,1.5,2.52,2.52,0,0,1-1.125,2.251l-5.506,4.128a3.591,3.591,0,0,1-1.629.378,2.432,2.432,0,0,1-2.251-1,.361.361,0,0,0-.126-.248,2.829,2.829,0,0,1-.374-.626l-5.258-11.389-5.254,11.389a2.964,2.964,0,0,1-.378.626.357.357,0,0,0-.122.248,2.444,2.444,0,0,1-2.255,1,3.557,3.557,0,0,1-1.625-.378Z" transform="translate(-180.292 -158.559)" fill="#e7e9f2" stroke="#24313e" stroke-miterlimit="10" stroke-width="2"></path><path d="M673.865,309.023a2.52,2.52,0,0,1-1.126-2.251,2.709,2.709,0,0,1,.5-1.5,3.508,3.508,0,0,1,.752-.874L683,296.134l-12.263-1.377-1-.248a2.234,2.234,0,0,1-1.5-1.377,2.65,2.65,0,0,1-.374-1.378,2.353,2.353,0,0,1,.126-.752l2.251-6.631a2.222,2.222,0,0,1,1.377-1.5,2.613,2.613,0,0,1,1.378-.378,2.076,2.076,0,0,1,.626.126l1.021.5,10.764,6.131-2.52-12.137-.126-1a2.722,2.722,0,0,1,.815-1.877,2.562,2.562,0,0,1,1.936-.874h6.883a2.57,2.57,0,0,1,1.94.874,2.742,2.742,0,0,1,.815,1.877l-.126,1-2.52,12.137,10.885-6.131,1-.5a1.374,1.374,0,0,1,.626-.126,3.427,3.427,0,0,1,1.814.5,1.881,1.881,0,0,1,.937,1.377L710.02,291l.126.752a2.91,2.91,0,0,1-.567,1.68,2.583,2.583,0,0,1-1.436,1.067l-.878.248-12.389,1.377,9.159,8.269a3.4,3.4,0,0,1,.752.874,2.709,2.709,0,0,1,.5,1.5,2.52,2.52,0,0,1-1.125,2.251l-5.506,4.128a3.557,3.557,0,0,1-1.625.378,2.439,2.439,0,0,1-2.255-1,.374.374,0,0,0-.122-.248,2.964,2.964,0,0,1-.378-.626l-5.254-11.389-5.27,11.389a3.222,3.222,0,0,1-.374.626.361.361,0,0,0-.126.248,2.436,2.436,0,0,1-2.251,1,3.566,3.566,0,0,1-1.629-.378Z" transform="translate(-257.385 -158.559)" fill="#e7e9f2" stroke="#24313e" stroke-miterlimit="10" stroke-width="2"></path><path d="M806.765,309.017a2.52,2.52,0,0,1-1.125-2.251,2.68,2.68,0,0,1,.5-1.5,3.507,3.507,0,0,1,.752-.874l9.008-8.261-12.263-1.377-1-.248a2.217,2.217,0,0,1-1.5-1.377,2.612,2.612,0,0,1-.374-1.378,2.345,2.345,0,0,1,.122-.752l2.255-6.631a2.209,2.209,0,0,1,1.378-1.5,2.6,2.6,0,0,1,1.373-.378,2.029,2.029,0,0,1,.626.126l1,.5,10.759,6.131-2.52-12.137-.126-1a2.742,2.742,0,0,1,.815-1.877,2.57,2.57,0,0,1,1.94-.874h6.883a2.574,2.574,0,0,1,1.94.874,2.742,2.742,0,0,1,.815,1.877l-.126,1-2.52,12.137,10.885-6.131,1-.5a1.394,1.394,0,0,1,.626-.126,3.406,3.406,0,0,1,1.814.5,1.886,1.886,0,0,1,.941,1.377l2.251,6.631.126.752a2.94,2.94,0,0,1-.563,1.68,2.579,2.579,0,0,1-1.44,1.067l-.874.248-12.389,1.378,9.134,8.261a3.507,3.507,0,0,1,.752.874,2.71,2.71,0,0,1,.5,1.5A2.52,2.52,0,0,1,837.015,309l-5.506,4.128a3.578,3.578,0,0,1-1.629.378,2.432,2.432,0,0,1-2.251-1,.361.361,0,0,0-.126-.248,2.829,2.829,0,0,1-.374-.626l-5.258-11.389-5.22,11.4a2.963,2.963,0,0,1-.378.626.374.374,0,0,0-.122.248,2.444,2.444,0,0,1-2.255,1,3.558,3.558,0,0,1-1.625-.378Z" transform="translate(-334.472 -158.554)" fill="#e7e9f2" stroke="#24313e" stroke-miterlimit="10" stroke-width="2"></path><path d="M939.705,309.023a2.52,2.52,0,0,1-1.125-2.251,2.709,2.709,0,0,1,.5-1.5,3.508,3.508,0,0,1,.752-.874l9.012-8.261-12.263-1.377-1-.248a2.222,2.222,0,0,1-1.5-1.377,2.613,2.613,0,0,1-.378-1.377,2.352,2.352,0,0,1,.126-.752l2.251-6.631a2.221,2.221,0,0,1,1.378-1.5,2.612,2.612,0,0,1,1.377-.378,2.075,2.075,0,0,1,.626.126l1,.5,10.764,6.131-2.52-12.137-.126-1a2.721,2.721,0,0,1,.815-1.877,2.566,2.566,0,0,1,1.936-.874h6.883a2.57,2.57,0,0,1,1.94.874,2.742,2.742,0,0,1,.815,1.877l-.126,1-2.52,12.137L969.2,283.12l1-.5a1.373,1.373,0,0,1,.626-.126,3.406,3.406,0,0,1,1.814.5,1.881,1.881,0,0,1,.936,1.377L975.839,291l.126.752a2.909,2.909,0,0,1-.567,1.68,2.57,2.57,0,0,1-1.436,1.067l-.878.248-12.38,1.386,9.134,8.261a3.4,3.4,0,0,1,.752.874,2.708,2.708,0,0,1,.5,1.5,2.52,2.52,0,0,1-1.125,2.251l-5.48,4.128a3.557,3.557,0,0,1-1.625.378,2.432,2.432,0,0,1-2.251-1,.382.382,0,0,0-.126-.248,2.967,2.967,0,0,1-.378-.626l-5.279-11.389-5.258,11.389a3.012,3.012,0,0,1-.374.626.361.361,0,0,0-.126.248,2.436,2.436,0,0,1-2.251,1,3.591,3.591,0,0,1-1.629-.378Z" transform="translate(-411.583 -158.559)" fill="#e7e9f2" stroke="#24313e" stroke-miterlimit="10" stroke-width="2"></path><path d="M1072.555,309.023a2.52,2.52,0,0,1-1.125-2.251,2.68,2.68,0,0,1,.5-1.5,3.505,3.505,0,0,1,.752-.874l9.008-8.261-12.263-1.377-1-.248a2.217,2.217,0,0,1-1.5-1.377,2.612,2.612,0,0,1-.374-1.377,2.465,2.465,0,0,1,.122-.752l2.255-6.631a2.209,2.209,0,0,1,1.378-1.5,2.6,2.6,0,0,1,1.373-.378,2.03,2.03,0,0,1,.626.126l1,.5,10.759,6.131-2.52-12.137-.122-1a2.735,2.735,0,0,1,.811-1.877,2.57,2.57,0,0,1,1.94-.874h6.921a2.574,2.574,0,0,1,1.94.874,2.742,2.742,0,0,1,.815,1.877l-.126,1-2.52,12.137,10.885-6.131,1-.5a1.373,1.373,0,0,1,.626-.126,3.427,3.427,0,0,1,1.814.5,1.881,1.881,0,0,1,.936,1.377l2.251,6.631.126.752a2.906,2.906,0,0,1-.563,1.68,2.579,2.579,0,0,1-1.44,1.067l-.874.248-12.389,1.377,9.134,8.261a3.5,3.5,0,0,1,.752.874,2.709,2.709,0,0,1,.5,1.5,2.52,2.52,0,0,1-1.125,2.251l-5.506,4.128a3.57,3.57,0,0,1-1.625.378,2.435,2.435,0,0,1-2.255-1,.361.361,0,0,0-.126-.248,2.829,2.829,0,0,1-.374-.626l-5.258-11.389-5.254,11.389a3.226,3.226,0,0,1-.374.626.361.361,0,0,0-.126.248,2.441,2.441,0,0,1-2.251,1,3.566,3.566,0,0,1-1.629-.378Z" transform="translate(-488.641 -158.559)" fill="#e7e9f2" stroke="#24313e" stroke-miterlimit="10" stroke-width="2"></path><path d="M1205.45,309.023a2.52,2.52,0,0,1-1.13-2.251,2.684,2.684,0,0,1,.5-1.5,3.434,3.434,0,0,1,.748-.874l9.012-8.261-12.263-1.377-1-.248a2.222,2.222,0,0,1-1.5-1.377,2.612,2.612,0,0,1-.378-1.377,2.351,2.351,0,0,1,.126-.752l2.251-6.631a2.221,2.221,0,0,1,1.377-1.5,2.612,2.612,0,0,1,1.378-.378,2.076,2.076,0,0,1,.626.126l1,.5,10.764,6.131-2.52-12.137-.126-1a2.722,2.722,0,0,1,.815-1.877,2.57,2.57,0,0,1,1.94-.874h6.879a2.57,2.57,0,0,1,1.94.874,2.742,2.742,0,0,1,.815,1.877l-.126,1-2.52,12.137,10.89-6.131,1-.5a1.382,1.382,0,0,1,.626-.126,3.406,3.406,0,0,1,1.814.5,1.886,1.886,0,0,1,.941,1.377l2.251,6.631.126.752a2.939,2.939,0,0,1-.563,1.68,2.591,2.591,0,0,1-1.44,1.067l-.878.248-12.389,1.377,9.138,8.261a3.433,3.433,0,0,1,.748.874,2.684,2.684,0,0,1,.5,1.5,2.52,2.52,0,0,1-1.13,2.251l-5.506,4.128a3.556,3.556,0,0,1-1.625.378,2.432,2.432,0,0,1-2.251-1,.381.381,0,0,0-.126-.248,2.958,2.958,0,0,1-.378-.626l-5.254-11.389-5.258,11.389a2.83,2.83,0,0,1-.374.626.362.362,0,0,0-.126.248,2.436,2.436,0,0,1-2.251,1,3.557,3.557,0,0,1-1.625-.378Z" transform="translate(-565.722 -158.559)" fill="#e7e9f2" stroke="#24313e" stroke-miterlimit="10" stroke-width="2"></path><path d="M1338.345,309.023a2.52,2.52,0,0,1-1.125-2.251,2.68,2.68,0,0,1,.5-1.5,3.505,3.505,0,0,1,.752-.874l9.008-8.261-12.263-1.377-1-.248a2.225,2.225,0,0,1-1.5-1.377,2.649,2.649,0,0,1-.374-1.377,2.351,2.351,0,0,1,.126-.752l2.251-6.631a2.221,2.221,0,0,1,1.377-1.5,2.6,2.6,0,0,1,1.373-.378,2.029,2.029,0,0,1,.626.126l1,.5,10.764,6.131-2.52-12.137-.126-1a2.721,2.721,0,0,1,.815-1.877,2.561,2.561,0,0,1,1.936-.874h6.883a2.57,2.57,0,0,1,1.94.874,2.742,2.742,0,0,1,.815,1.877l-.126,1-2.52,12.137,10.936-6.131,1-.5a1.373,1.373,0,0,1,.626-.126,3.428,3.428,0,0,1,1.814.5,1.881,1.881,0,0,1,.936,1.377l2.255,6.631.122.752a2.906,2.906,0,0,1-.563,1.68,2.583,2.583,0,0,1-1.436,1.067l-.878.248-12.389,1.377,9.134,8.261a3.4,3.4,0,0,1,.752.874,2.708,2.708,0,0,1,.5,1.5,2.519,2.519,0,0,1-1.125,2.251l-5.506,4.128a3.569,3.569,0,0,1-1.625.378,2.435,2.435,0,0,1-2.255-1,.361.361,0,0,0-.126-.248,3.018,3.018,0,0,1-.374-.626l-5.254-11.389-5.258,11.389a3.214,3.214,0,0,1-.374.626.361.361,0,0,0-.126.248,2.441,2.441,0,0,1-2.251,1,3.565,3.565,0,0,1-1.629-.378Z" transform="translate(-642.809 -158.559)" fill="#e7e9f2" stroke="#24313e" stroke-miterlimit="10" stroke-width="2"></path><path d="M1009.977,173.156v93.471H989.722V176.008a55.454,55.454,0,0,0-110.907,0v90.619H858.56V173.156a75.708,75.708,0,0,1,151.417,0Z" transform="translate(-367.998 -56.525)" fill="#455666" opacity="0.33"></path><rect width="209.535" height="191.746" rx="23.75" transform="translate(464.759 208.653)" fill="#455666" opacity="0.33"></rect><path d="M988.571,173.156v93.471H968.312V176.008a55.452,55.452,0,0,0-110.9,0v90.619H837.15V173.156a75.711,75.711,0,0,1,151.421,0Z" transform="translate(-355.58 -56.525)" fill="#9caab8" stroke="#24313e" stroke-miterlimit="10" stroke-width="2"></path><path d="M965.087,173.156v93.471h-20.25V176.008a55.452,55.452,0,0,0-110.9,0v90.619H813.67V173.156a75.708,75.708,0,1,1,151.417.008Z" transform="translate(-341.961 -56.525)" fill="#d9dee5" stroke="#24313e" stroke-miterlimit="10" stroke-width="2"></path><rect width="209.535" height="191.746" rx="23.75" transform="translate(455.772 208.653)" fill="#9caab8" stroke="#24313e" stroke-miterlimit="10" stroke-width="2"></rect><rect width="209.535" height="191.746" rx="23.75" transform="translate(438.024 209.061)" fill="#ebf0f5" stroke="#24313e" stroke-miterlimit="10" stroke-width="2"></rect><path d="M951.539,549.72a4.468,4.468,0,0,0-2.793-3.561l-.239-.088a4.507,4.507,0,0,0-1.718-.227c-35.734,2.243-50.971-4.741-57.152-9.714-.134-.1-.26-.21-.386-.315a2.465,2.465,0,0,0-3.183,0l-.42.323c-6.421,5.161-22.539,12.481-61.251,9.424,0,0-20.809,107.93,61.251,147.919.659.319,1.319.63,1.986.941.672-.311,1.331-.621,1.986-.941C962.08,658.183,954.348,569.924,951.539,549.72ZM891.9,604.676v42.466h-9.5V604.676a12.557,12.557,0,1,1,9.5,0Z" transform="translate(-346.815 -310.456)" fill="#0062ff" stroke="#24313e" stroke-miterlimit="10" stroke-width="2"></path><path d="M952.018,546.147c-36.784,10.5-61.1-7.454-61.1-7.454-36.957,21.674-63.238,6.85-63.238,6.85,38.712,3.057,54.83-4.263,61.251-9.424l.42-.323a2.465,2.465,0,0,1,3.183,0c.126.1.252.21.386.315,6.19,4.972,21.418,11.956,57.161,9.714a4.506,4.506,0,0,1,1.718.227Z" transform="translate(-350.087 -310.444)" fill="#fff" opacity="0.5"></path><path d="M965.114,173.152V179.9a75.7,75.7,0,1,0-151.4,0v-6.745a75.713,75.713,0,0,1,151.425.013Z" transform="translate(-341.984 -56.525)" fill="#fff" opacity="0.5"></path><path d="M955.235,945.679l-201.2.748a.525.525,0,0,1-.319-.109l-5.409-4.2a.517.517,0,0,1,.319-.928H958.746a1.146,1.146,0,0,1,.588,2.125L955.52,945.6A.5.5,0,0,1,955.235,945.679Z" transform="translate(-303.929 -545.927)" fill="#455666" opacity="0.33"></path><path d="M842.066,492.859H814.349c-.894-2.247,0,.071,0,0l-.668-2.07a1.957,1.957,0,0,1,.046-.928h29.885a4.426,4.426,0,0,1,.084,2.121l-.13.878C843.981,491.435,842.083,492.859,842.066,492.859Z" transform="translate(-341.947 -284.138)" fill="#455666" opacity="0.33"></path><path d="M1154.247,492.859h-27.717c-.895-2.247,0,.071,0,0l-.668-2.07a1.957,1.957,0,0,1,.046-.928h29.884a4.426,4.426,0,0,1,.084,2.121l-.13.878C1156.157,491.435,1154.259,492.859,1154.247,492.859Z" transform="translate(-523.023 -284.138)" fill="#455666" opacity="0.33"></path><g transform="translate(438.961 210.224)" opacity="0.39"><path d="M735.723,670.043h0a1.449,1.449,0,0,1-.034-.328V515.232a14.338,14.338,0,0,1,14.363-14.279L929.1,500.58a1.68,1.68,0,0,1,.668.143l3.217,1.487a1.579,1.579,0,0,1-.626,3.011l-182.3,3.973a6.064,6.064,0,0,0-6.077,6.043l-5.132,154.546a1.579,1.579,0,0,1-3.12.26Z" transform="translate(-735.69 -500.58)" fill="#ebf0f5"></path></g></svg>