<svg xmlns="http://www.w3.org/2000/svg" width="1081.151" height="892.517" viewBox="0 0 1081.151 892.517"><rect width="1081.151" height="892.517" fill="none"></rect><path d="M1326.636,52.17a15.432,15.432,0,0,1,15.413,15.453l-.413,278.738a15.433,15.433,0,0,1-15.459,15.413l-184.771-.273A15.432,15.432,0,0,1,1126,346.041l.326-191.092" transform="translate(-376.02 -17.422)" fill="#455666" opacity="0.33"></path><path d="M1321.183,44.72A15.439,15.439,0,0,1,1336.6,60.179l-.42,278.738a15.433,15.433,0,0,1-15.453,15.406l-184.778-.273a15.433,15.433,0,0,1-15.406-15.459l.326-183.219" transform="translate(-374.196 -14.934)" fill="#d9d9d9" stroke="#000" stroke-miterlimit="10" stroke-width="2"></path><path d="M1184.557,102.173a14.6,14.6,0,0,1-14.62,14.573l-50.474,37.446-.353,183.166a15.433,15.433,0,0,0,15.412,15.453l187.162.28a9.065,9.065,0,0,0,9.078-9.052l.433-291.473a9.065,9.065,0,0,0-9.052-9.078l-90.584-.206" transform="translate(-373.719 -14.453)" fill="#ebf0f5" stroke="#24313e" stroke-miterlimit="10" stroke-width="2"></path><path d="M1232.576,42.9v97.5a18.343,18.343,0,0,1-18.343,18.35h-90.084a4.123,4.123,0,0,1-4.076-4.662h0Z" transform="translate(-374.028 -14.326)" fill="#455666" opacity="0.33"></path><path d="M1120.325,154.57l83.53.127a28.507,28.507,0,0,0,28.547-28.461l.133-83.53a.406.406,0,0,0-.666-.293L1120.032,153.871a.413.413,0,0,0,.293.7Z" transform="translate(-373.988 -14.132)" fill="#fdfdfd" stroke="#000" stroke-miterlimit="10" stroke-width="2"></path><rect width="169.185" height="93.548" rx="24.01" transform="matrix(1, 0.003, -0.003, 1, 759.898, 238.53)" fill="#d9d9d9" stroke="#000" stroke-miterlimit="10" stroke-width="2"></rect><rect width="169.345" height="93.548" rx="24.01" transform="matrix(1, 0.003, -0.003, 1, 754.776, 238.682)" fill="#fdfdfd" stroke="#000" stroke-miterlimit="10" stroke-width="2"></rect><g transform="translate(763.321 249.612)"><path d="M1.02,0A.683.683,0,0,1,.527-.221.683.683,0,0,1,.306-.714,1.031,1.031,0,0,1,.34-1.02L8.33-22.848a1.236,1.236,0,0,1,.442-.68,1.372,1.372,0,0,1,.884-.272h5.032a1.372,1.372,0,0,1,.884.272,1.236,1.236,0,0,1,.442.68L23.97-1.02l.068.306a.683.683,0,0,1-.221.493A.719.719,0,0,1,23.29,0H19.108A1.057,1.057,0,0,1,18.02-.714L16.694-4.182H7.616L6.324-.714A1.082,1.082,0,0,1,5.2,0ZM15.334-9.078l-3.162-8.976L9.01-9.078ZM27.574,0a.815.815,0,0,1-.595-.255.815.815,0,0,1-.255-.6v-22.1a.8.8,0,0,1,.255-.612.845.845,0,0,1,.595-.238h9.52a10.652,10.652,0,0,1,6.851,2.006,7.056,7.056,0,0,1,2.5,5.848,6.8,6.8,0,0,1-2.482,5.729A10.971,10.971,0,0,1,37.094-8.3H33.048V-.85a.8.8,0,0,1-.255.612A.887.887,0,0,1,32.164,0Zm9.35-12.988a3.38,3.38,0,0,0,2.346-.765,2.886,2.886,0,0,0,.85-2.261,3.082,3.082,0,0,0-.8-2.227,3.175,3.175,0,0,0-2.4-.833H32.946v6.086ZM50.558,0a.815.815,0,0,1-.6-.255.815.815,0,0,1-.255-.6v-22.1a.8.8,0,0,1,.255-.612.845.845,0,0,1,.6-.238h4.556a.887.887,0,0,1,.629.238A.8.8,0,0,1,56-22.95V-.85a.8.8,0,0,1-.255.612A.887.887,0,0,1,55.114,0Z" transform="translate(0.419 32) rotate(0.573)" fill="#24313e"></path><path d="M10.608.34A12.3,12.3,0,0,1,5.729-.544,7.558,7.558,0,0,1,2.584-2.873,5.457,5.457,0,0,1,1.428-5.984a.683.683,0,0,1,.221-.493A.719.719,0,0,1,2.176-6.7H3.91a.887.887,0,0,1,.884.68A4.027,4.027,0,0,0,6.545-3.57a6.968,6.968,0,0,0,4.063,1.02,7.4,7.4,0,0,0,4.25-1,3.234,3.234,0,0,0,1.428-2.805,2.563,2.563,0,0,0-.7-1.87,5.926,5.926,0,0,0-2.057-1.258q-1.36-.544-4.08-1.36a20.943,20.943,0,0,1-4.216-1.6A6.11,6.11,0,0,1,2.89-14.552a5.892,5.892,0,0,1-.782-3.162,5.694,5.694,0,0,1,1-3.3,6.667,6.667,0,0,1,2.873-2.3,10.886,10.886,0,0,1,4.454-.833,10.243,10.243,0,0,1,4.556.935,7.338,7.338,0,0,1,2.89,2.363,5.474,5.474,0,0,1,1.054,2.856.682.682,0,0,1-.187.476.679.679,0,0,1-.527.2h-1.8a.816.816,0,0,1-.884-.646,3.376,3.376,0,0,0-1.6-2.363,6.154,6.154,0,0,0-3.5-.935,6.494,6.494,0,0,0-3.638.884,2.942,2.942,0,0,0-1.326,2.618,2.857,2.857,0,0,0,.629,1.9,5.139,5.139,0,0,0,1.921,1.309A32.928,32.928,0,0,0,11.8-13.26a25.268,25.268,0,0,1,4.556,1.615,6.182,6.182,0,0,1,2.482,2.074,5.615,5.615,0,0,1,.816,3.145A5.825,5.825,0,0,1,17.2-1.462,10.892,10.892,0,0,1,10.608.34ZM24.888,0a.76.76,0,0,1-.561-.221.76.76,0,0,1-.221-.561v-22.2a.8.8,0,0,1,.221-.6.76.76,0,0,1,.561-.221h8.636a9.075,9.075,0,0,1,6.052,1.87,6.686,6.686,0,0,1,2.21,5.406,6.66,6.66,0,0,1-2.193,5.389,9.118,9.118,0,0,1-6.069,1.853H27.506v8.5a.732.732,0,0,1-.238.561A.819.819,0,0,1,26.69,0Zm8.466-12.138a5.532,5.532,0,0,0,3.757-1.122,4.117,4.117,0,0,0,1.275-3.264,4.2,4.2,0,0,0-1.258-3.281,5.465,5.465,0,0,0-3.774-1.139H27.472v8.806Z" transform="translate(0.1 63.977) rotate(0.573)" fill="#24313e"></path><path d="M3.74,0a.76.76,0,0,1-.561-.221.76.76,0,0,1-.221-.561v-22.2a.8.8,0,0,1,.221-.6A.76.76,0,0,1,3.74-23.8H17.782a.76.76,0,0,1,.561.221.8.8,0,0,1,.221.6v1.292a.8.8,0,0,1-.2.561.747.747,0,0,1-.578.221H6.222v7.446H17.034a.76.76,0,0,1,.561.221.8.8,0,0,1,.221.6v1.258a.76.76,0,0,1-.221.561.76.76,0,0,1-.561.221H6.222V-2.89H18.054a.782.782,0,0,1,.578.2.782.782,0,0,1,.2.578V-.782a.76.76,0,0,1-.221.561A.76.76,0,0,1,18.054,0Z" transform="translate(45.531 64.432) rotate(0.573)" fill="#24313e"></path><path d="M11.526.34Q6.97.34,4.607-2.108A9.929,9.929,0,0,1,2.074-8.874q-.034-.918-.034-2.992,0-2.108.034-3.06a9.9,9.9,0,0,1,2.55-6.749Q7-24.14,11.526-24.14a11.237,11.237,0,0,1,5.134,1.071,7.855,7.855,0,0,1,3.2,2.805,7.615,7.615,0,0,1,1.19,3.706v.068a.579.579,0,0,1-.221.459.744.744,0,0,1-.493.187h-1.87q-.68,0-.85-.782a5.671,5.671,0,0,0-2.074-3.587,6.925,6.925,0,0,0-4.012-1.037q-5.848,0-6.052,6.494-.034.918-.034,2.822t.034,2.89q.2,6.494,6.052,6.494a7.008,7.008,0,0,0,4.029-1.037,5.515,5.515,0,0,0,2.057-3.587,1.1,1.1,0,0,1,.306-.612.823.823,0,0,1,.544-.17h1.87a.789.789,0,0,1,.527.187.53.53,0,0,1,.187.493,7.663,7.663,0,0,1-1.19,3.74,7.855,7.855,0,0,1-3.2,2.805A11.237,11.237,0,0,1,11.526.34Z" transform="translate(67.058 64.647) rotate(0.573)" fill="#24313e"></path></g><path d="M1301.07,813.27a14.047,14.047,0,0,1,14.027,14.067l-.38,253.641a14.04,14.04,0,0,1-14.067,13.987l-168.133-.246a14.047,14.047,0,0,1-14.027-14.067l.3-173.888" transform="translate(-373.512 -271.586)" fill="#455666" opacity="0.33"></path><path d="M1296.11,806.5a14.041,14.041,0,0,1,13.987,14.06l-.373,253.641a14.047,14.047,0,0,1-14.067,14.027l-168.139-.253a14.041,14.041,0,0,1-13.987-14.067l.3-166.721" transform="translate(-371.855 -269.325)" fill="#d9d9d9" stroke="#000" stroke-miterlimit="10" stroke-width="2"></path><path d="M1171.759,858.761a13.268,13.268,0,0,1-13.321,13.261L1112.48,906.1l-.32,166.647a14.04,14.04,0,0,0,13.987,14.067l170.3.253a8.252,8.252,0,0,0,8.259-8.239l.4-265.23a8.252,8.252,0,0,0-8.239-8.259l-82.425-.187" transform="translate(-371.398 -268.874)" fill="#ebf0f5" stroke="#24313e" stroke-miterlimit="10" stroke-width="2"></path><path d="M1215.488,804.84v88.692a16.691,16.691,0,0,1-16.692,16.7h-81.925a3.743,3.743,0,0,1-3.71-4.263h0Z" transform="translate(-371.72 -268.771)" fill="#455666" opacity="0.33"></path><path d="M1113.334,906.427l76.017.113a25.936,25.936,0,0,0,25.976-25.9l.113-76.01a.373.373,0,0,0-.666-.266l-101.7,101.421a.373.373,0,0,0,.26.639Z" transform="translate(-371.666 -268.564)" fill="#fdfdfd" stroke="#000" stroke-miterlimit="10" stroke-width="2"></path><rect width="141.564" height="15.772" transform="translate(766.519 737.838)" fill="#d9dee5"></rect><rect width="141.564" height="15.772" transform="translate(766.519 763.248)" fill="#d9dee5"></rect><rect width="141.564" height="15.772" transform="translate(766.519 686.419)" fill="#d9dee5"></rect><rect width="141.564" height="15.772" transform="translate(766.519 711.822)" fill="#d9dee5"></rect><path d="M1392.443,873.78a14.041,14.041,0,0,1,13.987,14.06l-.38,253.641a14.034,14.034,0,0,1-14.061,13.987l-168.139-.246a14.041,14.041,0,0,1-14.021-14.067l.3-173.888" transform="translate(-404.014 -291.793)" fill="#455666" opacity="0.33"></path><path d="M1387.443,867a14.047,14.047,0,0,1,13.987,14.06l-.38,253.648a14.04,14.04,0,0,1-14.06,13.987l-168.14-.253a14.04,14.04,0,0,1-14.02-14.06l.293-166.727" transform="translate(-402.344 -289.528)" fill="#d9d9d9" stroke="#000" stroke-miterlimit="10" stroke-width="2"></path><path d="M1263.119,919.268a13.321,13.321,0,0,1-13.321,13.261L1203.84,966.6l-.32,166.647a14.04,14.04,0,0,0,13.987,14.067l170.3.253a8.252,8.252,0,0,0,8.266-8.239l.393-265.224a8.252,8.252,0,0,0-8.239-8.266l-82.418-.186" transform="translate(-401.907 -289.078)" fill="#ebf0f5" stroke="#24313e" stroke-miterlimit="10" stroke-width="2"></path><path d="M1306.8,865.34v88.725a16.7,16.7,0,0,1-16.7,16.692h-81.978a3.75,3.75,0,0,1-3.71-4.263h0Z" transform="translate(-402.193 -288.974)" fill="#455666" opacity="0.33"></path><path d="M1204.656,966.927l76.01.113a25.936,25.936,0,0,0,25.976-25.9l.113-76.01a.373.373,0,0,0-.666-.266L1204.363,966.288a.373.373,0,0,0,.293.639Z" transform="translate(-402.15 -288.768)" fill="#fdfdfd" stroke="#000" stroke-miterlimit="10" stroke-width="2"></path><rect width="97.418" height="47.736" rx="23.868" transform="matrix(1, 0.003, -0.003, 1, 813.051, 789.535)" fill="#d9d9d9" stroke="#000" stroke-miterlimit="10" stroke-width="2"></rect><rect width="97.511" height="47.736" rx="23.868" transform="matrix(1, 0.003, -0.003, 1, 810.1, 789.606)" fill="#fdfdfd" stroke="#000" stroke-miterlimit="10" stroke-width="2"></rect><path d="M2.85,0a.72.72,0,0,1-.525-.225A.72.72,0,0,1,2.1-.75v-19.5a.706.706,0,0,1,.225-.54A.745.745,0,0,1,2.85-21h7.8a10.138,10.138,0,0,1,6.84,2.1,7.948,7.948,0,0,1,2.55,6.09q.03.87.03,2.31t-.03,2.28q-.15,4.17-2.475,6.2T10.8,0Zm7.8-4.32a3.933,3.933,0,0,0,2.91-.945,4.36,4.36,0,0,0,.99-3.015q.06-.87.06-2.25t-.06-2.22a4.115,4.115,0,0,0-1.065-2.97,4.168,4.168,0,0,0-2.985-.96h-3V-4.32ZM30.63.3A8.4,8.4,0,0,1,24.9-1.47a6.828,6.828,0,0,1-2.19-4.98q-.03-.39-.03-1.35t.03-1.35a6.742,6.742,0,0,1,2.25-4.965A8.4,8.4,0,0,1,30.63-15.9a8.444,8.444,0,0,1,5.7,1.785A6.742,6.742,0,0,1,38.58-9.15q.03.39.03,1.35t-.03,1.35a6.828,6.828,0,0,1-2.19,4.98A8.447,8.447,0,0,1,30.63.3Zm0-3.66a2.336,2.336,0,0,0,1.95-.8A4.3,4.3,0,0,0,33.3-6.6q.03-.3.03-1.2T33.3-9a4.245,4.245,0,0,0-.735-2.43,2.324,2.324,0,0,0-1.935-.81q-2.49,0-2.64,3.24l-.03,1.2.03,1.2a4.087,4.087,0,0,0,.7,2.445A2.344,2.344,0,0,0,30.63-3.36ZM48.75.3a8.1,8.1,0,0,1-5.49-1.815A6.766,6.766,0,0,1,41.01-6.57l-.03-1.2L41.01-9a6.7,6.7,0,0,1,2.235-5.07A8.113,8.113,0,0,1,48.75-15.9a9.227,9.227,0,0,1,4.3.915,6.871,6.871,0,0,1,2.61,2.19,4.785,4.785,0,0,1,.915,2.325.624.624,0,0,1-.195.525.754.754,0,0,1-.555.225H52.02a.776.776,0,0,1-.51-.15,1.382,1.382,0,0,1-.33-.45,2.787,2.787,0,0,0-.915-1.32,2.423,2.423,0,0,0-1.425-.39q-2.46,0-2.55,3.18l-.03,1.14.03.99a3.887,3.887,0,0,0,.705,2.385,2.279,2.279,0,0,0,1.845.765,2.465,2.465,0,0,0,1.47-.39,2.675,2.675,0,0,0,.87-1.32,1.382,1.382,0,0,1,.33-.45.776.776,0,0,1,.51-.15h3.81a.777.777,0,0,1,.525.2.626.626,0,0,1,.225.495,4.363,4.363,0,0,1-.825,2.25,6.979,6.979,0,0,1-2.6,2.265A9.047,9.047,0,0,1,48.75.3ZM65.7.3a10.486,10.486,0,0,1-4.065-.69A6.1,6.1,0,0,1,59.22-2.04a2.865,2.865,0,0,1-.78-1.71.626.626,0,0,1,.225-.5.739.739,0,0,1,.5-.195h3.42a.459.459,0,0,1,.33.15q.36.24.54.39A6.9,6.9,0,0,0,64.6-3.2a2.929,2.929,0,0,0,1.215.225,2.661,2.661,0,0,0,1.425-.345A1.087,1.087,0,0,0,67.8-4.29a1.128,1.128,0,0,0-.285-.81,2.892,2.892,0,0,0-1.1-.585A19.573,19.573,0,0,0,63.96-6.3a8.326,8.326,0,0,1-3.825-1.665A3.9,3.9,0,0,1,58.8-11.07a4,4,0,0,1,.78-2.34,5.483,5.483,0,0,1,2.325-1.8,8.96,8.96,0,0,1,3.675-.69,9.655,9.655,0,0,1,3.72.66,6.4,6.4,0,0,1,2.415,1.605,2.756,2.756,0,0,1,.825,1.725.686.686,0,0,1-.195.48.613.613,0,0,1-.465.21H68.76a.76.76,0,0,1-.45-.15,4.57,4.57,0,0,1-.69-.45,5.3,5.3,0,0,0-.96-.6,2.617,2.617,0,0,0-1.11-.21,1.981,1.981,0,0,0-1.245.36,1.124,1.124,0,0,0-.465.93,1.118,1.118,0,0,0,.255.75,2.581,2.581,0,0,0,1.08.585,18.124,18.124,0,0,0,2.445.585,8.023,8.023,0,0,1,4.245,1.8A4.081,4.081,0,0,1,73.2-4.59a4.1,4.1,0,0,1-1.98,3.555A9.794,9.794,0,0,1,65.7.3Z" transform="translate(818.084 825.737) rotate(0.573)" fill="#24313e"></path><rect width="131.993" height="53.864" rx="16.45" transform="translate(558.742 204.886)" fill="#9caab8" stroke="#24313e" stroke-miterlimit="10" stroke-width="2"></rect><rect width="131.993" height="48.935" rx="16.45" transform="translate(558.968 210.121)" fill="#d9d9d9" stroke="#000" stroke-miterlimit="10" stroke-width="2"></rect><rect width="131.993" height="48.935" rx="16.45" transform="translate(563.404 660.063)" fill="#9caab8" stroke="#24313e" stroke-miterlimit="10" stroke-width="2"></rect><rect width="131.993" height="48.935" rx="16.45" transform="translate(562.299 663.706)" fill="#d9d9d9" stroke="#000" stroke-miterlimit="10" stroke-width="2"></rect><path d="M1006.586,1055.076l54.557-54.557a4.436,4.436,0,0,0,0-6.281l-54.557-54.557A4.436,4.436,0,0,0,999,942.819v109.12a4.436,4.436,0,0,0,7.586,3.137Z" transform="translate(-333.609 -313.361)" fill="#9caab8" stroke="#24313e" stroke-miterlimit="10" stroke-width="2"></path><path d="M887.705,375.335V760.6a8.446,8.446,0,0,0,8.446,8.446h63.422A10.95,10.95,0,0,1,970.529,780v27.029a10.95,10.95,0,0,1-10.95,10.95H849.487a10.442,10.442,0,0,1-1.658-.127l-.313-.053a10.963,10.963,0,0,1-8.745-10.737V326.84a11.729,11.729,0,0,1,11.383-11.39H960.239A10.95,10.95,0,0,1,971.2,326.407v27.042a10.95,10.95,0,0,1-10.95,10.95h-61.6A10.937,10.937,0,0,0,887.705,375.335Z" transform="translate(-280.101 -105.342)" fill="#0c7ff2" stroke="#24313e" stroke-miterlimit="10" stroke-width="2"></path><path d="M847.4,1049.583a10.95,10.95,0,0,1-8.978-10.777v-27.029a10.951,10.951,0,0,1,.233-2.258v29.307A10.963,10.963,0,0,0,847.4,1049.583Z" transform="translate(-279.984 -337.122)" fill="#0c7ff2" stroke="#24313e" stroke-miterlimit="10" stroke-width="2"></path><path d="M1005.1,1058.161l53.724-53.724a4.363,4.363,0,0,0,0-6.181L1005.1,944.531a4.369,4.369,0,0,0-7.453,3.091V1055.07a4.369,4.369,0,0,0,7.453,3.091Z" transform="translate(-333.158 -314.994)" fill="#0c7ff2" stroke="#24313e" stroke-miterlimit="10" stroke-width="2"></path><rect width="57.88" height="4.409" rx="2.205" transform="translate(606.612 665.618)" fill="#ebf0f5" opacity="0.39"></rect><path d="M1058.827,1004.436l-.087.087-50.127-50.114a4.376,4.376,0,0,0-7.46,3.1v101.86a4.323,4.323,0,0,1-3.5-4.283V947.622a4.369,4.369,0,0,1,7.453-3.09l53.724,53.724a4.376,4.376,0,0,1,0,6.181Z" transform="translate(-333.158 -314.994)" fill="#ebf0f5" opacity="0.39"></path><path d="M882.229,1069.877c-.306,0-.619.04-.932.04H854.262a10.39,10.39,0,0,1-1.892-.166,10.449,10.449,0,0,0,1.658.126Z" transform="translate(-284.643 -357.235)" fill="#0c7ff2" stroke="#24313e" stroke-miterlimit="10" stroke-width="2"></path><rect width="126.384" height="4.409" rx="2.205" transform="translate(559.435 212.033)" fill="#ebf0f5" opacity="0.39"></rect><rect width="130.227" height="14.513" transform="translate(807.061 148.118)" fill="#d9dee5"></rect><rect width="130.227" height="14.513" transform="translate(807.061 171.49)" fill="#d9dee5"></rect></svg>