<svg xmlns:inkscape="http://www.inkscape.org/namespaces/inkscape" xmlns:sodipodi="http://sodipodi.sourceforge.net/DTD/sodipodi-0.dtd" xmlns:xlink="http://www.w3.org/1999/xlink" xmlns="http://www.w3.org/2000/svg" xmlns:svg="http://www.w3.org/2000/svg" width="1191" height="177.049" viewBox="0 0 1191 177.049" id="svg97" sodipodi:docname="title-image-ea8459726525df21cafff737a3e62930.svg" inkscape:version="1.1.2 (0a00cf5339, 2022-02-04, custom)"><defs id="defs21"><linearGradient id="linear-gradient" x1="-0.023" y1="0.317" x2="0.966" y2="0.689" gradientUnits="objectBoundingBox"><stop offset="0" stop-color="#f6f6f9" stop-opacity="0.188" id="stop2"></stop><stop offset="1" stop-color="#fff" stop-opacity="0" id="stop4"></stop></linearGradient><linearGradient id="linear-gradient-2" x1="1.298" y1="0.131" x2="0.13" y2="0.294" xlink:href="#linear-gradient"></linearGradient><clipPath id="clip-path"><rect id="Rectangle_3148" data-name="Rectangle 3148" width="1191" height="169" rx="17" transform="translate(366 139)" fill="#0062ff"></rect></clipPath><linearGradient id="linear-gradient-3" x1="0.5" x2="0.5" y2="1" gradientUnits="objectBoundingBox"><stop offset="0" stop-color="#fff" id="stop10"></stop><stop offset="1" stop-color="#fff" stop-opacity="0" id="stop12"></stop></linearGradient><clipPath id="clip-path-2"><rect id="Rectangle_3147" data-name="Rectangle 3147" width="143.785" height="88.318" fill="none"></rect></clipPath><clipPath id="clip-path-3"><rect id="Rectangle_3149" data-name="Rectangle 3149" width="182.486" height="132.772" fill="url(#linear-gradient)"></rect></clipPath><clipPath id="clip-path-4"><rect id="Rectangle_3150" data-name="Rectangle 3150" width="177.038" height="128.809" transform="translate(0)" fill="url(#linear-gradient-2)"></rect></clipPath></defs><g id="Banner" transform="translate(-366 -139)"><g id="Group_2594" data-name="Group 2594"><g id="Group_2584" data-name="Group 2584"><g id="Group_2038" data-name="Group 2038"><rect id="Rectangle_1107" data-name="Rectangle 1107" width="1191" height="169" rx="17" transform="translate(366 141)" fill="#111"></rect></g></g><g id="Mask_Group_7" data-name="Mask Group 7" clip-path="url(#clip-path)"><g id="Group_2590" data-name="Group 2590"><g id="Ellipse_104" data-name="Ellipse 104" transform="matrix(0.966, -0.259, 0.259, 0.966, 1226.775, 115.864)" stroke="#fff" stroke-width="1" opacity="0.12" fill="url(#linear-gradient-3)"><ellipse cx="158.584" cy="158.584" rx="158.584" ry="158.584" stroke="none" id="ellipse26"></ellipse><ellipse cx="158.584" cy="158.584" rx="158.084" ry="158.084" fill="none" id="ellipse28"></ellipse></g><g id="Ellipse_103" data-name="Ellipse 103" transform="matrix(0.966, -0.259, 0.259, 0.966, 1337.544, 179.816)" stroke="#fff" stroke-width="1" opacity="0.05" fill="url(#linear-gradient-3)"><ellipse cx="68.142" cy="68.142" rx="68.142" ry="68.142" stroke="none" id="ellipse31"></ellipse><ellipse cx="68.142" cy="68.142" rx="67.642" ry="67.642" fill="none" id="ellipse33"></ellipse></g><g id="Ellipse_105" data-name="Ellipse 105" transform="translate(1498.811 357.498) rotate(-166)" stroke="#fff" stroke-width="1" opacity="0.12" fill="url(#linear-gradient-3)"><ellipse cx="106.828" cy="106.827" rx="106.828" ry="106.827" stroke="none" id="ellipse36"></ellipse><ellipse cx="106.828" cy="106.827" rx="106.328" ry="106.327" fill="none" id="ellipse38"></ellipse></g><g id="Ellipse_106" data-name="Ellipse 106" transform="matrix(0.966, -0.259, 0.259, 0.966, 1162.378, 78.684)" stroke="#fff" stroke-width="1" opacity="0.12" fill="url(#linear-gradient-3)"><ellipse cx="211.165" cy="211.165" rx="211.165" ry="211.165" stroke="none" id="ellipse41"></ellipse><ellipse cx="211.165" cy="211.165" rx="210.665" ry="210.665" fill="none" id="ellipse43"></ellipse></g></g></g><g id="Group_2589" data-name="Group 2589" transform="translate(1334.494 169.626)"><g id="Group_2588" data-name="Group 2588" transform="translate(22.414 13.768)"><g id="Group_2587" data-name="Group 2587" clip-path="url(#clip-path-2)"><path id="Path_12451" data-name="Path 12451" d="M117.054,1H5.023A4.023,4.023,0,0,0,1,5.023V83.432a4.023,4.023,0,0,0,4.023,4.023H117.054a4.023,4.023,0,0,0,4.023-4.023V5.023A4.023,4.023,0,0,0,117.054,1" transform="translate(-0.667 -0.667)" fill="#f6f6f9"></path><rect id="Rectangle_3146" data-name="Rectangle 3146" width="120.077" height="86.455" rx="12.076" transform="translate(0.333 0.333)" fill="none" stroke="#9caab8" stroke-width="2"></rect><path id="Path_12452" data-name="Path 12452" d="M29.819,1H5.023A4.023,4.023,0,0,0,1,5.023V83.432a4.023,4.023,0,0,0,4.023,4.023h24.8Z" transform="translate(-0.667 -0.667)" fill="#f1f2f4"></path><path id="Path_12453" data-name="Path 12453" d="M29.819,1H5.023A4.023,4.023,0,0,0,1,5.023V83.432a4.023,4.023,0,0,0,4.023,4.023h24.8Z" transform="translate(-0.667 -0.667)" fill="none" stroke="#9caab8" stroke-width="2"></path><path id="Path_12454" data-name="Path 12454" d="M246.1,1h34.4a4.023,4.023,0,0,1,4.023,4.023V83.432a4.023,4.023,0,0,1-4.023,4.023H246.1Z" transform="translate(-164.111 -0.667)" fill="#3e445d"></path><path id="Path_12455" data-name="Path 12455" d="M246.1,1h34.4a4.023,4.023,0,0,1,4.023,4.023V83.432a4.023,4.023,0,0,1-4.023,4.023H246.1Z" transform="translate(-164.111 -0.667)" fill="none" stroke="#1d2236" stroke-width="2"></path><path id="Path_12456" data-name="Path 12456" d="M287.364,103.257H268.216c-.767,0-1.408-.836-1.431-1.868s.579-1.868,1.346-1.868h19.148c.767,0,1.408.836,1.431,1.868s-.579,1.868-1.346,1.868" transform="translate(-177.907 -66.367)" fill="#e1e3e8"></path><path id="Path_12457" data-name="Path 12457" d="M287.364,76.823H268.216c-.767,0-1.408-.836-1.431-1.868s.579-1.868,1.346-1.868h19.148c.767,0,1.408.836,1.431,1.868s-.579,1.868-1.346,1.868" transform="translate(-177.907 -48.739)" fill="#606774"></path><path id="Path_12458" data-name="Path 12458" d="M287.364,127.018H268.216c-.767,0-1.408-.836-1.431-1.868s.579-1.868,1.346-1.868h19.148c.767,0,1.408.836,1.431,1.868s-.579,1.868-1.346,1.868" transform="translate(-177.907 -82.212)" fill="#e1e3e8"></path><path id="Path_12459" data-name="Path 12459" d="M287.364,152.115H268.216c-.767,0-1.408-.836-1.431-1.868s.579-1.868,1.346-1.868h19.148c.767,0,1.408.836,1.431,1.868s-.579,1.868-1.346,1.868" transform="translate(-177.907 -98.948)" fill="#e1e3e8"></path><path id="Path_12460" data-name="Path 12460" d="M139,88.839H103.354c-.767,0-1.408-.836-1.431-1.868s.579-1.868,1.346-1.868h35.647c.767,0,1.408.836,1.431,1.868s-.579,1.868-1.346,1.868" transform="translate(-67.967 -56.752)" fill="#e1e3e8"></path><path id="Path_12461" data-name="Path 12461" d="M139,62.405H103.354c-.767,0-1.408-.836-1.431-1.868s.579-1.868,1.346-1.868h35.647c.767,0,1.408.836,1.431,1.868s-.579,1.868-1.346,1.868" transform="translate(-67.967 -39.125)" fill="#606774"></path><path id="Path_12462" data-name="Path 12462" d="M130.741,112.6H103.354c-.767,0-1.408-.836-1.431-1.868s.58-1.868,1.347-1.868h27.387c.767,0,1.408.836,1.431,1.868s-.579,1.868-1.346,1.868" transform="translate(-67.967 -72.597)" fill="#e1e3e8"></path><path id="Path_12463" data-name="Path 12463" d="M135.544,137.7h-32.19c-.767,0-1.408-.836-1.431-1.868s.579-1.868,1.346-1.868h32.19c.767,0,1.408.836,1.431,1.868s-.579,1.868-1.346,1.868" transform="translate(-67.967 -89.334)" fill="#e1e3e8"></path><path id="Path_12464" data-name="Path 12464" d="M139,204.179H103.354c-.767,0-1.408-.836-1.431-1.868s.579-1.868,1.346-1.868h35.647c.767,0,1.408.836,1.431,1.868s-.579,1.868-1.346,1.868" transform="translate(-67.967 -133.668)" fill="#e1e3e8"></path><path id="Path_12465" data-name="Path 12465" d="M139,177.745H103.354c-.767,0-1.408-.836-1.431-1.868s.579-1.868,1.346-1.868h35.647c.767,0,1.408.836,1.431,1.868s-.579,1.868-1.346,1.868" transform="translate(-67.967 -116.04)" fill="#606774"></path><path id="Path_12466" data-name="Path 12466" d="M130.741,227.94H103.354c-.767,0-1.408-.836-1.431-1.868s.58-1.868,1.347-1.868h27.387c.767,0,1.408.836,1.431,1.868s-.579,1.868-1.346,1.868" transform="translate(-67.967 -149.513)" fill="#e1e3e8"></path><path id="Path_12467" data-name="Path 12467" d="M118,1H4.08A3.079,3.079,0,0,0,1,4.079v9.81H121.077V4.079A3.079,3.079,0,0,0,118,1" transform="translate(-0.668 -0.667)" fill="#6daff2"></path><path id="Path_12468" data-name="Path 12468" d="M118,1H4.08A3.079,3.079,0,0,0,1,4.079v9.81H121.077V4.079A3.079,3.079,0,0,0,118,1Z" transform="translate(-0.668 -0.667)" fill="none" stroke="#004cff" stroke-width="2"></path><path id="Path_12469" data-name="Path 12469" d="M34.22,58.67H15.827a.41.41,0,0,0-.41.41v2.611a.41.41,0,0,0,.41.41H34.22a.41.41,0,0,0,.41-.41V59.08a.41.41,0,0,0-.41-.41" transform="translate(-10.281 -39.125)" fill="#e1e3e8"></path><path id="Path_12470" data-name="Path 12470" d="M34.22,87.5H15.827a.41.41,0,0,0-.41.41v2.611a.41.41,0,0,0,.41.41H34.22a.41.41,0,0,0,.41-.41V87.915a.41.41,0,0,0-.41-.41" transform="translate(-10.281 -58.353)" fill="#e1e3e8"></path><path id="Path_12471" data-name="Path 12471" d="M34.22,112.221H15.827a.41.41,0,0,0-.41.41v2.611a.41.41,0,0,0,.41.41H34.22a.41.41,0,0,0,.41-.41v-2.611a.41.41,0,0,0-.41-.41" transform="translate(-10.281 -74.835)" fill="#e1e3e8"></path><path id="Path_12472" data-name="Path 12472" d="M34.22,145.175H15.827a.41.41,0,0,0-.41.41V148.2a.41.41,0,0,0,.41.41H34.22a.41.41,0,0,0,.41-.41v-2.611a.41.41,0,0,0-.41-.41" transform="translate(-10.281 -96.811)" fill="#e1e3e8"></path><path id="Path_12473" data-name="Path 12473" d="M297.74,158.918a14,14,0,0,1-.609,1.651A12.272,12.272,0,0,1,290.86,167a11.566,11.566,0,0,1-1.6.569,12.805,12.805,0,0,1-2.942.436q-.483.015-.981,0c-.134-.005-.27-.012-.406-.019V168H247.268a13.755,13.755,0,0,1-10.807-4.4c-.055-.059-.111-.121-.166-.183s-.123-.138-.182-.208c-.264-.3-.513-.618-.745-.941-.082-.11-.161-.22-.236-.332-.172-.245-.332-.494-.484-.746-.075-.124-.147-.248-.22-.372-.02-.037-.043-.072-.062-.108-.048-.091-.1-.178-.147-.271-.068-.128-.136-.255-.2-.382-.057-.112-.113-.224-.165-.333a16.145,16.145,0,0,1-.808-2.07c-1.823-5.8-.439-12.606,5-16.4a5.5,5.5,0,0,0,1.714-1.913,5.146,5.146,0,0,0,.617-2.463c-.048-8.008,5.678-13.722,12.6-15.9s15.044-.819,19.789,5.323a5.6,5.6,0,0,0,2.418,1.8,5.088,5.088,0,0,0,3,.213,10.172,10.172,0,0,1,9.006,2.49q.171.152.332.309c.082.075.159.155.238.236.036.035.07.07.105.108.084.089.17.18.254.273a.2.2,0,0,0,.032.038c.1.112.193.224.286.337s.193.243.284.363.177.246.261.366.17.252.247.379.157.255.229.386a8.956,8.956,0,0,1,1.127,5.728,4.45,4.45,0,0,0-.046.735,4.743,4.743,0,0,0,.552,2.116,5.866,5.866,0,0,0,1.5,1.819,6.186,6.186,0,0,0,.516.382,11.984,11.984,0,0,1,5.2,9.127,14.545,14.545,0,0,1-.565,5.409" transform="translate(-154.905 -80.026)" fill="#6daff2"></path><path id="Path_12474" data-name="Path 12474" d="M297.74,158.918a14,14,0,0,1-.609,1.651A12.272,12.272,0,0,1,290.86,167a11.566,11.566,0,0,1-1.6.569,12.805,12.805,0,0,1-2.942.436q-.483.015-.981,0c-.134-.005-.27-.012-.406-.019V168H247.268a13.755,13.755,0,0,1-10.807-4.4c-.055-.059-.111-.121-.166-.183s-.123-.138-.182-.208c-.264-.3-.513-.618-.745-.941-.082-.11-.161-.22-.236-.332-.172-.245-.332-.494-.484-.746-.075-.124-.147-.248-.22-.372-.02-.037-.043-.072-.062-.108-.048-.091-.1-.178-.147-.271-.068-.128-.136-.255-.2-.382-.057-.112-.113-.224-.165-.333a16.145,16.145,0,0,1-.808-2.07c-1.823-5.8-.439-12.606,5-16.4a5.5,5.5,0,0,0,1.714-1.913,5.146,5.146,0,0,0,.617-2.463c-.048-8.008,5.678-13.722,12.6-15.9s15.044-.819,19.789,5.323a5.6,5.6,0,0,0,2.418,1.8,5.088,5.088,0,0,0,3,.213,10.172,10.172,0,0,1,9.006,2.49q.171.152.332.309c.082.075.159.155.238.236.036.035.07.07.105.108.084.089.17.18.254.273a.2.2,0,0,0,.032.038c.1.112.193.224.286.337s.193.243.284.363.177.246.261.366.17.252.247.379.157.255.229.386a8.956,8.956,0,0,1,1.127,5.728,4.45,4.45,0,0,0-.046.735,4.743,4.743,0,0,0,.552,2.116,5.866,5.866,0,0,0,1.5,1.819,6.186,6.186,0,0,0,.516.382,11.984,11.984,0,0,1,5.2,9.127A14.545,14.545,0,0,1,297.74,158.918Z" transform="translate(-154.905 -80.026)" fill="none" stroke="#004cff" stroke-width="2"></path></g></g><g aria-label="{API}" transform="translate(115.228 86.057)" id="_API_" style="font-weight:700;font-size:12px;font-family:Rubik-Bold, Rubik;fill:#f1f2f4"><path d="M 7.3535156,2.296875 H 5.7480469 q -1.1367188,0 -1.8164063,-0.5800781 Q 3.2578125,1.1425781 3.2578125,0.02929688 V -0.83203125 Q 3.2578125,-1.875 2.7949219,-2.2792969 2.3320313,-2.6894531 1.3007812,-2.6894531 H 0.890625 v -1.4414063 h 0.4101562 q 1.0312501,0 1.4941407,-0.4042968 0.4628906,-0.4101563 0.4628906,-1.453125 v -0.8613282 q 0,-1.1132812 0.6738281,-1.6875 0.6796875,-0.5800781 1.8164063,-0.5800781 h 1.6054687 v 1.3125 H 6.6855469 q -0.3515625,0 -0.6386719,0.052734 -0.28125,0.052734 -0.4746094,0.1992187 -0.1992187,0.1523438 -0.2988281,0.4453125 -0.099609,0.2871094 -0.099609,0.7441407 v 0.6386718 q 0,0.8203125 -0.4628906,1.3710938 -0.4570313,0.5507812 -1.3066406,0.8730468 v 0.140625 q 0.8496093,0.3222657 1.3066406,0.8730469 0.4628906,0.5507813 0.4628906,1.3710938 v 0.63867185 q 0,0.45703125 0.099609,0.74414063 0.099609,0.29296874 0.2988281,0.44531249 0.1875,0.15234376 0.4746094,0.19921876 0.2871094,0.0527344 0.6386719,0.0527344 h 0.6679687 z" style="letter-spacing:-0.009em" id="path2690"></path><path d="M 17.599031,0 H 15.272859 L 14.669344,-1.7636719 H 11.434969 L 10.831453,0 H 8.563875 l 3.222656,-8.7246094 h 2.589844 z m -3.474609,-3.3632813 -1.072266,-3.1289062 -1.072265,3.1289062 z" id="path2692"></path><path d="m 26.054109,-5.9707031 q 0,0.5859375 -0.205078,1.1484375 -0.205078,0.5566406 -0.585937,0.9375 -0.521485,0.515625 -1.166016,0.7792968 -0.638672,0.2636719 -1.59375,0.2636719 h -1.40039 V 0 h -2.25 v -8.7246094 h 3.703125 q 0.832031,0 1.40039,0.1464844 0.574219,0.140625 1.013672,0.4277344 0.527344,0.3457031 0.802734,0.8847656 0.28125,0.5390625 0.28125,1.2949219 z m -2.326171,0.052734 q 0,-0.3691407 -0.199219,-0.6328125 -0.199219,-0.2695313 -0.462891,-0.375 -0.351562,-0.140625 -0.685547,-0.1523438 -0.333984,-0.017578 -0.890625,-0.017578 h -0.386718 v 2.6132812 h 0.644531 q 0.574219,0 0.943359,-0.070312 0.375,-0.070312 0.626953,-0.28125 0.216797,-0.1875 0.310547,-0.4453125 0.09961,-0.2636718 0.09961,-0.6386718 z" id="path2694"></path><path d="m 32.364656,0 h -5.109375 v -1.546875 h 1.429688 v -5.6308594 h -1.429688 v -1.546875 h 5.109375 v 1.546875 h -1.429687 v 5.6308594 h 1.429687 z" style="letter-spacing:0.028em" id="path2696"></path><path d="m 41.061984,-2.6894531 h -0.410156 q -1.03125,0 -1.49414,0.4101562 -0.462891,0.4042969 -0.462891,1.44726565 v 0.86132813 q 0,1.11328122 -0.679688,1.68750002 -0.673828,0.5800781 -1.810546,0.5800781 h -1.605469 v -1.3125 h 0.667969 q 0.351562,0 0.632812,-0.0527344 0.287109,-0.0527344 0.480469,-0.19921876 Q 36.579563,0.58007812 36.679172,0.28710938 36.778781,0 36.778781,-0.45703125 V -1.0957031 q 0,-0.8203125 0.457032,-1.3710938 0.46289,-0.5507812 1.3125,-0.8730469 v -0.140625 q -0.84961,-0.3222656 -1.3125,-0.8730468 -0.457032,-0.5507813 -0.457032,-1.3710938 v -0.6386718 q 0,-0.4570313 -0.09961,-0.7441407 -0.09961,-0.2929687 -0.298828,-0.4453125 -0.19336,-0.1464843 -0.480469,-0.1992187 -0.28125,-0.052734 -0.632812,-0.052734 h -0.667969 v -1.3125 h 1.605469 q 1.136718,0 1.810546,0.5800781 0.679688,0.5742188 0.679688,1.6875 v 0.8613282 q 0,1.0429687 0.462891,1.453125 0.46289,0.4042968 1.49414,0.4042968 h 0.410156 z" id="path2698"></path></g></g><g id="Group_2592" data-name="Group 2592" transform="translate(366 153.289)"><g id="Group_2591" data-name="Group 2591" transform="translate(12.513 -9.031)" opacity="0.24" clip-path="url(#clip-path-3)"><path id="Path_12475" data-name="Path 12475" d="M181.162,108.121a38.507,38.507,0,0,1-1.678,4.546,33.783,33.783,0,0,1-17.263,17.689,31.9,31.9,0,0,1-4.418,1.567,35.248,35.248,0,0,1-8.1,1.2q-1.328.043-2.7,0c-.369-.015-.743-.034-1.117-.053v.053H42.226a37.862,37.862,0,0,1-29.747-12.116q-.229-.246-.458-.5c-.167-.187-.339-.38-.5-.572-.728-.831-1.412-1.7-2.051-2.59-.226-.3-.443-.606-.649-.913-.472-.673-.915-1.36-1.333-2.052-.207-.341-.4-.682-.605-1.023-.054-.1-.118-.2-.172-.3-.133-.25-.266-.49-.4-.745-.187-.351-.374-.7-.541-1.052-.157-.308-.31-.615-.453-.918a44.416,44.416,0,0,1-2.223-5.7c-5.017-15.96-1.209-34.7,13.762-45.149a15.141,15.141,0,0,0,4.718-5.267,14.153,14.153,0,0,0,1.7-6.781C23.133,25.4,38.9,9.669,57.949,3.677S99.361,1.424,112.421,18.33a15.414,15.414,0,0,0,6.656,4.969,14,14,0,0,0,8.26.586c8.983-2.124,18.177.981,24.789,6.854q.472.418.915.851c.226.207.438.428.654.649.1.1.192.192.29.3.231.245.468.5.7.75a.574.574,0,0,0,.089.106c.271.307.531.615.787.927.27.336.531.668.782,1s.487.678.718,1.009.468.692.679,1.043.433.7.63,1.062a24.655,24.655,0,0,1,3.1,15.768,12.2,12.2,0,0,0-.128,2.023,13.057,13.057,0,0,0,1.52,5.825,16.147,16.147,0,0,0,4.127,5.008,16.9,16.9,0,0,0,1.422,1.053c8.85,5.906,13.459,15.3,14.3,25.124a40.039,40.039,0,0,1-1.555,14.888" transform="translate(-0.687 -0.687)" fill="url(#linear-gradient)"></path><path id="Path_12476" data-name="Path 12476" d="M181.162,108.121a38.507,38.507,0,0,1-1.678,4.546,33.783,33.783,0,0,1-17.263,17.689,31.9,31.9,0,0,1-4.418,1.567,35.248,35.248,0,0,1-8.1,1.2q-1.328.043-2.7,0c-.369-.015-.743-.034-1.117-.053v.053H42.226a37.862,37.862,0,0,1-29.747-12.116q-.229-.246-.458-.5c-.167-.187-.339-.38-.5-.572-.728-.831-1.412-1.7-2.051-2.59-.226-.3-.443-.606-.649-.913-.472-.673-.915-1.36-1.333-2.052-.207-.341-.4-.682-.605-1.023-.054-.1-.118-.2-.172-.3-.133-.25-.266-.49-.4-.745-.187-.351-.374-.7-.541-1.052-.157-.308-.31-.615-.453-.918a44.416,44.416,0,0,1-2.223-5.7c-5.017-15.96-1.209-34.7,13.762-45.149a15.141,15.141,0,0,0,4.718-5.267,14.153,14.153,0,0,0,1.7-6.781C23.133,25.4,38.9,9.669,57.949,3.677S99.361,1.424,112.421,18.33a15.414,15.414,0,0,0,6.656,4.969,14,14,0,0,0,8.26.586c8.983-2.124,18.177.981,24.789,6.854q.472.418.915.851c.226.207.438.428.654.649.1.1.192.192.29.3.231.245.468.5.7.75a.574.574,0,0,0,.089.106c.271.307.531.615.787.927.27.336.531.668.782,1s.487.678.718,1.009.468.692.679,1.043.433.7.63,1.062a24.655,24.655,0,0,1,3.1,15.768,12.2,12.2,0,0,0-.128,2.023,13.057,13.057,0,0,0,1.52,5.825,16.147,16.147,0,0,0,4.127,5.008,16.9,16.9,0,0,0,1.422,1.053c8.85,5.906,13.459,15.3,14.3,25.124A40.039,40.039,0,0,1,181.162,108.121Z" transform="translate(-0.687 -0.687)" fill="url(#linear-gradient)"></path></g><g id="Group_2593" data-name="Group 2593" transform="translate(602.121 33.951)" opacity="0.38" clip-path="url(#clip-path-4)"><path id="Path_12477" data-name="Path 12477" d="M2.647,104.923a37.361,37.361,0,0,0,1.628,4.41,32.774,32.774,0,0,0,16.748,17.161,30.944,30.944,0,0,0,4.286,1.52,34.2,34.2,0,0,0,7.856,1.165q1.289.042,2.62,0c.358-.014.721-.033,1.083-.052v.051H137.435a36.732,36.732,0,0,0,28.859-11.754q.222-.238.444-.49c.162-.182.329-.368.487-.555.706-.806,1.37-1.65,1.99-2.513.22-.294.43-.588.63-.886.458-.653.888-1.32,1.293-1.991.2-.331.391-.662.587-.993.053-.1.114-.191.167-.289.129-.242.258-.476.391-.723.181-.34.363-.681.525-1.021.153-.3.3-.6.439-.891a43.086,43.086,0,0,0,2.157-5.529c4.867-15.484,1.173-33.666-13.351-43.8a14.689,14.689,0,0,1-4.577-5.11,13.731,13.731,0,0,1-1.647-6.578C155.958,24.669,140.666,9.41,122.182,3.6S82.006,1.411,69.336,17.813a14.954,14.954,0,0,1-6.457,4.821,13.585,13.585,0,0,1-8.013.569c-8.715-2.061-17.635.952-24.049,6.649q-.458.406-.888.825c-.22.2-.425.415-.635.629-.1.094-.186.187-.281.289-.224.238-.454.48-.678.728a.557.557,0,0,1-.086.1c-.263.3-.516.6-.764.9-.262.326-.515.648-.759.97s-.472.657-.7.979-.454.671-.659,1.012-.42.681-.611,1.03a23.919,23.919,0,0,0-3.011,15.3,11.838,11.838,0,0,1,.124,1.963A12.668,12.668,0,0,1,20.4,60.226a15.666,15.666,0,0,1-4,4.858,16.389,16.389,0,0,1-1.379,1.021C6.431,71.835,1.959,80.95,1.138,90.48a38.843,38.843,0,0,0,1.509,14.444" transform="translate(-0.696 -0.696)" fill="url(#linear-gradient-2)"></path><path id="Path_12478" data-name="Path 12478" d="M2.647,104.923a37.361,37.361,0,0,0,1.628,4.41,32.774,32.774,0,0,0,16.748,17.161,30.944,30.944,0,0,0,4.286,1.52,34.2,34.2,0,0,0,7.856,1.165q1.289.042,2.62,0c.358-.014.721-.033,1.083-.052v.051H137.435a36.732,36.732,0,0,0,28.859-11.754q.222-.238.444-.49c.162-.182.329-.368.487-.555.706-.806,1.37-1.65,1.99-2.513.22-.294.43-.588.63-.886.458-.653.888-1.32,1.293-1.991.2-.331.391-.662.587-.993.053-.1.114-.191.167-.289.129-.242.258-.476.391-.723.181-.34.363-.681.525-1.021.153-.3.3-.6.439-.891a43.086,43.086,0,0,0,2.157-5.529c4.867-15.484,1.173-33.666-13.351-43.8a14.689,14.689,0,0,1-4.577-5.11,13.731,13.731,0,0,1-1.647-6.578C155.958,24.669,140.666,9.41,122.182,3.6S82.006,1.411,69.336,17.813a14.954,14.954,0,0,1-6.457,4.821,13.585,13.585,0,0,1-8.013.569c-8.715-2.061-17.635.952-24.049,6.649q-.458.406-.888.825c-.22.2-.425.415-.635.629-.1.094-.186.187-.281.289-.224.238-.454.48-.678.728a.557.557,0,0,1-.086.1c-.263.3-.516.6-.764.9-.262.326-.515.648-.759.97s-.472.657-.7.979-.454.671-.659,1.012-.42.681-.611,1.03a23.919,23.919,0,0,0-3.011,15.3,11.838,11.838,0,0,1,.124,1.963A12.668,12.668,0,0,1,20.4,60.226a15.666,15.666,0,0,1-4,4.858,16.389,16.389,0,0,1-1.379,1.021C6.431,71.835,1.959,80.95,1.138,90.48A38.843,38.843,0,0,0,2.647,104.923Z" transform="translate(-0.696 -0.696)" fill="url(#linear-gradient-2)"></path></g></g></g><g id="Group_2595" data-name="Group 2595"></g></g></svg>