<svg xmlns="http://www.w3.org/2000/svg" width="444" height="266" viewBox="0 0 444 266"><g transform="translate(0.21 0.211)"><g transform="translate(-0.21 -0.211)"><ellipse cx="64.183" cy="6.932" rx="64.183" ry="6.932" transform="translate(157.665 215.879)" opacity="0.09"></ellipse><path d="M649.021,358.85c0,27.142-25.1,49.219-56.041,49.219s-56.13-21.948-56.13-49.219" transform="translate(-371.648 -248.317)" fill="#455666" stroke="#24313e" stroke-miterlimit="10" stroke-width="2"></path><path d="M555.737,420.33l46.946,46.354a4.736,4.736,0,0,0,6.64,0l45.831-46.354a4.69,4.69,0,0,0,0-6.631h0a4.767,4.767,0,0,0-3.326-1.339H559.045a4.727,4.727,0,0,0-4.675,4.739A4.644,4.644,0,0,0,555.737,420.33Z" transform="translate(-383.787 -285.392)" fill="#24313e" stroke="#24313e" stroke-miterlimit="10" stroke-width="2"></path><path d="M722.129,507.98,699.37,485.221,757.542,427.2a4.423,4.423,0,0,1,6.143,0h0L780.2,443.72a4.432,4.432,0,0,1,0,6.158h0Z" transform="translate(-484.252 -294.816)" fill="#455666" stroke="#24313e" stroke-miterlimit="10" stroke-width="2"></path><path d="M559.022,485.377,536.659,508.5l-59.084-57.149a4.457,4.457,0,0,1,0-6.158h0l16.251-16.8a4.374,4.374,0,0,1,6.158,0h0Z" transform="translate(-329.723 -295.621)" fill="#455666" stroke="#24313e" stroke-miterlimit="10" stroke-width="2"></path><path d="M529.41,216.706h0c0-23.65,19.381-56.376,43.067-56.376h30.256c23.684,0,43.067,32.729,43.067,56.376h0" transform="translate(-366.493 -110.771)" fill="#0c7ff2" stroke="#24313e" stroke-miterlimit="10" stroke-width="2"></path><circle cx="21.727" cy="21.727" r="21.727" transform="translate(176.256 98.324)" fill="#0c7ff2" stroke="#24313e" stroke-miterlimit="10" stroke-width="2"></circle><circle cx="11.097" cy="11.097" r="11.097" transform="translate(186.886 108.954)" fill="#3ab2d0" stroke="#24313e" stroke-miterlimit="10" stroke-width="2"></circle><circle cx="21.727" cy="21.727" r="21.727" transform="translate(223.872 98.324)" fill="#0c7ff2" stroke="#24313e" stroke-miterlimit="10" stroke-width="2"></circle><ellipse cx="51.99" cy="3.403" rx="51.99" ry="3.403" transform="translate(169.121 109.406)" opacity="0.38"></ellipse><circle cx="11.097" cy="11.097" r="11.097" transform="translate(234.502 108.954)" fill="#3ab2d0" stroke="#24313e" stroke-miterlimit="10" stroke-width="2"></circle><path d="M522.51,309.54h108.6a8.68,8.68,0,0,1,8.707,8.646v.077h0a8.707,8.707,0,0,1-8.707,8.7H522.51a8.7,8.7,0,0,1-8.71-8.68v-.015h0a8.7,8.7,0,0,1,8.683-8.71h.028Z" transform="translate(-355.677 -214.152)" fill="#0c7ff2" stroke="#24313e" stroke-miterlimit="10" stroke-width="2"></path><path d="M584.76,212.068l1.272-1.99a10.326,10.326,0,0,1,14.264-3.145h0a10.323,10.323,0,0,1,3.133,14.251l-1.272,1.99a10.317,10.317,0,0,1-14.251,3.145h0a10.32,10.32,0,0,1-3.145-14.251Z" transform="translate(-403.718 -141.933)" fill="#6b7e8f" stroke="#24313e" stroke-miterlimit="10" stroke-width="2"></path><path d="M790.063,206.819h0a10.274,10.274,0,0,1,14.205,3.071l.052.086,1.287,1.963a10.274,10.274,0,0,1-3.044,14.211l-.092.061h0a10.338,10.338,0,0,1-14.257-3.16l-1.287-1.966a10.277,10.277,0,0,1,3.044-14.211Z" transform="translate(-543.772 -141.844)" fill="#6b7e8f" stroke="#24313e" stroke-miterlimit="10" stroke-width="2"></path><path d="M543.216,118.014h0a8.247,8.247,0,0,1,10.879,4.2l11.88,26.85a8.247,8.247,0,0,1-4.2,10.879h0a8.247,8.247,0,0,1-10.879-4.2l-11.883-26.859A8.247,8.247,0,0,1,543.216,118.014Z" transform="translate(-372.658 -80.961)" fill="#455666" stroke="#24313e" stroke-miterlimit="10" stroke-width="2"></path><circle cx="10.148" cy="10.148" r="10.148" transform="translate(175.992 58.202)" fill="#6b7e8f" stroke="#24313e" stroke-miterlimit="10" stroke-width="2"></circle><path d="M802.137,149.191l11.892-26.859a8.231,8.231,0,0,1,10.857-4.2h0a8.231,8.231,0,0,1,4.2,10.857h0l-11.88,26.872a8.247,8.247,0,0,1-10.873,4.217h-.015a8.259,8.259,0,0,1-4.2-10.879Z" transform="translate(-554.956 -81.043)" fill="#455666" stroke="#24313e" stroke-miterlimit="10" stroke-width="2"></path><circle cx="10.148" cy="10.148" r="10.148" transform="translate(244.223 60.914)" fill="#6b7e8f" stroke="#24313e" stroke-miterlimit="10" stroke-width="2"></circle><path d="M762.176,475.17a5.857,5.857,0,0,1,0,8.247l-55.952,55.9a5.849,5.849,0,1,1-8.7-7.823l.27-.27h.154l55.927-55.909a5.891,5.891,0,0,1,8.293-.154Z" transform="translate(-481.934 -327.774)" fill="#0c7ff2" stroke="#24313e" stroke-miterlimit="10" stroke-width="2"></path><path d="M593.912,545.509h0a5.866,5.866,0,0,1-8.268,0l-55.9-55.9a5.817,5.817,0,0,1,0-8.228h0a5.857,5.857,0,0,1,8.247,0l55.9,55.924a5.836,5.836,0,0,1,.04,8.247l-.04.037S593.955,545.536,593.912,545.509Z" transform="translate(-365.544 -332.038)" fill="#0c7ff2" stroke="#24313e" stroke-miterlimit="10" stroke-width="2"></path><circle cx="28.337" cy="28.337" r="28.337" transform="translate(194.079 169.875)" fill="#0c7ff2" stroke="#24313e" stroke-miterlimit="10" stroke-width="2"></circle><circle cx="14.488" cy="14.488" r="14.488" transform="translate(207.928 183.724)" fill="#0c7ff2" stroke="#24313e" stroke-miterlimit="10" stroke-width="2"></circle><ellipse cx="2.07" cy="6.407" rx="2.07" ry="6.407" transform="translate(202.781 113.644)" fill="#ebf0f5" opacity="0.21"></ellipse><ellipse cx="2.07" cy="6.407" rx="2.07" ry="6.407" transform="translate(250.424 114.145)" fill="#ebf0f5" opacity="0.21"></ellipse><path d="M845.8,525.238c-11.825,11.257-21.865,22.728-22.541,22.553s8.247-12.135,20.072-23.392,21.005-19.018,21.681-18.846S857.625,513.982,845.8,525.238Z" transform="translate(-570.064 -349.96)" opacity="0.38"></path><path d="M783.974,450.344c-11.582,11.254-21.589,20.173-22.348,19.918s8.019-9.589,19.6-20.846,19.442-19.844,20.2-19.589S795.56,439.091,783.974,450.344Z" transform="translate(-527.355 -297.491)" fill="#ebf0f5" opacity="0.21"></path><path d="M808.4,494.9c-8.692,8.428-16.3,15-16.991,14.678s5.79-7.411,14.479-15.839,14.466-14.982,15.161-14.663S817.085,486.471,808.4,494.9Z" transform="translate(-547.984 -331.608)" fill="#ebf0f5" opacity="0.21"></path><path d="M828.439,512.31c-9.521,9.236-17.866,18.708-18.579,18.4s6.478-10.262,16-19.5,15.971-14.644,16.675-14.343S837.963,503.074,828.439,512.31Z" transform="translate(-560.772 -343.94)" opacity="0.38"></path><path d="M571.965,450.293c9.6,10.08,19.473,18.539,19.282,19.156s-10.572-6.809-20.167-16.893S549.414,429.214,549.6,428.6,562.37,440.213,571.965,450.293Z" transform="translate(-380.484 -296.629)" fill="#ebf0f5" opacity="0.21"></path><path d="M508.321,528.055c10.75,11.057,19.267,20.615,19.021,21.34s-9.156-7.657-19.906-18.717-18.951-18.57-18.708-19.295S497.571,516.992,508.321,528.055Z" transform="translate(-338.302 -353.963)" opacity="0.38"></path><path d="M550.887,522.516c8.05,8.293,16.232,18.293,15.925,18.957s-8.984-8.259-17.034-16.558-14.307-13.821-14-14.479S542.831,514.217,550.887,522.516Z" transform="translate(-370.896 -353.301)" opacity="0.38"></path><path d="M567.5,496.845c8.821,9.094,17.341,15.713,17.052,16.392s-9.279-4.828-18.1-13.929-13.987-15.246-13.7-15.925S558.676,487.75,567.5,496.845Z" transform="translate(-382.659 -334.559)" fill="#ebf0f5" opacity="0.21"></path><path d="M683.38,619.377c0,6.109,5.1,11.057,7.307,11.057s-4.245-4.951-4.245-11.057,6.45-11.057,4.245-11.057S683.38,613.268,683.38,619.377Z" transform="translate(-473.173 -421.165)" fill="#ebf0f5" opacity="0.21"></path><path d="M636.33,595.7c0,11.865,9.328,22.82,11.539,22.851,2.912.04-9.828-10.268-9.475-22.507.307-10.056,12.157-21.033,9.945-21.033S636.33,585.634,636.33,595.7Z" transform="translate(-440.574 -398.086)" fill="#ebf0f5" opacity="0.21"></path><ellipse cx="54.6" cy="1.361" rx="54.6" ry="1.361" transform="translate(165.647 97.003)" fill="#ebf0f5" opacity="0.21"></ellipse><ellipse cx="3.532" cy="3.074" rx="3.532" ry="3.074" transform="translate(249.091 63.374)" fill="#ebf0f5" opacity="0.21"></ellipse><ellipse cx="3.532" cy="3.074" rx="3.532" ry="3.074" transform="translate(184.426 61.639)" fill="#ebf0f5" opacity="0.21"></ellipse><ellipse cx="22.375" cy="1.45" rx="22.375" ry="1.45" transform="translate(199.473 50.809)" fill="#ebf0f5" opacity="0.21"></ellipse><rect width="444" height="266" transform="translate(0 0)" fill="none"></rect></g></g></svg>