<svg xmlns="http://www.w3.org/2000/svg" width="681" height="408" viewBox="0 0 681 408"><g transform="translate(-0.216 -0.004)"><rect width="681" height="408" transform="translate(0.216 0.004)" fill="none"></rect><path d="M823.649,214.225a113.336,113.336,0,0,0-80.69-53.617,2.833,2.833,0,0,1-2.413-3.155l3.164-26.889a2.833,2.833,0,0,1,3.235-2.489,145.726,145.726,0,0,1,105.114,69.8,2.857,2.857,0,0,1-1.034,3.953L827.5,215.221a2.833,2.833,0,0,1-3.849-1Z" transform="translate(-390.824 -67.577)" fill="#24313e"></path><path d="M870.091,281.045l49.584,42.477a2.833,2.833,0,0,0,4.656-1.639l12.018-64.162a2.833,2.833,0,0,0-3.778-3.216l-61.579,21.68a2.833,2.833,0,0,0-.9,4.859Z" transform="translate(-458.667 -134.223)" fill="#24313e"></path><path d="M435.067,277.7l-26.917-2.89a2.833,2.833,0,0,1-2.526-3.188A145.722,145.722,0,0,1,480.557,162.2a2.833,2.833,0,0,1,3.886,1.195l12.486,24.027a2.862,2.862,0,0,1-1.171,3.82A112.571,112.571,0,0,0,438.2,275.219a2.857,2.857,0,0,1-3.136,2.479Z" transform="translate(-214.062 -85.419)" fill="#24313e"></path><path d="M568.06,194.256,612.45,146.4a2.833,2.833,0,0,0-1.464-4.727l-63.624-14.526A2.833,2.833,0,0,0,544,130.769l19.243,62.382a2.833,2.833,0,0,0,4.817,1.105Z" transform="translate(-287.034 -67.065)" fill="#24313e"></path><path d="M551.943,639.524a145.551,145.551,0,0,1-108.92-72.577,2.833,2.833,0,0,1,1.124-3.905l23.786-12.934a2.857,2.857,0,0,1,3.839,1.1,112.783,112.783,0,0,0,83.585,55.723,2.833,2.833,0,0,1,2.489,3.112l-2.73,26.941a2.833,2.833,0,0,1-3.173,2.541Z" transform="translate(-233.615 -290.147)" fill="#24313e"></path><path d="M474.97,503.928,426.26,460.483a2.833,2.833,0,0,0-4.689,1.544l-13.289,63.9a2.833,2.833,0,0,0,3.683,3.306l62-20.457a2.833,2.833,0,0,0,1.006-4.85Z" transform="translate(-215.441 -242.637)" fill="#24313e"></path><path d="M841.96,570.859l-13.029-23.734a2.862,2.862,0,0,1,1.081-3.844,112.708,112.708,0,0,0,55.435-84.407,2.862,2.862,0,0,1,3.1-2.526l26.96,2.474a2.834,2.834,0,0,1,2.574,3.145,145.7,145.7,0,0,1-72.209,110,2.833,2.833,0,0,1-3.91-1.105Z" transform="translate(-437.299 -240.839)" fill="#24313e"></path><path d="M782.762,594.1,739.5,642.981a2.833,2.833,0,0,0,1.568,4.685L805.033,660.7a2.833,2.833,0,0,0,3.273-3.7l-20.7-61.914a2.833,2.833,0,0,0-4.84-.987Z" transform="translate(-389.898 -313.027)" fill="#24313e"></path><path d="M817.978,214.224a113.336,113.336,0,0,0-80.7-53.617,2.833,2.833,0,0,1-2.418-3.155l3.164-26.889a2.833,2.833,0,0,1,3.24-2.489,145.7,145.7,0,0,1,105.124,69.8,2.833,2.833,0,0,1-1.029,3.953L821.8,215.22A2.833,2.833,0,0,1,817.978,214.224Z" transform="translate(-387.821 -67.577)" fill="#ebf0f5" stroke="#24313e" stroke-miterlimit="10" stroke-width="2"></path><path d="M864.442,281.058,914,323.535a2.833,2.833,0,0,0,4.661-1.639l12.014-64.162a2.833,2.833,0,0,0-3.75-3.216L865.349,276.2a2.833,2.833,0,0,0-.907,4.859Z" transform="translate(-455.687 -134.236)" fill="#ebf0f5" stroke="#24313e" stroke-miterlimit="10" stroke-width="2"></path><path d="M429.417,277.7l-26.917-2.89a2.833,2.833,0,0,1-2.526-3.188A145.712,145.712,0,0,1,474.907,162.2a2.833,2.833,0,0,1,3.886,1.195l12.462,24.027a2.833,2.833,0,0,1-1.171,3.82,112.566,112.566,0,0,0-57.527,83.977,2.862,2.862,0,0,1-3.14,2.479Z" transform="translate(-211.08 -85.419)" fill="#ebf0f5" stroke="#24313e" stroke-miterlimit="10" stroke-width="2"></path><path d="M562.405,194.256,606.8,146.4a2.833,2.833,0,0,0-1.455-4.722l-63.629-14.531a2.833,2.833,0,0,0-3.362,3.617l19.239,62.382a2.833,2.833,0,0,0,4.817,1.105Z" transform="translate(-284.052 -67.065)" fill="#ebf0f5" stroke="#24313e" stroke-miterlimit="10" stroke-width="2"></path><path d="M546.291,639.525a145.542,145.542,0,0,1-108.92-72.577,2.833,2.833,0,0,1,1.119-3.905l23.786-12.934a2.866,2.866,0,0,1,3.844,1.1,112.774,112.774,0,0,0,83.585,55.723,2.833,2.833,0,0,1,2.489,3.112l-2.729,26.941a2.833,2.833,0,0,1-3.173,2.541Z" transform="translate(-230.632 -290.149)" fill="#ebf0f5" stroke="#24313e" stroke-miterlimit="10" stroke-width="2"></path><path d="M469.32,503.928,420.61,460.483a2.833,2.833,0,0,0-4.689,1.544l-13.289,63.9a2.833,2.833,0,0,0,3.683,3.306l62-20.471a2.833,2.833,0,0,0,1.006-4.836Z" transform="translate(-212.459 -242.637)" fill="#ebf0f5" stroke="#24313e" stroke-miterlimit="10" stroke-width="2"></path><path d="M836.3,570.859,823.27,547.124a2.833,2.833,0,0,1,1.081-3.844A112.708,112.708,0,0,0,879.8,458.874a2.857,2.857,0,0,1,3.093-2.526l26.955,2.474a2.834,2.834,0,0,1,2.578,3.145,145.7,145.7,0,0,1-72.214,110,2.833,2.833,0,0,1-3.91-1.105Z" transform="translate(-434.306 -240.839)" fill="#ebf0f5" stroke="#24313e" stroke-miterlimit="10" stroke-width="2"></path><path d="M777.107,594.1,733.85,642.981a2.833,2.833,0,0,0,1.563,4.685L799.377,660.7a2.833,2.833,0,0,0,3.277-3.7l-20.708-61.914a2.833,2.833,0,0,0-4.84-.987Z" transform="translate(-386.915 -313.027)" fill="#ebf0f5" stroke="#24313e" stroke-miterlimit="10" stroke-width="2"></path><rect width="176.87" height="67.222" rx="15.03" transform="translate(63.539 42.411)" fill="#24313e"></rect><rect width="176.87" height="67.222" rx="15.03" transform="translate(55.478 42.411)" fill="#0062ff" stroke="#24313e" stroke-miterlimit="10" stroke-width="2"></rect><g transform="translate(62.901 49.906)"><path d="M8.106-14.7H1.743V0h3.4V-4.053H8.106c3.927,0,6.384-2.037,6.384-5.313C14.49-12.663,12.033-14.7,8.106-14.7ZM7.917-6.825H5.145v-5.1H7.917c2.079,0,3.129.945,3.129,2.562C11.046-7.77,10-6.825,7.917-6.825Z" transform="translate(0 20)" fill="#fff"></path><path d="M14.763,0l-3.3-4.725A4.779,4.779,0,0,0,14.49-9.366c0-3.3-2.457-5.334-6.384-5.334H1.743V0h3.4V-4.1H8.274L11.109,0ZM11.046-9.366C11.046-7.77,10-6.8,7.917-6.8H5.145v-5.124H7.917C10-11.928,11.046-10.983,11.046-9.366Z" transform="translate(14.979 20)" fill="#fff"></path><path d="M8.44.24C12.84.24,16.1-2.82,16.1-7s-3.26-7.24-7.66-7.24C4.02-14.24.78-11.16.78-7S4.02.24,8.44.24Zm0-2.76A4.271,4.271,0,0,1,4.06-7a4.271,4.271,0,0,1,4.38-4.48A4.271,4.271,0,0,1,12.82-7,4.271,4.271,0,0,1,8.44-2.52Z" transform="translate(30.233 19)" fill="#fff"></path><path d="M8.106-14.7H1.743V0h3.4V-4.053H8.106c3.927,0,6.384-2.037,6.384-5.313C14.49-12.663,12.033-14.7,8.106-14.7ZM7.917-6.825H5.145v-5.1H7.917c2.079,0,3.129.945,3.129,2.562C11.046-7.77,10-6.825,7.917-6.825Z" transform="translate(47.845 20)" fill="#fff"></path><path d="M8.44.24C12.84.24,16.1-2.82,16.1-7s-3.26-7.24-7.66-7.24C4.02-14.24.78-11.16.78-7S4.02.24,8.44.24Zm0-2.76A4.271,4.271,0,0,1,4.06-7a4.271,4.271,0,0,1,4.38-4.48A4.271,4.271,0,0,1,12.82-7,4.271,4.271,0,0,1,8.44-2.52Z" transform="translate(63.018 19)" fill="#fff"></path><path d="M11.676-3.276a5.4,5.4,0,0,1-2.646.63,4.537,4.537,0,0,1-4.767-4.7,4.526,4.526,0,0,1,4.809-4.7,4.974,4.974,0,0,1,3.8,1.659l2.184-2.016A7.836,7.836,0,0,0,8.9-14.952c-4.683,0-8.085,3.171-8.085,7.6s3.4,7.6,8.022,7.6a10.144,10.144,0,0,0,5.943-1.869V-7.581H11.676Z" transform="translate(80.676 20)" fill="#fff"></path><path d="M12.726,0H16.3L9.723-14.7H6.363L-.189,0H3.3L4.6-3.15h6.825ZM5.691-5.733l2.331-5.628,2.331,5.628Z" transform="translate(96.673 20)" fill="#fff"></path><path d="M4.56,0H7.8V-11.36h4.48V-14H.08v2.64H4.56Z" transform="translate(111.096 19)" fill="#fff"></path><path d="M1.577,0H4.655V-13.3H1.577Z" transform="translate(123.873 18)" fill="#fff"></path><path d="M11.865-14.7v8.925L4.557-14.7H1.743V0H5.1V-8.925L12.432,0h2.793V-14.7Z" transform="translate(130.688 20)" fill="#fff"></path><path d="M11.676-3.276a5.4,5.4,0,0,1-2.646.63,4.537,4.537,0,0,1-4.767-4.7,4.526,4.526,0,0,1,4.809-4.7,4.974,4.974,0,0,1,3.8,1.659l2.184-2.016A7.836,7.836,0,0,0,8.9-14.952c-4.683,0-8.085,3.171-8.085,7.6s3.4,7.6,8.022,7.6a10.144,10.144,0,0,0,5.943-1.869V-7.581H11.676Z" transform="translate(147.551 20)" fill="#fff"></path><path d="M8.778.252a7.553,7.553,0,0,0,6.069-2.625L12.663-4.389a4.685,4.685,0,0,1-3.7,1.743,4.51,4.51,0,0,1-4.7-4.7,4.51,4.51,0,0,1,4.7-4.7,4.729,4.729,0,0,1,3.7,1.722l2.184-2.016a7.589,7.589,0,0,0-6.048-2.6c-4.578,0-7.98,3.171-7.98,7.6S4.221.252,8.778.252Z" transform="translate(37.366 46.318)" fill="#fff"></path><path d="M11.823-14.7v5.8H5.145v-5.8h-3.4V0h3.4V-6.027h6.678V0h3.4V-14.7ZM29.694,0h3.57L26.691-14.7h-3.36L16.779,0h3.486l1.3-3.15h6.825ZM22.659-5.733l2.331-5.628,2.331,5.628Z" transform="translate(52.493 46.318)" fill="#fff"></path><path d="M11.3-14v8.5L4.34-14H1.66V0h3.2V-8.5L11.84,0H14.5V-14ZM27.28-3.12a5.143,5.143,0,0,1-2.52.6A4.321,4.321,0,0,1,20.22-7a4.31,4.31,0,0,1,4.58-4.48A4.738,4.738,0,0,1,28.42-9.9l2.08-1.92a7.463,7.463,0,0,0-5.86-2.42c-4.46,0-7.7,3.02-7.7,7.24S20.18.24,24.58.24a9.661,9.661,0,0,0,5.66-1.78V-7.22H27.28Z" transform="translate(85.413 45.318)" fill="#fff"></path><path d="M5.124-2.73v-3.4h6.825V-8.778H5.124V-11.97h7.728V-14.7H1.743V0H13.125V-2.73Z" transform="translate(118.373 46.318)" fill="#fff"></path></g><rect width="102.829" height="51.289" rx="15.03" transform="translate(452.167 38.435)" fill="#24313e"></rect><rect width="102.829" height="51.289" rx="15.03" transform="translate(447.483 38.435)" fill="#0062ff" stroke="#24313e" stroke-miterlimit="10" stroke-width="2"></rect><path d="M11.94-7.28a3.365,3.365,0,0,0,1.86-3.08C13.8-12.54,12-14,8.5-14H1.66V0H8.9c3.68,0,5.6-1.4,5.6-3.82A3.457,3.457,0,0,0,11.94-7.28ZM8.1-11.56c1.58,0,2.44.54,2.44,1.64S9.68-8.26,8.1-8.26H4.88v-3.3Zm.56,9.12H4.88V-5.9H8.66c1.68,0,2.58.56,2.58,1.74C11.24-2.96,10.34-2.44,8.66-2.44ZM23.18.24c3.98,0,6.34-2.28,6.34-6.4V-14h-3.2v7.72c0,2.66-1.14,3.76-3.12,3.76-1.96,0-3.12-1.1-3.12-3.76V-14H16.84v7.84C16.84-2.04,19.2.24,23.18.24ZM32.72,0h3.24V-14H32.72Zm6.56,0H49.54V-2.64H42.52V-14H39.28ZM51.162,0h6.36c4.58,0,7.72-2.76,7.72-7s-3.14-7-7.72-7h-6.36ZM54.4-2.66v-8.68h2.96c2.78,0,4.6,1.66,4.6,4.34s-1.82,4.34-4.6,4.34Z" transform="translate(464.455 68.868)" fill="#fff"></path><rect width="113.94" height="47.2" rx="10.17" transform="translate(448.356 318.464)" fill="#24313e"></rect><rect width="113.94" height="47.2" rx="10.17" transform="translate(443.162 318.464)" fill="#0062ff" stroke="#24313e" stroke-miterlimit="10" stroke-width="2"></rect><path d="M4.56,0H7.8V-11.36h4.48V-14H.08v2.64H4.56ZM17.24-2.6V-5.84h6.5V-8.36h-6.5V-11.4H24.6V-14H14.02V0H24.86V-2.6Zm15,2.84c4,0,5.94-2,5.94-4.34,0-5.14-8.14-3.36-8.14-5.94,0-.88.74-1.6,2.66-1.6a7.907,7.907,0,0,1,3.88,1.1l1-2.46a9.391,9.391,0,0,0-4.86-1.24c-3.98,0-5.9,1.98-5.9,4.36,0,5.2,8.14,3.4,8.14,6.02,0,.86-.78,1.5-2.7,1.5a8.235,8.235,0,0,1-4.62-1.46l-1.1,2.44A9.979,9.979,0,0,0,32.238.24ZM43.3,0h3.24V-11.36h4.48V-14h-12.2v2.64H43.3Z" transform="translate(474.495 348)" fill="#fff"></path><rect width="126.341" height="46.099" rx="10.17" transform="translate(118.426 317.685)" fill="#24313e"></rect><rect width="126.341" height="46.099" rx="10.17" transform="translate(112.67 317.685)" fill="#0062ff" stroke="#24313e" stroke-miterlimit="10" stroke-width="2"></rect><path d="M1.66,0H8.02c4.58,0,7.72-2.76,7.72-7s-3.14-7-7.72-7H1.66ZM4.9-2.66v-8.68H7.86c2.78,0,4.6,1.66,4.6,4.34s-1.82,4.34-4.6,4.34Zm16.5.06V-5.84h6.5V-8.36H21.4V-11.4h7.36V-14H18.18V0H29.02V-2.6ZM37.858-14H31.8V0h3.24V-3.86h2.82c3.74,0,6.08-1.94,6.08-5.06C43.938-12.06,41.6-14,37.858-14Zm-.18,7.5h-2.64v-4.86h2.64c1.98,0,2.98.9,2.98,2.44C40.658-7.4,39.658-6.5,37.678-6.5ZM46.04,0H56.3V-2.64H49.28V-14H46.04ZM64.264.24c4.4,0,7.66-3.06,7.66-7.24s-3.26-7.24-7.66-7.24c-4.42,0-7.66,3.08-7.66,7.24S59.844.24,64.264.24Zm0-2.76A4.271,4.271,0,0,1,59.884-7a4.271,4.271,0,0,1,4.38-4.48A4.271,4.271,0,0,1,68.644-7,4.271,4.271,0,0,1,64.264-2.52ZM85.127-14h-3.18l-3.74,6.22L74.467-14h-3.44l5.42,9V0h3.24V-4.96Z" transform="translate(131.621 348.415)" fill="#fff"></path></g></svg>