<svg xmlns="http://www.w3.org/2000/svg" xmlns:xlink="http://www.w3.org/1999/xlink" width="390.131" height="218.004" viewBox="0 0 390.131 218.004"><defs><clipPath id="a"><path d="M4037.058,6086.254h-63.588v-75.175h63.588Z" transform="translate(-3973.471 -6011.079)" fill="none"></path></clipPath></defs><g transform="translate(-372.738 -2865.346)"><g transform="translate(372.738 2865.346)"><g transform="translate(126.847 22.935)"><path d="M3801.83,5560.051a44.651,44.651,0,1,1,13.078,31.574A44.651,44.651,0,0,1,3801.83,5560.051Z" transform="translate(-3801.83 -5515.397)" fill="#6b7e8f"></path><path d="M3844.906,5603.513a44.7,44.7,0,1,1,17.228-3.4A44.7,44.7,0,0,1,3844.906,5603.513Zm0-89.3a44.359,44.359,0,1,0,31.317,12.993,44.359,44.359,0,0,0-31.317-12.993Z" transform="translate(-3800.257 -5513.861)" fill="#24313e"></path></g><g transform="translate(131.959 22.935)"><path d="M3831.69,5560.051a44.651,44.651,0,1,1,13.077,31.574A44.651,44.651,0,0,1,3831.69,5560.051Z" transform="translate(-3831.69 -5515.397)" fill="#9caab8"></path><path d="M3874.776,5603.513a44.7,44.7,0,1,1,17.228-3.4,44.7,44.7,0,0,1-17.228,3.4Zm0-89.3a44.359,44.359,0,1,0,31.316,12.993,44.359,44.359,0,0,0-31.316-12.993Z" transform="translate(-3830.119 -5513.861)" fill="#24313e"></path></g><g transform="translate(0 188.125)"><path d="M3244.021,6484.78v-2.853h-9.545v2.853h-5.856v-2.853h-9.542v2.853h-5.855v-2.853h-9.545v2.853h-5.856v-2.853h-9.541v2.853h-5.855v-2.853h-9.545v2.853h-5.849v-2.853h-9.545v2.853h-5.856v-2.853h-9.544v2.853h-5.856v-2.853h-9.544v2.853h-5.857v-2.853h-9.539v2.853h-5.856v-2.853h-9.544v2.853h-19.92a13.17,13.17,0,0,0-12.447,8.854l-.184,3.691-.184,3.691h0a13.177,13.177,0,0,0,12.815,10.11h360.208a13.171,13.171,0,1,0,0-26.343h-7.506v-2.854h-9.542v2.854h-5.856v-2.854h-9.541v2.854h-5.857v-2.854h-9.541v2.854h-5.856v-2.854h-9.545v2.854h-5.856v-2.854h-9.541v2.853h-5.856v-2.853h-9.545v2.853h-5.856v-2.853h-9.541v2.853h-5.855v-2.853h-9.541v2.853h-5.856v-2.853h-9.545v2.853h-5.856v-2.853h-9.541v2.853h-5.863v-2.853h-9.545v2.853h-5.856v-2.853h-9.541v2.853h-5.718Z" transform="translate(-3062.808 -6481.594)" fill="#455666"></path><path d="M3434.507,6509.815H3074.3a13.462,13.462,0,0,1-13.149-10.369l-.006-.024-.006-.023v-.049l.186-3.716.185-3.716.008-.023.008-.023a13.54,13.54,0,0,1,12.771-9.081h19.578v-2.853H3104.1v2.853h5.171v-2.853H3119.5v2.853h5.171v-2.853h10.23v2.853h5.171v-2.853H3150.3v2.853h5.171v-2.853h10.23v2.853h5.168v-2.853h10.235v2.853h5.171v-2.853H3196.5v2.852h5.171v-2.852h10.23v2.852h5.171v-2.852H3227.3v2.852h5.171v-2.852h10.23v2.852h5.034v-2.852h10.227v2.852h5.171v-2.852h10.23v2.852h5.171v-2.852h10.227v2.852h5.17v-2.852h10.23v2.852h5.171v-2.852h10.226v2.852h5.171v-2.852h10.227v2.852h5.171v-2.852h10.23v2.852h5.171v-2.852h10.215v2.852h5.171v-2.852h10.23v2.852h5.171v-2.852h10.227v2.852h5.171v-2.852h10.227v2.852h5.171v-2.852h10.23v2.852h7.163a13.514,13.514,0,0,1,0,27.028Zm-372.679-10.481a12.778,12.778,0,0,0,12.471,9.8h360.207a12.829,12.829,0,0,0,0-25.658h-7.848v-2.853H3417.8v2.853h-6.541v-2.853H3402.4v2.853h-6.541v-2.853H3387v2.853h-6.541v-2.853H3371.6v2.853h-6.541v-2.853H3356.2v2.853h-6.535v-2.853h-8.86v2.853h-6.541v-2.853h-8.857v2.853h-6.541v-2.853h-8.856v2.853h-6.541v-2.853h-8.86v2.853h-6.541v-2.853h-8.856v2.853h-6.541v-2.853h-8.862v2.853h-6.541v-2.853h-8.857v2.853h-6.4v-2.853h-8.861v2.853h-6.541v-2.853h-8.856v2.853h-6.541v-2.853h-8.859v2.853h-6.541v-2.853h-8.856v2.853h-6.541v-2.853h-8.86v2.853h-6.538v-2.853h-8.854v2.853h-6.541v-2.853h-8.856v2.853h-6.541v-2.853h-8.86v2.853h-6.541v-2.853h-8.857v2.853h-6.541v-2.853h-8.859v2.853H3074.3a12.844,12.844,0,0,0-12.108,8.576l-.181,3.647Z" transform="translate(-3061.139 -6479.938)" fill="#24313e"></path></g><g transform="translate(16.613 188.122)"><path d="M3327.645,6484.78v-2.853H3318.1v2.853h-5.856v-2.853H3302.7v2.853h-5.854v-2.853H3287.3v2.853h-5.857v-2.853H3271.9v2.853h-5.856v-2.853H3256.5v2.853h-5.853v-2.853h-9.544v2.853h-5.856v-2.853h-9.541v2.853h-5.85v-2.853h-9.544v2.853h-5.856v-2.853h-9.544v2.853h-5.856v-2.853h-9.545v2.853h-6.547a13.176,13.176,0,0,0-12.447,8.854h-.184l-.092,3.692-.092,3.691h0a13.177,13.177,0,0,0,12.815,10.11H3519.8a13.171,13.171,0,0,0,0-26.343H3512.3v-2.854h-9.544v2.854H3496.9v-2.854h-9.541v2.854H3481.5v-2.854h-9.542v2.854H3466.1v-2.854h-9.544v2.854H3450.7v-2.854h-9.541v2.854h-5.856v-2.853h-9.549v2.853H3419.9v-2.853h-9.541v2.853h-5.86v-2.853h-9.542v2.853H3389.1v-2.853h-9.545v2.853H3373.7v-2.853h-9.541v2.853h-5.856v-2.853h-9.545v2.853H3342.9v-2.853h-9.541v2.853h-5.718Z" transform="translate(-3159.804 -6481.591)" fill="#9caab8"></path><path d="M3518.14,6509.815H3171.3a13.461,13.461,0,0,1-13.148-10.369l-.006-.022,0-.021v-.045l.1-3.858.1-3.857h.276a13.532,13.532,0,0,1,12.688-8.854h6.208v-2.853h10.23v2.853h5.17v-2.853h10.227v2.853h5.171v-2.853h10.23v2.853h5.171v-2.853h10.227v2.853h5.171v-2.853h10.23v2.853h5.168v-2.853h10.23v2.853h5.171v-2.852h10.227v2.852h5.171v-2.852h10.23v2.852h5.171v-2.852h10.227v2.852h5.171v-2.852h10.23v2.852h5.034v-2.852h10.227v2.852h5.171v-2.852h10.23v2.852h5.171v-2.852h10.227v2.852h5.171v-2.852h10.229v2.852h5.171v-2.852h10.227v2.852h5.171v-2.852h10.227v2.852h5.171v-2.852h10.23v2.852h5.171v-2.852h10.227v2.852h5.171v-2.852h10.23v2.852h5.171v-2.852h10.227v2.852h5.171v-2.852h10.227v2.852h5.171v-2.852h10.23v2.852h7.164a13.514,13.514,0,0,1,0,27.028Zm-359.309-10.485a12.78,12.78,0,0,0,12.472,9.8h346.838a12.829,12.829,0,1,0,0-25.658h-7.848v-2.853h-8.859v2.853h-6.541v-2.853h-8.858v2.853h-6.541v-2.853h-8.856v2.853H3464.1v-2.853h-8.859v2.853H3448.7v-2.853h-8.857v2.853H3433.3v-2.853h-8.859v2.853H3417.9v-2.853h-8.857v2.853H3402.5v-2.853h-8.857v2.853H3387.1v-2.853h-8.859v2.853H3371.7v-2.853h-8.857v2.853H3356.3v-2.853h-8.86v2.853H3340.9v-2.853h-8.857v2.853h-6.4v-2.853h-8.859v2.853h-6.541v-2.853h-8.855v2.853h-6.539v-2.853h-8.86v2.853h-6.541v-2.853h-8.856v2.853h-6.541v-2.853h-8.86v2.853h-6.538v-2.853h-8.859v2.853h-6.541v-2.853h-8.857v2.853h-6.541v-2.853h-8.863v2.853h-6.541v-2.853h-8.857v2.853h-6.541v-2.853h-8.86v2.853H3171.3a12.823,12.823,0,0,0-10.877,6.027,12.685,12.685,0,0,0-1.241,2.6l-.04.115-.04.116h-.093l-.088,3.5Z" transform="translate(-3158.142 -6479.936)" fill="#24313e"></path></g><g transform="translate(33.971 200.746)"><path d="M3263.664,6564.3h342.667a2.155,2.155,0,0,0,2.155-2.155v-4.321a2.155,2.155,0,0,0-2.155-2.155H3263.664a2.155,2.155,0,0,0-2.155,2.155v4.32a2.155,2.155,0,0,0,2.155,2.154Z" transform="translate(-3261.161 -6555.321)" fill="#d9dee5"></path><path d="M3604.674,6562.983H3262a2.5,2.5,0,0,1-2.5-2.5v-4.32a2.5,2.5,0,0,1,2.5-2.5H3604.67a2.5,2.5,0,0,1,2.5,2.5v4.32a2.5,2.5,0,0,1-2.5,2.5Zm-342.667-8.636a1.819,1.819,0,0,0-1.815,1.816v4.319a1.817,1.817,0,0,0,1.815,1.815h342.667a1.816,1.816,0,0,0,1.815-1.813v-4.321a1.819,1.819,0,0,0-1.815-1.815H3262Z" transform="translate(-3259.503 -6553.663)" fill="#24313e"></path></g><g transform="translate(152.976 0)"><g transform="translate(5.603 22.703)"><path d="M4022.924,5514.019a13.948,13.948,0,0,1-4.946,10.483,18.608,18.608,0,0,1-23.895.015,13.935,13.935,0,0,1-4.961-10.5" transform="translate(-3988.776 -5514.019)" fill="#455666"></path><path d="M4004.373,5529.194a18.467,18.467,0,0,1-12.2-4.45,14.275,14.275,0,0,1-5.06-10.724h.685a13.6,13.6,0,0,0,4.86,10.241,18.239,18.239,0,0,0,23.405,0,13.609,13.609,0,0,0,4.852-10.241h.685a14.289,14.289,0,0,1-5.056,10.725,18.414,18.414,0,0,1-12.176,4.449Z" transform="translate(-3987.117 -5514.019)" fill="#24313e"></path></g><g transform="translate(7.216 27.305)"><path d="M3998.995,5545.323l7.073,6.985,7.074,6.983a1.428,1.428,0,0,0,2,0l6.9-6.983,6.906-6.985a1.409,1.409,0,0,0,0-2h0a1.439,1.439,0,0,0-1-.4h-27.96a1.426,1.426,0,0,0-1.409,1.429,1.392,1.392,0,0,0,.415.976Z" transform="translate(-3998.237 -5542.575)" fill="#24313e"></path><path d="M4012.483,5558.381a1.771,1.771,0,0,1-.663-.125,1.731,1.731,0,0,1-.58-.377l-7.074-6.985-7.075-6.986a1.725,1.725,0,0,1-.513-1.215,1.772,1.772,0,0,1,1.748-1.774h27.966a1.752,1.752,0,0,1,1.241,2.993l-6.9,6.985-6.905,6.983a1.759,1.759,0,0,1-.58.379A1.783,1.783,0,0,1,4012.483,5558.381Zm-14.9-14.958,7.073,6.984,7.073,6.983a1.089,1.089,0,0,0,1.521,0l6.9-6.983,6.9-6.982a1.057,1.057,0,0,0-.346-1.741,1.087,1.087,0,0,0-.414-.083h-27.956a1.085,1.085,0,0,0-1.066,1.085,1.043,1.043,0,0,0,.311.735Z" transform="translate(-3996.578 -5540.917)" fill="#24313e"></path></g><g transform="translate(20.5 28.556)"><path d="M4083.812,5574.992l-3.429-3.43-3.429-3.43,8.765-8.743,8.765-8.743a1.331,1.331,0,0,1,1.849,0h0l2.486,2.486,2.486,2.486a1.335,1.335,0,0,1,0,1.855h0l-8.749,8.755Z" transform="translate(-4076.465 -5549.916)" fill="#455666"></path><path d="M4081.462,5573.8l-3.671-3.671-3.672-3.671,8.885-8.867,8.886-8.868a1.67,1.67,0,0,1,2.331,0l2.49,2.486,2.491,2.49a1.673,1.673,0,0,1,0,2.336l-8.873,8.879Zm-6.374-7.341,3.187,3.187,3.187,3.186,8.629-8.633,8.629-8.634a.978.978,0,0,0,.276-.687,1,1,0,0,0-.281-.69l-2.486-2.487-2.486-2.486a.982.982,0,0,0-.684-.276.992.992,0,0,0-.686.28l-8.642,8.618Z" transform="translate(-4074.119 -5548.247)" fill="#24313e"></path></g><g transform="translate(0 28.68)"><path d="M3981.331,5568.471l-3.37,3.481-3.369,3.481-8.9-8.61-8.9-8.61a1.344,1.344,0,0,1,0-1.857h0l2.448-2.531,2.449-2.532a1.32,1.32,0,0,1,1.855,0h0l8.895,8.585Z" transform="translate(-3956.071 -5550.58)" fill="#455666"></path><path d="M3972.941,5574.282l-9.026-8.729-9.025-8.729a1.686,1.686,0,0,1-.01-2.338l2.449-2.532,2.45-2.532a1.669,1.669,0,0,1,2.343-.006l9.018,8.7,9.018,8.7-3.607,3.729Zm-11.989-24.659a.976.976,0,0,0-.365.07.938.938,0,0,0-.32.211l-2.446,2.527-2.446,2.528a1,1,0,0,0,0,1.381l8.775,8.487,8.774,8.487,3.131-3.237,3.131-3.237-8.772-8.467-8.772-8.467a.985.985,0,0,0-.691-.283Z" transform="translate(-3954.414 -5548.938)" fill="#24313e"></path></g><g transform="translate(4.908 3.983)"><path d="M3985.1,5423.719h0a20.638,20.638,0,0,1,3.812-11.166c2.353-3.357,5.6-5.821,9.166-5.821h9.116c3.568,0,6.813,2.465,9.166,5.821a20.645,20.645,0,0,1,3.812,11.167h0" transform="translate(-3984.748 -5406.385)" fill="#0c7ff2"></path><path d="M4018.849,5422.059h-.685a20.012,20.012,0,0,0-3.812-11.074c-2.321-3.245-5.482-5.572-8.826-5.572h-9.116c-3.343,0-6.5,2.327-8.825,5.572a20.005,20.005,0,0,0-3.812,11.074h-.685a18.2,18.2,0,0,1,1.041-5.753,22.6,22.6,0,0,1,2.833-5.61,16.055,16.055,0,0,1,4.461-4.426,9.3,9.3,0,0,1,4.985-1.541h9.116a9.3,9.3,0,0,1,4.985,1.541,16.052,16.052,0,0,1,4.461,4.427,22.553,22.553,0,0,1,2.833,5.61A18.2,18.2,0,0,1,4018.849,5422.059Z" transform="translate(-3983.088 -5404.729)" fill="#24313e"></path></g><g transform="translate(8.919 18.665)"><path d="M4015.116,5492.54a6.546,6.546,0,1,1-4.629,1.917A6.546,6.546,0,0,1,4015.116,5492.54Z" transform="translate(-4008.211 -5492.179)" fill="#0c7ff2"></path><path d="M4013.453,5504.309a6.9,6.9,0,1,1,4.87-2.019A6.895,6.895,0,0,1,4013.453,5504.309Zm0-13.094a6.211,6.211,0,1,0,4.386,1.819A6.211,6.211,0,0,0,4013.453,5491.215Z" transform="translate(-4006.551 -5490.517)" fill="#24313e"></path></g><g transform="translate(12.133 21.869)"><path d="M4030.619,5511.24a3.343,3.343,0,1,1-2.364.979A3.342,3.342,0,0,1,4030.619,5511.24Z" transform="translate(-4026.926 -5510.881)" fill="#3ab2d0"></path><path d="M4028.957,5516.6a3.691,3.691,0,1,1,2.606-1.077,3.691,3.691,0,0,1-2.606,1.077Zm0-6.687a3,3,0,1,0,2.122.88,3,3,0,0,0-2.122-.88Z" transform="translate(-4025.265 -5509.221)" fill="#24313e"></path></g><g transform="translate(23.267 18.662)"><path d="M4098.906,5492.54a6.546,6.546,0,1,1-4.629,1.917,6.545,6.545,0,0,1,4.629-1.917Z" transform="translate(-4091.998 -5492.176)" fill="#0c7ff2"></path><path d="M4097.242,5504.309a6.9,6.9,0,1,1,4.87-2.02A6.9,6.9,0,0,1,4097.242,5504.309Zm0-13.094a6.212,6.212,0,1,0,4.386,1.819,6.212,6.212,0,0,0-4.386-1.819Z" transform="translate(-4090.336 -5490.513)" fill="#24313e"></path></g><g transform="translate(26.483 21.869)"><path d="M4114.4,5511.24a3.343,3.343,0,1,1-2.365.979A3.343,3.343,0,0,1,4114.4,5511.24Z" transform="translate(-4110.712 -5510.881)" fill="#3ab2d0"></path><path d="M4112.747,5516.6a3.691,3.691,0,1,1,2.605-1.077,3.692,3.692,0,0,1-2.605,1.077Zm0-6.687a3,3,0,1,0,2.121.879A3,3,0,0,0,4112.747,5509.917Z" transform="translate(-4109.055 -5509.221)" fill="#24313e"></path></g><g transform="translate(3.469 17.798)"><path d="M3979.287,5487.369h32.724a2.617,2.617,0,0,1,2.625,2.606V5490h0a2.624,2.624,0,0,1-2.625,2.621h-32.724a2.62,2.62,0,0,1-2.625-2.616h0a2.62,2.62,0,0,1,2.616-2.625h.008Z" transform="translate(-3976.318 -5487.029)" fill="#0c7ff2"></path><path d="M3977.627,5491.3a2.965,2.965,0,0,1-.338-5.912v-.019h33.078a2.962,2.962,0,0,1,2.958,2.947v.025a2.971,2.971,0,0,1-2.967,2.962h-32.729Zm0-5.246a2.28,2.28,0,0,0,0,4.558h32.728a2.285,2.285,0,0,0,2.281-2.279v-.022a2.278,2.278,0,0,0-2.274-2.263h-32.731Z" transform="translate(-3974.66 -5485.374)" fill="#24313e"></path></g><g transform="translate(9.89 8.15)"><path d="M4014.618,5433.079l.191-.3.191-.3a3.11,3.11,0,0,1,4.3-.948h0a3.11,3.11,0,0,1,.948,4.3l-.192.3-.191.3a3.11,3.11,0,0,1-4.3.948h0a3.109,3.109,0,0,1-.947-4.3Z" transform="translate(-4013.792 -5430.702)" fill="#6b7e8f"></path><path d="M4015.588,5436.559a3.412,3.412,0,0,1-.959-.138,3.456,3.456,0,0,1-1.944-5.175l.192-.3.19-.3a3.452,3.452,0,1,1,5.819,3.716l-.191.3-.191.3a3.428,3.428,0,0,1-2.167,1.513,3.283,3.283,0,0,1-.376.063A3.4,3.4,0,0,1,4015.588,5436.559Zm.395-6.82a2.773,2.773,0,0,0-2.337,1.28l-.191.3-.191.3a2.767,2.767,0,1,0,4.665,2.979l.191-.3.191-.3a2.764,2.764,0,0,0-2.328-4.257Z" transform="translate(-4012.143 -5429.051)" fill="#24313e"></path></g><g transform="translate(28.592 8.134)"><path d="M4124.822,5431.467h0a3.1,3.1,0,0,1,4.281.927l.008.012.008.013.193.3.192.3a3.1,3.1,0,0,1-.916,4.282l-.014.009-.014.01h0a3.116,3.116,0,0,1-4.3-.953l-.194-.3-.193-.3a3.1,3.1,0,0,1,.917-4.281l.015-.01Z" transform="translate(-4123.033 -5430.626)" fill="#6b7e8f"></path><path d="M4125.231,5436.477a3.477,3.477,0,0,1-1.641-.415,3.421,3.421,0,0,1-1.279-1.183l-.192-.294-.193-.295a3.432,3.432,0,0,1,1.018-4.758l.015-.009.014-.01a3.433,3.433,0,0,1,4.753,1.028l.009.016.01.015.192.293.192.294a3.434,3.434,0,0,1-1.017,4.757l-.016.011-.015.011a3.438,3.438,0,0,1-1.847.536Zm-.4-6.823a2.7,2.7,0,0,0-1.485.443l-.011,0-.01.007a2.791,2.791,0,0,0-.778.752,2.748,2.748,0,0,0-.044,3.062l.193.3.192.295a2.779,2.779,0,0,0,3.826.851l.014-.009.013-.007a2.75,2.75,0,0,0,.815-3.812l-.2-.309-.2-.31a2.735,2.735,0,0,0-1.733-1.2,2.825,2.825,0,0,0-.587-.063Z" transform="translate(-4121.37 -5428.963)" fill="#24313e"></path></g><g transform="translate(5.736)"><path d="M3991.384,5383.686h0a2.486,2.486,0,0,1,3.279,1.267l1.79,4.045,1.79,4.045a2.485,2.485,0,0,1-1.267,3.278h0a2.485,2.485,0,0,1-3.278-1.267l-1.791-4.045-1.79-4.045a2.487,2.487,0,0,1,1.267-3.279Z" transform="translate(-3989.558 -5383.131)" fill="#455666"></path><path d="M3994.3,5395.218a2.818,2.818,0,0,1-2.587-1.686l-1.79-4.044-1.79-4.046a2.823,2.823,0,0,1,1.441-3.729h0a2.823,2.823,0,0,1,3.729,1.441l1.79,4.045,1.791,4.045a2.831,2.831,0,0,1-1.442,3.729,2.845,2.845,0,0,1-1.143.244Zm-3.584-13.063a2.15,2.15,0,0,0-.865.185h0a2.138,2.138,0,0,0-1.092,2.826l1.79,4.046,1.79,4.045a2.146,2.146,0,0,0,3.925-1.734l-1.79-4.045-1.79-4.045a2.128,2.128,0,0,0-.806-.938,2.16,2.16,0,0,0-1.159-.337Z" transform="translate(-3987.896 -5381.47)" fill="#24313e"></path></g><g transform="translate(8.849 6.584)"><path d="M4011.168,5421.939a3.057,3.057,0,1,1-2.162.9,3.058,3.058,0,0,1,2.162-.9Z" transform="translate(-4007.759 -5421.589)" fill="#6b7e8f"></path><path d="M4009.506,5426.742a3.405,3.405,0,1,1,2.4-.994A3.406,3.406,0,0,1,4009.506,5426.742Zm0-6.116a2.719,2.719,0,1,0,1.919.8,2.719,2.719,0,0,0-1.919-.8Z" transform="translate(-4006.099 -5419.931)" fill="#24313e"></path></g><g transform="translate(30.095 0.01)"><path d="M4132.326,5393.111l1.792-4.046,1.793-4.045a2.48,2.48,0,0,1,3.272-1.268h0a2.482,2.482,0,0,1,1.267,3.272h0l-1.791,4.049-1.79,4.048a2.486,2.486,0,0,1-3.276,1.271h0a2.486,2.486,0,0,1-1.265-3.279h0Z" transform="translate(-4131.771 -5383.193)" fill="#455666"></path><path d="M4132.946,5395.287a2.794,2.794,0,0,1-.581-.061,2.886,2.886,0,0,1-.562-.182,2.84,2.84,0,0,1-1.446-3.729l.02-.042.021-.043,1.773-4,1.773-4.005a2.818,2.818,0,0,1,3.709-1.449l.016.007.016.007a2.772,2.772,0,0,1,.89.625,2.817,2.817,0,0,1,.537,3.09l0,.008v.01l-1.787,4.041-1.786,4.042a2.828,2.828,0,0,1-2.591,1.687Zm-1.994-3.617a2.143,2.143,0,1,0,3.955,1.653l1.793-4.061,1.794-4.061a2.1,2.1,0,0,0,.177-.8,2.137,2.137,0,0,0-1.262-2l-.015-.006-.016-.007a2.085,2.085,0,0,0-.8-.175,2.132,2.132,0,0,0-2,1.274l-1.811,4.09Z" transform="translate(-4130.119 -5381.534)" fill="#24313e"></path></g><g transform="translate(29.411 7.4)"><path d="M4131.218,5426.709a3.055,3.055,0,1,1-2.162.9,3.054,3.054,0,0,1,2.162-.9Z" transform="translate(-4127.816 -5426.36)" fill="#6b7e8f"></path><path d="M4129.565,5431.512a3.4,3.4,0,1,1,2.4-.994A3.406,3.406,0,0,1,4129.565,5431.512Zm0-6.116a2.717,2.717,0,1,0,1.919.8A2.717,2.717,0,0,0,4129.565,5425.4Z" transform="translate(-4126.158 -5424.702)" fill="#24313e"></path></g><g transform="translate(20.338 32.976)"><path d="M4095.08,5576.487a1.765,1.765,0,0,1,0,2.486l-8.431,8.425-8.43,8.425a1.763,1.763,0,0,1-2.621-2.358l.04-.041.041-.04h.047l8.425-8.426,8.426-8.426a1.776,1.776,0,0,1,2.5-.047h0Z" transform="translate(-4074.806 -5575.652)" fill="#0c7ff2"></path><path d="M4075.254,5595.1a2.1,2.1,0,0,1-1.564-3.513l.1-.1.1-.1h.047l8.376-8.375,8.376-8.376a2.121,2.121,0,0,1,2.984-.052l.049.047.05.048v.015a2.114,2.114,0,0,1-.091,2.867l-8.428,8.422-8.427,8.423a2.083,2.083,0,0,1-.72.516A2.11,2.11,0,0,1,4075.254,5595.1Zm-1.084-3.021a1.42,1.42,0,0,0,2.141,1.867l.006-.008.007-.005,8.43-8.425,8.43-8.425a1.427,1.427,0,0,0,0-2l-.017-.017-.016-.017a1.436,1.436,0,0,0-1.98.073l-8.478,8.479-8.478,8.479h-.044Z" transform="translate(-4073.149 -5574.001)" fill="#24313e"></path></g><g transform="translate(4.795 33.539)"><path d="M4004.218,5599.14h0a1.768,1.768,0,0,1-2.493,0l-8.42-8.425-8.421-8.424a1.754,1.754,0,0,1,0-2.479h0a1.765,1.765,0,0,1,2.486,0l8.424,8.426,8.424,8.426a1.757,1.757,0,0,1,.011,2.486l-.005,0-.006.006,0-.007a.008.008,0,0,0,0-.008.016.016,0,0,0-.006-.007Z" transform="translate(-3984.034 -5578.953)" fill="#0c7ff2"></path><path d="M4001.325,5598.343a2.1,2.1,0,0,1-1.488-.611l-8.42-8.424-8.421-8.426a2.1,2.1,0,0,1,2.97-2.964l8.425,8.427,8.425,8.428a2.1,2.1,0,0,1,.117,2.855v.009l-.051.051-.052.051h0l-.011.01-.01.01,0,0,0,0a2.1,2.1,0,0,1-.688.445,2.134,2.134,0,0,1-.786.149Zm-16.844-20.351a1.43,1.43,0,0,0-1,.415,1.413,1.413,0,0,0,0,2l8.421,8.424,8.421,8.424a1.43,1.43,0,0,0,2.009,0l.061-.062.063-.062a1.43,1.43,0,0,0,.291-.955,1.41,1.41,0,0,0-.414-.913l-8.425-8.425-8.424-8.427a1.42,1.42,0,0,0-1-.41Z" transform="translate(-3982.383 -5577.309)" fill="#24313e"></path></g><g transform="translate(14.286 40.218)"><path d="M4048.465,5618.439a8.536,8.536,0,1,1-6.038,2.5,8.536,8.536,0,0,1,6.038-2.5Z" transform="translate(-4039.567 -5618.072)" fill="#0c7ff2"></path><path d="M4046.809,5634.194a8.891,8.891,0,1,1,6.277-2.6,8.892,8.892,0,0,1-6.277,2.6Zm0-17.077a8.2,8.2,0,1,0,5.793,2.4,8.2,8.2,0,0,0-5.793-2.4Z" transform="translate(-4037.906 -5616.41)" fill="#24313e"></path></g><g transform="translate(18.469 44.406)"><path d="M4068.667,5642.81a4.366,4.366,0,1,1-3.086,1.279,4.366,4.366,0,0,1,3.086-1.279Z" transform="translate(-4063.947 -5642.457)" fill="#0c7ff2"></path><path d="M4067.005,5650.222a4.711,4.711,0,1,1,3.332-1.383,4.711,4.711,0,0,1-3.332,1.383Zm0-8.731a4.028,4.028,0,1,0,2.843,1.18,4.028,4.028,0,0,0-2.843-1.18Z" transform="translate(-4062.288 -5640.797)" fill="#24313e"></path></g></g><g transform="translate(233.823 149.672)"><path d="M4457.08,6268.35v22.771a3.641,3.641,0,0,1-3.646,3.646h-21.306a3.639,3.639,0,0,1-3.646-3.646v-30.058a3.646,3.646,0,0,1,3.646-3.646h14.635a1.651,1.651,0,0,1,1.2.518l2.084,2.212,2.085,2.213,2.253,2.436,2.254,2.437a1.652,1.652,0,0,1,.438,1.118Z" transform="translate(-4428.145 -6257.074)" fill="#ff603d"></path><path d="M4451.782,6293.449h-21.307a3.989,3.989,0,0,1-3.986-3.985V6259.4a3.991,3.991,0,0,1,3.988-3.988h14.637a2,2,0,0,1,1.448.625l2.085,2.212,2.084,2.214,2.253,2.437,2.255,2.436a1.981,1.981,0,0,1,.529,1.352v22.771a3.99,3.99,0,0,1-3.986,3.986Zm-21.3-37.348a3.309,3.309,0,0,0-3.3,3.3v30.058a3.306,3.306,0,0,0,3.3,3.3h21.307a3.307,3.307,0,0,0,3.3-3.3v-22.77a1.3,1.3,0,0,0-.346-.886l-2.254-2.437-2.254-2.436-2.083-2.211-2.083-2.212a1.313,1.313,0,0,0-.95-.415h-14.637Z" transform="translate(-4426.49 -6255.417)" fill="#24313e"></path></g><g transform="translate(231.358 149.672)"><path d="M4442.679,6268.35v22.771a3.64,3.64,0,0,1-3.646,3.646h-21.307a3.639,3.639,0,0,1-3.646-3.646v-30.058a3.645,3.645,0,0,1,3.646-3.646h14.636a1.649,1.649,0,0,1,1.2.518l2.084,2.212,2.084,2.213,2.254,2.436,2.253,2.437a1.635,1.635,0,0,1,.325.518,1.611,1.611,0,0,1,.118.6Z" transform="translate(-4413.745 -6257.074)" fill="#ff603d"></path><path d="M4437.382,6293.449h-21.306a3.989,3.989,0,0,1-3.986-3.985V6259.4a3.991,3.991,0,0,1,3.988-3.988h14.636a2,2,0,0,1,1.449.625l2.084,2.212,2.084,2.214,2.254,2.437,2.254,2.436a1.982,1.982,0,0,1,.53,1.352v22.771a3.99,3.99,0,0,1-3.986,3.986Zm-21.3-37.348a3.31,3.31,0,0,0-3.3,3.3v30.058a3.307,3.307,0,0,0,3.3,3.3h21.306a3.305,3.305,0,0,0,3.3-3.3v-22.771a1.291,1.291,0,0,0-.346-.886l-2.254-2.437-2.252-2.436-2.084-2.211-2.083-2.212a1.315,1.315,0,0,0-.95-.415h-14.637Z" transform="translate(-4412.09 -6255.417)" fill="#24313e"></path></g><g transform="translate(251.724 150.028)"><path d="M4542.631,6270.36h-9.063a.562.562,0,0,1-.561-.562v-9.715a.561.561,0,0,1,.97-.385l2.16,2.293,2.16,2.295,2.374,2.569,2.374,2.569a.562.562,0,0,1-.415.945Z" transform="translate(-4532.666 -6259.172)" fill="#ebf0f5"></path><path d="M4540.979,6269.038h-9.066a.9.9,0,0,1-.9-.9v-9.712a.9.9,0,0,1,1.562-.621l2.161,2.295,2.16,2.294,2.375,2.569,2.375,2.569a.9.9,0,0,1-.663,1.518Zm-9.059-10.841a.244.244,0,0,0-.05.006.253.253,0,0,0-.036.011.237.237,0,0,0-.083.058.207.207,0,0,0-.053.146v9.715a.22.22,0,0,0,.22.22h9.063a.21.21,0,0,0,.142-.051.24.24,0,0,0,.059-.083.247.247,0,0,0,.019-.1.2.2,0,0,0-.058-.139l-2.374-2.569-2.373-2.569-2.159-2.293-2.16-2.293a.219.219,0,0,0-.083-.056.189.189,0,0,0-.083,0Z" transform="translate(-4531.009 -6257.516)" fill="#24313e"></path></g><g transform="translate(273.672 149.672)"><path d="M4689.769,6268.35v22.771a3.64,3.64,0,0,1-3.646,3.646h-21.308a3.64,3.64,0,0,1-3.646-3.646v-30.058a3.646,3.646,0,0,1,3.646-3.646h14.636a1.649,1.649,0,0,1,1.2.518l2.084,2.212,2.084,2.213,2.254,2.436,2.253,2.437a1.677,1.677,0,0,1,.325.518,1.641,1.641,0,0,1,.119.6Z" transform="translate(-4660.835 -6257.074)" fill="#3ab2d0"></path><path d="M4684.472,6293.449h-21.307a3.991,3.991,0,0,1-3.986-3.986V6259.4a3.991,3.991,0,0,1,3.989-3.988H4677.8a2,2,0,0,1,1.448.625l2.084,2.212,2.084,2.214,2.255,2.437,2.255,2.436a1.983,1.983,0,0,1,.529,1.352v22.771a3.991,3.991,0,0,1-3.986,3.987Zm-21.3-37.348a3.308,3.308,0,0,0-3.3,3.3v30.058a3.306,3.306,0,0,0,3.3,3.3h21.307a3.308,3.308,0,0,0,3.3-3.3v-22.77a1.309,1.309,0,0,0-.346-.887l-2.253-2.436-2.254-2.436-2.083-2.211-2.083-2.212a1.3,1.3,0,0,0-.949-.415h-14.636Z" transform="translate(-4659.179 -6255.417)" fill="#24313e"></path></g><g transform="translate(271.207 149.671)"><path d="M4675.369,6268.35v22.771a3.641,3.641,0,0,1-3.646,3.646h-21.308a3.647,3.647,0,0,1-3.646-3.646v-30.058a3.646,3.646,0,0,1,3.646-3.646h14.636a1.65,1.65,0,0,1,1.2.518l2.084,2.213,2.084,2.213,2.254,2.436,2.253,2.437a1.667,1.667,0,0,1,.325.518,1.64,1.64,0,0,1,.118.6Z" transform="translate(-4646.434 -6257.074)" fill="#3ab2d0"></path><path d="M4670.072,6293.449h-21.308a3.99,3.99,0,0,1-3.986-3.986V6259.4a3.993,3.993,0,0,1,3.988-3.989H4663.4a2,2,0,0,1,1.448.625l2.085,2.212,2.084,2.214,2.255,2.437,2.254,2.437a1.988,1.988,0,0,1,.529,1.351v22.771a3.99,3.99,0,0,1-3.986,3.987Zm-21.3-37.348a3.308,3.308,0,0,0-3.3,3.3v30.058a3.306,3.306,0,0,0,3.3,3.3h21.308a3.308,3.308,0,0,0,3.3-3.3v-22.77a1.3,1.3,0,0,0-.089-.477,1.322,1.322,0,0,0-.257-.414l-2.253-2.436-2.253-2.436-2.083-2.212-2.083-2.212a1.307,1.307,0,0,0-.95-.415h-14.636Z" transform="translate(-4644.779 -6255.416)" fill="#24313e"></path></g><g transform="translate(291.568 150.026)"><path d="M4775.32,6270.36h-9.063a.562.562,0,0,1-.562-.562v-9.715a.562.562,0,0,1,.972-.385l2.159,2.294,2.16,2.295,2.372,2.569,2.373,2.569a.562.562,0,0,1-.414.945Z" transform="translate(-4765.35 -6259.171)" fill="#ebf0f5"></path><path d="M4773.66,6269.038H4764.6a.905.905,0,0,1-.9-.9v-9.712a.9.9,0,0,1,1.563-.62l2.159,2.294,2.16,2.294,2.375,2.569,2.375,2.569a.9.9,0,0,1-.663,1.518ZM4764.6,6258.2a.2.2,0,0,0-.049.005.2.2,0,0,0-.037.011.238.238,0,0,0-.083.059.21.21,0,0,0-.053.146v9.715a.222.222,0,0,0,.22.22h9.063a.21.21,0,0,0,.142-.051.253.253,0,0,0,.057-.083.229.229,0,0,0,.021-.1.2.2,0,0,0-.059-.138l-2.374-2.57-2.374-2.569-2.159-2.293-2.155-2.292a.236.236,0,0,0-.083-.056A.222.222,0,0,0,4764.6,6258.2Z" transform="translate(-4763.692 -6257.515)" fill="#24313e"></path></g><g transform="translate(316.395 149.671)"><path d="M4939.229,6268.35v22.771a3.646,3.646,0,0,1-3.646,3.646h-21.307a3.647,3.647,0,0,1-3.647-3.646v-30.058a3.645,3.645,0,0,1,3.646-3.646h14.636a1.648,1.648,0,0,1,1.2.518l2.084,2.213,2.085,2.213,2.254,2.436,2.253,2.437a1.657,1.657,0,0,1,.438,1.118Z" transform="translate(-4910.295 -6257.074)" fill="#28c397"></path><path d="M4933.932,6293.449h-21.307a3.991,3.991,0,0,1-3.986-3.986V6259.4a3.993,3.993,0,0,1,3.988-3.989h14.637a2,2,0,0,1,1.448.625l2.085,2.212,2.084,2.214,2.254,2.437,2.255,2.437a1.979,1.979,0,0,1,.53,1.352v22.771a3.991,3.991,0,0,1-3.986,3.987Zm-21.3-37.348a3.309,3.309,0,0,0-3.3,3.3v30.058a3.306,3.306,0,0,0,3.3,3.3h21.307a3.308,3.308,0,0,0,3.3-3.3v-22.77a1.325,1.325,0,0,0-.347-.891l-2.253-2.436-2.254-2.436-2.083-2.212-2.083-2.212a1.307,1.307,0,0,0-.95-.415h-14.636Z" transform="translate(-4908.639 -6255.416)" fill="#24313e"></path></g><g transform="translate(313.923 149.671)"><path d="M4924.83,6268.35v22.771a3.646,3.646,0,0,1-3.646,3.646h-21.308a3.647,3.647,0,0,1-3.646-3.646v-30.058a3.646,3.646,0,0,1,3.646-3.646h14.645a1.644,1.644,0,0,1,1.2.518l2.085,2.213,2.084,2.213,2.254,2.436,2.253,2.437a1.648,1.648,0,0,1,.438,1.118Z" transform="translate(-4895.887 -6257.074)" fill="#28c397"></path><path d="M4919.522,6293.449h-21.307a3.989,3.989,0,0,1-3.986-3.986V6259.4a3.993,3.993,0,0,1,3.989-3.989h14.635a2,2,0,0,1,1.449.625l2.085,2.212,2.084,2.214,2.254,2.437,2.255,2.437a1.979,1.979,0,0,1,.53,1.352v22.771a3.992,3.992,0,0,1-3.987,3.986Zm-21.3-37.348a3.309,3.309,0,0,0-3.3,3.3v30.058a3.306,3.306,0,0,0,3.3,3.3h21.307a3.306,3.306,0,0,0,3.3-3.3v-22.77a1.3,1.3,0,0,0-.347-.886l-2.253-2.436-2.254-2.437-2.083-2.211-2.083-2.212a1.307,1.307,0,0,0-.95-.415h-14.635Z" transform="translate(-4894.229 -6255.416)" fill="#24313e"></path></g><g transform="translate(334.292 150.026)"><path d="M5024.78,6270.36h-9.064a.563.563,0,0,1-.562-.562v-9.715a.563.563,0,0,1,.971-.385l2.161,2.294,2.16,2.295,2.373,2.568,2.373,2.57a.562.562,0,0,1-.414.945Z" transform="translate(-5014.811 -6259.171)" fill="#ebf0f5"></path><path d="M5023.12,6269.038h-9.063a.907.907,0,0,1-.9-.9v-9.712a.9.9,0,0,1,1.563-.62l2.16,2.294,2.16,2.294,2.375,2.569,2.374,2.569a.9.9,0,0,1-.663,1.518Zm-9.059-10.841a.178.178,0,0,0-.05.005.226.226,0,0,0-.037.011.273.273,0,0,0-.083.059.213.213,0,0,0-.053.146v9.715a.221.221,0,0,0,.22.22h9.063a.213.213,0,0,0,.144-.051.24.24,0,0,0,.057-.084.215.215,0,0,0,.02-.1.2.2,0,0,0-.06-.138l-2.372-2.57-2.374-2.569-2.159-2.293-2.155-2.292a.228.228,0,0,0-.083-.056A.206.206,0,0,0,5014.062,6258.2Z" transform="translate(-5013.153 -6257.515)" fill="#24313e"></path></g><g transform="translate(243.239 168.284)"><path d="M4487.169,6364.625l-2.229,2.229-2.229,2.229-.629-.629-.627-.628c2.193-2.192,3.4-3.194,4.165-3.546S4486.713,6364.228,4487.169,6364.625Z" transform="translate(-4481.454 -6364.125)" fill="#fff"></path></g><g transform="translate(243.121 168.188)"><path d="M4482.146,6368.7a.091.091,0,0,1-.041-.008.111.111,0,0,1-.033-.022l-.634-.628-.634-.629a.1.1,0,0,1,0-.148c2.229-2.229,3.461-3.238,4.252-3.585s1.142-.029,1.612.395a.1.1,0,0,1,.024.034.116.116,0,0,1,0,.081.135.135,0,0,1-.024.034l-2.229,2.224-2.229,2.225a.045.045,0,0,1-.027.022.071.071,0,0,1-.035.009Zm-1.109-1.363.554.554.555.556,2.15-2.151,2.151-2.151a1.082,1.082,0,0,0-1.461-.2,19.652,19.652,0,0,0-3.951,3.391Z" transform="translate(-4480.772 -6363.533)" fill="#ff6c37"></path></g><g transform="translate(244.56 168.848)"><path d="M4490.378,6373.1l-.607-.607-.607-.607,2.229-2.229,2.23-2.229c.6.6.449,1.393-.179,2.347A21.961,21.961,0,0,1,4490.378,6373.1Z" transform="translate(-4489.165 -6367.425)" fill="#fff"></path></g><g transform="translate(244.466 168.75)"><path d="M4489.919,6372.7a.1.1,0,0,1-.041-.007.117.117,0,0,1-.033-.024l-.607-.608-.608-.607a.06.06,0,0,1-.018-.033.183.183,0,0,1,0-.04.092.092,0,0,1,.008-.041.13.13,0,0,1,.023-.033l2.229-2.229,2.23-2.229a.1.1,0,0,1,.074-.032.1.1,0,0,1,.073.032,1.289,1.289,0,0,1,.313.448,1.307,1.307,0,0,1,.1.535,3.683,3.683,0,0,1-.973,2.044,28.237,28.237,0,0,1-2.684,2.8.184.184,0,0,1-.045.024.154.154,0,0,1-.04.008Zm-1.067-1.321c.338.343.581.581.746.752s.267.263.319.316a30.429,30.429,0,0,0,2.416-2.5,3.917,3.917,0,0,0,1.093-2.123,1.06,1.06,0,0,0-.066-.4,1.179,1.179,0,0,0-.208-.358l-2.155,2.155Z" transform="translate(-4488.611 -6366.818)" fill="#ff6c37"></path></g><g transform="translate(242.073 172.012)"><path d="M4475.834,6385.887l.449.449.449.45a.041.041,0,0,1,.016.031.045.045,0,0,1-.016.032l-.011.01a.02.02,0,0,1-.011,0l-.931.2-.93.2a.178.178,0,0,1-.127-.034.189.189,0,0,1-.073-.115.153.153,0,0,1,.005-.077.169.169,0,0,1,.037-.061l.538-.539.539-.539a.08.08,0,0,1,.036-.02.022.022,0,0,1,.028.01Z" transform="translate(-4474.648 -6385.876)" fill="#fff"></path></g><g transform="translate(241.971 171.899)"><path d="M4474.323,6386.818a.267.267,0,0,1-.2-.082.293.293,0,0,1-.078-.2.282.282,0,0,1,.022-.109.3.3,0,0,1,.062-.092l.539-.539.538-.539a.162.162,0,0,1,.212,0l.449.449.449.449a.127.127,0,0,1,.047.1.152.152,0,0,1-.047.108.107.107,0,0,1-.033.026.171.171,0,0,1-.04.017l-.93.2-.93.2a.135.135,0,0,0-.032.006.1.1,0,0,1-.031,0Zm.982-1.363-.518.518-.518.518a.068.068,0,0,0-.021.039.058.058,0,0,0,.011.046.048.048,0,0,0,.029.032.061.061,0,0,0,.044,0l.872-.19.872-.19-.385-.385Z" transform="translate(-4474.049 -6385.215)" fill="#ff6c37"></path></g><g transform="translate(248.418 165.84)"><path d="M4514.572,6350.312a1.711,1.711,0,1,0-.295,2.705l-.6-.6-.6-.6.75-.746Z" transform="translate(-4511.68 -6349.835)" fill="#fff"></path></g><g transform="translate(248.303 165.73)"><path d="M4512.883,6352.857a1.818,1.818,0,1,1,1.257-3.126.115.115,0,0,1,.023.033.1.1,0,0,1-.023.116l-.713.712-.712.713.56.561.56.56a.1.1,0,0,1,.033.074.1.1,0,0,1-.032.075l-.011.009-.011.011a1.814,1.814,0,0,1-.446.2A1.76,1.76,0,0,1,4512.883,6352.857Zm0-3.412a1.606,1.606,0,0,0-1.126,2.74,1.575,1.575,0,0,0,1.136.461,1.607,1.607,0,0,0,.362-.041,1.455,1.455,0,0,0,.345-.128l-.554-.549-.555-.55a.119.119,0,0,1-.023-.034.11.11,0,0,1,0-.083.115.115,0,0,1,.024-.033l.708-.708.709-.707a1.524,1.524,0,0,0-.478-.276,1.589,1.589,0,0,0-.548-.094Z" transform="translate(-4511.06 -6349.222)" fill="#ff6c37"></path></g><g transform="translate(249.811 166.326)"><path d="M4521.363,6352.705l-.011-.011-.01-.011-.755.746-.756.745.6.6.6.6c.059-.037.117-.076.173-.119a1.46,1.46,0,0,0,.155-.135,1.694,1.694,0,0,0,.011-2.41Z" transform="translate(-4519.83 -6352.683)" fill="#fff"></path></g><g transform="translate(249.701 166.217)"><path d="M4520.519,6354.918a.115.115,0,0,1-.041-.007.13.13,0,0,1-.033-.024l-.6-.6-.6-.6a.122.122,0,0,1-.024-.033.11.11,0,0,1-.007-.041.1.1,0,0,1,.008-.042.107.107,0,0,1,.023-.032l.75-.746.75-.746a.1.1,0,0,1,.148,0l.016.01.017.011a1.814,1.814,0,0,1,.532,1.279,1.839,1.839,0,0,1-.521,1.288,2,2,0,0,1-.166.149,1.493,1.493,0,0,1-.182.126.3.3,0,0,0-.04.015A.058.058,0,0,1,4520.519,6354.918Zm-1.057-1.31.534.534.533.534a1,1,0,0,0,.125-.09c.04-.033.077-.068.108-.1a1.613,1.613,0,0,0,.47-1.1,1.6,1.6,0,0,0-.415-1.122l-.676.671Z" transform="translate(-4519.208 -6352.011)" fill="#ff6c37"></path></g><g transform="translate(244.237 168.79)"><path d="M4492.157,6367.25a.652.652,0,0,0-.92,0l-1.989,1.989-1.989,1.989.331.332.332.332,2.108-1.85,2.107-1.848a.629.629,0,0,0,.222-.444.669.669,0,0,0-.158-.476.237.237,0,0,1-.026-.015l-.018-.017Z" transform="translate(-4487.26 -6367.061)" fill="#fff"></path></g><g transform="translate(244.114 168.642)"><path d="M4487.341,6371.487a.112.112,0,0,1-.042-.007.12.12,0,0,1-.032-.024l-.332-.332-.331-.332a.1.1,0,0,1-.031-.074.1.1,0,0,1,.031-.074l1.989-1.989,1.989-1.988a.755.755,0,1,1,1.069,1.058l-.016.016-.016.017-2.108,1.849-2.108,1.85a.065.065,0,0,1-.024.025.089.089,0,0,1-.039.006Zm-.508-.771.259.258.259.259,2.072-1.817,2.071-1.817a.525.525,0,0,0,.19-.37.572.572,0,0,0-.127-.4.52.52,0,0,0-.369-.19.57.57,0,0,0-.4.126.15.15,0,0,1-.042.033l-1.956,1.959Z" transform="translate(-4486.572 -6366.394)" fill="#ff6c37"></path></g><g transform="translate(239.774 173.615)"><path d="M4462.62,6399.137a.1.1,0,0,0-.047.045.091.091,0,0,0-.006.06l.09.381.089.38a.191.191,0,0,1-.009.159.208.208,0,0,1-.128.1.2.2,0,0,1-.127,0,.212.212,0,0,1-.1-.067l-.58-.576-.58-.575,1.9-1.9,1.9-1.9.656.01.654.011.445.444.443.445a13.324,13.324,0,0,1-1.209.97,25.268,25.268,0,0,1-3.375,2Z" transform="translate(-4461.216 -6395.254)" fill="#fff"></path></g><g transform="translate(239.675 173.513)"><path d="M4462.118,6399.861a.335.335,0,0,1-.123-.022.259.259,0,0,1-.1-.072l-.58-.576-.581-.576a.116.116,0,0,1-.023-.034.1.1,0,0,1-.008-.042.1.1,0,0,1,.031-.072l1.9-1.9,1.9-1.9a.125.125,0,0,1,.073-.032l.655.011.655.011a.107.107,0,0,1,.041.008.1.1,0,0,1,.033.024l.443.444.444.444a.1.1,0,0,1,.024.039.122.122,0,0,1,.007.046.081.081,0,0,1-.009.041.1.1,0,0,1-.034.033l-.037.031-.037.032a16.672,16.672,0,0,1-1.978,1.469,26.871,26.871,0,0,1-2.556,1.436l.09.376.089.375a.329.329,0,0,1-.019.2.339.339,0,0,1-.14.156.355.355,0,0,1-.087.033A.35.35,0,0,1,4462.118,6399.861Zm-1.16-1.322.545.538.543.54a.121.121,0,0,0,.066.054.107.107,0,0,0,.083-.012.123.123,0,0,0,.054-.067.1.1,0,0,0-.012-.082l-.089-.381-.09-.38a.194.194,0,0,1,.106-.222,28.069,28.069,0,0,0,2.53-1.429,16.99,16.99,0,0,0,1.96-1.445l-.39-.392-.392-.391-.607-.011-.607-.011-1.849,1.844Z" transform="translate(-4460.705 -6394.641)" fill="#ff6c37"></path></g><g transform="translate(238.823 177.407)"><path d="M4455.75,6418.312l.454-.455.455-.454.676.675.675.676-1.077-.074-1.078-.074a.16.16,0,0,1-.114-.063.173.173,0,0,1-.035-.126.209.209,0,0,1,.009-.061A.1.1,0,0,1,4455.75,6418.312Z" transform="translate(-4455.707 -6417.404)" fill="#fff"></path></g><g transform="translate(238.713 177.3)"><path d="M4457.459,6418.3l-1.083-.074-1.083-.074a.266.266,0,0,1-.191-.1.3.3,0,0,1-.063-.209.422.422,0,0,1,.027-.092.2.2,0,0,1,.059-.076l.453-.454.454-.454a.107.107,0,0,1,.074-.033.1.1,0,0,1,.074.033l.676.676.676.676a.1.1,0,0,1,.031.053.1.1,0,0,1-.01.063.111.111,0,0,1-.039.047.089.089,0,0,1-.055.016Zm-1.353-1.3-.414.415-.415.414a.054.054,0,0,0-.024.047.053.053,0,0,0,.024.047l.018.015a.038.038,0,0,0,.025.007l.935.063.935.063-.539-.539Z" transform="translate(-4455.037 -6416.734)" fill="#ff6c37"></path></g><g transform="translate(243.085 172.869)"><path d="M4480.688,6392.114a.1.1,0,0,1-.105-.1.109.109,0,0,1,.008-.041.094.094,0,0,1,.023-.033l.513-.513.513-.513a.1.1,0,0,1,.074-.032.1.1,0,0,1,.074.032l.331.332.332.332a.133.133,0,0,1,.033.048.093.093,0,0,1-.031.1.129.129,0,0,1-.054.029l-.845.18-.845.178h-.021Zm1.024-.983-.348.348-.348.349.57-.121.57-.122-.221-.227Z" transform="translate(-4480.583 -6390.877)" fill="#ff6c37"></path></g><g transform="translate(243.52 172.985)"><path d="M4484.449,6392.213l-.58.126-.58.127a.157.157,0,0,1-.119-.019.166.166,0,0,1-.07-.1.176.176,0,0,1,0-.078.183.183,0,0,1,.041-.07l.322-.322.323-.323.331.332Z" transform="translate(-4483.095 -6391.556)" fill="#fff"></path></g><g transform="translate(243.427 172.871)"><path d="M4482.826,6392.007a.264.264,0,0,1-.243-.367.379.379,0,0,1,.053-.083l.322-.323.322-.322a.1.1,0,0,1,.074-.032.1.1,0,0,1,.073.032l.332.332.332.331a.117.117,0,0,1,.032.049.093.093,0,0,1-.031.1.133.133,0,0,1-.054.03l-.581.126-.58.126h-.052Zm.528-.878-.285.285-.285.286a.053.053,0,0,0-.018.032.064.064,0,0,0,.007.031.052.052,0,0,0,.024.024.091.091,0,0,0,.039.007l.486-.106.485-.1-.226-.228Z" transform="translate(-4482.561 -6390.879)" fill="#ff6c37"></path></g><g transform="translate(251.061 167.283)"><path d="M4527.43,6358.343a.115.115,0,0,0-.063-.069.126.126,0,0,0-.1-.005.122.122,0,0,0-.069.063.137.137,0,0,0-.005.1.037.037,0,0,0,.005.017.064.064,0,0,1,0,.016.378.378,0,0,1,.035.2.423.423,0,0,1-.077.2.122.122,0,0,0-.027.089.126.126,0,0,0,.038.083.114.114,0,0,0,.087.024.125.125,0,0,0,.083-.046.666.666,0,0,0,.142-.332.575.575,0,0,0-.057-.336h0Z" transform="translate(-4527.138 -6358.262)" fill="#ff6c37"></path></g><g transform="translate(275.141 169.103)"><path d="M4671.024,6368.983h-3.271l.167.262.166.262h2.926a1.3,1.3,0,0,1,.513.1,1.346,1.346,0,0,1,.435.3,1.382,1.382,0,0,1,.391.963,1.309,1.309,0,0,1-.1.5,1.3,1.3,0,0,1-.288.422,1.486,1.486,0,0,1-.422.293,1.705,1.705,0,0,1-.52.149h-.854l-.5,0,.142.248.143.249h.433l.011.019.013.018h0l.641,1.082.64,1.078,0,0h0a.256.256,0,0,0,.094.062.286.286,0,0,0,.119.02.272.272,0,0,0,.195-.083.3.3,0,0,0,.083-.2.158.158,0,0,0-.044-.117.23.23,0,0,1-.018-.021c-.009-.011-.017-.023-.024-.035l-.526-.9-.526-.9a1.87,1.87,0,0,0,1.7-1.165,1.905,1.905,0,0,0-.408-2.062,1.867,1.867,0,0,0-1.326-.553Zm4.4.053a.228.228,0,0,0-.1-.1.3.3,0,0,0-.279,0,.276.276,0,0,0-.1.094l-.014.023-.014.025a.171.171,0,0,0-.018.113.333.333,0,0,0,.039.111l.223.387.225.386.857,1.492.857,1.492h-2.281l.159.278.159.278h2.282l.345.6.344.6h0a.488.488,0,0,0,.091.117.246.246,0,0,0,.172.065.277.277,0,0,0,.266-.35.249.249,0,0,0-.031-.067l-1.6-2.773-1.6-2.773Zm13.417,5.409H4685.9v-5.265a.277.277,0,1,0-.553,0v5.541a.277.277,0,0,0,.277.277h3.54l-.16-.276Zm-5.777-5.271a.277.277,0,0,0-.276-.271h-.042a.279.279,0,0,0-.142.035.25.25,0,0,0-.1.1l-.912,1.606-.912,1.605-.912-1.605-.912-1.605a.231.231,0,0,0-.1-.1.3.3,0,0,0-.279,0,.266.266,0,0,0-.1.093l-.013.024-.015.025a.177.177,0,0,0-.018.112.3.3,0,0,0,.037.11l1.019,1.789,1.018,1.788h0a.555.555,0,0,0,.091.117.254.254,0,0,0,.172.066h.016a.244.244,0,0,0,.171-.065.53.53,0,0,0,.091-.118l.78-1.369.78-1.367v4.574a.277.277,0,1,0,.554,0v-5.546h0Z" transform="translate(-4667.753 -6368.904)" fill="#d9dee5"></path></g><g transform="translate(320.19 164.308)"><g transform="translate(0.003 9.581)"><path d="M4935.231,6396.85h-4.4v.243a.321.321,0,0,0,.005.071.7.7,0,0,1,.006.071v.017a.073.073,0,0,0,0,.015c0,.027,0,.054.007.084s.006.052.01.083v.015a.508.508,0,0,0,.01.083c0,.026.008.056.012.083h0q.037.264.1.524c.037.173.083.346.133.516h0c.007.028.016.054.023.083s.017.054.024.083v.018l.024.071.024.072.006.018.006.017c.008.021.015.042.022.063s.016.041.023.063a.081.081,0,0,0,.011.027l.011.028c0,.01.014.034.02.051s.014.034.021.052.01.026.015.039.011.025.016.039.012.026.017.04.011.027.018.04.014.033.021.05.014.034.021.049l.014.029.014.029c.008.02.017.039.026.06l.028.058.009.019.01.018.033.067.033.067.005.01,0,.011.038.073.038.073h0l.008.015.01.015,1.878-1.131,1.878-1.13.007,0,.007,0a3.05,3.05,0,0,1-.275-.978Z" transform="translate(-4930.833 -6396.85)" fill="#fff"></path></g><g transform="translate(2.378 11.596)"><path d="M4947.788,6408.638l-.006,0,0,0-1.549,1.549-1.548,1.548.023.022.024.021.044.04c.014.013.029.025.044.038l.022.02.022.02.053.046.052.044.015.013.014.012.068.055.068.054.067.052.066.051h0c.094.07.188.138.286.2s.194.127.294.188a.033.033,0,0,0,.011.006l.01.007.057.034.057.034.035.021.035.02.033.018.033.019.061.033.062.032.008,0,.008,0q.084.045.17.083c.057.025.114.054.172.083l.055-.133.055-.133.779-1.892.779-1.892v-.014a2.772,2.772,0,0,1-.249-.149,2.877,2.877,0,0,1-.236-.176Z" transform="translate(-4944.679 -6408.632)" fill="#fff"></path></g><g transform="translate(1.057 10.831)"><path d="M4941.082,6404.593c-.017-.018-.034-.037-.05-.056l-.047-.057-.041-.052-.04-.052-.044-.061c-.014-.02-.028-.04-.041-.062l-.041-.062-.041-.063-1.88,1.132-1.879,1.133c.028.048.058.1.087.142l.091.139v.009h0v0h0l.008.012.006.012h0c.033.048.065.1.1.143s.068.094.1.141h0l.046.06c.016.019.031.04.046.059l.006.008.006.007.048.061.048.06.013.015.012.014.044.053.045.052.021.022.02.022.039.044.039.044.021.025.021.023.01.011.01.011.029.032.029.032.012.012.012.013.052.054.052.052,1.551-1.552,1.551-1.55-.051-.054-.05-.055Z" transform="translate(-4936.979 -6404.129)" fill="#fff"></path></g><g transform="translate(9.166 11.6)"><path d="M4984.448,6408.63l-.051.041-.052.039v.013l1.131,1.876,1.131,1.878.156-.1.153-.109c.109-.083.218-.166.324-.249s.209-.179.312-.273l-1.549-1.549-1.55-1.548-.005-.006Z" transform="translate(-4984.345 -6408.63)" fill="#fff"></path></g><g transform="translate(2.379 3.122)"><path d="M4953.406,6371.486l-.038-.063-.038-.064-1.056-1.751-1.055-1.751-.064.036-.066.036-.067.035-.067.032a3.005,3.005,0,0,1-1.284.292,2.9,2.9,0,0,1-.432-.033,2.775,2.775,0,0,1-.422-.093c-.023-.006-.047-.016-.071-.024l-.07-.025-.07-.024-.069-.025-.779,1.89-.778,1.89-.03.074-.031.074-.026.064-.027.064h.023l.056.021.055.021.069.028.069.026.036.014.036.013h0a7.307,7.307,0,0,0,1.506.36l.029,0h.093l.06.006.059.005h.029l.073.007.072.006h.539c.2,0,.41-.009.614-.025s.408-.043.611-.077h.02l.064-.012.065-.013.036-.006.037-.007.037-.007.038-.008.062-.013.063-.014h.023a7.163,7.163,0,0,0,.906-.272,7.539,7.539,0,0,0,.863-.387h0c.018-.009.037-.02.054-.031l.054-.031.065-.035.065-.038.046-.024.045-.025h0v0h0l.015-.008.015-.008-.038-.064Zm-5.625-8.507.052-.041.052-.039v-.012l-1.131-1.878-1.131-1.877-.156.1c-.052.036-.1.072-.154.109-.108.083-.218.166-.322.249s-.21.178-.312.273l1.549,1.548,1.549,1.549.006.006Z" transform="translate(-4944.68 -6359.132)" fill="#fff"></path></g><g transform="translate(0 1.944)"><path d="M4932.954,6354.221l-.051.053-.051.054-.052.053-.051.054c-.113.122-.222.249-.327.378s-.2.262-.3.4l-.013.019-.014.019-.033.047-.03.047c-.012.016-.021.032-.032.049l-.033.049c0,.006-.007.013-.011.018l-.012.018a7.363,7.363,0,0,0-1.145,3.664v.3h4.387v-.074a.392.392,0,0,1,0-.075v-.074a.374.374,0,0,1,0-.074,2.973,2.973,0,0,1,.663-1.6l.049-.056.051-.054.049-.056c.017-.019.033-.037.051-.055l-1.551-1.551Zm9.052-1.088-.008-.006-.009,0-.058-.036-.059-.034-.033-.019-.034-.019-.034-.019-.035-.019-.059-.033-.059-.032-.009,0-.01,0c-.128-.067-.258-.131-.39-.19s-.266-.115-.4-.166l-.011,0h-.011l-.088-.032-.088-.032c-.24-.083-.483-.154-.73-.213a7.323,7.323,0,0,0-.747-.137h-.03l-.032,0h-.062l-.06-.006-.059-.006h-.034l-.071-.006-.07-.005h-.243v4.4a3.077,3.077,0,0,1,.338.054,2.887,2.887,0,0,1,.331.091l1.619-1.618,1.619-1.618c-.061-.042-.121-.083-.182-.123s-.122-.083-.186-.118Z" transform="translate(-4930.799 -6352.099)" fill="#fff"></path></g><g transform="translate(3.575 1.895)"><path d="M4955.314,6352.018h-.148c-.155.006-.311.018-.465.033s-.309.036-.462.063h-.021l-.065.012-.064.012-.036.007-.037.007-.038.007-.037.008-.062.014-.062.015h-.023a7.461,7.461,0,0,0-1.771.662l-.053.031-.055.031-.065.036-.064.036-.048.028-.048.027h0l-.013.008-.013.007h0l.038.063.038.063,1.095,1.816,1.093,1.815.065-.037.065-.035.066-.035.067-.032a2.981,2.981,0,0,1,.479-.18,3.028,3.028,0,0,1,.5-.095l.074-.007c.025,0,.05,0,.075,0h.148v-4.387h-.148Z" transform="translate(-4951.663 -6352.008)" fill="#fff"></path></g><g transform="translate(10.238 5.094)"><path d="M4994.968,6374.419v-.178a.313.313,0,0,0,0-.068l-.006-.07v-.036c0-.024-.005-.051-.008-.076s-.006-.052-.008-.079v-.018a.567.567,0,0,0-.011-.083c0-.027-.007-.056-.013-.083v0q-.037-.264-.094-.523c-.038-.171-.083-.344-.131-.515h0c-.008-.026-.017-.053-.024-.082s-.016-.052-.024-.08a.04.04,0,0,0,0-.011v-.011c-.007-.024-.016-.047-.023-.07s-.017-.047-.025-.07l-.006-.019-.006-.019c-.007-.021-.015-.04-.021-.061s-.015-.041-.022-.062l-.011-.029-.012-.029c-.005-.016-.013-.034-.019-.051l-.02-.05-.016-.04-.017-.039-.017-.04c0-.013-.011-.026-.017-.039s-.014-.034-.021-.049-.014-.034-.022-.05l-.013-.028-.012-.028c-.01-.02-.018-.04-.029-.061l-.027-.058c0-.006-.006-.012-.008-.018l-.009-.018-.033-.067-.034-.067,0-.01-.005-.009c-.012-.025-.025-.049-.038-.073s-.025-.049-.039-.073h0c-.063-.118-.131-.232-.2-.345s-.144-.224-.22-.332l-1.618,1.619-1.62,1.619a3.121,3.121,0,0,1,.144.663h4.4v-.065Z" transform="translate(-4990.459 -6370.596)" fill="#fff"></path></g><g transform="translate(9.504 9.282)"><path d="M4987.13,6395.109v.222a.33.33,0,0,1-.006.075,2.975,2.975,0,0,1-.663,1.6c-.016.02-.033.039-.049.055l-.051.056c-.018.018-.033.036-.05.055s-.033.037-.051.055l1.551,1.551,1.552,1.55.051-.053.051-.052.052-.054c.017-.017.034-.036.051-.056q.171-.185.332-.38c.1-.13.2-.262.3-.4l.012-.017.011-.015.034-.05c.011-.016.022-.033.035-.05l.03-.046.029-.045.015-.022.014-.021a7.3,7.3,0,0,0,.82-1.771,7.43,7.43,0,0,0,.324-1.889v-.3h-4.387Z" transform="translate(-4986.261 -6395.109)" fill="#fff"></path></g><g transform="translate(5.318)"><path d="M4972.629,6341.5a2.053,2.053,0,0,0-3.293,2.365l-2.238,2.238-2.237,2.238a2.08,2.08,0,0,0-1.231-.19,2.057,2.057,0,1,0,2.155,1.118l2.238-2.239,2.238-2.237a2.054,2.054,0,0,0,2.366-3.291Z" transform="translate(-4961.885 -6340.898)" fill="#fff"></path></g></g><g transform="translate(123.641 64.738)"><path d="M3816.781,5799.485h-31.689v-36.812a1.194,1.194,0,0,1,1.194-1.193h29.3a1.194,1.194,0,0,1,1.194,1.193v36.812Z" transform="translate(-3784.752 -5761.139)" fill="#6b7e8f"></path><path d="M3815.469,5798.173H3783.1V5761.02a1.537,1.537,0,0,1,1.536-1.537h29.3a1.539,1.539,0,0,1,1.537,1.537v37.154Zm-31.689-.686h31V5761.02a.852.852,0,0,0-.851-.851h-29.3a.853.853,0,0,0-.851.852Z" transform="translate(-3783.096 -5759.482)" fill="#24313e"></path></g><g transform="translate(148.59 64.738)"><path d="M4004.744,5799.485h-73.963v-36.812a1.193,1.193,0,0,1,1.193-1.193h69.574a3.194,3.194,0,0,1,3.195,3.2v34.806Z" transform="translate(-3930.443 -5761.139)" fill="#9caab8"></path><path d="M4003.432,5798.173h-74.648V5761.02a1.538,1.538,0,0,1,1.537-1.537H3999.9a3.54,3.54,0,0,1,3.538,3.538v35.153Zm-73.963-.686h73.278V5763.02a2.858,2.858,0,0,0-2.853-2.853H3930.32a.853.853,0,0,0-.851.852Z" transform="translate(-3928.785 -5759.482)" fill="#24313e"></path></g><g transform="translate(107.73 98.136)"><path d="M3826.086,6048.923H3692.179v-92.4h133.906v92.4Z" transform="translate(-3691.836 -5956.168)" fill="#6b7e8f"></path><path d="M3824.766,6047.6H3690.18v-93.091h134.59V6047.6Zm-133.906-.68h133.22V5955.2h-133.22v91.722Z" transform="translate(-3690.18 -5954.509)" fill="#24313e"></path></g><g transform="translate(146.446 98.136)"><path d="M4013.774,6048.923H3918.28v-92.4h95.491v92.4Z" transform="translate(-3917.938 -5956.168)" fill="#9caab8"></path><path d="M4012.462,6047.6H3916.28v-93.091h96.177V6047.6Zm-95.492-.685h94.806V5955.2H3916.97v91.722Z" transform="translate(-3916.28 -5954.509)" fill="#24313e"></path></g><g transform="translate(155.728 107.228)"><path d="M4050.352,6085.541h-77.893v-75.963h77.893Z" transform="translate(-3972.12 -6009.237)" fill="#455666"></path><path d="M4049.04,6084.229h-78.577v-76.648h78.577Zm-77.893-.686h77.208v-75.277h-77.208Z" transform="translate(-3970.463 -6007.581)" fill="#24313e"></path></g><g transform="translate(156.245 107.823)"><g transform="translate(0 0)" clip-path="url(#a)"><g transform="translate(-20.814 -15.594)"><g transform="translate(8.12 66.18)"><g transform="translate(0.34 0.349)"><path d="M3939.892,6309.326a2.17,2.17,0,0,0-2.774.414l-1.183,1.346-1.184,1.345a2.18,2.18,0,0,1-1.694.735l-5.09-.149-5.091-.148a2.161,2.161,0,0,1-.906-.229,2.187,2.187,0,0,1-.73-.592l-1.092-1.371-1.093-1.372a2.17,2.17,0,0,0-2.752-.547l-1.428.791-1.429.79a2.172,2.172,0,0,0-1,2.62l.6,1.726.6,1.727a2.18,2.18,0,0,1-.2,1.862l-2.555,4.138-2.555,4.138a2.172,2.172,0,0,1-1.538,1.009l-1.76.256-1.76.255a2.166,2.166,0,0,0-1.859,2.094l-.042,1.632-.042,1.632a2.173,2.173,0,0,0,1.756,2.193l1.772.344,1.773.345a2.17,2.17,0,0,1,1.5,1.1l2.3,4.276,2.3,4.276a2.17,2.17,0,0,1,.258.912,2.147,2.147,0,0,1-.159.936l-.678,1.667-.678,1.667a2.172,2.172,0,0,0,.868,2.667l1.385.859,1.385.859a2.17,2.17,0,0,0,2.774-.414l1.186-1.345,1.185-1.344a2.159,2.159,0,0,1,1.694-.735l5.089.148,5.089.147a2.191,2.191,0,0,1,.912.229,2.147,2.147,0,0,1,.728.59l1.092,1.374,1.091,1.374a2.175,2.175,0,0,0,2.756.548l1.429-.792,1.43-.792a2.173,2.173,0,0,0,.994-2.621l-.6-1.726-.6-1.725a2.158,2.158,0,0,1-.111-.953,2.2,2.2,0,0,1,.309-.912l2.555-4.136,2.555-4.139a2.178,2.178,0,0,1,1.539-1.008l1.76-.256,1.76-.255a2.174,2.174,0,0,0,1.865-2.1l.04-1.633.041-1.633a2.178,2.178,0,0,0-1.757-2.188l-1.773-.345-1.773-.344a2.173,2.173,0,0,1-1.5-1.1l-2.3-4.278-2.3-4.278a2.17,2.17,0,0,1-.1-1.847l.679-1.669.679-1.668a2.171,2.171,0,0,0-.868-2.666l-1.386-.858Zm-7.537,15.574a5.183,5.183,0,1,0,0,.005Z" transform="translate(-3901.341 -6308.484)" fill="#28c397"></path></g><path d="M3936,6355.049a2.507,2.507,0,0,1-1.968-.95l-1.091-1.375-1.091-1.373a1.829,1.829,0,0,0-.613-.5,1.851,1.851,0,0,0-.769-.192l-5.088-.148-5.088-.147a1.8,1.8,0,0,0-.786.148,1.837,1.837,0,0,0-.642.469l-1.186,1.345-1.186,1.345a2.509,2.509,0,0,1-3.212.476l-1.384-.859-1.385-.859a2.507,2.507,0,0,1-1-3.088l.678-1.665.677-1.666a1.814,1.814,0,0,0-.083-1.558l-2.3-4.277-2.3-4.277a1.833,1.833,0,0,0-1.264-.931l-1.772-.345-1.772-.345a2.505,2.505,0,0,1-2.032-2.537l.042-1.632.042-1.631a2.505,2.505,0,0,1,2.155-2.425l1.761-.256,1.76-.254a1.818,1.818,0,0,0,1.3-.851l2.556-4.137,2.555-4.137a1.827,1.827,0,0,0,.171-1.57l-.6-1.726-.6-1.726a2.51,2.51,0,0,1,1.16-3.031l1.429-.791,1.429-.79a2.5,2.5,0,0,1,3.186.633l1.092,1.371,1.092,1.372a1.847,1.847,0,0,0,.614.5,1.793,1.793,0,0,0,.763.193l5.091.149,5.091.148a1.787,1.787,0,0,0,.784-.149,1.836,1.836,0,0,0,.644-.471l1.183-1.344,1.184-1.345a2.506,2.506,0,0,1,3.211-.478l1.387.859,1.385.858a2.507,2.507,0,0,1,1,3.087l-.678,1.668-.679,1.668a1.824,1.824,0,0,0,.083,1.554l2.3,4.279,2.3,4.279a1.831,1.831,0,0,0,1.264.931l1.772.344,1.772.345a2.51,2.51,0,0,1,2.035,2.535l-.041,1.631-.04,1.633a2.51,2.51,0,0,1-2.155,2.427l-1.76.255-1.76.255a1.838,1.838,0,0,0-1.3.851l-2.555,4.137-2.555,4.138a1.846,1.846,0,0,0-.262.766,1.794,1.794,0,0,0,.1.8l.6,1.726.6,1.726a2.508,2.508,0,0,1-1.154,3.034l-1.43.792-1.43.792a2.521,2.521,0,0,1-1.223.318Zm-15.767-5.368h.083l5.088.147,5.088.148a2.524,2.524,0,0,1,1.9.947l1.091,1.373,1.091,1.374a1.827,1.827,0,0,0,2.321.461l1.43-.792,1.429-.792a1.823,1.823,0,0,0,.839-2.208l-.6-1.726-.6-1.726a2.478,2.478,0,0,1-.13-1.1,2.534,2.534,0,0,1,.36-1.053l2.556-4.14,2.556-4.139a2.518,2.518,0,0,1,1.78-1.169l1.76-.256,1.76-.255a1.823,1.823,0,0,0,1.575-1.766l.04-1.632.04-1.633a1.823,1.823,0,0,0-1.481-1.844l-1.772-.345-1.773-.345a2.515,2.515,0,0,1-1.735-1.279l-2.3-4.279-2.3-4.278a2.51,2.51,0,0,1-.117-2.138l.679-1.669.679-1.668a1.823,1.823,0,0,0-.731-2.247l-1.387-.857-1.387-.858a1.823,1.823,0,0,0-2.336.347l-1.184,1.345-1.184,1.345a2.532,2.532,0,0,1-1.965.85l-5.091-.149-5.09-.148a2.511,2.511,0,0,1-1.893-.952l-1.093-1.37-1.092-1.372a1.818,1.818,0,0,0-2.32-.46l-1.429.79-1.429.791a1.824,1.824,0,0,0-.842,2.207l.6,1.726.6,1.727a2.51,2.51,0,0,1-.235,2.154l-2.556,4.137-2.556,4.138a2.5,2.5,0,0,1-1.781,1.167l-1.76.256-1.76.255a1.823,1.823,0,0,0-1.566,1.764l-.042,1.633-.042,1.633a1.824,1.824,0,0,0,1.479,1.847l1.772.345,1.772.345a2.512,2.512,0,0,1,1.736,1.278l2.3,4.276,2.3,4.277a2.5,2.5,0,0,1,.115,2.144l-.678,1.665-.677,1.666a1.823,1.823,0,0,0,.731,2.247l1.386.859,1.385.859a1.823,1.823,0,0,0,2.336-.347l1.186-1.344,1.185-1.345a2.5,2.5,0,0,1,1.881-.852Zm5.6-9.628a9.142,9.142,0,0,1-2.6-.374,9.412,9.412,0,0,1-2.416-1.11,9.216,9.216,0,0,1-2.548-2.441,9.419,9.419,0,0,1-1.6-6.779,9.281,9.281,0,0,1,14.215-6.4h0a9.217,9.217,0,0,1,2.549,2.442,9.421,9.421,0,0,1,1.6,6.78,9.272,9.272,0,0,1-7.046,7.634,9.615,9.615,0,0,1-1.078.189,9.426,9.426,0,0,1-1.088.069Zm.043-17.909a8.553,8.553,0,1,0,4.64,1.374,8.678,8.678,0,0,0-2.237-1.026,8.466,8.466,0,0,0-2.4-.343Z" transform="translate(-3899.343 -6306.465)" fill="#24313e"></path></g><g transform="translate(0 18.338)"><g transform="translate(0.339 0.348)"><path d="M3892.482,6029.936a2.172,2.172,0,0,0-2.774.414l-1.184,1.346-1.184,1.346a2.182,2.182,0,0,1-1.693.735l-5.091-.15-5.091-.148a2.174,2.174,0,0,1-.906-.23,2.2,2.2,0,0,1-.729-.591l-1.092-1.372-1.092-1.371a2.169,2.169,0,0,0-2.753-.545l-1.428.79-1.429.79a2.172,2.172,0,0,0-1,2.62l.6,1.726.6,1.726a2.183,2.183,0,0,1-.2,1.862l-2.555,4.138-2.555,4.138a2.174,2.174,0,0,1-1.538,1.009l-1.76.255-1.761.255a2.166,2.166,0,0,0-1.859,2.095l-.042,1.632-.043,1.631a2.173,2.173,0,0,0,1.757,2.193l1.772.344,1.772.345a2.171,2.171,0,0,1,1.5,1.1l2.3,4.276,2.3,4.276a2.167,2.167,0,0,1,.1,1.852l-.678,1.666-.678,1.667a2.173,2.173,0,0,0,.867,2.667l1.386.859,1.385.859a2.171,2.171,0,0,0,2.773-.415l1.186-1.344,1.185-1.345a2.161,2.161,0,0,1,1.694-.734l5.089.148,5.088.147a2.194,2.194,0,0,1,.912.229,2.164,2.164,0,0,1,.728.589l1.093,1.374,1.091,1.373a2.175,2.175,0,0,0,2.755.549l1.429-.792,1.43-.792a2.175,2.175,0,0,0,.994-2.622l-.6-1.725-.6-1.726a2.146,2.146,0,0,1-.111-.952,2.2,2.2,0,0,1,.309-.912l2.556-4.137,2.555-4.138a2.183,2.183,0,0,1,1.539-1.009l1.76-.256,1.76-.255a2.173,2.173,0,0,0,1.864-2.1l.041-1.632.04-1.633a2.176,2.176,0,0,0-1.758-2.189l-1.772-.345-1.773-.344a2.176,2.176,0,0,1-1.5-1.1l-2.3-4.278-2.3-4.278a2.17,2.17,0,0,1-.1-1.848l.679-1.667.678-1.669a2.17,2.17,0,0,0-.868-2.666l-1.385-.858Zm-7.537,15.575a8.95,8.95,0,1,1-6.906-1.186,8.949,8.949,0,0,1,6.906,1.186Z" transform="translate(-3853.927 -6029.096)" fill="#28c397"></path></g><path d="M3888.593,6075.66a2.511,2.511,0,0,1-1.966-.95l-1.092-1.374-1.091-1.375a1.834,1.834,0,0,0-1.381-.688l-5.088-.148-5.088-.147a1.806,1.806,0,0,0-1.427.618l-1.186,1.345-1.186,1.345a2.509,2.509,0,0,1-3.211.477l-1.386-.86-1.386-.859a2.508,2.508,0,0,1-1-3.087l.678-1.667.677-1.666a1.813,1.813,0,0,0-.083-1.559l-2.3-4.275-2.3-4.277a1.822,1.822,0,0,0-1.263-.93l-1.772-.346-1.773-.345a2.508,2.508,0,0,1-2.032-2.537l.042-1.632.042-1.63a2.5,2.5,0,0,1,2.155-2.424l1.76-.257,1.761-.255a1.823,1.823,0,0,0,1.3-.851l2.556-4.137,2.555-4.137a1.833,1.833,0,0,0,.172-1.57l-.6-1.726-.6-1.726a2.511,2.511,0,0,1,1.16-3.032l1.429-.79,1.429-.791a2.5,2.5,0,0,1,3.186.633l1.092,1.371,1.092,1.372a1.848,1.848,0,0,0,.614.5,1.806,1.806,0,0,0,.764.191l5.091.149,5.091.147a1.8,1.8,0,0,0,.785-.148,1.838,1.838,0,0,0,.642-.468l1.184-1.346,1.183-1.346a2.507,2.507,0,0,1,3.211-.477l1.386.857,1.386.858a2.508,2.508,0,0,1,1,3.087l-.679,1.668-.679,1.668a1.825,1.825,0,0,0,.083,1.555l2.3,4.279,2.3,4.278a1.824,1.824,0,0,0,1.264.931l1.773.345,1.772.344a2.511,2.511,0,0,1,2.035,2.533l-.04,1.634-.041,1.632a2.511,2.511,0,0,1-2.155,2.427l-1.76.255-1.76.256a1.83,1.83,0,0,0-1.3.851l-2.555,4.137-2.555,4.137a1.849,1.849,0,0,0-.262.767,1.8,1.8,0,0,0,.094.8l.6,1.726.6,1.726a2.51,2.51,0,0,1-1.153,3.035l-1.43.791-1.43.792a2.519,2.519,0,0,1-1.223.316Zm-15.767-5.368h.083l5.088.148,5.088.147a2.515,2.515,0,0,1,1.054.267,2.484,2.484,0,0,1,.841.682l1.091,1.374,1.091,1.374a1.823,1.823,0,0,0,2.32.46l1.43-.791,1.429-.792a1.823,1.823,0,0,0,.84-2.208l-.6-1.725-.6-1.726a2.488,2.488,0,0,1-.13-1.1,2.54,2.54,0,0,1,.359-1.055l2.556-4.139,2.556-4.138a2.507,2.507,0,0,1,1.78-1.167l1.76-.256,1.761-.256a1.825,1.825,0,0,0,1.575-1.766l.04-1.632.041-1.634a1.829,1.829,0,0,0-1.482-1.844l-1.773-.344-1.772-.345a2.517,2.517,0,0,1-1.735-1.278l-2.3-4.278-2.3-4.278a2.514,2.514,0,0,1-.118-2.139l.679-1.667.679-1.669a1.823,1.823,0,0,0-.731-2.247l-1.387-.858-1.385-.858a1.824,1.824,0,0,0-2.336.347l-1.183,1.346-1.184,1.345a2.53,2.53,0,0,1-1.96.85l-5.091-.148-5.091-.148a2.506,2.506,0,0,1-1.894-.95l-1.092-1.372-1.093-1.372a1.818,1.818,0,0,0-2.321-.461l-1.429.79-1.429.791a1.83,1.83,0,0,0-.842,2.208l.6,1.726.6,1.727a2.511,2.511,0,0,1-.235,2.154l-2.555,4.138-2.555,4.137a2.511,2.511,0,0,1-1.781,1.17l-1.76.254-1.76.257a1.823,1.823,0,0,0-1.566,1.763l-.041,1.632-.042,1.632a1.823,1.823,0,0,0,1.479,1.846l1.773.345,1.773.345a2.52,2.52,0,0,1,1.735,1.278l2.3,4.277,2.3,4.276a2.493,2.493,0,0,1,.115,2.142l-.677,1.666-.678,1.666a1.824,1.824,0,0,0,.731,2.247l1.385.86,1.385.86a1.824,1.824,0,0,0,2.336-.347l1.186-1.344,1.186-1.345a2.488,2.488,0,0,1,1.881-.851Zm5.6-9.627a9.153,9.153,0,0,1-2.595-.375,9.4,9.4,0,0,1-2.417-1.11,9.217,9.217,0,0,1-2.548-2.441,9.423,9.423,0,0,1-1.6-6.779,9.28,9.28,0,0,1,14.216-6.405h0a9.211,9.211,0,0,1,2.548,2.442,9.423,9.423,0,0,1,1.6,6.781,9.253,9.253,0,0,1-7.044,7.635,9.471,9.471,0,0,1-1.078.189,8.988,8.988,0,0,1-1.081.06Zm.043-17.91a8.69,8.69,0,0,0-2,.235,8.547,8.547,0,1,0,4.406.112,8.426,8.426,0,0,0-2.4-.351Z" transform="translate(-3851.931 -6027.078)" fill="#24313e"></path></g><g transform="translate(47.496 34.931)"><g transform="translate(0.339 0.344)"><path d="M4157.924,6126.58a1.5,1.5,0,0,0-1.916.284l-.818.93-.817.93a1.507,1.507,0,0,1-1.17.507l-3.518-.1-3.517-.1a1.5,1.5,0,0,1-1.129-.568l-.755-.947-.755-.947a1.5,1.5,0,0,0-1.9-.378l-.986.546-.987.545a1.5,1.5,0,0,0-.69,1.81l.414,1.192.415,1.191a1.511,1.511,0,0,1-.14,1.287l-1.766,2.858-1.765,2.859a1.524,1.524,0,0,1-.454.467,1.478,1.478,0,0,1-.609.23l-1.215.175-1.217.177a1.491,1.491,0,0,0-1.283,1.447l-.029,1.127-.029,1.128a1.5,1.5,0,0,0,1.213,1.514l1.225.239,1.225.238a1.5,1.5,0,0,1,1.036.763l1.589,2.955,1.588,2.955a1.49,1.49,0,0,1,.069,1.277l-.468,1.153-.468,1.151a1.5,1.5,0,0,0,.6,1.842l.956.595.958.593a1.5,1.5,0,0,0,1.916-.285l.82-.929.818-.929a1.493,1.493,0,0,1,1.171-.506l3.515.1,3.516.1a1.5,1.5,0,0,1,1.133.565l.753.948.754.95a1.505,1.505,0,0,0,1.906.378l.987-.547.987-.547a1.5,1.5,0,0,0,.688-1.811l-.414-1.191-.415-1.191a1.481,1.481,0,0,1-.077-.659,1.527,1.527,0,0,1,.214-.627l1.765-2.858,1.766-2.859a1.505,1.505,0,0,1,1.063-.7l1.215-.176,1.217-.176a1.5,1.5,0,0,0,1.288-1.449l.028-1.127.028-1.128a1.5,1.5,0,0,0-1.214-1.512l-1.225-.237-1.225-.239a1.5,1.5,0,0,1-1.036-.763l-1.588-2.956-1.589-2.955a1.5,1.5,0,0,1-.069-1.276l.469-1.153.469-1.153a1.5,1.5,0,0,0-.6-1.842l-.957-.592Zm-5.207,10.76a6.183,6.183,0,1,1-4.77-.818,6.183,6.183,0,0,1,4.77.818Z" transform="translate(-4131.286 -6125.996)" fill="#28c397"></path></g><path d="M4154.723,6157.76a1.838,1.838,0,0,1-1.443-.7l-.753-.949-.755-.949a1.137,1.137,0,0,0-.387-.313,1.149,1.149,0,0,0-.485-.122l-3.516-.1-3.516-.1a1.131,1.131,0,0,0-.9.391l-.82.929-.819.928a1.837,1.837,0,0,1-2.353.349l-.957-.593-.958-.593a1.841,1.841,0,0,1-.736-2.264l.469-1.152.467-1.151a1.146,1.146,0,0,0-.051-.986l-1.589-2.954-1.588-2.955a1.156,1.156,0,0,0-.8-.589l-1.225-.239-1.225-.239a1.837,1.837,0,0,1-1.492-1.859l.028-1.127.029-1.126a1.838,1.838,0,0,1,1.575-1.777l1.216-.176,1.216-.176a1.151,1.151,0,0,0,.82-.539l1.765-2.858,1.766-2.859a1.154,1.154,0,0,0,.107-.995l-.415-1.192-.415-1.191a1.841,1.841,0,0,1,.848-2.223l.987-.546.986-.547a1.832,1.832,0,0,1,2.335.464l.755.948.755.947a1.155,1.155,0,0,0,.872.439l3.517.1,3.517.1a1.176,1.176,0,0,0,.908-.392l.817-.928.818-.929a1.836,1.836,0,0,1,2.353-.349l.958.592.958.593a1.835,1.835,0,0,1,.736,2.262l-.468,1.153-.468,1.153a1.165,1.165,0,0,0-.082.5,1.147,1.147,0,0,0,.137.484l1.588,2.956,1.589,2.956a1.154,1.154,0,0,0,.8.59l1.225.238,1.226.239a1.841,1.841,0,0,1,1.491,1.857l-.028,1.128-.028,1.127a1.84,1.84,0,0,1-1.582,1.778l-1.216.176-1.214.177a1.154,1.154,0,0,0-.822.539l-1.766,2.859-1.764,2.858a1.173,1.173,0,0,0-.167.485,1.15,1.15,0,0,0,.06.5l.415,1.192.414,1.193a1.836,1.836,0,0,1-.845,2.224l-.987.547-.988.547a1.835,1.835,0,0,1-.439.175A1.881,1.881,0,0,1,4154.723,6157.76Zm-10.893-3.92h.059l3.516.1,3.516.1a1.86,1.86,0,0,1,.773.195,1.825,1.825,0,0,1,.617.5l.754.949.754.949a1.162,1.162,0,0,0,1.47.292l.988-.548.986-.547a1.155,1.155,0,0,0,.531-1.4l-.414-1.192-.414-1.192a1.813,1.813,0,0,1-.1-.8,1.86,1.86,0,0,1,.264-.773l1.766-2.859,1.766-2.859a1.847,1.847,0,0,1,1.305-.856l1.216-.176,1.216-.177a1.156,1.156,0,0,0,1-1.117l.028-1.129.028-1.128a1.156,1.156,0,0,0-.937-1.167l-1.225-.239-1.225-.238a1.841,1.841,0,0,1-1.273-.938l-1.587-2.954-1.588-2.955a1.836,1.836,0,0,1-.083-1.567l.47-1.153.468-1.153a1.153,1.153,0,0,0-.462-1.422l-.958-.593-.958-.592a1.155,1.155,0,0,0-1.479.22l-.818.929-.817.929a1.847,1.847,0,0,1-1.437.623l-3.518-.1-3.517-.1a1.827,1.827,0,0,1-.77-.194,1.857,1.857,0,0,1-.618-.5l-.755-.947-.755-.948a1.149,1.149,0,0,0-1.467-.291l-.987.546-.987.547a1.155,1.155,0,0,0-.533,1.4l.415,1.192.414,1.192a1.841,1.841,0,0,1-.172,1.579l-1.765,2.859-1.765,2.858a1.837,1.837,0,0,1-1.306.857l-1.215.176-1.216.177a1.151,1.151,0,0,0-.995,1.115l-.029,1.128-.029,1.128a1.153,1.153,0,0,0,.937,1.169l1.225.239,1.225.238a1.838,1.838,0,0,1,1.272.937l1.588,2.955,1.589,2.953a1.822,1.822,0,0,1,.083,1.574l-.468,1.152-.467,1.151a1.155,1.155,0,0,0,.463,1.422l.958.593.957.594a1.155,1.155,0,0,0,1.479-.22l.819-.929.818-.929a1.833,1.833,0,0,1,1.38-.624Zm3.866-6.439a6.454,6.454,0,0,1-1.823-.263,6.528,6.528,0,1,1,5.372-11.752h0a6.52,6.52,0,0,1-2.033,11.838,6.625,6.625,0,0,1-.757.134,6.463,6.463,0,0,1-.759.044Zm.029-12.374a5.807,5.807,0,1,0,3.148.933,5.871,5.871,0,0,0-1.519-.7,5.718,5.718,0,0,0-1.627-.235Z" transform="translate(-4129.288 -6123.984)" fill="#24313e"></path></g><g transform="translate(40.506 0)"><g transform="translate(0.342 0.342)"><path d="M4117.124,5922.589a1.5,1.5,0,0,0-1.916.284l-.818.929-.818.93a1.512,1.512,0,0,1-1.171.507l-3.517-.1-3.518-.1a1.5,1.5,0,0,1-1.129-.569l-.755-.947-.754-.947a1.5,1.5,0,0,0-1.9-.378l-.987.546-.986.545a1.5,1.5,0,0,0-.691,1.809l.415,1.192.414,1.191a1.53,1.53,0,0,1,.075.663,1.5,1.5,0,0,1-.216.627l-1.765,2.859-1.765,2.858a1.514,1.514,0,0,1-.454.466,1.473,1.473,0,0,1-.609.231l-1.216.176-1.216.176a1.492,1.492,0,0,0-1.284,1.447l-.029,1.127-.029,1.127a1.5,1.5,0,0,0,1.213,1.514l1.225.238,1.225.239a1.507,1.507,0,0,1,1.036.762l1.589,2.955,1.589,2.954a1.5,1.5,0,0,1,.178.632,1.462,1.462,0,0,1-.109.646l-.469,1.151-.467,1.152a1.5,1.5,0,0,0,.6,1.842l.958.593.957.594a1.5,1.5,0,0,0,1.917-.285l.819-.929.818-.928a1.492,1.492,0,0,1,1.17-.507l3.517.1,3.515.1a1.534,1.534,0,0,1,.628.158,1.5,1.5,0,0,1,.5.407l.754.949.754.949a1.506,1.506,0,0,0,1.906.378l.987-.546.988-.547a1.5,1.5,0,0,0,.688-1.812l-.415-1.191-.415-1.192a1.5,1.5,0,0,1,.138-1.284l1.764-2.858,1.766-2.858a1.5,1.5,0,0,1,1.063-.7l1.216-.176,1.216-.177a1.5,1.5,0,0,0,1.289-1.448l.027-1.128.028-1.128a1.5,1.5,0,0,0-1.215-1.512l-1.225-.239-1.225-.238a1.5,1.5,0,0,1-1.035-.763l-1.589-2.955-1.589-2.955a1.5,1.5,0,0,1-.069-1.276l.469-1.153.468-1.153a1.5,1.5,0,0,0-.6-1.842l-.957-.593Zm-5.207,10.759a6.185,6.185,0,1,1-4.771-.817,6.186,6.186,0,0,1,4.771.817Z" transform="translate(-4090.484 -5922.003)" fill="#9caab8"></path></g><path d="M4113.922,5953.77a1.839,1.839,0,0,1-1.44-.7l-.754-.949-.755-.949a1.169,1.169,0,0,0-.874-.435l-3.515-.1-3.516-.1a1.152,1.152,0,0,0-.9.39l-.819.929-.819.929a1.839,1.839,0,0,1-2.354.349l-.957-.594-.958-.593a1.837,1.837,0,0,1-.736-2.263l.468-1.152.468-1.151a1.147,1.147,0,0,0-.054-.985l-1.588-2.955-1.589-2.955a1.152,1.152,0,0,0-.8-.588l-1.225-.239-1.225-.239a1.838,1.838,0,0,1-1.492-1.86l.029-1.127.029-1.126a1.836,1.836,0,0,1,1.575-1.778l1.216-.175,1.216-.177a1.134,1.134,0,0,0,.47-.178,1.169,1.169,0,0,0,.352-.361l1.766-2.859,1.764-2.858a1.143,1.143,0,0,0,.167-.483,1.156,1.156,0,0,0-.059-.511l-.414-1.193-.415-1.192a1.841,1.841,0,0,1,.849-2.222l.986-.545.987-.546a1.833,1.833,0,0,1,2.334.462l.755.948.755.948a1.165,1.165,0,0,0,.388.316,1.144,1.144,0,0,0,.482.121l3.519.1,3.517.1a1.156,1.156,0,0,0,.9-.391l.817-.929.818-.929a1.838,1.838,0,0,1,2.354-.35l.957.593.957.592a1.839,1.839,0,0,1,.737,2.263l-.469,1.152-.468,1.153a1.168,1.168,0,0,0-.083.5,1.145,1.145,0,0,0,.137.485l1.589,2.956,1.588,2.956a1.164,1.164,0,0,0,.8.589l1.225.238,1.225.239a1.839,1.839,0,0,1,1.492,1.856l-.028,1.127-.029,1.128a1.835,1.835,0,0,1-1.582,1.779l-1.215.177-1.215.176a1.161,1.161,0,0,0-.821.539l-1.766,2.858-1.765,2.859a1.191,1.191,0,0,0-.166.484,1.141,1.141,0,0,0,.06.506l.415,1.192.414,1.193a1.84,1.84,0,0,1-.845,2.225l-.988.547-.987.547a1.9,1.9,0,0,1-.44.176A1.845,1.845,0,0,1,4113.922,5953.77Zm-10.893-3.919h.06l3.516.1,3.515.1a1.871,1.871,0,0,1,.774.194,1.836,1.836,0,0,1,.617.5l.755.948.754.949a1.16,1.16,0,0,0,1.469.292l.987-.547.987-.548a1.155,1.155,0,0,0,.531-1.4l-.414-1.192-.415-1.192a1.814,1.814,0,0,1-.1-.8,1.875,1.875,0,0,1,.263-.772l1.766-2.861,1.765-2.859a1.845,1.845,0,0,1,1.3-.856l1.216-.176,1.216-.177a1.16,1.16,0,0,0,.995-1.117l.028-1.128.028-1.128a1.154,1.154,0,0,0-.937-1.167l-1.225-.239-1.225-.238a1.851,1.851,0,0,1-1.273-.937l-1.587-2.956-1.588-2.956a1.837,1.837,0,0,1-.083-1.566l.469-1.153.469-1.154a1.153,1.153,0,0,0-.462-1.421l-.958-.593-.958-.592a1.162,1.162,0,0,0-1.479.22l-.817.93-.817.929a1.856,1.856,0,0,1-1.437.623l-3.517-.1-3.518-.1a1.838,1.838,0,0,1-1.389-.7l-.754-.948-.755-.948a1.153,1.153,0,0,0-1.466-.291l-.987.546-.988.547a1.16,1.16,0,0,0-.533,1.4l.415,1.192.414,1.192a1.837,1.837,0,0,1-.172,1.579l-1.766,2.859-1.766,2.858a1.836,1.836,0,0,1-1.3.856l-1.215.176-1.216.177a1.153,1.153,0,0,0-.995,1.116l-.028,1.128-.029,1.128a1.154,1.154,0,0,0,.937,1.169l1.225.238,1.225.239a1.846,1.846,0,0,1,1.272.938l1.589,2.954,1.589,2.954a1.824,1.824,0,0,1,.083,1.575l-.468,1.151-.468,1.15a1.156,1.156,0,0,0,.464,1.423l.956.594.957.593a1.156,1.156,0,0,0,1.479-.22l.819-.929.819-.93a1.82,1.82,0,0,1,1.379-.623Zm3.866-6.439a6.4,6.4,0,0,1-1.823-.264,6.529,6.529,0,1,1,5.371-11.752h0a6.521,6.521,0,0,1-2.033,11.838,6.773,6.773,0,0,1-.758.135,6.64,6.64,0,0,1-.757.044Zm.03-12.374a5.759,5.759,0,0,0-.68.04,6.076,6.076,0,0,0-.68.121,5.8,5.8,0,1,0,4.508.771,5.952,5.952,0,0,0-1.519-.7,5.722,5.722,0,0,0-1.627-.236Z" transform="translate(-4088.485 -5919.996)" fill="#24313e"></path></g></g></g></g><g transform="translate(113.258 131.196)"><path d="M3751.052,6205.683H3724.5v-56.117h26.554Z" transform="translate(-3724.15 -6149.216)" fill="#455666"></path><path d="M3749.73,6204.361h-27.24v-56.8h27.24Zm-26.554-.686h25.87v-55.432h-25.87Z" transform="translate(-3722.491 -6147.558)" fill="#24313e"></path></g><g transform="translate(148.151 100.648)"><g transform="translate(0.001 85.111)"><path d="M3926.928,6467.2h-.685v-1.028h.685Z" transform="translate(-3926.243 -6466.169)" fill="#24313e"></path></g><g transform="translate(0 3.659)"><path d="M3926.928,6069.955h-.685v-2.037h.685Zm0-4.073h-.685v-2.034h.685v2.037Zm0-4.073h-.685v-2.037h.685Zm0-4.073h-.685V6055.7h.685Zm0-4.073h-.685v-2.037h.685Zm0-4.073h-.685v-2.036h.685Zm0-4.073h-.685v-2.036h.685Zm0-4.072h-.685v-2.038h.685Zm0-4.073h-.685v-2.037h.685Zm0-4.073h-.685v-2.037h.685Zm0-4.073h-.685v-2.036h.685Zm0-4.073h-.685v-2.036h.685Zm0-4.073h-.685v-2.036h.685Zm0-4.072h-.685v-2.037h.685Zm0-4.073h-.685V6010.9h.685Zm0-4.073h-.685v-2.037h.685Zm0-4.073h-.685v-2.037h.685Zm0-4.073h-.685v-2.036h.685Zm0-4.073h-.685v-2.036h.685Zm0-4.073h-.685v-2.036h.685Z" transform="translate(-3926.243 -5990.534)" fill="#24313e"></path></g><g transform="translate(0.001 0.252)"><path d="M3926.928,5972h-.685v-1.369h1.368v.686h-.686V5972Z" transform="translate(-3926.243 -5970.627)" fill="#24313e"></path></g><g transform="translate(3.461 0.004)"><path d="M3946.42,5970.119v-.684h2.085v.685h-2.085Zm4.169-.012v-.685h2.084v.684h-2.084Zm4.17-.011v-.687h2.086v.686h-2.086Zm4.169-.013v-.686h2.085v.686h-2.085Zm4.17-.012v-.684h2.084v.686H3963.1Zm4.169-.011v-.685h2.084v.685h-2.084Zm4.169-.012v-.685h2.085v.685h-2.085Zm4.17-.011v-.686h2.085v.686h-2.085Zm4.169-.013v-.685h2.085v.685h-2.085Zm4.17-.012v-.686h2.085v.685h-2.085Zm4.169-.012v-.686h2.085V5970h-2.085Zm4.169-.013v-.686h2.084v.686h-2.084Zm4.169-.012v-.685h2.084v.684h-2.084Zm4.169-.011v-.686h2.085v.686h-2.085Zm4.169-.012v-.685h2.085v.686h-2.085Zm4.169-.012v-.686h2.085v.685h-2.085Zm4.169-.012v-.686h2.085v.686h-2.085Zm4.17-.012v-.685h2.085v.685H4017.3Zm4.169-.012v-.685h2.084v.685h-2.084Zm4.169-.012v-.686h2.085v.685h-2.085Zm4.169-.012v-.686h2.085v.686h-2.085Z" transform="translate(-3946.42 -5969.196)" fill="#24313e"></path></g><g transform="translate(91.022 0)"><path d="M4459.087,5970.516h-.686v-.685h-.684v-.686h1.371v1.372Z" transform="translate(-4457.718 -5969.146)" fill="#24313e"></path></g><g transform="translate(91.707 3.398)"><path d="M4462.408,6068.456h-.685v-2.036h.685Zm0-4.073h-.685v-2.035h.685v2.037Zm0-4.073h-.685v-2.037h.685Zm0-4.073h-.685V6054.2h.685Zm0-4.073h-.685v-2.037h.685Zm0-4.074h-.685v-2.036h.685Zm0-4.073h-.685v-2.036h.685Zm0-4.072h-.685v-2.037h.685Zm0-4.074h-.685v-2.033h.685v2.037Zm0-4.073h-.685v-2.036h.685Zm0-4.073h-.685v-2.037h.685Zm0-4.074h-.685v-2.037h.685Zm0-4.073h-.685v-2.037h.685Zm0-4.073h-.685v-2.036h.685Zm0-4.074h-.685V6009.4h.685Zm0-4.071h-.685v-2.03h.685v2.037Zm0-4.074h-.685v-2.036h.685Zm0-4.073h-.685v-2.038h.685Zm0-4.074h-.685v-2.036h.685Zm0-4.073h-.685v-2.036h.685Z" transform="translate(-4461.724 -5989.033)" fill="#24313e"></path></g><g transform="translate(91.707 84.859)"><path d="M4462.408,6465.707h-.685v-1.027h.685Z" transform="translate(-4461.724 -6464.68)" fill="#24313e"></path></g></g><g transform="translate(110.087 101.643)"><g transform="translate(0 84.116)"><path d="M3704.638,6467.2h-.685v-1.028h.685Z" transform="translate(-3703.953 -6466.169)" fill="#24313e"></path></g><g transform="translate(0 3.651)"><path d="M3704.638,6074.724h-.685v-2.013h.685Zm0-4.023h-.685v-2.013h.685Zm0-4.023h-.685v-2.014h.685v2.012Zm0-4.024h-.685v-2.013h.685Zm0-4.023h-.685v-2.013h.685Zm0-4.024h-.685v-2.013h.685Zm0-4.022h-.685v-2.014h.685Zm0-4.024h-.685v-2.01h.685Zm0-4.023h-.685v-2.012h.685Zm0-4.024h-.685V6036.5h.685Zm0-4.024h-.685v-2.011h.685Zm0-4.022h-.685v-2.016h.685v2.012Zm0-4.023h-.685v-2.013h.685Zm0-4.023h-.685v-2.012h.685Zm0-4.023h-.685v-2.013h.685Zm0-4.023h-.685v-2.013h.685Zm0-4.023h-.685v-2.013h.685Zm0-4.024h-.685v-2.013h.685Zm0-4.024h-.685v-2.011h.685Zm0-4.023h-.685v-2.013h.685Z" transform="translate(-3703.953 -5996.262)" fill="#24313e"></path></g><g transform="translate(0 0.258)"><path d="M3704.638,5977.845h-.685v-1.367l.684,0,.684-.006v.687h-.687v.688Z" transform="translate(-3703.953 -5976.467)" fill="#24313e"></path></g><g transform="translate(3.504 0.029)"><path d="M3724.39,5976.055v-.686l1.065-.008,1.066-.008v.686l-1.066.008Zm4.263-.032v-.685l1.066-.007,1.065-.008v.686l-1.065.007Zm4.262-.032v-.685l1.065-.007,1.066-.008v.685l-1.066.008Zm4.263-.031v-.687l1.066-.008,1.065-.007v.685l-1.065.008Zm4.263-.033v-.685l1.066-.008,1.066-.007v.685l-1.065.007Zm4.262-.031v-.685l1.066-.008,1.065-.008v.685l-1.066.008Zm4.263-.032v-.685l1.066-.008,1.066-.007v.684l-1.066.008Z" transform="translate(-3724.39 -5975.163)" fill="#24313e"></path></g><g transform="translate(33.339 0)"><path d="M3899.987,5976.385h-.685v-.683h-.683v-.685l.686,0,.686,0v1.373Z" transform="translate(-3898.618 -5975.007)" fill="#24313e"></path></g><g transform="translate(34.026 3.398)"><path d="M3903.318,6073.245h-.685v-2.013h.685Zm0-4.023h-.685v-2.013h.685Zm0-4.025h-.685v-2.012h.685Zm0-4.023h-.685v-2.012h.685Zm0-4.023h-.685v-2.012h.685Zm0-4.023h-.685v-2.011h.685Zm0-4.023h-.685v-2.013h.685v2.012Zm0-4.022h-.685v-2.012h.685Zm0-4.024h-.685v-2.011h.685Zm0-4.023h-.685v-2.013h.685Zm0-4.024h-.685V6031h.685Zm0-4.023h-.685v-2.012h.685Zm0-4.023h-.685v-2.012h.685Zm0-4.023h-.685v-2.011h.685Zm0-4.023h-.685V6014.9h.685Zm0-4.023h-.685v-2.018h.685v2.011Zm0-4.023h-.685v-2.013h.685Zm0-4.024h-.685v-2.011h.685Zm0-4.023h-.685v-2.012h.685Zm0-4.023h-.685v-2.013h.685Z" transform="translate(-3902.634 -5994.785)" fill="#24313e"></path></g><g transform="translate(34.027 83.87)"><path d="M3903.318,6465.728h-.685V6464.7h.685Z" transform="translate(-3902.634 -6464.699)" fill="#24313e"></path></g></g><g transform="translate(175.569 69.474)"><g transform="translate(0 0)"><path d="M4125.965,5815.07h-35.552a2.114,2.114,0,0,1-2.115-2.116v-21.7a2.113,2.113,0,0,1,2.115-2.116h35.552a2.115,2.115,0,0,1,2.115,2.116v21.7a2.115,2.115,0,0,1-2.116,2.116Z" transform="translate(-4087.96 -5788.792)" fill="#28c397"></path><path d="M4124.314,5813.749h-35.553a2.462,2.462,0,0,1-2.458-2.458v-21.7a2.461,2.461,0,0,1,2.458-2.459h35.553a2.461,2.461,0,0,1,2.458,2.458v21.7a2.462,2.462,0,0,1-2.458,2.458Zm-35.553-25.939a1.776,1.776,0,0,0-1.773,1.774v21.7a1.776,1.776,0,0,0,1.773,1.774h35.553a1.776,1.776,0,0,0,1.773-1.774v-21.7a1.776,1.776,0,0,0-1.773-1.774h-35.553Z" transform="translate(-4086.303 -5787.133)" fill="#24313e"></path></g><g transform="translate(1.833 0)"><path d="M4136.665,5815.07h-35.552a2.114,2.114,0,0,1-2.116-2.116v-21.7a2.114,2.114,0,0,1,2.116-2.115h35.552a2.115,2.115,0,0,1,2.116,2.116v21.7a2.115,2.115,0,0,1-2.116,2.116Z" transform="translate(-4098.658 -5788.792)" fill="#28c397"></path><path d="M4135.014,5813.749h-35.552a2.462,2.462,0,0,1-2.459-2.458v-21.7a2.462,2.462,0,0,1,2.458-2.459h35.552a2.462,2.462,0,0,1,2.458,2.458v21.7a2.464,2.464,0,0,1-2.458,2.458Zm-35.552-25.939a1.775,1.775,0,0,0-1.773,1.774v21.7a1.775,1.775,0,0,0,1.773,1.774h35.552a1.776,1.776,0,0,0,1.773-1.774v-21.7a1.776,1.776,0,0,0-1.774-1.774h-35.552Z" transform="translate(-4097.003 -5787.133)" fill="#24313e"></path></g><g transform="translate(5.53 3.498)"><path d="M4151.057,5817.922h-28.333a2.116,2.116,0,0,1-2.116-2.116v-4.126a2.116,2.116,0,0,1,2.116-2.116h28.333a2.116,2.116,0,0,1,2.116,2.116v4.126A2.116,2.116,0,0,1,4151.057,5817.922Z" transform="translate(-4120.269 -5809.223)" fill="#3ab2d0"></path><path d="M4149.406,5816.611h-28.334a2.461,2.461,0,0,1-2.458-2.458v-4.126a2.459,2.459,0,0,1,2.458-2.457H4149.4a2.461,2.461,0,0,1,2.458,2.458v4.126a2.461,2.461,0,0,1-2.458,2.458Zm-28.334-8.354a1.775,1.775,0,0,0-1.774,1.773v4.126a1.774,1.774,0,0,0,1.773,1.773H4149.4a1.774,1.774,0,0,0,1.773-1.773v-4.125a1.774,1.774,0,0,0-1.773-1.773Z" transform="translate(-4118.613 -5807.569)" fill="#24313e"></path></g><g transform="translate(5.533 13.919)"><path d="M4122.822,5874.105h-.92a1.292,1.292,0,0,1-1.291-1.292V5871.7a1.293,1.293,0,0,1,1.292-1.292h.92a1.291,1.291,0,0,1,1.292,1.292v1.115a1.29,1.29,0,0,1-1.291,1.292Z" transform="translate(-4120.274 -5870.065)" fill="#f4e969"></path><path d="M4121.172,5872.793h-.92a1.637,1.637,0,0,1-1.634-1.635v-1.115a1.635,1.635,0,0,1,1.633-1.633h.921a1.636,1.636,0,0,1,1.634,1.633v1.115A1.637,1.637,0,0,1,4121.172,5872.793Zm-.92-3.7a.949.949,0,0,0-.949.947v1.116a.95.95,0,0,0,.949.949h.92a.947.947,0,0,0,.949-.948v-1.115a.948.948,0,0,0-.949-.948Z" transform="translate(-4118.618 -5868.411)" fill="#031439"></path></g><g transform="translate(9.911 13.919)"><path d="M4148.393,5874.105h-.92a1.292,1.292,0,0,1-1.292-1.292V5871.7a1.291,1.291,0,0,1,1.292-1.291h.92a1.293,1.293,0,0,1,1.291,1.292v1.115A1.292,1.292,0,0,1,4148.393,5874.105Z" transform="translate(-4145.843 -5870.066)" fill="#f4e969"></path><path d="M4146.742,5872.794h-.921a1.638,1.638,0,0,1-1.634-1.635v-1.115a1.636,1.636,0,0,1,1.634-1.633h.921a1.636,1.636,0,0,1,1.634,1.634v1.114A1.636,1.636,0,0,1,4146.742,5872.794Zm-.921-3.7a.949.949,0,0,0-.949.948v1.115a.949.949,0,0,0,.949.949h.921a.948.948,0,0,0,.949-.948v-1.115a.949.949,0,0,0-.949-.948Z" transform="translate(-4144.187 -5868.411)" fill="#031439"></path></g><g transform="translate(14.22 13.919)"><path d="M4173.572,5874.105h-.92a1.293,1.293,0,0,1-1.292-1.292V5871.7a1.293,1.293,0,0,1,1.292-1.292h.92a1.293,1.293,0,0,1,1.292,1.292v1.115A1.293,1.293,0,0,1,4173.572,5874.105Z" transform="translate(-4171.014 -5870.066)" fill="#f4e969"></path><path d="M4171.912,5872.794h-.921a1.635,1.635,0,0,1-1.633-1.635v-1.115a1.633,1.633,0,0,1,1.633-1.633h.922a1.636,1.636,0,0,1,1.634,1.633v1.115A1.637,1.637,0,0,1,4171.912,5872.794Zm-.921-3.7a.948.948,0,0,0-.949.948v1.115a.948.948,0,0,0,.949.948h.921a.948.948,0,0,0,.948-.948v-1.115a.948.948,0,0,0-.948-.948Z" transform="translate(-4169.357 -5868.411)" fill="#031439"></path></g><g transform="translate(5.533 18.997)"><path d="M4122.822,5903.755h-.92a1.289,1.289,0,0,1-1.292-1.291v-1.114a1.292,1.292,0,0,1,1.292-1.292h.92a1.29,1.29,0,0,1,1.292,1.291v1.114a1.288,1.288,0,0,1-1.291,1.291Z" transform="translate(-4120.274 -5899.718)" fill="#f4e969"></path><path d="M4121.172,5902.445h-.92a1.636,1.636,0,0,1-1.634-1.634V5899.7a1.638,1.638,0,0,1,1.634-1.634h.92a1.637,1.637,0,0,1,1.635,1.634v1.114A1.634,1.634,0,0,1,4121.172,5902.445Zm-.92-3.7a.95.95,0,0,0-.949.949v1.114a.95.95,0,0,0,.949.949h.92a.948.948,0,0,0,.949-.949V5899.7a.949.949,0,0,0-.949-.95Z" transform="translate(-4118.618 -5898.063)" fill="#031439"></path></g><g transform="translate(9.911 18.996)"><path d="M4148.393,5903.755h-.92a1.289,1.289,0,0,1-1.292-1.291v-1.114a1.291,1.291,0,0,1,1.292-1.292h.92a1.292,1.292,0,0,1,1.291,1.292v1.114a1.289,1.289,0,0,1-1.291,1.292Z" transform="translate(-4145.843 -5899.718)" fill="#f4e969"></path><path d="M4146.742,5902.444h-.921a1.636,1.636,0,0,1-1.634-1.634V5899.7a1.638,1.638,0,0,1,1.634-1.635h.921a1.635,1.635,0,0,1,1.634,1.633v1.115A1.634,1.634,0,0,1,4146.742,5902.444Zm-.921-3.7a.949.949,0,0,0-.949.949v1.114a.949.949,0,0,0,.949.949h.921a.948.948,0,0,0,.949-.948V5899.7a.949.949,0,0,0-.949-.949Z" transform="translate(-4144.187 -5898.062)" fill="#031439"></path></g><g transform="translate(14.219 18.996)"><path d="M4173.572,5903.755h-.92a1.289,1.289,0,0,1-1.292-1.291v-1.114a1.293,1.293,0,0,1,1.292-1.292h.92a1.293,1.293,0,0,1,1.292,1.292v1.114a1.289,1.289,0,0,1-1.292,1.292Z" transform="translate(-4171.014 -5899.718)" fill="#f4e969"></path><path d="M4171.912,5902.444h-.921a1.633,1.633,0,0,1-1.634-1.634V5899.7a1.636,1.636,0,0,1,1.633-1.635h.921a1.637,1.637,0,0,1,1.634,1.634v1.114A1.634,1.634,0,0,1,4171.912,5902.444Zm-.921-3.7a.949.949,0,0,0-.949.949v1.114a.947.947,0,0,0,.949.949h.921a.947.947,0,0,0,.948-.948V5899.7a.948.948,0,0,0-.948-.949Z" transform="translate(-4169.356 -5898.062)" fill="#031439"></path></g><g transform="translate(18.856 13.919)"><path d="M4200.653,5874.105h-.92a1.291,1.291,0,0,1-1.291-1.292V5871.7a1.291,1.291,0,0,1,1.291-1.291h.922a1.293,1.293,0,0,1,1.291,1.292v1.114a1.291,1.291,0,0,1-1.291,1.292Z" transform="translate(-4198.095 -5870.066)" fill="#f4e969"></path><path d="M4198.992,5872.794h-.921a1.636,1.636,0,0,1-1.634-1.635v-1.115a1.635,1.635,0,0,1,1.633-1.633h.921a1.635,1.635,0,0,1,1.634,1.634v1.114A1.636,1.636,0,0,1,4198.992,5872.794Zm-.921-3.7a.95.95,0,0,0-.949.948v1.115a.95.95,0,0,0,.949.949h.921a.948.948,0,0,0,.948-.948v-1.115a.949.949,0,0,0-.948-.948Z" transform="translate(-4196.437 -5868.411)" fill="#031439"></path></g><g transform="translate(18.857 18.996)"><path d="M4200.653,5903.755h-.92a1.288,1.288,0,0,1-1.291-1.291v-1.114a1.291,1.291,0,0,1,1.291-1.292h.922a1.292,1.292,0,0,1,1.291,1.292v1.114a1.289,1.289,0,0,1-1.291,1.292Z" transform="translate(-4198.096 -5899.718)" fill="#f4e969"></path><path d="M4198.992,5902.444h-.921a1.634,1.634,0,0,1-1.633-1.634V5899.7a1.635,1.635,0,0,1,1.633-1.635h.922a1.635,1.635,0,0,1,1.634,1.633v1.115A1.634,1.634,0,0,1,4198.992,5902.444Zm-.921-3.7a.95.95,0,0,0-.949.949v1.114a.951.951,0,0,0,.949.949h.921a.948.948,0,0,0,.948-.948V5899.7a.948.948,0,0,0-.948-.949Z" transform="translate(-4196.437 -5898.062)" fill="#031439"></path></g><g transform="translate(23.362 13.919)"><path d="M4226.953,5874.105h-.92a1.291,1.291,0,0,1-1.291-1.293V5871.7a1.291,1.291,0,0,1,1.291-1.292h.921a1.293,1.293,0,0,1,1.292,1.292v1.114a1.292,1.292,0,0,1-1.292,1.292Z" transform="translate(-4224.396 -5870.066)" fill="#f4e969"></path><path d="M4225.291,5872.794h-.921a1.635,1.635,0,0,1-1.634-1.635v-1.115a1.634,1.634,0,0,1,1.634-1.633h.921a1.635,1.635,0,0,1,1.635,1.634v1.114A1.637,1.637,0,0,1,4225.291,5872.794Zm-.921-3.7a.949.949,0,0,0-.949.948v1.115a.949.949,0,0,0,.949.949h.921a.948.948,0,0,0,.948-.948v-1.115a.948.948,0,0,0-.948-.948Z" transform="translate(-4222.736 -5868.411)" fill="#031439"></path></g><g transform="translate(23.362 18.996)"><path d="M4226.953,5903.755h-.92a1.288,1.288,0,0,1-1.292-1.291v-1.114a1.291,1.291,0,0,1,1.291-1.292h.92a1.291,1.291,0,0,1,1.292,1.292v1.114a1.288,1.288,0,0,1-1.292,1.291Z" transform="translate(-4224.396 -5899.717)" fill="#f4e969"></path><path d="M4225.291,5902.444h-.921a1.634,1.634,0,0,1-1.634-1.634V5899.7a1.636,1.636,0,0,1,1.634-1.635h.921a1.636,1.636,0,0,1,1.634,1.633v1.115A1.635,1.635,0,0,1,4225.291,5902.444Zm-.921-3.7a.949.949,0,0,0-.949.949v1.114a.949.949,0,0,0,.949.949h.921a.948.948,0,0,0,.948-.948V5899.7a.942.942,0,0,0-.277-.671.951.951,0,0,0-.671-.278Z" transform="translate(-4222.736 -5898.062)" fill="#031439"></path></g><g transform="translate(32.021 13.582)"><path d="M4279.336,5878.008h-1.921a2.115,2.115,0,0,1-2.115-2.115v-5.311a2.116,2.116,0,0,1,2.115-2.116h1.921a2.116,2.116,0,0,1,2.115,2.116v5.311a2.115,2.115,0,0,1-2.116,2.115Z" transform="translate(-4274.955 -5868.118)" fill="#3ab2d0"></path><path d="M4277.675,5876.686h-1.919a2.459,2.459,0,0,1-2.457-2.458v-5.31a2.46,2.46,0,0,1,2.458-2.458h1.919a2.46,2.46,0,0,1,2.458,2.458v5.31A2.459,2.459,0,0,1,4277.675,5876.686Zm-1.919-9.541a1.776,1.776,0,0,0-1.774,1.773v5.31a1.775,1.775,0,0,0,1.774,1.774h1.919a1.774,1.774,0,0,0,1.773-1.774v-5.309a1.775,1.775,0,0,0-1.773-1.773Z" transform="translate(-4273.298 -5866.46)" fill="#24313e"></path></g></g><g transform="translate(70.94 138.804)"><g transform="translate(0 0)"><path d="M3532.536,6201.475h-55.178v-4.453a3.066,3.066,0,0,1,3.066-3.066h49.051a3.066,3.066,0,0,1,3.066,3.066v4.453Z" transform="translate(-3477.019 -6193.618)" fill="#9caab8"></path><path d="M3531.225,6200.164h-55.862v-4.8a3.41,3.41,0,0,1,3.406-3.406h49.051a3.41,3.41,0,0,1,3.406,3.407v4.795Zm-55.178-.686h54.493v-4.11a2.724,2.724,0,0,0-2.721-2.722h-49.05a2.724,2.724,0,0,0-2.722,2.722Z" transform="translate(-3475.363 -6191.962)" fill="#24313e"></path></g><g transform="translate(12.389 0)"><path d="M3603.476,6201.475H3549.7v-4.453a3.066,3.066,0,0,1,3.066-3.066h47.652a3.066,3.066,0,0,1,3.066,3.066v4.453Z" transform="translate(-3549.358 -6193.617)" fill="#e7e9f2"></path><path d="M3602.164,6200.164H3547.7v-4.8a3.411,3.411,0,0,1,3.406-3.407h47.652a3.411,3.411,0,0,1,3.406,3.406v4.8Zm-53.776-.686h53.091v-4.11a2.724,2.724,0,0,0-2.721-2.723h-47.652a2.722,2.722,0,0,0-2.721,2.721v4.111Z" transform="translate(-3547.7 -6191.962)" fill="#24313e"></path></g><g transform="translate(3.744 7.671)"><path d="M3547.105,6279.429h-45.2a2.674,2.674,0,0,1-2.674-2.672v-37.979h50.552v37.974a2.675,2.675,0,0,1-2.673,2.674Z" transform="translate(-3498.885 -6238.432)" fill="#9caab8"></path><path d="M3545.445,6278.107h-45.2a3.019,3.019,0,0,1-3.016-3.015v-38.32h51.233v38.32a3.019,3.019,0,0,1-3.016,3.015Zm-47.533-40.648v37.634a2.332,2.332,0,0,0,2.33,2.33h45.2a2.331,2.331,0,0,0,2.331-2.33v-37.634Z" transform="translate(-3497.226 -6236.772)" fill="#24313e"></path><g transform="translate(8.735 0)"><path d="M3598.115,6279.429h-45.2a2.675,2.675,0,0,1-2.674-2.673v-37.978h50.549v37.974a2.675,2.675,0,0,1-2.672,2.674Z" transform="translate(-3549.898 -6238.432)" fill="#e7e9f2"></path><path d="M3596.456,6278.107h-45.2a3.019,3.019,0,0,1-3.015-3.015v-38.32h51.234v38.32a3.019,3.019,0,0,1-3.016,3.015Zm-47.533-40.648v37.634a2.333,2.333,0,0,0,2.331,2.33h45.2a2.332,2.332,0,0,0,2.331-2.33v-37.634h-49.864Z" transform="translate(-3548.241 -6236.772)" fill="#24313e"></path></g></g><g transform="translate(16.924 11.891)"><path d="M3615.234,6273.809l-18.855,2.072-18.855,2.071-.561-5.105-.561-5.1,18.855-2.072,18.855-2.072.561,5.1Z" transform="translate(-3576.026 -6263.224)" fill="#e7e9f2"></path><path d="M3575.393,6276.5l-.6-5.445-.6-5.445.171-.019.171-.018,19.025-2.087,19.026-2.087.6,5.445.6,5.445-.17.018-.17.019-19.024,2.085Zm-.44-10.286.523,4.765.524,4.764,18.515-2.031,18.515-2.032-.524-4.765-.524-4.764-18.515,2.031Z" transform="translate(-3574.197 -6261.397)" fill="#24313e"></path></g><g transform="translate(18.472 11.721)"><path d="M3624.265,6272.82l-18.855,2.072-18.854,2.071-.561-5.1-.561-5.1,18.854-2.072,18.855-2.072.561,5.1Z" transform="translate(-3585.055 -6262.234)" fill="#e7e9f2"></path><path d="M3584.423,6275.508l-.6-5.445-.6-5.445.171-.019.17-.018,19.025-2.088,19.025-2.087.6,5.445.6,5.445-.171.018-.17.019-19.025,2.088Zm-.44-10.285.524,4.765.523,4.764,18.515-2.031,18.515-2.033-.523-4.764-.524-4.765-18.515,2.032Z" transform="translate(-3583.227 -6260.405)" fill="#24313e"></path></g></g></g></g></svg>