<svg xmlns="http://www.w3.org/2000/svg" xmlns:xlink="http://www.w3.org/1999/xlink" width="379.708" height="212.181" viewBox="0 0 379.708 212.181"><defs><clipPath id="a"><path d="M4035.36,6084.246h-61.889v-73.167h61.889Z" transform="translate(-3973.471 -6011.079)" fill="none"></path></clipPath></defs><g transform="translate(-372.738 -2865.346)"><g transform="translate(372.738 2865.346)"><g transform="translate(123.458 22.322)"><path d="M3801.83,5558.858a43.458,43.458,0,1,1,12.729,30.73A43.458,43.458,0,0,1,3801.83,5558.858Z" transform="translate(-3801.83 -5515.397)" fill="#6b7e8f"></path><path d="M3843.716,5601.125a43.507,43.507,0,1,1,16.767-3.312A43.506,43.506,0,0,1,3843.716,5601.125Zm0-86.917a43.174,43.174,0,1,0,30.48,12.646,43.173,43.173,0,0,0-30.48-12.646Z" transform="translate(-3800.259 -5513.868)" fill="#24313e"></path></g><g transform="translate(128.434 22.323)"><path d="M3831.69,5558.858a43.458,43.458,0,1,1,12.728,30.73A43.458,43.458,0,0,1,3831.69,5558.858Z" transform="translate(-3831.69 -5515.397)" fill="#9caab8"></path><path d="M3873.585,5601.125a43.507,43.507,0,1,1,16.767-3.312,43.506,43.506,0,0,1-16.767,3.313Zm0-86.917a43.174,43.174,0,1,0,30.479,12.646,43.174,43.174,0,0,0-30.479-12.646Z" transform="translate(-3830.121 -5513.868)" fill="#24313e"></path></g><g transform="translate(0 183.099)"><path d="M3239.189,6484.7v-2.776h-9.29v2.776h-5.7v-2.776h-9.287v2.776h-5.7v-2.776h-9.29v2.776h-5.7v-2.776h-9.286v2.776h-5.7v-2.776h-9.29v2.776h-5.693v-2.776h-9.29v2.776h-5.7v-2.776h-9.29v2.776h-5.7v-2.776h-9.29v2.776h-5.7v-2.776h-9.284v2.776h-5.7v-2.776h-9.29v2.776h-19.388a12.818,12.818,0,0,0-12.115,8.617l-.179,3.593-.179,3.593h0a12.825,12.825,0,0,0,12.473,9.84h350.585a12.82,12.82,0,1,0,0-25.639h-7.305v-2.777h-9.287v2.777h-5.7v-2.777h-9.286v2.777h-5.7v-2.777h-9.286v2.777h-5.7v-2.777h-9.29v2.777h-5.7v-2.777h-9.286v2.776h-5.7v-2.776h-9.29v2.776h-5.7v-2.776H3319.7v2.776H3314v-2.776h-9.286v2.776h-5.7v-2.776h-9.29v2.776h-5.7v-2.776h-9.286v2.776h-5.707v-2.776h-9.29v2.776h-5.7v-2.776h-9.286v2.776h-5.565Z" transform="translate(-3062.817 -6481.603)" fill="#455666"></path><path d="M3424.532,6509.018H3073.948a13.1,13.1,0,0,1-12.8-10.092l-.006-.023-.006-.023v-.048l.181-3.617.18-3.617.008-.022.008-.022a13.177,13.177,0,0,1,12.43-8.838H3093v-2.776h9.956v2.776h5.033v-2.776h9.953v2.776h5.033v-2.776h9.957v2.776h5.033v-2.776h9.953v2.776h5.033v-2.776h9.957v2.776h5.03v-2.776h9.962v2.776h5.033v-2.776h9.953v2.775h5.033v-2.775h9.957v2.775h5.033v-2.775h9.953v2.775h5.033v-2.775h9.957v2.775h4.9v-2.775h9.953v2.775h5.033v-2.775h9.957v2.775h5.033v-2.775h9.953v2.775h5.032v-2.775h9.957v2.775h5.033v-2.775h9.953v2.775h5.033v-2.775h9.953v2.775h5.033v-2.775h9.957v2.775h5.033v-2.775h9.943v2.775h5.033v-2.775h9.957v2.775h5.033v-2.775h9.953v2.775h5.033v-2.775h9.953v2.775h5.033v-2.775h9.957v2.775h6.971a13.153,13.153,0,1,1,0,26.306Zm-362.723-10.2a12.436,12.436,0,0,0,12.138,9.535h350.584a12.486,12.486,0,0,0,0-24.972h-7.638V6480.6h-8.622v2.777H3401.9V6480.6h-8.62v2.777h-6.366V6480.6h-8.62v2.777h-6.366V6480.6h-8.622v2.777h-6.366V6480.6h-8.619v2.777h-6.36V6480.6h-8.623v2.777h-6.366V6480.6h-8.62v2.777h-6.366V6480.6h-8.619v2.777H3297V6480.6h-8.623v2.777h-6.366V6480.6h-8.62v2.777h-6.366V6480.6H3258.4v2.777h-6.366V6480.6h-8.62v2.777h-6.233V6480.6h-8.624v2.777h-6.366V6480.6h-8.62v2.777H3207.2V6480.6h-8.623v2.777h-6.366V6480.6h-8.62v2.777h-6.366V6480.6H3168.6v2.777h-6.363V6480.6h-8.617v2.777h-6.366V6480.6h-8.619v2.777h-6.366V6480.6h-8.623v2.777h-6.366V6480.6h-8.62v2.777H3102.3V6480.6h-8.622v2.777h-19.722a12.5,12.5,0,0,0-11.785,8.347l-.176,3.549Z" transform="translate(-3061.14 -6479.939)" fill="#24313e"></path></g><g transform="translate(16.17 183.097)"><path d="M3323.17,6484.7v-2.776h-9.29v2.776h-5.7v-2.776H3298.9v2.776h-5.7v-2.776h-9.29v2.776h-5.7v-2.776h-9.289v2.776h-5.7v-2.776h-9.29v2.776h-5.7v-2.776h-9.289v2.776h-5.7v-2.776h-9.286v2.776h-5.693v-2.776h-9.29v2.776h-5.7v-2.776h-9.29v2.776h-5.7v-2.776H3179v2.776h-6.372a12.824,12.824,0,0,0-12.115,8.617h-.179l-.089,3.593-.09,3.593h0a12.825,12.825,0,0,0,12.473,9.84H3510.2a12.82,12.82,0,0,0,0-25.639h-7.305v-2.777h-9.29v2.777h-5.7v-2.777h-9.286v2.777h-5.7v-2.777h-9.287v2.777h-5.7v-2.777h-9.29v2.777h-5.7v-2.777h-9.286v2.777h-5.7v-2.776h-9.294v2.776h-5.7v-2.776h-9.286v2.776h-5.7v-2.776h-9.287v2.776h-5.7v-2.776h-9.29v2.776H3368v-2.776h-9.286v2.776h-5.7v-2.776h-9.29v2.776h-5.7v-2.776h-9.286v2.776h-5.565Z" transform="translate(-3159.814 -6481.601)" fill="#9caab8"></path><path d="M3508.523,6509.017H3170.949a13.1,13.1,0,0,1-12.8-10.092l-.006-.021,0-.021v-.044l.094-3.755.094-3.754h.269a13.17,13.17,0,0,1,12.35-8.617h6.042v-2.776h9.957v2.776h5.032v-2.776h9.953v2.776h5.033v-2.776h9.957v2.776h5.033v-2.776h9.953v2.776h5.033v-2.776h9.957v2.776h5.03v-2.776h9.957v2.776h5.033v-2.775h9.953v2.775h5.033v-2.775h9.957v2.775h5.033v-2.775h9.953v2.775h5.033v-2.775h9.957v2.775h4.9v-2.775h9.953v2.775h5.033v-2.775h9.957v2.775h5.033v-2.775h9.953v2.775h5.033v-2.775h9.956v2.775h5.033v-2.775h9.953v2.775h5.033v-2.775h9.953v2.775h5.033v-2.775h9.956v2.775h5.033v-2.775h9.953v2.775h5.033v-2.775h9.957v2.775h5.033v-2.775h9.953v2.775h5.033v-2.775h9.953v2.775h5.033v-2.775h9.957v2.775h6.972a13.153,13.153,0,0,1,0,26.306Zm-349.71-10.205a12.438,12.438,0,0,0,12.139,9.539h337.572a12.486,12.486,0,1,0,0-24.972h-7.638V6480.6h-8.622v2.777H3485.9V6480.6h-8.621v2.777h-6.366V6480.6h-8.62v2.777h-6.367V6480.6H3447.3v2.777h-6.366V6480.6h-8.62v2.777h-6.366V6480.6h-8.622v2.777h-6.366V6480.6h-8.62v2.777h-6.367V6480.6h-8.62v2.777h-6.366V6480.6h-8.622v2.777H3366V6480.6h-8.62v2.777h-6.366V6480.6h-8.623v2.777h-6.366V6480.6h-8.62v2.777h-6.233V6480.6h-8.622v2.777h-6.366V6480.6h-8.618v2.777H3291.2V6480.6h-8.623v2.777h-6.366V6480.6h-8.619v2.777h-6.366V6480.6H3252.6v2.777h-6.363V6480.6h-8.622v2.777h-6.366V6480.6h-8.62v2.777h-6.366V6480.6h-8.626v2.777h-6.366V6480.6h-8.62v2.777h-6.366V6480.6h-8.623v2.777h-6.709a12.482,12.482,0,0,0-10.587,5.866,12.35,12.35,0,0,0-1.208,2.526l-.039.112-.039.113h-.09l-.085,3.409Z" transform="translate(-3158.142 -6479.936)" fill="#24313e"></path></g><g transform="translate(33.064 195.383)"><path d="M3263.607,6564.066H3597.12a2.1,2.1,0,0,0,2.1-2.1v-4.206a2.1,2.1,0,0,0-2.1-2.1H3263.607a2.1,2.1,0,0,0-2.1,2.1v4.2a2.1,2.1,0,0,0,2.1,2.1Z" transform="translate(-3261.171 -6555.331)" fill="#d9dee5"></path><path d="M3595.453,6562.734H3261.936a2.435,2.435,0,0,1-2.434-2.434v-4.2a2.435,2.435,0,0,1,2.434-2.434h333.512a2.437,2.437,0,0,1,2.434,2.434v4.205a2.435,2.435,0,0,1-2.434,2.433Zm-333.513-8.405a1.77,1.77,0,0,0-1.766,1.767v4.2a1.768,1.768,0,0,0,1.766,1.767h333.512a1.768,1.768,0,0,0,1.767-1.765V6556.1a1.77,1.77,0,0,0-1.767-1.767H3261.936Z" transform="translate(-3259.503 -6553.663)" fill="#24313e"></path></g><g transform="translate(148.889)"><g transform="translate(5.453 22.097)"><path d="M4022.021,5514.02a13.577,13.577,0,0,1-4.814,10.2,18.11,18.11,0,0,1-23.256.015,13.561,13.561,0,0,1-4.829-10.218" transform="translate(-3988.786 -5514.02)" fill="#455666"></path><path d="M4003.913,5528.789a17.971,17.971,0,0,1-11.871-4.331,13.893,13.893,0,0,1-4.924-10.437h.667a13.236,13.236,0,0,0,4.73,9.967,17.752,17.752,0,0,0,22.78,0,13.245,13.245,0,0,0,4.722-9.967h.667a13.907,13.907,0,0,1-4.921,10.438,17.919,17.919,0,0,1-11.85,4.33Z" transform="translate(-3987.117 -5514.02)" fill="#24313e"></path></g><g transform="translate(7.023 26.576)"><path d="M3998.984,5545.26l6.884,6.8,6.885,6.8a1.39,1.39,0,0,0,1.948,0l6.72-6.8,6.722-6.8a1.372,1.372,0,0,0,0-1.944h0a1.4,1.4,0,0,0-.975-.392h-27.213a1.387,1.387,0,0,0-1.372,1.391,1.356,1.356,0,0,0,.4.949Z" transform="translate(-3998.246 -5542.585)" fill="#24313e"></path><path d="M4012.058,5557.915a1.726,1.726,0,0,1-.646-.122,1.683,1.683,0,0,1-.564-.367l-6.885-6.8-6.886-6.8a1.68,1.68,0,0,1-.5-1.183,1.724,1.724,0,0,1,1.7-1.727H4025.5a1.7,1.7,0,0,1,1.208,2.913l-6.72,6.8-6.721,6.8a1.711,1.711,0,0,1-.564.369A1.742,1.742,0,0,1,4012.058,5557.915Zm-14.507-14.559,6.884,6.8,6.884,6.8a1.06,1.06,0,0,0,1.48,0l6.719-6.8,6.719-6.8a1.029,1.029,0,0,0-.336-1.694,1.061,1.061,0,0,0-.4-.082H3998.29a1.056,1.056,0,0,0-1.038,1.056,1.017,1.017,0,0,0,.3.715Z" transform="translate(-3996.578 -5540.918)" fill="#24313e"></path></g><g transform="translate(19.952 27.793)"><path d="M4083.629,5574.332l-3.338-3.338-3.338-3.338,8.531-8.509,8.531-8.509a1.3,1.3,0,0,1,1.8,0h0l2.42,2.419,2.42,2.42a1.3,1.3,0,0,1,0,1.806h0l-8.515,8.521Z" transform="translate(-4076.478 -5549.926)" fill="#455666"></path><path d="M4081.266,5573.117l-3.573-3.574-3.574-3.573,8.648-8.63,8.649-8.631a1.624,1.624,0,0,1,2.268,0l2.424,2.42,2.425,2.423a1.629,1.629,0,0,1,0,2.274l-8.636,8.642Zm-6.2-7.146,3.1,3.1,3.1,3.1,8.4-8.4,8.4-8.4a.952.952,0,0,0,.269-.668.969.969,0,0,0-.274-.671l-2.42-2.42-2.419-2.419a.954.954,0,0,0-.666-.269.967.967,0,0,0-.668.272l-8.411,8.388Z" transform="translate(-4074.119 -5548.247)" fill="#24313e"></path></g><g transform="translate(0 27.914)"><path d="M3980.665,5568l-3.28,3.388-3.28,3.388-8.664-8.38-8.664-8.38a1.308,1.308,0,0,1,0-1.807h0l2.383-2.463,2.384-2.464a1.285,1.285,0,0,1,1.806,0h0l8.657,8.356Z" transform="translate(-3956.081 -5550.589)" fill="#455666"></path><path d="M3972.446,5573.6l-8.785-8.5-8.784-8.5a1.641,1.641,0,0,1-.009-2.276l2.383-2.464,2.384-2.464a1.624,1.624,0,0,1,2.28-.005l8.777,8.469,8.777,8.469-3.511,3.63Zm-11.669-24a.954.954,0,0,0-.356.068.918.918,0,0,0-.312.206l-2.38,2.46-2.38,2.46a.973.973,0,0,0,0,1.345l8.54,8.26,8.54,8.26,3.047-3.15,3.047-3.15-8.538-8.241-8.538-8.241a.959.959,0,0,0-.673-.276Z" transform="translate(-3954.415 -5548.938)" fill="#24313e"></path></g><g transform="translate(4.777 3.876)"><path d="M3985.1,5423.265h0a20.086,20.086,0,0,1,3.71-10.868c2.29-3.267,5.447-5.666,8.921-5.666h8.873c3.473,0,6.631,2.4,8.921,5.665a20.094,20.094,0,0,1,3.71,10.869h0" transform="translate(-3984.758 -5406.395)" fill="#0c7ff2"></path><path d="M4017.894,5421.6h-.667a19.475,19.475,0,0,0-3.71-10.778c-2.259-3.158-5.336-5.423-8.59-5.423h-8.873c-3.254,0-6.328,2.265-8.589,5.423a19.469,19.469,0,0,0-3.71,10.778h-.667a17.718,17.718,0,0,1,1.013-5.6,21.99,21.99,0,0,1,2.758-5.46,15.63,15.63,0,0,1,4.342-4.308,9.051,9.051,0,0,1,4.851-1.5h8.873a9.052,9.052,0,0,1,4.852,1.5,15.629,15.629,0,0,1,4.342,4.309,21.952,21.952,0,0,1,2.758,5.46,17.71,17.71,0,0,1,1.017,5.6Z" transform="translate(-3983.088 -5404.729)" fill="#24313e"></path></g><g transform="translate(8.681 18.167)"><path d="M4014.942,5492.54a6.371,6.371,0,1,1-4.505,1.866A6.371,6.371,0,0,1,4014.942,5492.54Z" transform="translate(-4008.221 -5492.189)" fill="#0c7ff2"></path><path d="M4013.269,5503.941a6.711,6.711,0,1,1,4.74-1.965A6.71,6.71,0,0,1,4013.269,5503.941Zm0-12.744a6.044,6.044,0,1,0,4.269,1.77,6.045,6.045,0,0,0-4.269-1.77Z" transform="translate(-4006.551 -5490.517)" fill="#24313e"></path></g><g transform="translate(11.808 21.285)"><path d="M4030.53,5511.24a3.253,3.253,0,1,1-2.3.953A3.252,3.252,0,0,1,4030.53,5511.24Z" transform="translate(-4026.935 -5510.891)" fill="#3ab2d0"></path><path d="M4028.858,5516.407a3.592,3.592,0,1,1,2.536-1.048,3.592,3.592,0,0,1-2.536,1.048Zm0-6.509a2.924,2.924,0,1,0,2.065.856,2.924,2.924,0,0,0-2.065-.856Z" transform="translate(-4025.266 -5509.222)" fill="#24313e"></path></g><g transform="translate(22.645 18.164)"><path d="M4098.731,5492.54a6.371,6.371,0,1,1-4.505,1.866,6.37,6.37,0,0,1,4.505-1.866Z" transform="translate(-4092.008 -5492.186)" fill="#0c7ff2"></path><path d="M4097.058,5503.94a6.713,6.713,0,1,1,4.739-1.966A6.713,6.713,0,0,1,4097.058,5503.94Zm0-12.744a6.045,6.045,0,1,0,4.269,1.771,6.045,6.045,0,0,0-4.269-1.771Z" transform="translate(-4090.337 -5490.513)" fill="#24313e"></path></g><g transform="translate(25.776 21.285)"><path d="M4114.31,5511.24a3.253,3.253,0,1,1-2.3.953A3.253,3.253,0,0,1,4114.31,5511.24Z" transform="translate(-4110.722 -5510.891)" fill="#3ab2d0"></path><path d="M4112.648,5516.407a3.593,3.593,0,1,1,2.536-1.048,3.593,3.593,0,0,1-2.536,1.048Zm0-6.509a2.924,2.924,0,1,0,2.064.856A2.923,2.923,0,0,0,4112.648,5509.9Z" transform="translate(-4109.055 -5509.221)" fill="#24313e"></path></g><g transform="translate(3.376 17.323)"><path d="M3979.217,5487.37h31.849a2.547,2.547,0,0,1,2.555,2.536v.022h0a2.555,2.555,0,0,1-2.555,2.551h-31.849a2.551,2.551,0,0,1-2.555-2.546h0a2.55,2.55,0,0,1,2.546-2.555h.008Z" transform="translate(-3976.327 -5487.039)" fill="#0c7ff2"></path><path d="M3977.548,5491.146a2.886,2.886,0,0,1-.329-5.753v-.019h32.194a2.883,2.883,0,0,1,2.879,2.868v.024a2.892,2.892,0,0,1-2.888,2.883H3977.55Zm0-5.106a2.219,2.219,0,0,0,0,4.436h31.854a2.224,2.224,0,0,0,2.22-2.218v-.022a2.217,2.217,0,0,0-2.214-2.2h-31.857Z" transform="translate(-3974.66 -5485.374)" fill="#24313e"></path></g><g transform="translate(9.626 7.932)"><path d="M4014.605,5433.025l.186-.292.186-.291a3.027,3.027,0,0,1,4.181-.922h0a3.027,3.027,0,0,1,.922,4.181l-.187.292-.186.292a3.027,3.027,0,0,1-4.181.923h0a3.026,3.026,0,0,1-.922-4.181Z" transform="translate(-4013.801 -5430.711)" fill="#6b7e8f"></path><path d="M4015.5,5436.358a3.323,3.323,0,0,1-.934-.134,3.363,3.363,0,0,1-1.892-5.037l.187-.292.186-.292a3.36,3.36,0,1,1,5.664,3.616l-.186.292-.186.292a3.337,3.337,0,0,1-2.109,1.472,3.377,3.377,0,0,1-.729.082Zm.384-6.638a2.7,2.7,0,0,0-2.275,1.246l-.186.292-.186.292a2.693,2.693,0,1,0,4.54,2.9l.186-.292.186-.292a2.69,2.69,0,0,0-2.266-4.143Z" transform="translate(-4012.143 -5429.051)" fill="#24313e"></path></g><g transform="translate(27.828 7.917)"><path d="M4124.784,5431.455h0a3.015,3.015,0,0,1,4.167.9l.007.012.008.012.188.289.188.288a3.015,3.015,0,0,1-.891,4.167l-.014.009-.014.009h0a3.032,3.032,0,0,1-4.182-.927l-.189-.288-.188-.288a3.014,3.014,0,0,1,.892-4.167l.014-.01Z" transform="translate(-4123.042 -5430.636)" fill="#6b7e8f"></path><path d="M4125.128,5436.276a3.381,3.381,0,0,1-1.6-.4,3.338,3.338,0,0,1-1.245-1.152l-.187-.286-.188-.287a3.34,3.34,0,0,1,.991-4.63l.014-.009.014-.009a3.341,3.341,0,0,1,4.626,1l.009.015.009.014.187.286.187.286a3.342,3.342,0,0,1-.99,4.63l-.016.011-.015.01a3.349,3.349,0,0,1-1.8.522Zm-.393-6.641a2.654,2.654,0,0,0-.75.108,2.686,2.686,0,0,0-.7.323l-.011,0-.01.006a2.718,2.718,0,0,0-.757.732,2.674,2.674,0,0,0-.043,2.979l.188.288.187.287a2.705,2.705,0,0,0,3.724.828l.013-.008.012-.007a2.677,2.677,0,0,0,.793-3.711l-.2-.3-.2-.3a2.66,2.66,0,0,0-1.687-1.17,2.712,2.712,0,0,0-.572-.062Z" transform="translate(-4121.371 -5428.963)" fill="#24313e"></path></g><g transform="translate(5.583 0)"><path d="M3991.344,5383.68h0a2.419,2.419,0,0,1,3.191,1.232l1.742,3.938,1.742,3.937a2.418,2.418,0,0,1-1.232,3.19h0a2.419,2.419,0,0,1-3.191-1.233l-1.742-3.937-1.742-3.937a2.42,2.42,0,0,1,1.233-3.191Z" transform="translate(-3989.568 -5383.14)" fill="#455666"></path><path d="M3994.134,5394.852a2.744,2.744,0,0,1-2.518-1.641l-1.742-3.937-1.742-3.938a2.748,2.748,0,0,1,1.4-3.629h0a2.747,2.747,0,0,1,3.63,1.4l1.742,3.937,1.743,3.938a2.756,2.756,0,0,1-1.4,3.63,2.773,2.773,0,0,1-1.112.237Zm-3.488-12.715a2.057,2.057,0,0,0-.423.045,2.088,2.088,0,0,0-.418.135h0a2.082,2.082,0,0,0-1.063,2.75l1.742,3.938,1.742,3.937a2.088,2.088,0,0,0,3.82-1.687l-1.742-3.937-1.742-3.937a2.074,2.074,0,0,0-.784-.913,2.1,2.1,0,0,0-1.128-.328Z" transform="translate(-3987.896 -5381.47)" fill="#24313e"></path></g><g transform="translate(8.613 6.408)"><path d="M4011.086,5421.94a2.975,2.975,0,1,1-2.1.872,2.976,2.976,0,0,1,2.1-.872Z" transform="translate(-4007.768 -5421.599)" fill="#6b7e8f"></path><path d="M4009.415,5426.561a3.314,3.314,0,1,1,2.339-.968A3.314,3.314,0,0,1,4009.415,5426.561Zm0-5.953a2.647,2.647,0,1,0,1.868.775,2.647,2.647,0,0,0-1.868-.775Z" transform="translate(-4006.099 -5419.932)" fill="#24313e"></path></g><g transform="translate(29.291 0.01)"><path d="M4132.32,5392.856l1.744-3.938,1.745-3.937a2.414,2.414,0,0,1,3.185-1.233h0a2.415,2.415,0,0,1,1.233,3.185h0l-1.743,3.941-1.742,3.94a2.42,2.42,0,0,1-3.188,1.237h0a2.419,2.419,0,0,1-1.231-3.191h0Z" transform="translate(-4131.78 -5383.203)" fill="#455666"></path><path d="M4132.87,5394.92a2.714,2.714,0,0,1-.565-.059,2.808,2.808,0,0,1-.547-.177,2.764,2.764,0,0,1-1.407-3.63l.02-.042.02-.042,1.726-3.9,1.726-3.9a2.743,2.743,0,0,1,3.61-1.41l.016.007.015.007a2.7,2.7,0,0,1,.866.609,2.742,2.742,0,0,1,.522,3.008l0,.008v.009l-1.739,3.933-1.738,3.934a2.755,2.755,0,0,1-2.522,1.642Zm-1.94-3.52a2.086,2.086,0,0,0,3.85,1.608l1.746-3.952,1.747-3.952a2.043,2.043,0,0,0,.172-.78,2.079,2.079,0,0,0-1.229-1.945l-.015-.006-.015-.007a2.03,2.03,0,0,0-.78-.17,2.075,2.075,0,0,0-1.951,1.24l-1.762,3.98Z" transform="translate(-4130.119 -5381.534)" fill="#24313e"></path></g><g transform="translate(28.625 7.202)"><path d="M4131.136,5426.71a2.974,2.974,0,1,1-2.1.871,2.972,2.972,0,0,1,2.1-.871Z" transform="translate(-4127.825 -5426.37)" fill="#6b7e8f"></path><path d="M4129.475,5431.33a3.314,3.314,0,1,1,2.339-.967A3.315,3.315,0,0,1,4129.475,5431.33Zm0-5.952a2.645,2.645,0,1,0,1.868.774A2.644,2.644,0,0,0,4129.475,5425.378Z" transform="translate(-4126.158 -5424.702)" fill="#24313e"></path></g><g transform="translate(19.795 32.095)"><path d="M4094.548,5576.475a1.719,1.719,0,0,1,0,2.42l-8.206,8.2-8.2,8.2a1.716,1.716,0,0,1-2.551-2.295l.039-.04.04-.039h.046l8.2-8.2,8.2-8.2a1.728,1.728,0,0,1,2.435-.046h0Z" transform="translate(-4074.815 -5575.662)" fill="#0c7ff2"></path><path d="M4075.2,5594.536a2.048,2.048,0,0,1-1.523-3.418l.094-.095.094-.094h.046l8.152-8.151,8.152-8.152a2.064,2.064,0,0,1,2.9-.051l.048.046.048.046v.015a2.057,2.057,0,0,1-.089,2.791l-8.2,8.2-8.2,8.2a2.031,2.031,0,0,1-.7.5,2.054,2.054,0,0,1-.823.167Zm-1.055-2.94a1.383,1.383,0,0,0,2.083,1.817l.006-.008.007-.005,8.2-8.2,8.2-8.2a1.389,1.389,0,0,0,0-1.948l-.016-.016-.015-.016a1.4,1.4,0,0,0-1.927.071l-8.251,8.252-8.251,8.252h-.043Z" transform="translate(-4073.149 -5574.002)" fill="#24313e"></path></g><g transform="translate(4.667 32.643)"><path d="M4003.688,5598.61h0a1.721,1.721,0,0,1-2.426,0l-8.2-8.2-8.2-8.2a1.706,1.706,0,0,1,0-2.413h0a1.718,1.718,0,0,1,2.42,0l8.2,8.2,8.2,8.2a1.71,1.71,0,0,1,.011,2.42l-.005.005-.006,0a.017.017,0,0,0,0-.006.008.008,0,0,0,0-.008.01.01,0,0,0-.006-.006Z" transform="translate(-3984.044 -5578.962)" fill="#0c7ff2"></path><path d="M4000.819,5597.781a2.046,2.046,0,0,1-1.448-.595l-8.2-8.2-8.2-8.2a2.042,2.042,0,0,1,2.891-2.885l8.2,8.2,8.2,8.2a2.039,2.039,0,0,1,.114,2.779v.009l-.05.049-.05.049h0l-.01.01-.01.01,0,0-.005,0a2.042,2.042,0,0,1-.67.433,2.07,2.07,0,0,1-.765.145Zm-16.394-19.807a1.375,1.375,0,0,0-.975,2.346l8.2,8.2,8.2,8.2a1.393,1.393,0,0,0,1.956,0l.059-.06.061-.061a1.389,1.389,0,0,0,.283-.93,1.372,1.372,0,0,0-.4-.888l-8.2-8.2-8.2-8.2a1.381,1.381,0,0,0-.973-.4Z" transform="translate(-3982.383 -5577.31)" fill="#24313e"></path></g><g transform="translate(13.904 39.143)"><path d="M4048.237,5618.44a8.308,8.308,0,1,1-5.877,2.434,8.308,8.308,0,0,1,5.877-2.434Z" transform="translate(-4039.577 -5618.083)" fill="#0c7ff2"></path><path d="M4046.572,5633.72a8.654,8.654,0,1,1,6.109-2.535,8.655,8.655,0,0,1-6.109,2.535Zm0-16.621a7.985,7.985,0,1,0,5.638,2.338,7.984,7.984,0,0,0-5.638-2.338Z" transform="translate(-4037.906 -5616.411)" fill="#24313e"></path></g><g transform="translate(17.976 43.22)"><path d="M4068.551,5642.81a4.249,4.249,0,1,1-3,1.245,4.249,4.249,0,0,1,3-1.245Z" transform="translate(-4063.957 -5642.467)" fill="#0c7ff2"></path><path d="M4066.879,5649.97a4.585,4.585,0,1,1,3.243-1.346,4.585,4.585,0,0,1-3.243,1.346Zm0-8.5a3.921,3.921,0,1,0,2.767,1.148,3.921,3.921,0,0,0-2.767-1.148Z" transform="translate(-4062.289 -5640.798)" fill="#24313e"></path></g></g><g transform="translate(227.577 145.673)"><path d="M4456.315,6268.058v22.162a3.543,3.543,0,0,1-3.549,3.549h-20.737a3.543,3.543,0,0,1-3.549-3.549v-29.255a3.549,3.549,0,0,1,3.549-3.549h14.244a1.607,1.607,0,0,1,1.168.5l2.028,2.153,2.029,2.154,2.193,2.371,2.193,2.371a1.609,1.609,0,0,1,.426,1.088Z" transform="translate(-4428.154 -6257.083)" fill="#ff603d"></path><path d="M4451.106,6292.434h-20.737a3.883,3.883,0,0,1-3.879-3.879V6259.3a3.884,3.884,0,0,1,3.882-3.882h14.246a1.944,1.944,0,0,1,1.409.608l2.029,2.153,2.029,2.154,2.193,2.372,2.2,2.371a1.929,1.929,0,0,1,.515,1.315v22.162a3.884,3.884,0,0,1-3.879,3.88Zm-20.735-36.351a3.22,3.22,0,0,0-3.216,3.216v29.255a3.218,3.218,0,0,0,3.213,3.214h20.737a3.219,3.219,0,0,0,3.213-3.214v-22.161a1.268,1.268,0,0,0-.337-.862l-2.193-2.371-2.194-2.371-2.028-2.152-2.027-2.153a1.276,1.276,0,0,0-.924-.4h-14.246Z" transform="translate(-4426.49 -6255.417)" fill="#24313e"></path></g><g transform="translate(225.177 145.673)"><path d="M4441.915,6268.058v22.162a3.543,3.543,0,0,1-3.549,3.549h-20.737a3.543,3.543,0,0,1-3.549-3.549v-29.255a3.548,3.548,0,0,1,3.549-3.549h14.245a1.605,1.605,0,0,1,1.167.5l2.028,2.153,2.029,2.154,2.193,2.371,2.193,2.371a1.6,1.6,0,0,1,.316.5,1.568,1.568,0,0,1,.115.584Z" transform="translate(-4413.754 -6257.083)" fill="#ff603d"></path><path d="M4436.707,6292.434H4415.97a3.882,3.882,0,0,1-3.88-3.879V6259.3a3.884,3.884,0,0,1,3.882-3.882h14.245a1.947,1.947,0,0,1,1.41.608l2.029,2.153,2.029,2.154,2.194,2.372,2.194,2.371a1.927,1.927,0,0,1,.516,1.315v22.162a3.884,3.884,0,0,1-3.879,3.88Zm-20.735-36.351a3.222,3.222,0,0,0-3.216,3.216v29.255a3.219,3.219,0,0,0,3.213,3.214h20.737a3.217,3.217,0,0,0,3.213-3.213v-22.162a1.257,1.257,0,0,0-.337-.862l-2.194-2.371-2.192-2.371-2.028-2.152-2.027-2.153a1.277,1.277,0,0,0-.925-.4H4415.97Z" transform="translate(-4412.09 -6255.417)" fill="#24313e"></path></g><g transform="translate(244.999 146.02)"><path d="M4542.374,6270.07h-8.822a.547.547,0,0,1-.546-.547v-9.456a.546.546,0,0,1,.944-.375l2.1,2.232,2.1,2.233,2.31,2.5,2.31,2.5a.548.548,0,0,1-.4.92Z" transform="translate(-4532.675 -6259.182)" fill="#ebf0f5"></path><path d="M4540.713,6268.73h-8.824a.88.88,0,0,1-.88-.88V6258.4a.879.879,0,0,1,1.52-.6l2.1,2.234,2.1,2.233,2.311,2.5,2.311,2.5a.878.878,0,0,1-.646,1.478Zm-8.817-10.551a.234.234,0,0,0-.049.005l-.035.011a.234.234,0,0,0-.081.056.2.2,0,0,0-.051.142v9.456a.214.214,0,0,0,.214.214h8.821a.2.2,0,0,0,.138-.05.228.228,0,0,0,.057-.082.241.241,0,0,0,.018-.095.2.2,0,0,0-.057-.136l-2.31-2.5-2.309-2.5-2.1-2.231-2.1-2.232a.22.22,0,0,0-.081-.054.193.193,0,0,0-.08,0Z" transform="translate(-4531.009 -6257.516)" fill="#24313e"></path></g><g transform="translate(266.361 145.673)"><path d="M4689.005,6268.058v22.162a3.543,3.543,0,0,1-3.548,3.549h-20.739a3.543,3.543,0,0,1-3.549-3.549v-29.255a3.549,3.549,0,0,1,3.549-3.549h14.245a1.605,1.605,0,0,1,1.167.5l2.028,2.153,2.029,2.154,2.193,2.371,2.193,2.371a1.633,1.633,0,0,1,.316.5,1.6,1.6,0,0,1,.116.584Z" transform="translate(-4660.844 -6257.083)" fill="#3ab2d0"></path><path d="M4683.8,6292.434h-20.738a3.884,3.884,0,0,1-3.879-3.88V6259.3a3.884,3.884,0,0,1,3.882-3.882h14.246a1.943,1.943,0,0,1,1.409.608l2.029,2.153,2.029,2.154,2.195,2.372,2.194,2.371a1.929,1.929,0,0,1,.515,1.315v22.162a3.884,3.884,0,0,1-3.88,3.881Zm-20.736-36.351a3.22,3.22,0,0,0-3.215,3.216v29.255a3.218,3.218,0,0,0,3.212,3.214H4683.8a3.219,3.219,0,0,0,3.213-3.214v-22.161a1.275,1.275,0,0,0-.337-.863l-2.193-2.37-2.193-2.371-2.028-2.152-2.028-2.153a1.27,1.27,0,0,0-.923-.4h-14.246Z" transform="translate(-4659.179 -6255.417)" fill="#24313e"></path></g><g transform="translate(263.961 145.673)"><path d="M4674.6,6268.058v22.162a3.543,3.543,0,0,1-3.549,3.549h-20.738a3.55,3.55,0,0,1-3.549-3.549v-29.254a3.549,3.549,0,0,1,3.549-3.549h14.245a1.606,1.606,0,0,1,1.167.5l2.029,2.154,2.029,2.154,2.194,2.371,2.193,2.371a1.632,1.632,0,0,1,.316.5,1.6,1.6,0,0,1,.114.584Z" transform="translate(-4646.443 -6257.083)" fill="#3ab2d0"></path><path d="M4669.4,6292.434h-20.738a3.883,3.883,0,0,1-3.879-3.879V6259.3a3.886,3.886,0,0,1,3.882-3.883h14.245a1.945,1.945,0,0,1,1.409.608l2.029,2.153,2.029,2.154,2.194,2.372,2.194,2.372a1.933,1.933,0,0,1,.515,1.314v22.163a3.884,3.884,0,0,1-3.879,3.88Zm-20.735-36.351a3.22,3.22,0,0,0-3.216,3.216v29.255a3.217,3.217,0,0,0,3.212,3.213H4669.4a3.219,3.219,0,0,0,3.213-3.213v-22.161a1.269,1.269,0,0,0-.087-.464,1.282,1.282,0,0,0-.25-.4l-2.193-2.371-2.193-2.371-2.028-2.153-2.028-2.153a1.273,1.273,0,0,0-.924-.4h-14.245Z" transform="translate(-4644.779 -6255.416)" fill="#24313e"></path></g><g transform="translate(283.779 146.018)"><path d="M4775.063,6270.07h-8.822a.547.547,0,0,1-.547-.547v-9.456a.547.547,0,0,1,.946-.375l2.1,2.233,2.1,2.233,2.31,2.5,2.31,2.5a.547.547,0,0,1-.4.92Z" transform="translate(-4765.359 -6259.18)" fill="#ebf0f5"></path><path d="M4773.394,6268.73h-8.82a.881.881,0,0,1-.881-.88V6258.4a.879.879,0,0,1,1.521-.6l2.1,2.233,2.1,2.232,2.312,2.5,2.311,2.5a.878.878,0,0,1-.645,1.478Zm-8.816-10.551a.2.2,0,0,0-.048,0,.2.2,0,0,0-.036.011.234.234,0,0,0-.081.057.2.2,0,0,0-.051.142v9.456a.216.216,0,0,0,.214.214h8.821a.2.2,0,0,0,.138-.05.241.241,0,0,0,.056-.081.223.223,0,0,0,.02-.1.2.2,0,0,0-.058-.135l-2.31-2.5-2.31-2.5-2.1-2.231-2.1-2.231a.238.238,0,0,0-.081-.055A.219.219,0,0,0,4764.578,6258.18Z" transform="translate(-4763.692 -6257.515)" fill="#24313e"></path></g><g transform="translate(307.942 145.673)"><path d="M4938.465,6268.058v22.162a3.549,3.549,0,0,1-3.549,3.548h-20.737a3.55,3.55,0,0,1-3.549-3.549v-29.254a3.548,3.548,0,0,1,3.548-3.549h14.245a1.6,1.6,0,0,1,1.166.5l2.029,2.154,2.029,2.154,2.193,2.371,2.193,2.371a1.613,1.613,0,0,1,.426,1.088Z" transform="translate(-4910.304 -6257.083)" fill="#28c397"></path><path d="M4933.257,6292.434h-20.738a3.884,3.884,0,0,1-3.88-3.88V6259.3a3.887,3.887,0,0,1,3.882-3.883h14.246a1.943,1.943,0,0,1,1.409.608l2.029,2.153,2.029,2.154,2.194,2.372,2.194,2.372a1.924,1.924,0,0,1,.516,1.315v22.162a3.884,3.884,0,0,1-3.879,3.88Zm-20.735-36.351a3.221,3.221,0,0,0-3.216,3.216v29.254a3.217,3.217,0,0,0,3.213,3.213h20.738a3.219,3.219,0,0,0,3.213-3.213v-22.161a1.289,1.289,0,0,0-.337-.867l-2.193-2.371-2.194-2.371-2.028-2.153-2.028-2.153a1.274,1.274,0,0,0-.925-.4H4912.52Z" transform="translate(-4908.639 -6255.416)" fill="#24313e"></path></g><g transform="translate(305.536 145.673)"><path d="M4924.065,6268.058v22.162a3.549,3.549,0,0,1-3.549,3.548h-20.738a3.55,3.55,0,0,1-3.549-3.549v-29.254a3.549,3.549,0,0,1,3.549-3.549h14.253a1.6,1.6,0,0,1,1.166.5l2.029,2.154,2.029,2.154,2.193,2.371,2.193,2.371a1.6,1.6,0,0,1,.426,1.088Z" transform="translate(-4895.896 -6257.083)" fill="#28c397"></path><path d="M4918.847,6292.434h-20.738a3.883,3.883,0,0,1-3.879-3.879V6259.3a3.887,3.887,0,0,1,3.882-3.883h14.244a1.941,1.941,0,0,1,1.41.608l2.029,2.153,2.029,2.154,2.194,2.372,2.194,2.372a1.925,1.925,0,0,1,.516,1.315v22.162a3.885,3.885,0,0,1-3.88,3.88Zm-20.735-36.351a3.221,3.221,0,0,0-3.216,3.216v29.254a3.218,3.218,0,0,0,3.212,3.213h20.738a3.217,3.217,0,0,0,3.213-3.213v-22.161a1.268,1.268,0,0,0-.337-.863l-2.193-2.371-2.193-2.372-2.028-2.152-2.028-2.153a1.272,1.272,0,0,0-.924-.4h-14.245Z" transform="translate(-4894.229 -6255.416)" fill="#24313e"></path></g><g transform="translate(325.362 146.018)"><path d="M5024.523,6270.07H5015.7a.547.547,0,0,1-.547-.547v-9.456a.548.548,0,0,1,.945-.375l2.1,2.233,2.1,2.233,2.31,2.5,2.31,2.5a.548.548,0,0,1-.4.92Z" transform="translate(-5014.82 -6259.181)" fill="#ebf0f5"></path><path d="M5022.854,6268.73h-8.821a.882.882,0,0,1-.88-.88V6258.4a.879.879,0,0,1,1.521-.6l2.1,2.233,2.1,2.232,2.311,2.5,2.311,2.5a.878.878,0,0,1-.646,1.478Zm-8.816-10.551a.169.169,0,0,0-.049,0,.23.23,0,0,0-.036.011.271.271,0,0,0-.08.057.207.207,0,0,0-.052.142v9.456a.215.215,0,0,0,.214.214h8.821a.208.208,0,0,0,.14-.05.229.229,0,0,0,.056-.082.209.209,0,0,0,.02-.095.2.2,0,0,0-.058-.135l-2.309-2.5-2.31-2.5-2.1-2.231-2.1-2.231a.229.229,0,0,0-.081-.055A.2.2,0,0,0,5014.038,6258.18Z" transform="translate(-5013.153 -6257.515)" fill="#24313e"></path></g><g transform="translate(236.741 163.788)"><path d="M4487.016,6364.613l-2.17,2.169-2.169,2.17-.612-.612-.611-.612c2.134-2.133,3.307-3.109,4.054-3.451S4486.572,6364.226,4487.016,6364.613Z" transform="translate(-4481.454 -6364.125)" fill="#fff"></path></g><g transform="translate(236.626 163.695)"><path d="M4482.109,6368.563a.084.084,0,0,1-.04-.008.107.107,0,0,1-.033-.022l-.617-.612-.617-.612a.1.1,0,0,1,0-.144c2.17-2.169,3.368-3.152,4.139-3.489s1.111-.028,1.569.384a.1.1,0,0,1,.023.033.1.1,0,0,1,.007.039.1.1,0,0,1-.007.04.131.131,0,0,1-.024.033l-2.169,2.165-2.169,2.166a.046.046,0,0,1-.027.021.071.071,0,0,1-.034.008Zm-1.079-1.327.54.54.54.541,2.093-2.093,2.093-2.093a1.053,1.053,0,0,0-1.422-.2,19.117,19.117,0,0,0-3.846,3.3Z" transform="translate(-4480.772 -6363.533)" fill="#ff6c37"></path></g><g transform="translate(238.026 164.337)"><path d="M4490.346,6372.946l-.591-.591-.59-.591,2.169-2.17,2.17-2.17c.581.587.437,1.355-.174,2.284A21.376,21.376,0,0,1,4490.346,6372.946Z" transform="translate(-4489.165 -6367.425)" fill="#fff"></path></g><g transform="translate(237.935 164.242)"><path d="M4489.885,6372.546a.1.1,0,0,1-.04-.007.118.118,0,0,1-.032-.024l-.591-.591-.591-.591a.058.058,0,0,1-.018-.032.174.174,0,0,1,0-.039.1.1,0,0,1,.008-.04.136.136,0,0,1,.022-.032l2.17-2.17,2.17-2.17a.1.1,0,0,1,.072-.031.1.1,0,0,1,.071.031,1.253,1.253,0,0,1,.305.436,1.272,1.272,0,0,1,.1.521,3.582,3.582,0,0,1-.946,1.989,27.448,27.448,0,0,1-2.612,2.721.173.173,0,0,1-.044.023.129.129,0,0,1-.039.007Zm-1.039-1.286c.329.334.565.565.726.732s.26.255.311.307a29.516,29.516,0,0,0,2.351-2.429,3.81,3.81,0,0,0,1.063-2.066,1.034,1.034,0,0,0-.064-.392,1.142,1.142,0,0,0-.2-.348l-2.1,2.1Z" transform="translate(-4488.612 -6366.818)" fill="#ff6c37"></path></g><g transform="translate(235.606 167.417)"><path d="M4475.8,6385.887l.437.437.438.438a.041.041,0,0,1,.016.031.045.045,0,0,1-.016.031l-.011.009a.018.018,0,0,1-.01,0l-.906.2-.9.2a.171.171,0,0,1-.124-.033.182.182,0,0,1-.071-.111.15.15,0,0,1,0-.075.168.168,0,0,1,.036-.059l.524-.524.524-.524a.084.084,0,0,1,.035-.02.021.021,0,0,1,.027.01Z" transform="translate(-4474.649 -6385.876)" fill="#fff"></path></g><g transform="translate(235.506 167.307)"><path d="M4474.316,6386.775a.26.26,0,0,1-.191-.08.286.286,0,0,1-.076-.2.276.276,0,0,1,.021-.106.292.292,0,0,1,.061-.089l.524-.524.524-.524a.157.157,0,0,1,.206,0l.437.438.437.437a.125.125,0,0,1,.046.1.148.148,0,0,1-.046.106.108.108,0,0,1-.032.025.162.162,0,0,1-.039.017l-.905.2-.905.2a.127.127,0,0,0-.031.006.1.1,0,0,1-.031,0Zm.957-1.327-.5.5-.5.5a.066.066,0,0,0-.02.038.057.057,0,0,0,.011.045.047.047,0,0,0,.028.031.058.058,0,0,0,.043,0l.849-.185.848-.186-.375-.375Z" transform="translate(-4474.049 -6385.215)" fill="#ff6c37"></path></g><g transform="translate(241.781 161.41)"><path d="M4514.495,6350.3a1.665,1.665,0,1,0-.287,2.633l-.587-.586-.586-.586.73-.726Z" transform="translate(-4511.68 -6349.835)" fill="#fff"></path></g><g transform="translate(241.669 161.303)"><path d="M4512.834,6352.761a1.769,1.769,0,1,1,1.224-3.043.109.109,0,0,1,.022.032.1.1,0,0,1,0,.081.1.1,0,0,1-.022.032l-.694.693-.693.694.545.545.544.545a.1.1,0,0,1,.032.072.1.1,0,0,1-.031.073l-.01.009-.011.011a1.76,1.76,0,0,1-.434.19A1.708,1.708,0,0,1,4512.834,6352.761Zm0-3.321a1.563,1.563,0,0,0-1.1,2.667,1.532,1.532,0,0,0,1.105.448,1.579,1.579,0,0,0,.353-.039,1.449,1.449,0,0,0,.336-.125l-.539-.535-.54-.535a.12.12,0,0,1-.023-.033.1.1,0,0,1,0-.082.109.109,0,0,1,.023-.032l.689-.688.69-.688a1.486,1.486,0,0,0-.465-.269,1.55,1.55,0,0,0-.533-.091Z" transform="translate(-4511.06 -6349.222)" fill="#ff6c37"></path></g><g transform="translate(243.137 161.882)"><path d="M4521.322,6352.7l-.011-.011-.01-.011-.735.726-.736.726.581.581.581.581c.057-.036.114-.074.168-.115a1.493,1.493,0,0,0,.151-.132,1.649,1.649,0,0,0,.011-2.345Z" transform="translate(-4519.831 -6352.683)" fill="#fff"></path></g><g transform="translate(243.03 161.777)"><path d="M4520.484,6354.841a.112.112,0,0,1-.04-.007.13.13,0,0,1-.032-.023l-.586-.585-.586-.586a.118.118,0,0,1-.024-.032.113.113,0,0,1-.006-.04.1.1,0,0,1,.007-.04.112.112,0,0,1,.023-.032l.729-.726.73-.726a.1.1,0,0,1,.145,0l.016.01.016.011a1.764,1.764,0,0,1,.518,1.245,1.789,1.789,0,0,1-.507,1.253,1.97,1.97,0,0,1-.161.146,1.451,1.451,0,0,1-.177.123.28.28,0,0,0-.039.015A.056.056,0,0,1,4520.484,6354.841Zm-1.028-1.275.52.52.519.52a.982.982,0,0,0,.121-.088c.039-.032.075-.066.105-.1a1.568,1.568,0,0,0,.458-1.069,1.553,1.553,0,0,0-.4-1.092l-.658.653Z" transform="translate(-4519.208 -6352.012)" fill="#ff6c37"></path></g><g transform="translate(237.713 164.28)"><path d="M4492.027,6367.246a.635.635,0,0,0-.9,0l-1.936,1.936-1.936,1.936.322.323.323.323,2.052-1.8,2.051-1.8a.613.613,0,0,0,.216-.432.653.653,0,0,0-.154-.463l-.025-.015a.136.136,0,0,1-.017-.017Z" transform="translate(-4487.26 -6367.061)" fill="#fff"></path></g><g transform="translate(237.593 164.137)"><path d="M4487.32,6371.351a.1.1,0,0,1-.041-.007.116.116,0,0,1-.032-.024l-.323-.323-.322-.323a.1.1,0,0,1-.031-.072.1.1,0,0,1,.03-.072l1.936-1.936,1.936-1.936a.735.735,0,1,1,1.041,1.03l-.016.015-.015.016-2.051,1.8-2.052,1.8a.063.063,0,0,1-.023.024.084.084,0,0,1-.038.006Zm-.494-.751.252.251.252.252,2.017-1.769,2.016-1.769a.512.512,0,0,0,.185-.359.557.557,0,0,0-.124-.391.507.507,0,0,0-.359-.185.556.556,0,0,0-.391.123.15.15,0,0,1-.041.032l-1.9,1.907Z" transform="translate(-4486.572 -6366.394)" fill="#ff6c37"></path></g><g transform="translate(233.369 168.977)"><path d="M4462.583,6399.034a.1.1,0,0,0-.045.044.087.087,0,0,0-.006.059l.088.371.087.37a.187.187,0,0,1-.009.155.2.2,0,0,1-.125.1.2.2,0,0,1-.124,0,.208.208,0,0,1-.1-.066l-.564-.561-.564-.56,1.846-1.847,1.846-1.846.638.01.637.011.433.432.432.433a12.918,12.918,0,0,1-1.177.944,24.6,24.6,0,0,1-3.285,1.946Z" transform="translate(-4461.217 -6395.254)" fill="#fff"></path></g><g transform="translate(233.273 168.877)"><path d="M4462.08,6399.722a.328.328,0,0,1-.119-.022.255.255,0,0,1-.1-.07l-.564-.56-.565-.561a.11.11,0,0,1-.023-.033.091.091,0,0,1-.007-.041.088.088,0,0,1,.008-.039.092.092,0,0,1,.022-.032l1.846-1.846,1.846-1.846a.124.124,0,0,1,.071-.031l.638.011.638.011a.1.1,0,0,1,.04.008.094.094,0,0,1,.032.023l.432.432.432.433a.1.1,0,0,1,.023.038.124.124,0,0,1,.007.044.081.081,0,0,1-.008.04.094.094,0,0,1-.033.032l-.036.031-.036.031a16.208,16.208,0,0,1-1.925,1.429,26.047,26.047,0,0,1-2.488,1.4l.087.366.087.365a.323.323,0,0,1-.019.2.333.333,0,0,1-.136.151.339.339,0,0,1-.085.032A.328.328,0,0,1,4462.08,6399.722Zm-1.129-1.287.53.524.529.525a.116.116,0,0,0,.064.052.1.1,0,0,0,.081-.011.118.118,0,0,0,.052-.065.1.1,0,0,0-.012-.08l-.086-.371-.088-.37a.188.188,0,0,1,.1-.216,27.243,27.243,0,0,0,2.462-1.391,16.5,16.5,0,0,0,1.908-1.407l-.38-.381-.381-.38-.591-.01-.591-.011-1.8,1.794Z" transform="translate(-4460.705 -6394.641)" fill="#ff6c37"></path></g><g transform="translate(232.443 172.668)"><path d="M4455.75,6418.288l.442-.442.442-.441.658.657.657.658-1.048-.072-1.049-.072a.155.155,0,0,1-.11-.062.17.17,0,0,1-.034-.123.2.2,0,0,1,.009-.059A.1.1,0,0,1,4455.75,6418.288Z" transform="translate(-4455.707 -6417.404)" fill="#fff"></path></g><g transform="translate(232.336 172.563)"><path d="M4457.395,6418.255l-1.054-.072-1.054-.072a.258.258,0,0,1-.186-.095.289.289,0,0,1-.062-.2.4.4,0,0,1,.026-.089.2.2,0,0,1,.057-.074l.441-.442.442-.442a.1.1,0,0,1,.072-.032.1.1,0,0,1,.072.032l.658.658.658.658a.093.093,0,0,1,.03.052.094.094,0,0,1-.01.061.112.112,0,0,1-.038.046.088.088,0,0,1-.054.016Zm-1.316-1.265-.4.4-.4.4a.057.057,0,0,0,0,.092l.017.014a.037.037,0,0,0,.024.007l.91.061.91.062-.524-.525Z" transform="translate(-4455.037 -6416.734)" fill="#ff6c37"></path></g><g transform="translate(236.591 168.251)"><path d="M4480.686,6392.081a.1.1,0,0,1-.075-.032.1.1,0,0,1-.028-.07.106.106,0,0,1,.008-.04.092.092,0,0,1,.022-.032l.5-.5.5-.5a.1.1,0,0,1,.145,0l.322.323.323.323a.125.125,0,0,1,.032.047.091.091,0,0,1-.03.1.128.128,0,0,1-.052.028l-.823.175-.823.174h-.021Zm1-.957-.339.339-.339.339.555-.118.555-.119-.215-.221Z" transform="translate(-4480.583 -6390.877)" fill="#ff6c37"></path></g><g transform="translate(237.015 168.364)"><path d="M4484.414,6392.2l-.564.123-.565.124a.152.152,0,0,1-.116-.019.163.163,0,0,1-.068-.1.165.165,0,0,1,0-.076.17.17,0,0,1,.04-.068l.314-.314.314-.314.322.323Z" transform="translate(-4483.095 -6391.557)" fill="#fff"></path></g><g transform="translate(236.924 168.253)"><path d="M4482.818,6391.977a.257.257,0,0,1-.236-.357.358.358,0,0,1,.051-.081l.313-.314.314-.314a.1.1,0,0,1,.072-.031.1.1,0,0,1,.071.031l.323.323.323.322a.11.11,0,0,1,.031.047.1.1,0,0,1,0,.057.1.1,0,0,1-.03.043.131.131,0,0,1-.052.029l-.565.123-.564.123h-.051Zm.515-.854-.278.278-.277.278a.051.051,0,0,0-.017.031.067.067,0,0,0,.006.031.051.051,0,0,0,.023.023.087.087,0,0,0,.038.007l.473-.1.473-.1-.22-.221Z" transform="translate(-4482.561 -6390.88)" fill="#ff6c37"></path></g><g transform="translate(244.353 162.814)"><path d="M4527.422,6358.341a.111.111,0,0,0-.062-.067.125.125,0,0,0-.093-.005.118.118,0,0,0-.067.062.129.129,0,0,0-.005.093.037.037,0,0,0,.005.017.077.077,0,0,1,0,.015.362.362,0,0,1,.034.2.412.412,0,0,1-.074.191.118.118,0,0,0-.026.086.121.121,0,0,0,.037.081.111.111,0,0,0,.085.024.124.124,0,0,0,.081-.045.652.652,0,0,0,.138-.323.561.561,0,0,0-.056-.327h0Z" transform="translate(-4527.138 -6358.262)" fill="#ff6c37"></path></g><g transform="translate(267.791 164.585)"><path d="M4670.937,6368.981h-3.184l.162.255.161.255h2.848a1.254,1.254,0,0,1,.5.1,1.306,1.306,0,0,1,.423.291,1.344,1.344,0,0,1,.381.938,1.234,1.234,0,0,1-.375.9,1.444,1.444,0,0,1-.411.285,1.659,1.659,0,0,1-.505.146h-.832l-.484,0,.138.241.139.242h.421l.011.019.012.018h0l.624,1.053.623,1.049,0,0h0a.239.239,0,0,0,.092.061.276.276,0,0,0,.115.02.262.262,0,0,0,.189-.081.289.289,0,0,0,.081-.2.172.172,0,0,0-.013-.069.164.164,0,0,0-.03-.044l-.018-.021c-.008-.011-.016-.022-.023-.034l-.513-.874-.512-.874a1.819,1.819,0,0,0,1.653-1.134,1.855,1.855,0,0,0-.4-2.007,1.817,1.817,0,0,0-1.291-.538Zm4.284.052a.223.223,0,0,0-.093-.095.29.29,0,0,0-.271,0,.266.266,0,0,0-.1.092l-.014.022-.014.024a.167.167,0,0,0-.017.109.326.326,0,0,0,.038.108l.217.377.219.376.834,1.452.834,1.452h-2.22l.155.271.155.271h2.221l.335.581.335.581h0a.473.473,0,0,0,.089.114.24.24,0,0,0,.167.063.27.27,0,0,0,.259-.341.235.235,0,0,0-.03-.065l-1.554-2.7-1.553-2.7Zm13.059,5.265h-2.865v-5.124a.269.269,0,1,0-.539,0v5.393a.269.269,0,0,0,.27.27h3.445l-.156-.269Zm-5.623-5.13a.27.27,0,0,0-.269-.264h-.041a.274.274,0,0,0-.138.034.244.244,0,0,0-.093.094l-.888,1.563-.887,1.563-.888-1.562-.887-1.562a.225.225,0,0,0-.093-.095.291.291,0,0,0-.272,0,.256.256,0,0,0-.1.091l-.013.023-.015.024a.17.17,0,0,0-.017.108.289.289,0,0,0,.036.107l.992,1.741.991,1.74h0a.536.536,0,0,0,.088.113.246.246,0,0,0,.167.064h.016a.236.236,0,0,0,.167-.063.526.526,0,0,0,.088-.114l.759-1.332.759-1.331v4.452a.269.269,0,1,0,.539,0v-5.4h0Z" transform="translate(-4667.753 -6368.904)" fill="#d9dee5"></path></g><g transform="translate(311.636 159.919)"><g transform="translate(0.003 9.325)"><path d="M4935.114,6396.85h-4.28v.236a.334.334,0,0,0,0,.069.675.675,0,0,1,.006.069v.016a.073.073,0,0,0,0,.015c0,.026,0,.052.007.082s.005.051.009.081v.015a.485.485,0,0,0,.01.081c0,.026.008.055.012.081h0c.024.171.055.341.093.51s.081.336.129.5h0c.007.027.016.052.023.081s.016.052.024.081v.018l.023.069c.008.023.016.047.023.07l.006.018.006.017c.008.021.015.041.021.062s.016.04.022.061.007.018.011.026l.011.028c0,.01.014.033.019.05s.013.033.02.05.01.026.015.038.011.025.016.038.011.026.017.039.011.026.017.039.014.032.021.048l.021.048.013.028.013.028c.008.02.017.038.026.058l.027.056.009.019.009.018.032.065.032.065,0,.01,0,.011.037.071.037.071h0l.008.015.009.015,1.828-1.1,1.828-1.1.006,0,.007,0a2.977,2.977,0,0,1-.268-.952Z" transform="translate(-4930.834 -6396.85)" fill="#fff"></path></g><g transform="translate(2.314 11.286)"><path d="M4947.7,6408.639l-.005,0,0,0-1.508,1.508-1.507,1.507.022.021.024.021.043.039.043.037.021.019.021.02.052.044.051.043.015.012.014.012.066.053.066.052.065.051.065.049h0c.091.068.183.134.278.2s.188.124.286.184a.041.041,0,0,0,.01.005l.01.007.056.033.055.033.034.02.034.019.032.018.032.018.059.032.06.031.008,0,.008,0c.055.029.11.057.166.081s.111.053.167.081l.053-.13.053-.13.758-1.841.758-1.842v-.013a2.69,2.69,0,0,1-.242-.145,2.8,2.8,0,0,1-.23-.171Z" transform="translate(-4944.679 -6408.633)" fill="#fff"></path></g><g transform="translate(1.028 10.542)"><path d="M4940.973,6404.581c-.017-.018-.033-.036-.049-.055l-.046-.055-.04-.05-.038-.051-.043-.059c-.014-.019-.027-.039-.04-.06l-.04-.061-.039-.062-1.83,1.1-1.829,1.1c.027.047.056.093.085.138l.088.136v.008h0v0h0l.007.011.006.012h0c.032.047.063.093.1.139l.1.137h0l.044.058c.016.018.03.039.045.058l.005.007.006.007.047.059.047.058.012.015.012.014.043.051.044.051.02.022.02.021.038.043.038.043.021.024.021.022.01.011.01.011.028.031.028.031.012.012.011.012.051.052.051.051,1.51-1.51,1.51-1.509-.05-.053-.049-.053Z" transform="translate(-4936.979 -6404.129)" fill="#fff"></path></g><g transform="translate(8.921 11.29)"><path d="M4984.446,6408.63l-.05.04-.051.038v.013l1.1,1.826,1.1,1.828.152-.1.149-.106c.106-.081.212-.162.315-.242s.2-.174.3-.266l-1.508-1.508-1.508-1.507-.005-.006Z" transform="translate(-4984.345 -6408.63)" fill="#fff"></path></g><g transform="translate(2.315 3.039)"><path d="M4953.173,6371.157l-.037-.062-.037-.062-1.028-1.705-1.026-1.7-.063.035-.064.035-.065.034-.065.031a2.929,2.929,0,0,1-1.25.284,2.879,2.879,0,0,1-.42-.032,2.759,2.759,0,0,1-.411-.091c-.022-.006-.045-.016-.069-.023l-.068-.025-.068-.023-.067-.025-.758,1.84-.757,1.839-.03.072-.03.072-.025.063-.026.062h.023c.018.008.036.015.054.021l.054.02.067.027.067.026.035.013.035.013h0a7.116,7.116,0,0,0,1.466.351l.028,0h.091l.058.006.057.005h.028l.071.006.07.006h.524c.2,0,.4-.008.6-.025s.4-.042.595-.075h.02l.063-.012.063-.012.035-.006.036-.007.036-.007.037-.008.061-.013.062-.014h.023a6.938,6.938,0,0,0,.882-.265,7.346,7.346,0,0,0,.84-.376h0c.018-.009.036-.019.053-.03l.053-.03.063-.034.063-.037.045-.024.043-.025h0v0h0l.014-.008.015-.008-.037-.062Zm-5.475-8.28.051-.04.051-.038v-.012l-1.1-1.828-1.1-1.827c-.051.033-.1.067-.152.1s-.1.07-.15.106c-.105.081-.212.162-.314.242s-.2.173-.3.266l1.508,1.507,1.507,1.507.006.006Z" transform="translate(-4944.68 -6359.132)" fill="#fff"></path></g><g transform="translate(0 1.892)"><path d="M4932.9,6354.165l-.05.052-.05.052-.05.052-.049.052c-.11.119-.216.242-.318.368s-.2.255-.292.388l-.013.019-.013.019-.032.046-.03.045c-.011.016-.021.032-.031.048l-.032.047c0,.006-.007.012-.011.017l-.012.018a7.164,7.164,0,0,0-1.114,3.566v.289h4.27v-.072a.407.407,0,0,1,0-.073v-.072a.353.353,0,0,1,0-.072,2.893,2.893,0,0,1,.645-1.555l.048-.055.05-.053.048-.054c.016-.019.032-.036.05-.053l-1.51-1.509Zm8.811-1.06-.008-.005-.009,0-.056-.035-.057-.033-.032-.019-.033-.019-.034-.019-.034-.018-.057-.032-.058-.031-.009,0-.01,0c-.125-.065-.251-.128-.38-.185s-.258-.112-.39-.161l-.011,0h-.011l-.085-.032-.086-.031q-.351-.122-.71-.208a7.225,7.225,0,0,0-.727-.134h-.029l-.031,0h-.061l-.058-.006-.057-.006h-.033l-.069-.005-.068-.005h-.236v4.28a3.129,3.129,0,0,1,.329.052,2.834,2.834,0,0,1,.322.088l1.576-1.574,1.575-1.575c-.059-.041-.118-.081-.177-.12s-.119-.081-.181-.115Z" transform="translate(-4930.799 -6352.1)" fill="#fff"></path></g><g transform="translate(3.479 1.844)"><path d="M4955.217,6352.018h-.144c-.151.006-.3.017-.453.032s-.3.036-.45.062h-.021l-.063.012-.063.011-.035.007-.036.006-.037.007-.036.007-.061.014-.061.014h-.023a7.285,7.285,0,0,0-1.724.645l-.052.03-.053.031-.063.035-.063.036-.047.027-.047.027h0l-.012.007-.012.006h0l.037.062.037.062,1.065,1.768,1.064,1.767.063-.036.064-.035.064-.034.065-.032a2.864,2.864,0,0,1,.466-.175,2.921,2.921,0,0,1,.489-.093l.072-.006c.024,0,.048,0,.073,0h.145v-4.269h-.144Z" transform="translate(-4951.663 -6352.008)" fill="#fff"></path></g><g transform="translate(9.964 4.958)"><path d="M4994.847,6374.317v-.173a.333.333,0,0,0,0-.066l-.006-.068v-.035c0-.023-.005-.05-.008-.074s-.005-.051-.008-.076v-.018a.54.54,0,0,0-.011-.081c0-.026-.007-.055-.012-.081v0q-.036-.256-.092-.509c-.037-.167-.081-.335-.128-.5h0c-.007-.025-.017-.052-.023-.08s-.016-.051-.023-.077a.04.04,0,0,0,0-.011v-.011c-.007-.023-.015-.046-.022-.068s-.016-.046-.024-.068l-.006-.019-.006-.019c-.007-.021-.014-.039-.021-.06s-.015-.04-.022-.061l-.011-.028-.011-.028c-.005-.016-.012-.033-.019-.05l-.019-.049-.016-.039-.016-.038-.016-.038c0-.013-.011-.025-.016-.038s-.014-.033-.021-.048-.014-.033-.021-.049l-.012-.027-.012-.027c-.009-.02-.018-.039-.028-.059l-.026-.057c0-.006-.006-.012-.008-.018l-.009-.018-.032-.065-.033-.065,0-.01,0-.009-.037-.071c-.012-.024-.024-.048-.038-.071h0c-.062-.114-.127-.226-.2-.336s-.14-.218-.214-.323l-1.575,1.576-1.576,1.575a3.046,3.046,0,0,1,.14.646h4.282v-.063Z" transform="translate(-4990.459 -6370.596)" fill="#fff"></path></g><g transform="translate(9.25 9.034)"><path d="M4987.107,6395.109v.216a.341.341,0,0,1-.005.073,2.9,2.9,0,0,1-.645,1.555c-.016.019-.032.037-.048.054l-.05.054c-.017.018-.032.035-.048.054s-.032.036-.049.054l1.51,1.51,1.51,1.509.05-.052.05-.051.051-.053c.017-.017.033-.035.05-.054q.167-.18.323-.37c.1-.127.2-.255.29-.387l.012-.017.01-.015.033-.049c.011-.016.021-.032.034-.049l.029-.045.028-.044.015-.021.014-.021a7.142,7.142,0,0,0,.8-1.724,7.257,7.257,0,0,0,.315-1.839v-.289h-4.27Z" transform="translate(-4986.261 -6395.109)" fill="#fff"></path></g><g transform="translate(5.176)"><path d="M4972.342,6341.488a2,2,0,0,0-3.205,2.3l-2.178,2.178-2.178,2.178a2.005,2.005,0,1,0,.9.9l2.178-2.179,2.178-2.178a2,2,0,0,0,2.3-3.2Z" transform="translate(-4961.885 -6340.899)" fill="#fff"></path></g></g><g transform="translate(120.338 63.008)"><path d="M3815.934,5798.47h-30.843v-35.828a1.162,1.162,0,0,1,1.162-1.161h28.519a1.162,1.162,0,0,1,1.162,1.161v35.828Z" transform="translate(-3784.761 -5761.148)" fill="#6b7e8f"></path><path d="M3814.6,5797.14H3783.1v-36.161a1.5,1.5,0,0,1,1.495-1.5H3813.1a1.5,1.5,0,0,1,1.5,1.5v36.161Zm-30.843-.667h30.175v-35.494a.829.829,0,0,0-.828-.828H3784.59a.83.83,0,0,0-.828.829Z" transform="translate(-3783.096 -5759.482)" fill="#24313e"></path></g><g transform="translate(144.62 63.008)"><path d="M4002.768,5798.47h-71.987v-35.828a1.161,1.161,0,0,1,1.161-1.161h67.716a3.109,3.109,0,0,1,3.109,3.11v33.876Z" transform="translate(-3930.452 -5761.148)" fill="#9caab8"></path><path d="M4001.438,5797.14h-72.654v-36.161a1.5,1.5,0,0,1,1.5-1.5H3998a3.446,3.446,0,0,1,3.443,3.443v34.214Zm-71.987-.667h71.32v-33.547a2.781,2.781,0,0,0-2.776-2.776H3930.28a.83.83,0,0,0-.828.829Z" transform="translate(-3928.785 -5759.482)" fill="#24313e"></path></g><g transform="translate(104.852 95.514)"><path d="M3822.509,6046.455H3692.18V5956.52h130.328v89.935Z" transform="translate(-3691.846 -5956.178)" fill="#6b7e8f"></path><path d="M3821.17,6045.114H3690.18v-90.6h130.995v90.6Zm-130.329-.662H3820.5v-89.273H3690.841v89.272Z" transform="translate(-3690.18 -5954.51)" fill="#24313e"></path></g><g transform="translate(142.533 95.514)"><path d="M4011.223,6046.455H3918.28V5956.52h92.94v89.935Z" transform="translate(-3917.947 -5956.178)" fill="#9caab8"></path><path d="M4009.893,6045.114H3916.28v-90.6h93.607v90.6Zm-92.941-.667h92.274v-89.269h-92.274v89.272Z" transform="translate(-3916.28 -5954.51)" fill="#24313e"></path></g><g transform="translate(151.568 104.363)"><path d="M4048.271,6083.511h-75.812v-73.934h75.812Z" transform="translate(-3972.129 -6009.246)" fill="#455666"></path><path d="M4046.941,6082.182h-76.478v-74.6h76.478Zm-75.812-.667h75.145v-73.267h-75.145Z" transform="translate(-3970.463 -6007.581)" fill="#24313e"></path></g><g transform="translate(152.07 104.942)"><g transform="translate(0 0)" clip-path="url(#a)"><g transform="translate(-20.258 -15.177)"><g transform="translate(7.904 64.412)"><g transform="translate(0.331 0.34)"><path d="M3938.863,6309.3a2.112,2.112,0,0,0-2.7.4l-1.152,1.31-1.153,1.309a2.122,2.122,0,0,1-1.649.715l-4.954-.145-4.955-.145a2.1,2.1,0,0,1-.882-.224,2.128,2.128,0,0,1-.71-.576l-1.063-1.334-1.063-1.335a2.112,2.112,0,0,0-2.679-.532l-1.39.77-1.391.769a2.114,2.114,0,0,0-.973,2.55l.588,1.68.588,1.68a2.123,2.123,0,0,1-.2,1.813l-2.487,4.027-2.487,4.027a2.114,2.114,0,0,1-1.5.982l-1.713.249-1.713.249a2.109,2.109,0,0,0-1.809,2.039l-.041,1.588-.041,1.589a2.114,2.114,0,0,0,1.709,2.134l1.725.335,1.725.336a2.113,2.113,0,0,1,1.459,1.075l2.238,4.162,2.238,4.162a2.115,2.115,0,0,1,.251.888,2.093,2.093,0,0,1-.154.911l-.66,1.622-.66,1.622a2.114,2.114,0,0,0,.844,2.6l1.348.836,1.348.836a2.112,2.112,0,0,0,2.7-.4l1.154-1.309,1.153-1.309a2.1,2.1,0,0,1,1.649-.715l4.953.144,4.953.144a2.139,2.139,0,0,1,.887.223,2.087,2.087,0,0,1,.709.574l1.062,1.336,1.062,1.337a2.117,2.117,0,0,0,2.682.534l1.391-.771,1.391-.771a2.116,2.116,0,0,0,.968-2.551l-.586-1.679-.587-1.679a2.1,2.1,0,0,1-.108-.928,2.143,2.143,0,0,1,.3-.888l2.487-4.026,2.487-4.028a2.12,2.12,0,0,1,1.5-.981l1.714-.25,1.713-.249a2.116,2.116,0,0,0,1.815-2.04l.039-1.589.04-1.589a2.119,2.119,0,0,0-1.71-2.13l-1.726-.336-1.726-.334a2.115,2.115,0,0,1-1.459-1.076l-2.237-4.164-2.237-4.164a2.111,2.111,0,0,1-.1-1.8l.66-1.624.661-1.624a2.113,2.113,0,0,0-.845-2.595l-1.349-.835Zm-7.336,15.158a8.711,8.711,0,1,1-6.721-1.154,8.711,8.711,0,0,1,6.721,1.154Z" transform="translate(-3901.341 -6308.484)" fill="#28c397"></path></g><path d="M3935.024,6353.751a2.44,2.44,0,0,1-1.915-.925l-1.062-1.338-1.062-1.336a1.78,1.78,0,0,0-.6-.484,1.8,1.8,0,0,0-.748-.187l-4.952-.145-4.952-.144a1.758,1.758,0,0,0-.765.144,1.789,1.789,0,0,0-.625.457l-1.154,1.309-1.154,1.309a2.441,2.441,0,0,1-3.126.463l-1.347-.836-1.348-.836a2.44,2.44,0,0,1-.978-3.006l.66-1.621.659-1.621a1.766,1.766,0,0,0-.081-1.517l-2.238-4.163-2.238-4.163a1.784,1.784,0,0,0-1.23-.906l-1.725-.335-1.725-.336a2.438,2.438,0,0,1-1.978-2.469l.041-1.588.041-1.588a2.438,2.438,0,0,1,2.1-2.36l1.714-.249,1.713-.248a1.768,1.768,0,0,0,1.261-.828l2.487-4.027,2.487-4.026a1.779,1.779,0,0,0,.167-1.528l-.587-1.68-.588-1.68a2.443,2.443,0,0,1,1.129-2.95l1.391-.769,1.391-.769a2.436,2.436,0,0,1,3.1.616l1.063,1.334,1.063,1.335a1.8,1.8,0,0,0,.6.484,1.744,1.744,0,0,0,.743.188l4.955.145,4.955.145a1.736,1.736,0,0,0,.763-.145,1.784,1.784,0,0,0,.626-.458l1.152-1.308,1.152-1.309a2.439,2.439,0,0,1,3.125-.465l1.35.836,1.349.835a2.44,2.44,0,0,1,.978,3l-.66,1.624-.661,1.624a1.776,1.776,0,0,0,.081,1.513l2.237,4.165,2.236,4.165a1.784,1.784,0,0,0,1.23.906l1.725.335,1.725.335a2.443,2.443,0,0,1,1.981,2.467l-.04,1.588-.039,1.589a2.443,2.443,0,0,1-2.1,2.362l-1.713.249-1.713.249a1.79,1.79,0,0,0-1.261.828l-2.487,4.027-2.487,4.027a1.8,1.8,0,0,0-.255.746,1.745,1.745,0,0,0,.093.777l.586,1.68.586,1.68a2.441,2.441,0,0,1-1.123,2.953l-1.392.771-1.392.771a2.456,2.456,0,0,1-1.19.309Zm-15.346-5.224h.081l4.953.144,4.952.145a2.453,2.453,0,0,1,1.846.922l1.062,1.336,1.062,1.337a1.778,1.778,0,0,0,2.259.449l1.392-.771,1.391-.771a1.774,1.774,0,0,0,.816-2.148l-.586-1.68-.586-1.68a2.412,2.412,0,0,1-.127-1.068,2.468,2.468,0,0,1,.351-1.025l2.487-4.029,2.487-4.028a2.451,2.451,0,0,1,1.732-1.138l1.713-.249,1.713-.249a1.774,1.774,0,0,0,1.533-1.719l.039-1.589.039-1.589a1.775,1.775,0,0,0-1.441-1.795l-1.725-.335-1.726-.335a2.447,2.447,0,0,1-1.689-1.245l-2.237-4.165-2.237-4.164a2.443,2.443,0,0,1-.114-2.081l.661-1.625.661-1.624a1.774,1.774,0,0,0-.711-2.187l-1.35-.835-1.35-.835a1.774,1.774,0,0,0-2.274.338l-1.152,1.309-1.152,1.309a2.466,2.466,0,0,1-1.913.828l-4.955-.146-4.954-.145a2.445,2.445,0,0,1-1.843-.926l-1.063-1.333-1.063-1.335a1.77,1.77,0,0,0-2.258-.448l-1.391.769-1.391.77a1.775,1.775,0,0,0-.82,2.148l.587,1.68.588,1.68a2.444,2.444,0,0,1-.229,2.1l-2.488,4.027-2.487,4.027a2.438,2.438,0,0,1-1.733,1.137l-1.713.25-1.713.249a1.774,1.774,0,0,0-1.524,1.716l-.041,1.589-.042,1.589a1.775,1.775,0,0,0,1.44,1.8l1.725.336,1.725.336a2.445,2.445,0,0,1,1.689,1.244l2.238,4.162,2.238,4.163a2.43,2.43,0,0,1,.112,2.086l-.66,1.621-.659,1.621a1.774,1.774,0,0,0,.711,2.187l1.349.836,1.349.836a1.774,1.774,0,0,0,2.274-.338l1.154-1.308,1.153-1.309a2.429,2.429,0,0,1,1.831-.829Zm5.448-9.371a8.922,8.922,0,0,1-2.527-.364,9.174,9.174,0,0,1-2.351-1.081,8.973,8.973,0,0,1-2.48-2.376,9.168,9.168,0,0,1-1.559-6.6,9.033,9.033,0,0,1,13.835-6.233h0a8.969,8.969,0,0,1,2.48,2.377,9.169,9.169,0,0,1,1.56,6.6,9.025,9.025,0,0,1-6.857,7.43,9.334,9.334,0,0,1-1.049.185,9.144,9.144,0,0,1-1.059.067Zm.042-17.431a8.338,8.338,0,0,0-.973.057,8.468,8.468,0,0,0-.977.172,8.326,8.326,0,1,0,6.467,1.108,8.471,8.471,0,0,0-2.178-1,8.245,8.245,0,0,0-2.339-.334Z" transform="translate(-3899.344 -6306.465)" fill="#24313e"></path></g><g transform="translate(0 17.848)"><g transform="translate(0.33 0.338)"><path d="M3891.452,6029.914a2.114,2.114,0,0,0-2.7.4l-1.152,1.31-1.153,1.31a2.123,2.123,0,0,1-1.647.715l-4.955-.146-4.955-.145a2.114,2.114,0,0,1-.882-.224,2.14,2.14,0,0,1-.709-.575l-1.063-1.335-1.063-1.334a2.112,2.112,0,0,0-2.679-.531l-1.39.769-1.391.769a2.113,2.113,0,0,0-.973,2.549l.588,1.68.588,1.68a2.125,2.125,0,0,1-.2,1.812l-2.487,4.027-2.487,4.027a2.116,2.116,0,0,1-1.5.982l-1.713.248-1.714.249a2.109,2.109,0,0,0-1.809,2.039l-.041,1.588-.042,1.588a2.115,2.115,0,0,0,1.709,2.134l1.725.335,1.725.335a2.112,2.112,0,0,1,1.459,1.075l2.239,4.162,2.237,4.162a2.108,2.108,0,0,1,.1,1.8l-.66,1.622-.66,1.622a2.115,2.115,0,0,0,.844,2.6l1.349.836,1.348.836a2.113,2.113,0,0,0,2.7-.4l1.154-1.308,1.154-1.309a2.1,2.1,0,0,1,1.649-.714l4.953.144,4.953.144a2.119,2.119,0,0,1,1.6.8l1.063,1.337,1.062,1.336a2.118,2.118,0,0,0,2.681.535l1.391-.771,1.392-.771a2.116,2.116,0,0,0,.968-2.552l-.585-1.679-.586-1.679a2.091,2.091,0,0,1-.108-.927,2.139,2.139,0,0,1,.3-.888l2.488-4.026,2.486-4.027a2.123,2.123,0,0,1,1.5-.981l1.713-.25,1.713-.249a2.115,2.115,0,0,0,1.814-2.041l.04-1.588.039-1.589a2.118,2.118,0,0,0-1.711-2.13l-1.725-.335-1.726-.335a2.118,2.118,0,0,1-1.459-1.075l-2.236-4.164-2.237-4.164a2.113,2.113,0,0,1-.1-1.8l.661-1.623.66-1.624a2.113,2.113,0,0,0-.845-2.6l-1.348-.835Zm-7.336,15.159a8.711,8.711,0,1,1-6.722-1.154,8.711,8.711,0,0,1,6.722,1.154Z" transform="translate(-3853.927 -6029.096)" fill="#28c397"></path></g><path d="M3887.614,6074.362a2.443,2.443,0,0,1-1.914-.925l-1.062-1.337-1.062-1.338a1.784,1.784,0,0,0-1.344-.67l-4.952-.145-4.952-.144a1.757,1.757,0,0,0-1.388.6l-1.155,1.309-1.154,1.31a2.442,2.442,0,0,1-3.125.464l-1.349-.837-1.349-.836a2.441,2.441,0,0,1-.978-3l.66-1.622.659-1.621a1.764,1.764,0,0,0-.081-1.518l-2.238-4.161-2.238-4.163a1.773,1.773,0,0,0-1.229-.905l-1.725-.337-1.725-.336a2.441,2.441,0,0,1-1.978-2.469l.04-1.589.041-1.587a2.437,2.437,0,0,1,2.1-2.359l1.713-.25,1.714-.248a1.774,1.774,0,0,0,1.261-.828l2.488-4.026,2.487-4.026a1.784,1.784,0,0,0,.167-1.528l-.588-1.68-.588-1.68a2.444,2.444,0,0,1,1.129-2.951l1.391-.769,1.391-.77a2.436,2.436,0,0,1,3.1.616l1.063,1.334,1.063,1.335a1.8,1.8,0,0,0,.6.484,1.756,1.756,0,0,0,.743.187l4.955.146,4.955.144a1.754,1.754,0,0,0,.764-.145,1.79,1.79,0,0,0,.625-.456l1.153-1.31,1.152-1.31a2.439,2.439,0,0,1,3.125-.464l1.349.834,1.349.835a2.441,2.441,0,0,1,.978,3l-.661,1.624-.661,1.623a1.776,1.776,0,0,0,.081,1.514l2.237,4.165,2.237,4.164a1.774,1.774,0,0,0,1.23.906l1.725.336,1.725.335a2.445,2.445,0,0,1,1.981,2.466l-.039,1.59-.04,1.589a2.443,2.443,0,0,1-2.1,2.362l-1.712.248-1.713.249a1.782,1.782,0,0,0-1.262.828l-2.487,4.026-2.487,4.026a1.8,1.8,0,0,0-.255.746,1.75,1.75,0,0,0,.092.777l.587,1.68.587,1.68a2.443,2.443,0,0,1-1.123,2.954l-1.392.77-1.391.771a2.45,2.45,0,0,1-1.19.308Zm-15.346-5.225h.081l4.952.145,4.952.144a2.453,2.453,0,0,1,1.026.26,2.418,2.418,0,0,1,.818.663l1.062,1.337,1.062,1.337a1.774,1.774,0,0,0,2.258.448l1.392-.77,1.391-.771a1.774,1.774,0,0,0,.817-2.149l-.586-1.679-.586-1.68a2.425,2.425,0,0,1-.126-1.068,2.473,2.473,0,0,1,.35-1.026l2.488-4.028,2.488-4.027a2.441,2.441,0,0,1,1.732-1.137l1.713-.249,1.714-.249a1.775,1.775,0,0,0,1.532-1.719l.039-1.589.04-1.59a1.78,1.78,0,0,0-1.442-1.795l-1.725-.335-1.725-.336a2.45,2.45,0,0,1-1.689-1.244l-2.237-4.164-2.237-4.164a2.447,2.447,0,0,1-.115-2.082l.661-1.622.661-1.625a1.774,1.774,0,0,0-.711-2.187l-1.35-.835-1.349-.835a1.775,1.775,0,0,0-2.274.338l-1.152,1.31-1.153,1.31a2.463,2.463,0,0,1-1.908.827l-4.955-.145-4.955-.145a2.439,2.439,0,0,1-1.843-.925l-1.063-1.335-1.064-1.335a1.77,1.77,0,0,0-2.259-.448l-1.391.769-1.391.77a1.781,1.781,0,0,0-.82,2.148l.588,1.68.588,1.681a2.445,2.445,0,0,1-.229,2.1l-2.487,4.027-2.487,4.026a2.443,2.443,0,0,1-1.733,1.139l-1.713.247-1.713.25a1.774,1.774,0,0,0-1.524,1.716l-.04,1.589-.041,1.589a1.775,1.775,0,0,0,1.44,1.8l1.725.336,1.725.336a2.451,2.451,0,0,1,1.689,1.244l2.238,4.163,2.238,4.162a2.427,2.427,0,0,1,.112,2.085l-.659,1.621-.66,1.621a1.775,1.775,0,0,0,.711,2.187l1.348.837,1.349.837a1.775,1.775,0,0,0,2.274-.338l1.154-1.309,1.154-1.309a2.421,2.421,0,0,1,1.831-.828Zm5.448-9.37a8.914,8.914,0,0,1-2.525-.365,9.157,9.157,0,0,1-2.353-1.081,8.968,8.968,0,0,1-2.48-2.376,9.17,9.17,0,0,1-1.56-6.6,9.032,9.032,0,0,1,13.836-6.234h0a8.965,8.965,0,0,1,2.48,2.377,9.171,9.171,0,0,1,1.56,6.6,9.006,9.006,0,0,1-6.856,7.431,9.3,9.3,0,0,1-1.049.185,8.811,8.811,0,0,1-1.052.058Zm.042-17.432a8.475,8.475,0,0,0-1.95.229,8.319,8.319,0,1,0,4.288.109,8.207,8.207,0,0,0-2.338-.342Z" transform="translate(-3851.931 -6027.078)" fill="#24313e"></path></g><g transform="translate(46.228 33.997)"><g transform="translate(0.33 0.334)"><path d="M4157.213,6126.564a1.462,1.462,0,0,0-1.865.276l-.8.9-.8.905a1.466,1.466,0,0,1-1.139.494l-3.424-.1-3.423-.1a1.459,1.459,0,0,1-1.1-.553l-.735-.922-.735-.922a1.457,1.457,0,0,0-1.85-.368l-.96.532-.96.531a1.461,1.461,0,0,0-.672,1.761l.4,1.161.4,1.16a1.47,1.47,0,0,1-.136,1.252l-1.719,2.782-1.717,2.782a1.483,1.483,0,0,1-.442.455,1.44,1.44,0,0,1-.593.224l-1.183.171-1.184.172a1.452,1.452,0,0,0-1.249,1.408l-.028,1.1-.028,1.1a1.46,1.46,0,0,0,1.181,1.474l1.192.232,1.192.231a1.46,1.46,0,0,1,1.008.743l1.546,2.875,1.546,2.875a1.453,1.453,0,0,1,.067,1.243l-.456,1.122-.455,1.12a1.459,1.459,0,0,0,.583,1.793l.931.579.932.577a1.459,1.459,0,0,0,1.865-.278l.8-.9.8-.9a1.453,1.453,0,0,1,1.14-.493l3.421.1,3.422.1a1.459,1.459,0,0,1,1.1.55l.733.923.734.924a1.465,1.465,0,0,0,1.855.368l.96-.533.96-.532a1.459,1.459,0,0,0,.67-1.763l-.4-1.16-.4-1.16a1.445,1.445,0,0,1-.075-.641,1.485,1.485,0,0,1,.208-.61l1.718-2.782,1.718-2.783a1.464,1.464,0,0,1,1.035-.678l1.183-.172,1.184-.171a1.461,1.461,0,0,0,1.253-1.41l.027-1.1.028-1.1a1.464,1.464,0,0,0-1.182-1.472l-1.192-.231-1.192-.232a1.459,1.459,0,0,1-1.008-.743l-1.545-2.876L4158.82,6133a1.465,1.465,0,0,1-.068-1.242l.457-1.122.456-1.122a1.46,1.46,0,0,0-.584-1.793l-.931-.576Zm-5.068,10.473a6.018,6.018,0,1,1-4.643-.8,6.018,6.018,0,0,1,4.643.8Z" transform="translate(-4131.286 -6125.996)" fill="#28c397"></path></g><path d="M4154.044,6156.857a1.789,1.789,0,0,1-1.4-.678l-.733-.924-.734-.924a1.108,1.108,0,0,0-.377-.3,1.12,1.12,0,0,0-.473-.118l-3.422-.1-3.422-.1a1.1,1.1,0,0,0-.878.381l-.8.9-.8.9a1.788,1.788,0,0,1-2.29.34l-.931-.577-.932-.577a1.791,1.791,0,0,1-.717-2.2l.456-1.121.455-1.12a1.117,1.117,0,0,0-.05-.96l-1.547-2.875-1.546-2.876a1.126,1.126,0,0,0-.778-.573l-1.192-.232-1.192-.232a1.787,1.787,0,0,1-1.452-1.81l.027-1.1.028-1.1a1.788,1.788,0,0,1,1.533-1.729l1.184-.172,1.183-.171a1.119,1.119,0,0,0,.8-.524l1.718-2.781,1.718-2.783a1.122,1.122,0,0,0,.1-.968l-.4-1.16-.4-1.159a1.791,1.791,0,0,1,.825-2.163l.961-.532.959-.532a1.784,1.784,0,0,1,2.273.452l.734.923.735.922a1.123,1.123,0,0,0,.848.428l3.423.1,3.423.1a1.145,1.145,0,0,0,.883-.382l.795-.9.8-.9a1.788,1.788,0,0,1,2.29-.34l.932.576.932.577a1.787,1.787,0,0,1,.717,2.2l-.456,1.122-.456,1.122a1.135,1.135,0,0,0-.08.484,1.118,1.118,0,0,0,.133.472l1.545,2.877,1.546,2.877a1.123,1.123,0,0,0,.777.574l1.192.231,1.193.232a1.791,1.791,0,0,1,1.451,1.808l-.027,1.1-.027,1.1a1.791,1.791,0,0,1-1.54,1.73l-1.183.171-1.182.172a1.124,1.124,0,0,0-.8.524l-1.719,2.782-1.717,2.782a1.135,1.135,0,0,0-.162.472,1.112,1.112,0,0,0,.058.491l.4,1.16.4,1.161a1.788,1.788,0,0,1-.823,2.165l-.96.532-.961.532a1.777,1.777,0,0,1-.428.17A1.829,1.829,0,0,1,4154.044,6156.857Zm-10.6-3.815h.057l3.422.1,3.422.1a1.8,1.8,0,0,1,.752.189,1.77,1.77,0,0,1,.6.483l.734.924.734.924a1.13,1.13,0,0,0,1.43.284l.961-.533.96-.532a1.124,1.124,0,0,0,.517-1.36l-.4-1.16-.4-1.16a1.767,1.767,0,0,1-.094-.782,1.808,1.808,0,0,1,.257-.753l1.719-2.783,1.718-2.782a1.8,1.8,0,0,1,1.271-.833l1.183-.172,1.184-.172a1.125,1.125,0,0,0,.968-1.087l.027-1.1.027-1.1a1.126,1.126,0,0,0-.912-1.136l-1.192-.232-1.192-.231a1.791,1.791,0,0,1-1.239-.913l-1.545-2.875-1.545-2.876a1.787,1.787,0,0,1-.081-1.525l.458-1.122.456-1.122a1.122,1.122,0,0,0-.45-1.384l-.932-.577-.932-.576a1.123,1.123,0,0,0-1.439.214l-.8.9-.8.9a1.8,1.8,0,0,1-1.4.606l-3.423-.1-3.423-.1a1.785,1.785,0,0,1-.75-.188,1.809,1.809,0,0,1-.6-.489l-.735-.922-.735-.923a1.118,1.118,0,0,0-1.428-.283l-.961.531-.961.532a1.124,1.124,0,0,0-.519,1.359l.4,1.16.4,1.16a1.792,1.792,0,0,1-.168,1.537l-1.718,2.782-1.718,2.782a1.789,1.789,0,0,1-1.271.834l-1.183.171-1.183.173a1.12,1.12,0,0,0-.968,1.085l-.028,1.1-.028,1.1a1.123,1.123,0,0,0,.912,1.138l1.192.232,1.192.231a1.789,1.789,0,0,1,1.238.912l1.546,2.876,1.546,2.874a1.775,1.775,0,0,1,.08,1.532l-.455,1.121-.455,1.12a1.124,1.124,0,0,0,.451,1.384l.932.577.931.578a1.123,1.123,0,0,0,1.439-.214l.8-.9.8-.9a1.782,1.782,0,0,1,1.343-.607Zm3.763-6.268a6.274,6.274,0,0,1-1.775-.256,6.353,6.353,0,1,1,5.228-11.438h0a6.346,6.346,0,0,1-1.979,11.522,6.507,6.507,0,0,1-.737.13,6.221,6.221,0,0,1-.738.043Zm.028-12.043a5.652,5.652,0,1,0,3.064.908,5.726,5.726,0,0,0-1.478-.678,5.572,5.572,0,0,0-1.583-.229Z" transform="translate(-4129.289 -6123.984)" fill="#24313e"></path></g><g transform="translate(39.424 0)"><g transform="translate(0.333 0.332)"><path d="M4116.413,5922.573a1.461,1.461,0,0,0-1.865.276l-.8.9-.8.905a1.47,1.47,0,0,1-1.14.493l-3.423-.1-3.423-.1a1.463,1.463,0,0,1-1.1-.554l-.735-.922-.734-.922a1.457,1.457,0,0,0-1.851-.368l-.96.532-.959.531a1.459,1.459,0,0,0-.672,1.761l.4,1.161.4,1.16a1.487,1.487,0,0,1,.073.646,1.45,1.45,0,0,1-.21.61l-1.718,2.783-1.718,2.782a1.473,1.473,0,0,1-.441.454,1.436,1.436,0,0,1-.593.225l-1.183.172-1.183.171a1.452,1.452,0,0,0-1.25,1.409l-.028,1.1-.028,1.1a1.463,1.463,0,0,0,1.181,1.474l1.192.231,1.192.232a1.464,1.464,0,0,1,1.008.742l1.547,2.875,1.546,2.875a1.455,1.455,0,0,1,.173.615,1.414,1.414,0,0,1-.106.629l-.456,1.121-.455,1.122a1.461,1.461,0,0,0,.583,1.793l.932.577.931.578a1.46,1.46,0,0,0,1.866-.277l.8-.9.8-.9a1.451,1.451,0,0,1,1.139-.493l3.422.1,3.421.1a1.484,1.484,0,0,1,.611.153,1.461,1.461,0,0,1,.49.4l.734.924.733.924a1.465,1.465,0,0,0,1.855.368l.96-.531.961-.533a1.46,1.46,0,0,0,.67-1.763l-.4-1.16-.4-1.16a1.45,1.45,0,0,1-.074-.641,1.471,1.471,0,0,1,.208-.609l1.717-2.782,1.719-2.782a1.46,1.46,0,0,1,1.034-.679l1.184-.171,1.184-.172a1.46,1.46,0,0,0,1.254-1.409l.027-1.1.027-1.1a1.463,1.463,0,0,0-1.182-1.472l-1.192-.232-1.192-.231a1.463,1.463,0,0,1-1.008-.743l-1.546-2.876-1.546-2.876a1.462,1.462,0,0,1-.067-1.243l.456-1.122.456-1.122a1.459,1.459,0,0,0-.584-1.793l-.932-.577Zm-5.068,10.472a6.019,6.019,0,1,1-4.644-.8,6.02,6.02,0,0,1,4.644.8Z" transform="translate(-4090.484 -5922.003)" fill="#9caab8"></path></g><path d="M4113.243,5952.867a1.791,1.791,0,0,1-1.4-.678l-.734-.924-.735-.924a1.137,1.137,0,0,0-.85-.423l-3.421-.1-3.422-.1a1.122,1.122,0,0,0-.88.38l-.8.9-.8.9a1.79,1.79,0,0,1-2.291.34l-.931-.578-.932-.577a1.788,1.788,0,0,1-.716-2.2l.456-1.121.455-1.12a1.116,1.116,0,0,0-.052-.959l-1.546-2.876-1.547-2.876a1.123,1.123,0,0,0-.778-.572l-1.192-.232-1.192-.232a1.789,1.789,0,0,1-1.452-1.811l.028-1.1.028-1.1a1.787,1.787,0,0,1,1.532-1.73l1.183-.171,1.183-.172a1.1,1.1,0,0,0,.457-.173,1.133,1.133,0,0,0,.342-.352l1.719-2.782,1.717-2.782a1.125,1.125,0,0,0,.1-.967l-.4-1.161-.4-1.16a1.791,1.791,0,0,1,.826-2.162l.959-.531.96-.531a1.784,1.784,0,0,1,2.272.45l.735.923.735.923a1.135,1.135,0,0,0,.377.308,1.107,1.107,0,0,0,.47.117l3.425.1,3.423.1a1.127,1.127,0,0,0,.88-.381l.8-.9.8-.9a1.788,1.788,0,0,1,2.291-.341l.932.577.931.576a1.79,1.79,0,0,1,.717,2.2l-.457,1.121-.456,1.122a1.136,1.136,0,0,0-.081.483,1.116,1.116,0,0,0,.134.473l1.546,2.877,1.545,2.877a1.132,1.132,0,0,0,.778.573l1.192.231,1.192.232a1.789,1.789,0,0,1,1.452,1.807l-.027,1.1-.028,1.1a1.786,1.786,0,0,1-1.54,1.731l-1.183.172-1.183.171a1.131,1.131,0,0,0-.8.524l-1.718,2.782-1.718,2.782a1.16,1.16,0,0,0-.162.472,1.11,1.11,0,0,0,.058.492l.4,1.16.4,1.161a1.791,1.791,0,0,1-.823,2.165l-.961.532-.96.532a1.825,1.825,0,0,1-.428.171A1.8,1.8,0,0,1,4113.243,5952.867Zm-10.6-3.814h.058l3.422.1,3.421.1a1.817,1.817,0,0,1,.753.188,1.789,1.789,0,0,1,.6.484l.734.923.734.924a1.129,1.129,0,0,0,1.43.284l.96-.532.961-.533a1.125,1.125,0,0,0,.517-1.36l-.4-1.16-.4-1.16a1.768,1.768,0,0,1-.093-.782,1.831,1.831,0,0,1,.256-.752l1.718-2.784,1.718-2.783a1.8,1.8,0,0,1,1.27-.833l1.184-.172,1.184-.172a1.128,1.128,0,0,0,.968-1.087l.027-1.1.027-1.1a1.124,1.124,0,0,0-.913-1.136l-1.192-.232-1.192-.231a1.8,1.8,0,0,1-1.239-.912l-1.544-2.877-1.546-2.877a1.788,1.788,0,0,1-.081-1.524l.456-1.122.457-1.123a1.122,1.122,0,0,0-.45-1.383l-.932-.577-.932-.576a1.131,1.131,0,0,0-1.44.214l-.8.905-.8.9a1.806,1.806,0,0,1-1.4.606l-3.423-.1-3.423-.1a1.787,1.787,0,0,1-1.352-.677l-.734-.923-.735-.923a1.122,1.122,0,0,0-1.427-.283l-.96.531-.961.532a1.129,1.129,0,0,0-.519,1.359l.4,1.16.4,1.16a1.788,1.788,0,0,1-.167,1.537l-1.719,2.782-1.719,2.782a1.784,1.784,0,0,1-1.27.833l-1.183.172-1.183.172a1.122,1.122,0,0,0-.968,1.086l-.028,1.1-.028,1.1a1.123,1.123,0,0,0,.911,1.138l1.192.231,1.192.232a1.8,1.8,0,0,1,1.238.913l1.546,2.875,1.546,2.875a1.775,1.775,0,0,1,.081,1.533l-.456,1.12-.455,1.119a1.125,1.125,0,0,0,.451,1.385l.931.578.931.577a1.125,1.125,0,0,0,1.439-.214l.8-.9.8-.905a1.772,1.772,0,0,1,1.342-.606Zm3.763-6.268a6.237,6.237,0,0,1-1.774-.257,6.355,6.355,0,1,1,5.227-11.438h0a6.347,6.347,0,0,1-1.979,11.521,6.518,6.518,0,0,1-.738.131,6.409,6.409,0,0,1-.737.043Zm.029-12.043a5.55,5.55,0,0,0-.662.039,5.864,5.864,0,0,0-.662.117,5.649,5.649,0,1,0,4.388.751,5.792,5.792,0,0,0-1.478-.678,5.576,5.576,0,0,0-1.584-.229Z" transform="translate(-4088.485 -5919.996)" fill="#24313e"></path></g></g></g></g><g transform="translate(110.233 127.691)"><path d="M3750.343,6204.184H3724.5v-54.618h25.845Z" transform="translate(-3724.159 -6149.225)" fill="#455666"></path><path d="M3749,6202.844h-26.512v-55.285H3749Zm-25.845-.667h25.179v-53.951h-25.179Z" transform="translate(-3722.491 -6147.559)" fill="#24313e"></path></g><g transform="translate(144.193 97.959)"><g transform="translate(0.001 82.837)"><path d="M3926.91,6467.17h-.667v-1h.667Z" transform="translate(-3926.243 -6466.17)" fill="#24313e"></path></g><g transform="translate(0 3.561)"><path d="M3926.91,6067.834h-.667v-1.982h.667Zm0-3.965h-.667v-1.979h.667v1.982Zm0-3.964h-.667v-1.982h.667Zm0-3.964h-.667v-1.982h.667Zm0-3.964h-.667v-1.982h.667Zm0-3.964h-.667v-1.981h.667Zm0-3.964h-.667v-1.981h.667Zm0-3.963h-.667V6038.1h.667Zm0-3.964h-.667v-1.982h.667Zm0-3.964h-.667v-1.982h.667Zm0-3.964h-.667v-1.982h.667Zm0-3.964h-.667v-1.982h.667Zm0-3.964h-.667v-1.981h.667Zm0-3.963h-.667v-1.982h.667Zm0-3.964h-.667v-1.982h.667Zm0-3.964h-.667v-1.982h.667Zm0-3.964h-.667v-1.982h.667Zm0-3.964h-.667v-1.982h.667Zm0-3.964h-.667V5994.5h.667Zm0-3.964h-.667v-1.981h.667Z" transform="translate(-3926.243 -5990.534)" fill="#24313e"></path></g><g transform="translate(0.001 0.245)"><path d="M3926.91,5971.96h-.667v-1.332h1.332v.667h-.667v.668Z" transform="translate(-3926.243 -5970.628)" fill="#24313e"></path></g><g transform="translate(3.369 0.004)"><path d="M3946.42,5970.094v-.666h2.03v.667h-2.03Zm4.058-.011v-.667h2.029v.666h-2.029Zm4.058-.011v-.668h2.03v.667h-2.03Zm4.058-.012v-.667h2.03v.667h-2.03Zm4.059-.012v-.666h2.029v.667h-2.029Zm4.058-.011v-.667h2.029v.667h-2.029Zm4.058-.012v-.667h2.03v.667h-2.03Zm4.058-.011v-.667h2.029v.667h-2.029Zm4.058-.012v-.667h2.03V5970h-2.03Zm4.059-.011v-.667h2.029v.667h-2.029Zm4.058-.012v-.667h2.03v.667H3987Zm4.058-.012v-.667h2.029v.667h-2.029Zm4.058-.011v-.667h2.029v.666h-2.029Zm4.058-.011v-.667h2.03v.667h-2.03Zm4.058-.012v-.667h2.029v.667h-2.029Zm4.058-.011v-.667h2.03v.667h-2.03Zm4.058-.012v-.667h2.03v.667h-2.03Zm4.059-.011v-.667h2.03v.667h-2.03Zm4.058-.011v-.667h2.029v.667h-2.029Zm4.058-.012v-.667h2.03v.667h-2.03Zm4.058-.011v-.667h2.03v.667h-2.03Z" transform="translate(-3946.42 -5969.196)" fill="#24313e"></path></g><g transform="translate(88.59 0)"><path d="M4459.051,5970.479h-.667v-.666h-.666v-.667h1.334v1.335Z" transform="translate(-4457.718 -5969.146)" fill="#24313e"></path></g><g transform="translate(89.257 3.308)"><path d="M4462.39,6066.334h-.667v-1.981h.667Zm0-3.964h-.667v-1.98h.667v1.982Zm0-3.964h-.667v-1.982h.667Zm0-3.965h-.667v-1.982h.667Zm0-3.964h-.667V6048.5h.667Zm0-3.965h-.667v-1.981h.667Zm0-3.964h-.667v-1.981h.667Zm0-3.963h-.667V6036.6h.667Zm0-3.965h-.667v-1.979h.667v1.982Zm0-3.965h-.667v-1.981h.667Zm0-3.964h-.667v-1.982h.667Zm0-3.965h-.667v-1.982h.667Zm0-3.964h-.667v-1.982h.667Zm0-3.964h-.667v-1.981h.667Zm0-3.965h-.667v-1.981h.667Zm0-3.963h-.667V6004.9h.667v1.982Zm0-3.965h-.667v-1.981h.667Zm0-3.964h-.667v-1.983h.667Zm0-3.965h-.667V5993h.667Zm0-3.964h-.667v-1.981h.667Z" transform="translate(-4461.724 -5989.033)" fill="#24313e"></path></g><g transform="translate(89.257 82.592)"><path d="M4462.39,6465.68h-.667v-1h.667Z" transform="translate(-4461.724 -6464.68)" fill="#24313e"></path></g></g><g transform="translate(107.146 98.927)"><g transform="translate(0 81.869)"><path d="M3704.62,6467.17h-.667v-1h.667Z" transform="translate(-3703.953 -6466.17)" fill="#24313e"></path></g><g transform="translate(0 3.554)"><path d="M3704.62,6072.628h-.667v-1.959h.667Zm0-3.916h-.667v-1.959h.667Zm0-3.916h-.667v-1.96h.667v1.958Zm0-3.916h-.667v-1.959h.667Zm0-3.916h-.667V6055h.667Zm0-3.917h-.667v-1.959h.667Zm0-3.915h-.667v-1.96h.667Zm0-3.917h-.667v-1.956h.667Zm0-3.916h-.667v-1.958h.667Zm0-3.917h-.667v-1.957h.667Zm0-3.916h-.667v-1.957h.667Zm0-3.915h-.667v-1.962h.667v1.958Zm0-3.916h-.667v-1.959h.667Zm0-3.916h-.667v-1.958h.667Zm0-3.916h-.667v-1.959h.667Zm0-3.916h-.667v-1.959h.667Zm0-3.916h-.667v-1.959h.667Zm0-3.917h-.667v-1.959h.667Zm0-3.916h-.667v-1.957h.667Zm0-3.916h-.667v-1.959h.667Z" transform="translate(-3703.953 -5996.263)" fill="#24313e"></path></g><g transform="translate(0 0.251)"><path d="M3704.62,5977.808h-.667v-1.331l.666,0,.665-.005v.668h-.669v.669Z" transform="translate(-3703.953 -5976.467)" fill="#24313e"></path></g><g transform="translate(3.41 0.029)"><path d="M3724.39,5976.031v-.667l1.037-.008,1.037-.008v.667l-1.037.008Zm4.149-.031v-.667l1.037-.007,1.037-.008v.668l-1.037.007Zm4.148-.031v-.667l1.037-.007,1.037-.008v.667l-1.037.008Zm4.149-.03v-.668l1.037-.008,1.037-.007v.666l-1.037.008Zm4.149-.032v-.666l1.038-.008,1.037-.007v.667l-1.037.007Zm4.148-.03v-.667l1.037-.008,1.037-.008v.667l-1.037.008Zm4.149-.031v-.667l1.037-.008,1.037-.007v.666l-1.037.008Z" transform="translate(-3724.39 -5975.163)" fill="#24313e"></path></g><g transform="translate(32.448 0)"><path d="M3899.95,5976.348h-.667v-.665h-.665v-.667l.668,0,.668,0v1.336Z" transform="translate(-3898.619 -5975.008)" fill="#24313e"></path></g><g transform="translate(33.117 3.308)"><path d="M3903.3,6071.149h-.666v-1.959h.666Zm0-3.916h-.666v-1.959h.666Zm0-3.917h-.666v-1.958h.666Zm0-3.916h-.666v-1.958h.666Zm0-3.916h-.666v-1.958h.666Zm0-3.916h-.666v-1.957h.666Zm0-3.916h-.666v-1.959h.666v1.958Zm0-3.915h-.666v-1.958h.666Zm0-3.917h-.666v-1.958h.666Zm0-3.916h-.666v-1.958h.666Zm0-3.917h-.666v-1.958h.666Zm0-3.916h-.666v-1.958h.666Zm0-3.916h-.666V6022.2h.666Zm0-3.916h-.666v-1.958h.666Zm0-3.916h-.666v-1.958h.666Zm0-3.916h-.666v-1.963h.666v1.958Zm0-3.916h-.666v-1.958h.666Zm0-3.916h-.666v-1.957h.666Zm0-3.916h-.666V5998.7h.666Zm0-3.916h-.666v-1.959h.666Z" transform="translate(-3902.634 -5994.786)" fill="#24313e"></path></g><g transform="translate(33.118 81.629)"><path d="M3903.3,6465.7h-.666v-1h.666Z" transform="translate(-3902.634 -6464.699)" fill="#24313e"></path></g></g><g transform="translate(170.879 67.618)"><g transform="translate(0 0)"><path d="M4124.959,5814.377h-34.6a2.058,2.058,0,0,1-2.059-2.06v-21.124a2.057,2.057,0,0,1,2.058-2.06h34.6a2.058,2.058,0,0,1,2.059,2.06v21.124a2.058,2.058,0,0,1-2.059,2.06Z" transform="translate(-4087.969 -5788.801)" fill="#28c397"></path><path d="M4123.3,5813.038h-34.6a2.4,2.4,0,0,1-2.393-2.393v-21.119a2.4,2.4,0,0,1,2.393-2.393h34.6a2.4,2.4,0,0,1,2.393,2.393v21.125a2.4,2.4,0,0,1-2.392,2.392Zm-34.6-25.246a1.728,1.728,0,0,0-1.726,1.727v21.124a1.728,1.728,0,0,0,1.726,1.727h34.6a1.728,1.728,0,0,0,1.726-1.727v-21.116a1.729,1.729,0,0,0-1.726-1.727h-34.6Z" transform="translate(-4086.303 -5787.133)" fill="#24313e"></path></g><g transform="translate(1.784 0)"><path d="M4135.659,5814.377h-34.6a2.057,2.057,0,0,1-2.06-2.06v-21.124a2.058,2.058,0,0,1,2.06-2.059h34.6a2.058,2.058,0,0,1,2.06,2.06v21.124a2.058,2.058,0,0,1-2.06,2.06Z" transform="translate(-4098.668 -5788.801)" fill="#28c397"></path><path d="M4134,5813.038h-34.6a2.4,2.4,0,0,1-2.393-2.393v-21.119a2.4,2.4,0,0,1,2.393-2.393H4134a2.4,2.4,0,0,1,2.393,2.393v21.125a2.4,2.4,0,0,1-2.392,2.392Zm-34.6-25.246a1.728,1.728,0,0,0-1.726,1.727v21.124a1.728,1.728,0,0,0,1.726,1.727H4134a1.728,1.728,0,0,0,1.726-1.727v-21.116A1.729,1.729,0,0,0,4134,5787.8h-34.6Z" transform="translate(-4097.003 -5787.133)" fill="#24313e"></path></g><g transform="translate(5.382 3.404)"><path d="M4150.244,5817.7h-27.576a2.06,2.06,0,0,1-2.06-2.06v-4.016a2.059,2.059,0,0,1,2.06-2.059h27.576a2.059,2.059,0,0,1,2.06,2.059v4.016A2.06,2.06,0,0,1,4150.244,5817.7Z" transform="translate(-4120.279 -5809.233)" fill="#3ab2d0"></path><path d="M4148.583,5816.37h-27.577a2.4,2.4,0,0,1-2.393-2.392v-4.016a2.393,2.393,0,0,1,2.393-2.392h27.575a2.4,2.4,0,0,1,2.393,2.392v4.016a2.4,2.4,0,0,1-2.393,2.392Zm-27.577-8.13a1.728,1.728,0,0,0-1.727,1.726v4.016a1.726,1.726,0,0,0,1.726,1.726h27.576a1.727,1.727,0,0,0,1.726-1.726v-4.016a1.727,1.727,0,0,0-1.726-1.726Z" transform="translate(-4118.614 -5807.569)" fill="#24313e"></path></g><g transform="translate(5.386 13.547)"><path d="M4122.764,5874.007h-.9a1.258,1.258,0,0,1-1.256-1.258v-1.085a1.258,1.258,0,0,1,1.257-1.257h.9a1.256,1.256,0,0,1,1.257,1.257v1.085a1.255,1.255,0,0,1-1.256,1.258Z" transform="translate(-4120.283 -5870.075)" fill="#f4e969"></path><path d="M4121.1,5872.677h-.9a1.593,1.593,0,0,1-1.59-1.591V5870a1.591,1.591,0,0,1,1.589-1.59h.9a1.592,1.592,0,0,1,1.59,1.59v1.085A1.593,1.593,0,0,1,4121.1,5872.677Zm-.9-3.6a.923.923,0,0,0-.924.922v1.086a.924.924,0,0,0,.924.924h.9a.922.922,0,0,0,.923-.923V5870a.923.923,0,0,0-.923-.923Z" transform="translate(-4118.618 -5868.411)" fill="#031439"></path></g><g transform="translate(9.646 13.547)"><path d="M4148.334,5874.007h-.9a1.257,1.257,0,0,1-1.257-1.258v-1.085a1.256,1.256,0,0,1,1.257-1.256h.9a1.258,1.258,0,0,1,1.256,1.257v1.085A1.257,1.257,0,0,1,4148.334,5874.007Z" transform="translate(-4145.852 -5870.076)" fill="#f4e969"></path><path d="M4146.673,5872.677h-.9a1.594,1.594,0,0,1-1.59-1.591V5870a1.593,1.593,0,0,1,1.59-1.59h.9a1.592,1.592,0,0,1,1.59,1.59v1.084A1.593,1.593,0,0,1,4146.673,5872.677Zm-.9-3.6a.924.924,0,0,0-.923.923v1.085a.924.924,0,0,0,.923.924h.9a.923.923,0,0,0,.924-.923V5870a.924.924,0,0,0-.924-.923Z" transform="translate(-4144.187 -5868.412)" fill="#031439"></path></g><g transform="translate(13.84 13.547)"><path d="M4173.514,5874.007h-.9a1.258,1.258,0,0,1-1.257-1.258v-1.085a1.258,1.258,0,0,1,1.257-1.257h.9a1.258,1.258,0,0,1,1.257,1.257v1.085A1.259,1.259,0,0,1,4173.514,5874.007Z" transform="translate(-4171.024 -5870.076)" fill="#f4e969"></path><path d="M4171.844,5872.677h-.9a1.592,1.592,0,0,1-1.59-1.591V5870a1.59,1.59,0,0,1,1.589-1.59h.9a1.592,1.592,0,0,1,1.59,1.589v1.085A1.593,1.593,0,0,1,4171.844,5872.677Zm-.9-3.6a.923.923,0,0,0-.924.923v1.085a.923.923,0,0,0,.924.923h.9a.922.922,0,0,0,.922-.923V5870a.923.923,0,0,0-.922-.923Z" transform="translate(-4169.357 -5868.412)" fill="#031439"></path></g><g transform="translate(5.386 18.489)"><path d="M4122.764,5903.657h-.9a1.254,1.254,0,0,1-1.257-1.257v-1.084a1.258,1.258,0,0,1,1.257-1.257h.9a1.255,1.255,0,0,1,1.257,1.256v1.084a1.254,1.254,0,0,1-1.256,1.257Z" transform="translate(-4120.283 -5899.728)" fill="#f4e969"></path><path d="M4121.1,5902.328h-.9a1.592,1.592,0,0,1-1.59-1.59v-1.084a1.593,1.593,0,0,1,1.59-1.591h.9a1.593,1.593,0,0,1,1.591,1.591v1.084A1.591,1.591,0,0,1,4121.1,5902.328Zm-.9-3.6a.924.924,0,0,0-.924.924v1.084a.924.924,0,0,0,.924.923h.9a.923.923,0,0,0,.923-.923v-1.084a.923.923,0,0,0-.923-.924Z" transform="translate(-4118.618 -5898.063)" fill="#031439"></path></g><g transform="translate(9.646 18.489)"><path d="M4148.334,5903.657h-.9a1.254,1.254,0,0,1-1.257-1.257v-1.084a1.257,1.257,0,0,1,1.257-1.257h.9a1.257,1.257,0,0,1,1.256,1.257v1.084a1.254,1.254,0,0,1-1.256,1.257Z" transform="translate(-4145.852 -5899.728)" fill="#f4e969"></path><path d="M4146.673,5902.327h-.9a1.592,1.592,0,0,1-1.59-1.59v-1.084a1.594,1.594,0,0,1,1.59-1.592h.9a1.592,1.592,0,0,1,1.59,1.59v1.085A1.591,1.591,0,0,1,4146.673,5902.327Zm-.9-3.6a.923.923,0,0,0-.923.924v1.084a.923.923,0,0,0,.923.924h.9a.923.923,0,0,0,.924-.923v-1.085a.923.923,0,0,0-.924-.924Z" transform="translate(-4144.187 -5898.062)" fill="#031439"></path></g><g transform="translate(13.84 18.489)"><path d="M4173.513,5903.657h-.9a1.254,1.254,0,0,1-1.257-1.257v-1.084a1.258,1.258,0,0,1,1.257-1.257h.9a1.258,1.258,0,0,1,1.257,1.257v1.084a1.254,1.254,0,0,1-1.257,1.257Z" transform="translate(-4171.023 -5899.728)" fill="#f4e969"></path><path d="M4171.844,5902.327h-.9a1.589,1.589,0,0,1-1.59-1.59v-1.084a1.592,1.592,0,0,1,1.59-1.592h.9a1.594,1.594,0,0,1,1.59,1.591v1.084A1.59,1.59,0,0,1,4171.844,5902.327Zm-.9-3.6a.924.924,0,0,0-.924.924v1.084a.922.922,0,0,0,.924.924h.9a.922.922,0,0,0,.922-.923v-1.085a.922.922,0,0,0-.922-.924Z" transform="translate(-4169.356 -5898.062)" fill="#031439"></path></g><g transform="translate(18.352 13.547)"><path d="M4200.594,5874.007h-.9a1.257,1.257,0,0,1-1.256-1.258v-1.085a1.257,1.257,0,0,1,1.256-1.256h.9a1.258,1.258,0,0,1,1.257,1.258v1.084a1.257,1.257,0,0,1-1.257,1.258Z" transform="translate(-4198.104 -5870.076)" fill="#f4e969"></path><path d="M4198.923,5872.677h-.9a1.592,1.592,0,0,1-1.59-1.591V5870a1.591,1.591,0,0,1,1.59-1.59h.9a1.592,1.592,0,0,1,1.59,1.59v1.084A1.592,1.592,0,0,1,4198.923,5872.677Zm-.9-3.6a.925.925,0,0,0-.924.922v1.085a.925.925,0,0,0,.924.924h.9a.923.923,0,0,0,.923-.923V5870a.924.924,0,0,0-.923-.923Z" transform="translate(-4196.437 -5868.412)" fill="#031439"></path></g><g transform="translate(18.353 18.489)"><path d="M4200.594,5903.657h-.9a1.254,1.254,0,0,1-1.256-1.257v-1.084a1.257,1.257,0,0,1,1.256-1.257h.9a1.257,1.257,0,0,1,1.257,1.257v1.084a1.255,1.255,0,0,1-1.257,1.257Z" transform="translate(-4198.105 -5899.728)" fill="#f4e969"></path><path d="M4198.923,5902.327h-.9a1.59,1.59,0,0,1-1.59-1.59v-1.084a1.592,1.592,0,0,1,1.589-1.592h.9a1.592,1.592,0,0,1,1.59,1.59v1.085A1.59,1.59,0,0,1,4198.923,5902.327Zm-.9-3.6a.924.924,0,0,0-.924.924v1.084a.925.925,0,0,0,.924.924h.9a.923.923,0,0,0,.923-.923v-1.085a.922.922,0,0,0-.923-.924Z" transform="translate(-4196.437 -5898.062)" fill="#031439"></path></g><g transform="translate(22.737 13.547)"><path d="M4226.894,5874.007h-.9a1.256,1.256,0,0,1-1.256-1.258v-1.084a1.256,1.256,0,0,1,1.256-1.257h.9a1.258,1.258,0,0,1,1.257,1.257v1.084a1.257,1.257,0,0,1-1.257,1.258Z" transform="translate(-4224.405 -5870.076)" fill="#f4e969"></path><path d="M4225.223,5872.677h-.9a1.591,1.591,0,0,1-1.59-1.591V5870a1.59,1.59,0,0,1,1.59-1.59h.9a1.591,1.591,0,0,1,1.591,1.59v1.084A1.593,1.593,0,0,1,4225.223,5872.677Zm-.9-3.6a.924.924,0,0,0-.924.923v1.085a.924.924,0,0,0,.924.924h.9a.923.923,0,0,0,.923-.923V5870a.923.923,0,0,0-.923-.923Z" transform="translate(-4222.737 -5868.412)" fill="#031439"></path></g><g transform="translate(22.737 18.489)"><path d="M4226.894,5903.657h-.9a1.254,1.254,0,0,1-1.257-1.257v-1.084a1.256,1.256,0,0,1,1.256-1.258h.9a1.257,1.257,0,0,1,1.257,1.257v1.084a1.254,1.254,0,0,1-1.257,1.257Z" transform="translate(-4224.405 -5899.727)" fill="#f4e969"></path><path d="M4225.223,5902.327h-.9a1.59,1.59,0,0,1-1.59-1.59v-1.084a1.592,1.592,0,0,1,1.59-1.592h.9a1.592,1.592,0,0,1,1.59,1.59v1.085A1.591,1.591,0,0,1,4225.223,5902.327Zm-.9-3.6a.924.924,0,0,0-.924.924v1.084a.923.923,0,0,0,.924.924h.9a.923.923,0,0,0,.923-.923v-1.085a.922.922,0,0,0-.923-.924Z" transform="translate(-4222.737 -5898.062)" fill="#031439"></path></g><g transform="translate(31.165 13.219)"><path d="M4279.228,5877.753h-1.869a2.058,2.058,0,0,1-2.059-2.059v-5.168a2.059,2.059,0,0,1,2.059-2.06h1.869a2.059,2.059,0,0,1,2.059,2.06v5.168a2.059,2.059,0,0,1-2.06,2.059Z" transform="translate(-4274.964 -5868.128)" fill="#3ab2d0"></path><path d="M4277.559,5876.413h-1.868a2.393,2.393,0,0,1-2.392-2.392v-5.168a2.4,2.4,0,0,1,2.393-2.392h1.868a2.393,2.393,0,0,1,2.392,2.392v5.168A2.393,2.393,0,0,1,4277.559,5876.413Zm-1.868-9.286a1.729,1.729,0,0,0-1.727,1.726v5.168a1.727,1.727,0,0,0,1.727,1.727h1.868a1.727,1.727,0,0,0,1.726-1.727v-5.167a1.728,1.728,0,0,0-1.726-1.726Z" transform="translate(-4273.298 -5866.461)" fill="#24313e"></path></g></g><g transform="translate(69.045 135.096)"><g transform="translate(0 0)"><path d="M3531.062,6201.274h-53.7v-4.334a2.984,2.984,0,0,1,2.984-2.984h47.74a2.984,2.984,0,0,1,2.984,2.984v4.334Z" transform="translate(-3477.029 -6193.627)" fill="#9caab8"></path><path d="M3529.733,6199.945h-54.37v-4.667a3.319,3.319,0,0,1,3.315-3.315h47.74a3.319,3.319,0,0,1,3.315,3.315v4.667Zm-53.7-.667h53.037v-4a2.651,2.651,0,0,0-2.649-2.649h-47.74a2.652,2.652,0,0,0-2.649,2.649Z" transform="translate(-3475.363 -6191.963)" fill="#24313e"></path></g><g transform="translate(12.058 0)"><path d="M3602.04,6201.274H3549.7v-4.334a2.984,2.984,0,0,1,2.984-2.984h46.379a2.984,2.984,0,0,1,2.984,2.984v4.334Z" transform="translate(-3549.367 -6193.627)" fill="#e7e9f2"></path><path d="M3600.709,6199.945H3547.7v-4.667a3.32,3.32,0,0,1,3.315-3.315h46.379a3.319,3.319,0,0,1,3.315,3.315v4.667Zm-52.34-.667h51.673v-4a2.651,2.651,0,0,0-2.648-2.65h-46.379a2.649,2.649,0,0,0-2.648,2.648v4Z" transform="translate(-3547.7 -6191.962)" fill="#24313e"></path></g><g transform="translate(3.644 7.466)"><path d="M3545.827,6278.343h-43.995a2.6,2.6,0,0,1-2.6-2.6v-36.964h49.2v36.96a2.6,2.6,0,0,1-2.6,2.6Z" transform="translate(-3498.894 -6238.441)" fill="#9caab8"></path><path d="M3544.157,6277h-43.995a2.938,2.938,0,0,1-2.936-2.935v-37.3h49.864v37.3a2.939,2.939,0,0,1-2.936,2.935Zm-46.263-39.562v36.629a2.27,2.27,0,0,0,2.268,2.268h43.995a2.269,2.269,0,0,0,2.269-2.268V6237.44Z" transform="translate(-3497.227 -6236.772)" fill="#24313e"></path><g transform="translate(8.502 0)"><path d="M3596.837,6278.343h-43.995a2.6,2.6,0,0,1-2.6-2.6v-36.963h49.2v36.96a2.6,2.6,0,0,1-2.6,2.6Z" transform="translate(-3549.908 -6238.441)" fill="#e7e9f2"></path><path d="M3595.167,6277h-43.992a2.938,2.938,0,0,1-2.935-2.935v-37.3h49.865v37.3a2.938,2.938,0,0,1-2.935,2.935ZM3548.9,6237.44v36.629a2.271,2.271,0,0,0,2.269,2.268h43.994a2.27,2.27,0,0,0,2.269-2.268V6237.44h-48.532Z" transform="translate(-3548.241 -6236.772)" fill="#24313e"></path></g></g><g transform="translate(16.471 11.573)"><path d="M3614.2,6273.537l-18.351,2.017-18.352,2.016-.546-4.969-.546-4.969,18.351-2.017,18.352-2.017.546,4.969Z" transform="translate(-3576.036 -6263.234)" fill="#e7e9f2"></path><path d="M3575.361,6276.1l-.581-5.3-.582-5.3.166-.019.166-.018,18.517-2.031,18.518-2.031.582,5.3.581,5.3-.165.018-.166.019-18.516,2.029Zm-.428-10.011.509,4.638.51,4.637,18.02-1.977,18.021-1.978-.51-4.638-.51-4.637-18.02,1.977Z" transform="translate(-3574.197 -6261.397)" fill="#24313e"></path></g><g transform="translate(17.979 11.408)"><path d="M3623.228,6272.547l-18.352,2.017-18.351,2.016-.546-4.969-.545-4.968,18.351-2.017,18.352-2.017.546,4.969Z" transform="translate(-3585.065 -6262.244)" fill="#e7e9f2"></path><path d="M3584.391,6275.1l-.582-5.3-.582-5.3.166-.019.165-.018,18.517-2.032,18.517-2.031.581,5.3.583,5.3-.166.018-.166.019-18.517,2.032Zm-.428-10.01.51,4.638.509,4.637,18.02-1.977,18.02-1.979-.509-4.637-.51-4.638-18.02,1.978Z" transform="translate(-3583.227 -6260.405)" fill="#24313e"></path></g></g></g></g></svg>