<svg xmlns="http://www.w3.org/2000/svg" id="Group_1832" data-name="Group 1832" width="134.469" height="41.916" viewBox="0 0 134.469 41.916"><path id="Path_9690" data-name="Path 9690" d="M398.074,231.018c0,2.378-.051,4.289.018,6.2a6.409,6.409,0,0,1-.916,3.448,10.012,10.012,0,0,1-6.672,5.083,13.346,13.346,0,0,1-4.016.16c-.247-.017-.275-.128-.177-.322.081-.16.158-.32.238-.479.67-1.339,1.351-2.672,2-4.019a.936.936,0,0,1,.741-.556,4.78,4.78,0,0,0,2.926-1.85,1.111,1.111,0,0,0,.239-.722c-.008-.989-.017-1.978,0-2.966.008-.4-.105-.381-.408-.23a11.127,11.127,0,0,1-16.254-9.283,11.079,11.079,0,0,1,10.662-11.67,11.134,11.134,0,0,1,11.543,10.312C398.173,226.573,398.016,229.032,398.074,231.018Zm-11.214-.791a5.333,5.333,0,1,0-5.323-5.307A5.306,5.306,0,0,0,386.86,230.228Z" transform="translate(-287.996 -204.064)" fill="#fff"></path><path id="Path_9691" data-name="Path 9691" d="M354.452,231.218c0,1.977-.052,3.957.018,5.931a6.547,6.547,0,0,1-.934,3.527,9.916,9.916,0,0,1-7.243,5.175,14.553,14.553,0,0,1-3.449.052c-.262-.017-.252-.152-.161-.333l.569-1.142c.559-1.118,1.129-2.23,1.671-3.356a.886.886,0,0,1,.708-.537,4.686,4.686,0,0,0,2.985-1.894,1.019,1.019,0,0,0,.218-.646c-.005-.989,0-1.977,0-2.967,0-.416-.041-.442-.425-.243a10.9,10.9,0,0,1-5.069,1.237,11.117,11.117,0,0,1-7.625-19.24,10.607,10.607,0,0,1,7.261-2.978,10.84,10.84,0,0,1,8.336,3.378,10.663,10.663,0,0,1,3.139,7.609C354.464,226.933,354.452,229.075,354.452,231.218Zm-11.185-.989a5.333,5.333,0,1,0-5.312-5.352A5.309,5.309,0,0,0,343.267,230.228Z" transform="translate(-276.021 -204.065)" fill="#fff"></path><path id="Path_9692" data-name="Path 9692" d="M321.032,209.57c0,.989-.007,1.977,0,2.966.021,2.883.055,5.766.069,8.648a11.234,11.234,0,0,1-7.217,10.6,10.933,10.933,0,0,1-11.435-1.908,10.76,10.76,0,0,1-3.961-7.567,11.322,11.322,0,0,1,16.376-11.171c.437.222.445.218.441-.26q-.035-4.88-.075-9.761c0-.123.009-.247,0-.371-.03-.358.118-.419.442-.317,1.375.433,2.758.843,4.134,1.274,1.13.354,1.092.364,1.153,1.53C321.07,205.342,320.977,207.456,321.032,209.57Zm-11.3,17.125a5.477,5.477,0,0,0,5.48-5.438,5.449,5.449,0,1,0-5.48,5.438Z" transform="translate(-266.752 -200.379)" fill="#fff"></path><path id="Path_9693" data-name="Path 9693" d="M277.374,212.04c0,.962-.007,1.923,0,2.885.02,2.031.07,4.063.067,6.094a11.353,11.353,0,0,1-18.292,9.178,11.074,11.074,0,0,1-4.375-9.7,11.328,11.328,0,0,1,16.494-9.329c.242.122.421.2.376-.2a32.56,32.56,0,0,1-.058-3.334c-.022-2.252-.014-4.5-.017-6.757,0-.559.021-.574.555-.409,1.588.488,3.173.988,4.767,1.46a.472.472,0,0,1,.4.556c-.016.315,0,.632,0,.947C277.3,206.3,277.422,209.171,277.374,212.04Zm-11.329,14.654a5.413,5.413,0,0,0,5.488-5.42,5.344,5.344,0,0,0-5.416-5.478,5.4,5.4,0,0,0-5.479,5.469A5.492,5.492,0,0,0,266.045,226.694Z" transform="translate(-254.756 -200.378)" fill="#fff"></path><path id="Path_9694" data-name="Path 9694" d="M420.243,236.21a11.29,11.29,0,1,1,11.348-11.162A11.273,11.273,0,0,1,420.243,236.21Zm.076-17.418a6.141,6.141,0,1,0,6.125,6.132A6.077,6.077,0,0,0,420.319,218.791Z" transform="translate(-297.123 -204.018)" fill="#fff"></path><path id="Path_9695" data-name="Path 9695" d="M294.494,224.715q0,5.189,0,10.377c0,.573-.008.582-.569.582q-2.533,0-5.067,0c-.551,0-.566-.014-.566-.543q0-9.533-.009-19.066a.6.6,0,0,1,.522-.683c1.747-.479,3.486-.989,5.229-1.481.452-.128.458-.119.459.355Q294.5,219.486,294.494,224.715Z" transform="translate(-263.965 -204.073)" fill="#fff"></path><path id="Path_9696" data-name="Path 9696" d="M371.78,224.784q0,5.147,0,10.294c0,.6,0,.606-.587.606q-2.533,0-5.066,0c-.535,0-.548-.015-.548-.561q0-9.533-.007-19.065c0-.352.086-.549.454-.65,1.707-.47,3.407-.965,5.109-1.452.619-.177.645-.157.645.493Q371.781,219.616,371.78,224.784Z" transform="translate(-285.193 -204.081)" fill="#fff"></path><path id="Path_9697" data-name="Path 9697" d="M367.98,203.475a2.926,2.926,0,0,1,2.9,2.96,3,3,0,0,1-2.99,2.9,2.942,2.942,0,0,1-2.88-2.989A2.882,2.882,0,0,1,367.98,203.475Z" transform="translate(-285.039 -201.229)" fill="#fff"></path><path id="Path_9698" data-name="Path 9698" d="M291.247,203.478a2.908,2.908,0,0,1,2.887,2.926,2.967,2.967,0,0,1-2.95,2.933,2.915,2.915,0,0,1-2.9-2.993A2.87,2.87,0,0,1,291.247,203.478Z" transform="translate(-263.964 -201.229)" fill="#fff"></path></svg>