<svg xmlns="http://www.w3.org/2000/svg" width="96.563" height="78.49" viewBox="0 0 96.563 78.49"><g transform="translate(-402 -731.755)"><g transform="translate(-17 590)"><path d="M16.351,56.035a9.612,9.612,0,0,0-2.076-6.593,7.453,7.453,0,0,0-5.844-2.326A8.044,8.044,0,0,0,4.09,48.291a7.8,7.8,0,0,0-3.006,3.284A10.06,10.06,0,0,0,.011,56.346v.5a8.5,8.5,0,0,0,2.457,6.4,8.76,8.76,0,0,0,6.416,2.4,9.512,9.512,0,0,0,4.175-.863,7.6,7.6,0,0,0,2.982-2.493L13.8,60.23a5.7,5.7,0,0,1-4.675,2.23,4.762,4.762,0,0,1-3.387-1.295,5.231,5.231,0,0,1-1.527-3.5H16.351Zm-4.127-1.319H4.28a5.937,5.937,0,0,1,1.36-3.237,3.578,3.578,0,0,1,2.767-1.15,3.691,3.691,0,0,1,2.72,1.03,4.774,4.774,0,0,1,1.1,3.045Z" transform="translate(419 141.755)" fill="#ebf0f5"></path><path d="M29.71,60.469a1.793,1.793,0,0,0-.92-1.634,9.983,9.983,0,0,0-3.049-.993,16.027,16.027,0,0,1-3.559-1.094q-3.114-1.455-3.117-4.219a4.7,4.7,0,0,1,2.029-3.867,8.23,8.23,0,0,1,5.151-1.556,8.532,8.532,0,0,1,5.382,1.588,4.962,4.962,0,0,1,2.049,4.115h-4.17a2.448,2.448,0,0,0-.893-1.927,3.494,3.494,0,0,0-2.366-.768,3.779,3.779,0,0,0-2.238.612,1.912,1.912,0,0,0-.865,1.635,1.622,1.622,0,0,0,.805,1.443,11.655,11.655,0,0,0,3.258,1.036,16,16,0,0,1,3.854,1.236A5.438,5.438,0,0,1,33.136,57.8a4.279,4.279,0,0,1,.677,2.448,4.6,4.6,0,0,1-2.076,3.906,9.115,9.115,0,0,1-5.443,1.5,9.954,9.954,0,0,1-4.07-.795,6.637,6.637,0,0,1-2.779-2.181,5.038,5.038,0,0,1-.994-3H22.5a2.762,2.762,0,0,0,1.116,2.188,4.5,4.5,0,0,0,2.731.768,4.352,4.352,0,0,0,2.509-.6,1.8,1.8,0,0,0,.853-1.565" transform="translate(419 141.755)" fill="#ebf0f5"></path><path d="M44.795,62.455a3.837,3.837,0,0,0,2.589-.879,2.928,2.928,0,0,0,1.1-2.164h3.928a5.761,5.761,0,0,1-1.082,3.118,7.069,7.069,0,0,1-2.744,2.292,8.462,8.462,0,0,1-3.747.84,8.072,8.072,0,0,1-6.182-2.429,9.408,9.408,0,0,1-2.285-6.712V56.11a9.258,9.258,0,0,1,2.265-6.537,8,8,0,0,1,6.182-2.454,7.8,7.8,0,0,1,5.4,1.862,6.548,6.548,0,0,1,2.19,4.883H48.478a3.628,3.628,0,0,0-1.088-2.525,3.572,3.572,0,0,0-2.6-.993,3.716,3.716,0,0,0-3.124,1.413,7.029,7.029,0,0,0-1.116,4.291v.645a7.158,7.158,0,0,0,1.089,4.343,3.786,3.786,0,0,0,3.159,1.417" transform="translate(419 141.755)" fill="#ebf0f5"></path><path d="M69.951,61.19V53.135a5.591,5.591,0,0,0-2-4.436,7.888,7.888,0,0,0-5.2-1.582,9.835,9.835,0,0,0-3.888.719,6.786,6.786,0,0,0-2.743,2.014,4.2,4.2,0,0,0-1.026,2.757h4.175a2.143,2.143,0,0,1,.906-1.75,3.843,3.843,0,0,1,2.338-.695A3.389,3.389,0,0,1,64.966,51a3.09,3.09,0,0,1,.787,2.23V54.4H63.2a10.875,10.875,0,0,0-6.3,1.535,5.017,5.017,0,0,0-2.195,4.387,4.865,4.865,0,0,0,1.766,3.812,6.9,6.9,0,0,0,4.556,1.534A6.57,6.57,0,0,0,65.9,63.66a6.773,6.773,0,0,0,.477,1.678h4.27V65.05a8.606,8.606,0,0,1-.692-3.86m-4.2-.887a3.78,3.78,0,0,1-1.622,1.558,4.96,4.96,0,0,1-2.338.576,3.219,3.219,0,0,1-2.123-.671,2.336,2.336,0,0,1-.811-1.847,2.508,2.508,0,0,1,1.169-2.2,6.255,6.255,0,0,1,3.483-.767h2.242Z" transform="translate(419 141.755)" fill="#ebf0f5"></path><path d="M93.352,60.878V52.8a5.584,5.584,0,0,0-2-4.436,8.023,8.023,0,0,0-5.2-1.582,10.3,10.3,0,0,0-3.888.743,6.52,6.52,0,0,0-2.743,1.99,4.244,4.244,0,0,0-1.026,2.757h4.175a2.141,2.141,0,0,1,.906-1.75,3.708,3.708,0,0,1,2.338-.671,3.286,3.286,0,0,1,2.457.839,3.12,3.12,0,0,1,.811,2.205v1.175H86.626A11.149,11.149,0,0,0,80.3,55.6a5.012,5.012,0,0,0-2.194,4.387A4.862,4.862,0,0,0,79.875,63.8a7.244,7.244,0,0,0,9.446-.456A5.755,5.755,0,0,0,89.8,65h4.246v-.288a9.208,9.208,0,0,1-.692-3.836m-4.174-.911a3.977,3.977,0,0,1-1.646,1.558,4.891,4.891,0,0,1-2.338.576,3.09,3.09,0,0,1-2.123-.672,2.332,2.332,0,0,1-.811-1.846,2.508,2.508,0,0,1,1.169-2.205,6.309,6.309,0,0,1,3.483-.768h2.266Z" transform="translate(419 141.755)" fill="#ebf0f5"></path><path d="M68.729,78.482H60.467V77.129l4.09-4.3a10.061,10.061,0,0,0,1.265-1.59A2.506,2.506,0,0,0,66.2,69.96a1.9,1.9,0,0,0-.493-1.368,1.757,1.757,0,0,0-1.332-.52,2.008,2.008,0,0,0-1.542.585,2.254,2.254,0,0,0-.548,1.6H60.237a3.723,3.723,0,0,1,.514-1.946,3.456,3.456,0,0,1,1.461-1.348,4.821,4.821,0,0,1,2.191-.482,4.24,4.24,0,0,1,2.819.866,2.955,2.955,0,0,1,1.03,2.4,3.934,3.934,0,0,1-.521,1.855,10.784,10.784,0,0,1-1.7,2.208l-3,3.093h5.706v1.582Z" transform="translate(419 141.755)" fill="#ebf0f5"></path><path d="M77.083,74.256v-7.6H74.96L69.665,74.64l.071,1.2h5.3v2.638h2.05V75.838H78.61V74.256Zm-2.05,0h-3.22l3.076-4.675.144-.264Z" transform="translate(419 141.755)" fill="#ebf0f5"></path><path d="M83.244,72.586,84.982,69.7H87.26l-2.793,4.329,2.887,4.46H85.1L83.27,75.481l-1.812,3.008H79.174l2.887-4.46L79.275,69.7h2.259Z" transform="translate(419 141.755)" fill="#ebf0f5"></path><path d="M96.563,67.756,91.655,78.49H89.5l4.9-10.249H88.051V66.661h8.512Z" transform="translate(419 141.755)" fill="#ebf0f5"></path><path d="M69.4,4.106V46.278a17.012,17.012,0,0,0-2.958-1.295V4.106Z" transform="translate(419 141.755)" fill="#ebf0f5"></path><rect width="3.893" height="65.344" transform="translate(492.086 141.755)" fill="#ebf0f5"></rect><path d="M60.624,14.223H63.51V44.479H63.3a24.916,24.916,0,0,0-2.672.144Z" transform="translate(419 141.755)" fill="#ebf0f5"></path><path d="M64.751,44.6v-.048c.048.024.071.024,0,.048" transform="translate(419 141.755)" fill="#ebf0f5"></path><path d="M57.521,21.7V45.168c-.167.1-.358.192-.549.288a11.5,11.5,0,0,0-2.481,2.086V21.7Z" transform="translate(419 141.755)" fill="#ebf0f5"></path><rect width="96.563" height="78.49" transform="translate(419 141.755)" fill="none"></rect></g></g></svg>