<svg xmlns="http://www.w3.org/2000/svg" width="225" height="225" viewBox="0 0 225 225"><g transform="translate(-3423 -2304)"><g transform="translate(2290.058 -60.634)"><path d="M-41.7.14a4.687,4.687,0,0,1-1.91-.357,2.9,2.9,0,0,1-1.218-.931,2.2,2.2,0,0,1-.441-1.2.262.262,0,0,1,.084-.2.3.3,0,0,1,.21-.077h.686a.387.387,0,0,1,.392.308,1.429,1.429,0,0,0,.784.987,3.254,3.254,0,0,0,1.413.28,2.466,2.466,0,0,0,1.582-.469A1.627,1.627,0,0,0-39.53-2.87q0-1.694-2.058-1.694h-1.33a.313.313,0,0,1-.231-.091.313.313,0,0,1-.091-.231v-.378a.58.58,0,0,1,.154-.378L-40.37-8.61H-44.5a.313.313,0,0,1-.23-.09.313.313,0,0,1-.091-.231v-.532A.337.337,0,0,1-44.73-9.7a.3.3,0,0,1,.231-.1h5.586a.331.331,0,0,1,.245.091.331.331,0,0,1,.091.245v.5a.455.455,0,0,1-.154.322l-2.7,3.01.224.014a3.544,3.544,0,0,1,2.254.742,2.53,2.53,0,0,1,.826,2.044,2.723,2.723,0,0,1-.462,1.582A2.941,2.941,0,0,1-39.865-.217,4.512,4.512,0,0,1-41.7.14ZM-36.32,0a.292.292,0,0,1-.2-.084.274.274,0,0,1-.091-.21.41.41,0,0,1,.1-.252l2.436-3.178-2.282-3.01a.373.373,0,0,1-.1-.252.285.285,0,0,1,.084-.21.285.285,0,0,1,.21-.084h.714a.44.44,0,0,1,.364.224l1.862,2.422,1.862-2.408a1,1,0,0,1,.161-.175A.311.311,0,0,1-31-7.28h.686a.285.285,0,0,1,.21.084.285.285,0,0,1,.084.21.373.373,0,0,1-.1.252L-32.427-3.7l2.436,3.15a.41.41,0,0,1,.1.252.285.285,0,0,1-.084.21.285.285,0,0,1-.21.084h-.742a.445.445,0,0,1-.364-.21l-1.96-2.562L-35.241-.21a.97.97,0,0,1-.161.154A.337.337,0,0,1-35.6,0Zm16.376,0a.313.313,0,0,1-.231-.091.313.313,0,0,1-.091-.231V-6.958a.313.313,0,0,1,.091-.231.313.313,0,0,1,.231-.091h.63a.313.313,0,0,1,.231.091.313.313,0,0,1,.091.231v.49a2.41,2.41,0,0,1,2.03-.952,2.26,2.26,0,0,1,2.2,1.288,2.485,2.485,0,0,1,.952-.938,2.756,2.756,0,0,1,1.386-.35,2.445,2.445,0,0,1,1.876.784A3.216,3.216,0,0,1-9.82-4.368V-.322a.313.313,0,0,1-.091.231A.313.313,0,0,1-10.143,0H-10.8a.313.313,0,0,1-.231-.091.313.313,0,0,1-.091-.231v-3.92a2.225,2.225,0,0,0-.455-1.568,1.58,1.58,0,0,0-1.2-.476,1.537,1.537,0,0,0-1.134.483,2.162,2.162,0,0,0-.476,1.561v3.92a.313.313,0,0,1-.091.231A.313.313,0,0,1-14.707,0h-.658A.313.313,0,0,1-15.6-.091a.313.313,0,0,1-.091-.231v-3.92A2.18,2.18,0,0,0-16.16-5.81a1.591,1.591,0,0,0-1.183-.476,1.537,1.537,0,0,0-1.134.483,2.139,2.139,0,0,0-.476,1.547V-.322a.313.313,0,0,1-.091.231A.313.313,0,0,1-19.271,0ZM-4.4.14A3.182,3.182,0,0,1-6.786-.728a3.363,3.363,0,0,1-.9-2.31l-.014-.6.014-.6a3.355,3.355,0,0,1,.91-2.3A3.173,3.173,0,0,1-4.4-7.42a3.173,3.173,0,0,1,2.38.875,3.355,3.355,0,0,1,.91,2.3q.014.154.014.6t-.014.6a3.363,3.363,0,0,1-.9,2.31A3.182,3.182,0,0,1-4.4.14Zm0-1.078A1.792,1.792,0,0,0-3.006-1.5a2.46,2.46,0,0,0,.553-1.61q.014-.14.014-.532t-.014-.532a2.46,2.46,0,0,0-.553-1.61A1.792,1.792,0,0,0-4.4-6.342a1.814,1.814,0,0,0-1.4.56,2.386,2.386,0,0,0-.546,1.61l-.014.532.014.532A2.386,2.386,0,0,0-5.8-1.5a1.814,1.814,0,0,0,1.4.562ZM1.414,0a.313.313,0,0,1-.231-.091.313.313,0,0,1-.091-.231V-6.944a.337.337,0,0,1,.091-.238.3.3,0,0,1,.231-.1h.644a.324.324,0,0,1,.238.1.324.324,0,0,1,.1.238v.616a2.1,2.1,0,0,1,1.96-.952H4.9a.313.313,0,0,1,.231.091.313.313,0,0,1,.091.231v.574a.29.29,0,0,1-.091.224.327.327,0,0,1-.231.084H4.06a1.594,1.594,0,0,0-1.19.441,1.632,1.632,0,0,0-.434,1.2V-.322a.3.3,0,0,1-.1.231A.337.337,0,0,1,2.1,0ZM9.622.14a3.058,3.058,0,0,1-2.3-.889,3.645,3.645,0,0,1-.945-2.429L6.36-3.654l.014-.462a3.692,3.692,0,0,1,.959-2.408,3.01,3.01,0,0,1,2.275-.9,3.013,3.013,0,0,1,2.408.987A3.937,3.937,0,0,1,12.87-3.77v.238a.313.313,0,0,1-.091.231.313.313,0,0,1-.231.091H7.7v.126a2.594,2.594,0,0,0,.553,1.547A1.646,1.646,0,0,0,9.608-.9a1.96,1.96,0,0,0,1.057-.259,2.076,2.076,0,0,0,.609-.539.815.815,0,0,1,.189-.2.525.525,0,0,1,.231-.035h.686a.317.317,0,0,1,.21.07.241.241,0,0,1,.084.2,1.232,1.232,0,0,1-.385.742,3.169,3.169,0,0,1-1.078.749A3.8,3.8,0,0,1,9.622.14ZM11.54-4.172v-.042a2.326,2.326,0,0,0-.525-1.575A1.764,1.764,0,0,0,9.608-6.4a1.722,1.722,0,0,0-1.393.609A2.367,2.367,0,0,0,7.7-4.214v.042ZM21.515.14a2.616,2.616,0,0,1-2.2-.952,4,4,0,0,1-.784-2.408l-.014-.42.014-.42a4.006,4.006,0,0,1,.784-2.4,2.608,2.608,0,0,1,2.2-.959A2.758,2.758,0,0,1,23.783-6.4V-9.62a.313.313,0,0,1,.091-.231A.313.313,0,0,1,24.1-9.94h.672A.313.313,0,0,1,25-9.849a.313.313,0,0,1,.091.231v9.3A.313.313,0,0,1,25-.087.313.313,0,0,1,24.777,0h-.63a.313.313,0,0,1-.231-.091.313.313,0,0,1-.091-.231V-.91A2.748,2.748,0,0,1,21.515.14Zm.294-1.134a1.7,1.7,0,0,0,1.449-.637,2.66,2.66,0,0,0,.525-1.519q.014-.154.014-.532t-.014-.546a2.339,2.339,0,0,0-.532-1.442,1.757,1.757,0,0,0-1.442-.616,1.682,1.682,0,0,0-1.449.616,2.878,2.878,0,0,0-.5,1.624l-.014.406q0,2.646,1.963,2.646ZM30.534.14a3.058,3.058,0,0,1-2.3-.889,3.645,3.645,0,0,1-.945-2.429l-.014-.476.014-.462a3.692,3.692,0,0,1,.959-2.408,3.01,3.01,0,0,1,2.275-.9,3.013,3.013,0,0,1,2.408.987,3.937,3.937,0,0,1,.854,2.667v.238a.313.313,0,0,1-.091.231.313.313,0,0,1-.231.091H28.616v.126a2.594,2.594,0,0,0,.553,1.547A1.646,1.646,0,0,0,30.52-.9a1.96,1.96,0,0,0,1.057-.259,2.076,2.076,0,0,0,.609-.539.815.815,0,0,1,.189-.2.525.525,0,0,1,.231-.035h.686a.317.317,0,0,1,.21.07.241.241,0,0,1,.084.2,1.232,1.232,0,0,1-.385.742,3.169,3.169,0,0,1-1.078.749A3.8,3.8,0,0,1,30.534.14Zm1.918-4.312v-.042a2.326,2.326,0,0,0-.525-1.575A1.764,1.764,0,0,0,30.52-6.4a1.722,1.722,0,0,0-1.393.609,2.367,2.367,0,0,0-.511,1.575v.042ZM38.181,0a.53.53,0,0,1-.518-.35l-2.59-6.5-.028-.14a.285.285,0,0,1,.084-.21.285.285,0,0,1,.21-.084h.672a.368.368,0,0,1,.35.238l2.129,5.52,2.128-5.516a.377.377,0,0,1,.336-.238h.686a.292.292,0,0,1,.2.084.274.274,0,0,1,.091.21l-.028.14L39.3-.35a.53.53,0,0,1-.518.35ZM-79.653,17.14A3.169,3.169,0,0,1-82,16.293a3.394,3.394,0,0,1-.9-2.373l-.014-.56.014-.56a3.394,3.394,0,0,1,.9-2.373,3.169,3.169,0,0,1,2.345-.847,3.667,3.667,0,0,1,1.708.364,2.662,2.662,0,0,1,1.043.9,2.167,2.167,0,0,1,.371,1.064.245.245,0,0,1-.084.224.353.353,0,0,1-.238.084h-.672a.332.332,0,0,1-.21-.056.577.577,0,0,1-.14-.224,1.832,1.832,0,0,0-.672-.959,1.94,1.94,0,0,0-1.092-.287,1.81,1.81,0,0,0-1.379.539,2.459,2.459,0,0,0-.553,1.645l-.014.5.014.476a2.475,2.475,0,0,0,.546,1.652,1.818,1.818,0,0,0,1.386.532,1.94,1.94,0,0,0,1.092-.287,1.832,1.832,0,0,0,.672-.959.659.659,0,0,1,.14-.231.3.3,0,0,1,.21-.063h.672a.337.337,0,0,1,.238.091.263.263,0,0,1,.084.231,2.191,2.191,0,0,1-.371,1.057,2.647,2.647,0,0,1-1.036.9A3.657,3.657,0,0,1-79.653,17.14Zm8.208,0a3.182,3.182,0,0,1-2.387-.868,3.363,3.363,0,0,1-.9-2.31l-.014-.6.014-.6a3.355,3.355,0,0,1,.91-2.3,3.173,3.173,0,0,1,2.38-.875,3.173,3.173,0,0,1,2.38.875,3.355,3.355,0,0,1,.91,2.3q.014.154.014.6t-.014.6a3.363,3.363,0,0,1-.9,2.31,3.182,3.182,0,0,1-2.394.868Zm0-1.078a1.792,1.792,0,0,0,1.393-.56,2.46,2.46,0,0,0,.553-1.61q.014-.14.014-.532t-.014-.532a2.46,2.46,0,0,0-.553-1.61,1.792,1.792,0,0,0-1.393-.56,1.814,1.814,0,0,0-1.4.56,2.386,2.386,0,0,0-.546,1.61l-.014.532.014.532a2.386,2.386,0,0,0,.546,1.61,1.814,1.814,0,0,0,1.4.56Zm5.813.938a.313.313,0,0,1-.231-.091.313.313,0,0,1-.091-.231V10.042a.313.313,0,0,1,.091-.231.313.313,0,0,1,.231-.091H-65a.313.313,0,0,1,.231.091.313.313,0,0,1,.091.231v.49a2.41,2.41,0,0,1,2.03-.952,2.26,2.26,0,0,1,2.2,1.288A2.485,2.485,0,0,1-59.5,9.93a2.756,2.756,0,0,1,1.386-.35,2.444,2.444,0,0,1,1.876.784,3.216,3.216,0,0,1,.728,2.268v4.046a.313.313,0,0,1-.091.231.313.313,0,0,1-.231.091h-.658a.313.313,0,0,1-.231-.091.313.313,0,0,1-.091-.231v-3.92a2.225,2.225,0,0,0-.455-1.568,1.58,1.58,0,0,0-1.2-.476A1.537,1.537,0,0,0-59.6,11.2a2.162,2.162,0,0,0-.476,1.561v3.92a.313.313,0,0,1-.091.231A.313.313,0,0,1-60.4,17h-.658a.313.313,0,0,1-.231-.091.313.313,0,0,1-.091-.231v-3.92a2.18,2.18,0,0,0-.469-1.568,1.591,1.591,0,0,0-1.183-.476,1.537,1.537,0,0,0-1.134.483,2.139,2.139,0,0,0-.476,1.547v3.934a.313.313,0,0,1-.091.231A.313.313,0,0,1-64.96,17Zm12.883,0a.313.313,0,0,1-.231-.091.313.313,0,0,1-.091-.231V10.042a.313.313,0,0,1,.091-.231.313.313,0,0,1,.231-.091h.63a.313.313,0,0,1,.231.091.313.313,0,0,1,.091.231v.49a2.41,2.41,0,0,1,2.03-.952,2.26,2.26,0,0,1,2.2,1.288,2.485,2.485,0,0,1,.952-.938,2.756,2.756,0,0,1,1.386-.35,2.444,2.444,0,0,1,1.876.784,3.216,3.216,0,0,1,.728,2.268v4.046a.313.313,0,0,1-.091.231.313.313,0,0,1-.231.091H-43.6a.313.313,0,0,1-.231-.091.313.313,0,0,1-.091-.231v-3.92a2.225,2.225,0,0,0-.455-1.568,1.58,1.58,0,0,0-1.2-.476,1.537,1.537,0,0,0-1.134.483,2.162,2.162,0,0,0-.476,1.561v3.92a.313.313,0,0,1-.091.231.313.313,0,0,1-.231.091h-.658a.313.313,0,0,1-.231-.091.313.313,0,0,1-.091-.231v-3.92a2.18,2.18,0,0,0-.469-1.568,1.591,1.591,0,0,0-1.183-.476,1.537,1.537,0,0,0-1.134.483,2.139,2.139,0,0,0-.476,1.547v3.934a.313.313,0,0,1-.091.231.313.313,0,0,1-.231.091Zm15.277.14a2.547,2.547,0,0,1-2.058-.861,3.427,3.427,0,0,1-.728-2.289V10.042a.313.313,0,0,1,.091-.231.313.313,0,0,1,.231-.091h.7A.313.313,0,0,1-39,9.811a.313.313,0,0,1,.091.231V13.92q0,2.086,1.82,2.086a1.826,1.826,0,0,0,1.4-.553,2.155,2.155,0,0,0,.518-1.533V10.042a.313.313,0,0,1,.091-.231.313.313,0,0,1,.231-.091h.7a.29.29,0,0,1,.224.091.327.327,0,0,1,.084.231v6.636a.327.327,0,0,1-.084.231.29.29,0,0,1-.224.091h-.658a.313.313,0,0,1-.231-.091.313.313,0,0,1-.091-.231v-.616a2.575,2.575,0,0,1-.952.805,3.149,3.149,0,0,1-1.39.273ZM-31,17a.313.313,0,0,1-.231-.091.313.313,0,0,1-.091-.231V10.042a.313.313,0,0,1,.091-.231A.313.313,0,0,1-31,9.72h.658a.313.313,0,0,1,.231.091.313.313,0,0,1,.091.231v.616a2.844,2.844,0,0,1,.959-.8,3.036,3.036,0,0,1,1.379-.28,2.627,2.627,0,0,1,2.093.861,3.364,3.364,0,0,1,.749,2.289v3.948a.313.313,0,0,1-.091.231.313.313,0,0,1-.231.091h-.7a.313.313,0,0,1-.231-.091.313.313,0,0,1-.091-.231V12.8a2.248,2.248,0,0,0-.483-1.54,1.762,1.762,0,0,0-1.393-.546,1.826,1.826,0,0,0-1.4.553,2.154,2.154,0,0,0-.518,1.533v3.878a.313.313,0,0,1-.091.231A.313.313,0,0,1-30.3,17Zm8.81-8.638a.313.313,0,0,1-.231-.091.313.313,0,0,1-.091-.231V7.284a.337.337,0,0,1,.091-.238.3.3,0,0,1,.231-.1h.882a.324.324,0,0,1,.238.1.324.324,0,0,1,.1.238V8.04a.3.3,0,0,1-.1.231.337.337,0,0,1-.238.091ZM-22.078,17a.313.313,0,0,1-.231-.091.313.313,0,0,1-.091-.231V10.042a.313.313,0,0,1,.091-.231.313.313,0,0,1,.231-.091h.672a.313.313,0,0,1,.231.091.313.313,0,0,1,.091.231v6.636a.313.313,0,0,1-.091.231.313.313,0,0,1-.231.091Zm6.346,0q-2.212,0-2.212-2.464v-3.7h-1.092a.313.313,0,0,1-.231-.091.313.313,0,0,1-.091-.231v-.476a.313.313,0,0,1,.091-.231.313.313,0,0,1,.231-.091h1.092V7.382a.313.313,0,0,1,.091-.231.313.313,0,0,1,.231-.091h.658a.313.313,0,0,1,.231.091.313.313,0,0,1,.091.231V9.72h1.736a.313.313,0,0,1,.231.091.313.313,0,0,1,.091.231v.476a.313.313,0,0,1-.091.231.313.313,0,0,1-.231.091h-1.736v3.6A1.916,1.916,0,0,0-16.4,15.5a.872.872,0,0,0,.784.357h.854a.313.313,0,0,1,.231.091.313.313,0,0,1,.091.231v.5a.313.313,0,0,1-.091.231.313.313,0,0,1-.231.091Zm3.279-8.638a.313.313,0,0,1-.231-.091.313.313,0,0,1-.091-.231V7.284a.337.337,0,0,1,.091-.238.3.3,0,0,1,.231-.1h.882a.324.324,0,0,1,.238.1.324.324,0,0,1,.1.238V8.04a.3.3,0,0,1-.1.231.337.337,0,0,1-.238.091ZM-12.341,17a.313.313,0,0,1-.231-.091.313.313,0,0,1-.091-.231V10.042a.313.313,0,0,1,.091-.231.313.313,0,0,1,.231-.091h.672a.313.313,0,0,1,.231.091.313.313,0,0,1,.091.231v6.636a.313.313,0,0,1-.091.231.313.313,0,0,1-.231.091Zm6.416.14a3.058,3.058,0,0,1-2.3-.889,3.645,3.645,0,0,1-.945-2.429l-.014-.476.014-.462a3.692,3.692,0,0,1,.959-2.408,3.01,3.01,0,0,1,2.275-.9,3.013,3.013,0,0,1,2.408.987,3.937,3.937,0,0,1,.854,2.667v.238a.313.313,0,0,1-.091.231.313.313,0,0,1-.235.1H-7.844v.126a2.594,2.594,0,0,0,.553,1.547A1.646,1.646,0,0,0-5.94,16.1a1.96,1.96,0,0,0,1.057-.259,2.076,2.076,0,0,0,.609-.539.815.815,0,0,1,.189-.2.525.525,0,0,1,.231-.035h.686a.317.317,0,0,1,.21.07.241.241,0,0,1,.084.2,1.232,1.232,0,0,1-.385.742,3.169,3.169,0,0,1-1.078.749,3.8,3.8,0,0,1-1.589.312Zm1.918-4.312v-.042a2.326,2.326,0,0,0-.525-1.575A1.764,1.764,0,0,0-5.94,10.6a1.722,1.722,0,0,0-1.393.609,2.367,2.367,0,0,0-.511,1.575v.042ZM1.96,17.14a3.83,3.83,0,0,1-1.645-.315A2.8,2.8,0,0,1-.679,16.1a1.189,1.189,0,0,1-.329-.672A.253.253,0,0,1-.9,15.215a.363.363,0,0,1,.217-.077h.63a.321.321,0,0,1,.252.14,2.783,2.783,0,0,0,.728.616,2.113,2.113,0,0,0,1.05.224,2.188,2.188,0,0,0,1.183-.287.891.891,0,0,0,.455-.791.811.811,0,0,0-.189-.553,1.52,1.52,0,0,0-.644-.378,12.1,12.1,0,0,0-1.351-.357A3.538,3.538,0,0,1-.3,12.982a1.749,1.749,0,0,1-.511-1.3A1.829,1.829,0,0,1-.5,10.665a2.269,2.269,0,0,1,.924-.784,3.272,3.272,0,0,1,1.463-.3,3.589,3.589,0,0,1,1.526.294,2.551,2.551,0,0,1,.945.693,1.183,1.183,0,0,1,.315.665.274.274,0,0,1-.091.21.309.309,0,0,1-.217.084H3.78a.345.345,0,0,1-.28-.14,4.491,4.491,0,0,0-.385-.413,1.416,1.416,0,0,0-.462-.259A2.214,2.214,0,0,0,1.89,10.6a1.639,1.639,0,0,0-1.036.287.909.909,0,0,0-.364.749.8.8,0,0,0,.154.5,1.343,1.343,0,0,0,.6.371,9.426,9.426,0,0,0,1.281.35,3.93,3.93,0,0,1,1.883.8A1.763,1.763,0,0,1,4.956,15a1.835,1.835,0,0,1-.35,1.092,2.3,2.3,0,0,1-1.029.77,4.23,4.23,0,0,1-1.617.278Zm11.907,0a3.182,3.182,0,0,1-2.387-.868,3.363,3.363,0,0,1-.9-2.31l-.014-.6.014-.6a3.355,3.355,0,0,1,.91-2.3,3.173,3.173,0,0,1,2.38-.875,3.173,3.173,0,0,1,2.38.875,3.355,3.355,0,0,1,.91,2.3q.014.154.014.6t-.014.6a3.363,3.363,0,0,1-.9,2.31,3.182,3.182,0,0,1-2.393.868Zm0-1.078a1.792,1.792,0,0,0,1.393-.56,2.46,2.46,0,0,0,.553-1.61q.014-.14.014-.532t-.014-.532a2.46,2.46,0,0,0-.553-1.61,1.792,1.792,0,0,0-1.393-.56,1.814,1.814,0,0,0-1.4.56,2.386,2.386,0,0,0-.546,1.61l-.014.532.014.532a2.386,2.386,0,0,0,.546,1.61,1.814,1.814,0,0,0,1.4.56ZM19.681,17a.311.311,0,0,1-.322-.322V10.042a.311.311,0,0,1,.322-.322h.658a.311.311,0,0,1,.322.322v.616a2.844,2.844,0,0,1,.959-.8A3.036,3.036,0,0,1,23,9.58a2.627,2.627,0,0,1,2.093.861,3.364,3.364,0,0,1,.749,2.289v3.948A.311.311,0,0,1,25.52,17h-.7a.311.311,0,0,1-.322-.322V12.8a2.248,2.248,0,0,0-.483-1.54,1.762,1.762,0,0,0-1.393-.546,1.826,1.826,0,0,0-1.4.553A2.154,2.154,0,0,0,20.7,12.8v3.878a.311.311,0,0,1-.322.322Zm12.2.14a2.687,2.687,0,0,1-2.3-1.05v.588A.311.311,0,0,1,29.26,17h-.644a.311.311,0,0,1-.322-.322v-9.3a.311.311,0,0,1,.322-.322H29.3a.29.29,0,0,1,.224.091.327.327,0,0,1,.084.231V10.6a2.758,2.758,0,0,1,2.27-1.02,2.608,2.608,0,0,1,2.2.959,4.076,4.076,0,0,1,.8,2.4q.014.154.014.42t-.014.42a4.065,4.065,0,0,1-.8,2.408,2.616,2.616,0,0,1-2.2.953Zm-.294-1.134a1.682,1.682,0,0,0,1.449-.616,2.878,2.878,0,0,0,.5-1.624q.014-.14.014-.406,0-2.646-1.96-2.646a1.757,1.757,0,0,0-1.442.616,2.339,2.339,0,0,0-.532,1.442l-.014.546.014.532a2.66,2.66,0,0,0,.525,1.519,1.7,1.7,0,0,0,1.443.637ZM40.03,17.14a3.182,3.182,0,0,1-2.387-.868,3.363,3.363,0,0,1-.9-2.31l-.014-.6.014-.6a3.355,3.355,0,0,1,.91-2.3,3.674,3.674,0,0,1,4.76,0,3.355,3.355,0,0,1,.91,2.3q.014.154.014.6t-.014.6a3.363,3.363,0,0,1-.9,2.31A3.182,3.182,0,0,1,40.03,17.14Zm0-1.078a1.792,1.792,0,0,0,1.393-.56,2.46,2.46,0,0,0,.553-1.61q.014-.14.014-.532t-.014-.532a2.46,2.46,0,0,0-.553-1.61,1.792,1.792,0,0,0-1.393-.56,1.814,1.814,0,0,0-1.4.56,2.386,2.386,0,0,0-.546,1.61l-.014.532.014.532a2.386,2.386,0,0,0,.546,1.61,1.814,1.814,0,0,0,1.4.56Zm7.522,1.078a2.925,2.925,0,0,1-1.274-.28,2.357,2.357,0,0,1-.931-.763A1.808,1.808,0,0,1,45,15.026a1.845,1.845,0,0,1,.763-1.519,4.268,4.268,0,0,1,2.065-.777l2.086-.294V12.03q0-1.428-1.638-1.428a1.8,1.8,0,0,0-1.008.259,1.777,1.777,0,0,0-.588.609.416.416,0,0,1-.1.182.254.254,0,0,1-.175.056h-.6A.311.311,0,0,1,45.5,11.4a1.487,1.487,0,0,1,.315-.763,2.444,2.444,0,0,1,.931-.742A3.453,3.453,0,0,1,48.3,9.58a2.968,2.968,0,0,1,2.254.735,2.575,2.575,0,0,1,.686,1.827v4.536a.311.311,0,0,1-.322.322h-.644a.311.311,0,0,1-.322-.322v-.6a2.419,2.419,0,0,1-.9.756,3.215,3.215,0,0,1-1.5.306Zm.294-1.05a1.993,1.993,0,0,0,1.491-.6,2.355,2.355,0,0,0,.581-1.715v-.392l-1.624.238a3.748,3.748,0,0,0-1.5.469.984.984,0,0,0-.042,1.694,1.955,1.955,0,0,0,1.093.306Zm6.163.91a.311.311,0,0,1-.322-.322V10.056a.337.337,0,0,1,.091-.238.3.3,0,0,1,.231-.1h.644a.335.335,0,0,1,.336.336v.616a2.1,2.1,0,0,1,1.96-.952h.546a.311.311,0,0,1,.322.322v.574a.29.29,0,0,1-.091.224.327.327,0,0,1-.231.084h-.84a1.594,1.594,0,0,0-1.19.441,1.632,1.632,0,0,0-.434,1.2v4.116a.3.3,0,0,1-.1.231.337.337,0,0,1-.238.091Zm7.941.14a2.616,2.616,0,0,1-2.2-.952,4,4,0,0,1-.784-2.408l-.014-.42.014-.42a4.006,4.006,0,0,1,.784-2.4,2.608,2.608,0,0,1,2.2-.959A2.758,2.758,0,0,1,64.218,10.6V7.382a.311.311,0,0,1,.322-.322h.672a.311.311,0,0,1,.322.322v9.3a.311.311,0,0,1-.322.322h-.63a.311.311,0,0,1-.322-.322V16.09A2.748,2.748,0,0,1,61.95,17.14Zm.294-1.134a1.7,1.7,0,0,0,1.449-.637,2.66,2.66,0,0,0,.525-1.519q.014-.154.014-.532t-.014-.546a2.339,2.339,0,0,0-.532-1.442,1.757,1.757,0,0,0-1.442-.616,1.682,1.682,0,0,0-1.449.616,2.878,2.878,0,0,0-.5,1.624l-.014.406q0,2.646,1.963,2.646ZM70.97,17.14a3.058,3.058,0,0,1-2.3-.889,3.645,3.645,0,0,1-.945-2.429l-.014-.476.014-.462a3.692,3.692,0,0,1,.959-2.408,3.385,3.385,0,0,1,4.683.091,3.937,3.937,0,0,1,.854,2.667v.238a.311.311,0,0,1-.322.322H69.052v.126a2.594,2.594,0,0,0,.553,1.547,1.646,1.646,0,0,0,1.351.637,1.96,1.96,0,0,0,1.057-.259,2.076,2.076,0,0,0,.609-.539.815.815,0,0,1,.189-.2.525.525,0,0,1,.231-.035h.686a.317.317,0,0,1,.21.07.241.241,0,0,1,.084.2,1.232,1.232,0,0,1-.385.742,3.169,3.169,0,0,1-1.078.749,3.8,3.8,0,0,1-1.589.308Zm1.918-4.312v-.042a2.326,2.326,0,0,0-.525-1.575,1.764,1.764,0,0,0-1.407-.609,1.722,1.722,0,0,0-1.393.609,2.367,2.367,0,0,0-.511,1.575v.042ZM79,17.14a2.616,2.616,0,0,1-2.2-.952,4,4,0,0,1-.784-2.408L76,13.36l.014-.42a4.006,4.006,0,0,1,.784-2.4A2.608,2.608,0,0,1,79,9.58a2.758,2.758,0,0,1,2.263,1.02V7.382a.311.311,0,0,1,.322-.322h.672a.311.311,0,0,1,.322.322v9.3a.311.311,0,0,1-.322.322h-.63a.311.311,0,0,1-.322-.322V16.09A2.748,2.748,0,0,1,79,17.14Zm.294-1.134a1.7,1.7,0,0,0,1.449-.637,2.66,2.66,0,0,0,.525-1.519q.014-.154.014-.532t-.014-.546a2.339,2.339,0,0,0-.532-1.442,1.757,1.757,0,0,0-1.442-.616,1.682,1.682,0,0,0-1.449.616,2.878,2.878,0,0,0-.5,1.624l-.014.406q0,2.646,1.958,2.646Z" transform="translate(1245.856 2542.098)" fill="#455666"></path><g transform="translate(1205.176 2394.63)"><g transform="translate(0 34.311)"><g transform="translate(0.552 0.551)"><path d="M339.374,183.178c-2.134,4.04-12.231,5.374-21.8,5.7s-18.594-.366-18.594-.366-7.431.609-15.719.419-17.432-1.181-20.862-4.382-.914-11.89,2.46-19.777a142.652,142.652,0,0,1,7.6-14.973l.073-.017.074-.015a26.773,26.773,0,0,1,11-11.035,35.917,35.917,0,0,1,30.681-1.6,28.787,28.787,0,0,1,10.283,7.194c4.8,3.492,9.548,11.217,12.572,19.063S341.473,179.2,339.374,183.178Z" transform="translate(-260.767 -134.432)" fill="#0c7ff2"></path></g><path d="M286.7,189.692a99.055,99.055,0,0,1-14.154-.878c-4.488-.674-8.342-1.818-10.36-3.7-1.516-1.416-2.078-3.84-1.689-7.248s1.729-7.8,4.016-13.152c1.674-3.917,3.573-7.659,5.059-10.432s2.556-4.575,2.578-4.61l.061-.1.063-.1.063-.014.064-.014a27.356,27.356,0,0,1,11.385-11.21,36.74,36.74,0,0,1,30.671-1.564,29.282,29.282,0,0,1,10.664,7.4,30.278,30.278,0,0,1,6.826,7.675,61.575,61.575,0,0,1,5.889,11.6,49,49,0,0,1,3.134,12c.377,3.477.073,6.33-.94,8.253h0q-1.4,2.653-7,4.163a70.313,70.313,0,0,1-15.272,1.833c-4.572.155-9.051.078-12.473-.045s-5.789-.292-6.139-.316c-.361.029-1.863.147-4.079.256S289.914,189.692,286.7,189.692Zm-13.722-39.247a126.538,126.538,0,0,0-8.774,18.047c-2.584,6.851-3.915,13.33-1.26,15.809,3.3,3.081,12.265,4.041,20.443,4.229s15.565-.4,15.714-.412h.087c.045,0,2.324.173,5.77.3s8.059.218,12.772.056a72.367,72.367,0,0,0,14.653-1.688c3.587-.908,5.844-2.155,6.664-3.713h0c.926-1.754,1.175-4.487.787-7.828a48.563,48.563,0,0,0-3.035-11.5,60.533,60.533,0,0,0-5.756-11.359,28.987,28.987,0,0,0-6.625-7.454l-.042-.039-.045-.041a28.279,28.279,0,0,0-10.32-7.131,35.4,35.4,0,0,0-29.769,1.518,26.157,26.157,0,0,0-10.974,10.937l-.06.117-.059.117-.085.018Z" transform="translate(-260.373 -134.037)" fill="#24313e"></path></g><g transform="translate(27.03 14.424)"><g transform="translate(0.562 0.558)"><path d="M280.2,126.295a38.507,38.507,0,0,0,2.036,8.5c1.594,4.237,4.343,8.439,8.96,8.327,4.242-.106,6.741-4.521,8.18-8.911a44.014,44.014,0,0,0,1.812-8.749V120.2h-21.07l.043,3.045Z" transform="translate(-280.118 -120.205)" fill="#e7e9f2"></path></g><path d="M291.17,143.829c-4.729,0-7.55-4.152-9.2-8.391a38.2,38.2,0,0,1-2.159-8.928v-.049l-.049-3.326-.049-3.329h22.2v5.854a43.466,43.466,0,0,1-1.959,9.277c-1.515,4.421-4.132,8.78-8.573,8.89h-.208Zm-10.25-17.41a38.479,38.479,0,0,0,2.037,8.412c1.515,3.988,4.061,7.888,8.221,7.888h.168c3.883-.1,6.23-4.2,7.613-8.373a44.091,44.091,0,0,0,1.838-8.756v-4.674H280.838l.04,2.751Z" transform="translate(-279.716 -119.806)" fill="#24313e"></path></g><g transform="translate(22.76)"><g transform="translate(0.552 1.121)"><path d="M277.319,125.694l2.434,3.973,2.434,3.974-.25-2.9-.25-2.9a14.89,14.89,0,0,0,3.123.214c1.654-.073,3.5-.5,4.249-1.933a6.759,6.759,0,0,0,2.757,1.307c1.987.556,5.191.914,10.06.126l.108,2.865.108,2.863s1.11-2.489,2.049-5.4,1.709-6.265,1.03-7.982a3.96,3.96,0,0,0-2.338-2.615,2.29,2.29,0,0,0-1.315-.035,2.974,2.974,0,0,0-.787-2.1c-.9-.992-2.792-1.87-6.8-1.4s-5.391-.4-5.77-1.376a2.741,2.741,0,0,1,.245-2.075,26.546,26.546,0,0,0-6.4,3.973C278.944,116.865,276.173,120.72,277.319,125.694Z" transform="translate(-277.055 -110.286)" fill="#455666"></path></g><path d="M283.1,136.254l-3.071-5.015-3.072-5.014-.011-.045-.01-.043a10.241,10.241,0,0,1,.5-6.266,15.169,15.169,0,0,1,4.364-5.718,26.634,26.634,0,0,1,4.384-3,22.576,22.576,0,0,1,2.169-1.065l.742-.3.742-.3-.4.7-.4.7a2.709,2.709,0,0,0-.235.634,1.494,1.494,0,0,0,.138,1.184,2.061,2.061,0,0,0,1.286.745,10.859,10.859,0,0,0,3.79.064,14.148,14.148,0,0,1,4.31.061,5.4,5.4,0,0,1,2.8,1.351,3.651,3.651,0,0,1,.763,1.072,3.589,3.589,0,0,1,.292.949,3.13,3.13,0,0,1,1.776.521,5.165,5.165,0,0,1,1.875,2.547c.716,1.8-.01,5.156-.938,8.106a59.007,59.007,0,0,1-2.149,5.711l-.486,1.089L301.78,136l-.14-3.744-.14-3.745a26,26,0,0,1-8.389.06,10.444,10.444,0,0,1-3.759-1.342,5.194,5.194,0,0,1-3.467,1.617,14.1,14.1,0,0,1-3.432-.036l.321,3.718ZM278,125.8l1.8,2.932,1.8,2.933-.182-2.1-.182-2.1.361.074.362.073a13.3,13.3,0,0,0,3.556.161c1.371-.138,2.684-.57,3.221-1.593l.173-.33.173-.33.267.26.265.261a6.85,6.85,0,0,0,2.708,1.212,23.52,23.52,0,0,0,9.632.073l.31-.05.309-.05.074,1.9.073,1.9a47.562,47.562,0,0,0,1.852-5.813c.464-1.968.661-3.765.253-4.8a3.581,3.581,0,0,0-1.879-2.247,1.744,1.744,0,0,0-1.083-.08l-.4.126-.4.127.036-.416.038-.416a2.032,2.032,0,0,0-.074-.615,2.536,2.536,0,0,0-.711-1.2,4.5,4.5,0,0,0-2.4-1.066,13.428,13.428,0,0,0-3.794-.02,12.733,12.733,0,0,1-3.99-.035,3.224,3.224,0,0,1-2.142-1.266,2.253,2.253,0,0,1-.338-.847,2.74,2.74,0,0,1-.02-.82,24.545,24.545,0,0,0-6.618,4.789c-2.246,2.385-3.893,5.539-3.046,9.37Z" transform="translate(-276.66 -109.484)" fill="#24313e"></path></g><g transform="translate(21.638 54.677)"><g transform="translate(0.552 0.06)"><path d="M276.252,148.655l.852,7.354.852,7.354" transform="translate(-276.252 -148.655)" fill="#0c7ff2"></path></g><path d="M277.562,163.447l-.852-7.354-.852-7.355.551-.063.552-.063.852,7.353.852,7.354-.552.064Z" transform="translate(-275.857 -148.612)" fill="#24313e"></path></g><g transform="translate(58.001 54.714)"><g transform="translate(0.545 0.101)"><path d="M304.981,148.71l-1.355,7.279-1.357,7.278" transform="translate(-302.269 -148.71)" fill="#0c7ff2"></path></g><path d="M302.97,163.4l-.545-.1-.546-.1,1.357-7.278,1.356-7.279.545.1.546.1-1.357,7.279Z" transform="translate(-301.879 -148.638)" fill="#24313e"></path></g><g transform="translate(0.199 73.028)"><g transform="translate(0.553 0.552)"><path d="M286.036,172.84a5.506,5.506,0,0,1-1.506,4.187,4.428,4.428,0,0,1-3.875,1.381l-7.363-1.153-7.361-1.154a6.023,6.023,0,0,1-4-2.891,7.461,7.461,0,0,1-.862-5.26h0a7.464,7.464,0,0,1,2.784-4.54,6.018,6.018,0,0,1,4.8-1.168l7.334,3.231,7.335,3.232a4.4,4.4,0,0,1,1.895,1.625,5.175,5.175,0,0,1,.825,2.507Z" transform="translate(-260.911 -162.139)" fill="#f5f7f9"></path></g><path d="M281.449,179.17c-.12,0-.242-.006-.365-.014s-.245-.024-.362-.042l-7.362-1.154L266,176.807a6.4,6.4,0,0,1-2.511-1.084,6.859,6.859,0,0,1-1.882-2.072,7.681,7.681,0,0,1-.982-2.7,8.288,8.288,0,0,1,.052-2.947,8,8,0,0,1,3.021-4.894,6.567,6.567,0,0,1,5.214-1.252l.059.018.059.018,7.335,3.232,7.334,3.234a4.945,4.945,0,0,1,2.127,1.812,5.732,5.732,0,0,1,.922,2.789,6.159,6.159,0,0,1-.416,2.661,5.879,5.879,0,0,1-1.5,2.191,5.243,5.243,0,0,1-1.6,1.009A4.826,4.826,0,0,1,281.449,179.17ZM267.7,162.851a5.681,5.681,0,0,0-3.776,1.5,6.974,6.974,0,0,0-2.16,3.862,7.193,7.193,0,0,0-.046,2.542,6.6,6.6,0,0,0,.841,2.322,5.778,5.778,0,0,0,1.566,1.73,5.205,5.205,0,0,0,2.068.9l7.352,1.153,7.352,1.151a3.622,3.622,0,0,0,1.68-.13,4.14,4.14,0,0,0,1.512-.893A4.8,4.8,0,0,0,285.3,175.2a5.07,5.07,0,0,0,.338-2.176h0a4.622,4.622,0,0,0-.724-2.225,3.846,3.846,0,0,0-1.666-1.435l-7.3-3.22-7.3-3.22c-.156-.028-.313-.05-.471-.064s-.314-.021-.472-.02Z" transform="translate(-260.515 -161.744)" fill="#24313e"></path></g><g transform="translate(49.805 74.006)"><g transform="translate(0.555 0.556)"><path d="M297.272,176.746a4.951,4.951,0,0,1-.535-4.553,5.513,5.513,0,0,1,3.445-3.287l8.486-2.861,8.486-2.86a7.818,7.818,0,0,1,5.778.475,7.053,7.053,0,0,1,3.626,4.258h0a7.027,7.027,0,0,1-.653,5.545,7.788,7.788,0,0,1-4.547,3.586l-9.525.982-9.525.981a5.592,5.592,0,0,1-2.866-.454,5.169,5.169,0,0,1-2.171-1.811Z" transform="translate(-296.411 -162.842)" fill="#f5f7f9"></path></g><path d="M301.875,179.756a6.088,6.088,0,0,1-2.789-.669,5.726,5.726,0,0,1-2.118-1.871h0a5.5,5.5,0,0,1-.9-2.36,5.561,5.561,0,0,1,.249-2.528,5.93,5.93,0,0,1,1.46-2.332,6.228,6.228,0,0,1,2.39-1.46l8.486-2.862,8.486-2.86a8.394,8.394,0,0,1,6.214.517,7.609,7.609,0,0,1,3.9,4.581,7.49,7.49,0,0,1,.282,2.943,7.749,7.749,0,0,1-.885,2.859,8.191,8.191,0,0,1-2.064,2.494,8.51,8.51,0,0,1-2.907,1.527l-.052.01-.052.011-9.525.981-9.525.981c-.108.011-.219.021-.326.027S301.982,179.756,301.875,179.756Zm17.739-16.2a7.183,7.183,0,0,0-1.068.078,7.459,7.459,0,0,0-1.075.239l-8.478,2.858-8.477,2.859a5.116,5.116,0,0,0-1.959,1.191,4.806,4.806,0,0,0-1.192,1.9,4.477,4.477,0,0,0-.2,2.023,4.389,4.389,0,0,0,.722,1.888h0a4.613,4.613,0,0,0,1.945,1.621,5.036,5.036,0,0,0,2.577.4l9.5-.978,9.494-.98a7.371,7.371,0,0,0,2.493-1.325,7.071,7.071,0,0,0,1.771-2.145,6.658,6.658,0,0,0,.757-2.443,6.356,6.356,0,0,0-.24-2.511,6.43,6.43,0,0,0-2.492-3.41,7.124,7.124,0,0,0-4.075-1.266Z" transform="translate(-296.014 -162.444)" fill="#24313e"></path></g><g transform="translate(16.35 63.945)"><g transform="translate(0.556 0.551)"><path d="M318,184.106H278.045a2.2,2.2,0,0,1-2.179-1.9l-1.694-12.431-1.692-12.431a1.536,1.536,0,0,1,1.525-1.7h48.038a1.536,1.536,0,0,1,1.524,1.7l-1.693,12.431L320.181,182.2A2.195,2.195,0,0,1,318,184.1Z" transform="translate(-272.471 -155.638)" fill="#e7e9f2"></path></g><path d="M318.155,184.816H278.2a2.766,2.766,0,0,1-2.731-2.383L273.779,170l-1.694-12.431a2.14,2.14,0,0,1,.088-.876,2.09,2.09,0,0,1,1.989-1.45H322.2a2.087,2.087,0,0,1,2.077,2.314L322.583,170l-1.7,12.44a2.758,2.758,0,0,1-2.733,2.38Zm-44-28.466a.978.978,0,0,0-.975,1.086l1.692,12.424,1.692,12.424a1.652,1.652,0,0,0,1.631,1.423h39.953a1.65,1.65,0,0,0,1.629-1.423l1.694-12.431,1.694-12.431a.942.942,0,0,0-.042-.394.989.989,0,0,0-.2-.352,1.008,1.008,0,0,0-.33-.242.98.98,0,0,0-.4-.084H274.159Z" transform="translate(-272.073 -155.244)" fill="#24313e"></path></g><g transform="translate(35.02 74.78)"><path d="M288.807,169.1l-3.122-2.124a.762.762,0,0,1-.19-.17.328.328,0,0,1-.062-.2v-.27a.357.357,0,0,1,.062-.208.7.7,0,0,1,.19-.173l3.122-2.124a.386.386,0,0,1,.145-.052.185.185,0,0,1,.13.048.159.159,0,0,1,.052.126v.936a.282.282,0,0,1-.064.194.775.775,0,0,1-.177.147L287,166.465l1.891,1.249a.727.727,0,0,1,.182.138.276.276,0,0,1,.06.19v.936a.178.178,0,0,1-.052.131.175.175,0,0,1-.13.052.311.311,0,0,1-.144-.061Z" transform="translate(-285.434 -162.69)" fill="#455666"></path><path d="M288.654,170.485a.178.178,0,0,1-.056-.126.391.391,0,0,1,.027-.087l2.93-7.067a.333.333,0,0,1,.312-.208h.78a.167.167,0,0,1,.13.056.179.179,0,0,1,.052.126.236.236,0,0,1-.017.088l-2.949,7.065a.311.311,0,0,1-.312.208h-.763A.18.18,0,0,1,288.654,170.485Z" transform="translate(-284.176 -162.998)" fill="#455666"></path><path d="M292.193,169.107a.178.178,0,0,1-.052-.13v-.935a.278.278,0,0,1,.062-.19.7.7,0,0,1,.182-.138l1.882-1.249-1.882-1.241a.775.775,0,0,1-.177-.147.283.283,0,0,1-.066-.194v-.936a.164.164,0,0,1,.052-.126.173.173,0,0,1,.122-.048.3.3,0,0,1,.147.052l3.129,2.124a.732.732,0,0,1,.191.173.356.356,0,0,1,.06.208v.268a.328.328,0,0,1-.06.2.77.77,0,0,1-.191.17l-3.129,2.124a.255.255,0,0,1-.147.06A.168.168,0,0,1,292.193,169.107Z" transform="translate(-282.769 -162.69)" fill="#455666"></path></g></g></g><g transform="translate(3423 2304)" fill="#fff" stroke="#707070" stroke-width="1" opacity="0"><rect width="225" height="225" stroke="none"></rect><rect x="0.5" y="0.5" width="224" height="224" fill="none"></rect></g></g></svg>