<svg xmlns="http://www.w3.org/2000/svg" xmlns:xlink="http://www.w3.org/1999/xlink" width="211.506" height="27.24" viewBox="0 0 211.506 27.24"><defs><clipPath id="clip-path"><rect id="Rectangle_2543" data-name="Rectangle 2543" width="211.506" height="27.24" transform="translate(0 0)" fill="none"></rect></clipPath></defs><g id="Group_1829" data-name="Group 1829" transform="translate(0 0)"><g id="Group_1828" data-name="Group 1828" clip-path="url(#clip-path)"><path id="Path_35043" data-name="Path 35043" d="M129.964,10.964q0-4.843,0-9.687c0-1.094.164-1.259,1.277-1.252.729,0,1.459-.026,2.189.043a.685.685,0,0,1,.678.653,6.094,6.094,0,0,1,0,1.138c-.006,1.458-.005,2.915-.006,4.372a2.275,2.275,0,0,0,.012.248c.1.887.317.981,1.041.453a5.938,5.938,0,0,1,9.2,2.254,10.772,10.772,0,0,1,.932,5.9,9.147,9.147,0,0,1-1.675,4.752,5.649,5.649,0,0,1-5.254,2.319,5.806,5.806,0,0,1-3.643-1.393c-.4-.36-.6-.271-.776.244-.265.757-.276.765-1.1.773-.631.006-1.262.007-1.893.013-.717.006-.947-.179-.953-.89-.02-2.633-.02-5.265-.027-7.9,0-.679,0-1.358,0-2.037m11.207,3.121a5.884,5.884,0,0,0-1.309-4.219,3.085,3.085,0,0,0-4.856.331,6.813,6.813,0,0,0-.1,7.255,3.113,3.113,0,0,0,5.412-.07,6.19,6.19,0,0,0,.855-3.3" fill="#fff"></path><path id="Path_35044" data-name="Path 35044" d="M45.11,14.909q-2.216,0-4.431,0c-.8,0-1.092.365-.922,1.135a5.244,5.244,0,0,0,.216.761,3.211,3.211,0,0,0,3.5,2.132,3.636,3.636,0,0,0,3.057-1.577,1.1,1.1,0,0,1,.9-.456c.679-.016,1.361-.019,2.039.022.612.037.792.326.556.906a6.423,6.423,0,0,1-5,4.144,8.778,8.778,0,0,1-4.036-.118,6.92,6.92,0,0,1-4.954-4.528,9.711,9.711,0,0,1-.2-6.093A7.631,7.631,0,0,1,43.9,5.619a6.88,6.88,0,0,1,4.8,2.405,8.616,8.616,0,0,1,1.771,3.831,11.584,11.584,0,0,1,.212,2.265.668.668,0,0,1-.6.731,4.306,4.306,0,0,1-.891.067q-2.042,0-4.083,0Zm-2.041-2.686v-.009c.828,0,1.657.014,2.485,0,.614-.014.856-.325.743-.891a3.073,3.073,0,0,0-3.044-2.493A3.266,3.266,0,0,0,39.86,11.1c-.217.762.026,1.1.823,1.118s1.591,0,2.386,0" fill="#fff"></path><path id="Path_35045" data-name="Path 35045" d="M115.177,5.962c.432,0,.864,0,1.295,0a.951.951,0,0,1,1.068.769q1.2,3.726,2.395,7.455c.157.487.325.971.487,1.457a.357.357,0,0,0,.307.284.363.363,0,0,0,.389-.248c.146-.351.293-.7.406-1.064.8-2.571,1.591-5.145,2.395-7.715.256-.821.428-.934,1.286-.937.747,0,1.495-.009,2.242.009s.938.257.685.966c-1.176,3.3-2.372,6.591-3.559,9.885-.884,2.456-1.752,4.916-2.705,7.347a4.62,4.62,0,0,1-4.5,3.048,11.963,11.963,0,0,1-2.237-.073.8.8,0,0,1-.792-.792,14.628,14.628,0,0,1,0-2.083.607.607,0,0,1,.686-.622c.465,0,.93,0,1.394.024a1.925,1.925,0,0,0,1.93-2.232,15.9,15.9,0,0,0-.845-2.69q-1.925-5.337-3.85-10.672c-.141-.389-.306-.768-.438-1.159-.222-.657-.015-.946.673-.957.431-.007.863,0,1.295,0" fill="#fff"></path><path id="Path_35046" data-name="Path 35046" d="M8.006,5.638a7.961,7.961,0,0,1,3.743.864A6.977,6.977,0,0,1,15.387,11a10.026,10.026,0,0,1-.166,6.381A6.891,6.891,0,0,1,9.593,22c-3.122.544-5.919-.1-7.977-2.733A8.212,8.212,0,0,1,0,14.252c-.078-3.014.819-5.6,3.408-7.407A8.352,8.352,0,0,1,8.006,5.638m3.644,8.277a9.187,9.187,0,0,0-.335-2.4A3.536,3.536,0,0,0,8.259,8.848a3.33,3.33,0,0,0-3.594,2.237,7.647,7.647,0,0,0,.067,5.8,3.181,3.181,0,0,0,3.036,2.092,3.306,3.306,0,0,0,3.187-1.8,6.948,6.948,0,0,0,.695-3.257" fill="#fff"></path><path id="Path_35047" data-name="Path 35047" d="M203.537,5.856a8.036,8.036,0,0,1,3.532.7,6.847,6.847,0,0,1,3.846,4.249,9.766,9.766,0,0,1-.262,7.345,7.076,7.076,0,0,1-6.136,4.191,7.9,7.9,0,0,1-5.833-1.46A7.548,7.548,0,0,1,195.75,15.4a10.163,10.163,0,0,1,.32-4.17,7.065,7.065,0,0,1,5.594-5.185,7.634,7.634,0,0,1,1.873-.188m-3.711,8.271a7.161,7.161,0,0,0,.642,3.128,3.181,3.181,0,0,0,2.8,1.92,3.33,3.33,0,0,0,3.2-1.526,5.693,5.693,0,0,0,.83-2.973,7.083,7.083,0,0,0-.787-3.978,3.47,3.47,0,0,0-5.962.112,7.775,7.775,0,0,0-.721,3.317" fill="#fd963f"></path><path id="Path_35048" data-name="Path 35048" d="M18.618,13.885c0-2.218,0-4.437,0-6.657,0-1.027.14-1.169,1.176-1.2.564-.015,1.13-.009,1.694.007.844.024.962.132,1.091.955.032.2.072.4.3.467a.541.541,0,0,0,.527-.208,5.592,5.592,0,0,1,4.135-1.625c3.216.026,4.995,1.629,5.307,4.814.132,1.34.062,2.681.07,4.021.012,2.069,0,4.14-.011,6.209-.006.95-.171,1.1-1.1,1.107-.648,0-1.3,0-1.943,0-.892-.013-1.091-.2-1.094-1.081q-.012-3.253-.006-6.508c0-.861-.021-1.721-.091-2.58a2.515,2.515,0,0,0-2.6-2.628,2.832,2.832,0,0,0-3.081,2.448,18.584,18.584,0,0,0-.213,3.267q.008,2.982,0,5.962c0,.866-.221,1.1-1.077,1.114-.7.013-1.4.011-2.092,0-.779-.014-1-.242-1-1.025,0-1.87.006-3.743.009-5.613,0-.414,0-.828,0-1.243" fill="#fff"></path><path id="Path_35049" data-name="Path 35049" d="M67.511,13.928q0,3.4,0,6.807c0,.851-.161,1.021-1.008,1.034-.7.011-1.394,0-2.092,0a.726.726,0,0,1-.8-.638c-.247-1.006-.4-1.076-1.141-.339-1.928,1.927-6,1.661-7.516.268a4.678,4.678,0,0,1-1.479-2.578,16.4,16.4,0,0,1-.276-3.211c-.01-2.716,0-5.432,0-8.148,0-.847.219-1.069,1.047-1.07.747,0,1.495-.005,2.242.007.579.01.807.225.859.8.026.3.019.6.019.894,0,2.335,0,4.67.014,7a9.843,9.843,0,0,0,.169,1.976,2.4,2.4,0,0,0,1.961,2.045,3.009,3.009,0,0,0,3.252-1.379,6.046,6.046,0,0,0,.569-2.8c.023-2.467.015-4.935.02-7.4,0-.946.187-1.138,1.131-1.15.7-.008,1.4-.006,2.093,0,.728,0,.925.189.931.965.015,1.821.008,3.643.009,5.465v1.441" fill="#fff"></path><path id="Path_35050" data-name="Path 35050" d="M191.361,11.719c-1,.244-1.7-.144-2.292-1.288-.974-1.893-3.853-1.873-5.166-.083a6.5,6.5,0,0,0-1.045,4.3,6.286,6.286,0,0,0,.681,2.72,3.085,3.085,0,0,0,2.98,1.784,3.042,3.042,0,0,0,2.909-2.039c.485-1.186.517-1.213,1.826-1.183a12.98,12.98,0,0,1,1.589.051c.607.089.847.338.706.918a6.791,6.791,0,0,1-2.287,3.86,7.658,7.658,0,0,1-5.649,1.548,7.439,7.439,0,0,1-3.794-1.335,7.162,7.162,0,0,1-2.948-4.722,9.722,9.722,0,0,1,.988-6.764,6.98,6.98,0,0,1,5.815-3.636,7.963,7.963,0,0,1,5.072,1.032,5.945,5.945,0,0,1,2.785,4,.621.621,0,0,1-.653.831c-.447.024-.9.005-1.517.005" fill="#fd963f"></path><path id="Path_35051" data-name="Path 35051" d="M71.964,14.131c0-1.374,0-2.749,0-4.123,0-.828-.374-1.188-1.2-1.129a3.168,3.168,0,0,1-.5.023c-.6-.052-.83-.281-.857-.879a11.847,11.847,0,0,1,.011-1.192c.028-.54.278-.765.821-.783.315-.011.63-.018.945-.036a.7.7,0,0,0,.725-.773q.022-1.365.027-2.732c.007-1.043.163-1.2,1.224-1.2.7,0,1.4-.013,2.091.028.671.039.833.239.837.906,0,.894-.005,1.788,0,2.683.01.873.249,1.1,1.141,1.121.381.008.764.016,1.145.009a.665.665,0,0,1,.758.674,12.4,12.4,0,0,1,.038,1.39.69.69,0,0,1-.756.737c-.48.023-.963.006-1.442.041-.61.044-.883.311-.885.913-.006,2.335.008,4.67.02,7.005a3.448,3.448,0,0,0,.057.493c.13.829.53,1.179,1.46,1.26.281.024.564.011.846.021a.638.638,0,0,1,.694.68q.018.92-.009,1.838a.683.683,0,0,1-.615.734,11.365,11.365,0,0,1-4.247-.209,3.1,3.1,0,0,1-2.352-3.278c-.041-1.407-.009-2.815-.009-4.223h.022" fill="#fff"></path><path id="Path_35052" data-name="Path 35052" d="M105.336,14.155c0-1.391,0-2.782,0-4.173,0-.8-.372-1.156-1.173-1.1-.132.008-.265.036-.4.034-.685-.01-.964-.28-.981-.966-.01-.38-.006-.762.016-1.142a.714.714,0,0,1,.8-.756c.315-.012.63-.016.945-.032a.718.718,0,0,0,.751-.8q.017-1.315.021-2.632c0-1.13.142-1.274,1.253-1.272.68,0,1.363-.013,2.041.025.7.04.859.24.863.935,0,.928-.007,1.855.008,2.783.011.7.257.952.961.989.43.023.863.025,1.294.014a.68.68,0,0,1,.785.7,11.114,11.114,0,0,1,.034,1.389.683.683,0,0,1-.731.714c-.5.01-1,.005-1.492.042-.584.044-.854.305-.855.886-.008,2.368-.019,4.737.028,7.105.025,1.243.53,1.668,1.78,1.69.149,0,.3,0,.448.005.6.019.813.219.823.809.01.546,0,1.093-.007,1.639-.007.409-.19.767-.6.8a11.2,11.2,0,0,1-4.247-.2,3.11,3.11,0,0,1-2.379-3.31c-.034-1.39-.007-2.782-.007-4.173h.02" fill="#fff"></path><path id="Path_35053" data-name="Path 35053" d="M167.668,10.882v9.785c0,.868-.269,1.127-1.133,1.108-.7-.015-1.394,0-2.091-.026s-.92-.226-.928-.939c-.017-1.771-.013-3.543-.015-5.314q-.008-7.177-.012-14.355c0-.921.218-1.14,1.141-1.14.68,0,1.361-.006,2.041.009.768.016.976.219.981.988.012,1.771.008,3.543.009,5.314q0,2.286,0,4.57h.007" fill="#fff"></path><path id="Path_35054" data-name="Path 35054" d="M93.147,10.91v9.784c0,.841-.27,1.1-1.107,1.083-.68-.014-1.361-.005-2.041-.023-.78-.021-.984-.207-.991-.972-.018-1.838-.016-3.675-.019-5.513q-.01-7.053-.018-14.105C88.97.218,89.185,0,90.141,0,90.821,0,91.5,0,92.182.011c.735.017.945.227.946.966q.009,4.967,0,9.933h.016" fill="#fff"></path><path id="Path_35055" data-name="Path 35055" d="M160.016,10.909v9.784c0,.842-.269,1.1-1.106,1.084-.664-.013-1.328-.007-1.991-.022-.842-.018-1.037-.2-1.038-1.022q-.014-9.089-.013-18.177c0-.53-.036-1.06-.018-1.589.024-.748.262-.963,1.01-.964.73,0,1.46-.007,2.191.009s.941.221.943.964q.009,4.967,0,9.933h.02" fill="#fff"></path><path id="Path_35056" data-name="Path 35056" d="M96.632,13.814q0-3.351,0-6.7c0-.865.186-1.066,1.04-1.082.746-.014,1.493-.029,2.237,0,.7.03.87.222.876.924.013,1.588.009,3.177.009,4.766q0,4.393,0,8.787c0,1.108-.176,1.265-1.274,1.254-.63-.007-1.261,0-1.891-.011-.764-.018-.966-.215-.981-.988-.018-.993-.011-1.986-.012-2.978q0-1.986,0-3.972" fill="#fff"></path><path id="Path_35057" data-name="Path 35057" d="M152.348,13.908c0,2.267.009,4.534-.005,6.8-.005.883-.22,1.064-1.1,1.057-.7-.006-1.394,0-2.09-.016s-.915-.225-.917-.939q-.012-4.964-.009-9.927c0-1.324,0-2.647,0-3.971,0-.609.187-.835.777-.861.81-.036,1.624-.051,2.435-.021.759.027.9.185.908.929.012,2.316,0,4.633,0,6.949" fill="#fff"></path><path id="Path_35058" data-name="Path 35058" d="M85.472,13.9c0,2.316.006,4.633,0,6.949,0,.685-.253.912-.942.914-.747,0-1.493,0-2.24-.016-.718-.018-.918-.217-.92-.932q-.013-4.839-.011-9.679c0-1.407,0-2.813,0-4.219,0-.631.191-.849.819-.872.827-.031,1.657-.042,2.484-.012.647.023.811.213.814.868.008,2.333,0,4.666,0,7h0" fill="#fff"></path><path id="Path_35059" data-name="Path 35059" d="M171.126,19.587c0-.479-.01-.959,0-1.438.015-.569.258-.823.821-.831.961-.013,1.923-.015,2.884,0,.606.009.83.194.858.79.048,1.04.048,2.082-.008,3.123a.679.679,0,0,1-.73.71c-1.044.022-2.088.025-3.132,0a.661.661,0,0,1-.673-.716c-.011-.545,0-1.091,0-1.636h-.02" fill="#fd963f"></path><path id="Path_35060" data-name="Path 35060" d="M98.729.014c.414,0,.828,0,1.242,0a.719.719,0,0,1,.808.747q.038,1.04,0,2.08a.631.631,0,0,1-.69.635c-.911.019-1.822.016-2.732.006a.624.624,0,0,1-.678-.585A9.874,9.874,0,0,1,96.674.624a.653.653,0,0,1,.713-.616c.447-.011.895,0,1.342,0V.014" fill="#fff"></path><path id="Path_35061" data-name="Path 35061" d="M83.386,3.484c-.447,0-.894.013-1.34,0a.641.641,0,0,1-.673-.65,15.065,15.065,0,0,1,0-2.177.64.64,0,0,1,.686-.642q1.341-.02,2.681.01a.686.686,0,0,1,.732.759c.007.66,0,1.321.008,1.981a.65.65,0,0,1-.707.716c-.462.022-.927.005-1.39.005v0" fill="#fff"></path><path id="Path_35062" data-name="Path 35062" d="M150.324,3.486c-.464,0-.928.011-1.391,0a.642.642,0,0,1-.691-.684c-.018-.709-.024-1.419,0-2.128a.638.638,0,0,1,.672-.657q1.365-.024,2.731.011a.647.647,0,0,1,.69.689q.022,1.063.009,2.128c0,.434-.3.613-.681.634-.445.023-.893,0-1.339,0v.005" fill="#fff"></path></g></g></svg>